%TF.GenerationSoftware,KiCad,Pcbnew,8.0.3*%
%TF.CreationDate,2024-06-28T08:29:35+01:00*%
%TF.ProjectId,esp32-s3-spectrum,65737033-322d-4733-932d-737065637472,rev?*%
%TF.SameCoordinates,Original*%
%TF.FileFunction,Soldermask,Top*%
%TF.FilePolarity,Negative*%
%FSLAX46Y46*%
G04 Gerber Fmt 4.6, Leading zero omitted, Abs format (unit mm)*
G04 Created by KiCad (PCBNEW 8.0.3) date 2024-06-28 08:29:35*
%MOMM*%
%LPD*%
G01*
G04 APERTURE LIST*
G04 Aperture macros list*
%AMRoundRect*
0 Rectangle with rounded corners*
0 $1 Rounding radius*
0 $2 $3 $4 $5 $6 $7 $8 $9 X,Y pos of 4 corners*
0 Add a 4 corners polygon primitive as box body*
4,1,4,$2,$3,$4,$5,$6,$7,$8,$9,$2,$3,0*
0 Add four circle primitives for the rounded corners*
1,1,$1+$1,$2,$3*
1,1,$1+$1,$4,$5*
1,1,$1+$1,$6,$7*
1,1,$1+$1,$8,$9*
0 Add four rect primitives between the rounded corners*
20,1,$1+$1,$2,$3,$4,$5,0*
20,1,$1+$1,$4,$5,$6,$7,0*
20,1,$1+$1,$6,$7,$8,$9,0*
20,1,$1+$1,$8,$9,$2,$3,0*%
G04 Aperture macros list end*
%ADD10C,0.010000*%
%ADD11R,2.000000X2.500000*%
%ADD12RoundRect,0.200000X-0.200000X-0.275000X0.200000X-0.275000X0.200000X0.275000X-0.200000X0.275000X0*%
%ADD13RoundRect,0.218750X-0.218750X-0.256250X0.218750X-0.256250X0.218750X0.256250X-0.218750X0.256250X0*%
%ADD14RoundRect,0.225000X-0.225000X-0.250000X0.225000X-0.250000X0.225000X0.250000X-0.225000X0.250000X0*%
%ADD15RoundRect,0.250000X0.362500X1.425000X-0.362500X1.425000X-0.362500X-1.425000X0.362500X-1.425000X0*%
%ADD16RoundRect,0.225000X-0.250000X0.225000X-0.250000X-0.225000X0.250000X-0.225000X0.250000X0.225000X0*%
%ADD17R,3.800000X1.000000*%
%ADD18R,3.400000X1.500000*%
%ADD19C,1.100000*%
%ADD20R,3.200000X2.000000*%
%ADD21C,3.000000*%
%ADD22C,0.600000*%
%ADD23O,0.900000X2.000000*%
%ADD24O,0.900000X1.700000*%
%ADD25C,2.200000*%
%ADD26R,0.400000X0.800000*%
%ADD27RoundRect,0.200000X0.275000X-0.200000X0.275000X0.200000X-0.275000X0.200000X-0.275000X-0.200000X0*%
%ADD28RoundRect,0.200000X0.200000X0.275000X-0.200000X0.275000X-0.200000X-0.275000X0.200000X-0.275000X0*%
%ADD29R,1.000000X0.750000*%
%ADD30RoundRect,0.218750X0.218750X0.256250X-0.218750X0.256250X-0.218750X-0.256250X0.218750X-0.256250X0*%
%ADD31C,0.700000*%
%ADD32R,0.900000X1.200000*%
%ADD33R,1.200000X1.300000*%
%ADD34RoundRect,0.150000X0.150000X-0.825000X0.150000X0.825000X-0.150000X0.825000X-0.150000X-0.825000X0*%
%ADD35RoundRect,0.225000X0.250000X-0.225000X0.250000X0.225000X-0.250000X0.225000X-0.250000X-0.225000X0*%
%ADD36C,0.850000*%
%ADD37R,0.900000X2.000000*%
%ADD38R,1.100000X0.930000*%
%ADD39C,1.600000*%
%ADD40R,1.300000X0.800000*%
%ADD41R,1.600000X1.300000*%
%ADD42RoundRect,0.100000X0.155000X0.100000X-0.155000X0.100000X-0.155000X-0.100000X0.155000X-0.100000X0*%
%ADD43RoundRect,0.200000X-0.275000X0.200000X-0.275000X-0.200000X0.275000X-0.200000X0.275000X0.200000X0*%
%ADD44RoundRect,0.102000X0.775000X-0.300000X0.775000X0.300000X-0.775000X0.300000X-0.775000X-0.300000X0*%
%ADD45RoundRect,0.102000X-0.900000X0.600000X-0.900000X-0.600000X0.900000X-0.600000X0.900000X0.600000X0*%
%ADD46R,2.000000X0.600000*%
%ADD47R,2.800000X2.300000*%
%ADD48RoundRect,0.150000X0.512500X0.150000X-0.512500X0.150000X-0.512500X-0.150000X0.512500X-0.150000X0*%
%ADD49R,1.700000X1.700000*%
%ADD50O,1.700000X1.700000*%
%ADD51R,1.800000X0.300000*%
%ADD52R,3.200000X2.500000*%
%ADD53RoundRect,0.102000X0.300000X0.775000X-0.300000X0.775000X-0.300000X-0.775000X0.300000X-0.775000X0*%
%ADD54RoundRect,0.102000X-0.600000X-0.900000X0.600000X-0.900000X0.600000X0.900000X-0.600000X0.900000X0*%
%ADD55R,1.500000X0.900000*%
%ADD56R,0.900000X1.500000*%
%ADD57R,0.900000X0.900000*%
%ADD58R,0.750000X1.000000*%
G04 APERTURE END LIST*
D10*
%TO.C,J1*%
X188180000Y-39340000D02*
X187480000Y-39340000D01*
X187480000Y-38100000D01*
X188180000Y-38100000D01*
X188180000Y-39340000D01*
G36*
X188180000Y-39340000D02*
G01*
X187480000Y-39340000D01*
X187480000Y-38100000D01*
X188180000Y-38100000D01*
X188180000Y-39340000D01*
G37*
X188980000Y-39340000D02*
X188280000Y-39340000D01*
X188280000Y-38100000D01*
X188980000Y-38100000D01*
X188980000Y-39340000D01*
G36*
X188980000Y-39340000D02*
G01*
X188280000Y-39340000D01*
X188280000Y-38100000D01*
X188980000Y-38100000D01*
X188980000Y-39340000D01*
G37*
X189480000Y-39340000D02*
X189080000Y-39340000D01*
X189080000Y-38100000D01*
X189480000Y-38100000D01*
X189480000Y-39340000D01*
G36*
X189480000Y-39340000D02*
G01*
X189080000Y-39340000D01*
X189080000Y-38100000D01*
X189480000Y-38100000D01*
X189480000Y-39340000D01*
G37*
X189980000Y-39340000D02*
X189580000Y-39340000D01*
X189580000Y-38100000D01*
X189980000Y-38100000D01*
X189980000Y-39340000D01*
G36*
X189980000Y-39340000D02*
G01*
X189580000Y-39340000D01*
X189580000Y-38100000D01*
X189980000Y-38100000D01*
X189980000Y-39340000D01*
G37*
X190480000Y-39340000D02*
X190080000Y-39340000D01*
X190080000Y-38100000D01*
X190480000Y-38100000D01*
X190480000Y-39340000D01*
G36*
X190480000Y-39340000D02*
G01*
X190080000Y-39340000D01*
X190080000Y-38100000D01*
X190480000Y-38100000D01*
X190480000Y-39340000D01*
G37*
X190980000Y-39340000D02*
X190580000Y-39340000D01*
X190580000Y-38100000D01*
X190980000Y-38100000D01*
X190980000Y-39340000D01*
G36*
X190980000Y-39340000D02*
G01*
X190580000Y-39340000D01*
X190580000Y-38100000D01*
X190980000Y-38100000D01*
X190980000Y-39340000D01*
G37*
X191480000Y-39340000D02*
X191080000Y-39340000D01*
X191080000Y-38100000D01*
X191480000Y-38100000D01*
X191480000Y-39340000D01*
G36*
X191480000Y-39340000D02*
G01*
X191080000Y-39340000D01*
X191080000Y-38100000D01*
X191480000Y-38100000D01*
X191480000Y-39340000D01*
G37*
X191980000Y-39340000D02*
X191580000Y-39340000D01*
X191580000Y-38100000D01*
X191980000Y-38100000D01*
X191980000Y-39340000D01*
G36*
X191980000Y-39340000D02*
G01*
X191580000Y-39340000D01*
X191580000Y-38100000D01*
X191980000Y-38100000D01*
X191980000Y-39340000D01*
G37*
X192480000Y-39340000D02*
X192080000Y-39340000D01*
X192080000Y-38100000D01*
X192480000Y-38100000D01*
X192480000Y-39340000D01*
G36*
X192480000Y-39340000D02*
G01*
X192080000Y-39340000D01*
X192080000Y-38100000D01*
X192480000Y-38100000D01*
X192480000Y-39340000D01*
G37*
X192980000Y-39340000D02*
X192580000Y-39340000D01*
X192580000Y-38100000D01*
X192980000Y-38100000D01*
X192980000Y-39340000D01*
G36*
X192980000Y-39340000D02*
G01*
X192580000Y-39340000D01*
X192580000Y-38100000D01*
X192980000Y-38100000D01*
X192980000Y-39340000D01*
G37*
X193780000Y-39340000D02*
X193080000Y-39340000D01*
X193080000Y-38100000D01*
X193780000Y-38100000D01*
X193780000Y-39340000D01*
G36*
X193780000Y-39340000D02*
G01*
X193080000Y-39340000D01*
X193080000Y-38100000D01*
X193780000Y-38100000D01*
X193780000Y-39340000D01*
G37*
X194580000Y-39340000D02*
X193880000Y-39340000D01*
X193880000Y-38100000D01*
X194580000Y-38100000D01*
X194580000Y-39340000D01*
G36*
X194580000Y-39340000D02*
G01*
X193880000Y-39340000D01*
X193880000Y-38100000D01*
X194580000Y-38100000D01*
X194580000Y-39340000D01*
G37*
%TO.C,U6*%
X209565000Y-39285000D02*
X208945000Y-39285000D01*
X208945000Y-38665000D01*
X209565000Y-38665000D01*
X209565000Y-39285000D01*
G36*
X209565000Y-39285000D02*
G01*
X208945000Y-39285000D01*
X208945000Y-38665000D01*
X209565000Y-38665000D01*
X209565000Y-39285000D01*
G37*
X209095000Y-38655000D02*
X208920000Y-38830000D01*
X208605000Y-38830000D01*
X208605000Y-38470000D01*
X209095000Y-38470000D01*
X209095000Y-38655000D01*
G36*
X209095000Y-38655000D02*
G01*
X208920000Y-38830000D01*
X208605000Y-38830000D01*
X208605000Y-38470000D01*
X209095000Y-38470000D01*
X209095000Y-38655000D01*
G37*
X209095000Y-39295000D02*
X209095000Y-39480000D01*
X208605000Y-39480000D01*
X208605000Y-39120000D01*
X208920000Y-39120000D01*
X209095000Y-39295000D01*
G36*
X209095000Y-39295000D02*
G01*
X209095000Y-39480000D01*
X208605000Y-39480000D01*
X208605000Y-39120000D01*
X208920000Y-39120000D01*
X209095000Y-39295000D01*
G37*
X209905000Y-38830000D02*
X209590000Y-38830000D01*
X209415000Y-38655000D01*
X209415000Y-38470000D01*
X209905000Y-38470000D01*
X209905000Y-38830000D01*
G36*
X209905000Y-38830000D02*
G01*
X209590000Y-38830000D01*
X209415000Y-38655000D01*
X209415000Y-38470000D01*
X209905000Y-38470000D01*
X209905000Y-38830000D01*
G37*
X209905000Y-39480000D02*
X209415000Y-39480000D01*
X209415000Y-39295000D01*
X209590000Y-39120000D01*
X209905000Y-39120000D01*
X209905000Y-39480000D01*
G36*
X209905000Y-39480000D02*
G01*
X209415000Y-39480000D01*
X209415000Y-39295000D01*
X209590000Y-39120000D01*
X209905000Y-39120000D01*
X209905000Y-39480000D01*
G37*
%TD*%
D11*
%TO.C,BUZ1*%
X27440000Y-57010000D03*
X38840000Y-57010000D03*
X38840000Y-48310000D03*
X27440000Y-48310000D03*
%TD*%
D12*
%TO.C,R7*%
X38130000Y-33860000D03*
X39780000Y-33860000D03*
%TD*%
D13*
%TO.C,D1*%
X45160832Y-33900000D03*
X46735832Y-33900000D03*
%TD*%
D14*
%TO.C,C2*%
X206785000Y-50330000D03*
X208335000Y-50330000D03*
%TD*%
D15*
%TO.C,R3*%
X32080000Y-41260000D03*
X26155000Y-41260000D03*
%TD*%
D16*
%TO.C,C14*%
X207520000Y-38495000D03*
X207520000Y-40045000D03*
%TD*%
D17*
%TO.C,CN3*%
X44230000Y-56160000D03*
X44230000Y-54160000D03*
D18*
X50090000Y-51810000D03*
X50090000Y-58510000D03*
%TD*%
D19*
%TO.C,CN1*%
X57900000Y-35372500D03*
X57900000Y-41372500D03*
D20*
X61700000Y-34072500D03*
X54100000Y-35072500D03*
X61700000Y-37772500D03*
X54100000Y-42072500D03*
X61700000Y-43772500D03*
%TD*%
D14*
%TO.C,C11*%
X218480000Y-65835000D03*
X220030000Y-65835000D03*
%TD*%
D21*
%TO.C,TP4*%
X53950000Y-62140000D03*
%TD*%
D22*
%TO.C,J1*%
X193920000Y-37650000D03*
X188140000Y-37650000D03*
D23*
X195355000Y-38140000D03*
X186705000Y-38140000D03*
D24*
X195355000Y-33970000D03*
X186705000Y-33970000D03*
%TD*%
D16*
%TO.C,C1*%
X35620000Y-40535000D03*
X35620000Y-42085000D03*
%TD*%
D25*
%TO.C,H5*%
X25980000Y-172510000D03*
%TD*%
D26*
%TO.C,Q1*%
X205060000Y-41280000D03*
X206060000Y-41280000D03*
X205560000Y-39680000D03*
%TD*%
D27*
%TO.C,R30*%
X241660000Y-45540000D03*
X241660000Y-43890000D03*
%TD*%
D28*
%TO.C,R10*%
X194235000Y-42680000D03*
X192585000Y-42680000D03*
%TD*%
D29*
%TO.C,D7*%
X202300000Y-41120000D03*
X199960000Y-41120000D03*
%TD*%
D30*
%TO.C,D4*%
X246697500Y-33870000D03*
X245122500Y-33870000D03*
%TD*%
D14*
%TO.C,C13*%
X191980000Y-65835000D03*
X193530000Y-65835000D03*
%TD*%
D27*
%TO.C,R11*%
X245160000Y-37185000D03*
X245160000Y-35535000D03*
%TD*%
D31*
%TO.C,SW2*%
X209040000Y-33610000D03*
X210740000Y-33610000D03*
D32*
X207590000Y-33610000D03*
X212190000Y-33610000D03*
D33*
X208220000Y-35150000D03*
X211570000Y-35150000D03*
%TD*%
D27*
%TO.C,R29*%
X239910000Y-45540000D03*
X239910000Y-43890000D03*
%TD*%
D16*
%TO.C,C15*%
X61042500Y-52435000D03*
X61042500Y-53985000D03*
%TD*%
D34*
%TO.C,U11*%
X191925000Y-73560000D03*
X193195000Y-73560000D03*
X194465000Y-73560000D03*
X195735000Y-73560000D03*
X197005000Y-73560000D03*
X198275000Y-73560000D03*
X199545000Y-73560000D03*
X200815000Y-73560000D03*
X200815000Y-68610000D03*
X199545000Y-68610000D03*
X198275000Y-68610000D03*
X197005000Y-68610000D03*
X195735000Y-68610000D03*
X194465000Y-68610000D03*
X193195000Y-68610000D03*
X191925000Y-68610000D03*
%TD*%
D30*
%TO.C,D3*%
X43199166Y-33900000D03*
X41624166Y-33900000D03*
%TD*%
D28*
%TO.C,R1*%
X50230000Y-33860000D03*
X48580000Y-33860000D03*
%TD*%
D35*
%TO.C,C16*%
X213930000Y-41735000D03*
X213930000Y-40185000D03*
%TD*%
D28*
%TO.C,R5*%
X208365000Y-48540000D03*
X206715000Y-48540000D03*
%TD*%
D36*
%TO.C,SW1*%
X203140000Y-34605000D03*
X200140000Y-34605000D03*
D37*
X203890000Y-36455000D03*
X200890000Y-36455000D03*
X199390000Y-36455000D03*
D38*
X197840000Y-35745000D03*
X197840000Y-33475000D03*
X205440000Y-33475000D03*
X205440000Y-35745000D03*
%TD*%
D39*
%TO.C,Card1*%
X243070000Y-60930000D03*
X243070000Y-50930000D03*
D40*
X239880000Y-53080000D03*
X239880000Y-54180000D03*
X239880000Y-55280000D03*
X239880000Y-56380000D03*
X239880000Y-57480000D03*
X239880000Y-58580000D03*
X239880000Y-59680000D03*
X239880000Y-60780000D03*
D41*
X247820000Y-48630000D03*
X247820000Y-63230000D03*
D40*
X239880000Y-51980000D03*
X239880000Y-50780000D03*
%TD*%
D42*
%TO.C,Q2*%
X38440000Y-62260000D03*
X38440000Y-63260000D03*
X39730000Y-62760000D03*
%TD*%
D31*
%TO.C,SW4*%
X239700000Y-33630000D03*
X241400000Y-33630000D03*
D32*
X238250000Y-33630000D03*
X242850000Y-33630000D03*
D33*
X238880000Y-35170000D03*
X242230000Y-35170000D03*
%TD*%
D34*
%TO.C,U9*%
X217330000Y-73560000D03*
X218600000Y-73560000D03*
X219870000Y-73560000D03*
X221140000Y-73560000D03*
X222410000Y-73560000D03*
X223680000Y-73560000D03*
X224950000Y-73560000D03*
X226220000Y-73560000D03*
X226220000Y-68610000D03*
X224950000Y-68610000D03*
X223680000Y-68610000D03*
X222410000Y-68610000D03*
X221140000Y-68610000D03*
X219870000Y-68610000D03*
X218600000Y-68610000D03*
X217330000Y-68610000D03*
%TD*%
D43*
%TO.C,R2*%
X195880000Y-43345000D03*
X195880000Y-44995000D03*
%TD*%
D44*
%TO.C,QWIIC2*%
X249705000Y-45080000D03*
X249705000Y-44080000D03*
X249705000Y-43080000D03*
X249705000Y-42080000D03*
D45*
X253580000Y-46380000D03*
X253580000Y-40780000D03*
%TD*%
D21*
%TO.C,TP1*%
X72340000Y-50030000D03*
%TD*%
D46*
%TO.C,U3*%
X86267500Y-45510000D03*
X86267500Y-46510000D03*
X86267500Y-47510000D03*
X86267500Y-48510000D03*
X86267500Y-49510000D03*
X86267500Y-50510000D03*
X86267500Y-51510000D03*
X86267500Y-52510000D03*
X86267500Y-53510000D03*
X86267500Y-54510000D03*
D47*
X88407500Y-57310000D03*
X88407500Y-42710000D03*
%TD*%
D12*
%TO.C,R6*%
X62992500Y-56060000D03*
X64642500Y-56060000D03*
%TD*%
D27*
%TO.C,R32*%
X243410000Y-45540000D03*
X243410000Y-43890000D03*
%TD*%
D14*
%TO.C,C10*%
X230730000Y-65835000D03*
X232280000Y-65835000D03*
%TD*%
D43*
%TO.C,R14*%
X36230000Y-62185000D03*
X36230000Y-63835000D03*
%TD*%
D35*
%TO.C,C4*%
X83660000Y-46435000D03*
X83660000Y-44885000D03*
%TD*%
D14*
%TO.C,C12*%
X205730000Y-65835000D03*
X207280000Y-65835000D03*
%TD*%
D25*
%TO.C,H3*%
X25980000Y-36510000D03*
%TD*%
D35*
%TO.C,C17*%
X212280000Y-41710000D03*
X212280000Y-40160000D03*
%TD*%
D48*
%TO.C,U1*%
X65130000Y-54060000D03*
X65130000Y-53110000D03*
X65130000Y-52160000D03*
X62855000Y-52160000D03*
X62855000Y-53110000D03*
X62855000Y-54060000D03*
%TD*%
D27*
%TO.C,R33*%
X245160000Y-45540000D03*
X245160000Y-43890000D03*
%TD*%
%TO.C,R31*%
X246910000Y-45540000D03*
X246910000Y-43890000D03*
%TD*%
D49*
%TO.C,J2*%
X66580000Y-34970000D03*
D50*
X66580000Y-37510000D03*
X69120000Y-34970000D03*
X69120000Y-37510000D03*
X71660000Y-34970000D03*
X71660000Y-37510000D03*
X74200000Y-34970000D03*
X74200000Y-37510000D03*
X76740000Y-34970000D03*
X76740000Y-37510000D03*
X79280000Y-34970000D03*
X79280000Y-37510000D03*
X81820000Y-34970000D03*
X81820000Y-37510000D03*
X84360000Y-34970000D03*
X84360000Y-37510000D03*
X86900000Y-34970000D03*
X86900000Y-37510000D03*
%TD*%
D16*
%TO.C,C5*%
X66892500Y-52435000D03*
X66892500Y-53985000D03*
%TD*%
D51*
%TO.C,CN2*%
X203950000Y-54260000D03*
X203950000Y-53760000D03*
X203950000Y-53260000D03*
X203950000Y-52760000D03*
X203950000Y-52260000D03*
X203950000Y-51760000D03*
X203950000Y-51260000D03*
X203950000Y-50760000D03*
X203950000Y-50260000D03*
X203950000Y-49760000D03*
X203950000Y-49260000D03*
X203950000Y-48760000D03*
X203950000Y-48260000D03*
X203950000Y-47760000D03*
X203950000Y-47260000D03*
X203950000Y-46760000D03*
X203950000Y-46260000D03*
X203950000Y-45760000D03*
D52*
X202050000Y-43810000D03*
X202050000Y-56210000D03*
%TD*%
D53*
%TO.C,QWIIC1*%
X96320000Y-37860000D03*
X95320000Y-37860000D03*
X94320000Y-37860000D03*
X93320000Y-37860000D03*
D54*
X97620000Y-33985000D03*
X92020000Y-33985000D03*
%TD*%
D21*
%TO.C,TP2*%
X45430000Y-46550000D03*
%TD*%
D14*
%TO.C,C8*%
X242730000Y-65835000D03*
X244280000Y-65835000D03*
%TD*%
D12*
%TO.C,R12*%
X189405000Y-42680000D03*
X191055000Y-42680000D03*
%TD*%
D16*
%TO.C,C3*%
X213930000Y-43485000D03*
X213930000Y-45035000D03*
%TD*%
D55*
%TO.C,U4*%
X216405000Y-40500000D03*
X216405000Y-41770000D03*
X216405000Y-43040000D03*
X216405000Y-44310000D03*
X216405000Y-45580000D03*
X216405000Y-46850000D03*
X216405000Y-48120000D03*
X216405000Y-49390000D03*
X216405000Y-50660000D03*
X216405000Y-51930000D03*
X216405000Y-53200000D03*
X216405000Y-54470000D03*
X216405000Y-55740000D03*
X216405000Y-57010000D03*
D56*
X218170000Y-58260000D03*
X219440000Y-58260000D03*
X220710000Y-58260000D03*
X221980000Y-58260000D03*
X223250000Y-58260000D03*
X224520000Y-58260000D03*
X225790000Y-58260000D03*
X227060000Y-58260000D03*
X228330000Y-58260000D03*
X229600000Y-58260000D03*
X230870000Y-58260000D03*
X232140000Y-58260000D03*
D55*
X233905000Y-57010000D03*
X233905000Y-55740000D03*
X233905000Y-54470000D03*
X233905000Y-53200000D03*
X233905000Y-51930000D03*
X233905000Y-50660000D03*
X233905000Y-49390000D03*
X233905000Y-48120000D03*
X233905000Y-46850000D03*
X233905000Y-45580000D03*
X233905000Y-44310000D03*
X233905000Y-43040000D03*
X233905000Y-41770000D03*
X233905000Y-40500000D03*
D57*
X222255000Y-46820000D03*
X222255000Y-48220000D03*
X222255000Y-49620000D03*
X222255000Y-49620000D03*
X223655000Y-46820000D03*
X223655000Y-46820000D03*
X223655000Y-48220000D03*
X223655000Y-49620000D03*
X225055000Y-46820000D03*
X225055000Y-48220000D03*
X225055000Y-49620000D03*
%TD*%
D34*
%TO.C,U8*%
X230032500Y-73560000D03*
X231302500Y-73560000D03*
X232572500Y-73560000D03*
X233842500Y-73560000D03*
X235112500Y-73560000D03*
X236382500Y-73560000D03*
X237652500Y-73560000D03*
X238922500Y-73560000D03*
X238922500Y-68610000D03*
X237652500Y-68610000D03*
X236382500Y-68610000D03*
X235112500Y-68610000D03*
X233842500Y-68610000D03*
X232572500Y-68610000D03*
X231302500Y-68610000D03*
X230032500Y-68610000D03*
%TD*%
D25*
%TO.C,H2*%
X250980000Y-36510000D03*
%TD*%
D21*
%TO.C,TP3*%
X56250000Y-49480000D03*
%TD*%
D43*
%TO.C,R4*%
X212280000Y-43435000D03*
X212280000Y-45085000D03*
%TD*%
D58*
%TO.C,D6*%
X39750000Y-40570000D03*
X39750000Y-42910000D03*
%TD*%
D34*
%TO.C,U7*%
X242735000Y-73560000D03*
X244005000Y-73560000D03*
X245275000Y-73560000D03*
X246545000Y-73560000D03*
X247815000Y-73560000D03*
X249085000Y-73560000D03*
X250355000Y-73560000D03*
X251625000Y-73560000D03*
X251625000Y-68610000D03*
X250355000Y-68610000D03*
X249085000Y-68610000D03*
X247815000Y-68610000D03*
X246545000Y-68610000D03*
X245275000Y-68610000D03*
X244005000Y-68610000D03*
X242735000Y-68610000D03*
%TD*%
D25*
%TO.C,H4*%
X250980000Y-172510000D03*
%TD*%
D34*
%TO.C,U10*%
X204627500Y-73560000D03*
X205897500Y-73560000D03*
X207167500Y-73560000D03*
X208437500Y-73560000D03*
X209707500Y-73560000D03*
X210977500Y-73560000D03*
X212247500Y-73560000D03*
X213517500Y-73560000D03*
X213517500Y-68610000D03*
X212247500Y-68610000D03*
X210977500Y-68610000D03*
X209707500Y-68610000D03*
X208437500Y-68610000D03*
X207167500Y-68610000D03*
X205897500Y-68610000D03*
X204627500Y-68610000D03*
%TD*%
D27*
%TO.C,R28*%
X238160000Y-45540000D03*
X238160000Y-43890000D03*
%TD*%
M02*
