%TF.GenerationSoftware,KiCad,Pcbnew,8.0.3*%
%TF.CreationDate,2024-06-28T08:29:35+01:00*%
%TF.ProjectId,esp32-s3-spectrum,65737033-322d-4733-932d-737065637472,rev?*%
%TF.SameCoordinates,Original*%
%TF.FileFunction,Legend,Top*%
%TF.FilePolarity,Positive*%
%FSLAX46Y46*%
G04 Gerber Fmt 4.6, Leading zero omitted, Abs format (unit mm)*
G04 Created by KiCad (PCBNEW 8.0.3) date 2024-06-28 08:29:35*
%MOMM*%
%LPD*%
G01*
G04 APERTURE LIST*
%ADD10C,1.200000*%
%ADD11C,0.150000*%
%ADD12C,0.100000*%
%ADD13C,0.200000*%
%ADD14C,0.250000*%
%ADD15C,0.120000*%
%ADD16C,0.127000*%
%ADD17C,0.300000*%
G04 APERTURE END LIST*
D10*
G36*
X30701179Y-72006218D02*
G01*
X27751214Y-72006218D01*
X27751214Y-73756951D01*
X31114438Y-73756951D01*
X31114438Y-75070001D01*
X26509972Y-75070001D01*
X26509972Y-67957649D01*
X30964961Y-67957649D01*
X30964961Y-69161278D01*
X27751214Y-69161278D01*
X27751214Y-70802589D01*
X30701179Y-70802589D01*
X30701179Y-72006218D01*
G37*
G36*
X34275429Y-74085213D02*
G01*
X34588945Y-74068864D01*
X34894287Y-74008464D01*
X35005226Y-73968954D01*
X35285753Y-73791405D01*
X35474329Y-73509323D01*
X35536668Y-73173995D01*
X35537187Y-73136330D01*
X35462741Y-72803843D01*
X35273405Y-72585807D01*
X34985093Y-72428260D01*
X34677884Y-72316412D01*
X34445422Y-72250705D01*
X33802086Y-72079735D01*
X33467137Y-71983344D01*
X33173405Y-71883948D01*
X32882809Y-71764187D01*
X32591618Y-71604198D01*
X32491967Y-71530922D01*
X32252713Y-71286503D01*
X32072223Y-70988579D01*
X31950497Y-70637151D01*
X31892932Y-70293341D01*
X31877941Y-69976804D01*
X31898806Y-69627264D01*
X31975893Y-69248335D01*
X32109781Y-68900495D01*
X32300469Y-68583743D01*
X32471451Y-68376525D01*
X32713543Y-68159801D01*
X32994688Y-67987916D01*
X33314885Y-67860870D01*
X33611547Y-67789252D01*
X33935328Y-67748772D01*
X34213879Y-67738807D01*
X34507357Y-67752999D01*
X34841207Y-67807496D01*
X35155066Y-67902865D01*
X35448936Y-68039107D01*
X35722817Y-68216221D01*
X35852260Y-68320105D01*
X36083980Y-68556805D01*
X36270259Y-68832214D01*
X36411098Y-69146331D01*
X36506495Y-69499157D01*
X36556453Y-69890692D01*
X36563007Y-70029805D01*
X35343747Y-70029805D01*
X35282610Y-69666227D01*
X35122795Y-69349598D01*
X34866008Y-69120245D01*
X34578217Y-68998696D01*
X34287782Y-68948687D01*
X34127418Y-68942436D01*
X33814116Y-68970113D01*
X33525261Y-69063439D01*
X33344863Y-69176665D01*
X33134490Y-69437202D01*
X33052917Y-69779635D01*
X33051772Y-69831480D01*
X33123946Y-70168718D01*
X33340467Y-70407649D01*
X33631360Y-70546562D01*
X33919586Y-70644235D01*
X34131814Y-70706846D01*
X35178150Y-71004334D01*
X35463286Y-71095987D01*
X35749485Y-71216360D01*
X36020880Y-71371706D01*
X36217159Y-71527502D01*
X36429005Y-71771418D01*
X36588819Y-72058858D01*
X36696600Y-72389822D01*
X36752349Y-72764310D01*
X36760844Y-72997844D01*
X36738433Y-73356060D01*
X36671199Y-73690834D01*
X36536109Y-74051776D01*
X36371761Y-74335760D01*
X36162590Y-74596302D01*
X36123370Y-74637446D01*
X35866371Y-74858819D01*
X35572381Y-75034391D01*
X35241400Y-75164161D01*
X34937324Y-75237316D01*
X34607561Y-75278664D01*
X34325254Y-75288842D01*
X33966689Y-75273440D01*
X33632883Y-75227233D01*
X33323835Y-75150221D01*
X33039545Y-75042405D01*
X32731077Y-74872363D01*
X32458262Y-74657963D01*
X32227178Y-74404673D01*
X32043904Y-74117965D01*
X31908441Y-73797837D01*
X31820788Y-73444290D01*
X31780946Y-73057323D01*
X31778290Y-72920908D01*
X32990223Y-72920908D01*
X33055283Y-73275071D01*
X33186487Y-73600181D01*
X33217369Y-73647530D01*
X33453559Y-73878340D01*
X33739547Y-74012979D01*
X34052147Y-74074528D01*
X34275429Y-74085213D01*
G37*
G36*
X40673769Y-67977183D02*
G01*
X40977582Y-68035787D01*
X41299083Y-68153538D01*
X41585100Y-68324466D01*
X41802016Y-68513301D01*
X42014433Y-68784858D01*
X42174677Y-69114828D01*
X42270505Y-69444153D01*
X42328001Y-69816393D01*
X42346634Y-70159377D01*
X42347166Y-70231550D01*
X42333857Y-70610363D01*
X42293929Y-70952863D01*
X42210879Y-71315927D01*
X42065541Y-71673409D01*
X41868031Y-71959716D01*
X41802016Y-72028444D01*
X41541855Y-72232962D01*
X41237094Y-72387248D01*
X40940373Y-72479511D01*
X40610886Y-72534869D01*
X40311283Y-72552810D01*
X40248632Y-72553322D01*
X38959030Y-72553322D01*
X38959030Y-75070001D01*
X37697271Y-75070001D01*
X37697271Y-71349693D01*
X38959030Y-71349693D01*
X40141653Y-71349693D01*
X40451048Y-71312187D01*
X40741163Y-71173621D01*
X40842142Y-71082980D01*
X41011442Y-70788551D01*
X41081097Y-70441375D01*
X41089804Y-70234969D01*
X41060366Y-69875897D01*
X40949670Y-69553119D01*
X40840676Y-69409184D01*
X40584261Y-69239717D01*
X40277344Y-69167330D01*
X40141653Y-69161278D01*
X38959030Y-69161278D01*
X38959030Y-71349693D01*
X37697271Y-71349693D01*
X37697271Y-67957649D01*
X40343886Y-67957649D01*
X40673769Y-67977183D01*
G37*
G36*
X42817578Y-71677956D02*
G01*
X45184291Y-71677956D01*
X45184291Y-72991005D01*
X42817578Y-72991005D01*
X42817578Y-71677956D01*
G37*
G36*
X48267613Y-74085213D02*
G01*
X48581129Y-74068864D01*
X48886471Y-74008464D01*
X48997411Y-73968954D01*
X49277937Y-73791405D01*
X49466513Y-73509323D01*
X49528852Y-73173995D01*
X49529371Y-73136330D01*
X49454925Y-72803843D01*
X49265589Y-72585807D01*
X48977278Y-72428260D01*
X48670068Y-72316412D01*
X48437606Y-72250705D01*
X47794270Y-72079735D01*
X47459322Y-71983344D01*
X47165589Y-71883948D01*
X46874994Y-71764187D01*
X46583803Y-71604198D01*
X46484152Y-71530922D01*
X46244897Y-71286503D01*
X46064407Y-70988579D01*
X45942681Y-70637151D01*
X45885116Y-70293341D01*
X45870125Y-69976804D01*
X45890991Y-69627264D01*
X45968077Y-69248335D01*
X46101965Y-68900495D01*
X46292653Y-68583743D01*
X46463635Y-68376525D01*
X46705728Y-68159801D01*
X46986872Y-67987916D01*
X47307069Y-67860870D01*
X47603731Y-67789252D01*
X47927512Y-67748772D01*
X48206064Y-67738807D01*
X48499542Y-67752999D01*
X48833391Y-67807496D01*
X49147251Y-67902865D01*
X49441121Y-68039107D01*
X49715001Y-68216221D01*
X49844445Y-68320105D01*
X50076164Y-68556805D01*
X50262443Y-68832214D01*
X50403282Y-69146331D01*
X50498680Y-69499157D01*
X50548637Y-69890692D01*
X50555191Y-70029805D01*
X49335931Y-70029805D01*
X49274794Y-69666227D01*
X49114979Y-69349598D01*
X48858192Y-69120245D01*
X48570402Y-68998696D01*
X48279966Y-68948687D01*
X48119602Y-68942436D01*
X47806300Y-68970113D01*
X47517445Y-69063439D01*
X47337048Y-69176665D01*
X47126674Y-69437202D01*
X47045101Y-69779635D01*
X47043956Y-69831480D01*
X47116130Y-70168718D01*
X47332651Y-70407649D01*
X47623545Y-70546562D01*
X47911770Y-70644235D01*
X48123998Y-70706846D01*
X49170334Y-71004334D01*
X49455470Y-71095987D01*
X49741670Y-71216360D01*
X50013064Y-71371706D01*
X50209344Y-71527502D01*
X50421189Y-71771418D01*
X50581003Y-72058858D01*
X50688784Y-72389822D01*
X50744533Y-72764310D01*
X50753028Y-72997844D01*
X50730617Y-73356060D01*
X50663383Y-73690834D01*
X50528294Y-74051776D01*
X50363945Y-74335760D01*
X50154774Y-74596302D01*
X50115554Y-74637446D01*
X49858555Y-74858819D01*
X49564565Y-75034391D01*
X49233584Y-75164161D01*
X48929509Y-75237316D01*
X48599745Y-75278664D01*
X48317438Y-75288842D01*
X47958874Y-75273440D01*
X47625067Y-75227233D01*
X47316019Y-75150221D01*
X47031729Y-75042405D01*
X46723262Y-74872363D01*
X46450446Y-74657963D01*
X46219362Y-74404673D01*
X46036088Y-74117965D01*
X45900625Y-73797837D01*
X45812972Y-73444290D01*
X45773130Y-73057323D01*
X45770474Y-72920908D01*
X46982407Y-72920908D01*
X47047467Y-73275071D01*
X47178671Y-73600181D01*
X47209553Y-73647530D01*
X47445743Y-73878340D01*
X47731731Y-74012979D01*
X48044331Y-74074528D01*
X48267613Y-74085213D01*
G37*
G36*
X54326585Y-69740615D02*
G01*
X54637016Y-69837317D01*
X54924446Y-69998486D01*
X55188875Y-70224123D01*
X55329651Y-70382003D01*
X55514418Y-70656791D01*
X55660958Y-70975937D01*
X55769271Y-71339442D01*
X55830329Y-71676248D01*
X55864840Y-72043858D01*
X55873335Y-72360126D01*
X55860312Y-72774236D01*
X55821243Y-73156372D01*
X55756127Y-73506535D01*
X55643608Y-73884526D01*
X55493581Y-74216475D01*
X55339909Y-74457928D01*
X55129055Y-74703123D01*
X54855710Y-74925067D01*
X54552913Y-75077961D01*
X54220663Y-75161807D01*
X53965310Y-75179421D01*
X53648605Y-75147364D01*
X53367106Y-75051194D01*
X53098119Y-74871355D01*
X53075778Y-74851159D01*
X52860476Y-74594804D01*
X52696224Y-74322862D01*
X52696224Y-77054962D01*
X51534117Y-77054962D01*
X51534117Y-72474676D01*
X52655191Y-72474676D01*
X52675107Y-72848755D01*
X52746639Y-73212360D01*
X52889298Y-73539926D01*
X53071381Y-73758661D01*
X53341392Y-73921510D01*
X53635120Y-73975581D01*
X53656099Y-73975793D01*
X53965905Y-73923468D01*
X54240679Y-73747035D01*
X54403482Y-73532980D01*
X54539494Y-73227672D01*
X54625132Y-72865262D01*
X54659135Y-72490272D01*
X54661402Y-72354997D01*
X54638218Y-71990250D01*
X54568666Y-71652551D01*
X54438604Y-71312322D01*
X54423998Y-71283015D01*
X54226811Y-71017279D01*
X53959666Y-70861848D01*
X53656099Y-70816267D01*
X53361633Y-70860506D01*
X53090136Y-71016031D01*
X52881931Y-71283536D01*
X52778290Y-71524083D01*
X52698588Y-71861598D01*
X52661082Y-72232256D01*
X52655191Y-72474676D01*
X51534117Y-72474676D01*
X51534117Y-69817802D01*
X52658122Y-69817802D01*
X52658122Y-70592296D01*
X52841147Y-70306114D01*
X53062588Y-70057160D01*
X53321591Y-69873234D01*
X53609502Y-69757429D01*
X53926321Y-69709744D01*
X53993154Y-69708382D01*
X54326585Y-69740615D01*
G37*
G36*
X58773983Y-69727315D02*
G01*
X59093922Y-69792765D01*
X59391822Y-69904964D01*
X59476894Y-69947740D01*
X59742766Y-70124386D01*
X59978012Y-70355129D01*
X60182632Y-70639968D01*
X60219881Y-70703427D01*
X60366570Y-71001856D01*
X60476908Y-71328669D01*
X60550897Y-71683866D01*
X60561332Y-71758312D01*
X60590985Y-72125717D01*
X60600115Y-72497498D01*
X60599434Y-72772164D01*
X57523440Y-72772164D01*
X57552291Y-73123861D01*
X57629228Y-73465694D01*
X57771835Y-73773621D01*
X57948422Y-73979212D01*
X58216235Y-74140779D01*
X58511895Y-74194424D01*
X58533140Y-74194634D01*
X58825058Y-74148492D01*
X59094793Y-73982758D01*
X59123719Y-73953566D01*
X59305373Y-73675827D01*
X59342072Y-73592820D01*
X60540816Y-73592820D01*
X60460994Y-73944083D01*
X60307445Y-74268186D01*
X60124626Y-74534864D01*
X59891928Y-74791099D01*
X59626874Y-74994320D01*
X59329467Y-75144526D01*
X58999705Y-75241718D01*
X58700188Y-75282215D01*
X58509692Y-75288842D01*
X58195266Y-75266122D01*
X57894956Y-75197961D01*
X57608763Y-75084359D01*
X57336686Y-74925317D01*
X57078725Y-74720834D01*
X56995875Y-74642576D01*
X56773257Y-74371034D01*
X56596699Y-74042391D01*
X56484750Y-73724902D01*
X56404787Y-73367760D01*
X56356809Y-72970965D01*
X56341456Y-72624978D01*
X56340816Y-72534516D01*
X56355234Y-72122702D01*
X56380909Y-71896797D01*
X57552749Y-71896797D01*
X59378709Y-71896797D01*
X59332064Y-71558222D01*
X59208624Y-71236746D01*
X59095875Y-71081271D01*
X58850760Y-70890766D01*
X58559083Y-70806944D01*
X58467194Y-70802589D01*
X58166174Y-70851404D01*
X57893376Y-71029045D01*
X57834117Y-71098368D01*
X57669905Y-71395929D01*
X57574688Y-71744319D01*
X57552749Y-71896797D01*
X56380909Y-71896797D01*
X56398490Y-71742110D01*
X56470582Y-71392740D01*
X56595157Y-71014709D01*
X56761258Y-70681638D01*
X56931395Y-70438423D01*
X57165777Y-70190323D01*
X57424888Y-69993554D01*
X57708729Y-69848116D01*
X58017299Y-69754009D01*
X58350599Y-69711233D01*
X58467194Y-69708382D01*
X58773983Y-69727315D01*
G37*
G36*
X65253726Y-71758312D02*
G01*
X64050586Y-71758312D01*
X63969642Y-71414101D01*
X63882058Y-71230014D01*
X63648608Y-71001759D01*
X63344148Y-70914805D01*
X63268032Y-70912010D01*
X62963858Y-70965295D01*
X62695496Y-71149488D01*
X62516618Y-71427752D01*
X62456168Y-71585632D01*
X62377028Y-71943454D01*
X62345937Y-72287961D01*
X62340397Y-72536225D01*
X62354077Y-72898052D01*
X62405519Y-73258467D01*
X62456168Y-73444076D01*
X62603490Y-73754001D01*
X62836246Y-73979401D01*
X63141702Y-74079578D01*
X63247515Y-74085213D01*
X63542675Y-74042324D01*
X63797710Y-73871781D01*
X63832233Y-73825339D01*
X63977500Y-73505795D01*
X64041793Y-73151717D01*
X65242002Y-73151717D01*
X65194694Y-73499239D01*
X65098931Y-73837834D01*
X64954714Y-74167504D01*
X64853656Y-74346797D01*
X64668442Y-74618187D01*
X64411804Y-74883137D01*
X64117659Y-75081850D01*
X63786008Y-75214325D01*
X63480981Y-75274123D01*
X63218206Y-75288842D01*
X62893308Y-75270434D01*
X62596389Y-75215211D01*
X62277016Y-75100348D01*
X61997933Y-74932470D01*
X61759137Y-74711578D01*
X61622323Y-74534864D01*
X61449010Y-74236255D01*
X61311555Y-73905909D01*
X61209957Y-73543826D01*
X61144218Y-73150007D01*
X61116826Y-72797582D01*
X61112344Y-72575548D01*
X61126119Y-72165571D01*
X61167442Y-71785146D01*
X61236314Y-71434274D01*
X61355325Y-71052236D01*
X61514007Y-70712753D01*
X61676545Y-70462359D01*
X61903662Y-70206125D01*
X62160764Y-70002904D01*
X62447851Y-69852698D01*
X62764922Y-69755505D01*
X63111978Y-69711327D01*
X63234326Y-69708382D01*
X63540595Y-69724550D01*
X63870561Y-69784285D01*
X64171074Y-69888034D01*
X64442135Y-70035797D01*
X64617718Y-70168291D01*
X64859152Y-70439492D01*
X65025326Y-70745866D01*
X65149427Y-71116707D01*
X65222310Y-71485882D01*
X65253726Y-71758312D01*
G37*
G36*
X68096713Y-74085213D02*
G01*
X68096713Y-75070001D01*
X67539839Y-75093936D01*
X67246244Y-75092514D01*
X66950599Y-75054845D01*
X66644674Y-74949433D01*
X66402644Y-74757125D01*
X66254267Y-74457501D01*
X66205580Y-74090843D01*
X66204808Y-74030503D01*
X66204808Y-70802589D01*
X65577592Y-70802589D01*
X65577592Y-69817802D01*
X66204808Y-69817802D01*
X66204808Y-68356009D01*
X67366915Y-68356009D01*
X67366915Y-69817802D01*
X68096713Y-69817802D01*
X68096713Y-70802589D01*
X67366915Y-70802589D01*
X67366915Y-73608207D01*
X67402497Y-73950441D01*
X67435792Y-74015116D01*
X67721906Y-74091626D01*
X67865170Y-74095472D01*
X67978011Y-74093762D01*
X68096713Y-74085213D01*
G37*
G36*
X71093572Y-71089819D02*
G01*
X70768699Y-71123479D01*
X70472626Y-71241814D01*
X70229853Y-71473224D01*
X70142491Y-71628375D01*
X70049325Y-71956837D01*
X70012725Y-72302153D01*
X70006203Y-72561871D01*
X70006203Y-75070001D01*
X68823579Y-75070001D01*
X68823579Y-69817802D01*
X69944654Y-69817802D01*
X69944654Y-70746169D01*
X70107371Y-70451413D01*
X70298792Y-70164579D01*
X70417997Y-70029805D01*
X70668062Y-69846807D01*
X70964881Y-69739771D01*
X71275289Y-69708382D01*
X71330976Y-69708382D01*
X71432093Y-69708382D01*
X71432093Y-71113755D01*
X71234256Y-71094948D01*
X71093572Y-71089819D01*
G37*
G36*
X74981430Y-74346797D02*
G01*
X74899364Y-74486993D01*
X74742561Y-74692157D01*
X74504859Y-74904634D01*
X74241443Y-75063315D01*
X74209134Y-75076839D01*
X73910278Y-75156881D01*
X73605366Y-75179421D01*
X73309419Y-75158968D01*
X72996315Y-75080429D01*
X72688980Y-74914351D01*
X72444056Y-74668097D01*
X72261542Y-74341668D01*
X72159532Y-74010414D01*
X72100027Y-73639195D01*
X72072824Y-73251093D01*
X72068101Y-72980747D01*
X72068101Y-69817802D01*
X73271242Y-69817802D01*
X73271242Y-73002973D01*
X73288633Y-73355372D01*
X73362100Y-73683434D01*
X73561333Y-73958088D01*
X73852828Y-74075404D01*
X73992247Y-74085213D01*
X74300310Y-74039908D01*
X74572450Y-73883297D01*
X74770745Y-73614820D01*
X74815833Y-73512464D01*
X74898931Y-73178396D01*
X74929796Y-72817765D01*
X74931605Y-72693518D01*
X74931605Y-69817802D01*
X76123021Y-69817802D01*
X76123021Y-75070001D01*
X74981430Y-75070001D01*
X74981430Y-74346797D01*
G37*
G36*
X79752958Y-71271047D02*
G01*
X79550678Y-70998614D01*
X79249744Y-70894830D01*
X79171172Y-70891494D01*
X78864561Y-70936343D01*
X78602666Y-71104993D01*
X78495596Y-71271047D01*
X78416062Y-71603028D01*
X78400341Y-71915604D01*
X78400341Y-75070001D01*
X77208925Y-75070001D01*
X77208925Y-69834899D01*
X78350516Y-69834899D01*
X78350516Y-70599135D01*
X78523816Y-70305790D01*
X78725820Y-70050884D01*
X78762309Y-70016128D01*
X79021788Y-69840917D01*
X79328714Y-69738435D01*
X79648911Y-69708382D01*
X79951991Y-69734261D01*
X80240751Y-69822509D01*
X80482756Y-69973385D01*
X80694761Y-70234623D01*
X80843825Y-70533353D01*
X80869637Y-70604264D01*
X81041148Y-70315791D01*
X81258665Y-70066989D01*
X81442630Y-69925513D01*
X81725853Y-69793199D01*
X82032568Y-69721952D01*
X82250097Y-69708382D01*
X82545020Y-69742148D01*
X82834815Y-69843448D01*
X83093874Y-70014401D01*
X83314746Y-70253946D01*
X83359448Y-70315325D01*
X83517718Y-70620506D01*
X83610196Y-70964066D01*
X83614438Y-70988947D01*
X83646455Y-71339514D01*
X83655310Y-71700710D01*
X83655471Y-71763441D01*
X83646678Y-75070001D01*
X82443538Y-75070001D01*
X82443538Y-71732666D01*
X82408195Y-71387128D01*
X82361472Y-71241982D01*
X82156508Y-70979366D01*
X81860623Y-70879322D01*
X81784082Y-70876107D01*
X81485263Y-70931865D01*
X81224094Y-71141537D01*
X81112903Y-71347984D01*
X81033369Y-71680567D01*
X81017648Y-71949798D01*
X81017648Y-75070001D01*
X79835024Y-75070001D01*
X79835024Y-71949798D01*
X79819316Y-71590153D01*
X79752958Y-71271047D01*
G37*
G36*
X89148164Y-68090069D02*
G01*
X89455109Y-68159066D01*
X89779616Y-68302581D01*
X90056312Y-68512333D01*
X90285198Y-68788323D01*
X90411228Y-69009114D01*
X90542947Y-69322337D01*
X90652341Y-69674294D01*
X90739410Y-70064988D01*
X90792991Y-70405432D01*
X90832283Y-70770666D01*
X90857288Y-71160691D01*
X90868004Y-71575507D01*
X90868450Y-71683085D01*
X90861260Y-72103644D01*
X90839691Y-72499360D01*
X90803741Y-72870231D01*
X90753412Y-73216258D01*
X90670279Y-73613855D01*
X90564677Y-73972634D01*
X90436607Y-74292593D01*
X90408297Y-74351927D01*
X90212280Y-74670331D01*
X89968247Y-74922859D01*
X89676198Y-75109511D01*
X89396144Y-75214731D01*
X89082745Y-75274203D01*
X88808018Y-75288842D01*
X88467485Y-75265968D01*
X88160297Y-75197346D01*
X87835687Y-75054613D01*
X87559093Y-74846003D01*
X87330516Y-74571516D01*
X87204808Y-74351927D01*
X87072666Y-74039731D01*
X86962921Y-73688717D01*
X86875573Y-73298883D01*
X86821821Y-72959067D01*
X86782402Y-72594407D01*
X86757318Y-72204902D01*
X86746567Y-71790554D01*
X86746120Y-71683085D01*
X86746236Y-71676246D01*
X87944863Y-71676246D01*
X87948978Y-72044232D01*
X87964777Y-72448790D01*
X87992426Y-72812956D01*
X88039660Y-73186766D01*
X88113391Y-73546658D01*
X88236949Y-73859889D01*
X88463841Y-74103512D01*
X88774199Y-74194001D01*
X88806552Y-74194634D01*
X89099243Y-74131021D01*
X89339878Y-73914101D01*
X89484707Y-73583315D01*
X89495317Y-73543238D01*
X89565842Y-73184843D01*
X89611022Y-72811991D01*
X89637469Y-72448386D01*
X89652582Y-72044149D01*
X89656517Y-71676246D01*
X89652546Y-71291814D01*
X89640632Y-70939940D01*
X89615851Y-70560667D01*
X89572484Y-70177437D01*
X89503859Y-69817599D01*
X89493852Y-69778479D01*
X89356837Y-69453002D01*
X89124466Y-69234209D01*
X88806552Y-69161278D01*
X88514062Y-69221551D01*
X88271994Y-69427084D01*
X88124360Y-69740507D01*
X88113391Y-69778479D01*
X88039660Y-70127899D01*
X87992426Y-70502013D01*
X87964777Y-70873472D01*
X87950788Y-71218835D01*
X87945028Y-71596755D01*
X87944863Y-71676246D01*
X86746236Y-71676246D01*
X86753287Y-71262071D01*
X86774788Y-70865848D01*
X86810623Y-70494416D01*
X86860792Y-70147774D01*
X86943660Y-69749334D01*
X87048925Y-69389629D01*
X87176588Y-69068660D01*
X87204808Y-69009114D01*
X87401373Y-68688966D01*
X87645956Y-68435056D01*
X87938555Y-68247383D01*
X88219067Y-68141587D01*
X88532924Y-68081789D01*
X88808018Y-68067070D01*
X89148164Y-68090069D01*
G37*
G36*
X91681779Y-73647530D02*
G01*
X92930348Y-73647530D01*
X92930348Y-75070001D01*
X91681779Y-75070001D01*
X91681779Y-73647530D01*
G37*
G36*
X96681919Y-75070001D02*
G01*
X95477313Y-75070001D01*
X95477313Y-70255485D01*
X94071939Y-70255485D01*
X94071939Y-69270698D01*
X94387356Y-69249694D01*
X94679715Y-69216996D01*
X94851563Y-69183504D01*
X95136628Y-69068874D01*
X95386028Y-68867617D01*
X95428953Y-68817628D01*
X95596139Y-68518547D01*
X95659030Y-68318395D01*
X95704459Y-68039714D01*
X96681919Y-68039714D01*
X96681919Y-75070001D01*
G37*
D11*
X59132969Y-48859819D02*
X58656779Y-48859819D01*
X58656779Y-48859819D02*
X58609160Y-49336009D01*
X58609160Y-49336009D02*
X58656779Y-49288390D01*
X58656779Y-49288390D02*
X58752017Y-49240771D01*
X58752017Y-49240771D02*
X58990112Y-49240771D01*
X58990112Y-49240771D02*
X59085350Y-49288390D01*
X59085350Y-49288390D02*
X59132969Y-49336009D01*
X59132969Y-49336009D02*
X59180588Y-49431247D01*
X59180588Y-49431247D02*
X59180588Y-49669342D01*
X59180588Y-49669342D02*
X59132969Y-49764580D01*
X59132969Y-49764580D02*
X59085350Y-49812200D01*
X59085350Y-49812200D02*
X58990112Y-49859819D01*
X58990112Y-49859819D02*
X58752017Y-49859819D01*
X58752017Y-49859819D02*
X58656779Y-49812200D01*
X58656779Y-49812200D02*
X58609160Y-49764580D01*
X59466303Y-48859819D02*
X59799636Y-49859819D01*
X59799636Y-49859819D02*
X60132969Y-48859819D01*
X220031541Y-53079819D02*
X220269636Y-54079819D01*
X220269636Y-54079819D02*
X220460112Y-53365533D01*
X220460112Y-53365533D02*
X220650588Y-54079819D01*
X220650588Y-54079819D02*
X220888684Y-53079819D01*
X221698207Y-54079819D02*
X221698207Y-53556009D01*
X221698207Y-53556009D02*
X221650588Y-53460771D01*
X221650588Y-53460771D02*
X221555350Y-53413152D01*
X221555350Y-53413152D02*
X221364874Y-53413152D01*
X221364874Y-53413152D02*
X221269636Y-53460771D01*
X221698207Y-54032200D02*
X221602969Y-54079819D01*
X221602969Y-54079819D02*
X221364874Y-54079819D01*
X221364874Y-54079819D02*
X221269636Y-54032200D01*
X221269636Y-54032200D02*
X221222017Y-53936961D01*
X221222017Y-53936961D02*
X221222017Y-53841723D01*
X221222017Y-53841723D02*
X221269636Y-53746485D01*
X221269636Y-53746485D02*
X221364874Y-53698866D01*
X221364874Y-53698866D02*
X221602969Y-53698866D01*
X221602969Y-53698866D02*
X221698207Y-53651247D01*
X222079160Y-53413152D02*
X222317255Y-54079819D01*
X222555350Y-53413152D02*
X222317255Y-54079819D01*
X222317255Y-54079819D02*
X222222017Y-54317914D01*
X222222017Y-54317914D02*
X222174398Y-54365533D01*
X222174398Y-54365533D02*
X222079160Y-54413152D01*
X222841065Y-53079819D02*
X223079160Y-54079819D01*
X223079160Y-54079819D02*
X223269636Y-53365533D01*
X223269636Y-53365533D02*
X223460112Y-54079819D01*
X223460112Y-54079819D02*
X223698208Y-53079819D01*
X224507731Y-54079819D02*
X224507731Y-53556009D01*
X224507731Y-53556009D02*
X224460112Y-53460771D01*
X224460112Y-53460771D02*
X224364874Y-53413152D01*
X224364874Y-53413152D02*
X224174398Y-53413152D01*
X224174398Y-53413152D02*
X224079160Y-53460771D01*
X224507731Y-54032200D02*
X224412493Y-54079819D01*
X224412493Y-54079819D02*
X224174398Y-54079819D01*
X224174398Y-54079819D02*
X224079160Y-54032200D01*
X224079160Y-54032200D02*
X224031541Y-53936961D01*
X224031541Y-53936961D02*
X224031541Y-53841723D01*
X224031541Y-53841723D02*
X224079160Y-53746485D01*
X224079160Y-53746485D02*
X224174398Y-53698866D01*
X224174398Y-53698866D02*
X224412493Y-53698866D01*
X224412493Y-53698866D02*
X224507731Y-53651247D01*
X224888684Y-53413152D02*
X225126779Y-54079819D01*
X225364874Y-53413152D02*
X225126779Y-54079819D01*
X225126779Y-54079819D02*
X225031541Y-54317914D01*
X225031541Y-54317914D02*
X224983922Y-54365533D01*
X224983922Y-54365533D02*
X224888684Y-54413152D01*
X225650589Y-53079819D02*
X225888684Y-54079819D01*
X225888684Y-54079819D02*
X226079160Y-53365533D01*
X226079160Y-53365533D02*
X226269636Y-54079819D01*
X226269636Y-54079819D02*
X226507732Y-53079819D01*
X227317255Y-54079819D02*
X227317255Y-53556009D01*
X227317255Y-53556009D02*
X227269636Y-53460771D01*
X227269636Y-53460771D02*
X227174398Y-53413152D01*
X227174398Y-53413152D02*
X226983922Y-53413152D01*
X226983922Y-53413152D02*
X226888684Y-53460771D01*
X227317255Y-54032200D02*
X227222017Y-54079819D01*
X227222017Y-54079819D02*
X226983922Y-54079819D01*
X226983922Y-54079819D02*
X226888684Y-54032200D01*
X226888684Y-54032200D02*
X226841065Y-53936961D01*
X226841065Y-53936961D02*
X226841065Y-53841723D01*
X226841065Y-53841723D02*
X226888684Y-53746485D01*
X226888684Y-53746485D02*
X226983922Y-53698866D01*
X226983922Y-53698866D02*
X227222017Y-53698866D01*
X227222017Y-53698866D02*
X227317255Y-53651247D01*
X227698208Y-53413152D02*
X227936303Y-54079819D01*
X228174398Y-53413152D02*
X227936303Y-54079819D01*
X227936303Y-54079819D02*
X227841065Y-54317914D01*
X227841065Y-54317914D02*
X227793446Y-54365533D01*
X227793446Y-54365533D02*
X227698208Y-54413152D01*
D12*
X42513884Y-52981466D02*
X43275789Y-52981466D01*
X42583884Y-57611466D02*
X43345789Y-57611466D01*
X42964836Y-57992419D02*
X42964836Y-57230514D01*
D13*
X208561101Y-37127219D02*
X208227768Y-36651028D01*
X207989673Y-37127219D02*
X207989673Y-36127219D01*
X207989673Y-36127219D02*
X208370625Y-36127219D01*
X208370625Y-36127219D02*
X208465863Y-36174838D01*
X208465863Y-36174838D02*
X208513482Y-36222457D01*
X208513482Y-36222457D02*
X208561101Y-36317695D01*
X208561101Y-36317695D02*
X208561101Y-36460552D01*
X208561101Y-36460552D02*
X208513482Y-36555790D01*
X208513482Y-36555790D02*
X208465863Y-36603409D01*
X208465863Y-36603409D02*
X208370625Y-36651028D01*
X208370625Y-36651028D02*
X207989673Y-36651028D01*
X208989673Y-36603409D02*
X209323006Y-36603409D01*
X209465863Y-37127219D02*
X208989673Y-37127219D01*
X208989673Y-37127219D02*
X208989673Y-36127219D01*
X208989673Y-36127219D02*
X209465863Y-36127219D01*
X209846816Y-37079600D02*
X209989673Y-37127219D01*
X209989673Y-37127219D02*
X210227768Y-37127219D01*
X210227768Y-37127219D02*
X210323006Y-37079600D01*
X210323006Y-37079600D02*
X210370625Y-37031980D01*
X210370625Y-37031980D02*
X210418244Y-36936742D01*
X210418244Y-36936742D02*
X210418244Y-36841504D01*
X210418244Y-36841504D02*
X210370625Y-36746266D01*
X210370625Y-36746266D02*
X210323006Y-36698647D01*
X210323006Y-36698647D02*
X210227768Y-36651028D01*
X210227768Y-36651028D02*
X210037292Y-36603409D01*
X210037292Y-36603409D02*
X209942054Y-36555790D01*
X209942054Y-36555790D02*
X209894435Y-36508171D01*
X209894435Y-36508171D02*
X209846816Y-36412933D01*
X209846816Y-36412933D02*
X209846816Y-36317695D01*
X209846816Y-36317695D02*
X209894435Y-36222457D01*
X209894435Y-36222457D02*
X209942054Y-36174838D01*
X209942054Y-36174838D02*
X210037292Y-36127219D01*
X210037292Y-36127219D02*
X210275387Y-36127219D01*
X210275387Y-36127219D02*
X210418244Y-36174838D01*
X210846816Y-36603409D02*
X211180149Y-36603409D01*
X211323006Y-37127219D02*
X210846816Y-37127219D01*
X210846816Y-37127219D02*
X210846816Y-36127219D01*
X210846816Y-36127219D02*
X211323006Y-36127219D01*
X211608721Y-36127219D02*
X212180149Y-36127219D01*
X211894435Y-37127219D02*
X211894435Y-36127219D01*
D11*
X74791541Y-49659819D02*
X75410588Y-49659819D01*
X75410588Y-49659819D02*
X75077255Y-50040771D01*
X75077255Y-50040771D02*
X75220112Y-50040771D01*
X75220112Y-50040771D02*
X75315350Y-50088390D01*
X75315350Y-50088390D02*
X75362969Y-50136009D01*
X75362969Y-50136009D02*
X75410588Y-50231247D01*
X75410588Y-50231247D02*
X75410588Y-50469342D01*
X75410588Y-50469342D02*
X75362969Y-50564580D01*
X75362969Y-50564580D02*
X75315350Y-50612200D01*
X75315350Y-50612200D02*
X75220112Y-50659819D01*
X75220112Y-50659819D02*
X74934398Y-50659819D01*
X74934398Y-50659819D02*
X74839160Y-50612200D01*
X74839160Y-50612200D02*
X74791541Y-50564580D01*
X75696303Y-49659819D02*
X76029636Y-50659819D01*
X76029636Y-50659819D02*
X76362969Y-49659819D01*
X76601065Y-49659819D02*
X77220112Y-49659819D01*
X77220112Y-49659819D02*
X76886779Y-50040771D01*
X76886779Y-50040771D02*
X77029636Y-50040771D01*
X77029636Y-50040771D02*
X77124874Y-50088390D01*
X77124874Y-50088390D02*
X77172493Y-50136009D01*
X77172493Y-50136009D02*
X77220112Y-50231247D01*
X77220112Y-50231247D02*
X77220112Y-50469342D01*
X77220112Y-50469342D02*
X77172493Y-50564580D01*
X77172493Y-50564580D02*
X77124874Y-50612200D01*
X77124874Y-50612200D02*
X77029636Y-50659819D01*
X77029636Y-50659819D02*
X76743922Y-50659819D01*
X76743922Y-50659819D02*
X76648684Y-50612200D01*
X76648684Y-50612200D02*
X76601065Y-50564580D01*
X57300588Y-61507438D02*
X57205350Y-61459819D01*
X57205350Y-61459819D02*
X57062493Y-61459819D01*
X57062493Y-61459819D02*
X56919636Y-61507438D01*
X56919636Y-61507438D02*
X56824398Y-61602676D01*
X56824398Y-61602676D02*
X56776779Y-61697914D01*
X56776779Y-61697914D02*
X56729160Y-61888390D01*
X56729160Y-61888390D02*
X56729160Y-62031247D01*
X56729160Y-62031247D02*
X56776779Y-62221723D01*
X56776779Y-62221723D02*
X56824398Y-62316961D01*
X56824398Y-62316961D02*
X56919636Y-62412200D01*
X56919636Y-62412200D02*
X57062493Y-62459819D01*
X57062493Y-62459819D02*
X57157731Y-62459819D01*
X57157731Y-62459819D02*
X57300588Y-62412200D01*
X57300588Y-62412200D02*
X57348207Y-62364580D01*
X57348207Y-62364580D02*
X57348207Y-62031247D01*
X57348207Y-62031247D02*
X57157731Y-62031247D01*
X57776779Y-62459819D02*
X57776779Y-61459819D01*
X57776779Y-61459819D02*
X58348207Y-62459819D01*
X58348207Y-62459819D02*
X58348207Y-61459819D01*
X58824398Y-62459819D02*
X58824398Y-61459819D01*
X58824398Y-61459819D02*
X59062493Y-61459819D01*
X59062493Y-61459819D02*
X59205350Y-61507438D01*
X59205350Y-61507438D02*
X59300588Y-61602676D01*
X59300588Y-61602676D02*
X59348207Y-61697914D01*
X59348207Y-61697914D02*
X59395826Y-61888390D01*
X59395826Y-61888390D02*
X59395826Y-62031247D01*
X59395826Y-62031247D02*
X59348207Y-62221723D01*
X59348207Y-62221723D02*
X59300588Y-62316961D01*
X59300588Y-62316961D02*
X59205350Y-62412200D01*
X59205350Y-62412200D02*
X59062493Y-62459819D01*
X59062493Y-62459819D02*
X58824398Y-62459819D01*
D13*
X239273006Y-36693409D02*
X239415863Y-36741028D01*
X239415863Y-36741028D02*
X239463482Y-36788647D01*
X239463482Y-36788647D02*
X239511101Y-36883885D01*
X239511101Y-36883885D02*
X239511101Y-37026742D01*
X239511101Y-37026742D02*
X239463482Y-37121980D01*
X239463482Y-37121980D02*
X239415863Y-37169600D01*
X239415863Y-37169600D02*
X239320625Y-37217219D01*
X239320625Y-37217219D02*
X238939673Y-37217219D01*
X238939673Y-37217219D02*
X238939673Y-36217219D01*
X238939673Y-36217219D02*
X239273006Y-36217219D01*
X239273006Y-36217219D02*
X239368244Y-36264838D01*
X239368244Y-36264838D02*
X239415863Y-36312457D01*
X239415863Y-36312457D02*
X239463482Y-36407695D01*
X239463482Y-36407695D02*
X239463482Y-36502933D01*
X239463482Y-36502933D02*
X239415863Y-36598171D01*
X239415863Y-36598171D02*
X239368244Y-36645790D01*
X239368244Y-36645790D02*
X239273006Y-36693409D01*
X239273006Y-36693409D02*
X238939673Y-36693409D01*
X240130149Y-36217219D02*
X240320625Y-36217219D01*
X240320625Y-36217219D02*
X240415863Y-36264838D01*
X240415863Y-36264838D02*
X240511101Y-36360076D01*
X240511101Y-36360076D02*
X240558720Y-36550552D01*
X240558720Y-36550552D02*
X240558720Y-36883885D01*
X240558720Y-36883885D02*
X240511101Y-37074361D01*
X240511101Y-37074361D02*
X240415863Y-37169600D01*
X240415863Y-37169600D02*
X240320625Y-37217219D01*
X240320625Y-37217219D02*
X240130149Y-37217219D01*
X240130149Y-37217219D02*
X240034911Y-37169600D01*
X240034911Y-37169600D02*
X239939673Y-37074361D01*
X239939673Y-37074361D02*
X239892054Y-36883885D01*
X239892054Y-36883885D02*
X239892054Y-36550552D01*
X239892054Y-36550552D02*
X239939673Y-36360076D01*
X239939673Y-36360076D02*
X240034911Y-36264838D01*
X240034911Y-36264838D02*
X240130149Y-36217219D01*
X241177768Y-36217219D02*
X241368244Y-36217219D01*
X241368244Y-36217219D02*
X241463482Y-36264838D01*
X241463482Y-36264838D02*
X241558720Y-36360076D01*
X241558720Y-36360076D02*
X241606339Y-36550552D01*
X241606339Y-36550552D02*
X241606339Y-36883885D01*
X241606339Y-36883885D02*
X241558720Y-37074361D01*
X241558720Y-37074361D02*
X241463482Y-37169600D01*
X241463482Y-37169600D02*
X241368244Y-37217219D01*
X241368244Y-37217219D02*
X241177768Y-37217219D01*
X241177768Y-37217219D02*
X241082530Y-37169600D01*
X241082530Y-37169600D02*
X240987292Y-37074361D01*
X240987292Y-37074361D02*
X240939673Y-36883885D01*
X240939673Y-36883885D02*
X240939673Y-36550552D01*
X240939673Y-36550552D02*
X240987292Y-36360076D01*
X240987292Y-36360076D02*
X241082530Y-36264838D01*
X241082530Y-36264838D02*
X241177768Y-36217219D01*
X241892054Y-36217219D02*
X242463482Y-36217219D01*
X242177768Y-37217219D02*
X242177768Y-36217219D01*
D12*
X52728609Y-56242782D02*
X52776228Y-56099925D01*
X52776228Y-56099925D02*
X52823847Y-56052306D01*
X52823847Y-56052306D02*
X52919085Y-56004687D01*
X52919085Y-56004687D02*
X53061942Y-56004687D01*
X53061942Y-56004687D02*
X53157180Y-56052306D01*
X53157180Y-56052306D02*
X53204800Y-56099925D01*
X53204800Y-56099925D02*
X53252419Y-56195163D01*
X53252419Y-56195163D02*
X53252419Y-56576115D01*
X53252419Y-56576115D02*
X52252419Y-56576115D01*
X52252419Y-56576115D02*
X52252419Y-56242782D01*
X52252419Y-56242782D02*
X52300038Y-56147544D01*
X52300038Y-56147544D02*
X52347657Y-56099925D01*
X52347657Y-56099925D02*
X52442895Y-56052306D01*
X52442895Y-56052306D02*
X52538133Y-56052306D01*
X52538133Y-56052306D02*
X52633371Y-56099925D01*
X52633371Y-56099925D02*
X52680990Y-56147544D01*
X52680990Y-56147544D02*
X52728609Y-56242782D01*
X52728609Y-56242782D02*
X52728609Y-56576115D01*
X52966704Y-55623734D02*
X52966704Y-55147544D01*
X53252419Y-55718972D02*
X52252419Y-55385639D01*
X52252419Y-55385639D02*
X53252419Y-55052306D01*
X52252419Y-54861829D02*
X52252419Y-54290401D01*
X53252419Y-54576115D02*
X52252419Y-54576115D01*
D11*
X47816779Y-47289819D02*
X47816779Y-46289819D01*
X47816779Y-46289819D02*
X48197731Y-46289819D01*
X48197731Y-46289819D02*
X48292969Y-46337438D01*
X48292969Y-46337438D02*
X48340588Y-46385057D01*
X48340588Y-46385057D02*
X48388207Y-46480295D01*
X48388207Y-46480295D02*
X48388207Y-46623152D01*
X48388207Y-46623152D02*
X48340588Y-46718390D01*
X48340588Y-46718390D02*
X48292969Y-46766009D01*
X48292969Y-46766009D02*
X48197731Y-46813628D01*
X48197731Y-46813628D02*
X47816779Y-46813628D01*
X48721541Y-46289819D02*
X48959636Y-47289819D01*
X48959636Y-47289819D02*
X49150112Y-46575533D01*
X49150112Y-46575533D02*
X49340588Y-47289819D01*
X49340588Y-47289819D02*
X49578684Y-46289819D01*
X50531064Y-47289819D02*
X50197731Y-46813628D01*
X49959636Y-47289819D02*
X49959636Y-46289819D01*
X49959636Y-46289819D02*
X50340588Y-46289819D01*
X50340588Y-46289819D02*
X50435826Y-46337438D01*
X50435826Y-46337438D02*
X50483445Y-46385057D01*
X50483445Y-46385057D02*
X50531064Y-46480295D01*
X50531064Y-46480295D02*
X50531064Y-46623152D01*
X50531064Y-46623152D02*
X50483445Y-46718390D01*
X50483445Y-46718390D02*
X50435826Y-46766009D01*
X50435826Y-46766009D02*
X50340588Y-46813628D01*
X50340588Y-46813628D02*
X49959636Y-46813628D01*
X31735238Y-44241009D02*
X31878095Y-44288628D01*
X31878095Y-44288628D02*
X31925714Y-44336247D01*
X31925714Y-44336247D02*
X31973333Y-44431485D01*
X31973333Y-44431485D02*
X31973333Y-44574342D01*
X31973333Y-44574342D02*
X31925714Y-44669580D01*
X31925714Y-44669580D02*
X31878095Y-44717200D01*
X31878095Y-44717200D02*
X31782857Y-44764819D01*
X31782857Y-44764819D02*
X31401905Y-44764819D01*
X31401905Y-44764819D02*
X31401905Y-43764819D01*
X31401905Y-43764819D02*
X31735238Y-43764819D01*
X31735238Y-43764819D02*
X31830476Y-43812438D01*
X31830476Y-43812438D02*
X31878095Y-43860057D01*
X31878095Y-43860057D02*
X31925714Y-43955295D01*
X31925714Y-43955295D02*
X31925714Y-44050533D01*
X31925714Y-44050533D02*
X31878095Y-44145771D01*
X31878095Y-44145771D02*
X31830476Y-44193390D01*
X31830476Y-44193390D02*
X31735238Y-44241009D01*
X31735238Y-44241009D02*
X31401905Y-44241009D01*
X32401905Y-43764819D02*
X32401905Y-44574342D01*
X32401905Y-44574342D02*
X32449524Y-44669580D01*
X32449524Y-44669580D02*
X32497143Y-44717200D01*
X32497143Y-44717200D02*
X32592381Y-44764819D01*
X32592381Y-44764819D02*
X32782857Y-44764819D01*
X32782857Y-44764819D02*
X32878095Y-44717200D01*
X32878095Y-44717200D02*
X32925714Y-44669580D01*
X32925714Y-44669580D02*
X32973333Y-44574342D01*
X32973333Y-44574342D02*
X32973333Y-43764819D01*
X33354286Y-43764819D02*
X34020952Y-43764819D01*
X34020952Y-43764819D02*
X33354286Y-44764819D01*
X33354286Y-44764819D02*
X34020952Y-44764819D01*
X34925714Y-44764819D02*
X34354286Y-44764819D01*
X34640000Y-44764819D02*
X34640000Y-43764819D01*
X34640000Y-43764819D02*
X34544762Y-43907676D01*
X34544762Y-43907676D02*
X34449524Y-44002914D01*
X34449524Y-44002914D02*
X34354286Y-44050533D01*
X38963333Y-35914819D02*
X38630000Y-35438628D01*
X38391905Y-35914819D02*
X38391905Y-34914819D01*
X38391905Y-34914819D02*
X38772857Y-34914819D01*
X38772857Y-34914819D02*
X38868095Y-34962438D01*
X38868095Y-34962438D02*
X38915714Y-35010057D01*
X38915714Y-35010057D02*
X38963333Y-35105295D01*
X38963333Y-35105295D02*
X38963333Y-35248152D01*
X38963333Y-35248152D02*
X38915714Y-35343390D01*
X38915714Y-35343390D02*
X38868095Y-35391009D01*
X38868095Y-35391009D02*
X38772857Y-35438628D01*
X38772857Y-35438628D02*
X38391905Y-35438628D01*
X39296667Y-34914819D02*
X39963333Y-34914819D01*
X39963333Y-34914819D02*
X39534762Y-35914819D01*
X45191905Y-35864819D02*
X45191905Y-34864819D01*
X45191905Y-34864819D02*
X45430000Y-34864819D01*
X45430000Y-34864819D02*
X45572857Y-34912438D01*
X45572857Y-34912438D02*
X45668095Y-35007676D01*
X45668095Y-35007676D02*
X45715714Y-35102914D01*
X45715714Y-35102914D02*
X45763333Y-35293390D01*
X45763333Y-35293390D02*
X45763333Y-35436247D01*
X45763333Y-35436247D02*
X45715714Y-35626723D01*
X45715714Y-35626723D02*
X45668095Y-35721961D01*
X45668095Y-35721961D02*
X45572857Y-35817200D01*
X45572857Y-35817200D02*
X45430000Y-35864819D01*
X45430000Y-35864819D02*
X45191905Y-35864819D01*
X46715714Y-35864819D02*
X46144286Y-35864819D01*
X46430000Y-35864819D02*
X46430000Y-34864819D01*
X46430000Y-34864819D02*
X46334762Y-35007676D01*
X46334762Y-35007676D02*
X46239524Y-35102914D01*
X46239524Y-35102914D02*
X46144286Y-35150533D01*
X209843333Y-50679580D02*
X209795714Y-50727200D01*
X209795714Y-50727200D02*
X209652857Y-50774819D01*
X209652857Y-50774819D02*
X209557619Y-50774819D01*
X209557619Y-50774819D02*
X209414762Y-50727200D01*
X209414762Y-50727200D02*
X209319524Y-50631961D01*
X209319524Y-50631961D02*
X209271905Y-50536723D01*
X209271905Y-50536723D02*
X209224286Y-50346247D01*
X209224286Y-50346247D02*
X209224286Y-50203390D01*
X209224286Y-50203390D02*
X209271905Y-50012914D01*
X209271905Y-50012914D02*
X209319524Y-49917676D01*
X209319524Y-49917676D02*
X209414762Y-49822438D01*
X209414762Y-49822438D02*
X209557619Y-49774819D01*
X209557619Y-49774819D02*
X209652857Y-49774819D01*
X209652857Y-49774819D02*
X209795714Y-49822438D01*
X209795714Y-49822438D02*
X209843333Y-49870057D01*
X210224286Y-49870057D02*
X210271905Y-49822438D01*
X210271905Y-49822438D02*
X210367143Y-49774819D01*
X210367143Y-49774819D02*
X210605238Y-49774819D01*
X210605238Y-49774819D02*
X210700476Y-49822438D01*
X210700476Y-49822438D02*
X210748095Y-49870057D01*
X210748095Y-49870057D02*
X210795714Y-49965295D01*
X210795714Y-49965295D02*
X210795714Y-50060533D01*
X210795714Y-50060533D02*
X210748095Y-50203390D01*
X210748095Y-50203390D02*
X210176667Y-50774819D01*
X210176667Y-50774819D02*
X210795714Y-50774819D01*
X28950833Y-44334819D02*
X28617500Y-43858628D01*
X28379405Y-44334819D02*
X28379405Y-43334819D01*
X28379405Y-43334819D02*
X28760357Y-43334819D01*
X28760357Y-43334819D02*
X28855595Y-43382438D01*
X28855595Y-43382438D02*
X28903214Y-43430057D01*
X28903214Y-43430057D02*
X28950833Y-43525295D01*
X28950833Y-43525295D02*
X28950833Y-43668152D01*
X28950833Y-43668152D02*
X28903214Y-43763390D01*
X28903214Y-43763390D02*
X28855595Y-43811009D01*
X28855595Y-43811009D02*
X28760357Y-43858628D01*
X28760357Y-43858628D02*
X28379405Y-43858628D01*
X29284167Y-43334819D02*
X29903214Y-43334819D01*
X29903214Y-43334819D02*
X29569881Y-43715771D01*
X29569881Y-43715771D02*
X29712738Y-43715771D01*
X29712738Y-43715771D02*
X29807976Y-43763390D01*
X29807976Y-43763390D02*
X29855595Y-43811009D01*
X29855595Y-43811009D02*
X29903214Y-43906247D01*
X29903214Y-43906247D02*
X29903214Y-44144342D01*
X29903214Y-44144342D02*
X29855595Y-44239580D01*
X29855595Y-44239580D02*
X29807976Y-44287200D01*
X29807976Y-44287200D02*
X29712738Y-44334819D01*
X29712738Y-44334819D02*
X29427024Y-44334819D01*
X29427024Y-44334819D02*
X29331786Y-44287200D01*
X29331786Y-44287200D02*
X29284167Y-44239580D01*
X207889580Y-42742857D02*
X207937200Y-42790476D01*
X207937200Y-42790476D02*
X207984819Y-42933333D01*
X207984819Y-42933333D02*
X207984819Y-43028571D01*
X207984819Y-43028571D02*
X207937200Y-43171428D01*
X207937200Y-43171428D02*
X207841961Y-43266666D01*
X207841961Y-43266666D02*
X207746723Y-43314285D01*
X207746723Y-43314285D02*
X207556247Y-43361904D01*
X207556247Y-43361904D02*
X207413390Y-43361904D01*
X207413390Y-43361904D02*
X207222914Y-43314285D01*
X207222914Y-43314285D02*
X207127676Y-43266666D01*
X207127676Y-43266666D02*
X207032438Y-43171428D01*
X207032438Y-43171428D02*
X206984819Y-43028571D01*
X206984819Y-43028571D02*
X206984819Y-42933333D01*
X206984819Y-42933333D02*
X207032438Y-42790476D01*
X207032438Y-42790476D02*
X207080057Y-42742857D01*
X207984819Y-41790476D02*
X207984819Y-42361904D01*
X207984819Y-42076190D02*
X206984819Y-42076190D01*
X206984819Y-42076190D02*
X207127676Y-42171428D01*
X207127676Y-42171428D02*
X207222914Y-42266666D01*
X207222914Y-42266666D02*
X207270533Y-42361904D01*
X207318152Y-40933333D02*
X207984819Y-40933333D01*
X206937200Y-41171428D02*
X207651485Y-41409523D01*
X207651485Y-41409523D02*
X207651485Y-40790476D01*
X48889580Y-55750476D02*
X48937200Y-55798095D01*
X48937200Y-55798095D02*
X48984819Y-55940952D01*
X48984819Y-55940952D02*
X48984819Y-56036190D01*
X48984819Y-56036190D02*
X48937200Y-56179047D01*
X48937200Y-56179047D02*
X48841961Y-56274285D01*
X48841961Y-56274285D02*
X48746723Y-56321904D01*
X48746723Y-56321904D02*
X48556247Y-56369523D01*
X48556247Y-56369523D02*
X48413390Y-56369523D01*
X48413390Y-56369523D02*
X48222914Y-56321904D01*
X48222914Y-56321904D02*
X48127676Y-56274285D01*
X48127676Y-56274285D02*
X48032438Y-56179047D01*
X48032438Y-56179047D02*
X47984819Y-56036190D01*
X47984819Y-56036190D02*
X47984819Y-55940952D01*
X47984819Y-55940952D02*
X48032438Y-55798095D01*
X48032438Y-55798095D02*
X48080057Y-55750476D01*
X48984819Y-55321904D02*
X47984819Y-55321904D01*
X47984819Y-55321904D02*
X48984819Y-54750476D01*
X48984819Y-54750476D02*
X47984819Y-54750476D01*
X47984819Y-54369523D02*
X47984819Y-53750476D01*
X47984819Y-53750476D02*
X48365771Y-54083809D01*
X48365771Y-54083809D02*
X48365771Y-53940952D01*
X48365771Y-53940952D02*
X48413390Y-53845714D01*
X48413390Y-53845714D02*
X48461009Y-53798095D01*
X48461009Y-53798095D02*
X48556247Y-53750476D01*
X48556247Y-53750476D02*
X48794342Y-53750476D01*
X48794342Y-53750476D02*
X48889580Y-53798095D01*
X48889580Y-53798095D02*
X48937200Y-53845714D01*
X48937200Y-53845714D02*
X48984819Y-53940952D01*
X48984819Y-53940952D02*
X48984819Y-54226666D01*
X48984819Y-54226666D02*
X48937200Y-54321904D01*
X48937200Y-54321904D02*
X48889580Y-54369523D01*
X57039523Y-43689580D02*
X56991904Y-43737200D01*
X56991904Y-43737200D02*
X56849047Y-43784819D01*
X56849047Y-43784819D02*
X56753809Y-43784819D01*
X56753809Y-43784819D02*
X56610952Y-43737200D01*
X56610952Y-43737200D02*
X56515714Y-43641961D01*
X56515714Y-43641961D02*
X56468095Y-43546723D01*
X56468095Y-43546723D02*
X56420476Y-43356247D01*
X56420476Y-43356247D02*
X56420476Y-43213390D01*
X56420476Y-43213390D02*
X56468095Y-43022914D01*
X56468095Y-43022914D02*
X56515714Y-42927676D01*
X56515714Y-42927676D02*
X56610952Y-42832438D01*
X56610952Y-42832438D02*
X56753809Y-42784819D01*
X56753809Y-42784819D02*
X56849047Y-42784819D01*
X56849047Y-42784819D02*
X56991904Y-42832438D01*
X56991904Y-42832438D02*
X57039523Y-42880057D01*
X57468095Y-43784819D02*
X57468095Y-42784819D01*
X57468095Y-42784819D02*
X58039523Y-43784819D01*
X58039523Y-43784819D02*
X58039523Y-42784819D01*
X59039523Y-43784819D02*
X58468095Y-43784819D01*
X58753809Y-43784819D02*
X58753809Y-42784819D01*
X58753809Y-42784819D02*
X58658571Y-42927676D01*
X58658571Y-42927676D02*
X58563333Y-43022914D01*
X58563333Y-43022914D02*
X58468095Y-43070533D01*
X218612142Y-64764580D02*
X218564523Y-64812200D01*
X218564523Y-64812200D02*
X218421666Y-64859819D01*
X218421666Y-64859819D02*
X218326428Y-64859819D01*
X218326428Y-64859819D02*
X218183571Y-64812200D01*
X218183571Y-64812200D02*
X218088333Y-64716961D01*
X218088333Y-64716961D02*
X218040714Y-64621723D01*
X218040714Y-64621723D02*
X217993095Y-64431247D01*
X217993095Y-64431247D02*
X217993095Y-64288390D01*
X217993095Y-64288390D02*
X218040714Y-64097914D01*
X218040714Y-64097914D02*
X218088333Y-64002676D01*
X218088333Y-64002676D02*
X218183571Y-63907438D01*
X218183571Y-63907438D02*
X218326428Y-63859819D01*
X218326428Y-63859819D02*
X218421666Y-63859819D01*
X218421666Y-63859819D02*
X218564523Y-63907438D01*
X218564523Y-63907438D02*
X218612142Y-63955057D01*
X219564523Y-64859819D02*
X218993095Y-64859819D01*
X219278809Y-64859819D02*
X219278809Y-63859819D01*
X219278809Y-63859819D02*
X219183571Y-64002676D01*
X219183571Y-64002676D02*
X219088333Y-64097914D01*
X219088333Y-64097914D02*
X218993095Y-64145533D01*
X220516904Y-64859819D02*
X219945476Y-64859819D01*
X220231190Y-64859819D02*
X220231190Y-63859819D01*
X220231190Y-63859819D02*
X220135952Y-64002676D01*
X220135952Y-64002676D02*
X220040714Y-64097914D01*
X220040714Y-64097914D02*
X219945476Y-64145533D01*
X190696666Y-33424819D02*
X190696666Y-34139104D01*
X190696666Y-34139104D02*
X190649047Y-34281961D01*
X190649047Y-34281961D02*
X190553809Y-34377200D01*
X190553809Y-34377200D02*
X190410952Y-34424819D01*
X190410952Y-34424819D02*
X190315714Y-34424819D01*
X191696666Y-34424819D02*
X191125238Y-34424819D01*
X191410952Y-34424819D02*
X191410952Y-33424819D01*
X191410952Y-33424819D02*
X191315714Y-33567676D01*
X191315714Y-33567676D02*
X191220476Y-33662914D01*
X191220476Y-33662914D02*
X191125238Y-33710533D01*
X37409580Y-41476666D02*
X37457200Y-41524285D01*
X37457200Y-41524285D02*
X37504819Y-41667142D01*
X37504819Y-41667142D02*
X37504819Y-41762380D01*
X37504819Y-41762380D02*
X37457200Y-41905237D01*
X37457200Y-41905237D02*
X37361961Y-42000475D01*
X37361961Y-42000475D02*
X37266723Y-42048094D01*
X37266723Y-42048094D02*
X37076247Y-42095713D01*
X37076247Y-42095713D02*
X36933390Y-42095713D01*
X36933390Y-42095713D02*
X36742914Y-42048094D01*
X36742914Y-42048094D02*
X36647676Y-42000475D01*
X36647676Y-42000475D02*
X36552438Y-41905237D01*
X36552438Y-41905237D02*
X36504819Y-41762380D01*
X36504819Y-41762380D02*
X36504819Y-41667142D01*
X36504819Y-41667142D02*
X36552438Y-41524285D01*
X36552438Y-41524285D02*
X36600057Y-41476666D01*
X37504819Y-40524285D02*
X37504819Y-41095713D01*
X37504819Y-40809999D02*
X36504819Y-40809999D01*
X36504819Y-40809999D02*
X36647676Y-40905237D01*
X36647676Y-40905237D02*
X36742914Y-41000475D01*
X36742914Y-41000475D02*
X36790533Y-41095713D01*
D13*
X205584761Y-43237457D02*
X205489523Y-43189838D01*
X205489523Y-43189838D02*
X205394285Y-43094600D01*
X205394285Y-43094600D02*
X205251428Y-42951742D01*
X205251428Y-42951742D02*
X205156190Y-42904123D01*
X205156190Y-42904123D02*
X205060952Y-42904123D01*
X205108571Y-43142219D02*
X205013333Y-43094600D01*
X205013333Y-43094600D02*
X204918095Y-42999361D01*
X204918095Y-42999361D02*
X204870476Y-42808885D01*
X204870476Y-42808885D02*
X204870476Y-42475552D01*
X204870476Y-42475552D02*
X204918095Y-42285076D01*
X204918095Y-42285076D02*
X205013333Y-42189838D01*
X205013333Y-42189838D02*
X205108571Y-42142219D01*
X205108571Y-42142219D02*
X205299047Y-42142219D01*
X205299047Y-42142219D02*
X205394285Y-42189838D01*
X205394285Y-42189838D02*
X205489523Y-42285076D01*
X205489523Y-42285076D02*
X205537142Y-42475552D01*
X205537142Y-42475552D02*
X205537142Y-42808885D01*
X205537142Y-42808885D02*
X205489523Y-42999361D01*
X205489523Y-42999361D02*
X205394285Y-43094600D01*
X205394285Y-43094600D02*
X205299047Y-43142219D01*
X205299047Y-43142219D02*
X205108571Y-43142219D01*
X206489523Y-43142219D02*
X205918095Y-43142219D01*
X206203809Y-43142219D02*
X206203809Y-42142219D01*
X206203809Y-42142219D02*
X206108571Y-42285076D01*
X206108571Y-42285076D02*
X206013333Y-42380314D01*
X206013333Y-42380314D02*
X205918095Y-42427933D01*
D11*
X242114819Y-42539285D02*
X241638628Y-42805952D01*
X242114819Y-42996428D02*
X241114819Y-42996428D01*
X241114819Y-42996428D02*
X241114819Y-42691666D01*
X241114819Y-42691666D02*
X241162438Y-42615476D01*
X241162438Y-42615476D02*
X241210057Y-42577381D01*
X241210057Y-42577381D02*
X241305295Y-42539285D01*
X241305295Y-42539285D02*
X241448152Y-42539285D01*
X241448152Y-42539285D02*
X241543390Y-42577381D01*
X241543390Y-42577381D02*
X241591009Y-42615476D01*
X241591009Y-42615476D02*
X241638628Y-42691666D01*
X241638628Y-42691666D02*
X241638628Y-42996428D01*
X241114819Y-42272619D02*
X241114819Y-41777381D01*
X241114819Y-41777381D02*
X241495771Y-42044047D01*
X241495771Y-42044047D02*
X241495771Y-41929762D01*
X241495771Y-41929762D02*
X241543390Y-41853571D01*
X241543390Y-41853571D02*
X241591009Y-41815476D01*
X241591009Y-41815476D02*
X241686247Y-41777381D01*
X241686247Y-41777381D02*
X241924342Y-41777381D01*
X241924342Y-41777381D02*
X242019580Y-41815476D01*
X242019580Y-41815476D02*
X242067200Y-41853571D01*
X242067200Y-41853571D02*
X242114819Y-41929762D01*
X242114819Y-41929762D02*
X242114819Y-42158333D01*
X242114819Y-42158333D02*
X242067200Y-42234524D01*
X242067200Y-42234524D02*
X242019580Y-42272619D01*
X241114819Y-41282142D02*
X241114819Y-41205952D01*
X241114819Y-41205952D02*
X241162438Y-41129761D01*
X241162438Y-41129761D02*
X241210057Y-41091666D01*
X241210057Y-41091666D02*
X241305295Y-41053571D01*
X241305295Y-41053571D02*
X241495771Y-41015476D01*
X241495771Y-41015476D02*
X241733866Y-41015476D01*
X241733866Y-41015476D02*
X241924342Y-41053571D01*
X241924342Y-41053571D02*
X242019580Y-41091666D01*
X242019580Y-41091666D02*
X242067200Y-41129761D01*
X242067200Y-41129761D02*
X242114819Y-41205952D01*
X242114819Y-41205952D02*
X242114819Y-41282142D01*
X242114819Y-41282142D02*
X242067200Y-41358333D01*
X242067200Y-41358333D02*
X242019580Y-41396428D01*
X242019580Y-41396428D02*
X241924342Y-41434523D01*
X241924342Y-41434523D02*
X241733866Y-41472619D01*
X241733866Y-41472619D02*
X241495771Y-41472619D01*
X241495771Y-41472619D02*
X241305295Y-41434523D01*
X241305295Y-41434523D02*
X241210057Y-41396428D01*
X241210057Y-41396428D02*
X241162438Y-41358333D01*
X241162438Y-41358333D02*
X241114819Y-41282142D01*
X192767142Y-44564819D02*
X192433809Y-44088628D01*
X192195714Y-44564819D02*
X192195714Y-43564819D01*
X192195714Y-43564819D02*
X192576666Y-43564819D01*
X192576666Y-43564819D02*
X192671904Y-43612438D01*
X192671904Y-43612438D02*
X192719523Y-43660057D01*
X192719523Y-43660057D02*
X192767142Y-43755295D01*
X192767142Y-43755295D02*
X192767142Y-43898152D01*
X192767142Y-43898152D02*
X192719523Y-43993390D01*
X192719523Y-43993390D02*
X192671904Y-44041009D01*
X192671904Y-44041009D02*
X192576666Y-44088628D01*
X192576666Y-44088628D02*
X192195714Y-44088628D01*
X193719523Y-44564819D02*
X193148095Y-44564819D01*
X193433809Y-44564819D02*
X193433809Y-43564819D01*
X193433809Y-43564819D02*
X193338571Y-43707676D01*
X193338571Y-43707676D02*
X193243333Y-43802914D01*
X193243333Y-43802914D02*
X193148095Y-43850533D01*
X194338571Y-43564819D02*
X194433809Y-43564819D01*
X194433809Y-43564819D02*
X194529047Y-43612438D01*
X194529047Y-43612438D02*
X194576666Y-43660057D01*
X194576666Y-43660057D02*
X194624285Y-43755295D01*
X194624285Y-43755295D02*
X194671904Y-43945771D01*
X194671904Y-43945771D02*
X194671904Y-44183866D01*
X194671904Y-44183866D02*
X194624285Y-44374342D01*
X194624285Y-44374342D02*
X194576666Y-44469580D01*
X194576666Y-44469580D02*
X194529047Y-44517200D01*
X194529047Y-44517200D02*
X194433809Y-44564819D01*
X194433809Y-44564819D02*
X194338571Y-44564819D01*
X194338571Y-44564819D02*
X194243333Y-44517200D01*
X194243333Y-44517200D02*
X194195714Y-44469580D01*
X194195714Y-44469580D02*
X194148095Y-44374342D01*
X194148095Y-44374342D02*
X194100476Y-44183866D01*
X194100476Y-44183866D02*
X194100476Y-43945771D01*
X194100476Y-43945771D02*
X194148095Y-43755295D01*
X194148095Y-43755295D02*
X194195714Y-43660057D01*
X194195714Y-43660057D02*
X194243333Y-43612438D01*
X194243333Y-43612438D02*
X194338571Y-43564819D01*
X200321905Y-40174819D02*
X200321905Y-39174819D01*
X200321905Y-39174819D02*
X200560000Y-39174819D01*
X200560000Y-39174819D02*
X200702857Y-39222438D01*
X200702857Y-39222438D02*
X200798095Y-39317676D01*
X200798095Y-39317676D02*
X200845714Y-39412914D01*
X200845714Y-39412914D02*
X200893333Y-39603390D01*
X200893333Y-39603390D02*
X200893333Y-39746247D01*
X200893333Y-39746247D02*
X200845714Y-39936723D01*
X200845714Y-39936723D02*
X200798095Y-40031961D01*
X200798095Y-40031961D02*
X200702857Y-40127200D01*
X200702857Y-40127200D02*
X200560000Y-40174819D01*
X200560000Y-40174819D02*
X200321905Y-40174819D01*
X201226667Y-39174819D02*
X201893333Y-39174819D01*
X201893333Y-39174819D02*
X201464762Y-40174819D01*
X247701905Y-34324819D02*
X247701905Y-33324819D01*
X247701905Y-33324819D02*
X247940000Y-33324819D01*
X247940000Y-33324819D02*
X248082857Y-33372438D01*
X248082857Y-33372438D02*
X248178095Y-33467676D01*
X248178095Y-33467676D02*
X248225714Y-33562914D01*
X248225714Y-33562914D02*
X248273333Y-33753390D01*
X248273333Y-33753390D02*
X248273333Y-33896247D01*
X248273333Y-33896247D02*
X248225714Y-34086723D01*
X248225714Y-34086723D02*
X248178095Y-34181961D01*
X248178095Y-34181961D02*
X248082857Y-34277200D01*
X248082857Y-34277200D02*
X247940000Y-34324819D01*
X247940000Y-34324819D02*
X247701905Y-34324819D01*
X249130476Y-33658152D02*
X249130476Y-34324819D01*
X248892381Y-33277200D02*
X248654286Y-33991485D01*
X248654286Y-33991485D02*
X249273333Y-33991485D01*
X192112142Y-64694580D02*
X192064523Y-64742200D01*
X192064523Y-64742200D02*
X191921666Y-64789819D01*
X191921666Y-64789819D02*
X191826428Y-64789819D01*
X191826428Y-64789819D02*
X191683571Y-64742200D01*
X191683571Y-64742200D02*
X191588333Y-64646961D01*
X191588333Y-64646961D02*
X191540714Y-64551723D01*
X191540714Y-64551723D02*
X191493095Y-64361247D01*
X191493095Y-64361247D02*
X191493095Y-64218390D01*
X191493095Y-64218390D02*
X191540714Y-64027914D01*
X191540714Y-64027914D02*
X191588333Y-63932676D01*
X191588333Y-63932676D02*
X191683571Y-63837438D01*
X191683571Y-63837438D02*
X191826428Y-63789819D01*
X191826428Y-63789819D02*
X191921666Y-63789819D01*
X191921666Y-63789819D02*
X192064523Y-63837438D01*
X192064523Y-63837438D02*
X192112142Y-63885057D01*
X193064523Y-64789819D02*
X192493095Y-64789819D01*
X192778809Y-64789819D02*
X192778809Y-63789819D01*
X192778809Y-63789819D02*
X192683571Y-63932676D01*
X192683571Y-63932676D02*
X192588333Y-64027914D01*
X192588333Y-64027914D02*
X192493095Y-64075533D01*
X193397857Y-63789819D02*
X194016904Y-63789819D01*
X194016904Y-63789819D02*
X193683571Y-64170771D01*
X193683571Y-64170771D02*
X193826428Y-64170771D01*
X193826428Y-64170771D02*
X193921666Y-64218390D01*
X193921666Y-64218390D02*
X193969285Y-64266009D01*
X193969285Y-64266009D02*
X194016904Y-64361247D01*
X194016904Y-64361247D02*
X194016904Y-64599342D01*
X194016904Y-64599342D02*
X193969285Y-64694580D01*
X193969285Y-64694580D02*
X193921666Y-64742200D01*
X193921666Y-64742200D02*
X193826428Y-64789819D01*
X193826428Y-64789819D02*
X193540714Y-64789819D01*
X193540714Y-64789819D02*
X193445476Y-64742200D01*
X193445476Y-64742200D02*
X193397857Y-64694580D01*
X247134819Y-36932857D02*
X246658628Y-37266190D01*
X247134819Y-37504285D02*
X246134819Y-37504285D01*
X246134819Y-37504285D02*
X246134819Y-37123333D01*
X246134819Y-37123333D02*
X246182438Y-37028095D01*
X246182438Y-37028095D02*
X246230057Y-36980476D01*
X246230057Y-36980476D02*
X246325295Y-36932857D01*
X246325295Y-36932857D02*
X246468152Y-36932857D01*
X246468152Y-36932857D02*
X246563390Y-36980476D01*
X246563390Y-36980476D02*
X246611009Y-37028095D01*
X246611009Y-37028095D02*
X246658628Y-37123333D01*
X246658628Y-37123333D02*
X246658628Y-37504285D01*
X247134819Y-35980476D02*
X247134819Y-36551904D01*
X247134819Y-36266190D02*
X246134819Y-36266190D01*
X246134819Y-36266190D02*
X246277676Y-36361428D01*
X246277676Y-36361428D02*
X246372914Y-36456666D01*
X246372914Y-36456666D02*
X246420533Y-36551904D01*
X247134819Y-35028095D02*
X247134819Y-35599523D01*
X247134819Y-35313809D02*
X246134819Y-35313809D01*
X246134819Y-35313809D02*
X246277676Y-35409047D01*
X246277676Y-35409047D02*
X246372914Y-35504285D01*
X246372914Y-35504285D02*
X246420533Y-35599523D01*
X213957200Y-36083332D02*
X214004819Y-35940475D01*
X214004819Y-35940475D02*
X214004819Y-35702380D01*
X214004819Y-35702380D02*
X213957200Y-35607142D01*
X213957200Y-35607142D02*
X213909580Y-35559523D01*
X213909580Y-35559523D02*
X213814342Y-35511904D01*
X213814342Y-35511904D02*
X213719104Y-35511904D01*
X213719104Y-35511904D02*
X213623866Y-35559523D01*
X213623866Y-35559523D02*
X213576247Y-35607142D01*
X213576247Y-35607142D02*
X213528628Y-35702380D01*
X213528628Y-35702380D02*
X213481009Y-35892856D01*
X213481009Y-35892856D02*
X213433390Y-35988094D01*
X213433390Y-35988094D02*
X213385771Y-36035713D01*
X213385771Y-36035713D02*
X213290533Y-36083332D01*
X213290533Y-36083332D02*
X213195295Y-36083332D01*
X213195295Y-36083332D02*
X213100057Y-36035713D01*
X213100057Y-36035713D02*
X213052438Y-35988094D01*
X213052438Y-35988094D02*
X213004819Y-35892856D01*
X213004819Y-35892856D02*
X213004819Y-35654761D01*
X213004819Y-35654761D02*
X213052438Y-35511904D01*
X213004819Y-35178570D02*
X214004819Y-34940475D01*
X214004819Y-34940475D02*
X213290533Y-34749999D01*
X213290533Y-34749999D02*
X214004819Y-34559523D01*
X214004819Y-34559523D02*
X213004819Y-34321428D01*
X213100057Y-33988094D02*
X213052438Y-33940475D01*
X213052438Y-33940475D02*
X213004819Y-33845237D01*
X213004819Y-33845237D02*
X213004819Y-33607142D01*
X213004819Y-33607142D02*
X213052438Y-33511904D01*
X213052438Y-33511904D02*
X213100057Y-33464285D01*
X213100057Y-33464285D02*
X213195295Y-33416666D01*
X213195295Y-33416666D02*
X213290533Y-33416666D01*
X213290533Y-33416666D02*
X213433390Y-33464285D01*
X213433390Y-33464285D02*
X214004819Y-34035713D01*
X214004819Y-34035713D02*
X214004819Y-33416666D01*
X240364819Y-42539285D02*
X239888628Y-42805952D01*
X240364819Y-42996428D02*
X239364819Y-42996428D01*
X239364819Y-42996428D02*
X239364819Y-42691666D01*
X239364819Y-42691666D02*
X239412438Y-42615476D01*
X239412438Y-42615476D02*
X239460057Y-42577381D01*
X239460057Y-42577381D02*
X239555295Y-42539285D01*
X239555295Y-42539285D02*
X239698152Y-42539285D01*
X239698152Y-42539285D02*
X239793390Y-42577381D01*
X239793390Y-42577381D02*
X239841009Y-42615476D01*
X239841009Y-42615476D02*
X239888628Y-42691666D01*
X239888628Y-42691666D02*
X239888628Y-42996428D01*
X239460057Y-42234524D02*
X239412438Y-42196428D01*
X239412438Y-42196428D02*
X239364819Y-42120238D01*
X239364819Y-42120238D02*
X239364819Y-41929762D01*
X239364819Y-41929762D02*
X239412438Y-41853571D01*
X239412438Y-41853571D02*
X239460057Y-41815476D01*
X239460057Y-41815476D02*
X239555295Y-41777381D01*
X239555295Y-41777381D02*
X239650533Y-41777381D01*
X239650533Y-41777381D02*
X239793390Y-41815476D01*
X239793390Y-41815476D02*
X240364819Y-42272619D01*
X240364819Y-42272619D02*
X240364819Y-41777381D01*
X240364819Y-41396428D02*
X240364819Y-41244047D01*
X240364819Y-41244047D02*
X240317200Y-41167857D01*
X240317200Y-41167857D02*
X240269580Y-41129761D01*
X240269580Y-41129761D02*
X240126723Y-41053571D01*
X240126723Y-41053571D02*
X239936247Y-41015476D01*
X239936247Y-41015476D02*
X239555295Y-41015476D01*
X239555295Y-41015476D02*
X239460057Y-41053571D01*
X239460057Y-41053571D02*
X239412438Y-41091666D01*
X239412438Y-41091666D02*
X239364819Y-41167857D01*
X239364819Y-41167857D02*
X239364819Y-41320238D01*
X239364819Y-41320238D02*
X239412438Y-41396428D01*
X239412438Y-41396428D02*
X239460057Y-41434523D01*
X239460057Y-41434523D02*
X239555295Y-41472619D01*
X239555295Y-41472619D02*
X239793390Y-41472619D01*
X239793390Y-41472619D02*
X239888628Y-41434523D01*
X239888628Y-41434523D02*
X239936247Y-41396428D01*
X239936247Y-41396428D02*
X239983866Y-41320238D01*
X239983866Y-41320238D02*
X239983866Y-41167857D01*
X239983866Y-41167857D02*
X239936247Y-41091666D01*
X239936247Y-41091666D02*
X239888628Y-41053571D01*
X239888628Y-41053571D02*
X239793390Y-41015476D01*
X59852080Y-53852857D02*
X59899700Y-53900476D01*
X59899700Y-53900476D02*
X59947319Y-54043333D01*
X59947319Y-54043333D02*
X59947319Y-54138571D01*
X59947319Y-54138571D02*
X59899700Y-54281428D01*
X59899700Y-54281428D02*
X59804461Y-54376666D01*
X59804461Y-54376666D02*
X59709223Y-54424285D01*
X59709223Y-54424285D02*
X59518747Y-54471904D01*
X59518747Y-54471904D02*
X59375890Y-54471904D01*
X59375890Y-54471904D02*
X59185414Y-54424285D01*
X59185414Y-54424285D02*
X59090176Y-54376666D01*
X59090176Y-54376666D02*
X58994938Y-54281428D01*
X58994938Y-54281428D02*
X58947319Y-54138571D01*
X58947319Y-54138571D02*
X58947319Y-54043333D01*
X58947319Y-54043333D02*
X58994938Y-53900476D01*
X58994938Y-53900476D02*
X59042557Y-53852857D01*
X59947319Y-52900476D02*
X59947319Y-53471904D01*
X59947319Y-53186190D02*
X58947319Y-53186190D01*
X58947319Y-53186190D02*
X59090176Y-53281428D01*
X59090176Y-53281428D02*
X59185414Y-53376666D01*
X59185414Y-53376666D02*
X59233033Y-53471904D01*
X58947319Y-51995714D02*
X58947319Y-52471904D01*
X58947319Y-52471904D02*
X59423509Y-52519523D01*
X59423509Y-52519523D02*
X59375890Y-52471904D01*
X59375890Y-52471904D02*
X59328271Y-52376666D01*
X59328271Y-52376666D02*
X59328271Y-52138571D01*
X59328271Y-52138571D02*
X59375890Y-52043333D01*
X59375890Y-52043333D02*
X59423509Y-51995714D01*
X59423509Y-51995714D02*
X59518747Y-51948095D01*
X59518747Y-51948095D02*
X59756842Y-51948095D01*
X59756842Y-51948095D02*
X59852080Y-51995714D01*
X59852080Y-51995714D02*
X59899700Y-52043333D01*
X59899700Y-52043333D02*
X59947319Y-52138571D01*
X59947319Y-52138571D02*
X59947319Y-52376666D01*
X59947319Y-52376666D02*
X59899700Y-52471904D01*
X59899700Y-52471904D02*
X59852080Y-52519523D01*
X189924819Y-72323094D02*
X190734342Y-72323094D01*
X190734342Y-72323094D02*
X190829580Y-72275475D01*
X190829580Y-72275475D02*
X190877200Y-72227856D01*
X190877200Y-72227856D02*
X190924819Y-72132618D01*
X190924819Y-72132618D02*
X190924819Y-71942142D01*
X190924819Y-71942142D02*
X190877200Y-71846904D01*
X190877200Y-71846904D02*
X190829580Y-71799285D01*
X190829580Y-71799285D02*
X190734342Y-71751666D01*
X190734342Y-71751666D02*
X189924819Y-71751666D01*
X190924819Y-70751666D02*
X190924819Y-71323094D01*
X190924819Y-71037380D02*
X189924819Y-71037380D01*
X189924819Y-71037380D02*
X190067676Y-71132618D01*
X190067676Y-71132618D02*
X190162914Y-71227856D01*
X190162914Y-71227856D02*
X190210533Y-71323094D01*
X190924819Y-69799285D02*
X190924819Y-70370713D01*
X190924819Y-70084999D02*
X189924819Y-70084999D01*
X189924819Y-70084999D02*
X190067676Y-70180237D01*
X190067676Y-70180237D02*
X190162914Y-70275475D01*
X190162914Y-70275475D02*
X190210533Y-70370713D01*
D12*
X138868095Y-50448800D02*
X139010952Y-50496419D01*
X139010952Y-50496419D02*
X139249047Y-50496419D01*
X139249047Y-50496419D02*
X139344285Y-50448800D01*
X139344285Y-50448800D02*
X139391904Y-50401180D01*
X139391904Y-50401180D02*
X139439523Y-50305942D01*
X139439523Y-50305942D02*
X139439523Y-50210704D01*
X139439523Y-50210704D02*
X139391904Y-50115466D01*
X139391904Y-50115466D02*
X139344285Y-50067847D01*
X139344285Y-50067847D02*
X139249047Y-50020228D01*
X139249047Y-50020228D02*
X139058571Y-49972609D01*
X139058571Y-49972609D02*
X138963333Y-49924990D01*
X138963333Y-49924990D02*
X138915714Y-49877371D01*
X138915714Y-49877371D02*
X138868095Y-49782133D01*
X138868095Y-49782133D02*
X138868095Y-49686895D01*
X138868095Y-49686895D02*
X138915714Y-49591657D01*
X138915714Y-49591657D02*
X138963333Y-49544038D01*
X138963333Y-49544038D02*
X139058571Y-49496419D01*
X139058571Y-49496419D02*
X139296666Y-49496419D01*
X139296666Y-49496419D02*
X139439523Y-49544038D01*
X140391904Y-50496419D02*
X139820476Y-50496419D01*
X140106190Y-50496419D02*
X140106190Y-49496419D01*
X140106190Y-49496419D02*
X140010952Y-49639276D01*
X140010952Y-49639276D02*
X139915714Y-49734514D01*
X139915714Y-49734514D02*
X139820476Y-49782133D01*
D11*
X41641905Y-35914819D02*
X41641905Y-34914819D01*
X41641905Y-34914819D02*
X41880000Y-34914819D01*
X41880000Y-34914819D02*
X42022857Y-34962438D01*
X42022857Y-34962438D02*
X42118095Y-35057676D01*
X42118095Y-35057676D02*
X42165714Y-35152914D01*
X42165714Y-35152914D02*
X42213333Y-35343390D01*
X42213333Y-35343390D02*
X42213333Y-35486247D01*
X42213333Y-35486247D02*
X42165714Y-35676723D01*
X42165714Y-35676723D02*
X42118095Y-35771961D01*
X42118095Y-35771961D02*
X42022857Y-35867200D01*
X42022857Y-35867200D02*
X41880000Y-35914819D01*
X41880000Y-35914819D02*
X41641905Y-35914819D01*
X42546667Y-34914819D02*
X43165714Y-34914819D01*
X43165714Y-34914819D02*
X42832381Y-35295771D01*
X42832381Y-35295771D02*
X42975238Y-35295771D01*
X42975238Y-35295771D02*
X43070476Y-35343390D01*
X43070476Y-35343390D02*
X43118095Y-35391009D01*
X43118095Y-35391009D02*
X43165714Y-35486247D01*
X43165714Y-35486247D02*
X43165714Y-35724342D01*
X43165714Y-35724342D02*
X43118095Y-35819580D01*
X43118095Y-35819580D02*
X43070476Y-35867200D01*
X43070476Y-35867200D02*
X42975238Y-35914819D01*
X42975238Y-35914819D02*
X42689524Y-35914819D01*
X42689524Y-35914819D02*
X42594286Y-35867200D01*
X42594286Y-35867200D02*
X42546667Y-35819580D01*
X49238333Y-35814819D02*
X48905000Y-35338628D01*
X48666905Y-35814819D02*
X48666905Y-34814819D01*
X48666905Y-34814819D02*
X49047857Y-34814819D01*
X49047857Y-34814819D02*
X49143095Y-34862438D01*
X49143095Y-34862438D02*
X49190714Y-34910057D01*
X49190714Y-34910057D02*
X49238333Y-35005295D01*
X49238333Y-35005295D02*
X49238333Y-35148152D01*
X49238333Y-35148152D02*
X49190714Y-35243390D01*
X49190714Y-35243390D02*
X49143095Y-35291009D01*
X49143095Y-35291009D02*
X49047857Y-35338628D01*
X49047857Y-35338628D02*
X48666905Y-35338628D01*
X50190714Y-35814819D02*
X49619286Y-35814819D01*
X49905000Y-35814819D02*
X49905000Y-34814819D01*
X49905000Y-34814819D02*
X49809762Y-34957676D01*
X49809762Y-34957676D02*
X49714524Y-35052914D01*
X49714524Y-35052914D02*
X49619286Y-35100533D01*
X214219580Y-38812857D02*
X214267200Y-38860476D01*
X214267200Y-38860476D02*
X214314819Y-39003333D01*
X214314819Y-39003333D02*
X214314819Y-39098571D01*
X214314819Y-39098571D02*
X214267200Y-39241428D01*
X214267200Y-39241428D02*
X214171961Y-39336666D01*
X214171961Y-39336666D02*
X214076723Y-39384285D01*
X214076723Y-39384285D02*
X213886247Y-39431904D01*
X213886247Y-39431904D02*
X213743390Y-39431904D01*
X213743390Y-39431904D02*
X213552914Y-39384285D01*
X213552914Y-39384285D02*
X213457676Y-39336666D01*
X213457676Y-39336666D02*
X213362438Y-39241428D01*
X213362438Y-39241428D02*
X213314819Y-39098571D01*
X213314819Y-39098571D02*
X213314819Y-39003333D01*
X213314819Y-39003333D02*
X213362438Y-38860476D01*
X213362438Y-38860476D02*
X213410057Y-38812857D01*
X214314819Y-37860476D02*
X214314819Y-38431904D01*
X214314819Y-38146190D02*
X213314819Y-38146190D01*
X213314819Y-38146190D02*
X213457676Y-38241428D01*
X213457676Y-38241428D02*
X213552914Y-38336666D01*
X213552914Y-38336666D02*
X213600533Y-38431904D01*
X213314819Y-37003333D02*
X213314819Y-37193809D01*
X213314819Y-37193809D02*
X213362438Y-37289047D01*
X213362438Y-37289047D02*
X213410057Y-37336666D01*
X213410057Y-37336666D02*
X213552914Y-37431904D01*
X213552914Y-37431904D02*
X213743390Y-37479523D01*
X213743390Y-37479523D02*
X214124342Y-37479523D01*
X214124342Y-37479523D02*
X214219580Y-37431904D01*
X214219580Y-37431904D02*
X214267200Y-37384285D01*
X214267200Y-37384285D02*
X214314819Y-37289047D01*
X214314819Y-37289047D02*
X214314819Y-37098571D01*
X214314819Y-37098571D02*
X214267200Y-37003333D01*
X214267200Y-37003333D02*
X214219580Y-36955714D01*
X214219580Y-36955714D02*
X214124342Y-36908095D01*
X214124342Y-36908095D02*
X213886247Y-36908095D01*
X213886247Y-36908095D02*
X213791009Y-36955714D01*
X213791009Y-36955714D02*
X213743390Y-37003333D01*
X213743390Y-37003333D02*
X213695771Y-37098571D01*
X213695771Y-37098571D02*
X213695771Y-37289047D01*
X213695771Y-37289047D02*
X213743390Y-37384285D01*
X213743390Y-37384285D02*
X213791009Y-37431904D01*
X213791009Y-37431904D02*
X213886247Y-37479523D01*
X209903333Y-49144819D02*
X209570000Y-48668628D01*
X209331905Y-49144819D02*
X209331905Y-48144819D01*
X209331905Y-48144819D02*
X209712857Y-48144819D01*
X209712857Y-48144819D02*
X209808095Y-48192438D01*
X209808095Y-48192438D02*
X209855714Y-48240057D01*
X209855714Y-48240057D02*
X209903333Y-48335295D01*
X209903333Y-48335295D02*
X209903333Y-48478152D01*
X209903333Y-48478152D02*
X209855714Y-48573390D01*
X209855714Y-48573390D02*
X209808095Y-48621009D01*
X209808095Y-48621009D02*
X209712857Y-48668628D01*
X209712857Y-48668628D02*
X209331905Y-48668628D01*
X210808095Y-48144819D02*
X210331905Y-48144819D01*
X210331905Y-48144819D02*
X210284286Y-48621009D01*
X210284286Y-48621009D02*
X210331905Y-48573390D01*
X210331905Y-48573390D02*
X210427143Y-48525771D01*
X210427143Y-48525771D02*
X210665238Y-48525771D01*
X210665238Y-48525771D02*
X210760476Y-48573390D01*
X210760476Y-48573390D02*
X210808095Y-48621009D01*
X210808095Y-48621009D02*
X210855714Y-48716247D01*
X210855714Y-48716247D02*
X210855714Y-48954342D01*
X210855714Y-48954342D02*
X210808095Y-49049580D01*
X210808095Y-49049580D02*
X210760476Y-49097200D01*
X210760476Y-49097200D02*
X210665238Y-49144819D01*
X210665238Y-49144819D02*
X210427143Y-49144819D01*
X210427143Y-49144819D02*
X210331905Y-49097200D01*
X210331905Y-49097200D02*
X210284286Y-49049580D01*
X196186667Y-38067200D02*
X196329524Y-38114819D01*
X196329524Y-38114819D02*
X196567619Y-38114819D01*
X196567619Y-38114819D02*
X196662857Y-38067200D01*
X196662857Y-38067200D02*
X196710476Y-38019580D01*
X196710476Y-38019580D02*
X196758095Y-37924342D01*
X196758095Y-37924342D02*
X196758095Y-37829104D01*
X196758095Y-37829104D02*
X196710476Y-37733866D01*
X196710476Y-37733866D02*
X196662857Y-37686247D01*
X196662857Y-37686247D02*
X196567619Y-37638628D01*
X196567619Y-37638628D02*
X196377143Y-37591009D01*
X196377143Y-37591009D02*
X196281905Y-37543390D01*
X196281905Y-37543390D02*
X196234286Y-37495771D01*
X196234286Y-37495771D02*
X196186667Y-37400533D01*
X196186667Y-37400533D02*
X196186667Y-37305295D01*
X196186667Y-37305295D02*
X196234286Y-37210057D01*
X196234286Y-37210057D02*
X196281905Y-37162438D01*
X196281905Y-37162438D02*
X196377143Y-37114819D01*
X196377143Y-37114819D02*
X196615238Y-37114819D01*
X196615238Y-37114819D02*
X196758095Y-37162438D01*
X197091429Y-37114819D02*
X197329524Y-38114819D01*
X197329524Y-38114819D02*
X197520000Y-37400533D01*
X197520000Y-37400533D02*
X197710476Y-38114819D01*
X197710476Y-38114819D02*
X197948572Y-37114819D01*
X198853333Y-38114819D02*
X198281905Y-38114819D01*
X198567619Y-38114819D02*
X198567619Y-37114819D01*
X198567619Y-37114819D02*
X198472381Y-37257676D01*
X198472381Y-37257676D02*
X198377143Y-37352914D01*
X198377143Y-37352914D02*
X198281905Y-37400533D01*
X252559580Y-57210952D02*
X252607200Y-57258571D01*
X252607200Y-57258571D02*
X252654819Y-57401428D01*
X252654819Y-57401428D02*
X252654819Y-57496666D01*
X252654819Y-57496666D02*
X252607200Y-57639523D01*
X252607200Y-57639523D02*
X252511961Y-57734761D01*
X252511961Y-57734761D02*
X252416723Y-57782380D01*
X252416723Y-57782380D02*
X252226247Y-57829999D01*
X252226247Y-57829999D02*
X252083390Y-57829999D01*
X252083390Y-57829999D02*
X251892914Y-57782380D01*
X251892914Y-57782380D02*
X251797676Y-57734761D01*
X251797676Y-57734761D02*
X251702438Y-57639523D01*
X251702438Y-57639523D02*
X251654819Y-57496666D01*
X251654819Y-57496666D02*
X251654819Y-57401428D01*
X251654819Y-57401428D02*
X251702438Y-57258571D01*
X251702438Y-57258571D02*
X251750057Y-57210952D01*
X252654819Y-56353809D02*
X252131009Y-56353809D01*
X252131009Y-56353809D02*
X252035771Y-56401428D01*
X252035771Y-56401428D02*
X251988152Y-56496666D01*
X251988152Y-56496666D02*
X251988152Y-56687142D01*
X251988152Y-56687142D02*
X252035771Y-56782380D01*
X252607200Y-56353809D02*
X252654819Y-56449047D01*
X252654819Y-56449047D02*
X252654819Y-56687142D01*
X252654819Y-56687142D02*
X252607200Y-56782380D01*
X252607200Y-56782380D02*
X252511961Y-56829999D01*
X252511961Y-56829999D02*
X252416723Y-56829999D01*
X252416723Y-56829999D02*
X252321485Y-56782380D01*
X252321485Y-56782380D02*
X252273866Y-56687142D01*
X252273866Y-56687142D02*
X252273866Y-56449047D01*
X252273866Y-56449047D02*
X252226247Y-56353809D01*
X252654819Y-55877618D02*
X251988152Y-55877618D01*
X252178628Y-55877618D02*
X252083390Y-55829999D01*
X252083390Y-55829999D02*
X252035771Y-55782380D01*
X252035771Y-55782380D02*
X251988152Y-55687142D01*
X251988152Y-55687142D02*
X251988152Y-55591904D01*
X252654819Y-54829999D02*
X251654819Y-54829999D01*
X252607200Y-54829999D02*
X252654819Y-54925237D01*
X252654819Y-54925237D02*
X252654819Y-55115713D01*
X252654819Y-55115713D02*
X252607200Y-55210951D01*
X252607200Y-55210951D02*
X252559580Y-55258570D01*
X252559580Y-55258570D02*
X252464342Y-55306189D01*
X252464342Y-55306189D02*
X252178628Y-55306189D01*
X252178628Y-55306189D02*
X252083390Y-55258570D01*
X252083390Y-55258570D02*
X252035771Y-55210951D01*
X252035771Y-55210951D02*
X251988152Y-55115713D01*
X251988152Y-55115713D02*
X251988152Y-54925237D01*
X251988152Y-54925237D02*
X252035771Y-54829999D01*
X252654819Y-53829999D02*
X252654819Y-54401427D01*
X252654819Y-54115713D02*
X251654819Y-54115713D01*
X251654819Y-54115713D02*
X251797676Y-54210951D01*
X251797676Y-54210951D02*
X251892914Y-54306189D01*
X251892914Y-54306189D02*
X251940533Y-54401427D01*
X38989761Y-61610057D02*
X38894523Y-61562438D01*
X38894523Y-61562438D02*
X38799285Y-61467200D01*
X38799285Y-61467200D02*
X38656428Y-61324342D01*
X38656428Y-61324342D02*
X38561190Y-61276723D01*
X38561190Y-61276723D02*
X38465952Y-61276723D01*
X38513571Y-61514819D02*
X38418333Y-61467200D01*
X38418333Y-61467200D02*
X38323095Y-61371961D01*
X38323095Y-61371961D02*
X38275476Y-61181485D01*
X38275476Y-61181485D02*
X38275476Y-60848152D01*
X38275476Y-60848152D02*
X38323095Y-60657676D01*
X38323095Y-60657676D02*
X38418333Y-60562438D01*
X38418333Y-60562438D02*
X38513571Y-60514819D01*
X38513571Y-60514819D02*
X38704047Y-60514819D01*
X38704047Y-60514819D02*
X38799285Y-60562438D01*
X38799285Y-60562438D02*
X38894523Y-60657676D01*
X38894523Y-60657676D02*
X38942142Y-60848152D01*
X38942142Y-60848152D02*
X38942142Y-61181485D01*
X38942142Y-61181485D02*
X38894523Y-61371961D01*
X38894523Y-61371961D02*
X38799285Y-61467200D01*
X38799285Y-61467200D02*
X38704047Y-61514819D01*
X38704047Y-61514819D02*
X38513571Y-61514819D01*
X39323095Y-60610057D02*
X39370714Y-60562438D01*
X39370714Y-60562438D02*
X39465952Y-60514819D01*
X39465952Y-60514819D02*
X39704047Y-60514819D01*
X39704047Y-60514819D02*
X39799285Y-60562438D01*
X39799285Y-60562438D02*
X39846904Y-60610057D01*
X39846904Y-60610057D02*
X39894523Y-60705295D01*
X39894523Y-60705295D02*
X39894523Y-60800533D01*
X39894523Y-60800533D02*
X39846904Y-60943390D01*
X39846904Y-60943390D02*
X39275476Y-61514819D01*
X39275476Y-61514819D02*
X39894523Y-61514819D01*
X237437200Y-36043332D02*
X237484819Y-35900475D01*
X237484819Y-35900475D02*
X237484819Y-35662380D01*
X237484819Y-35662380D02*
X237437200Y-35567142D01*
X237437200Y-35567142D02*
X237389580Y-35519523D01*
X237389580Y-35519523D02*
X237294342Y-35471904D01*
X237294342Y-35471904D02*
X237199104Y-35471904D01*
X237199104Y-35471904D02*
X237103866Y-35519523D01*
X237103866Y-35519523D02*
X237056247Y-35567142D01*
X237056247Y-35567142D02*
X237008628Y-35662380D01*
X237008628Y-35662380D02*
X236961009Y-35852856D01*
X236961009Y-35852856D02*
X236913390Y-35948094D01*
X236913390Y-35948094D02*
X236865771Y-35995713D01*
X236865771Y-35995713D02*
X236770533Y-36043332D01*
X236770533Y-36043332D02*
X236675295Y-36043332D01*
X236675295Y-36043332D02*
X236580057Y-35995713D01*
X236580057Y-35995713D02*
X236532438Y-35948094D01*
X236532438Y-35948094D02*
X236484819Y-35852856D01*
X236484819Y-35852856D02*
X236484819Y-35614761D01*
X236484819Y-35614761D02*
X236532438Y-35471904D01*
X236484819Y-35138570D02*
X237484819Y-34900475D01*
X237484819Y-34900475D02*
X236770533Y-34709999D01*
X236770533Y-34709999D02*
X237484819Y-34519523D01*
X237484819Y-34519523D02*
X236484819Y-34281428D01*
X236818152Y-33471904D02*
X237484819Y-33471904D01*
X236437200Y-33709999D02*
X237151485Y-33948094D01*
X237151485Y-33948094D02*
X237151485Y-33329047D01*
X215329819Y-71846904D02*
X216139342Y-71846904D01*
X216139342Y-71846904D02*
X216234580Y-71799285D01*
X216234580Y-71799285D02*
X216282200Y-71751666D01*
X216282200Y-71751666D02*
X216329819Y-71656428D01*
X216329819Y-71656428D02*
X216329819Y-71465952D01*
X216329819Y-71465952D02*
X216282200Y-71370714D01*
X216282200Y-71370714D02*
X216234580Y-71323095D01*
X216234580Y-71323095D02*
X216139342Y-71275476D01*
X216139342Y-71275476D02*
X215329819Y-71275476D01*
X216329819Y-70751666D02*
X216329819Y-70561190D01*
X216329819Y-70561190D02*
X216282200Y-70465952D01*
X216282200Y-70465952D02*
X216234580Y-70418333D01*
X216234580Y-70418333D02*
X216091723Y-70323095D01*
X216091723Y-70323095D02*
X215901247Y-70275476D01*
X215901247Y-70275476D02*
X215520295Y-70275476D01*
X215520295Y-70275476D02*
X215425057Y-70323095D01*
X215425057Y-70323095D02*
X215377438Y-70370714D01*
X215377438Y-70370714D02*
X215329819Y-70465952D01*
X215329819Y-70465952D02*
X215329819Y-70656428D01*
X215329819Y-70656428D02*
X215377438Y-70751666D01*
X215377438Y-70751666D02*
X215425057Y-70799285D01*
X215425057Y-70799285D02*
X215520295Y-70846904D01*
X215520295Y-70846904D02*
X215758390Y-70846904D01*
X215758390Y-70846904D02*
X215853628Y-70799285D01*
X215853628Y-70799285D02*
X215901247Y-70751666D01*
X215901247Y-70751666D02*
X215948866Y-70656428D01*
X215948866Y-70656428D02*
X215948866Y-70465952D01*
X215948866Y-70465952D02*
X215901247Y-70370714D01*
X215901247Y-70370714D02*
X215853628Y-70323095D01*
X215853628Y-70323095D02*
X215758390Y-70275476D01*
X196234819Y-46811666D02*
X195758628Y-47144999D01*
X196234819Y-47383094D02*
X195234819Y-47383094D01*
X195234819Y-47383094D02*
X195234819Y-47002142D01*
X195234819Y-47002142D02*
X195282438Y-46906904D01*
X195282438Y-46906904D02*
X195330057Y-46859285D01*
X195330057Y-46859285D02*
X195425295Y-46811666D01*
X195425295Y-46811666D02*
X195568152Y-46811666D01*
X195568152Y-46811666D02*
X195663390Y-46859285D01*
X195663390Y-46859285D02*
X195711009Y-46906904D01*
X195711009Y-46906904D02*
X195758628Y-47002142D01*
X195758628Y-47002142D02*
X195758628Y-47383094D01*
X195330057Y-46430713D02*
X195282438Y-46383094D01*
X195282438Y-46383094D02*
X195234819Y-46287856D01*
X195234819Y-46287856D02*
X195234819Y-46049761D01*
X195234819Y-46049761D02*
X195282438Y-45954523D01*
X195282438Y-45954523D02*
X195330057Y-45906904D01*
X195330057Y-45906904D02*
X195425295Y-45859285D01*
X195425295Y-45859285D02*
X195520533Y-45859285D01*
X195520533Y-45859285D02*
X195663390Y-45906904D01*
X195663390Y-45906904D02*
X196234819Y-46478332D01*
X196234819Y-46478332D02*
X196234819Y-45859285D01*
X252200711Y-45134783D02*
X252153036Y-45230133D01*
X252153036Y-45230133D02*
X252057687Y-45325483D01*
X252057687Y-45325483D02*
X251914662Y-45468508D01*
X251914662Y-45468508D02*
X251866987Y-45563857D01*
X251866987Y-45563857D02*
X251866987Y-45659207D01*
X252105361Y-45611532D02*
X252057687Y-45706882D01*
X252057687Y-45706882D02*
X251962337Y-45802232D01*
X251962337Y-45802232D02*
X251771637Y-45849907D01*
X251771637Y-45849907D02*
X251437913Y-45849907D01*
X251437913Y-45849907D02*
X251247213Y-45802232D01*
X251247213Y-45802232D02*
X251151863Y-45706882D01*
X251151863Y-45706882D02*
X251104188Y-45611532D01*
X251104188Y-45611532D02*
X251104188Y-45420833D01*
X251104188Y-45420833D02*
X251151863Y-45325483D01*
X251151863Y-45325483D02*
X251247213Y-45230133D01*
X251247213Y-45230133D02*
X251437913Y-45182458D01*
X251437913Y-45182458D02*
X251771637Y-45182458D01*
X251771637Y-45182458D02*
X251962337Y-45230133D01*
X251962337Y-45230133D02*
X252057687Y-45325483D01*
X252057687Y-45325483D02*
X252105361Y-45420833D01*
X252105361Y-45420833D02*
X252105361Y-45611532D01*
X251104188Y-44848734D02*
X252105361Y-44610359D01*
X252105361Y-44610359D02*
X251390238Y-44419660D01*
X251390238Y-44419660D02*
X252105361Y-44228960D01*
X252105361Y-44228960D02*
X251104188Y-43990586D01*
X252105361Y-43609186D02*
X251104188Y-43609186D01*
X252105361Y-43132437D02*
X251104188Y-43132437D01*
X252010012Y-42083589D02*
X252057687Y-42131264D01*
X252057687Y-42131264D02*
X252105361Y-42274289D01*
X252105361Y-42274289D02*
X252105361Y-42369639D01*
X252105361Y-42369639D02*
X252057687Y-42512663D01*
X252057687Y-42512663D02*
X251962337Y-42608013D01*
X251962337Y-42608013D02*
X251866987Y-42655688D01*
X251866987Y-42655688D02*
X251676287Y-42703363D01*
X251676287Y-42703363D02*
X251533263Y-42703363D01*
X251533263Y-42703363D02*
X251342563Y-42655688D01*
X251342563Y-42655688D02*
X251247213Y-42608013D01*
X251247213Y-42608013D02*
X251151863Y-42512663D01*
X251151863Y-42512663D02*
X251104188Y-42369639D01*
X251104188Y-42369639D02*
X251104188Y-42274289D01*
X251104188Y-42274289D02*
X251151863Y-42131264D01*
X251151863Y-42131264D02*
X251199538Y-42083589D01*
X251199538Y-41702190D02*
X251151863Y-41654515D01*
X251151863Y-41654515D02*
X251104188Y-41559165D01*
X251104188Y-41559165D02*
X251104188Y-41320791D01*
X251104188Y-41320791D02*
X251151863Y-41225441D01*
X251151863Y-41225441D02*
X251199538Y-41177766D01*
X251199538Y-41177766D02*
X251294888Y-41130091D01*
X251294888Y-41130091D02*
X251390238Y-41130091D01*
X251390238Y-41130091D02*
X251533263Y-41177766D01*
X251533263Y-41177766D02*
X252105361Y-41749865D01*
X252105361Y-41749865D02*
X252105361Y-41130091D01*
X89424819Y-46571904D02*
X90234342Y-46571904D01*
X90234342Y-46571904D02*
X90329580Y-46524285D01*
X90329580Y-46524285D02*
X90377200Y-46476666D01*
X90377200Y-46476666D02*
X90424819Y-46381428D01*
X90424819Y-46381428D02*
X90424819Y-46190952D01*
X90424819Y-46190952D02*
X90377200Y-46095714D01*
X90377200Y-46095714D02*
X90329580Y-46048095D01*
X90329580Y-46048095D02*
X90234342Y-46000476D01*
X90234342Y-46000476D02*
X89424819Y-46000476D01*
X89424819Y-45619523D02*
X89424819Y-45000476D01*
X89424819Y-45000476D02*
X89805771Y-45333809D01*
X89805771Y-45333809D02*
X89805771Y-45190952D01*
X89805771Y-45190952D02*
X89853390Y-45095714D01*
X89853390Y-45095714D02*
X89901009Y-45048095D01*
X89901009Y-45048095D02*
X89996247Y-45000476D01*
X89996247Y-45000476D02*
X90234342Y-45000476D01*
X90234342Y-45000476D02*
X90329580Y-45048095D01*
X90329580Y-45048095D02*
X90377200Y-45095714D01*
X90377200Y-45095714D02*
X90424819Y-45190952D01*
X90424819Y-45190952D02*
X90424819Y-45476666D01*
X90424819Y-45476666D02*
X90377200Y-45571904D01*
X90377200Y-45571904D02*
X90329580Y-45619523D01*
X63650833Y-58064819D02*
X63317500Y-57588628D01*
X63079405Y-58064819D02*
X63079405Y-57064819D01*
X63079405Y-57064819D02*
X63460357Y-57064819D01*
X63460357Y-57064819D02*
X63555595Y-57112438D01*
X63555595Y-57112438D02*
X63603214Y-57160057D01*
X63603214Y-57160057D02*
X63650833Y-57255295D01*
X63650833Y-57255295D02*
X63650833Y-57398152D01*
X63650833Y-57398152D02*
X63603214Y-57493390D01*
X63603214Y-57493390D02*
X63555595Y-57541009D01*
X63555595Y-57541009D02*
X63460357Y-57588628D01*
X63460357Y-57588628D02*
X63079405Y-57588628D01*
X64507976Y-57064819D02*
X64317500Y-57064819D01*
X64317500Y-57064819D02*
X64222262Y-57112438D01*
X64222262Y-57112438D02*
X64174643Y-57160057D01*
X64174643Y-57160057D02*
X64079405Y-57302914D01*
X64079405Y-57302914D02*
X64031786Y-57493390D01*
X64031786Y-57493390D02*
X64031786Y-57874342D01*
X64031786Y-57874342D02*
X64079405Y-57969580D01*
X64079405Y-57969580D02*
X64127024Y-58017200D01*
X64127024Y-58017200D02*
X64222262Y-58064819D01*
X64222262Y-58064819D02*
X64412738Y-58064819D01*
X64412738Y-58064819D02*
X64507976Y-58017200D01*
X64507976Y-58017200D02*
X64555595Y-57969580D01*
X64555595Y-57969580D02*
X64603214Y-57874342D01*
X64603214Y-57874342D02*
X64603214Y-57636247D01*
X64603214Y-57636247D02*
X64555595Y-57541009D01*
X64555595Y-57541009D02*
X64507976Y-57493390D01*
X64507976Y-57493390D02*
X64412738Y-57445771D01*
X64412738Y-57445771D02*
X64222262Y-57445771D01*
X64222262Y-57445771D02*
X64127024Y-57493390D01*
X64127024Y-57493390D02*
X64079405Y-57541009D01*
X64079405Y-57541009D02*
X64031786Y-57636247D01*
X243864819Y-42614285D02*
X243388628Y-42880952D01*
X243864819Y-43071428D02*
X242864819Y-43071428D01*
X242864819Y-43071428D02*
X242864819Y-42766666D01*
X242864819Y-42766666D02*
X242912438Y-42690476D01*
X242912438Y-42690476D02*
X242960057Y-42652381D01*
X242960057Y-42652381D02*
X243055295Y-42614285D01*
X243055295Y-42614285D02*
X243198152Y-42614285D01*
X243198152Y-42614285D02*
X243293390Y-42652381D01*
X243293390Y-42652381D02*
X243341009Y-42690476D01*
X243341009Y-42690476D02*
X243388628Y-42766666D01*
X243388628Y-42766666D02*
X243388628Y-43071428D01*
X242864819Y-42347619D02*
X242864819Y-41852381D01*
X242864819Y-41852381D02*
X243245771Y-42119047D01*
X243245771Y-42119047D02*
X243245771Y-42004762D01*
X243245771Y-42004762D02*
X243293390Y-41928571D01*
X243293390Y-41928571D02*
X243341009Y-41890476D01*
X243341009Y-41890476D02*
X243436247Y-41852381D01*
X243436247Y-41852381D02*
X243674342Y-41852381D01*
X243674342Y-41852381D02*
X243769580Y-41890476D01*
X243769580Y-41890476D02*
X243817200Y-41928571D01*
X243817200Y-41928571D02*
X243864819Y-42004762D01*
X243864819Y-42004762D02*
X243864819Y-42233333D01*
X243864819Y-42233333D02*
X243817200Y-42309524D01*
X243817200Y-42309524D02*
X243769580Y-42347619D01*
X242960057Y-41547619D02*
X242912438Y-41509523D01*
X242912438Y-41509523D02*
X242864819Y-41433333D01*
X242864819Y-41433333D02*
X242864819Y-41242857D01*
X242864819Y-41242857D02*
X242912438Y-41166666D01*
X242912438Y-41166666D02*
X242960057Y-41128571D01*
X242960057Y-41128571D02*
X243055295Y-41090476D01*
X243055295Y-41090476D02*
X243150533Y-41090476D01*
X243150533Y-41090476D02*
X243293390Y-41128571D01*
X243293390Y-41128571D02*
X243864819Y-41585714D01*
X243864819Y-41585714D02*
X243864819Y-41090476D01*
X230862142Y-64764580D02*
X230814523Y-64812200D01*
X230814523Y-64812200D02*
X230671666Y-64859819D01*
X230671666Y-64859819D02*
X230576428Y-64859819D01*
X230576428Y-64859819D02*
X230433571Y-64812200D01*
X230433571Y-64812200D02*
X230338333Y-64716961D01*
X230338333Y-64716961D02*
X230290714Y-64621723D01*
X230290714Y-64621723D02*
X230243095Y-64431247D01*
X230243095Y-64431247D02*
X230243095Y-64288390D01*
X230243095Y-64288390D02*
X230290714Y-64097914D01*
X230290714Y-64097914D02*
X230338333Y-64002676D01*
X230338333Y-64002676D02*
X230433571Y-63907438D01*
X230433571Y-63907438D02*
X230576428Y-63859819D01*
X230576428Y-63859819D02*
X230671666Y-63859819D01*
X230671666Y-63859819D02*
X230814523Y-63907438D01*
X230814523Y-63907438D02*
X230862142Y-63955057D01*
X231814523Y-64859819D02*
X231243095Y-64859819D01*
X231528809Y-64859819D02*
X231528809Y-63859819D01*
X231528809Y-63859819D02*
X231433571Y-64002676D01*
X231433571Y-64002676D02*
X231338333Y-64097914D01*
X231338333Y-64097914D02*
X231243095Y-64145533D01*
X232433571Y-63859819D02*
X232528809Y-63859819D01*
X232528809Y-63859819D02*
X232624047Y-63907438D01*
X232624047Y-63907438D02*
X232671666Y-63955057D01*
X232671666Y-63955057D02*
X232719285Y-64050295D01*
X232719285Y-64050295D02*
X232766904Y-64240771D01*
X232766904Y-64240771D02*
X232766904Y-64478866D01*
X232766904Y-64478866D02*
X232719285Y-64669342D01*
X232719285Y-64669342D02*
X232671666Y-64764580D01*
X232671666Y-64764580D02*
X232624047Y-64812200D01*
X232624047Y-64812200D02*
X232528809Y-64859819D01*
X232528809Y-64859819D02*
X232433571Y-64859819D01*
X232433571Y-64859819D02*
X232338333Y-64812200D01*
X232338333Y-64812200D02*
X232290714Y-64764580D01*
X232290714Y-64764580D02*
X232243095Y-64669342D01*
X232243095Y-64669342D02*
X232195476Y-64478866D01*
X232195476Y-64478866D02*
X232195476Y-64240771D01*
X232195476Y-64240771D02*
X232243095Y-64050295D01*
X232243095Y-64050295D02*
X232290714Y-63955057D01*
X232290714Y-63955057D02*
X232338333Y-63907438D01*
X232338333Y-63907438D02*
X232433571Y-63859819D01*
X35184819Y-63652857D02*
X34708628Y-63986190D01*
X35184819Y-64224285D02*
X34184819Y-64224285D01*
X34184819Y-64224285D02*
X34184819Y-63843333D01*
X34184819Y-63843333D02*
X34232438Y-63748095D01*
X34232438Y-63748095D02*
X34280057Y-63700476D01*
X34280057Y-63700476D02*
X34375295Y-63652857D01*
X34375295Y-63652857D02*
X34518152Y-63652857D01*
X34518152Y-63652857D02*
X34613390Y-63700476D01*
X34613390Y-63700476D02*
X34661009Y-63748095D01*
X34661009Y-63748095D02*
X34708628Y-63843333D01*
X34708628Y-63843333D02*
X34708628Y-64224285D01*
X35184819Y-62700476D02*
X35184819Y-63271904D01*
X35184819Y-62986190D02*
X34184819Y-62986190D01*
X34184819Y-62986190D02*
X34327676Y-63081428D01*
X34327676Y-63081428D02*
X34422914Y-63176666D01*
X34422914Y-63176666D02*
X34470533Y-63271904D01*
X34518152Y-61843333D02*
X35184819Y-61843333D01*
X34137200Y-62081428D02*
X34851485Y-62319523D01*
X34851485Y-62319523D02*
X34851485Y-61700476D01*
X82589580Y-45826666D02*
X82637200Y-45874285D01*
X82637200Y-45874285D02*
X82684819Y-46017142D01*
X82684819Y-46017142D02*
X82684819Y-46112380D01*
X82684819Y-46112380D02*
X82637200Y-46255237D01*
X82637200Y-46255237D02*
X82541961Y-46350475D01*
X82541961Y-46350475D02*
X82446723Y-46398094D01*
X82446723Y-46398094D02*
X82256247Y-46445713D01*
X82256247Y-46445713D02*
X82113390Y-46445713D01*
X82113390Y-46445713D02*
X81922914Y-46398094D01*
X81922914Y-46398094D02*
X81827676Y-46350475D01*
X81827676Y-46350475D02*
X81732438Y-46255237D01*
X81732438Y-46255237D02*
X81684819Y-46112380D01*
X81684819Y-46112380D02*
X81684819Y-46017142D01*
X81684819Y-46017142D02*
X81732438Y-45874285D01*
X81732438Y-45874285D02*
X81780057Y-45826666D01*
X82018152Y-44969523D02*
X82684819Y-44969523D01*
X81637200Y-45207618D02*
X82351485Y-45445713D01*
X82351485Y-45445713D02*
X82351485Y-44826666D01*
X205612142Y-64694580D02*
X205564523Y-64742200D01*
X205564523Y-64742200D02*
X205421666Y-64789819D01*
X205421666Y-64789819D02*
X205326428Y-64789819D01*
X205326428Y-64789819D02*
X205183571Y-64742200D01*
X205183571Y-64742200D02*
X205088333Y-64646961D01*
X205088333Y-64646961D02*
X205040714Y-64551723D01*
X205040714Y-64551723D02*
X204993095Y-64361247D01*
X204993095Y-64361247D02*
X204993095Y-64218390D01*
X204993095Y-64218390D02*
X205040714Y-64027914D01*
X205040714Y-64027914D02*
X205088333Y-63932676D01*
X205088333Y-63932676D02*
X205183571Y-63837438D01*
X205183571Y-63837438D02*
X205326428Y-63789819D01*
X205326428Y-63789819D02*
X205421666Y-63789819D01*
X205421666Y-63789819D02*
X205564523Y-63837438D01*
X205564523Y-63837438D02*
X205612142Y-63885057D01*
X206564523Y-64789819D02*
X205993095Y-64789819D01*
X206278809Y-64789819D02*
X206278809Y-63789819D01*
X206278809Y-63789819D02*
X206183571Y-63932676D01*
X206183571Y-63932676D02*
X206088333Y-64027914D01*
X206088333Y-64027914D02*
X205993095Y-64075533D01*
X206945476Y-63885057D02*
X206993095Y-63837438D01*
X206993095Y-63837438D02*
X207088333Y-63789819D01*
X207088333Y-63789819D02*
X207326428Y-63789819D01*
X207326428Y-63789819D02*
X207421666Y-63837438D01*
X207421666Y-63837438D02*
X207469285Y-63885057D01*
X207469285Y-63885057D02*
X207516904Y-63980295D01*
X207516904Y-63980295D02*
X207516904Y-64075533D01*
X207516904Y-64075533D02*
X207469285Y-64218390D01*
X207469285Y-64218390D02*
X206897857Y-64789819D01*
X206897857Y-64789819D02*
X207516904Y-64789819D01*
X212779580Y-38934285D02*
X212827200Y-38972381D01*
X212827200Y-38972381D02*
X212874819Y-39086666D01*
X212874819Y-39086666D02*
X212874819Y-39162857D01*
X212874819Y-39162857D02*
X212827200Y-39277143D01*
X212827200Y-39277143D02*
X212731961Y-39353333D01*
X212731961Y-39353333D02*
X212636723Y-39391428D01*
X212636723Y-39391428D02*
X212446247Y-39429524D01*
X212446247Y-39429524D02*
X212303390Y-39429524D01*
X212303390Y-39429524D02*
X212112914Y-39391428D01*
X212112914Y-39391428D02*
X212017676Y-39353333D01*
X212017676Y-39353333D02*
X211922438Y-39277143D01*
X211922438Y-39277143D02*
X211874819Y-39162857D01*
X211874819Y-39162857D02*
X211874819Y-39086666D01*
X211874819Y-39086666D02*
X211922438Y-38972381D01*
X211922438Y-38972381D02*
X211970057Y-38934285D01*
X212874819Y-38172381D02*
X212874819Y-38629524D01*
X212874819Y-38400952D02*
X211874819Y-38400952D01*
X211874819Y-38400952D02*
X212017676Y-38477143D01*
X212017676Y-38477143D02*
X212112914Y-38553333D01*
X212112914Y-38553333D02*
X212160533Y-38629524D01*
X211874819Y-37905714D02*
X211874819Y-37372380D01*
X211874819Y-37372380D02*
X212874819Y-37715238D01*
X63180595Y-50164819D02*
X63180595Y-50974342D01*
X63180595Y-50974342D02*
X63228214Y-51069580D01*
X63228214Y-51069580D02*
X63275833Y-51117200D01*
X63275833Y-51117200D02*
X63371071Y-51164819D01*
X63371071Y-51164819D02*
X63561547Y-51164819D01*
X63561547Y-51164819D02*
X63656785Y-51117200D01*
X63656785Y-51117200D02*
X63704404Y-51069580D01*
X63704404Y-51069580D02*
X63752023Y-50974342D01*
X63752023Y-50974342D02*
X63752023Y-50164819D01*
X64752023Y-51164819D02*
X64180595Y-51164819D01*
X64466309Y-51164819D02*
X64466309Y-50164819D01*
X64466309Y-50164819D02*
X64371071Y-50307676D01*
X64371071Y-50307676D02*
X64275833Y-50402914D01*
X64275833Y-50402914D02*
X64180595Y-50450533D01*
X245614819Y-42614285D02*
X245138628Y-42880952D01*
X245614819Y-43071428D02*
X244614819Y-43071428D01*
X244614819Y-43071428D02*
X244614819Y-42766666D01*
X244614819Y-42766666D02*
X244662438Y-42690476D01*
X244662438Y-42690476D02*
X244710057Y-42652381D01*
X244710057Y-42652381D02*
X244805295Y-42614285D01*
X244805295Y-42614285D02*
X244948152Y-42614285D01*
X244948152Y-42614285D02*
X245043390Y-42652381D01*
X245043390Y-42652381D02*
X245091009Y-42690476D01*
X245091009Y-42690476D02*
X245138628Y-42766666D01*
X245138628Y-42766666D02*
X245138628Y-43071428D01*
X244614819Y-42347619D02*
X244614819Y-41852381D01*
X244614819Y-41852381D02*
X244995771Y-42119047D01*
X244995771Y-42119047D02*
X244995771Y-42004762D01*
X244995771Y-42004762D02*
X245043390Y-41928571D01*
X245043390Y-41928571D02*
X245091009Y-41890476D01*
X245091009Y-41890476D02*
X245186247Y-41852381D01*
X245186247Y-41852381D02*
X245424342Y-41852381D01*
X245424342Y-41852381D02*
X245519580Y-41890476D01*
X245519580Y-41890476D02*
X245567200Y-41928571D01*
X245567200Y-41928571D02*
X245614819Y-42004762D01*
X245614819Y-42004762D02*
X245614819Y-42233333D01*
X245614819Y-42233333D02*
X245567200Y-42309524D01*
X245567200Y-42309524D02*
X245519580Y-42347619D01*
X244614819Y-41585714D02*
X244614819Y-41090476D01*
X244614819Y-41090476D02*
X244995771Y-41357142D01*
X244995771Y-41357142D02*
X244995771Y-41242857D01*
X244995771Y-41242857D02*
X245043390Y-41166666D01*
X245043390Y-41166666D02*
X245091009Y-41128571D01*
X245091009Y-41128571D02*
X245186247Y-41090476D01*
X245186247Y-41090476D02*
X245424342Y-41090476D01*
X245424342Y-41090476D02*
X245519580Y-41128571D01*
X245519580Y-41128571D02*
X245567200Y-41166666D01*
X245567200Y-41166666D02*
X245614819Y-41242857D01*
X245614819Y-41242857D02*
X245614819Y-41471428D01*
X245614819Y-41471428D02*
X245567200Y-41547619D01*
X245567200Y-41547619D02*
X245519580Y-41585714D01*
X247364819Y-42539285D02*
X246888628Y-42805952D01*
X247364819Y-42996428D02*
X246364819Y-42996428D01*
X246364819Y-42996428D02*
X246364819Y-42691666D01*
X246364819Y-42691666D02*
X246412438Y-42615476D01*
X246412438Y-42615476D02*
X246460057Y-42577381D01*
X246460057Y-42577381D02*
X246555295Y-42539285D01*
X246555295Y-42539285D02*
X246698152Y-42539285D01*
X246698152Y-42539285D02*
X246793390Y-42577381D01*
X246793390Y-42577381D02*
X246841009Y-42615476D01*
X246841009Y-42615476D02*
X246888628Y-42691666D01*
X246888628Y-42691666D02*
X246888628Y-42996428D01*
X246364819Y-42272619D02*
X246364819Y-41777381D01*
X246364819Y-41777381D02*
X246745771Y-42044047D01*
X246745771Y-42044047D02*
X246745771Y-41929762D01*
X246745771Y-41929762D02*
X246793390Y-41853571D01*
X246793390Y-41853571D02*
X246841009Y-41815476D01*
X246841009Y-41815476D02*
X246936247Y-41777381D01*
X246936247Y-41777381D02*
X247174342Y-41777381D01*
X247174342Y-41777381D02*
X247269580Y-41815476D01*
X247269580Y-41815476D02*
X247317200Y-41853571D01*
X247317200Y-41853571D02*
X247364819Y-41929762D01*
X247364819Y-41929762D02*
X247364819Y-42158333D01*
X247364819Y-42158333D02*
X247317200Y-42234524D01*
X247317200Y-42234524D02*
X247269580Y-42272619D01*
X247364819Y-41015476D02*
X247364819Y-41472619D01*
X247364819Y-41244047D02*
X246364819Y-41244047D01*
X246364819Y-41244047D02*
X246507676Y-41320238D01*
X246507676Y-41320238D02*
X246602914Y-41396428D01*
X246602914Y-41396428D02*
X246650533Y-41472619D01*
X63264819Y-36573333D02*
X63979104Y-36573333D01*
X63979104Y-36573333D02*
X64121961Y-36620952D01*
X64121961Y-36620952D02*
X64217200Y-36716190D01*
X64217200Y-36716190D02*
X64264819Y-36859047D01*
X64264819Y-36859047D02*
X64264819Y-36954285D01*
X63360057Y-36144761D02*
X63312438Y-36097142D01*
X63312438Y-36097142D02*
X63264819Y-36001904D01*
X63264819Y-36001904D02*
X63264819Y-35763809D01*
X63264819Y-35763809D02*
X63312438Y-35668571D01*
X63312438Y-35668571D02*
X63360057Y-35620952D01*
X63360057Y-35620952D02*
X63455295Y-35573333D01*
X63455295Y-35573333D02*
X63550533Y-35573333D01*
X63550533Y-35573333D02*
X63693390Y-35620952D01*
X63693390Y-35620952D02*
X64264819Y-36192380D01*
X64264819Y-36192380D02*
X64264819Y-35573333D01*
X68682080Y-53376666D02*
X68729700Y-53424285D01*
X68729700Y-53424285D02*
X68777319Y-53567142D01*
X68777319Y-53567142D02*
X68777319Y-53662380D01*
X68777319Y-53662380D02*
X68729700Y-53805237D01*
X68729700Y-53805237D02*
X68634461Y-53900475D01*
X68634461Y-53900475D02*
X68539223Y-53948094D01*
X68539223Y-53948094D02*
X68348747Y-53995713D01*
X68348747Y-53995713D02*
X68205890Y-53995713D01*
X68205890Y-53995713D02*
X68015414Y-53948094D01*
X68015414Y-53948094D02*
X67920176Y-53900475D01*
X67920176Y-53900475D02*
X67824938Y-53805237D01*
X67824938Y-53805237D02*
X67777319Y-53662380D01*
X67777319Y-53662380D02*
X67777319Y-53567142D01*
X67777319Y-53567142D02*
X67824938Y-53424285D01*
X67824938Y-53424285D02*
X67872557Y-53376666D01*
X67777319Y-52471904D02*
X67777319Y-52948094D01*
X67777319Y-52948094D02*
X68253509Y-52995713D01*
X68253509Y-52995713D02*
X68205890Y-52948094D01*
X68205890Y-52948094D02*
X68158271Y-52852856D01*
X68158271Y-52852856D02*
X68158271Y-52614761D01*
X68158271Y-52614761D02*
X68205890Y-52519523D01*
X68205890Y-52519523D02*
X68253509Y-52471904D01*
X68253509Y-52471904D02*
X68348747Y-52424285D01*
X68348747Y-52424285D02*
X68586842Y-52424285D01*
X68586842Y-52424285D02*
X68682080Y-52471904D01*
X68682080Y-52471904D02*
X68729700Y-52519523D01*
X68729700Y-52519523D02*
X68777319Y-52614761D01*
X68777319Y-52614761D02*
X68777319Y-52852856D01*
X68777319Y-52852856D02*
X68729700Y-52948094D01*
X68729700Y-52948094D02*
X68682080Y-52995713D01*
X198339580Y-50490476D02*
X198387200Y-50538095D01*
X198387200Y-50538095D02*
X198434819Y-50680952D01*
X198434819Y-50680952D02*
X198434819Y-50776190D01*
X198434819Y-50776190D02*
X198387200Y-50919047D01*
X198387200Y-50919047D02*
X198291961Y-51014285D01*
X198291961Y-51014285D02*
X198196723Y-51061904D01*
X198196723Y-51061904D02*
X198006247Y-51109523D01*
X198006247Y-51109523D02*
X197863390Y-51109523D01*
X197863390Y-51109523D02*
X197672914Y-51061904D01*
X197672914Y-51061904D02*
X197577676Y-51014285D01*
X197577676Y-51014285D02*
X197482438Y-50919047D01*
X197482438Y-50919047D02*
X197434819Y-50776190D01*
X197434819Y-50776190D02*
X197434819Y-50680952D01*
X197434819Y-50680952D02*
X197482438Y-50538095D01*
X197482438Y-50538095D02*
X197530057Y-50490476D01*
X198434819Y-50061904D02*
X197434819Y-50061904D01*
X197434819Y-50061904D02*
X198434819Y-49490476D01*
X198434819Y-49490476D02*
X197434819Y-49490476D01*
X197530057Y-49061904D02*
X197482438Y-49014285D01*
X197482438Y-49014285D02*
X197434819Y-48919047D01*
X197434819Y-48919047D02*
X197434819Y-48680952D01*
X197434819Y-48680952D02*
X197482438Y-48585714D01*
X197482438Y-48585714D02*
X197530057Y-48538095D01*
X197530057Y-48538095D02*
X197625295Y-48490476D01*
X197625295Y-48490476D02*
X197720533Y-48490476D01*
X197720533Y-48490476D02*
X197863390Y-48538095D01*
X197863390Y-48538095D02*
X198434819Y-49109523D01*
X198434819Y-49109523D02*
X198434819Y-48490476D01*
X93125216Y-36460711D02*
X93029866Y-36413036D01*
X93029866Y-36413036D02*
X92934516Y-36317687D01*
X92934516Y-36317687D02*
X92791491Y-36174662D01*
X92791491Y-36174662D02*
X92696142Y-36126987D01*
X92696142Y-36126987D02*
X92600792Y-36126987D01*
X92648467Y-36365361D02*
X92553117Y-36317687D01*
X92553117Y-36317687D02*
X92457767Y-36222337D01*
X92457767Y-36222337D02*
X92410092Y-36031637D01*
X92410092Y-36031637D02*
X92410092Y-35697913D01*
X92410092Y-35697913D02*
X92457767Y-35507213D01*
X92457767Y-35507213D02*
X92553117Y-35411863D01*
X92553117Y-35411863D02*
X92648467Y-35364188D01*
X92648467Y-35364188D02*
X92839166Y-35364188D01*
X92839166Y-35364188D02*
X92934516Y-35411863D01*
X92934516Y-35411863D02*
X93029866Y-35507213D01*
X93029866Y-35507213D02*
X93077541Y-35697913D01*
X93077541Y-35697913D02*
X93077541Y-36031637D01*
X93077541Y-36031637D02*
X93029866Y-36222337D01*
X93029866Y-36222337D02*
X92934516Y-36317687D01*
X92934516Y-36317687D02*
X92839166Y-36365361D01*
X92839166Y-36365361D02*
X92648467Y-36365361D01*
X93411265Y-35364188D02*
X93649640Y-36365361D01*
X93649640Y-36365361D02*
X93840339Y-35650238D01*
X93840339Y-35650238D02*
X94031039Y-36365361D01*
X94031039Y-36365361D02*
X94269414Y-35364188D01*
X94650813Y-36365361D02*
X94650813Y-35364188D01*
X95127562Y-36365361D02*
X95127562Y-35364188D01*
X96176410Y-36270012D02*
X96128735Y-36317687D01*
X96128735Y-36317687D02*
X95985710Y-36365361D01*
X95985710Y-36365361D02*
X95890360Y-36365361D01*
X95890360Y-36365361D02*
X95747336Y-36317687D01*
X95747336Y-36317687D02*
X95651986Y-36222337D01*
X95651986Y-36222337D02*
X95604311Y-36126987D01*
X95604311Y-36126987D02*
X95556636Y-35936287D01*
X95556636Y-35936287D02*
X95556636Y-35793263D01*
X95556636Y-35793263D02*
X95604311Y-35602563D01*
X95604311Y-35602563D02*
X95651986Y-35507213D01*
X95651986Y-35507213D02*
X95747336Y-35411863D01*
X95747336Y-35411863D02*
X95890360Y-35364188D01*
X95890360Y-35364188D02*
X95985710Y-35364188D01*
X95985710Y-35364188D02*
X96128735Y-35411863D01*
X96128735Y-35411863D02*
X96176410Y-35459538D01*
X97129908Y-36365361D02*
X96557809Y-36365361D01*
X96843859Y-36365361D02*
X96843859Y-35364188D01*
X96843859Y-35364188D02*
X96748509Y-35507213D01*
X96748509Y-35507213D02*
X96653159Y-35602563D01*
X96653159Y-35602563D02*
X96557809Y-35650238D01*
X243338333Y-64764580D02*
X243290714Y-64812200D01*
X243290714Y-64812200D02*
X243147857Y-64859819D01*
X243147857Y-64859819D02*
X243052619Y-64859819D01*
X243052619Y-64859819D02*
X242909762Y-64812200D01*
X242909762Y-64812200D02*
X242814524Y-64716961D01*
X242814524Y-64716961D02*
X242766905Y-64621723D01*
X242766905Y-64621723D02*
X242719286Y-64431247D01*
X242719286Y-64431247D02*
X242719286Y-64288390D01*
X242719286Y-64288390D02*
X242766905Y-64097914D01*
X242766905Y-64097914D02*
X242814524Y-64002676D01*
X242814524Y-64002676D02*
X242909762Y-63907438D01*
X242909762Y-63907438D02*
X243052619Y-63859819D01*
X243052619Y-63859819D02*
X243147857Y-63859819D01*
X243147857Y-63859819D02*
X243290714Y-63907438D01*
X243290714Y-63907438D02*
X243338333Y-63955057D01*
X243909762Y-64288390D02*
X243814524Y-64240771D01*
X243814524Y-64240771D02*
X243766905Y-64193152D01*
X243766905Y-64193152D02*
X243719286Y-64097914D01*
X243719286Y-64097914D02*
X243719286Y-64050295D01*
X243719286Y-64050295D02*
X243766905Y-63955057D01*
X243766905Y-63955057D02*
X243814524Y-63907438D01*
X243814524Y-63907438D02*
X243909762Y-63859819D01*
X243909762Y-63859819D02*
X244100238Y-63859819D01*
X244100238Y-63859819D02*
X244195476Y-63907438D01*
X244195476Y-63907438D02*
X244243095Y-63955057D01*
X244243095Y-63955057D02*
X244290714Y-64050295D01*
X244290714Y-64050295D02*
X244290714Y-64097914D01*
X244290714Y-64097914D02*
X244243095Y-64193152D01*
X244243095Y-64193152D02*
X244195476Y-64240771D01*
X244195476Y-64240771D02*
X244100238Y-64288390D01*
X244100238Y-64288390D02*
X243909762Y-64288390D01*
X243909762Y-64288390D02*
X243814524Y-64336009D01*
X243814524Y-64336009D02*
X243766905Y-64383628D01*
X243766905Y-64383628D02*
X243719286Y-64478866D01*
X243719286Y-64478866D02*
X243719286Y-64669342D01*
X243719286Y-64669342D02*
X243766905Y-64764580D01*
X243766905Y-64764580D02*
X243814524Y-64812200D01*
X243814524Y-64812200D02*
X243909762Y-64859819D01*
X243909762Y-64859819D02*
X244100238Y-64859819D01*
X244100238Y-64859819D02*
X244195476Y-64812200D01*
X244195476Y-64812200D02*
X244243095Y-64764580D01*
X244243095Y-64764580D02*
X244290714Y-64669342D01*
X244290714Y-64669342D02*
X244290714Y-64478866D01*
X244290714Y-64478866D02*
X244243095Y-64383628D01*
X244243095Y-64383628D02*
X244195476Y-64336009D01*
X244195476Y-64336009D02*
X244100238Y-64288390D01*
X189507142Y-44644819D02*
X189173809Y-44168628D01*
X188935714Y-44644819D02*
X188935714Y-43644819D01*
X188935714Y-43644819D02*
X189316666Y-43644819D01*
X189316666Y-43644819D02*
X189411904Y-43692438D01*
X189411904Y-43692438D02*
X189459523Y-43740057D01*
X189459523Y-43740057D02*
X189507142Y-43835295D01*
X189507142Y-43835295D02*
X189507142Y-43978152D01*
X189507142Y-43978152D02*
X189459523Y-44073390D01*
X189459523Y-44073390D02*
X189411904Y-44121009D01*
X189411904Y-44121009D02*
X189316666Y-44168628D01*
X189316666Y-44168628D02*
X188935714Y-44168628D01*
X190459523Y-44644819D02*
X189888095Y-44644819D01*
X190173809Y-44644819D02*
X190173809Y-43644819D01*
X190173809Y-43644819D02*
X190078571Y-43787676D01*
X190078571Y-43787676D02*
X189983333Y-43882914D01*
X189983333Y-43882914D02*
X189888095Y-43930533D01*
X190840476Y-43740057D02*
X190888095Y-43692438D01*
X190888095Y-43692438D02*
X190983333Y-43644819D01*
X190983333Y-43644819D02*
X191221428Y-43644819D01*
X191221428Y-43644819D02*
X191316666Y-43692438D01*
X191316666Y-43692438D02*
X191364285Y-43740057D01*
X191364285Y-43740057D02*
X191411904Y-43835295D01*
X191411904Y-43835295D02*
X191411904Y-43930533D01*
X191411904Y-43930533D02*
X191364285Y-44073390D01*
X191364285Y-44073390D02*
X190792857Y-44644819D01*
X190792857Y-44644819D02*
X191411904Y-44644819D01*
X214439580Y-46926666D02*
X214487200Y-46974285D01*
X214487200Y-46974285D02*
X214534819Y-47117142D01*
X214534819Y-47117142D02*
X214534819Y-47212380D01*
X214534819Y-47212380D02*
X214487200Y-47355237D01*
X214487200Y-47355237D02*
X214391961Y-47450475D01*
X214391961Y-47450475D02*
X214296723Y-47498094D01*
X214296723Y-47498094D02*
X214106247Y-47545713D01*
X214106247Y-47545713D02*
X213963390Y-47545713D01*
X213963390Y-47545713D02*
X213772914Y-47498094D01*
X213772914Y-47498094D02*
X213677676Y-47450475D01*
X213677676Y-47450475D02*
X213582438Y-47355237D01*
X213582438Y-47355237D02*
X213534819Y-47212380D01*
X213534819Y-47212380D02*
X213534819Y-47117142D01*
X213534819Y-47117142D02*
X213582438Y-46974285D01*
X213582438Y-46974285D02*
X213630057Y-46926666D01*
X213534819Y-46593332D02*
X213534819Y-45974285D01*
X213534819Y-45974285D02*
X213915771Y-46307618D01*
X213915771Y-46307618D02*
X213915771Y-46164761D01*
X213915771Y-46164761D02*
X213963390Y-46069523D01*
X213963390Y-46069523D02*
X214011009Y-46021904D01*
X214011009Y-46021904D02*
X214106247Y-45974285D01*
X214106247Y-45974285D02*
X214344342Y-45974285D01*
X214344342Y-45974285D02*
X214439580Y-46021904D01*
X214439580Y-46021904D02*
X214487200Y-46069523D01*
X214487200Y-46069523D02*
X214534819Y-46164761D01*
X214534819Y-46164761D02*
X214534819Y-46450475D01*
X214534819Y-46450475D02*
X214487200Y-46545713D01*
X214487200Y-46545713D02*
X214439580Y-46593332D01*
X227468095Y-46214819D02*
X227468095Y-47024342D01*
X227468095Y-47024342D02*
X227515714Y-47119580D01*
X227515714Y-47119580D02*
X227563333Y-47167200D01*
X227563333Y-47167200D02*
X227658571Y-47214819D01*
X227658571Y-47214819D02*
X227849047Y-47214819D01*
X227849047Y-47214819D02*
X227944285Y-47167200D01*
X227944285Y-47167200D02*
X227991904Y-47119580D01*
X227991904Y-47119580D02*
X228039523Y-47024342D01*
X228039523Y-47024342D02*
X228039523Y-46214819D01*
X228944285Y-46548152D02*
X228944285Y-47214819D01*
X228706190Y-46167200D02*
X228468095Y-46881485D01*
X228468095Y-46881485D02*
X229087142Y-46881485D01*
X220393094Y-36179104D02*
X220869284Y-36179104D01*
X220297856Y-36464819D02*
X220631189Y-35464819D01*
X220631189Y-35464819D02*
X220964522Y-36464819D01*
X221297856Y-35798152D02*
X221297856Y-36464819D01*
X221297856Y-35893390D02*
X221345475Y-35845771D01*
X221345475Y-35845771D02*
X221440713Y-35798152D01*
X221440713Y-35798152D02*
X221583570Y-35798152D01*
X221583570Y-35798152D02*
X221678808Y-35845771D01*
X221678808Y-35845771D02*
X221726427Y-35941009D01*
X221726427Y-35941009D02*
X221726427Y-36464819D01*
X222059761Y-35798152D02*
X222440713Y-35798152D01*
X222202618Y-35464819D02*
X222202618Y-36321961D01*
X222202618Y-36321961D02*
X222250237Y-36417200D01*
X222250237Y-36417200D02*
X222345475Y-36464819D01*
X222345475Y-36464819D02*
X222440713Y-36464819D01*
X223154999Y-36417200D02*
X223059761Y-36464819D01*
X223059761Y-36464819D02*
X222869285Y-36464819D01*
X222869285Y-36464819D02*
X222774047Y-36417200D01*
X222774047Y-36417200D02*
X222726428Y-36321961D01*
X222726428Y-36321961D02*
X222726428Y-35941009D01*
X222726428Y-35941009D02*
X222774047Y-35845771D01*
X222774047Y-35845771D02*
X222869285Y-35798152D01*
X222869285Y-35798152D02*
X223059761Y-35798152D01*
X223059761Y-35798152D02*
X223154999Y-35845771D01*
X223154999Y-35845771D02*
X223202618Y-35941009D01*
X223202618Y-35941009D02*
X223202618Y-36036247D01*
X223202618Y-36036247D02*
X222726428Y-36131485D01*
X223631190Y-35798152D02*
X223631190Y-36464819D01*
X223631190Y-35893390D02*
X223678809Y-35845771D01*
X223678809Y-35845771D02*
X223774047Y-35798152D01*
X223774047Y-35798152D02*
X223916904Y-35798152D01*
X223916904Y-35798152D02*
X224012142Y-35845771D01*
X224012142Y-35845771D02*
X224059761Y-35941009D01*
X224059761Y-35941009D02*
X224059761Y-36464819D01*
X224535952Y-35798152D02*
X224535952Y-36464819D01*
X224535952Y-35893390D02*
X224583571Y-35845771D01*
X224583571Y-35845771D02*
X224678809Y-35798152D01*
X224678809Y-35798152D02*
X224821666Y-35798152D01*
X224821666Y-35798152D02*
X224916904Y-35845771D01*
X224916904Y-35845771D02*
X224964523Y-35941009D01*
X224964523Y-35941009D02*
X224964523Y-36464819D01*
X225869285Y-36464819D02*
X225869285Y-35941009D01*
X225869285Y-35941009D02*
X225821666Y-35845771D01*
X225821666Y-35845771D02*
X225726428Y-35798152D01*
X225726428Y-35798152D02*
X225535952Y-35798152D01*
X225535952Y-35798152D02*
X225440714Y-35845771D01*
X225869285Y-36417200D02*
X225774047Y-36464819D01*
X225774047Y-36464819D02*
X225535952Y-36464819D01*
X225535952Y-36464819D02*
X225440714Y-36417200D01*
X225440714Y-36417200D02*
X225393095Y-36321961D01*
X225393095Y-36321961D02*
X225393095Y-36226723D01*
X225393095Y-36226723D02*
X225440714Y-36131485D01*
X225440714Y-36131485D02*
X225535952Y-36083866D01*
X225535952Y-36083866D02*
X225774047Y-36083866D01*
X225774047Y-36083866D02*
X225869285Y-36036247D01*
X227059762Y-36179104D02*
X227535952Y-36179104D01*
X226964524Y-36464819D02*
X227297857Y-35464819D01*
X227297857Y-35464819D02*
X227631190Y-36464819D01*
X227964524Y-36464819D02*
X227964524Y-35798152D01*
X227964524Y-35988628D02*
X228012143Y-35893390D01*
X228012143Y-35893390D02*
X228059762Y-35845771D01*
X228059762Y-35845771D02*
X228155000Y-35798152D01*
X228155000Y-35798152D02*
X228250238Y-35798152D01*
X228964524Y-36417200D02*
X228869286Y-36464819D01*
X228869286Y-36464819D02*
X228678810Y-36464819D01*
X228678810Y-36464819D02*
X228583572Y-36417200D01*
X228583572Y-36417200D02*
X228535953Y-36321961D01*
X228535953Y-36321961D02*
X228535953Y-35941009D01*
X228535953Y-35941009D02*
X228583572Y-35845771D01*
X228583572Y-35845771D02*
X228678810Y-35798152D01*
X228678810Y-35798152D02*
X228869286Y-35798152D01*
X228869286Y-35798152D02*
X228964524Y-35845771D01*
X228964524Y-35845771D02*
X229012143Y-35941009D01*
X229012143Y-35941009D02*
X229012143Y-36036247D01*
X229012143Y-36036247D02*
X228535953Y-36131485D01*
X229869286Y-36464819D02*
X229869286Y-35941009D01*
X229869286Y-35941009D02*
X229821667Y-35845771D01*
X229821667Y-35845771D02*
X229726429Y-35798152D01*
X229726429Y-35798152D02*
X229535953Y-35798152D01*
X229535953Y-35798152D02*
X229440715Y-35845771D01*
X229869286Y-36417200D02*
X229774048Y-36464819D01*
X229774048Y-36464819D02*
X229535953Y-36464819D01*
X229535953Y-36464819D02*
X229440715Y-36417200D01*
X229440715Y-36417200D02*
X229393096Y-36321961D01*
X229393096Y-36321961D02*
X229393096Y-36226723D01*
X229393096Y-36226723D02*
X229440715Y-36131485D01*
X229440715Y-36131485D02*
X229535953Y-36083866D01*
X229535953Y-36083866D02*
X229774048Y-36083866D01*
X229774048Y-36083866D02*
X229869286Y-36036247D01*
X228032319Y-71846904D02*
X228841842Y-71846904D01*
X228841842Y-71846904D02*
X228937080Y-71799285D01*
X228937080Y-71799285D02*
X228984700Y-71751666D01*
X228984700Y-71751666D02*
X229032319Y-71656428D01*
X229032319Y-71656428D02*
X229032319Y-71465952D01*
X229032319Y-71465952D02*
X228984700Y-71370714D01*
X228984700Y-71370714D02*
X228937080Y-71323095D01*
X228937080Y-71323095D02*
X228841842Y-71275476D01*
X228841842Y-71275476D02*
X228032319Y-71275476D01*
X228460890Y-70656428D02*
X228413271Y-70751666D01*
X228413271Y-70751666D02*
X228365652Y-70799285D01*
X228365652Y-70799285D02*
X228270414Y-70846904D01*
X228270414Y-70846904D02*
X228222795Y-70846904D01*
X228222795Y-70846904D02*
X228127557Y-70799285D01*
X228127557Y-70799285D02*
X228079938Y-70751666D01*
X228079938Y-70751666D02*
X228032319Y-70656428D01*
X228032319Y-70656428D02*
X228032319Y-70465952D01*
X228032319Y-70465952D02*
X228079938Y-70370714D01*
X228079938Y-70370714D02*
X228127557Y-70323095D01*
X228127557Y-70323095D02*
X228222795Y-70275476D01*
X228222795Y-70275476D02*
X228270414Y-70275476D01*
X228270414Y-70275476D02*
X228365652Y-70323095D01*
X228365652Y-70323095D02*
X228413271Y-70370714D01*
X228413271Y-70370714D02*
X228460890Y-70465952D01*
X228460890Y-70465952D02*
X228460890Y-70656428D01*
X228460890Y-70656428D02*
X228508509Y-70751666D01*
X228508509Y-70751666D02*
X228556128Y-70799285D01*
X228556128Y-70799285D02*
X228651366Y-70846904D01*
X228651366Y-70846904D02*
X228841842Y-70846904D01*
X228841842Y-70846904D02*
X228937080Y-70799285D01*
X228937080Y-70799285D02*
X228984700Y-70751666D01*
X228984700Y-70751666D02*
X229032319Y-70656428D01*
X229032319Y-70656428D02*
X229032319Y-70465952D01*
X229032319Y-70465952D02*
X228984700Y-70370714D01*
X228984700Y-70370714D02*
X228937080Y-70323095D01*
X228937080Y-70323095D02*
X228841842Y-70275476D01*
X228841842Y-70275476D02*
X228651366Y-70275476D01*
X228651366Y-70275476D02*
X228556128Y-70323095D01*
X228556128Y-70323095D02*
X228508509Y-70370714D01*
X228508509Y-70370714D02*
X228460890Y-70465952D01*
X212654819Y-46876666D02*
X212178628Y-47209999D01*
X212654819Y-47448094D02*
X211654819Y-47448094D01*
X211654819Y-47448094D02*
X211654819Y-47067142D01*
X211654819Y-47067142D02*
X211702438Y-46971904D01*
X211702438Y-46971904D02*
X211750057Y-46924285D01*
X211750057Y-46924285D02*
X211845295Y-46876666D01*
X211845295Y-46876666D02*
X211988152Y-46876666D01*
X211988152Y-46876666D02*
X212083390Y-46924285D01*
X212083390Y-46924285D02*
X212131009Y-46971904D01*
X212131009Y-46971904D02*
X212178628Y-47067142D01*
X212178628Y-47067142D02*
X212178628Y-47448094D01*
X211988152Y-46019523D02*
X212654819Y-46019523D01*
X211607200Y-46257618D02*
X212321485Y-46495713D01*
X212321485Y-46495713D02*
X212321485Y-45876666D01*
X41974819Y-42428094D02*
X40974819Y-42428094D01*
X40974819Y-42428094D02*
X40974819Y-42189999D01*
X40974819Y-42189999D02*
X41022438Y-42047142D01*
X41022438Y-42047142D02*
X41117676Y-41951904D01*
X41117676Y-41951904D02*
X41212914Y-41904285D01*
X41212914Y-41904285D02*
X41403390Y-41856666D01*
X41403390Y-41856666D02*
X41546247Y-41856666D01*
X41546247Y-41856666D02*
X41736723Y-41904285D01*
X41736723Y-41904285D02*
X41831961Y-41951904D01*
X41831961Y-41951904D02*
X41927200Y-42047142D01*
X41927200Y-42047142D02*
X41974819Y-42189999D01*
X41974819Y-42189999D02*
X41974819Y-42428094D01*
X40974819Y-40999523D02*
X40974819Y-41189999D01*
X40974819Y-41189999D02*
X41022438Y-41285237D01*
X41022438Y-41285237D02*
X41070057Y-41332856D01*
X41070057Y-41332856D02*
X41212914Y-41428094D01*
X41212914Y-41428094D02*
X41403390Y-41475713D01*
X41403390Y-41475713D02*
X41784342Y-41475713D01*
X41784342Y-41475713D02*
X41879580Y-41428094D01*
X41879580Y-41428094D02*
X41927200Y-41380475D01*
X41927200Y-41380475D02*
X41974819Y-41285237D01*
X41974819Y-41285237D02*
X41974819Y-41094761D01*
X41974819Y-41094761D02*
X41927200Y-40999523D01*
X41927200Y-40999523D02*
X41879580Y-40951904D01*
X41879580Y-40951904D02*
X41784342Y-40904285D01*
X41784342Y-40904285D02*
X41546247Y-40904285D01*
X41546247Y-40904285D02*
X41451009Y-40951904D01*
X41451009Y-40951904D02*
X41403390Y-40999523D01*
X41403390Y-40999523D02*
X41355771Y-41094761D01*
X41355771Y-41094761D02*
X41355771Y-41285237D01*
X41355771Y-41285237D02*
X41403390Y-41380475D01*
X41403390Y-41380475D02*
X41451009Y-41428094D01*
X41451009Y-41428094D02*
X41546247Y-41475713D01*
X240734819Y-71846904D02*
X241544342Y-71846904D01*
X241544342Y-71846904D02*
X241639580Y-71799285D01*
X241639580Y-71799285D02*
X241687200Y-71751666D01*
X241687200Y-71751666D02*
X241734819Y-71656428D01*
X241734819Y-71656428D02*
X241734819Y-71465952D01*
X241734819Y-71465952D02*
X241687200Y-71370714D01*
X241687200Y-71370714D02*
X241639580Y-71323095D01*
X241639580Y-71323095D02*
X241544342Y-71275476D01*
X241544342Y-71275476D02*
X240734819Y-71275476D01*
X240734819Y-70894523D02*
X240734819Y-70227857D01*
X240734819Y-70227857D02*
X241734819Y-70656428D01*
X202627319Y-72323094D02*
X203436842Y-72323094D01*
X203436842Y-72323094D02*
X203532080Y-72275475D01*
X203532080Y-72275475D02*
X203579700Y-72227856D01*
X203579700Y-72227856D02*
X203627319Y-72132618D01*
X203627319Y-72132618D02*
X203627319Y-71942142D01*
X203627319Y-71942142D02*
X203579700Y-71846904D01*
X203579700Y-71846904D02*
X203532080Y-71799285D01*
X203532080Y-71799285D02*
X203436842Y-71751666D01*
X203436842Y-71751666D02*
X202627319Y-71751666D01*
X203627319Y-70751666D02*
X203627319Y-71323094D01*
X203627319Y-71037380D02*
X202627319Y-71037380D01*
X202627319Y-71037380D02*
X202770176Y-71132618D01*
X202770176Y-71132618D02*
X202865414Y-71227856D01*
X202865414Y-71227856D02*
X202913033Y-71323094D01*
X202627319Y-70132618D02*
X202627319Y-70037380D01*
X202627319Y-70037380D02*
X202674938Y-69942142D01*
X202674938Y-69942142D02*
X202722557Y-69894523D01*
X202722557Y-69894523D02*
X202817795Y-69846904D01*
X202817795Y-69846904D02*
X203008271Y-69799285D01*
X203008271Y-69799285D02*
X203246366Y-69799285D01*
X203246366Y-69799285D02*
X203436842Y-69846904D01*
X203436842Y-69846904D02*
X203532080Y-69894523D01*
X203532080Y-69894523D02*
X203579700Y-69942142D01*
X203579700Y-69942142D02*
X203627319Y-70037380D01*
X203627319Y-70037380D02*
X203627319Y-70132618D01*
X203627319Y-70132618D02*
X203579700Y-70227856D01*
X203579700Y-70227856D02*
X203532080Y-70275475D01*
X203532080Y-70275475D02*
X203436842Y-70323094D01*
X203436842Y-70323094D02*
X203246366Y-70370713D01*
X203246366Y-70370713D02*
X203008271Y-70370713D01*
X203008271Y-70370713D02*
X202817795Y-70323094D01*
X202817795Y-70323094D02*
X202722557Y-70275475D01*
X202722557Y-70275475D02*
X202674938Y-70227856D01*
X202674938Y-70227856D02*
X202627319Y-70132618D01*
X238614819Y-42539285D02*
X238138628Y-42805952D01*
X238614819Y-42996428D02*
X237614819Y-42996428D01*
X237614819Y-42996428D02*
X237614819Y-42691666D01*
X237614819Y-42691666D02*
X237662438Y-42615476D01*
X237662438Y-42615476D02*
X237710057Y-42577381D01*
X237710057Y-42577381D02*
X237805295Y-42539285D01*
X237805295Y-42539285D02*
X237948152Y-42539285D01*
X237948152Y-42539285D02*
X238043390Y-42577381D01*
X238043390Y-42577381D02*
X238091009Y-42615476D01*
X238091009Y-42615476D02*
X238138628Y-42691666D01*
X238138628Y-42691666D02*
X238138628Y-42996428D01*
X237710057Y-42234524D02*
X237662438Y-42196428D01*
X237662438Y-42196428D02*
X237614819Y-42120238D01*
X237614819Y-42120238D02*
X237614819Y-41929762D01*
X237614819Y-41929762D02*
X237662438Y-41853571D01*
X237662438Y-41853571D02*
X237710057Y-41815476D01*
X237710057Y-41815476D02*
X237805295Y-41777381D01*
X237805295Y-41777381D02*
X237900533Y-41777381D01*
X237900533Y-41777381D02*
X238043390Y-41815476D01*
X238043390Y-41815476D02*
X238614819Y-42272619D01*
X238614819Y-42272619D02*
X238614819Y-41777381D01*
X238043390Y-41320238D02*
X237995771Y-41396428D01*
X237995771Y-41396428D02*
X237948152Y-41434523D01*
X237948152Y-41434523D02*
X237852914Y-41472619D01*
X237852914Y-41472619D02*
X237805295Y-41472619D01*
X237805295Y-41472619D02*
X237710057Y-41434523D01*
X237710057Y-41434523D02*
X237662438Y-41396428D01*
X237662438Y-41396428D02*
X237614819Y-41320238D01*
X237614819Y-41320238D02*
X237614819Y-41167857D01*
X237614819Y-41167857D02*
X237662438Y-41091666D01*
X237662438Y-41091666D02*
X237710057Y-41053571D01*
X237710057Y-41053571D02*
X237805295Y-41015476D01*
X237805295Y-41015476D02*
X237852914Y-41015476D01*
X237852914Y-41015476D02*
X237948152Y-41053571D01*
X237948152Y-41053571D02*
X237995771Y-41091666D01*
X237995771Y-41091666D02*
X238043390Y-41167857D01*
X238043390Y-41167857D02*
X238043390Y-41320238D01*
X238043390Y-41320238D02*
X238091009Y-41396428D01*
X238091009Y-41396428D02*
X238138628Y-41434523D01*
X238138628Y-41434523D02*
X238233866Y-41472619D01*
X238233866Y-41472619D02*
X238424342Y-41472619D01*
X238424342Y-41472619D02*
X238519580Y-41434523D01*
X238519580Y-41434523D02*
X238567200Y-41396428D01*
X238567200Y-41396428D02*
X238614819Y-41320238D01*
X238614819Y-41320238D02*
X238614819Y-41167857D01*
X238614819Y-41167857D02*
X238567200Y-41091666D01*
X238567200Y-41091666D02*
X238519580Y-41053571D01*
X238519580Y-41053571D02*
X238424342Y-41015476D01*
X238424342Y-41015476D02*
X238233866Y-41015476D01*
X238233866Y-41015476D02*
X238138628Y-41053571D01*
X238138628Y-41053571D02*
X238091009Y-41091666D01*
X238091009Y-41091666D02*
X238043390Y-41167857D01*
X208667380Y-40073276D02*
X208667380Y-40591371D01*
X208667380Y-40591371D02*
X208697857Y-40652323D01*
X208697857Y-40652323D02*
X208728333Y-40682800D01*
X208728333Y-40682800D02*
X208789285Y-40713276D01*
X208789285Y-40713276D02*
X208911190Y-40713276D01*
X208911190Y-40713276D02*
X208972142Y-40682800D01*
X208972142Y-40682800D02*
X209002619Y-40652323D01*
X209002619Y-40652323D02*
X209033095Y-40591371D01*
X209033095Y-40591371D02*
X209033095Y-40073276D01*
X209612142Y-40073276D02*
X209490237Y-40073276D01*
X209490237Y-40073276D02*
X209429285Y-40103752D01*
X209429285Y-40103752D02*
X209398809Y-40134228D01*
X209398809Y-40134228D02*
X209337856Y-40225657D01*
X209337856Y-40225657D02*
X209307380Y-40347561D01*
X209307380Y-40347561D02*
X209307380Y-40591371D01*
X209307380Y-40591371D02*
X209337856Y-40652323D01*
X209337856Y-40652323D02*
X209368333Y-40682800D01*
X209368333Y-40682800D02*
X209429285Y-40713276D01*
X209429285Y-40713276D02*
X209551190Y-40713276D01*
X209551190Y-40713276D02*
X209612142Y-40682800D01*
X209612142Y-40682800D02*
X209642618Y-40652323D01*
X209642618Y-40652323D02*
X209673095Y-40591371D01*
X209673095Y-40591371D02*
X209673095Y-40438990D01*
X209673095Y-40438990D02*
X209642618Y-40378038D01*
X209642618Y-40378038D02*
X209612142Y-40347561D01*
X209612142Y-40347561D02*
X209551190Y-40317085D01*
X209551190Y-40317085D02*
X209429285Y-40317085D01*
X209429285Y-40317085D02*
X209368333Y-40347561D01*
X209368333Y-40347561D02*
X209337856Y-40378038D01*
X209337856Y-40378038D02*
X209307380Y-40438990D01*
D14*
%TO.C,BUZ1*%
X28140000Y-46160000D02*
X27470000Y-46830000D01*
X27140000Y-55530000D02*
X27140000Y-55160000D01*
X27140000Y-55160000D02*
X26940000Y-55160000D01*
X26940000Y-55160000D02*
X26640000Y-54870000D01*
X26640000Y-54870000D02*
X26640000Y-50460000D01*
X26640000Y-50460000D02*
X26940000Y-50160000D01*
X26940000Y-50160000D02*
X27140000Y-50160000D01*
X27140000Y-50160000D02*
X27140000Y-49790000D01*
X39140000Y-58490000D02*
X39140000Y-59160000D01*
X39140000Y-59160000D02*
X27140000Y-59160000D01*
X27140000Y-59160000D02*
X27140000Y-58490000D01*
X39140000Y-49790000D02*
X39140000Y-50160000D01*
X39140000Y-50160000D02*
X39340000Y-50160000D01*
X39340000Y-50160000D02*
X39640000Y-50460000D01*
X39640000Y-50460000D02*
X39640000Y-54860000D01*
X39640000Y-54860000D02*
X39340000Y-55160000D01*
X39340000Y-55160000D02*
X39140000Y-55160000D01*
X39140000Y-55160000D02*
X39140000Y-55530000D01*
X38140000Y-46160000D02*
X38810000Y-46830000D01*
X28140000Y-46160000D02*
X38140000Y-46160000D01*
X29840000Y-56340000D02*
X29840000Y-57610000D01*
X29200000Y-56980000D02*
X30470000Y-56980000D01*
X36700000Y-52660000D02*
G75*
G02*
X29580000Y-52660000I-3560000J0D01*
G01*
X29580000Y-52660000D02*
G75*
G02*
X36700000Y-52660000I3560000J0D01*
G01*
D15*
%TO.C,R7*%
X38717742Y-33337500D02*
X39192258Y-33337500D01*
X38717742Y-34382500D02*
X39192258Y-34382500D01*
%TO.C,D1*%
X44463332Y-33165000D02*
X44463332Y-34635000D01*
X44463332Y-34635000D02*
X46748332Y-34635000D01*
X46748332Y-33165000D02*
X44463332Y-33165000D01*
%TO.C,C2*%
X207419420Y-49820000D02*
X207700580Y-49820000D01*
X207419420Y-50840000D02*
X207700580Y-50840000D01*
%TO.C,R3*%
X31294564Y-39550000D02*
X26940436Y-39550000D01*
X31294564Y-42970000D02*
X26940436Y-42970000D01*
%TO.C,C14*%
X207010000Y-39129420D02*
X207010000Y-39410580D01*
X208030000Y-39129420D02*
X208030000Y-39410580D01*
D14*
%TO.C,CN3*%
X43940000Y-51210000D02*
X43940000Y-52160000D01*
X43940000Y-51210000D02*
X48160000Y-51210000D01*
X43940000Y-52160000D02*
X45510000Y-52160000D01*
X43940000Y-58160000D02*
X43940000Y-59110000D01*
X43940000Y-59110000D02*
X48160000Y-59110000D01*
X45510000Y-52160000D02*
X45510000Y-53430000D01*
X45510000Y-54890000D02*
X45510000Y-55430000D01*
X45520000Y-56890000D02*
X45520000Y-58160000D01*
X45520000Y-58160000D02*
X43940000Y-58160000D01*
X51540000Y-52760000D02*
X51540000Y-57560000D01*
%TO.C,CN1*%
X54900000Y-32372500D02*
X54900000Y-33842500D01*
X54900000Y-36302500D02*
X54900000Y-40842500D01*
X54900000Y-43302500D02*
X54900000Y-44572500D01*
X54900000Y-44572500D02*
X60640000Y-44572500D01*
X55400000Y-32372500D02*
X55400000Y-30372500D01*
X60400000Y-30372500D02*
X55400000Y-30372500D01*
X60400000Y-32372500D02*
X60400000Y-30372500D01*
X60900000Y-32372500D02*
X54900000Y-32372500D01*
X60900000Y-32372500D02*
X60900000Y-32842500D01*
X60900000Y-35302500D02*
X60900000Y-36542500D01*
X60900000Y-39002500D02*
X60900000Y-42542500D01*
D15*
%TO.C,C11*%
X219114420Y-65325000D02*
X219395580Y-65325000D01*
X219114420Y-66345000D02*
X219395580Y-66345000D01*
%TO.C,TP4*%
X55700000Y-62140000D02*
G75*
G02*
X52200000Y-62140000I-1750000J0D01*
G01*
X52200000Y-62140000D02*
G75*
G02*
X55700000Y-62140000I1750000J0D01*
G01*
D16*
%TO.C,J1*%
X186560000Y-31370000D02*
X186560000Y-32800000D01*
X186560000Y-36820000D02*
X186560000Y-35140000D01*
X195500000Y-31370000D02*
X186560000Y-31370000D01*
X195500000Y-31370000D02*
X195500000Y-32800000D01*
X195500000Y-36820000D02*
X195500000Y-35140000D01*
D13*
X194330000Y-39970000D02*
G75*
G02*
X194130000Y-39970000I-100000J0D01*
G01*
X194130000Y-39970000D02*
G75*
G02*
X194330000Y-39970000I100000J0D01*
G01*
D15*
%TO.C,C1*%
X35110000Y-41169420D02*
X35110000Y-41450580D01*
X36130000Y-41169420D02*
X36130000Y-41450580D01*
D13*
%TO.C,Q1*%
X204610000Y-41680000D02*
X204610000Y-40880000D01*
X204760000Y-40430000D02*
X206360000Y-40430000D01*
X204760000Y-40530000D02*
X204760000Y-40430000D01*
X206360000Y-40430000D02*
X206360000Y-40530000D01*
X206360000Y-40530000D02*
X204760000Y-40530000D01*
D15*
%TO.C,R30*%
X241137500Y-44952258D02*
X241137500Y-44477742D01*
X242182500Y-44952258D02*
X242182500Y-44477742D01*
%TO.C,R10*%
X193647258Y-42157500D02*
X193172742Y-42157500D01*
X193647258Y-43202500D02*
X193172742Y-43202500D01*
D11*
%TO.C,D7*%
X200220000Y-40390000D02*
X200220000Y-40600000D01*
X200220000Y-41850000D02*
X200220000Y-41650000D01*
X201570000Y-41850000D02*
X201570000Y-40390000D01*
X201980000Y-40390000D02*
X200220000Y-40390000D01*
X201980000Y-41850000D02*
X200220000Y-41850000D01*
D15*
%TO.C,D4*%
X245110000Y-34605000D02*
X247395000Y-34605000D01*
X247395000Y-33135000D02*
X245110000Y-33135000D01*
X247395000Y-34605000D02*
X247395000Y-33135000D01*
%TO.C,C13*%
X192614420Y-65325000D02*
X192895580Y-65325000D01*
X192614420Y-66345000D02*
X192895580Y-66345000D01*
%TO.C,R11*%
X244637500Y-36597258D02*
X244637500Y-36122742D01*
X245682500Y-36597258D02*
X245682500Y-36122742D01*
D14*
%TO.C,SW2*%
X207590000Y-32710000D02*
X212190000Y-32710000D01*
X207590000Y-32850000D02*
X207590000Y-32710000D01*
X208890000Y-31510000D02*
X208890000Y-32710000D01*
X208890000Y-31510000D02*
X210890000Y-31510000D01*
X209000000Y-35010000D02*
X210780000Y-35010000D01*
X210890000Y-31510000D02*
X210890000Y-32710000D01*
X212190000Y-32710000D02*
X212190000Y-32850000D01*
D15*
%TO.C,R29*%
X239387500Y-44952258D02*
X239387500Y-44477742D01*
X240432500Y-44952258D02*
X240432500Y-44477742D01*
%TO.C,C15*%
X60532500Y-53069420D02*
X60532500Y-53350580D01*
X61552500Y-53069420D02*
X61552500Y-53350580D01*
%TO.C,U11*%
X191310000Y-71085000D02*
X191310000Y-69135000D01*
X191310000Y-71085000D02*
X191310000Y-73035000D01*
X201430000Y-71085000D02*
X201430000Y-69135000D01*
X201430000Y-71085000D02*
X201430000Y-73035000D01*
X191365000Y-73785000D02*
X191035000Y-74025000D01*
X191035000Y-73545000D01*
X191365000Y-73785000D01*
G36*
X191365000Y-73785000D02*
G01*
X191035000Y-74025000D01*
X191035000Y-73545000D01*
X191365000Y-73785000D01*
G37*
%TO.C,S1*%
D12*
X100930000Y-23590000D02*
X178330000Y-23590000D01*
X178330000Y-77590000D01*
X100930000Y-77590000D01*
X100930000Y-23590000D01*
D15*
%TO.C,D3*%
X41611666Y-34635000D02*
X43896666Y-34635000D01*
X43896666Y-33165000D02*
X41611666Y-33165000D01*
X43896666Y-34635000D02*
X43896666Y-33165000D01*
%TO.C,R1*%
X49642258Y-33337500D02*
X49167742Y-33337500D01*
X49642258Y-34382500D02*
X49167742Y-34382500D01*
%TO.C,C16*%
X213420000Y-41100580D02*
X213420000Y-40819420D01*
X214440000Y-41100580D02*
X214440000Y-40819420D01*
%TO.C,R5*%
X207777258Y-48017500D02*
X207302742Y-48017500D01*
X207777258Y-49062500D02*
X207302742Y-49062500D01*
D14*
%TO.C,SW1*%
X198340000Y-34145000D02*
X198340000Y-35065000D01*
X198440000Y-33255000D02*
X204840000Y-33255000D01*
X200050000Y-35955000D02*
X200230000Y-35955000D01*
X200340000Y-31255000D02*
X201640000Y-31255000D01*
X200340000Y-33255000D02*
X200340000Y-31255000D01*
X201550000Y-35955000D02*
X203230000Y-35955000D01*
X201640000Y-31255000D02*
X201640000Y-33255000D01*
X204940000Y-34145000D02*
X204940000Y-35065000D01*
%TO.C,Card1*%
X240530000Y-50150000D02*
X240530000Y-49080000D01*
X240530000Y-62780000D02*
X240530000Y-61410000D01*
X246800000Y-49080000D02*
X240530000Y-49080000D01*
X246800000Y-62780000D02*
X240530000Y-62780000D01*
X252130000Y-49080000D02*
X248860000Y-49080000D01*
X252130000Y-51510000D02*
X252130000Y-49080000D01*
X252130000Y-60310000D02*
X252130000Y-62780000D01*
X252130000Y-62780000D02*
X248860000Y-62780000D01*
X252129194Y-60308657D02*
G75*
G02*
X252130000Y-51510000I7330806J4398657D01*
G01*
D15*
%TO.C,Q2*%
X39735000Y-61860000D02*
X38435000Y-61860000D01*
X39735000Y-63660000D02*
X38435000Y-63660000D01*
D11*
X37910000Y-62250000D02*
G75*
G02*
X37760000Y-62250000I-75000J0D01*
G01*
X37760000Y-62250000D02*
G75*
G02*
X37910000Y-62250000I75000J0D01*
G01*
D14*
%TO.C,SW4*%
X238250000Y-32730000D02*
X242850000Y-32730000D01*
X238250000Y-32870000D02*
X238250000Y-32730000D01*
X239550000Y-31530000D02*
X239550000Y-32730000D01*
X239550000Y-31530000D02*
X241550000Y-31530000D01*
X239660000Y-35030000D02*
X241440000Y-35030000D01*
X241550000Y-31530000D02*
X241550000Y-32730000D01*
X242850000Y-32730000D02*
X242850000Y-32870000D01*
D15*
%TO.C,U9*%
X216715000Y-71085000D02*
X216715000Y-69135000D01*
X216715000Y-71085000D02*
X216715000Y-73035000D01*
X226835000Y-71085000D02*
X226835000Y-69135000D01*
X226835000Y-71085000D02*
X226835000Y-73035000D01*
X216770000Y-73785000D02*
X216440000Y-74025000D01*
X216440000Y-73545000D01*
X216770000Y-73785000D01*
G36*
X216770000Y-73785000D02*
G01*
X216440000Y-74025000D01*
X216440000Y-73545000D01*
X216770000Y-73785000D01*
G37*
%TO.C,R2*%
X195357500Y-43932742D02*
X195357500Y-44407258D01*
X196402500Y-43932742D02*
X196402500Y-44407258D01*
D16*
%TO.C,QWIIC2*%
X250030000Y-40580000D02*
X252305000Y-40580000D01*
X250030000Y-41380000D02*
X250030000Y-40580000D01*
X250030000Y-45780000D02*
X250030000Y-46580000D01*
X250030000Y-46580000D02*
X252305000Y-46580000D01*
X254280000Y-45380000D02*
X254280000Y-41780000D01*
D17*
X249420000Y-46030000D02*
G75*
G02*
X249220000Y-46030000I-100000J0D01*
G01*
X249220000Y-46030000D02*
G75*
G02*
X249420000Y-46030000I100000J0D01*
G01*
D15*
%TO.C,TP1*%
X74090000Y-50030000D02*
G75*
G02*
X70590000Y-50030000I-1750000J0D01*
G01*
X70590000Y-50030000D02*
G75*
G02*
X74090000Y-50030000I1750000J0D01*
G01*
D14*
%TO.C,U3*%
X86827500Y-41880000D02*
X86827500Y-44980000D01*
X86827500Y-55040000D02*
X86827500Y-58010000D01*
X86927500Y-41880000D02*
X86827500Y-41880000D01*
X89887500Y-58140000D02*
X90707500Y-58140000D01*
X90887500Y-41460000D02*
X90887500Y-41880000D01*
X90887500Y-41880000D02*
X89887500Y-41880000D01*
X90887500Y-58560000D02*
X90887500Y-41750000D01*
X90887500Y-58560000D02*
X92287500Y-58560000D01*
X92287500Y-41460000D02*
X90887500Y-41460000D01*
X92287500Y-41460000D02*
X92287500Y-58560000D01*
X86177500Y-44700000D02*
G75*
G02*
X85917500Y-44700000I-130000J0D01*
G01*
X85917500Y-44700000D02*
G75*
G02*
X86177500Y-44700000I130000J0D01*
G01*
D15*
%TO.C,R6*%
X63580242Y-55537500D02*
X64054758Y-55537500D01*
X63580242Y-56582500D02*
X64054758Y-56582500D01*
%TO.C,R32*%
X242887500Y-44952258D02*
X242887500Y-44477742D01*
X243932500Y-44952258D02*
X243932500Y-44477742D01*
%TO.C,C10*%
X231364420Y-65325000D02*
X231645580Y-65325000D01*
X231364420Y-66345000D02*
X231645580Y-66345000D01*
%TO.C,R14*%
X35707500Y-62772742D02*
X35707500Y-63247258D01*
X36752500Y-62772742D02*
X36752500Y-63247258D01*
%TO.C,C4*%
X83150000Y-45800580D02*
X83150000Y-45519420D01*
X84170000Y-45800580D02*
X84170000Y-45519420D01*
%TO.C,C12*%
X206364420Y-65325000D02*
X206645580Y-65325000D01*
X206364420Y-66345000D02*
X206645580Y-66345000D01*
%TO.C,C17*%
X211770000Y-41075580D02*
X211770000Y-40794420D01*
X212790000Y-41075580D02*
X212790000Y-40794420D01*
%TO.C,U1*%
X63992500Y-51550000D02*
X63192500Y-51550000D01*
X63992500Y-51550000D02*
X64792500Y-51550000D01*
X63992500Y-54670000D02*
X63192500Y-54670000D01*
X63992500Y-54670000D02*
X64792500Y-54670000D01*
X65532500Y-54950000D02*
X65052500Y-54950000D01*
X65292500Y-54620000D01*
X65532500Y-54950000D01*
G36*
X65532500Y-54950000D02*
G01*
X65052500Y-54950000D01*
X65292500Y-54620000D01*
X65532500Y-54950000D01*
G37*
%TO.C,R33*%
X244637500Y-44952258D02*
X244637500Y-44477742D01*
X245682500Y-44952258D02*
X245682500Y-44477742D01*
%TO.C,R31*%
X246387500Y-44952258D02*
X246387500Y-44477742D01*
X247432500Y-44952258D02*
X247432500Y-44477742D01*
%TO.C,J2*%
X65250000Y-33640000D02*
X66580000Y-33640000D01*
X65250000Y-34970000D02*
X65250000Y-33640000D01*
X65250000Y-36240000D02*
X67850000Y-36240000D01*
X65250000Y-38840000D02*
X65250000Y-36240000D01*
X65250000Y-38840000D02*
X88230000Y-38840000D01*
X67850000Y-33640000D02*
X88230000Y-33640000D01*
X67850000Y-36240000D02*
X67850000Y-33640000D01*
X88230000Y-38840000D02*
X88230000Y-33640000D01*
%TO.C,C5*%
X66382500Y-53069420D02*
X66382500Y-53350580D01*
X67402500Y-53069420D02*
X67402500Y-53350580D01*
D14*
%TO.C,CN2*%
X198940000Y-42670000D02*
X198940000Y-57350000D01*
X198940000Y-57350000D02*
X200220000Y-57350000D01*
X200220000Y-42670000D02*
X198940000Y-42670000D01*
X204530000Y-42670000D02*
X203880000Y-42670000D01*
X204530000Y-45380000D02*
X204530000Y-42670000D01*
X204530000Y-54640000D02*
X204530000Y-57350000D01*
X204530000Y-57350000D02*
X203880000Y-57350000D01*
X205130000Y-54760000D02*
G75*
G02*
X204870000Y-54760000I-130000J0D01*
G01*
X204870000Y-54760000D02*
G75*
G02*
X205130000Y-54760000I130000J0D01*
G01*
D16*
%TO.C,QWIIC1*%
X91820000Y-37535000D02*
X91820000Y-35260000D01*
X92620000Y-37535000D02*
X91820000Y-37535000D01*
X96620000Y-33285000D02*
X93020000Y-33285000D01*
X97020000Y-37535000D02*
X97820000Y-37535000D01*
X97820000Y-37535000D02*
X97820000Y-35260000D01*
D17*
X97370000Y-38245000D02*
G75*
G02*
X97170000Y-38245000I-100000J0D01*
G01*
X97170000Y-38245000D02*
G75*
G02*
X97370000Y-38245000I100000J0D01*
G01*
D15*
%TO.C,TP2*%
X47180000Y-46550000D02*
G75*
G02*
X43680000Y-46550000I-1750000J0D01*
G01*
X43680000Y-46550000D02*
G75*
G02*
X47180000Y-46550000I1750000J0D01*
G01*
%TO.C,C8*%
X243364420Y-65325000D02*
X243645580Y-65325000D01*
X243364420Y-66345000D02*
X243645580Y-66345000D01*
%TO.C,R12*%
X189992742Y-42157500D02*
X190467258Y-42157500D01*
X189992742Y-43202500D02*
X190467258Y-43202500D01*
%TO.C,C3*%
X213420000Y-44119420D02*
X213420000Y-44400580D01*
X214440000Y-44119420D02*
X214440000Y-44400580D01*
%TO.C,U4*%
X216155000Y-33010000D02*
X216155000Y-39760000D01*
X216155000Y-33010000D02*
X234155000Y-33010000D01*
X216155000Y-57760000D02*
X216155000Y-58510000D01*
X216155000Y-58510000D02*
X217155000Y-58510000D01*
X234155000Y-33010000D02*
X234155000Y-39760000D01*
X234155000Y-38950000D02*
X216155000Y-38950000D01*
X234155000Y-57760000D02*
X234155000Y-58510000D01*
X234155000Y-58510000D02*
X233155000Y-58510000D01*
%TO.C,U8*%
X229417500Y-71085000D02*
X229417500Y-69135000D01*
X229417500Y-71085000D02*
X229417500Y-73035000D01*
X239537500Y-71085000D02*
X239537500Y-69135000D01*
X239537500Y-71085000D02*
X239537500Y-73035000D01*
X229472500Y-73785000D02*
X229142500Y-74025000D01*
X229142500Y-73545000D01*
X229472500Y-73785000D01*
G36*
X229472500Y-73785000D02*
G01*
X229142500Y-74025000D01*
X229142500Y-73545000D01*
X229472500Y-73785000D01*
G37*
%TO.C,TP3*%
X58000000Y-49480000D02*
G75*
G02*
X54500000Y-49480000I-1750000J0D01*
G01*
X54500000Y-49480000D02*
G75*
G02*
X58000000Y-49480000I1750000J0D01*
G01*
%TO.C,R4*%
X211757500Y-44022742D02*
X211757500Y-44497258D01*
X212802500Y-44022742D02*
X212802500Y-44497258D01*
D11*
%TO.C,D6*%
X39020000Y-40890000D02*
X39020000Y-42650000D01*
X39020000Y-42650000D02*
X39230000Y-42650000D01*
X40480000Y-40890000D02*
X40480000Y-42650000D01*
X40480000Y-41300000D02*
X39020000Y-41300000D01*
X40480000Y-42650000D02*
X40280000Y-42650000D01*
D15*
%TO.C,U7*%
X242120000Y-71085000D02*
X242120000Y-69135000D01*
X242120000Y-71085000D02*
X242120000Y-73035000D01*
X252240000Y-71085000D02*
X252240000Y-69135000D01*
X252240000Y-71085000D02*
X252240000Y-73035000D01*
X242175000Y-73785000D02*
X241845000Y-74025000D01*
X241845000Y-73545000D01*
X242175000Y-73785000D01*
G36*
X242175000Y-73785000D02*
G01*
X241845000Y-74025000D01*
X241845000Y-73545000D01*
X242175000Y-73785000D01*
G37*
%TO.C,U10*%
X204012500Y-71085000D02*
X204012500Y-69135000D01*
X204012500Y-71085000D02*
X204012500Y-73035000D01*
X214132500Y-71085000D02*
X214132500Y-69135000D01*
X214132500Y-71085000D02*
X214132500Y-73035000D01*
X204067500Y-73785000D02*
X203737500Y-74025000D01*
X203737500Y-73545000D01*
X204067500Y-73785000D01*
G36*
X204067500Y-73785000D02*
G01*
X203737500Y-74025000D01*
X203737500Y-73545000D01*
X204067500Y-73785000D01*
G37*
%TO.C,R28*%
X237637500Y-44952258D02*
X237637500Y-44477742D01*
X238682500Y-44952258D02*
X238682500Y-44477742D01*
D13*
%TO.C,U6*%
X210605000Y-39325000D02*
G75*
G02*
X210405000Y-39325000I-100000J0D01*
G01*
X210405000Y-39325000D02*
G75*
G02*
X210605000Y-39325000I100000J0D01*
G01*
%TD*%
M02*
