M48
; DRILL file {KiCad 8.0.3} date 2024-08-27T21:26:46+0100
; FORMAT={-:-/ absolute / inch / decimal}
; #@! TF.CreationDate,2024-08-27T21:26:46+01:00
; #@! TF.GenerationSoftware,Kicad,Pcbnew,8.0.3
; #@! TF.FileFunction,Plated,1,4,PTH
FMAT,2
INCH
; #@! TA.AperFunction,Plated,PTH,ViaDrill
T1C0.0118
; #@! TA.AperFunction,Plated,PTH,ComponentDrill
T2C0.0236
; #@! TA.AperFunction,Plated,PTH,ComponentDrill
T3C0.0276
; #@! TA.AperFunction,Plated,PTH,ComponentDrill
T4C0.0335
; #@! TA.AperFunction,Plated,PTH,ComponentDrill
T5C0.0394
; #@! TA.AperFunction,Plated,PTH,ComponentDrill
T6C0.0433
; #@! TA.AperFunction,Plated,PTH,ComponentDrill
T7C0.0630
%
G90
G05
T1
X1.0Y-2.3
X1.0063Y-1.3268
X1.0063Y-2.4268
X1.0063Y-2.5268
X1.0063Y-2.6268
X1.0063Y-2.7268
X1.0063Y-2.8268
X1.0063Y-2.9268
X1.0063Y-3.0268
X1.07Y-2.06
X1.0701Y-3.2327
X1.09Y-1.97
X1.1Y-1.7
X1.1Y-2.3
X1.1063Y-1.3268
X1.1063Y-1.5268
X1.1063Y-1.6
X1.1063Y-2.1268
X1.1063Y-2.4268
X1.1063Y-2.5268
X1.1063Y-2.6268
X1.1063Y-3.0268
X1.1126Y-2.7579
X1.1126Y-2.8579
X1.1665Y-5.711
X1.1685Y-4.5201
X1.1882Y-6.5969
X1.2063Y-1.3268
X1.2063Y-1.4268
X1.2063Y-1.9268
X1.2063Y-2.1268
X1.2063Y-2.2268
X1.2063Y-2.4268
X1.2063Y-2.5268
X1.2063Y-2.6268
X1.2063Y-3.0268
X1.2071Y-1.7953
X1.21Y-2.0
X1.2126Y-2.7579
X1.2126Y-2.8579
X1.285Y-1.3283
X1.2925Y-1.4394
X1.3063Y-2.0268
X1.3063Y-2.1268
X1.3063Y-2.4268
X1.3063Y-2.5268
X1.3063Y-2.6268
X1.3063Y-3.0268
X1.3075Y-1.9031
X1.3087Y-1.7953
X1.3445Y-2.8811
X1.3457Y-2.7476
X1.4063Y-1.5268
X1.4063Y-1.9268
X1.4063Y-2.0268
X1.4063Y-2.1268
X1.4063Y-2.6268
X1.4063Y-3.0268
X1.4067Y-1.7949
X1.444Y-1.3559
X1.4697Y-5.2071
X1.485Y-5.8047
X1.5063Y-2.1268
X1.5063Y-2.6268
X1.5063Y-3.0268
X1.572Y-2.7618
X1.58Y-2.53
X1.6Y-2.0
X1.6063Y-2.6268
X1.6063Y-2.9268
X1.6063Y-3.0268
X1.6374Y-3.2083
X1.64Y-1.56
X1.6626Y-3.4157
X1.67Y-1.95
X1.6717Y-2.2976
X1.68Y-2.46
X1.7063Y-2.5268
X1.7063Y-2.6268
X1.7063Y-2.7268
X1.7063Y-2.9268
X1.7063Y-3.0268
X1.7276Y-1.3626
X1.7961Y-4.1791
X1.8063Y-2.4268
X1.8063Y-2.5268
X1.8063Y-2.6268
X1.8063Y-2.8268
X1.8063Y-3.0268
X1.8083Y-1.363
X1.8311Y-2.1327
X1.8445Y-2.3043
X1.8972Y-2.7445
X1.8972Y-2.8764
X1.9063Y-2.4268
X1.9063Y-2.5268
X1.9063Y-2.6268
X1.9063Y-3.0268
X2.0063Y-1.3268
X2.0063Y-2.1268
X2.0063Y-2.4268
X2.0063Y-2.5268
X2.0063Y-2.6268
X2.0063Y-2.7268
X2.0063Y-2.8268
X2.0063Y-2.9268
X2.0551Y-6.6783
X2.0559Y-5.7882
X2.0681Y-1.7417
X2.1063Y-1.5268
X2.1063Y-2.0268
X2.1063Y-2.1268
X2.1063Y-2.3268
X2.1063Y-2.6268
X2.1063Y-2.7268
X2.1165Y-2.848
X2.1547Y-4.1244
X2.1921Y-1.8571
X2.2063Y-2.1268
X2.2063Y-2.3268
X2.2063Y-2.6268
X2.2063Y-2.7268
X2.2122Y-1.3799
X2.2386Y-5.0276
X2.2591Y-3.2406
X2.2799Y-1.7945
X2.3043Y-2.8146
X2.3063Y-2.3268
X2.3063Y-2.4268
X2.3063Y-2.5268
X2.3063Y-2.6268
X2.337Y-1.5524
X2.3457Y-1.3425
X2.3933Y-1.8213
X2.3941Y-1.9244
X2.4063Y-2.4268
X2.4063Y-2.5268
X2.4063Y-3.0268
X2.4323Y-2.1776
X2.4504Y-3.4044
X2.4567Y-5.8083
X2.4598Y-4.1303
X2.4634Y-1.4177
X2.4634Y-1.9866
X2.5063Y-2.4268
X2.5063Y-3.0268
X2.5142Y-1.6299
X2.5204Y-2.1283
X2.5252Y-1.5114
X2.5378Y-2.852
X2.5665Y-1.7594
X2.5681Y-1.9429
X2.5846Y-2.9465
X2.6063Y-2.4268
X2.6063Y-3.0268
X2.6236Y-1.8661
X2.6311Y-2.2035
X2.6382Y-4.176
X2.6819Y-2.8386
X2.7031Y-2.6732
X2.7063Y-2.4268
X2.7063Y-3.0268
X2.7213Y-1.8429
X2.724Y-2.2291
X2.7413Y-6.6713
X2.8063Y-1.7268
X2.8063Y-2.3268
X2.8063Y-2.4268
X2.8063Y-2.7268
X2.8063Y-2.8268
X2.8063Y-2.9268
X2.8429Y-5.7902
X2.8535Y-4.0063
X2.9063Y-2.3268
X2.9063Y-2.4268
X2.9063Y-2.7268
X2.9087Y-2.1913
X2.9161Y-2.839
X2.9248Y-1.9118
X2.9953Y-5.0067
X3.0063Y-2.0268
X3.0063Y-2.3268
X3.0063Y-2.4268
X3.0063Y-2.7268
X3.0461Y-3.2307
X3.1063Y-2.0268
X3.1063Y-2.3268
X3.1063Y-2.4268
X3.2063Y-2.1268
X3.2063Y-2.3268
X3.2063Y-2.4268
X3.2433Y-4.1244
X3.2445Y-5.6909
X3.2898Y-5.8114
X3.3063Y-2.3268
X3.3063Y-2.4268
X3.3063Y-3.0268
X3.3441Y-1.5568
X3.3508Y-3.4453
X3.4063Y-2.3268
X3.4063Y-2.4268
X3.4063Y-2.9268
X3.4063Y-3.0268
X3.4606Y-4.1752
X3.4976Y-2.8169
X3.5063Y-1.9268
X3.5063Y-2.3268
X3.5063Y-2.4268
X3.5063Y-3.0268
X3.6063Y-1.9268
X3.6063Y-2.3268
X3.6063Y-2.4268
X3.6063Y-2.7268
X3.6063Y-2.8268
X3.6063Y-3.0268
X3.6409Y-1.5236
X3.7063Y-1.3268
X3.7063Y-2.3268
X3.7063Y-2.4268
X3.7063Y-2.8268
X3.7063Y-2.9268
X3.7283Y-5.7902
X3.8063Y-2.3268
X3.8063Y-2.4268
X3.8232Y-6.6701
X3.8256Y-1.4591
X3.85Y-2.86
X3.8638Y-5.0264
X3.88Y-2.72
X3.9063Y-2.3268
X3.9063Y-2.4268
X3.913Y-1.5157
X3.9327Y-3.2256
X3.976Y-2.7256
X3.9811Y-1.8469
X3.9933Y-4.1035
X4.0063Y-1.3268
X4.0063Y-1.6268
X4.0063Y-1.8232
X4.0063Y-2.3268
X4.0063Y-2.4268
X4.0366Y-5.6953
X4.0673Y-5.8067
X4.0937Y-3.4059
X4.1063Y-1.3268
X4.1063Y-1.7268
X4.1063Y-2.4268
X4.1654Y-2.1913
X4.2063Y-1.3268
X4.2063Y-1.5268
X4.2063Y-1.9268
X4.2063Y-2.4268
X4.2063Y-3.0268
X4.2555Y-4.1791
X4.3063Y-1.3268
X4.3063Y-1.5268
X4.3063Y-1.9268
X4.3063Y-2.4268
X4.3063Y-2.9268
X4.3063Y-3.0268
X4.4063Y-1.3268
X4.4063Y-1.5268
X4.4063Y-1.9268
X4.4063Y-2.4268
X4.4063Y-2.8268
X4.4063Y-2.9268
X4.5063Y-1.3268
X4.5063Y-1.5268
X4.5063Y-1.9268
X4.5063Y-2.4268
X4.5063Y-2.8268
X4.5154Y-3.2339
X4.5976Y-5.7898
X4.6063Y-1.3268
X4.6063Y-1.5268
X4.6063Y-1.9268
X4.6063Y-2.4268
X4.7004Y-5.0346
X4.7063Y-1.3268
X4.7063Y-1.5268
X4.7063Y-1.9268
X4.7063Y-2.4268
X4.8063Y-1.3268
X4.8063Y-1.5268
X4.8063Y-1.9268
X4.8063Y-2.4268
X4.8063Y-3.0268
X4.8075Y-6.6756
X4.9063Y-1.3268
X4.9063Y-1.5268
X4.9063Y-1.9268
X4.9063Y-2.4268
X4.9063Y-2.9268
X4.9063Y-3.0268
X4.9106Y-3.3961
X4.9306Y-5.8088
X5.0063Y-1.3268
X5.0063Y-1.5268
X5.0063Y-1.9268
X5.0063Y-2.4268
X5.0063Y-2.9268
X5.0063Y-3.0268
X5.05Y-2.85
X5.0996Y-4.0161
X5.1063Y-1.3268
X5.1063Y-1.5268
X5.1063Y-1.9268
X5.1063Y-2.4268
X5.1063Y-2.9268
X5.1063Y-3.0268
X5.2063Y-1.3268
X5.2063Y-1.5268
X5.2063Y-1.9268
X5.2063Y-2.4268
X5.2063Y-2.9268
X5.2417Y-4.1941
X5.3063Y-1.3268
X5.3063Y-1.5268
X5.3063Y-1.9268
X5.3063Y-2.4268
X5.311Y-5.7567
X5.4Y-2.98
X5.4063Y-1.3268
X5.4063Y-1.5268
X5.4063Y-1.9268
X5.4063Y-2.4268
X5.4598Y-5.0073
X5.47Y-2.85
X5.5063Y-1.3268
X5.5063Y-1.5268
X5.5063Y-1.9268
X5.5063Y-2.4268
X5.5848Y-5.839
X5.5961Y-3.2398
X5.6063Y-1.3268
X5.6063Y-1.5268
X5.6063Y-1.9268
X5.6063Y-2.4268
X5.6063Y-3.0268
X5.702Y-4.9118
X5.7063Y-1.3268
X5.7063Y-1.5268
X5.7063Y-1.9268
X5.7063Y-2.4268
X5.7063Y-3.0268
X5.7079Y-5.5909
X5.7433Y-3.4325
X5.7949Y-6.685
X5.8063Y-1.3268
X5.8063Y-1.5268
X5.8063Y-1.9268
X5.8063Y-2.4268
X5.8063Y-3.0268
X5.9063Y-1.3268
X5.9063Y-1.5268
X5.9063Y-1.9268
X5.9063Y-2.4268
X5.9063Y-3.0268
X5.9677Y-4.1799
X6.0Y-2.92
X6.0063Y-1.3268
X6.0063Y-1.5268
X6.0063Y-1.9268
X6.0063Y-2.4268
X6.0063Y-3.0268
X6.09Y-2.84
X6.1063Y-1.3268
X6.1063Y-1.5268
X6.1063Y-1.9268
X6.1063Y-2.4268
X6.1882Y-5.7957
X6.2063Y-1.3268
X6.2063Y-1.5268
X6.2063Y-1.9268
X6.2063Y-2.4268
X6.2319Y-4.9972
X6.3063Y-1.3268
X6.3063Y-1.5268
X6.3063Y-1.9268
X6.3063Y-2.4268
X6.4063Y-1.3268
X6.4063Y-1.5268
X6.4063Y-1.9268
X6.4063Y-2.4268
X6.5063Y-1.3268
X6.5063Y-1.5268
X6.5063Y-2.4268
X6.5276Y-3.2315
X6.5488Y-5.8051
X6.55Y-2.178
X6.5661Y-3.4423
X6.58Y-2.85
X6.6063Y-1.3268
X6.6063Y-1.5268
X6.6063Y-2.4268
X6.7063Y-1.3268
X6.7063Y-1.5268
X6.7063Y-2.4268
X6.7087Y-2.1815
X6.785Y-4.1768
X6.8063Y-1.3268
X6.8063Y-1.5268
X6.8063Y-1.9268
X6.8063Y-2.4268
X6.83Y-2.93
X6.9024Y-2.178
X6.9063Y-1.3268
X6.9063Y-1.9268
X6.9063Y-2.4268
X6.9815Y-5.7898
X6.9815Y-6.6657
X6.9894Y-1.9417
X7.0224Y-2.4413
X7.0236Y-1.3488
X7.05Y-2.85
X7.057Y-4.9901
X7.0693Y-1.4323
X7.1063Y-1.3268
X7.1063Y-1.9268
X7.1063Y-2.4268
X7.1209Y-2.1811
X7.1535Y-1.563
X7.1685Y-4.215
X7.1699Y-1.74
X7.2063Y-1.3268
X7.2063Y-2.4268
X7.2728Y-5.6874
X7.29Y-2.92
X7.3063Y-2.4268
X7.3579Y-1.578
X7.37Y-2.85
X7.3744Y-2.1752
X7.3803Y-3.4362
X7.4063Y-1.8268
X7.4063Y-2.4268
X7.4264Y-1.5748
X7.4291Y-5.8106
X7.4441Y-1.3362
X7.4657Y-1.7248
X7.4665Y-1.6496
X7.5048Y-1.6531
X7.5063Y-2.4268
X7.5134Y-1.7248
X7.5355Y-2.9983
X7.5591Y-2.178
X7.6004Y-4.1768
X7.6047Y-1.5736
X7.6062Y-2.838
X7.6063Y-1.3268
X7.6102Y-2.9966
X7.6177Y-2.3839
X7.6256Y-1.8457
X7.6564Y-2.838
X7.6866Y-2.522
X7.6909Y-2.1898
X7.7028Y-1.5713
X7.7049Y-2.837
X7.7079Y-2.9717
X7.7413Y-2.525
X7.7433Y-2.3819
X7.7441Y-1.3374
X7.7461Y-1.7996
X7.7561Y-2.835
X7.7561Y-2.9719
X7.7626Y-1.5425
X7.7681Y-2.1882
X7.8075Y-1.4496
X7.8106Y-1.7421
X7.828Y-2.46
X7.8283Y-1.6173
X7.8512Y-1.511
X7.8535Y-2.3728
X7.8535Y-4.9902
X7.8591Y-1.6512
X7.8634Y-5.7878
X7.8677Y-1.7469
X7.874Y-1.826
X7.9063Y-3.0268
X7.9402Y-2.8969
X7.9409Y-1.511
X7.9602Y-1.9197
X7.9618Y-1.8429
X7.9638Y-4.213
X7.9642Y-1.8087
X7.9683Y-2.1402
X7.9685Y-1.878
X7.9705Y-1.6043
X7.9713Y-1.9984
X7.9831Y-1.6378
X8.0567Y-1.5744
X8.0571Y-3.0098
X8.0882Y-1.363
X8.0898Y-2.3724
X8.0909Y-2.1402
X8.1008Y-2.765
X8.1063Y-3.0067
X8.1283Y-1.572
X8.1299Y-1.7209
X8.1555Y-2.7626
X8.1606Y-6.6783
X8.1831Y-3.4319
X8.1923Y-1.9431
X8.1941Y-1.5728
X8.1953Y-1.4315
X8.1984Y-2.5358
X8.2055Y-2.7697
X8.2079Y-3.0075
X8.224Y-2.0071
X8.2539Y-2.7736
X8.2594Y-3.0075
X8.2654Y-5.8189
X8.2656Y-1.7056
X8.27Y-1.8
X8.27Y-1.95
X8.2709Y-2.1772
X8.3456Y-1.4945
X8.361Y-1.4457
X8.3622Y-2.3744
X8.38Y-1.9
X8.39Y-1.8
X8.3961Y-1.4449
X8.4055Y-4.1673
X8.4063Y-3.0268
X8.4205Y-2.2028
X8.4205Y-2.2362
X8.4274Y-2.5909
X8.439Y-2.8953
X8.4461Y-2.461
X8.4524Y-2.5201
X8.46Y-1.7449
X8.4669Y-1.86
X8.4677Y-1.8945
X8.4694Y-1.8286
X8.4726Y-2.6116
X8.5228Y-2.5919
X8.5358Y-2.5559
X8.5567Y-3.013
X8.5736Y-1.5945
X8.5823Y-2.3866
X8.6055Y-2.7691
X8.6063Y-1.7268
X8.6063Y-1.8268
X8.6063Y-1.9268
X8.6063Y-2.0268
X8.6063Y-2.1268
X8.6087Y-3.0126
X8.648Y-4.0894
X8.6488Y-5.8803
X8.6539Y-2.7713
X8.6803Y-4.9925
X8.7028Y-2.7736
X8.7063Y-1.7268
X8.7063Y-2.1268
X8.7063Y-2.5585
X8.7087Y-3.0118
X8.7252Y-1.8732
X8.726Y-1.9272
X8.7468Y-2.7765
X8.7583Y-3.0106
X8.7764Y-1.813
X8.7772Y-1.9307
X8.7783Y-1.9835
X8.7894Y-2.435
X8.7935Y-2.5585
X8.8063Y-1.7268
X8.8063Y-2.1268
X8.8343Y-1.985
X8.8346Y-1.8138
X8.8354Y-1.8724
X8.8583Y-2.3937
X8.8602Y-2.5622
X8.886Y-2.6244
X8.8874Y-1.8724
X8.889Y-1.9272
X8.9063Y-1.7268
X8.9063Y-2.1268
X8.9146Y-3.085
X8.9307Y-2.5821
X8.9362Y-3.0112
X8.9382Y-2.8961
X8.9451Y-2.6382
X8.948Y-5.6969
X8.9772Y-3.4165
X8.9996Y-2.5799
X9.0063Y-1.8268
X9.0063Y-1.9268
X9.0063Y-2.0268
X9.0063Y-2.1268
X9.0287Y-2.4945
X9.0409Y-6.6772
X9.0724Y-1.6587
X9.0799Y-5.8079
X9.1091Y-3.0039
X9.1197Y-2.3689
X9.1311Y-2.7622
X9.1476Y-1.7894
X9.1488Y-1.7417
X9.1628Y-1.6041
X9.1774Y-2.5563
X9.1833Y-2.7848
X9.2035Y-3.0055
X9.2118Y-4.1638
X9.2157Y-2.7809
X9.2445Y-2.7938
X9.2602Y-1.5941
X9.264Y-3.0067
X9.2752Y-2.3382
X9.2819Y-2.1429
X9.2842Y-1.8824
X9.2925Y-2.5748
X9.2992Y-1.3114
X9.3059Y-2.2291
X9.3079Y-1.4524
X9.324Y-1.7181
X9.3264Y-2.0246
X9.3332Y-1.9814
X9.3358Y-3.9236
X9.3398Y-3.524
X9.3685Y-1.8524
X9.3722Y-2.6116
X9.3795Y-2.3846
X9.4063Y-3.0268
X9.4067Y-2.4846
X9.4142Y-1.8988
X9.4293Y-2.6352
X9.4386Y-3.2386
X9.4398Y-2.8949
X9.4638Y-2.5545
X9.4705Y-1.9035
X9.4746Y-2.588
X9.4815Y-4.9955
X9.4898Y-2.3055
X9.4921Y-2.2197
X9.5083Y-2.0882
X9.5106Y-1.9575
X9.5118Y-1.5193
X9.5409Y-1.9075
X9.5543Y-3.0102
X9.5697Y-2.5528
X9.5819Y-2.3071
X9.6024Y-1.3327
X9.6063Y-2.1268
X9.6094Y-2.7573
X9.6094Y-3.0083
X9.6382Y-4.1236
X9.6512Y-2.588
X9.6577Y-2.778
X9.7059Y-3.0093
X9.7063Y-2.0268
X9.7063Y-2.3268
X9.7069Y-2.8016
X9.7323Y-5.7996
X9.7413Y-6.4886
X9.748Y-1.5402
X9.7488Y-1.3673
X9.7512Y-2.7868
X9.7563Y-2.4476
X9.7571Y-3.0093
X9.775Y-1.6954
X9.7764Y-1.6555
X9.7819Y-1.7815
X9.7906Y-2.6115
X9.8008Y-1.9028
X9.8063Y-2.2268
X9.8063Y-2.3268
X9.8323Y-1.3244
X9.8358Y-3.337
X9.8398Y-5.402
X9.85Y-2.6352
X9.8701Y-2.8024
X9.8988Y-2.2264
X9.9063Y-2.4268
X9.9063Y-2.5268
X9.9063Y-3.0268
X9.9323Y-2.3252
X9.9327Y-2.0756
X9.9386Y-2.8961
X9.9425Y-1.326
X9.9823Y-1.7823
X9.9835Y-1.6457
T3
X8.2299Y-1.3232
X8.2969Y-1.3232
X9.437Y-1.324
X9.5039Y-1.324
T4
X0.9484Y-1.8213
X0.9484Y-1.9394
X7.8795Y-1.3624
X7.9976Y-1.3624
T5
X2.6213Y-1.3768
X2.6213Y-1.4768
X2.7213Y-1.3768
X2.7213Y-1.4768
X2.8213Y-1.3768
X2.8213Y-1.4768
X2.9213Y-1.3768
X2.9213Y-1.4768
X3.0213Y-1.3768
X3.0213Y-1.4768
X3.1213Y-1.3768
X3.1213Y-1.4768
X3.2213Y-1.3768
X3.2213Y-1.4768
X3.3213Y-1.3768
X3.3213Y-1.4768
X3.4213Y-1.3768
X3.4213Y-1.4768
T6
X2.2795Y-1.3926
X2.2795Y-1.6288
T7
X9.5697Y-2.0051
X9.5697Y-2.3988
T2
G00X7.3506Y-1.3531
M15
G01X7.3506Y-1.3217
M16
G05
G00X7.3506Y-1.5232
M15
G01X7.3506Y-1.4799
M16
G05
G00X7.6911Y-1.3531
M15
G01X7.6911Y-1.3217
M16
G05
G00X7.6911Y-1.5232
M15
G01X7.6911Y-1.4799
M16
G05
M30
