M48
; DRILL file {KiCad 8.0.1} date 2024-05-06T20:40:25+0100
; FORMAT={-:-/ absolute / inch / decimal}
; #@! TF.CreationDate,2024-05-06T20:40:25+01:00
; #@! TF.GenerationSoftware,Kicad,Pcbnew,8.0.1
; #@! TF.FileFunction,Plated,1,2,PTH
FMAT,2
INCH
; #@! TA.AperFunction,Plated,PTH,ViaDrill
T1C0.0118
; #@! TA.AperFunction,Plated,PTH,ComponentDrill
T2C0.0236
; #@! TA.AperFunction,Plated,PTH,ComponentDrill
T3C0.0394
; #@! TA.AperFunction,Plated,PTH,ComponentDrill
T4C0.0433
%
G90
G05
T1
X1.3484Y-0.9744
X1.3484Y-2.3917
X1.4173Y-6.1417
X1.4272Y-4.3799
X1.5157Y-1.6339
X1.5256Y-3.878
X1.5256Y-4.9705
X1.628Y-1.1909
X1.8707Y-4.5866
X1.9783Y-2.9853
X1.9783Y-3.5266
X2.0965Y-5.4232
X2.0965Y-5.935
X2.1063Y-3.251
X2.1161Y-2.8051
X2.126Y-1.0138
X2.126Y-1.6339
X2.2047Y-5.6693
X2.2736Y-3.251
X2.3917Y-3.7894
X2.3917Y-4.2913
X2.4606Y-2.1063
X2.4606Y-2.4114
X2.5Y-4.0453
X2.5098Y-3.6713
X2.5098Y-5.6693
X2.5098Y-6.0335
X2.599Y-5.1181
X2.6089Y-4.6063
X2.6575Y-4.0453
X2.7067Y-4.4587
X2.7264Y-4.8622
X2.7854Y-2.9951
X2.7854Y-3.5266
X2.8353Y-5.187
X2.874Y-4.8622
X2.9134Y-3.2609
X3.0118Y-2.7953
X3.0315Y-5.4232
X3.0315Y-5.935
X3.0906Y-3.2609
X3.1299Y-5.6693
X3.1988Y-1.4764
X3.1988Y-3.7992
X3.1988Y-4.2913
X3.3071Y-4.0453
X3.3071Y-5.6693
X3.3366Y-1.0138
X3.4061Y-4.6063
X3.4061Y-5.1181
X3.4154Y-3.7697
X3.4252Y-2.4114
X3.435Y-2.1358
X3.4843Y-4.0453
X3.5236Y-4.8622
X3.563Y-1.5157
X3.5925Y-2.9951
X3.5925Y-3.5266
X3.5925Y-6.122
X3.6128Y-4.5866
X3.6227Y-5.1772
X3.6417Y-1.9193
X3.7014Y-4.8622
X3.7106Y-3.2609
X3.8287Y-5.4232
X3.8287Y-5.935
X3.878Y-3.2609
X3.937Y-5.6693
X4.0059Y-3.7894
X4.0059Y-4.3012
X4.1043Y-4.0453
X4.1142Y-5.6693
X4.1732Y-2.7953
X4.2126Y-3.7697
X4.2132Y-5.1083
X4.2231Y-4.6063
X4.2815Y-6.0335
X4.2913Y-4.0453
X4.3313Y-4.8622
X4.4094Y-3.005
X4.4094Y-3.5266
X4.4101Y-5.187
X4.4193Y-1.0138
X4.4199Y-4.5866
X4.439Y-2.1358
X4.439Y-2.4213
X4.4882Y-4.8622
X4.5177Y-3.2609
X4.626Y-5.4232
X4.626Y-5.935
X4.6358Y-1.8012
X4.6457Y-1.5354
X4.685Y-3.2559
X4.7343Y-5.6723
X4.813Y-3.7795
X4.813Y-4.3012
X4.9016Y-5.9941
X4.9114Y-5.6693
X4.9213Y-4.0551
X4.9803Y-2.7854
X4.9902Y-3.7598
X5.0105Y-5.128
X5.0203Y-4.6063
X5.0886Y-4.0551
X5.1286Y-4.8622
X5.2073Y-4.5965
X5.2165Y-3.005
X5.2165Y-3.5365
X5.2854Y-4.8622
X5.3051Y-2.1358
X5.3057Y-5.187
X5.4232Y-5.4134
X5.4232Y-5.9252
X5.4823Y-1.0138
X5.502Y-2.7756
X5.5413Y-5.6693
X5.6004Y-5.8957
X5.6102Y-3.7894
X5.6102Y-4.3012
X5.689Y-5.4134
X5.7382Y-4.0453
X5.8175Y-5.128
X5.8274Y-4.6063
X5.8563Y-2.3917
X5.8563Y-4.4587
X5.9357Y-4.8622
X5.9744Y-1.3583
X6.0138Y-3.005
X6.0138Y-3.5266
X6.0433Y-1.3386
X6.0531Y-3.6713
X6.0931Y-4.5472
X6.1319Y-3.2609
X6.1417Y-1.5157
X6.1417Y-2.1358
X6.1516Y-1.8209
X6.1516Y-5.2264
X6.1909Y-1.3484
X6.2303Y-1.6339
X6.2303Y-5.4134
X6.2303Y-5.9252
X6.3189Y-1.6043
X6.3189Y-3.2609
X6.3287Y-5.6693
X6.3583Y-1.3484
X6.4075Y-4.3012
X6.4173Y-1.565
X6.4173Y-3.7992
X6.4469Y-1.3484
X6.4764Y-5.9941
X6.5059Y-5.6693
X6.5354Y-1.5256
X6.5453Y-4.065
X6.565Y-3.7697
X6.5748Y-1.4862
X6.6345Y-4.6063
X6.6345Y-5.1181
X6.6437Y-2.7854
X6.6831Y-4.065
X6.6929Y-1.437
X6.7028Y-1.1122
X6.7028Y-1.4764
X6.7421Y-4.4587
X6.7427Y-4.8622
X6.7936Y-1.2516
X6.7936Y-1.4256
X6.8307Y-3.005
X6.8307Y-3.5069
X6.8904Y-5.1772
X6.9193Y-1.9488
X6.9193Y-2.1457
X6.9199Y-4.8622
X6.9429Y-1.7008
X6.9429Y-1.7323
X6.9429Y-1.7677
X6.9488Y-1.6634
X6.9488Y-3.2609
X6.9587Y-1.8012
X6.998Y-1.8012
X7.0177Y-1.1713
X7.0177Y-1.6043
X7.0177Y-5.935
X7.0276Y-5.4232
X7.0374Y-3.5236
X7.126Y-1.6791
X7.126Y-3.2609
X7.126Y-5.6693
X7.1358Y-1.8012
X7.1801Y-1.688
X7.1949Y-1.8701
X7.2096Y-1.7077
X7.2244Y-3.7894
X7.2244Y-4.3012
X7.2263Y-0.9075
X7.2343Y-6.0335
X7.2392Y-1.7274
X7.2835Y-1.9488
X7.3031Y-5.6693
X7.3327Y-2.7854
X7.3327Y-4.065
X7.4311Y-1.8012
X7.4317Y-4.6063
X7.4317Y-5.128
X7.4508Y-1.1516
X7.4508Y-1.2795
X7.4803Y-4.065
X7.5295Y-3.6811
X7.5295Y-4.4587
X7.54Y-4.8622
X7.5591Y-2.1555
X7.5984Y-1.1516
X7.628Y-0.9941
X7.628Y-3.5069
X7.6378Y-3.005
X7.6679Y-5.1772
X7.7067Y-1.1614
X7.7067Y-1.3386
X7.727Y-4.8622
X7.7461Y-0.9055
X7.7559Y-3.2609
X7.7667Y-1.1516
X7.815Y-2.4902
X7.815Y-5.4232
X7.815Y-5.935
X7.9035Y-1.2205
X7.9035Y-3.2609
X7.9232Y-0.9055
X7.9232Y-5.6693
X7.9528Y-2.8967
X7.9921Y-1.3287
X8.0118Y-2.5
X8.0217Y-2.2638
X8.0217Y-6.0335
X8.0315Y-4.3012
X8.0413Y-1.3976
X8.0413Y-3.7894
X8.0512Y-1.1319
X8.1004Y-1.4469
X8.1004Y-5.6693
X8.1398Y-4.0453
X8.1496Y-1.4961
X8.1594Y-1.3189
X8.1693Y-1.5551
X8.2087Y-2.0866
X8.2185Y-1.2205
X8.2283Y-1.6043
X8.2382Y-2.3031
X8.2388Y-4.5965
X8.2388Y-5.1378
X8.248Y-3.7598
X8.2579Y-0.9055
X8.2677Y-1.6437
X8.2677Y-2.2146
X8.2677Y-2.4508
X8.2874Y-4.0453
X8.29Y-1.6748
X8.3465Y-1.063
X8.3471Y-4.8622
X8.3661Y-1.1811
X8.4055Y-4.4587
X8.435Y-2.0866
X8.4449Y-3.005
X8.4547Y-3.5069
X8.4553Y-5.1772
X8.4843Y-1.0236
X8.4843Y-1.4469
X8.5236Y-1.1319
X8.5236Y-1.378
X8.5242Y-4.8622
X8.5335Y-1.2697
X8.5433Y-2.4311
X8.5531Y-3.2609
X8.5925Y-1.9094
X8.6122Y-5.9252
X8.622Y-5.4331
X8.6319Y-2.0768
X8.6319Y-2.8967
X8.6614Y-1.0236
X8.6811Y-0.9843
X8.6811Y-1.7421
X8.6909Y-1.1417
X8.6909Y-1.6929
X8.7008Y-3.2609
X8.7106Y-1.3091
X8.7106Y-1.4567
X8.7106Y-2.4705
X8.7205Y-1.3484
X8.7205Y-1.3976
X8.7303Y-5.6791
X8.8091Y-6.0335
X8.8287Y-3.7894
X8.8287Y-4.311
X8.8484Y-1.624
X8.8484Y-1.8012
X8.8583Y-2.0965
X8.8681Y-1.1516
X8.8681Y-1.2697
X8.878Y-1.5256
X8.8976Y-2.3228
X8.9075Y-2.687
X8.937Y-4.0551
X8.9469Y-1.8012
X8.98Y-1.4281
X8.9819Y-1.485
X8.9961Y-1.8012
X9.0059Y-2.4705
X9.0157Y-2.1358
X9.0328Y-1.5406
X9.0333Y-1.4828
X9.0344Y-1.3723
X9.0354Y-1.4272
X9.0354Y-3.7697
X9.0453Y-1.8012
X9.0459Y-4.5965
X9.0459Y-5.128
X9.0748Y-1.2795
X9.0846Y-1.1516
X9.0846Y-4.0551
X9.0846Y-5.6791
X9.0897Y-1.4289
X9.0897Y-1.4836
X9.0903Y-1.5403
X9.0911Y-1.3731
X9.0945Y-1.8012
X9.1142Y-4.4587
X9.1437Y-1.8012
X9.1437Y-2.0177
X9.1437Y-2.0768
X9.1437Y-2.4213
X9.145Y-1.4825
X9.1453Y-1.4275
X9.1542Y-4.8622
X9.1732Y-1.9291
X9.2421Y-3.005
X9.2421Y-3.5168
X9.2427Y-5.1772
X9.2717Y-1.2894
X9.2913Y-1.5256
X9.311Y-1.2008
X9.311Y-2.0768
X9.311Y-2.4213
X9.3313Y-4.8622
X9.3996Y-1.2894
X9.4488Y-3.1329
X9.4587Y-2.0079
X9.4587Y-2.4213
X9.5276Y-1.2008
X9.5866Y-0.9744
X9.5965Y-1.1909
X9.5965Y-3.4646
X9.5965Y-6.3287
X9.6161Y-5.4232
X9.6161Y-5.9252
X9.626Y-1.2992
X9.626Y-1.3484
X9.626Y-1.3976
X9.626Y-1.4469
X9.626Y-1.4961
X9.626Y-1.5453
X9.6358Y-1.811
X9.6358Y-2.0965
X9.6358Y-2.4213
X9.6358Y-3.7894
X9.6358Y-4.2913
X9.7244Y-5.6693
X9.7933Y-1.624
X9.7933Y-3.1791
X9.8425Y-0.9941
X9.853Y-4.5866
X9.853Y-5.1476
X9.8622Y-1.2303
X9.8622Y-1.624
X9.8917Y-4.065
X9.9114Y-2.0965
X9.9114Y-2.4213
X9.9311Y-1.624
X9.9902Y-2.7953
X10.0Y-1.624
X10.0Y-6.1417
X10.0301Y-5.1772
X10.04Y-4.6949
X10.0689Y-1.624
X10.0787Y-1.2008
X10.0886Y-1.8701
X10.0886Y-1.9193
X10.0886Y-1.998
X10.0886Y-2.0866
X10.0886Y-2.126
X10.0886Y-5.7382
X10.0984Y-2.2146
X10.1083Y-1.811
X10.1378Y-1.624
X10.1772Y-0.9744
X10.1969Y-1.6535
X10.1969Y-2.5394
T3
X5.6469Y-0.9449
X5.7469Y-0.9449
X5.8469Y-0.9449
X5.9469Y-0.9449
X6.0469Y-0.9449
X6.1469Y-0.9449
X6.2469Y-0.9449
X6.3469Y-0.9449
X6.4469Y-0.9449
T4
X2.6575Y-0.9493
X2.6575Y-1.1855
T2
G00X7.6673Y-0.9114
M15
G01X7.6673Y-0.8799
M16
G05
G00X7.6673Y-1.0815
M15
G01X7.6673Y-1.0382
M16
G05
G00X8.0079Y-0.9114
M15
G01X8.0079Y-0.8799
M16
G05
G00X8.0079Y-1.0815
M15
G01X8.0079Y-1.0382
M16
G05
M30
