M48
; DRILL file {KiCad 8.0.3} date 2024-09-07T19:32:32+0100
; FORMAT={-:-/ absolute / inch / decimal}
; #@! TF.CreationDate,2024-09-07T19:32:32+01:00
; #@! TF.GenerationSoftware,Kicad,Pcbnew,8.0.3
; #@! TF.FileFunction,Plated,1,4,PTH
FMAT,2
INCH
; #@! TA.AperFunction,Plated,PTH,ViaDrill
T1C0.0118
; #@! TA.AperFunction,Plated,PTH,ComponentDrill
T2C0.0236
; #@! TA.AperFunction,Plated,PTH,ComponentDrill
T3C0.0276
; #@! TA.AperFunction,Plated,PTH,ComponentDrill
T4C0.0335
; #@! TA.AperFunction,Plated,PTH,ComponentDrill
T5C0.0394
; #@! TA.AperFunction,Plated,PTH,ComponentDrill
T6C0.0433
; #@! TA.AperFunction,Plated,PTH,ComponentDrill
T7C0.0630
%
G90
G05
T1
X1.0Y-3.28
X1.0Y-4.09
X1.0Y-4.73
X1.0Y-5.31
X1.0Y-6.0
X1.19Y-2.89
X1.2Y-1.7142
X1.2Y-2.1079
X1.2Y-2.5016
X1.32Y-6.81
X1.44Y-1.63
X1.44Y-4.99
X1.485Y-5.8047
X1.51Y-1.45
X1.58Y-1.38
X1.59Y-1.45
X1.5937Y-2.1079
X1.5937Y-2.5016
X1.5937Y-2.8953
X1.61Y-3.2
X1.62Y-1.63
X1.6626Y-3.4157
X1.7961Y-4.1791
X1.83Y-1.61
X1.88Y-4.04
X1.92Y-1.38
X1.92Y-1.8031
X1.94Y-2.9
X1.95Y-1.61
X1.9833Y-1.3787
X1.9874Y-2.1079
X1.9874Y-2.5016
X2.06Y-5.79
X2.0681Y-1.7417
X2.1532Y-1.8268
X2.2157Y-1.3794
X2.2386Y-5.0276
X2.3Y-4.16
X2.32Y-6.81
X2.3413Y-1.3464
X2.3811Y-2.5016
X2.39Y-3.19
X2.43Y-2.02
X2.43Y-4.93
X2.4504Y-3.4044
X2.4567Y-5.8083
X2.4634Y-1.4177
X2.4634Y-1.8422
X2.5142Y-1.6299
X2.5204Y-1.9839
X2.5252Y-1.5114
X2.62Y-1.81
X2.6382Y-4.176
X2.7213Y-1.82
X2.724Y-2.2291
X2.7748Y-2.5016
X2.8Y-2.87
X2.87Y-5.79
X2.9248Y-1.9118
X2.9953Y-5.0067
X3.07Y-2.21
X3.1Y-4.15
X3.1685Y-2.1079
X3.1685Y-2.5016
X3.22Y-4.93
X3.28Y-3.19
X3.2898Y-5.8114
X3.29Y-6.82
X3.3441Y-1.5568
X3.3508Y-3.4453
X3.4606Y-4.1752
X3.55Y-1.51
X3.55Y-1.92
X3.56Y-2.86
X3.5622Y-2.5016
X3.67Y-5.8
X3.68Y-1.69
X3.8638Y-5.0264
X3.87Y-1.89
X3.88Y-4.15
X3.913Y-1.5157
X3.9559Y-2.5016
X3.9811Y-1.8469
X4.0063Y-1.8232
X4.03Y-4.92
X4.04Y-3.2
X4.0673Y-5.8067
X4.0937Y-3.4059
X4.11Y-6.8
X4.16Y-1.34
X4.1654Y-2.1913
X4.2555Y-4.1791
X4.31Y-1.92
X4.3496Y-2.5016
X4.3496Y-2.8953
X4.39Y-1.55
X4.48Y-5.78
X4.51Y-3.25
X4.65Y-4.13
X4.7004Y-5.0346
X4.7433Y-2.5016
X4.77Y-1.55
X4.77Y-1.92
X4.84Y-4.93
X4.87Y-1.33
X4.9106Y-3.3961
X4.9306Y-5.8088
X5.03Y-6.8
X5.137Y-2.5016
X5.137Y-2.8953
X5.18Y-3.18
X5.2417Y-4.1941
X5.31Y-1.55
X5.34Y-5.78
X5.4Y-4.12
X5.4598Y-5.0073
X5.47Y-1.91
X5.5307Y-2.5016
X5.5848Y-5.839
X5.6Y-1.34
X5.67Y-3.16
X5.71Y-4.93
X5.7433Y-3.4325
X5.88Y-1.94
X5.9Y-1.52
X5.9244Y-2.5016
X5.9677Y-4.1799
X6.14Y-5.79
X6.2319Y-4.9972
X6.28Y-2.93
X6.3181Y-2.5016
X6.32Y-4.15
X6.34Y-1.93
X6.41Y-6.77
X6.49Y-1.55
X6.49Y-3.2
X6.5488Y-5.8051
X6.55Y-1.33
X6.5661Y-3.4423
X6.64Y-4.94
X6.7118Y-2.5016
X6.73Y-2.17
X6.785Y-4.1768
X6.94Y-5.79
X7.057Y-4.9901
X7.0693Y-1.4323
X7.1055Y-2.5016
X7.13Y-1.53
X7.14Y-4.17
X7.1699Y-1.74
X7.17Y-1.34
X7.22Y-3.24
X7.239Y-1.593
X7.2487Y-1.4487
X7.28Y-2.93
X7.3581Y-1.5803
X7.38Y-1.91
X7.3803Y-3.4362
X7.4264Y-1.5748
X7.4291Y-5.8106
X7.44Y-2.16
X7.44Y-4.95
X7.4657Y-1.7248
X7.4665Y-1.6496
X7.4992Y-2.5016
X7.5134Y-1.7248
X7.5355Y-2.9983
X7.5406Y-1.6502
X7.6004Y-4.1768
X7.6047Y-1.5736
X7.6062Y-2.838
X7.6102Y-2.9966
X7.6177Y-2.3839
X7.65Y-1.89
X7.6564Y-2.838
X7.6849Y-2.5241
X7.6909Y-2.1898
X7.7049Y-2.837
X7.7079Y-2.9717
X7.71Y-6.77
X7.7413Y-2.525
X7.7433Y-2.3819
X7.7561Y-2.835
X7.7561Y-2.9719
X7.8106Y-1.7421
X7.828Y-2.46
X7.84Y-1.6059
X7.8512Y-1.511
X7.8535Y-4.9902
X7.8677Y-1.7469
X7.87Y-1.84
X7.8799Y-2.9625
X7.94Y-1.35
X7.94Y-4.14
X7.9409Y-1.511
X7.95Y-1.97
X7.95Y-2.37
X7.9618Y-1.8429
X7.9642Y-1.8087
X7.9685Y-1.878
X7.9694Y-2.1413
X7.9705Y-1.6043
X8.0571Y-3.0098
X8.0648Y-1.5735
X8.0885Y-1.3606
X8.09Y-2.47
X8.1Y-2.15
X8.1008Y-2.765
X8.1063Y-3.0067
X8.1292Y-1.5745
X8.1555Y-2.7626
X8.1831Y-3.4319
X8.1923Y-1.9431
X8.1948Y-1.5739
X8.2027Y-2.5346
X8.2055Y-2.7697
X8.2079Y-3.0075
X8.2539Y-2.7736
X8.2594Y-3.0075
X8.2654Y-5.8189
X8.2656Y-1.7056
X8.2709Y-2.1772
X8.28Y-4.93
X8.3407Y-1.4885
X8.36Y-3.35
X8.361Y-1.4457
X8.3743Y-1.3692
X8.3787Y-2.9587
X8.39Y-2.37
X8.4055Y-4.1673
X8.4205Y-2.2028
X8.4205Y-2.2362
X8.4274Y-2.5909
X8.4461Y-2.461
X8.4524Y-2.5201
X8.46Y-1.7449
X8.4669Y-1.86
X8.4677Y-1.8945
X8.4694Y-1.8286
X8.4726Y-2.6116
X8.5228Y-2.5919
X8.5358Y-2.5559
X8.5567Y-3.013
X8.5748Y-1.5957
X8.59Y-2.38
X8.6Y-5.8
X8.6055Y-2.7691
X8.6087Y-3.0126
X8.63Y-1.75
X8.63Y-1.96
X8.64Y-2.17
X8.6539Y-2.7713
X8.6803Y-4.9925
X8.7028Y-2.7736
X8.7087Y-3.0118
X8.71Y-4.13
X8.7136Y-2.5568
X8.7468Y-2.7765
X8.7583Y-3.0106
X8.7752Y-1.8715
X8.7757Y-1.9285
X8.7894Y-2.435
X8.7935Y-2.5585
X8.82Y-2.18
X8.83Y-1.75
X8.8318Y-1.8715
X8.8332Y-1.9271
X8.84Y-4.9
X8.8602Y-2.5622
X8.87Y-2.41
X8.8794Y-2.9612
X8.886Y-2.6244
X8.92Y-2.52
X8.92Y-6.75
X8.9307Y-2.5821
X8.9362Y-3.0112
X8.9451Y-2.6382
X8.9772Y-3.4165
X8.99Y-3.12
X8.9996Y-2.5799
X9.0287Y-2.4945
X9.04Y-1.76
X9.04Y-1.97
X9.04Y-2.18
X9.0724Y-1.6587
X9.0799Y-5.8079
X9.1091Y-3.0039
X9.11Y-3.28
X9.1311Y-2.7622
X9.1476Y-1.7894
X9.1488Y-1.7417
X9.1634Y-1.606
X9.1819Y-2.5556
X9.1833Y-2.7848
X9.2035Y-3.0055
X9.2118Y-4.1638
X9.2157Y-2.7809
X9.2445Y-2.7938
X9.2621Y-1.5956
X9.264Y-3.0067
X9.2819Y-2.1429
X9.2842Y-1.8824
X9.2925Y-2.5748
X9.3059Y-2.2291
X9.324Y-1.7181
X9.3264Y-2.0246
X9.3332Y-1.9814
X9.3685Y-1.8524
X9.3706Y-1.4493
X9.3722Y-2.6116
X9.3791Y-2.9595
X9.3795Y-2.3846
X9.4067Y-2.4846
X9.4142Y-1.8988
X9.4293Y-2.6352
X9.44Y-3.4
X9.4638Y-2.5545
X9.4705Y-1.9035
X9.4746Y-2.588
X9.48Y-3.72
X9.4815Y-4.9955
X9.49Y-1.54
X9.5083Y-2.0882
X9.5106Y-1.9575
X9.53Y-2.2197
X9.531Y-2.3108
X9.5409Y-1.9075
X9.5543Y-3.0102
X9.5697Y-2.5528
X9.6039Y-1.3317
X9.6094Y-2.7573
X9.6094Y-3.0083
X9.64Y-6.77
X9.6559Y-2.584
X9.6577Y-2.778
X9.7Y-2.39
X9.7059Y-3.0093
X9.7069Y-2.8016
X9.71Y-2.02
X9.75Y-1.52
X9.7512Y-2.7868
X9.752Y-1.3711
X9.7568Y-2.4476
X9.7571Y-3.0093
X9.775Y-1.6954
X9.7764Y-1.6555
X9.7906Y-2.6115
X9.8034Y-1.9036
X9.85Y-2.6352
X9.8614Y-2.5016
X9.8846Y-2.9595
X9.91Y-3.32
X9.91Y-6.1
X9.92Y-4.45
X9.92Y-5.29
X9.95Y-1.35
X9.98Y-1.56
X9.98Y-1.87
T3
X8.2299Y-1.3232
X8.2969Y-1.3232
X9.437Y-1.324
X9.5039Y-1.324
T4
X7.8795Y-1.3624
X7.9976Y-1.3624
T5
X2.6213Y-1.3768
X2.6213Y-1.4768
X2.7213Y-1.3768
X2.7213Y-1.4768
X2.8213Y-1.3768
X2.8213Y-1.4768
X2.9213Y-1.3768
X2.9213Y-1.4768
X3.0213Y-1.3768
X3.0213Y-1.4768
X3.1213Y-1.3768
X3.1213Y-1.4768
X3.2213Y-1.3768
X3.2213Y-1.4768
X3.3213Y-1.3768
X3.3213Y-1.4768
X3.4213Y-1.3768
X3.4213Y-1.4768
T6
X2.2795Y-1.3926
X2.2795Y-1.6288
T7
X9.5697Y-2.0051
X9.5697Y-2.3988
T2
G00X7.3506Y-1.3531
M15
G01X7.3506Y-1.3217
M16
G05
G00X7.3506Y-1.5232
M15
G01X7.3506Y-1.4799
M16
G05
G00X7.6911Y-1.3531
M15
G01X7.6911Y-1.3217
M16
G05
G00X7.6911Y-1.5232
M15
G01X7.6911Y-1.4799
M16
G05
M30
