M48
; DRILL file {KiCad 8.0.3} date 2024-06-27T08:50:24+0100
; FORMAT={-:-/ absolute / inch / decimal}
; #@! TF.CreationDate,2024-06-27T08:50:24+01:00
; #@! TF.GenerationSoftware,Kicad,Pcbnew,8.0.3
; #@! TF.FileFunction,Plated,1,2,PTH
FMAT,2
INCH
; #@! TA.AperFunction,Plated,PTH,ViaDrill
T1C0.0118
; #@! TA.AperFunction,Plated,PTH,ComponentDrill
T2C0.0236
; #@! TA.AperFunction,Plated,PTH,ComponentDrill
T3C0.0276
; #@! TA.AperFunction,Plated,PTH,ComponentDrill
T4C0.0394
; #@! TA.AperFunction,Plated,PTH,ComponentDrill
T5C0.0433
; #@! TA.AperFunction,Plated,PTH,ComponentDrill
T6C0.0630
%
G90
G05
T1
X1.0425Y-2.5004
X1.0701Y-3.2327
X1.1657Y-2.8657
X1.1665Y-5.711
X1.1685Y-4.5201
X1.1882Y-6.5969
X1.2394Y-2.5004
X1.2677Y-1.3894
X1.3075Y-2.2508
X1.3094Y-1.9331
X1.428Y-2.5693
X1.4697Y-5.2071
X1.485Y-5.8047
X1.598Y-2.5028
X1.6374Y-3.2083
X1.6626Y-3.4157
X1.7232Y-1.3748
X1.728Y-2.763
X1.7441Y-2.4157
X1.7488Y-2.0736
X1.7567Y-1.372
X1.7961Y-4.1791
X1.828Y-2.0795
X1.8465Y-2.1327
X1.952Y-2.5787
X1.9543Y-1.6343
X2.0394Y-1.3299
X2.0551Y-6.6783
X2.0559Y-5.7882
X2.1547Y-4.1244
X2.2386Y-5.0276
X2.2433Y-2.3823
X2.2591Y-3.2406
X2.3299Y-1.3409
X2.3752Y-1.8969
X2.4323Y-2.1776
X2.4504Y-3.4044
X2.4567Y-5.8083
X2.4598Y-4.1303
X2.4634Y-1.4177
X2.4634Y-1.9866
X2.5142Y-1.6299
X2.5204Y-2.1283
X2.5252Y-1.5114
X2.5594Y-1.8457
X2.6197Y-2.2063
X2.6366Y-2.7122
X2.6382Y-4.176
X2.6764Y-2.5004
X2.724Y-2.2291
X2.7413Y-6.6713
X2.8429Y-5.7902
X2.8535Y-4.0063
X2.8976Y-1.774
X2.9087Y-2.1913
X2.9953Y-5.0067
X3.0461Y-3.2307
X3.0531Y-2.1091
X3.1287Y-2.3441
X3.2409Y-1.7063
X3.2433Y-4.1244
X3.2445Y-5.6909
X3.2677Y-1.628
X3.2898Y-5.8114
X3.2921Y-1.6539
X3.3161Y-1.6941
X3.3197Y-2.1055
X3.3508Y-3.4453
X3.3732Y-2.472
X3.3882Y-1.5898
X3.4606Y-4.1752
X3.4689Y-2.028
X3.4764Y-2.7185
X3.5024Y-1.9886
X3.5028Y-1.9492
X3.5043Y-1.9098
X3.5047Y-1.8705
X3.5304Y-1.5265
X3.5402Y-1.465
X3.5543Y-1.3339
X3.7283Y-5.7902
X3.7583Y-2.3264
X3.8228Y-2.1539
X3.8232Y-6.6701
X3.8638Y-5.0264
X3.8937Y-1.4519
X3.913Y-1.5157
X3.9327Y-3.2256
X3.9652Y-1.8469
X3.9673Y-1.6488
X3.972Y-1.4583
X3.9933Y-4.1035
X4.0063Y-1.8232
X4.0366Y-5.6953
X4.0673Y-5.8067
X4.0819Y-1.3346
X4.0937Y-3.4059
X4.2551Y-2.8528
X4.2555Y-4.1791
X4.2965Y-2.4719
X4.3791Y-1.4504
X4.4744Y-2.1594
X4.5154Y-3.2339
X4.5976Y-5.7898
X4.7004Y-5.0346
X4.7213Y-1.5654
X4.7331Y-1.7236
X4.7724Y-1.3209
X4.8075Y-6.6756
X4.9106Y-3.3961
X4.9306Y-5.8088
X4.9681Y-2.9575
X5.0996Y-4.0161
X5.2417Y-4.1941
X5.311Y-5.7567
X5.4598Y-5.0073
X5.5244Y-2.8512
X5.5299Y-2.1449
X5.5748Y-1.7161
X5.5848Y-5.839
X5.5961Y-3.2398
X5.6272Y-2.4413
X5.702Y-4.9118
X5.7024Y-1.5724
X5.7079Y-5.5909
X5.7433Y-3.4325
X5.7858Y-1.3323
X5.7949Y-6.685
X5.9677Y-4.1799
X6.1146Y-2.1618
X6.1882Y-5.7957
X6.2319Y-4.9972
X6.2925Y-2.926
X6.4024Y-1.7083
X6.4618Y-2.0913
X6.5276Y-3.2315
X6.5488Y-5.8051
X6.5661Y-3.4423
X6.6425Y-1.5622
X6.785Y-4.1768
X6.9413Y-1.6996
X6.9425Y-2.1965
X6.9815Y-5.7898
X6.9815Y-6.6657
X6.9933Y-1.478
X7.057Y-4.9901
X7.0693Y-1.4323
X7.1465Y-1.796
X7.1513Y-1.8469
X7.1602Y-1.6579
X7.1685Y-4.215
X7.1768Y-2.4709
X7.1776Y-1.8295
X7.2094Y-2.9256
X7.2165Y-1.3248
X7.2193Y-2.0673
X7.2728Y-5.6874
X7.2898Y-1.7268
X7.3106Y-1.8059
X7.3205Y-2.0933
X7.3209Y-2.1413
X7.3327Y-1.8437
X7.3559Y-1.8673
X7.3732Y-2.1169
X7.3803Y-3.4362
X7.3945Y-1.585
X7.4232Y-1.6803
X7.4291Y-5.8106
X7.4441Y-1.3362
X7.4484Y-2.0646
X7.4795Y-1.9252
X7.4917Y-2.0047
X7.4941Y-1.576
X7.5173Y-2.2102
X7.5175Y-2.0228
X7.5355Y-2.9983
X7.539Y-2.1713
X7.5472Y-2.0386
X7.5484Y-1.5823
X7.5583Y-2.0728
X7.598Y-2.1008
X7.6004Y-4.1768
X7.6062Y-2.838
X7.6102Y-2.9966
X7.6177Y-1.628
X7.6177Y-2.3839
X7.6327Y-2.1083
X7.6358Y-2.1484
X7.6564Y-2.838
X7.6866Y-2.522
X7.7049Y-2.837
X7.7067Y-1.602
X7.7079Y-2.9717
X7.7413Y-2.525
X7.7429Y-1.772
X7.7433Y-2.3819
X7.7524Y-2.2244
X7.7561Y-2.835
X7.7561Y-2.9719
X7.7858Y-1.4953
X7.828Y-2.46
X7.8535Y-4.9902
X7.8634Y-5.7878
X7.8677Y-1.7469
X7.8787Y-2.5268
X7.9016Y-2.9984
X7.9311Y-1.3543
X7.9425Y-2.1437
X7.9453Y-1.9047
X7.9469Y-1.9906
X7.9618Y-1.8429
X7.9638Y-4.213
X7.9642Y-1.8087
X7.9795Y-1.5764
X7.9976Y-1.6539
X7.9996Y-1.4516
X8.0311Y-1.5594
X8.0354Y-1.602
X8.0571Y-3.0098
X8.0937Y-1.9047
X8.1008Y-2.765
X8.1024Y-2.1642
X8.1063Y-3.0067
X8.135Y-1.7827
X8.1469Y-1.4346
X8.1555Y-2.7626
X8.1606Y-6.6783
X8.1716Y-1.9511
X8.1831Y-3.4319
X8.2055Y-2.7697
X8.2079Y-3.0075
X8.2142Y-1.622
X8.2535Y-1.4866
X8.2539Y-2.7736
X8.2594Y-3.0075
X8.2598Y-1.9409
X8.2638Y-1.8441
X8.2654Y-5.8189
X8.2657Y-1.8071
X8.2705Y-2.515
X8.2709Y-2.1772
X8.2898Y-1.5075
X8.2969Y-1.6382
X8.313Y-1.5555
X8.387Y-1.8085
X8.3898Y-1.5807
X8.4055Y-4.1673
X8.4091Y-3.0024
X8.4165Y-2.3941
X8.4189Y-1.5252
X8.4205Y-2.2028
X8.4205Y-2.2362
X8.4274Y-2.5909
X8.4461Y-2.461
X8.4524Y-2.5201
X8.4657Y-1.7449
X8.4726Y-2.6116
X8.5228Y-2.5919
X8.5358Y-2.5559
X8.5567Y-3.013
X8.5898Y-1.5972
X8.6055Y-2.7691
X8.6087Y-3.0126
X8.6102Y-1.9957
X8.6165Y-2.1744
X8.648Y-4.0894
X8.6488Y-5.8803
X8.6539Y-2.7713
X8.6803Y-4.9925
X8.7028Y-2.7736
X8.7055Y-2.5327
X8.7087Y-3.0118
X8.7252Y-1.8732
X8.726Y-1.9272
X8.7468Y-2.7765
X8.7583Y-3.0106
X8.7764Y-1.813
X8.7772Y-1.9307
X8.7783Y-1.9835
X8.7894Y-2.435
X8.7935Y-2.5585
X8.8114Y-1.7098
X8.8217Y-1.589
X8.8343Y-1.985
X8.8346Y-1.8138
X8.8354Y-1.8724
X8.8602Y-2.5622
X8.886Y-2.6244
X8.8874Y-1.8724
X8.889Y-1.9272
X8.9146Y-3.085
X8.9307Y-2.5821
X8.9362Y-3.0112
X8.9451Y-2.6382
X8.948Y-5.6969
X8.9772Y-3.4165
X8.9996Y-2.5799
X9.024Y-3.0028
X9.0283Y-2.1858
X9.0287Y-2.4945
X9.0409Y-2.002
X9.0409Y-6.6772
X9.0689Y-1.5874
X9.0724Y-1.6587
X9.0799Y-5.8079
X9.1091Y-3.0039
X9.1311Y-2.7622
X9.1476Y-1.7894
X9.1488Y-1.7417
X9.1567Y-1.6102
X9.1833Y-2.7848
X9.2035Y-3.0055
X9.2118Y-4.1638
X9.2157Y-2.7809
X9.2165Y-2.5447
X9.2445Y-2.7938
X9.264Y-3.0067
X9.2791Y-1.6047
X9.2819Y-2.1429
X9.2842Y-1.8824
X9.2925Y-2.5748
X9.3059Y-2.2291
X9.3157Y-2.2839
X9.324Y-1.7181
X9.3264Y-2.0246
X9.3332Y-1.9814
X9.3358Y-3.9236
X9.3398Y-3.524
X9.3535Y-1.474
X9.3685Y-1.8524
X9.3722Y-2.6116
X9.4067Y-2.4846
X9.4142Y-1.8988
X9.4293Y-2.6352
X9.4386Y-3.2386
X9.4638Y-2.5545
X9.4705Y-1.9035
X9.4746Y-2.588
X9.4756Y-2.9606
X9.4815Y-4.9955
X9.5106Y-1.9575
X9.5114Y-1.5232
X9.5409Y-1.9075
X9.5543Y-3.0102
X9.5697Y-2.5528
X9.6094Y-2.7573
X9.6094Y-3.0083
X9.6102Y-2.1319
X9.6382Y-4.1236
X9.6577Y-2.778
X9.6634Y-2.585
X9.7059Y-3.0093
X9.7069Y-2.8016
X9.7098Y-1.5819
X9.7272Y-2.2811
X9.7323Y-5.7996
X9.7413Y-6.4886
X9.7512Y-2.7868
X9.7571Y-3.0093
X9.775Y-1.6954
X9.7764Y-1.6555
X9.7799Y-1.9917
X9.7906Y-2.6115
X9.7945Y-2.5465
X9.8358Y-3.337
X9.8398Y-5.402
X9.85Y-2.6352
X9.915Y-3.0079
X9.9394Y-2.0803
X9.9807Y-1.5299
X9.9819Y-1.9035
T3
X8.2299Y-1.3232
X8.2969Y-1.3232
X9.437Y-1.324
X9.5039Y-1.324
T4
X2.6213Y-1.3768
X2.6213Y-1.4768
X2.7213Y-1.3768
X2.7213Y-1.4768
X2.8213Y-1.3768
X2.8213Y-1.4768
X2.9213Y-1.3768
X2.9213Y-1.4768
X3.0213Y-1.3768
X3.0213Y-1.4768
X3.1213Y-1.3768
X3.1213Y-1.4768
X3.2213Y-1.3768
X3.2213Y-1.4768
X3.3213Y-1.3768
X3.3213Y-1.4768
X3.4213Y-1.3768
X3.4213Y-1.4768
X7.8146Y-1.362
X8.0823Y-1.362
T5
X2.2795Y-1.3926
X2.2795Y-1.6288
T6
X9.5697Y-2.0051
X9.5697Y-2.3988
T2
G00X7.3506Y-1.3531
M15
G01X7.3506Y-1.3217
M16
G05
G00X7.3506Y-1.5232
M15
G01X7.3506Y-1.4799
M16
G05
G00X7.6911Y-1.3531
M15
G01X7.6911Y-1.3217
M16
G05
G00X7.6911Y-1.5232
M15
G01X7.6911Y-1.4799
M16
G05
M30
