%TF.GenerationSoftware,KiCad,Pcbnew,8.0.1*%
%TF.CreationDate,2024-05-05T16:25:59+01:00*%
%TF.ProjectId,esp32-s3-spectrum,65737033-322d-4733-932d-737065637472,rev?*%
%TF.SameCoordinates,Original*%
%TF.FileFunction,Legend,Top*%
%TF.FilePolarity,Positive*%
%FSLAX46Y46*%
G04 Gerber Fmt 4.6, Leading zero omitted, Abs format (unit mm)*
G04 Created by KiCad (PCBNEW 8.0.1) date 2024-05-05 16:25:59*
%MOMM*%
%LPD*%
G01*
G04 APERTURE LIST*
%ADD10C,0.200000*%
%ADD11C,0.150000*%
%ADD12C,0.254000*%
%ADD13C,0.120000*%
%ADD14C,0.250000*%
%ADD15C,0.127000*%
%ADD16C,0.300000*%
%ADD17C,0.100000*%
G04 APERTURE END LIST*
D10*
G36*
X35809316Y-60211584D02*
G01*
X33351011Y-60211584D01*
X33351011Y-61462107D01*
X36153698Y-61462107D01*
X36153698Y-62400000D01*
X32316643Y-62400000D01*
X32316643Y-57319748D01*
X36029134Y-57319748D01*
X36029134Y-58179483D01*
X33351011Y-58179483D01*
X33351011Y-59351849D01*
X35809316Y-59351849D01*
X35809316Y-60211584D01*
G37*
G36*
X38787857Y-61696580D02*
G01*
X39049121Y-61684902D01*
X39303572Y-61641759D01*
X39396022Y-61613538D01*
X39629794Y-61486717D01*
X39786940Y-61285230D01*
X39838890Y-61045710D01*
X39839323Y-61018806D01*
X39777284Y-60781316D01*
X39619504Y-60625575D01*
X39379244Y-60513042D01*
X39123237Y-60433150D01*
X38929518Y-60386217D01*
X38393405Y-60264096D01*
X38114281Y-60195245D01*
X37869504Y-60124248D01*
X37627341Y-60038704D01*
X37384682Y-59924427D01*
X37301639Y-59872086D01*
X37102261Y-59697501D01*
X36951852Y-59484699D01*
X36850414Y-59233678D01*
X36802443Y-58988100D01*
X36789951Y-58762002D01*
X36807339Y-58512331D01*
X36871578Y-58241667D01*
X36983151Y-57993210D01*
X37142057Y-57766958D01*
X37284542Y-57618946D01*
X37486286Y-57464143D01*
X37720573Y-57341368D01*
X37987404Y-57250621D01*
X38234622Y-57199465D01*
X38504440Y-57170550D01*
X38736566Y-57163433D01*
X38981131Y-57173570D01*
X39259339Y-57212496D01*
X39520889Y-57280617D01*
X39765780Y-57377932D01*
X39994014Y-57504443D01*
X40101884Y-57578646D01*
X40294983Y-57747717D01*
X40450216Y-57944438D01*
X40567581Y-58168807D01*
X40647079Y-58420826D01*
X40688710Y-58700493D01*
X40694173Y-58799860D01*
X39678122Y-58799860D01*
X39627175Y-58540161D01*
X39493996Y-58313998D01*
X39280006Y-58150174D01*
X39040181Y-58063353D01*
X38798152Y-58027633D01*
X38664515Y-58023168D01*
X38403430Y-58042937D01*
X38162717Y-58109598D01*
X38012386Y-58190474D01*
X37837075Y-58376572D01*
X37769097Y-58621167D01*
X37768143Y-58658199D01*
X37828288Y-58899084D01*
X38008722Y-59069748D01*
X38251133Y-59168972D01*
X38491322Y-59238739D01*
X38668178Y-59283461D01*
X39540125Y-59495952D01*
X39777738Y-59561418D01*
X40016238Y-59647399D01*
X40242400Y-59758360D01*
X40405966Y-59869644D01*
X40582504Y-60043869D01*
X40715682Y-60249184D01*
X40805500Y-60485586D01*
X40851957Y-60753078D01*
X40859036Y-60919888D01*
X40840360Y-61175756D01*
X40784333Y-61414880D01*
X40671758Y-61672696D01*
X40534801Y-61875542D01*
X40360491Y-62061643D01*
X40327808Y-62091032D01*
X40113643Y-62249156D01*
X39868651Y-62374564D01*
X39592833Y-62467257D01*
X39339437Y-62519510D01*
X39064634Y-62549045D01*
X38829378Y-62556315D01*
X38530574Y-62545313D01*
X38252402Y-62512308D01*
X37994862Y-62457300D01*
X37757954Y-62380288D01*
X37500898Y-62258830D01*
X37273551Y-62105687D01*
X37080981Y-61924766D01*
X36928253Y-61719974D01*
X36815367Y-61491311D01*
X36742323Y-61238777D01*
X36709122Y-60962373D01*
X36706908Y-60864933D01*
X37716852Y-60864933D01*
X37771069Y-61117907D01*
X37880406Y-61350129D01*
X37906140Y-61383949D01*
X38102966Y-61548813D01*
X38341289Y-61644984D01*
X38601789Y-61688948D01*
X38787857Y-61696580D01*
G37*
G36*
X44119807Y-57333702D02*
G01*
X44372985Y-57375562D01*
X44640902Y-57459669D01*
X44879250Y-57581761D01*
X45060013Y-57716643D01*
X45237028Y-57910612D01*
X45370564Y-58146305D01*
X45450420Y-58381537D01*
X45498334Y-58647423D01*
X45513862Y-58892411D01*
X45514305Y-58943963D01*
X45503214Y-59214544D01*
X45469941Y-59459187D01*
X45400732Y-59718518D01*
X45279617Y-59973863D01*
X45115025Y-60178368D01*
X45060013Y-60227459D01*
X44843212Y-60373544D01*
X44589245Y-60483747D01*
X44341978Y-60549650D01*
X44067405Y-60589192D01*
X43817736Y-60602006D01*
X43765526Y-60602372D01*
X42690858Y-60602372D01*
X42690858Y-62400000D01*
X41639392Y-62400000D01*
X41639392Y-58179483D01*
X42690858Y-58179483D01*
X42690858Y-59742637D01*
X43676378Y-59742637D01*
X43934207Y-59715847D01*
X44175969Y-59616871D01*
X44260118Y-59552128D01*
X44401202Y-59341821D01*
X44459248Y-59093839D01*
X44466503Y-58946406D01*
X44441972Y-58689926D01*
X44349725Y-58459370D01*
X44258897Y-58356559D01*
X44045218Y-58235511D01*
X43789453Y-58183806D01*
X43676378Y-58179483D01*
X42690858Y-58179483D01*
X41639392Y-58179483D01*
X41639392Y-57319748D01*
X43844905Y-57319748D01*
X44119807Y-57333702D01*
G37*
G36*
X47092114Y-58399302D02*
G01*
X46980583Y-58619926D01*
X46935622Y-58875443D01*
X46933356Y-58986706D01*
X46019888Y-58986706D01*
X46040956Y-58735945D01*
X46085690Y-58494132D01*
X46146894Y-58282065D01*
X46267497Y-58055556D01*
X46418537Y-57860066D01*
X46524249Y-57752058D01*
X46734909Y-57600322D01*
X46964566Y-57495225D01*
X46980983Y-57489497D01*
X47235769Y-57426886D01*
X47490621Y-57401126D01*
X47630669Y-57397906D01*
X47888827Y-57410872D01*
X48165376Y-57458774D01*
X48415395Y-57541971D01*
X48638883Y-57660465D01*
X48782274Y-57766713D01*
X48974081Y-57966305D01*
X49111086Y-58197496D01*
X49193289Y-58460286D01*
X49220262Y-58716148D01*
X49220690Y-58754675D01*
X49195169Y-59015972D01*
X49118604Y-59250316D01*
X48975429Y-59476965D01*
X48959351Y-59495952D01*
X48769628Y-59669660D01*
X48616189Y-59752407D01*
X48842466Y-59852860D01*
X49000872Y-59985659D01*
X49164896Y-60177542D01*
X49282056Y-60401482D01*
X49352353Y-60657479D01*
X49375418Y-60907773D01*
X49375785Y-60945533D01*
X49354806Y-61218134D01*
X49291869Y-61476008D01*
X49186975Y-61719156D01*
X49040122Y-61947578D01*
X48937369Y-62071493D01*
X48725935Y-62260403D01*
X48512614Y-62385396D01*
X48269669Y-62476300D01*
X47997099Y-62533115D01*
X47747329Y-62554421D01*
X47641660Y-62556315D01*
X47387075Y-62545744D01*
X47097287Y-62502799D01*
X46839103Y-62426819D01*
X46612523Y-62317804D01*
X46382343Y-62143380D01*
X46197672Y-61921386D01*
X46171318Y-61879762D01*
X46064897Y-61655618D01*
X45988809Y-61395346D01*
X45946639Y-61133662D01*
X45930739Y-60918667D01*
X46891835Y-60918667D01*
X46913033Y-61176356D01*
X46988311Y-61413258D01*
X47145523Y-61619062D01*
X47372001Y-61739437D01*
X47637997Y-61774738D01*
X47892090Y-61729926D01*
X48113984Y-61595491D01*
X48141137Y-61570795D01*
X48288064Y-61358218D01*
X48350823Y-61099709D01*
X48356071Y-60984612D01*
X48324482Y-60726100D01*
X48215289Y-60501177D01*
X48028100Y-60341847D01*
X47956734Y-60306838D01*
X47708794Y-60241723D01*
X47443472Y-60216142D01*
X47242323Y-60211584D01*
X47242323Y-59508164D01*
X47488117Y-59497860D01*
X47744915Y-59464887D01*
X47909106Y-59415352D01*
X48107802Y-59264456D01*
X48214791Y-59029754D01*
X48235170Y-58826727D01*
X48198409Y-58581291D01*
X48067864Y-58360223D01*
X47853142Y-58219196D01*
X47600139Y-58179483D01*
X47348979Y-58215762D01*
X47135314Y-58347782D01*
X47092114Y-58399302D01*
G37*
G36*
X52084438Y-58465247D02*
G01*
X51886569Y-58316233D01*
X51642336Y-58259465D01*
X51582519Y-58257641D01*
X51331073Y-58290199D01*
X51103011Y-58415220D01*
X50974354Y-58591032D01*
X50900471Y-58839549D01*
X50869902Y-59100469D01*
X50864445Y-59201639D01*
X49913119Y-59201639D01*
X49932453Y-58935325D01*
X49969085Y-58692035D01*
X50032130Y-58442183D01*
X50130061Y-58197044D01*
X50142707Y-58172156D01*
X50280058Y-57949105D01*
X50447104Y-57763860D01*
X50643846Y-57616420D01*
X50870284Y-57506785D01*
X51126417Y-57434955D01*
X51412245Y-57400930D01*
X51534891Y-57397906D01*
X51819396Y-57413319D01*
X52081232Y-57459558D01*
X52320399Y-57536624D01*
X52570777Y-57665494D01*
X52790300Y-57836322D01*
X52972548Y-58041210D01*
X53110033Y-58273331D01*
X53202756Y-58532682D01*
X53246606Y-58776658D01*
X53258025Y-58995254D01*
X53237417Y-59264074D01*
X53175593Y-59517323D01*
X53072553Y-59755002D01*
X52928297Y-59977110D01*
X52766009Y-60162034D01*
X52573453Y-60339273D01*
X52365312Y-60505416D01*
X52217550Y-60613363D01*
X51826762Y-60890579D01*
X51619561Y-61039844D01*
X51417594Y-61191811D01*
X51322400Y-61269155D01*
X51150252Y-61456115D01*
X51095254Y-61540265D01*
X53269016Y-61540265D01*
X53269016Y-62400000D01*
X49858164Y-62400000D01*
X49877551Y-62140110D01*
X49922278Y-61891669D01*
X49992345Y-61654677D01*
X50087752Y-61429134D01*
X50206880Y-61210480D01*
X50380472Y-60986215D01*
X50572613Y-60789523D01*
X50763296Y-60622465D01*
X50981767Y-60452544D01*
X51076936Y-60383775D01*
X51277053Y-60240091D01*
X51486339Y-60085302D01*
X51687963Y-59929025D01*
X51879875Y-59766565D01*
X51953768Y-59695010D01*
X52114768Y-59486783D01*
X52222995Y-59243960D01*
X52259071Y-58986706D01*
X52225645Y-58732421D01*
X52115647Y-58505107D01*
X52084438Y-58465247D01*
G37*
G36*
X53692777Y-59977110D02*
G01*
X55665038Y-59977110D01*
X55665038Y-60915003D01*
X53692777Y-60915003D01*
X53692777Y-59977110D01*
G37*
G36*
X58234473Y-61696580D02*
G01*
X58495736Y-61684902D01*
X58750188Y-61641759D01*
X58842637Y-61613538D01*
X59076409Y-61486717D01*
X59233556Y-61285230D01*
X59285505Y-61045710D01*
X59285938Y-61018806D01*
X59223899Y-60781316D01*
X59066120Y-60625575D01*
X58825860Y-60513042D01*
X58569852Y-60433150D01*
X58376133Y-60386217D01*
X57840020Y-60264096D01*
X57560897Y-60195245D01*
X57316120Y-60124248D01*
X57073957Y-60038704D01*
X56831297Y-59924427D01*
X56748255Y-59872086D01*
X56548876Y-59697501D01*
X56398468Y-59484699D01*
X56297029Y-59233678D01*
X56249059Y-58988100D01*
X56236566Y-58762002D01*
X56253954Y-58512331D01*
X56318193Y-58241667D01*
X56429766Y-57993210D01*
X56588673Y-57766958D01*
X56731158Y-57618946D01*
X56932902Y-57464143D01*
X57167189Y-57341368D01*
X57434019Y-57250621D01*
X57681238Y-57199465D01*
X57951056Y-57170550D01*
X58183182Y-57163433D01*
X58427746Y-57173570D01*
X58705954Y-57212496D01*
X58967504Y-57280617D01*
X59212396Y-57377932D01*
X59440629Y-57504443D01*
X59548499Y-57578646D01*
X59741599Y-57747717D01*
X59896831Y-57944438D01*
X60014197Y-58168807D01*
X60093695Y-58420826D01*
X60135326Y-58700493D01*
X60140788Y-58799860D01*
X59124738Y-58799860D01*
X59073790Y-58540161D01*
X58940611Y-58313998D01*
X58726622Y-58150174D01*
X58486796Y-58063353D01*
X58244767Y-58027633D01*
X58111130Y-58023168D01*
X57850045Y-58042937D01*
X57609333Y-58109598D01*
X57459002Y-58190474D01*
X57283691Y-58376572D01*
X57215713Y-58621167D01*
X57214759Y-58658199D01*
X57274904Y-58899084D01*
X57455338Y-59069748D01*
X57697749Y-59168972D01*
X57937937Y-59238739D01*
X58114794Y-59283461D01*
X58986741Y-59495952D01*
X59224354Y-59561418D01*
X59462853Y-59647399D01*
X59689015Y-59758360D01*
X59852581Y-59869644D01*
X60029120Y-60043869D01*
X60162298Y-60249184D01*
X60252115Y-60485586D01*
X60298573Y-60753078D01*
X60305652Y-60919888D01*
X60286976Y-61175756D01*
X60230948Y-61414880D01*
X60118373Y-61672696D01*
X59981416Y-61875542D01*
X59807107Y-62061643D01*
X59774424Y-62091032D01*
X59560258Y-62249156D01*
X59315266Y-62374564D01*
X59039448Y-62467257D01*
X58786052Y-62519510D01*
X58511249Y-62549045D01*
X58275994Y-62556315D01*
X57977190Y-62545313D01*
X57699018Y-62512308D01*
X57441478Y-62457300D01*
X57204569Y-62380288D01*
X56947513Y-62258830D01*
X56720167Y-62105687D01*
X56527597Y-61924766D01*
X56374869Y-61719974D01*
X56261983Y-61491311D01*
X56188939Y-61238777D01*
X56155737Y-60962373D01*
X56153524Y-60864933D01*
X57163468Y-60864933D01*
X57217684Y-61117907D01*
X57327021Y-61350129D01*
X57352756Y-61383949D01*
X57549581Y-61548813D01*
X57787904Y-61644984D01*
X58048404Y-61688948D01*
X58234473Y-61696580D01*
G37*
G36*
X63566423Y-57333702D02*
G01*
X63819601Y-57375562D01*
X64087518Y-57459669D01*
X64325865Y-57581761D01*
X64506629Y-57716643D01*
X64683643Y-57910612D01*
X64817180Y-58146305D01*
X64897036Y-58381537D01*
X64944949Y-58647423D01*
X64960477Y-58892411D01*
X64960921Y-58943963D01*
X64949830Y-59214544D01*
X64916556Y-59459187D01*
X64847348Y-59718518D01*
X64726233Y-59973863D01*
X64561641Y-60178368D01*
X64506629Y-60227459D01*
X64289828Y-60373544D01*
X64035860Y-60483747D01*
X63788593Y-60549650D01*
X63514020Y-60589192D01*
X63264351Y-60602006D01*
X63212142Y-60602372D01*
X62137473Y-60602372D01*
X62137473Y-62400000D01*
X61086008Y-62400000D01*
X61086008Y-58179483D01*
X62137473Y-58179483D01*
X62137473Y-59742637D01*
X63122993Y-59742637D01*
X63380822Y-59715847D01*
X63622584Y-59616871D01*
X63706734Y-59552128D01*
X63847817Y-59341821D01*
X63905863Y-59093839D01*
X63913119Y-58946406D01*
X63888587Y-58689926D01*
X63796340Y-58459370D01*
X63705512Y-58356559D01*
X63491833Y-58235511D01*
X63236069Y-58183806D01*
X63122993Y-58179483D01*
X62137473Y-58179483D01*
X61086008Y-58179483D01*
X61086008Y-57319748D01*
X63291521Y-57319748D01*
X63566423Y-57333702D01*
G37*
G36*
X69251046Y-60211584D02*
G01*
X66792742Y-60211584D01*
X66792742Y-61462107D01*
X69595429Y-61462107D01*
X69595429Y-62400000D01*
X65758374Y-62400000D01*
X65758374Y-57319748D01*
X69470865Y-57319748D01*
X69470865Y-58179483D01*
X66792742Y-58179483D01*
X66792742Y-59351849D01*
X69251046Y-59351849D01*
X69251046Y-60211584D01*
G37*
G36*
X73964933Y-62023866D02*
G01*
X73741322Y-62204815D01*
X73495472Y-62348327D01*
X73227382Y-62454401D01*
X72986985Y-62514197D01*
X72731144Y-62547995D01*
X72515352Y-62556315D01*
X72249700Y-62545343D01*
X71998626Y-62512428D01*
X71705284Y-62440425D01*
X71434720Y-62334135D01*
X71186936Y-62193558D01*
X70961929Y-62018694D01*
X70798325Y-61854117D01*
X70618196Y-61620422D01*
X70468597Y-61361266D01*
X70370900Y-61135609D01*
X70292742Y-60893656D01*
X70234124Y-60635407D01*
X70195045Y-60360863D01*
X70175505Y-60070023D01*
X70173063Y-59918492D01*
X70184168Y-59595538D01*
X70217485Y-59291628D01*
X70273012Y-59006760D01*
X70350750Y-58740936D01*
X70450698Y-58494156D01*
X70572858Y-58266418D01*
X70717228Y-58057724D01*
X70883810Y-57868073D01*
X71085143Y-57687593D01*
X71302934Y-57537702D01*
X71537183Y-57418401D01*
X71787890Y-57329690D01*
X72055054Y-57271569D01*
X72338677Y-57244038D01*
X72456734Y-57241591D01*
X72765357Y-57255196D01*
X73052534Y-57296011D01*
X73318262Y-57364036D01*
X73562543Y-57459272D01*
X73785377Y-57581718D01*
X73986762Y-57731374D01*
X74166701Y-57908240D01*
X74325191Y-58112316D01*
X74469371Y-58348698D01*
X74575846Y-58585232D01*
X74644615Y-58821918D01*
X74675680Y-59058757D01*
X73618108Y-59058757D01*
X73532184Y-58810889D01*
X73411537Y-58585088D01*
X73353105Y-58509211D01*
X73145785Y-58335331D01*
X72912700Y-58233901D01*
X72668533Y-58187533D01*
X72498255Y-58179483D01*
X72224703Y-58208258D01*
X71981681Y-58294583D01*
X71769190Y-58438457D01*
X71587229Y-58639881D01*
X71457799Y-58859003D01*
X71360160Y-59114590D01*
X71301770Y-59362687D01*
X71266737Y-59637575D01*
X71255383Y-59887113D01*
X71255059Y-59939253D01*
X71263645Y-60191880D01*
X71296618Y-60467798D01*
X71354321Y-60714006D01*
X71452896Y-60963699D01*
X71585130Y-61172953D01*
X71606769Y-61199546D01*
X71794607Y-61382804D01*
X72006411Y-61513703D01*
X72242182Y-61592243D01*
X72501919Y-61618422D01*
X72763258Y-61595677D01*
X73017853Y-61515714D01*
X73230716Y-61378177D01*
X73349441Y-61254501D01*
X73480808Y-61045897D01*
X73576291Y-60807188D01*
X73618108Y-60667096D01*
X74665910Y-60667096D01*
X74612410Y-60918537D01*
X74538160Y-61155368D01*
X74421667Y-61420280D01*
X74275293Y-61664156D01*
X74099038Y-61886994D01*
X73964933Y-62023866D01*
G37*
G36*
X79122121Y-57319748D02*
G01*
X79122121Y-58179483D01*
X77607815Y-58179483D01*
X77607815Y-62400000D01*
X76542916Y-62400000D01*
X76542916Y-58179483D01*
X75021284Y-58179483D01*
X75021284Y-57319748D01*
X79122121Y-57319748D01*
G37*
G36*
X82476109Y-57332189D02*
G01*
X82721677Y-57362790D01*
X82969079Y-57424067D01*
X83044661Y-57452861D01*
X83263325Y-57570239D01*
X83452966Y-57725912D01*
X83530704Y-57810676D01*
X83678166Y-58016451D01*
X83790823Y-58242986D01*
X83860071Y-58479585D01*
X83886451Y-58726556D01*
X83887299Y-58782763D01*
X83865798Y-59032500D01*
X83801294Y-59279640D01*
X83705338Y-59502058D01*
X83552245Y-59720311D01*
X83343162Y-59889789D01*
X83104501Y-60001535D01*
X83338516Y-60122607D01*
X83526917Y-60291364D01*
X83600314Y-60398429D01*
X83689615Y-60629640D01*
X83732548Y-60880299D01*
X83746716Y-61150961D01*
X83746859Y-61183670D01*
X83746859Y-61520725D01*
X83752002Y-61779518D01*
X83773726Y-61987229D01*
X83882767Y-62206308D01*
X83966678Y-62274214D01*
X83966678Y-62400000D01*
X82801639Y-62400000D01*
X82738861Y-62158905D01*
X82733251Y-62132554D01*
X82698311Y-61880696D01*
X82689288Y-61703907D01*
X82681960Y-61241067D01*
X82662044Y-60973760D01*
X82595641Y-60735165D01*
X82504884Y-60604815D01*
X82280540Y-60490862D01*
X82033138Y-60451638D01*
X81868632Y-60446057D01*
X80775645Y-60446057D01*
X80775645Y-62400000D01*
X79741277Y-62400000D01*
X79741277Y-58179483D01*
X80775645Y-58179483D01*
X80775645Y-59586322D01*
X81974877Y-59586322D01*
X82235184Y-59572214D01*
X82474771Y-59516114D01*
X82509769Y-59500837D01*
X82702511Y-59348052D01*
X82806295Y-59113178D01*
X82826064Y-58910990D01*
X82801914Y-58667913D01*
X82706804Y-58438247D01*
X82520760Y-58272295D01*
X82272949Y-58197248D01*
X82026688Y-58179574D01*
X82005408Y-58179483D01*
X80775645Y-58179483D01*
X79741277Y-58179483D01*
X79741277Y-57319748D01*
X82225226Y-57319748D01*
X82476109Y-57332189D01*
G37*
G36*
X87763433Y-60487578D02*
G01*
X87763433Y-57319748D01*
X88839323Y-57319748D01*
X88839323Y-60457048D01*
X88833211Y-60702769D01*
X88809740Y-60974337D01*
X88768667Y-61220488D01*
X88698501Y-61475540D01*
X88588974Y-61724668D01*
X88422118Y-61964254D01*
X88213880Y-62163232D01*
X87964258Y-62321602D01*
X87734765Y-62419061D01*
X87478787Y-62490530D01*
X87196324Y-62536011D01*
X86887376Y-62555503D01*
X86806001Y-62556315D01*
X86490374Y-62543320D01*
X86201118Y-62504337D01*
X85938233Y-62439365D01*
X85701718Y-62348403D01*
X85443158Y-62198154D01*
X85225802Y-62007298D01*
X85049650Y-61775834D01*
X85019364Y-61724668D01*
X84909837Y-61475540D01*
X84839671Y-61220488D01*
X84798598Y-60974337D01*
X84775128Y-60702769D01*
X84769016Y-60457048D01*
X84769016Y-57319748D01*
X85843684Y-57319748D01*
X85843684Y-60487578D01*
X85851393Y-60735256D01*
X85882710Y-60994406D01*
X85952091Y-61231398D01*
X85967027Y-61263049D01*
X86111304Y-61472617D01*
X86327065Y-61613600D01*
X86578865Y-61681339D01*
X86804780Y-61696580D01*
X87064307Y-61675835D01*
X87308244Y-61601322D01*
X87515526Y-61452719D01*
X87640090Y-61263049D01*
X87719950Y-61017238D01*
X87753676Y-60763693D01*
X87763433Y-60487578D01*
G37*
G36*
X90788381Y-62400000D02*
G01*
X89802861Y-62400000D01*
X89802861Y-57319748D01*
X91341591Y-57319748D01*
X92261165Y-61314340D01*
X93174633Y-57319748D01*
X94697487Y-57319748D01*
X94697487Y-62400000D01*
X93710746Y-62400000D01*
X93710746Y-58963503D01*
X93712324Y-58718543D01*
X93714410Y-58549511D01*
X93717268Y-58299816D01*
X93718073Y-58136741D01*
X92759420Y-62400000D01*
X91732379Y-62400000D01*
X90781053Y-58136741D01*
X90782785Y-58394283D01*
X90784717Y-58549511D01*
X90787576Y-58798943D01*
X90788381Y-58963503D01*
X90788381Y-62400000D01*
G37*
G36*
X95272679Y-59977110D02*
G01*
X97244940Y-59977110D01*
X97244940Y-60915003D01*
X95272679Y-60915003D01*
X95272679Y-59977110D01*
G37*
G36*
X97602756Y-57319748D02*
G01*
X98733600Y-57319748D01*
X99832693Y-61176343D01*
X100941556Y-57319748D01*
X102040648Y-57319748D01*
X100312630Y-62400000D01*
X99313677Y-62400000D01*
X97602756Y-57319748D01*
G37*
G36*
X104768841Y-62400000D02*
G01*
X103765003Y-62400000D01*
X103765003Y-58961060D01*
X102593859Y-58961060D01*
X102593859Y-58257641D01*
X102856706Y-58242638D01*
X103100338Y-58219282D01*
X103243545Y-58195359D01*
X103481099Y-58113480D01*
X103688932Y-57969725D01*
X103724703Y-57934019D01*
X103864025Y-57720390D01*
X103916434Y-57577424D01*
X103954291Y-57378367D01*
X104768841Y-57378367D01*
X104768841Y-62400000D01*
G37*
G36*
X106439462Y-61383949D02*
G01*
X107479937Y-61383949D01*
X107479937Y-62400000D01*
X106439462Y-62400000D01*
X106439462Y-61383949D01*
G37*
G36*
X110165520Y-57414334D02*
G01*
X110421308Y-57463618D01*
X110691730Y-57566128D01*
X110922311Y-57715951D01*
X111113049Y-57913087D01*
X111218073Y-58070795D01*
X111327840Y-58294525D01*
X111419001Y-58545924D01*
X111491559Y-58824990D01*
X111536209Y-59068165D01*
X111568953Y-59329046D01*
X111589790Y-59607636D01*
X111598720Y-59903933D01*
X111599092Y-59980774D01*
X111593101Y-60281174D01*
X111575126Y-60563828D01*
X111545168Y-60828736D01*
X111503227Y-61075898D01*
X111433949Y-61359896D01*
X111345948Y-61616166D01*
X111239223Y-61844708D01*
X111215631Y-61887090D01*
X111052284Y-62114522D01*
X110848923Y-62294899D01*
X110605549Y-62428221D01*
X110372170Y-62503378D01*
X110111005Y-62545858D01*
X109882065Y-62556315D01*
X109598288Y-62539976D01*
X109342298Y-62490961D01*
X109071789Y-62389009D01*
X108841295Y-62240001D01*
X108650814Y-62043939D01*
X108546057Y-61887090D01*
X108435939Y-61664093D01*
X108344485Y-61413368D01*
X108271695Y-61134916D01*
X108226901Y-60892190D01*
X108194052Y-60631718D01*
X108173149Y-60353501D01*
X108164190Y-60057538D01*
X108163817Y-59980774D01*
X108163914Y-59975889D01*
X109162770Y-59975889D01*
X109166199Y-60238737D01*
X109179365Y-60527706D01*
X109202406Y-60787825D01*
X109241767Y-61054832D01*
X109303210Y-61311898D01*
X109406174Y-61535634D01*
X109595251Y-61709651D01*
X109853883Y-61774286D01*
X109880844Y-61774738D01*
X110124753Y-61729300D01*
X110325282Y-61574357D01*
X110445973Y-61338081D01*
X110454815Y-61309455D01*
X110513586Y-61053458D01*
X110551236Y-60787136D01*
X110573275Y-60527418D01*
X110585869Y-60238677D01*
X110589148Y-59975889D01*
X110585839Y-59701295D01*
X110575910Y-59449956D01*
X110555259Y-59179047D01*
X110519120Y-58905311D01*
X110461933Y-58648284D01*
X110453593Y-58620341D01*
X110339415Y-58387858D01*
X110145772Y-58231577D01*
X109880844Y-58179483D01*
X109637102Y-58222536D01*
X109435379Y-58369345D01*
X109312351Y-58593218D01*
X109303210Y-58620341D01*
X109241767Y-58869927D01*
X109202406Y-59137151D01*
X109179365Y-59402479D01*
X109167707Y-59649167D01*
X109162907Y-59919110D01*
X109162770Y-59975889D01*
X108163914Y-59975889D01*
X108169789Y-59680050D01*
X108187707Y-59397034D01*
X108217569Y-59131725D01*
X108259377Y-58884124D01*
X108328434Y-58599524D01*
X108416155Y-58342592D01*
X108522540Y-58113328D01*
X108546057Y-58070795D01*
X108709862Y-57842118D01*
X108913680Y-57660753D01*
X109157513Y-57526701D01*
X109391273Y-57451133D01*
X109652820Y-57408420D01*
X109882065Y-57397906D01*
X110165520Y-57414334D01*
G37*
X208441101Y-30367219D02*
X208107768Y-29891028D01*
X207869673Y-30367219D02*
X207869673Y-29367219D01*
X207869673Y-29367219D02*
X208250625Y-29367219D01*
X208250625Y-29367219D02*
X208345863Y-29414838D01*
X208345863Y-29414838D02*
X208393482Y-29462457D01*
X208393482Y-29462457D02*
X208441101Y-29557695D01*
X208441101Y-29557695D02*
X208441101Y-29700552D01*
X208441101Y-29700552D02*
X208393482Y-29795790D01*
X208393482Y-29795790D02*
X208345863Y-29843409D01*
X208345863Y-29843409D02*
X208250625Y-29891028D01*
X208250625Y-29891028D02*
X207869673Y-29891028D01*
X208869673Y-29843409D02*
X209203006Y-29843409D01*
X209345863Y-30367219D02*
X208869673Y-30367219D01*
X208869673Y-30367219D02*
X208869673Y-29367219D01*
X208869673Y-29367219D02*
X209345863Y-29367219D01*
X209726816Y-30319600D02*
X209869673Y-30367219D01*
X209869673Y-30367219D02*
X210107768Y-30367219D01*
X210107768Y-30367219D02*
X210203006Y-30319600D01*
X210203006Y-30319600D02*
X210250625Y-30271980D01*
X210250625Y-30271980D02*
X210298244Y-30176742D01*
X210298244Y-30176742D02*
X210298244Y-30081504D01*
X210298244Y-30081504D02*
X210250625Y-29986266D01*
X210250625Y-29986266D02*
X210203006Y-29938647D01*
X210203006Y-29938647D02*
X210107768Y-29891028D01*
X210107768Y-29891028D02*
X209917292Y-29843409D01*
X209917292Y-29843409D02*
X209822054Y-29795790D01*
X209822054Y-29795790D02*
X209774435Y-29748171D01*
X209774435Y-29748171D02*
X209726816Y-29652933D01*
X209726816Y-29652933D02*
X209726816Y-29557695D01*
X209726816Y-29557695D02*
X209774435Y-29462457D01*
X209774435Y-29462457D02*
X209822054Y-29414838D01*
X209822054Y-29414838D02*
X209917292Y-29367219D01*
X209917292Y-29367219D02*
X210155387Y-29367219D01*
X210155387Y-29367219D02*
X210298244Y-29414838D01*
X210726816Y-29843409D02*
X211060149Y-29843409D01*
X211203006Y-30367219D02*
X210726816Y-30367219D01*
X210726816Y-30367219D02*
X210726816Y-29367219D01*
X210726816Y-29367219D02*
X211203006Y-29367219D01*
X211488721Y-29367219D02*
X212060149Y-29367219D01*
X211774435Y-30367219D02*
X211774435Y-29367219D01*
X248953006Y-30093409D02*
X249095863Y-30141028D01*
X249095863Y-30141028D02*
X249143482Y-30188647D01*
X249143482Y-30188647D02*
X249191101Y-30283885D01*
X249191101Y-30283885D02*
X249191101Y-30426742D01*
X249191101Y-30426742D02*
X249143482Y-30521980D01*
X249143482Y-30521980D02*
X249095863Y-30569600D01*
X249095863Y-30569600D02*
X249000625Y-30617219D01*
X249000625Y-30617219D02*
X248619673Y-30617219D01*
X248619673Y-30617219D02*
X248619673Y-29617219D01*
X248619673Y-29617219D02*
X248953006Y-29617219D01*
X248953006Y-29617219D02*
X249048244Y-29664838D01*
X249048244Y-29664838D02*
X249095863Y-29712457D01*
X249095863Y-29712457D02*
X249143482Y-29807695D01*
X249143482Y-29807695D02*
X249143482Y-29902933D01*
X249143482Y-29902933D02*
X249095863Y-29998171D01*
X249095863Y-29998171D02*
X249048244Y-30045790D01*
X249048244Y-30045790D02*
X248953006Y-30093409D01*
X248953006Y-30093409D02*
X248619673Y-30093409D01*
X249810149Y-29617219D02*
X250000625Y-29617219D01*
X250000625Y-29617219D02*
X250095863Y-29664838D01*
X250095863Y-29664838D02*
X250191101Y-29760076D01*
X250191101Y-29760076D02*
X250238720Y-29950552D01*
X250238720Y-29950552D02*
X250238720Y-30283885D01*
X250238720Y-30283885D02*
X250191101Y-30474361D01*
X250191101Y-30474361D02*
X250095863Y-30569600D01*
X250095863Y-30569600D02*
X250000625Y-30617219D01*
X250000625Y-30617219D02*
X249810149Y-30617219D01*
X249810149Y-30617219D02*
X249714911Y-30569600D01*
X249714911Y-30569600D02*
X249619673Y-30474361D01*
X249619673Y-30474361D02*
X249572054Y-30283885D01*
X249572054Y-30283885D02*
X249572054Y-29950552D01*
X249572054Y-29950552D02*
X249619673Y-29760076D01*
X249619673Y-29760076D02*
X249714911Y-29664838D01*
X249714911Y-29664838D02*
X249810149Y-29617219D01*
X250857768Y-29617219D02*
X251048244Y-29617219D01*
X251048244Y-29617219D02*
X251143482Y-29664838D01*
X251143482Y-29664838D02*
X251238720Y-29760076D01*
X251238720Y-29760076D02*
X251286339Y-29950552D01*
X251286339Y-29950552D02*
X251286339Y-30283885D01*
X251286339Y-30283885D02*
X251238720Y-30474361D01*
X251238720Y-30474361D02*
X251143482Y-30569600D01*
X251143482Y-30569600D02*
X251048244Y-30617219D01*
X251048244Y-30617219D02*
X250857768Y-30617219D01*
X250857768Y-30617219D02*
X250762530Y-30569600D01*
X250762530Y-30569600D02*
X250667292Y-30474361D01*
X250667292Y-30474361D02*
X250619673Y-30283885D01*
X250619673Y-30283885D02*
X250619673Y-29950552D01*
X250619673Y-29950552D02*
X250667292Y-29760076D01*
X250667292Y-29760076D02*
X250762530Y-29664838D01*
X250762530Y-29664838D02*
X250857768Y-29617219D01*
X251572054Y-29617219D02*
X252143482Y-29617219D01*
X251857768Y-30617219D02*
X251857768Y-29617219D01*
D11*
X227741541Y-42119819D02*
X227979636Y-43119819D01*
X227979636Y-43119819D02*
X228170112Y-42405533D01*
X228170112Y-42405533D02*
X228360588Y-43119819D01*
X228360588Y-43119819D02*
X228598684Y-42119819D01*
X229408207Y-43119819D02*
X229408207Y-42596009D01*
X229408207Y-42596009D02*
X229360588Y-42500771D01*
X229360588Y-42500771D02*
X229265350Y-42453152D01*
X229265350Y-42453152D02*
X229074874Y-42453152D01*
X229074874Y-42453152D02*
X228979636Y-42500771D01*
X229408207Y-43072200D02*
X229312969Y-43119819D01*
X229312969Y-43119819D02*
X229074874Y-43119819D01*
X229074874Y-43119819D02*
X228979636Y-43072200D01*
X228979636Y-43072200D02*
X228932017Y-42976961D01*
X228932017Y-42976961D02*
X228932017Y-42881723D01*
X228932017Y-42881723D02*
X228979636Y-42786485D01*
X228979636Y-42786485D02*
X229074874Y-42738866D01*
X229074874Y-42738866D02*
X229312969Y-42738866D01*
X229312969Y-42738866D02*
X229408207Y-42691247D01*
X229789160Y-42453152D02*
X230027255Y-43119819D01*
X230265350Y-42453152D02*
X230027255Y-43119819D01*
X230027255Y-43119819D02*
X229932017Y-43357914D01*
X229932017Y-43357914D02*
X229884398Y-43405533D01*
X229884398Y-43405533D02*
X229789160Y-43453152D01*
X230551065Y-42119819D02*
X230789160Y-43119819D01*
X230789160Y-43119819D02*
X230979636Y-42405533D01*
X230979636Y-42405533D02*
X231170112Y-43119819D01*
X231170112Y-43119819D02*
X231408208Y-42119819D01*
X232217731Y-43119819D02*
X232217731Y-42596009D01*
X232217731Y-42596009D02*
X232170112Y-42500771D01*
X232170112Y-42500771D02*
X232074874Y-42453152D01*
X232074874Y-42453152D02*
X231884398Y-42453152D01*
X231884398Y-42453152D02*
X231789160Y-42500771D01*
X232217731Y-43072200D02*
X232122493Y-43119819D01*
X232122493Y-43119819D02*
X231884398Y-43119819D01*
X231884398Y-43119819D02*
X231789160Y-43072200D01*
X231789160Y-43072200D02*
X231741541Y-42976961D01*
X231741541Y-42976961D02*
X231741541Y-42881723D01*
X231741541Y-42881723D02*
X231789160Y-42786485D01*
X231789160Y-42786485D02*
X231884398Y-42738866D01*
X231884398Y-42738866D02*
X232122493Y-42738866D01*
X232122493Y-42738866D02*
X232217731Y-42691247D01*
X232598684Y-42453152D02*
X232836779Y-43119819D01*
X233074874Y-42453152D02*
X232836779Y-43119819D01*
X232836779Y-43119819D02*
X232741541Y-43357914D01*
X232741541Y-43357914D02*
X232693922Y-43405533D01*
X232693922Y-43405533D02*
X232598684Y-43453152D01*
X233360589Y-42119819D02*
X233598684Y-43119819D01*
X233598684Y-43119819D02*
X233789160Y-42405533D01*
X233789160Y-42405533D02*
X233979636Y-43119819D01*
X233979636Y-43119819D02*
X234217732Y-42119819D01*
X235027255Y-43119819D02*
X235027255Y-42596009D01*
X235027255Y-42596009D02*
X234979636Y-42500771D01*
X234979636Y-42500771D02*
X234884398Y-42453152D01*
X234884398Y-42453152D02*
X234693922Y-42453152D01*
X234693922Y-42453152D02*
X234598684Y-42500771D01*
X235027255Y-43072200D02*
X234932017Y-43119819D01*
X234932017Y-43119819D02*
X234693922Y-43119819D01*
X234693922Y-43119819D02*
X234598684Y-43072200D01*
X234598684Y-43072200D02*
X234551065Y-42976961D01*
X234551065Y-42976961D02*
X234551065Y-42881723D01*
X234551065Y-42881723D02*
X234598684Y-42786485D01*
X234598684Y-42786485D02*
X234693922Y-42738866D01*
X234693922Y-42738866D02*
X234932017Y-42738866D01*
X234932017Y-42738866D02*
X235027255Y-42691247D01*
X235408208Y-42453152D02*
X235646303Y-43119819D01*
X235884398Y-42453152D02*
X235646303Y-43119819D01*
X235646303Y-43119819D02*
X235551065Y-43357914D01*
X235551065Y-43357914D02*
X235503446Y-43405533D01*
X235503446Y-43405533D02*
X235408208Y-43453152D01*
X185333333Y-41859580D02*
X185285714Y-41907200D01*
X185285714Y-41907200D02*
X185142857Y-41954819D01*
X185142857Y-41954819D02*
X185047619Y-41954819D01*
X185047619Y-41954819D02*
X184904762Y-41907200D01*
X184904762Y-41907200D02*
X184809524Y-41811961D01*
X184809524Y-41811961D02*
X184761905Y-41716723D01*
X184761905Y-41716723D02*
X184714286Y-41526247D01*
X184714286Y-41526247D02*
X184714286Y-41383390D01*
X184714286Y-41383390D02*
X184761905Y-41192914D01*
X184761905Y-41192914D02*
X184809524Y-41097676D01*
X184809524Y-41097676D02*
X184904762Y-41002438D01*
X184904762Y-41002438D02*
X185047619Y-40954819D01*
X185047619Y-40954819D02*
X185142857Y-40954819D01*
X185142857Y-40954819D02*
X185285714Y-41002438D01*
X185285714Y-41002438D02*
X185333333Y-41050057D01*
X185714286Y-41050057D02*
X185761905Y-41002438D01*
X185761905Y-41002438D02*
X185857143Y-40954819D01*
X185857143Y-40954819D02*
X186095238Y-40954819D01*
X186095238Y-40954819D02*
X186190476Y-41002438D01*
X186190476Y-41002438D02*
X186238095Y-41050057D01*
X186238095Y-41050057D02*
X186285714Y-41145295D01*
X186285714Y-41145295D02*
X186285714Y-41240533D01*
X186285714Y-41240533D02*
X186238095Y-41383390D01*
X186238095Y-41383390D02*
X185666667Y-41954819D01*
X185666667Y-41954819D02*
X186285714Y-41954819D01*
X35470833Y-33074819D02*
X35137500Y-32598628D01*
X34899405Y-33074819D02*
X34899405Y-32074819D01*
X34899405Y-32074819D02*
X35280357Y-32074819D01*
X35280357Y-32074819D02*
X35375595Y-32122438D01*
X35375595Y-32122438D02*
X35423214Y-32170057D01*
X35423214Y-32170057D02*
X35470833Y-32265295D01*
X35470833Y-32265295D02*
X35470833Y-32408152D01*
X35470833Y-32408152D02*
X35423214Y-32503390D01*
X35423214Y-32503390D02*
X35375595Y-32551009D01*
X35375595Y-32551009D02*
X35280357Y-32598628D01*
X35280357Y-32598628D02*
X34899405Y-32598628D01*
X35804167Y-32074819D02*
X36423214Y-32074819D01*
X36423214Y-32074819D02*
X36089881Y-32455771D01*
X36089881Y-32455771D02*
X36232738Y-32455771D01*
X36232738Y-32455771D02*
X36327976Y-32503390D01*
X36327976Y-32503390D02*
X36375595Y-32551009D01*
X36375595Y-32551009D02*
X36423214Y-32646247D01*
X36423214Y-32646247D02*
X36423214Y-32884342D01*
X36423214Y-32884342D02*
X36375595Y-32979580D01*
X36375595Y-32979580D02*
X36327976Y-33027200D01*
X36327976Y-33027200D02*
X36232738Y-33074819D01*
X36232738Y-33074819D02*
X35947024Y-33074819D01*
X35947024Y-33074819D02*
X35851786Y-33027200D01*
X35851786Y-33027200D02*
X35804167Y-32979580D01*
X216359580Y-30666666D02*
X216407200Y-30714285D01*
X216407200Y-30714285D02*
X216454819Y-30857142D01*
X216454819Y-30857142D02*
X216454819Y-30952380D01*
X216454819Y-30952380D02*
X216407200Y-31095237D01*
X216407200Y-31095237D02*
X216311961Y-31190475D01*
X216311961Y-31190475D02*
X216216723Y-31238094D01*
X216216723Y-31238094D02*
X216026247Y-31285713D01*
X216026247Y-31285713D02*
X215883390Y-31285713D01*
X215883390Y-31285713D02*
X215692914Y-31238094D01*
X215692914Y-31238094D02*
X215597676Y-31190475D01*
X215597676Y-31190475D02*
X215502438Y-31095237D01*
X215502438Y-31095237D02*
X215454819Y-30952380D01*
X215454819Y-30952380D02*
X215454819Y-30857142D01*
X215454819Y-30857142D02*
X215502438Y-30714285D01*
X215502438Y-30714285D02*
X215550057Y-30666666D01*
X215454819Y-30333332D02*
X215454819Y-29666666D01*
X215454819Y-29666666D02*
X216454819Y-30095237D01*
X188333333Y-46204819D02*
X188000000Y-45728628D01*
X187761905Y-46204819D02*
X187761905Y-45204819D01*
X187761905Y-45204819D02*
X188142857Y-45204819D01*
X188142857Y-45204819D02*
X188238095Y-45252438D01*
X188238095Y-45252438D02*
X188285714Y-45300057D01*
X188285714Y-45300057D02*
X188333333Y-45395295D01*
X188333333Y-45395295D02*
X188333333Y-45538152D01*
X188333333Y-45538152D02*
X188285714Y-45633390D01*
X188285714Y-45633390D02*
X188238095Y-45681009D01*
X188238095Y-45681009D02*
X188142857Y-45728628D01*
X188142857Y-45728628D02*
X187761905Y-45728628D01*
X189238095Y-45204819D02*
X188761905Y-45204819D01*
X188761905Y-45204819D02*
X188714286Y-45681009D01*
X188714286Y-45681009D02*
X188761905Y-45633390D01*
X188761905Y-45633390D02*
X188857143Y-45585771D01*
X188857143Y-45585771D02*
X189095238Y-45585771D01*
X189095238Y-45585771D02*
X189190476Y-45633390D01*
X189190476Y-45633390D02*
X189238095Y-45681009D01*
X189238095Y-45681009D02*
X189285714Y-45776247D01*
X189285714Y-45776247D02*
X189285714Y-46014342D01*
X189285714Y-46014342D02*
X189238095Y-46109580D01*
X189238095Y-46109580D02*
X189190476Y-46157200D01*
X189190476Y-46157200D02*
X189095238Y-46204819D01*
X189095238Y-46204819D02*
X188857143Y-46204819D01*
X188857143Y-46204819D02*
X188761905Y-46157200D01*
X188761905Y-46157200D02*
X188714286Y-46109580D01*
X66809523Y-27359580D02*
X66761904Y-27407200D01*
X66761904Y-27407200D02*
X66619047Y-27454819D01*
X66619047Y-27454819D02*
X66523809Y-27454819D01*
X66523809Y-27454819D02*
X66380952Y-27407200D01*
X66380952Y-27407200D02*
X66285714Y-27311961D01*
X66285714Y-27311961D02*
X66238095Y-27216723D01*
X66238095Y-27216723D02*
X66190476Y-27026247D01*
X66190476Y-27026247D02*
X66190476Y-26883390D01*
X66190476Y-26883390D02*
X66238095Y-26692914D01*
X66238095Y-26692914D02*
X66285714Y-26597676D01*
X66285714Y-26597676D02*
X66380952Y-26502438D01*
X66380952Y-26502438D02*
X66523809Y-26454819D01*
X66523809Y-26454819D02*
X66619047Y-26454819D01*
X66619047Y-26454819D02*
X66761904Y-26502438D01*
X66761904Y-26502438D02*
X66809523Y-26550057D01*
X67238095Y-27454819D02*
X67238095Y-26454819D01*
X67238095Y-26454819D02*
X67809523Y-27454819D01*
X67809523Y-27454819D02*
X67809523Y-26454819D01*
X68809523Y-27454819D02*
X68238095Y-27454819D01*
X68523809Y-27454819D02*
X68523809Y-26454819D01*
X68523809Y-26454819D02*
X68428571Y-26597676D01*
X68428571Y-26597676D02*
X68333333Y-26692914D01*
X68333333Y-26692914D02*
X68238095Y-26740533D01*
D12*
X45529047Y-54445270D02*
X45408095Y-54384794D01*
X45408095Y-54384794D02*
X45287142Y-54263842D01*
X45287142Y-54263842D02*
X45105714Y-54082413D01*
X45105714Y-54082413D02*
X44984761Y-54021937D01*
X44984761Y-54021937D02*
X44863809Y-54021937D01*
X44924285Y-54324318D02*
X44803333Y-54263842D01*
X44803333Y-54263842D02*
X44682380Y-54142889D01*
X44682380Y-54142889D02*
X44621904Y-53900984D01*
X44621904Y-53900984D02*
X44621904Y-53477651D01*
X44621904Y-53477651D02*
X44682380Y-53235746D01*
X44682380Y-53235746D02*
X44803333Y-53114794D01*
X44803333Y-53114794D02*
X44924285Y-53054318D01*
X44924285Y-53054318D02*
X45166190Y-53054318D01*
X45166190Y-53054318D02*
X45287142Y-53114794D01*
X45287142Y-53114794D02*
X45408095Y-53235746D01*
X45408095Y-53235746D02*
X45468571Y-53477651D01*
X45468571Y-53477651D02*
X45468571Y-53900984D01*
X45468571Y-53900984D02*
X45408095Y-54142889D01*
X45408095Y-54142889D02*
X45287142Y-54263842D01*
X45287142Y-54263842D02*
X45166190Y-54324318D01*
X45166190Y-54324318D02*
X44924285Y-54324318D01*
X45952380Y-53175270D02*
X46012856Y-53114794D01*
X46012856Y-53114794D02*
X46133809Y-53054318D01*
X46133809Y-53054318D02*
X46436190Y-53054318D01*
X46436190Y-53054318D02*
X46557142Y-53114794D01*
X46557142Y-53114794D02*
X46617618Y-53175270D01*
X46617618Y-53175270D02*
X46678095Y-53296222D01*
X46678095Y-53296222D02*
X46678095Y-53417175D01*
X46678095Y-53417175D02*
X46617618Y-53598603D01*
X46617618Y-53598603D02*
X45891904Y-54324318D01*
X45891904Y-54324318D02*
X46678095Y-54324318D01*
X219629047Y-22945270D02*
X219508095Y-22884794D01*
X219508095Y-22884794D02*
X219387142Y-22763842D01*
X219387142Y-22763842D02*
X219205714Y-22582413D01*
X219205714Y-22582413D02*
X219084761Y-22521937D01*
X219084761Y-22521937D02*
X218963809Y-22521937D01*
X219024285Y-22824318D02*
X218903333Y-22763842D01*
X218903333Y-22763842D02*
X218782380Y-22642889D01*
X218782380Y-22642889D02*
X218721904Y-22400984D01*
X218721904Y-22400984D02*
X218721904Y-21977651D01*
X218721904Y-21977651D02*
X218782380Y-21735746D01*
X218782380Y-21735746D02*
X218903333Y-21614794D01*
X218903333Y-21614794D02*
X219024285Y-21554318D01*
X219024285Y-21554318D02*
X219266190Y-21554318D01*
X219266190Y-21554318D02*
X219387142Y-21614794D01*
X219387142Y-21614794D02*
X219508095Y-21735746D01*
X219508095Y-21735746D02*
X219568571Y-21977651D01*
X219568571Y-21977651D02*
X219568571Y-22400984D01*
X219568571Y-22400984D02*
X219508095Y-22642889D01*
X219508095Y-22642889D02*
X219387142Y-22763842D01*
X219387142Y-22763842D02*
X219266190Y-22824318D01*
X219266190Y-22824318D02*
X219024285Y-22824318D01*
X220778095Y-22824318D02*
X220052380Y-22824318D01*
X220415237Y-22824318D02*
X220415237Y-21554318D01*
X220415237Y-21554318D02*
X220294285Y-21735746D01*
X220294285Y-21735746D02*
X220173333Y-21856699D01*
X220173333Y-21856699D02*
X220052380Y-21917175D01*
D11*
X198741666Y-22204819D02*
X198741666Y-22919104D01*
X198741666Y-22919104D02*
X198694047Y-23061961D01*
X198694047Y-23061961D02*
X198598809Y-23157200D01*
X198598809Y-23157200D02*
X198455952Y-23204819D01*
X198455952Y-23204819D02*
X198360714Y-23204819D01*
X199741666Y-23204819D02*
X199170238Y-23204819D01*
X199455952Y-23204819D02*
X199455952Y-22204819D01*
X199455952Y-22204819D02*
X199360714Y-22347676D01*
X199360714Y-22347676D02*
X199265476Y-22442914D01*
X199265476Y-22442914D02*
X199170238Y-22490533D01*
X216359580Y-27416666D02*
X216407200Y-27464285D01*
X216407200Y-27464285D02*
X216454819Y-27607142D01*
X216454819Y-27607142D02*
X216454819Y-27702380D01*
X216454819Y-27702380D02*
X216407200Y-27845237D01*
X216407200Y-27845237D02*
X216311961Y-27940475D01*
X216311961Y-27940475D02*
X216216723Y-27988094D01*
X216216723Y-27988094D02*
X216026247Y-28035713D01*
X216026247Y-28035713D02*
X215883390Y-28035713D01*
X215883390Y-28035713D02*
X215692914Y-27988094D01*
X215692914Y-27988094D02*
X215597676Y-27940475D01*
X215597676Y-27940475D02*
X215502438Y-27845237D01*
X215502438Y-27845237D02*
X215454819Y-27702380D01*
X215454819Y-27702380D02*
X215454819Y-27607142D01*
X215454819Y-27607142D02*
X215502438Y-27464285D01*
X215502438Y-27464285D02*
X215550057Y-27416666D01*
X215788152Y-26559523D02*
X216454819Y-26559523D01*
X215407200Y-26797618D02*
X216121485Y-27035713D01*
X216121485Y-27035713D02*
X216121485Y-26416666D01*
X254454819Y-36892857D02*
X253978628Y-37226190D01*
X254454819Y-37464285D02*
X253454819Y-37464285D01*
X253454819Y-37464285D02*
X253454819Y-37083333D01*
X253454819Y-37083333D02*
X253502438Y-36988095D01*
X253502438Y-36988095D02*
X253550057Y-36940476D01*
X253550057Y-36940476D02*
X253645295Y-36892857D01*
X253645295Y-36892857D02*
X253788152Y-36892857D01*
X253788152Y-36892857D02*
X253883390Y-36940476D01*
X253883390Y-36940476D02*
X253931009Y-36988095D01*
X253931009Y-36988095D02*
X253978628Y-37083333D01*
X253978628Y-37083333D02*
X253978628Y-37464285D01*
X253454819Y-36559523D02*
X253454819Y-35940476D01*
X253454819Y-35940476D02*
X253835771Y-36273809D01*
X253835771Y-36273809D02*
X253835771Y-36130952D01*
X253835771Y-36130952D02*
X253883390Y-36035714D01*
X253883390Y-36035714D02*
X253931009Y-35988095D01*
X253931009Y-35988095D02*
X254026247Y-35940476D01*
X254026247Y-35940476D02*
X254264342Y-35940476D01*
X254264342Y-35940476D02*
X254359580Y-35988095D01*
X254359580Y-35988095D02*
X254407200Y-36035714D01*
X254407200Y-36035714D02*
X254454819Y-36130952D01*
X254454819Y-36130952D02*
X254454819Y-36416666D01*
X254454819Y-36416666D02*
X254407200Y-36511904D01*
X254407200Y-36511904D02*
X254359580Y-36559523D01*
X253454819Y-35321428D02*
X253454819Y-35226190D01*
X253454819Y-35226190D02*
X253502438Y-35130952D01*
X253502438Y-35130952D02*
X253550057Y-35083333D01*
X253550057Y-35083333D02*
X253645295Y-35035714D01*
X253645295Y-35035714D02*
X253835771Y-34988095D01*
X253835771Y-34988095D02*
X254073866Y-34988095D01*
X254073866Y-34988095D02*
X254264342Y-35035714D01*
X254264342Y-35035714D02*
X254359580Y-35083333D01*
X254359580Y-35083333D02*
X254407200Y-35130952D01*
X254407200Y-35130952D02*
X254454819Y-35226190D01*
X254454819Y-35226190D02*
X254454819Y-35321428D01*
X254454819Y-35321428D02*
X254407200Y-35416666D01*
X254407200Y-35416666D02*
X254359580Y-35464285D01*
X254359580Y-35464285D02*
X254264342Y-35511904D01*
X254264342Y-35511904D02*
X254073866Y-35559523D01*
X254073866Y-35559523D02*
X253835771Y-35559523D01*
X253835771Y-35559523D02*
X253645295Y-35511904D01*
X253645295Y-35511904D02*
X253550057Y-35464285D01*
X253550057Y-35464285D02*
X253502438Y-35416666D01*
X253502438Y-35416666D02*
X253454819Y-35321428D01*
X202024819Y-32142857D02*
X201548628Y-32476190D01*
X202024819Y-32714285D02*
X201024819Y-32714285D01*
X201024819Y-32714285D02*
X201024819Y-32333333D01*
X201024819Y-32333333D02*
X201072438Y-32238095D01*
X201072438Y-32238095D02*
X201120057Y-32190476D01*
X201120057Y-32190476D02*
X201215295Y-32142857D01*
X201215295Y-32142857D02*
X201358152Y-32142857D01*
X201358152Y-32142857D02*
X201453390Y-32190476D01*
X201453390Y-32190476D02*
X201501009Y-32238095D01*
X201501009Y-32238095D02*
X201548628Y-32333333D01*
X201548628Y-32333333D02*
X201548628Y-32714285D01*
X202024819Y-31190476D02*
X202024819Y-31761904D01*
X202024819Y-31476190D02*
X201024819Y-31476190D01*
X201024819Y-31476190D02*
X201167676Y-31571428D01*
X201167676Y-31571428D02*
X201262914Y-31666666D01*
X201262914Y-31666666D02*
X201310533Y-31761904D01*
X201024819Y-30571428D02*
X201024819Y-30476190D01*
X201024819Y-30476190D02*
X201072438Y-30380952D01*
X201072438Y-30380952D02*
X201120057Y-30333333D01*
X201120057Y-30333333D02*
X201215295Y-30285714D01*
X201215295Y-30285714D02*
X201405771Y-30238095D01*
X201405771Y-30238095D02*
X201643866Y-30238095D01*
X201643866Y-30238095D02*
X201834342Y-30285714D01*
X201834342Y-30285714D02*
X201929580Y-30333333D01*
X201929580Y-30333333D02*
X201977200Y-30380952D01*
X201977200Y-30380952D02*
X202024819Y-30476190D01*
X202024819Y-30476190D02*
X202024819Y-30571428D01*
X202024819Y-30571428D02*
X201977200Y-30666666D01*
X201977200Y-30666666D02*
X201929580Y-30714285D01*
X201929580Y-30714285D02*
X201834342Y-30761904D01*
X201834342Y-30761904D02*
X201643866Y-30809523D01*
X201643866Y-30809523D02*
X201405771Y-30809523D01*
X201405771Y-30809523D02*
X201215295Y-30761904D01*
X201215295Y-30761904D02*
X201120057Y-30714285D01*
X201120057Y-30714285D02*
X201072438Y-30666666D01*
X201072438Y-30666666D02*
X201024819Y-30571428D01*
X191286905Y-26204819D02*
X191286905Y-25204819D01*
X191286905Y-25204819D02*
X191525000Y-25204819D01*
X191525000Y-25204819D02*
X191667857Y-25252438D01*
X191667857Y-25252438D02*
X191763095Y-25347676D01*
X191763095Y-25347676D02*
X191810714Y-25442914D01*
X191810714Y-25442914D02*
X191858333Y-25633390D01*
X191858333Y-25633390D02*
X191858333Y-25776247D01*
X191858333Y-25776247D02*
X191810714Y-25966723D01*
X191810714Y-25966723D02*
X191763095Y-26061961D01*
X191763095Y-26061961D02*
X191667857Y-26157200D01*
X191667857Y-26157200D02*
X191525000Y-26204819D01*
X191525000Y-26204819D02*
X191286905Y-26204819D01*
X192191667Y-25204819D02*
X192810714Y-25204819D01*
X192810714Y-25204819D02*
X192477381Y-25585771D01*
X192477381Y-25585771D02*
X192620238Y-25585771D01*
X192620238Y-25585771D02*
X192715476Y-25633390D01*
X192715476Y-25633390D02*
X192763095Y-25681009D01*
X192763095Y-25681009D02*
X192810714Y-25776247D01*
X192810714Y-25776247D02*
X192810714Y-26014342D01*
X192810714Y-26014342D02*
X192763095Y-26109580D01*
X192763095Y-26109580D02*
X192715476Y-26157200D01*
X192715476Y-26157200D02*
X192620238Y-26204819D01*
X192620238Y-26204819D02*
X192334524Y-26204819D01*
X192334524Y-26204819D02*
X192239286Y-26157200D01*
X192239286Y-26157200D02*
X192191667Y-26109580D01*
X258954819Y-62738094D02*
X257954819Y-62738094D01*
X257954819Y-62738094D02*
X257954819Y-62499999D01*
X257954819Y-62499999D02*
X258002438Y-62357142D01*
X258002438Y-62357142D02*
X258097676Y-62261904D01*
X258097676Y-62261904D02*
X258192914Y-62214285D01*
X258192914Y-62214285D02*
X258383390Y-62166666D01*
X258383390Y-62166666D02*
X258526247Y-62166666D01*
X258526247Y-62166666D02*
X258716723Y-62214285D01*
X258716723Y-62214285D02*
X258811961Y-62261904D01*
X258811961Y-62261904D02*
X258907200Y-62357142D01*
X258907200Y-62357142D02*
X258954819Y-62499999D01*
X258954819Y-62499999D02*
X258954819Y-62738094D01*
X258288152Y-61309523D02*
X258954819Y-61309523D01*
X257907200Y-61547618D02*
X258621485Y-61785713D01*
X258621485Y-61785713D02*
X258621485Y-61166666D01*
X257204819Y-62892857D02*
X256728628Y-63226190D01*
X257204819Y-63464285D02*
X256204819Y-63464285D01*
X256204819Y-63464285D02*
X256204819Y-63083333D01*
X256204819Y-63083333D02*
X256252438Y-62988095D01*
X256252438Y-62988095D02*
X256300057Y-62940476D01*
X256300057Y-62940476D02*
X256395295Y-62892857D01*
X256395295Y-62892857D02*
X256538152Y-62892857D01*
X256538152Y-62892857D02*
X256633390Y-62940476D01*
X256633390Y-62940476D02*
X256681009Y-62988095D01*
X256681009Y-62988095D02*
X256728628Y-63083333D01*
X256728628Y-63083333D02*
X256728628Y-63464285D01*
X257204819Y-61940476D02*
X257204819Y-62511904D01*
X257204819Y-62226190D02*
X256204819Y-62226190D01*
X256204819Y-62226190D02*
X256347676Y-62321428D01*
X256347676Y-62321428D02*
X256442914Y-62416666D01*
X256442914Y-62416666D02*
X256490533Y-62511904D01*
X257204819Y-60988095D02*
X257204819Y-61559523D01*
X257204819Y-61273809D02*
X256204819Y-61273809D01*
X256204819Y-61273809D02*
X256347676Y-61369047D01*
X256347676Y-61369047D02*
X256442914Y-61464285D01*
X256442914Y-61464285D02*
X256490533Y-61559523D01*
X256204819Y-36892857D02*
X255728628Y-37226190D01*
X256204819Y-37464285D02*
X255204819Y-37464285D01*
X255204819Y-37464285D02*
X255204819Y-37083333D01*
X255204819Y-37083333D02*
X255252438Y-36988095D01*
X255252438Y-36988095D02*
X255300057Y-36940476D01*
X255300057Y-36940476D02*
X255395295Y-36892857D01*
X255395295Y-36892857D02*
X255538152Y-36892857D01*
X255538152Y-36892857D02*
X255633390Y-36940476D01*
X255633390Y-36940476D02*
X255681009Y-36988095D01*
X255681009Y-36988095D02*
X255728628Y-37083333D01*
X255728628Y-37083333D02*
X255728628Y-37464285D01*
X255300057Y-36511904D02*
X255252438Y-36464285D01*
X255252438Y-36464285D02*
X255204819Y-36369047D01*
X255204819Y-36369047D02*
X255204819Y-36130952D01*
X255204819Y-36130952D02*
X255252438Y-36035714D01*
X255252438Y-36035714D02*
X255300057Y-35988095D01*
X255300057Y-35988095D02*
X255395295Y-35940476D01*
X255395295Y-35940476D02*
X255490533Y-35940476D01*
X255490533Y-35940476D02*
X255633390Y-35988095D01*
X255633390Y-35988095D02*
X256204819Y-36559523D01*
X256204819Y-36559523D02*
X256204819Y-35940476D01*
X256204819Y-35464285D02*
X256204819Y-35273809D01*
X256204819Y-35273809D02*
X256157200Y-35178571D01*
X256157200Y-35178571D02*
X256109580Y-35130952D01*
X256109580Y-35130952D02*
X255966723Y-35035714D01*
X255966723Y-35035714D02*
X255776247Y-34988095D01*
X255776247Y-34988095D02*
X255395295Y-34988095D01*
X255395295Y-34988095D02*
X255300057Y-35035714D01*
X255300057Y-35035714D02*
X255252438Y-35083333D01*
X255252438Y-35083333D02*
X255204819Y-35178571D01*
X255204819Y-35178571D02*
X255204819Y-35369047D01*
X255204819Y-35369047D02*
X255252438Y-35464285D01*
X255252438Y-35464285D02*
X255300057Y-35511904D01*
X255300057Y-35511904D02*
X255395295Y-35559523D01*
X255395295Y-35559523D02*
X255633390Y-35559523D01*
X255633390Y-35559523D02*
X255728628Y-35511904D01*
X255728628Y-35511904D02*
X255776247Y-35464285D01*
X255776247Y-35464285D02*
X255823866Y-35369047D01*
X255823866Y-35369047D02*
X255823866Y-35178571D01*
X255823866Y-35178571D02*
X255776247Y-35083333D01*
X255776247Y-35083333D02*
X255728628Y-35035714D01*
X255728628Y-35035714D02*
X255633390Y-34988095D01*
X210166667Y-23157200D02*
X210309524Y-23204819D01*
X210309524Y-23204819D02*
X210547619Y-23204819D01*
X210547619Y-23204819D02*
X210642857Y-23157200D01*
X210642857Y-23157200D02*
X210690476Y-23109580D01*
X210690476Y-23109580D02*
X210738095Y-23014342D01*
X210738095Y-23014342D02*
X210738095Y-22919104D01*
X210738095Y-22919104D02*
X210690476Y-22823866D01*
X210690476Y-22823866D02*
X210642857Y-22776247D01*
X210642857Y-22776247D02*
X210547619Y-22728628D01*
X210547619Y-22728628D02*
X210357143Y-22681009D01*
X210357143Y-22681009D02*
X210261905Y-22633390D01*
X210261905Y-22633390D02*
X210214286Y-22585771D01*
X210214286Y-22585771D02*
X210166667Y-22490533D01*
X210166667Y-22490533D02*
X210166667Y-22395295D01*
X210166667Y-22395295D02*
X210214286Y-22300057D01*
X210214286Y-22300057D02*
X210261905Y-22252438D01*
X210261905Y-22252438D02*
X210357143Y-22204819D01*
X210357143Y-22204819D02*
X210595238Y-22204819D01*
X210595238Y-22204819D02*
X210738095Y-22252438D01*
X211071429Y-22204819D02*
X211309524Y-23204819D01*
X211309524Y-23204819D02*
X211500000Y-22490533D01*
X211500000Y-22490533D02*
X211690476Y-23204819D01*
X211690476Y-23204819D02*
X211928572Y-22204819D01*
X212833333Y-23204819D02*
X212261905Y-23204819D01*
X212547619Y-23204819D02*
X212547619Y-22204819D01*
X212547619Y-22204819D02*
X212452381Y-22347676D01*
X212452381Y-22347676D02*
X212357143Y-22442914D01*
X212357143Y-22442914D02*
X212261905Y-22490533D01*
X197988095Y-32454819D02*
X197988095Y-33264342D01*
X197988095Y-33264342D02*
X198035714Y-33359580D01*
X198035714Y-33359580D02*
X198083333Y-33407200D01*
X198083333Y-33407200D02*
X198178571Y-33454819D01*
X198178571Y-33454819D02*
X198369047Y-33454819D01*
X198369047Y-33454819D02*
X198464285Y-33407200D01*
X198464285Y-33407200D02*
X198511904Y-33359580D01*
X198511904Y-33359580D02*
X198559523Y-33264342D01*
X198559523Y-33264342D02*
X198559523Y-32454819D01*
X199464285Y-32454819D02*
X199273809Y-32454819D01*
X199273809Y-32454819D02*
X199178571Y-32502438D01*
X199178571Y-32502438D02*
X199130952Y-32550057D01*
X199130952Y-32550057D02*
X199035714Y-32692914D01*
X199035714Y-32692914D02*
X198988095Y-32883390D01*
X198988095Y-32883390D02*
X198988095Y-33264342D01*
X198988095Y-33264342D02*
X199035714Y-33359580D01*
X199035714Y-33359580D02*
X199083333Y-33407200D01*
X199083333Y-33407200D02*
X199178571Y-33454819D01*
X199178571Y-33454819D02*
X199369047Y-33454819D01*
X199369047Y-33454819D02*
X199464285Y-33407200D01*
X199464285Y-33407200D02*
X199511904Y-33359580D01*
X199511904Y-33359580D02*
X199559523Y-33264342D01*
X199559523Y-33264342D02*
X199559523Y-33026247D01*
X199559523Y-33026247D02*
X199511904Y-32931009D01*
X199511904Y-32931009D02*
X199464285Y-32883390D01*
X199464285Y-32883390D02*
X199369047Y-32835771D01*
X199369047Y-32835771D02*
X199178571Y-32835771D01*
X199178571Y-32835771D02*
X199083333Y-32883390D01*
X199083333Y-32883390D02*
X199035714Y-32931009D01*
X199035714Y-32931009D02*
X198988095Y-33026247D01*
X206704819Y-31666666D02*
X206228628Y-31999999D01*
X206704819Y-32238094D02*
X205704819Y-32238094D01*
X205704819Y-32238094D02*
X205704819Y-31857142D01*
X205704819Y-31857142D02*
X205752438Y-31761904D01*
X205752438Y-31761904D02*
X205800057Y-31714285D01*
X205800057Y-31714285D02*
X205895295Y-31666666D01*
X205895295Y-31666666D02*
X206038152Y-31666666D01*
X206038152Y-31666666D02*
X206133390Y-31714285D01*
X206133390Y-31714285D02*
X206181009Y-31761904D01*
X206181009Y-31761904D02*
X206228628Y-31857142D01*
X206228628Y-31857142D02*
X206228628Y-32238094D01*
X205800057Y-31285713D02*
X205752438Y-31238094D01*
X205752438Y-31238094D02*
X205704819Y-31142856D01*
X205704819Y-31142856D02*
X205704819Y-30904761D01*
X205704819Y-30904761D02*
X205752438Y-30809523D01*
X205752438Y-30809523D02*
X205800057Y-30761904D01*
X205800057Y-30761904D02*
X205895295Y-30714285D01*
X205895295Y-30714285D02*
X205990533Y-30714285D01*
X205990533Y-30714285D02*
X206133390Y-30761904D01*
X206133390Y-30761904D02*
X206704819Y-31333332D01*
X206704819Y-31333332D02*
X206704819Y-30714285D01*
X179108333Y-24454819D02*
X178775000Y-23978628D01*
X178536905Y-24454819D02*
X178536905Y-23454819D01*
X178536905Y-23454819D02*
X178917857Y-23454819D01*
X178917857Y-23454819D02*
X179013095Y-23502438D01*
X179013095Y-23502438D02*
X179060714Y-23550057D01*
X179060714Y-23550057D02*
X179108333Y-23645295D01*
X179108333Y-23645295D02*
X179108333Y-23788152D01*
X179108333Y-23788152D02*
X179060714Y-23883390D01*
X179060714Y-23883390D02*
X179013095Y-23931009D01*
X179013095Y-23931009D02*
X178917857Y-23978628D01*
X178917857Y-23978628D02*
X178536905Y-23978628D01*
X180060714Y-24454819D02*
X179489286Y-24454819D01*
X179775000Y-24454819D02*
X179775000Y-23454819D01*
X179775000Y-23454819D02*
X179679762Y-23597676D01*
X179679762Y-23597676D02*
X179584524Y-23692914D01*
X179584524Y-23692914D02*
X179489286Y-23740533D01*
D12*
X216574318Y-25187381D02*
X215304318Y-25187381D01*
X215304318Y-25187381D02*
X215304318Y-24885000D01*
X215304318Y-24885000D02*
X215364794Y-24703571D01*
X215364794Y-24703571D02*
X215485746Y-24582619D01*
X215485746Y-24582619D02*
X215606699Y-24522142D01*
X215606699Y-24522142D02*
X215848603Y-24461666D01*
X215848603Y-24461666D02*
X216030032Y-24461666D01*
X216030032Y-24461666D02*
X216271937Y-24522142D01*
X216271937Y-24522142D02*
X216392889Y-24582619D01*
X216392889Y-24582619D02*
X216513842Y-24703571D01*
X216513842Y-24703571D02*
X216574318Y-24885000D01*
X216574318Y-24885000D02*
X216574318Y-25187381D01*
X215425270Y-23977857D02*
X215364794Y-23917381D01*
X215364794Y-23917381D02*
X215304318Y-23796428D01*
X215304318Y-23796428D02*
X215304318Y-23494047D01*
X215304318Y-23494047D02*
X215364794Y-23373095D01*
X215364794Y-23373095D02*
X215425270Y-23312619D01*
X215425270Y-23312619D02*
X215546222Y-23252142D01*
X215546222Y-23252142D02*
X215667175Y-23252142D01*
X215667175Y-23252142D02*
X215848603Y-23312619D01*
X215848603Y-23312619D02*
X216574318Y-24038333D01*
X216574318Y-24038333D02*
X216574318Y-23252142D01*
D11*
X179108333Y-27859580D02*
X179060714Y-27907200D01*
X179060714Y-27907200D02*
X178917857Y-27954819D01*
X178917857Y-27954819D02*
X178822619Y-27954819D01*
X178822619Y-27954819D02*
X178679762Y-27907200D01*
X178679762Y-27907200D02*
X178584524Y-27811961D01*
X178584524Y-27811961D02*
X178536905Y-27716723D01*
X178536905Y-27716723D02*
X178489286Y-27526247D01*
X178489286Y-27526247D02*
X178489286Y-27383390D01*
X178489286Y-27383390D02*
X178536905Y-27192914D01*
X178536905Y-27192914D02*
X178584524Y-27097676D01*
X178584524Y-27097676D02*
X178679762Y-27002438D01*
X178679762Y-27002438D02*
X178822619Y-26954819D01*
X178822619Y-26954819D02*
X178917857Y-26954819D01*
X178917857Y-26954819D02*
X179060714Y-27002438D01*
X179060714Y-27002438D02*
X179108333Y-27050057D01*
X180060714Y-27954819D02*
X179489286Y-27954819D01*
X179775000Y-27954819D02*
X179775000Y-26954819D01*
X179775000Y-26954819D02*
X179679762Y-27097676D01*
X179679762Y-27097676D02*
X179584524Y-27192914D01*
X179584524Y-27192914D02*
X179489286Y-27240533D01*
X178536905Y-26204819D02*
X178536905Y-25204819D01*
X178536905Y-25204819D02*
X178775000Y-25204819D01*
X178775000Y-25204819D02*
X178917857Y-25252438D01*
X178917857Y-25252438D02*
X179013095Y-25347676D01*
X179013095Y-25347676D02*
X179060714Y-25442914D01*
X179060714Y-25442914D02*
X179108333Y-25633390D01*
X179108333Y-25633390D02*
X179108333Y-25776247D01*
X179108333Y-25776247D02*
X179060714Y-25966723D01*
X179060714Y-25966723D02*
X179013095Y-26061961D01*
X179013095Y-26061961D02*
X178917857Y-26157200D01*
X178917857Y-26157200D02*
X178775000Y-26204819D01*
X178775000Y-26204819D02*
X178536905Y-26204819D01*
X180060714Y-26204819D02*
X179489286Y-26204819D01*
X179775000Y-26204819D02*
X179775000Y-25204819D01*
X179775000Y-25204819D02*
X179679762Y-25347676D01*
X179679762Y-25347676D02*
X179584524Y-25442914D01*
X179584524Y-25442914D02*
X179489286Y-25490533D01*
X249666667Y-23657200D02*
X249809524Y-23704819D01*
X249809524Y-23704819D02*
X250047619Y-23704819D01*
X250047619Y-23704819D02*
X250142857Y-23657200D01*
X250142857Y-23657200D02*
X250190476Y-23609580D01*
X250190476Y-23609580D02*
X250238095Y-23514342D01*
X250238095Y-23514342D02*
X250238095Y-23419104D01*
X250238095Y-23419104D02*
X250190476Y-23323866D01*
X250190476Y-23323866D02*
X250142857Y-23276247D01*
X250142857Y-23276247D02*
X250047619Y-23228628D01*
X250047619Y-23228628D02*
X249857143Y-23181009D01*
X249857143Y-23181009D02*
X249761905Y-23133390D01*
X249761905Y-23133390D02*
X249714286Y-23085771D01*
X249714286Y-23085771D02*
X249666667Y-22990533D01*
X249666667Y-22990533D02*
X249666667Y-22895295D01*
X249666667Y-22895295D02*
X249714286Y-22800057D01*
X249714286Y-22800057D02*
X249761905Y-22752438D01*
X249761905Y-22752438D02*
X249857143Y-22704819D01*
X249857143Y-22704819D02*
X250095238Y-22704819D01*
X250095238Y-22704819D02*
X250238095Y-22752438D01*
X250571429Y-22704819D02*
X250809524Y-23704819D01*
X250809524Y-23704819D02*
X251000000Y-22990533D01*
X251000000Y-22990533D02*
X251190476Y-23704819D01*
X251190476Y-23704819D02*
X251428572Y-22704819D01*
X251761905Y-22800057D02*
X251809524Y-22752438D01*
X251809524Y-22752438D02*
X251904762Y-22704819D01*
X251904762Y-22704819D02*
X252142857Y-22704819D01*
X252142857Y-22704819D02*
X252238095Y-22752438D01*
X252238095Y-22752438D02*
X252285714Y-22800057D01*
X252285714Y-22800057D02*
X252333333Y-22895295D01*
X252333333Y-22895295D02*
X252333333Y-22990533D01*
X252333333Y-22990533D02*
X252285714Y-23133390D01*
X252285714Y-23133390D02*
X251714286Y-23704819D01*
X251714286Y-23704819D02*
X252333333Y-23704819D01*
X68356009Y-44679285D02*
X68403628Y-44536428D01*
X68403628Y-44536428D02*
X68451247Y-44488809D01*
X68451247Y-44488809D02*
X68546485Y-44441190D01*
X68546485Y-44441190D02*
X68689342Y-44441190D01*
X68689342Y-44441190D02*
X68784580Y-44488809D01*
X68784580Y-44488809D02*
X68832200Y-44536428D01*
X68832200Y-44536428D02*
X68879819Y-44631666D01*
X68879819Y-44631666D02*
X68879819Y-45012618D01*
X68879819Y-45012618D02*
X67879819Y-45012618D01*
X67879819Y-45012618D02*
X67879819Y-44679285D01*
X67879819Y-44679285D02*
X67927438Y-44584047D01*
X67927438Y-44584047D02*
X67975057Y-44536428D01*
X67975057Y-44536428D02*
X68070295Y-44488809D01*
X68070295Y-44488809D02*
X68165533Y-44488809D01*
X68165533Y-44488809D02*
X68260771Y-44536428D01*
X68260771Y-44536428D02*
X68308390Y-44584047D01*
X68308390Y-44584047D02*
X68356009Y-44679285D01*
X68356009Y-44679285D02*
X68356009Y-45012618D01*
X68594104Y-44060237D02*
X68594104Y-43584047D01*
X68879819Y-44155475D02*
X67879819Y-43822142D01*
X67879819Y-43822142D02*
X68879819Y-43488809D01*
X67879819Y-43298332D02*
X67879819Y-42726904D01*
X68879819Y-43012618D02*
X67879819Y-43012618D01*
X68879819Y-41869761D02*
X68879819Y-42441189D01*
X68879819Y-42155475D02*
X67879819Y-42155475D01*
X67879819Y-42155475D02*
X68022676Y-42250713D01*
X68022676Y-42250713D02*
X68117914Y-42345951D01*
X68117914Y-42345951D02*
X68165533Y-42441189D01*
X38095238Y-39431009D02*
X38238095Y-39478628D01*
X38238095Y-39478628D02*
X38285714Y-39526247D01*
X38285714Y-39526247D02*
X38333333Y-39621485D01*
X38333333Y-39621485D02*
X38333333Y-39764342D01*
X38333333Y-39764342D02*
X38285714Y-39859580D01*
X38285714Y-39859580D02*
X38238095Y-39907200D01*
X38238095Y-39907200D02*
X38142857Y-39954819D01*
X38142857Y-39954819D02*
X37761905Y-39954819D01*
X37761905Y-39954819D02*
X37761905Y-38954819D01*
X37761905Y-38954819D02*
X38095238Y-38954819D01*
X38095238Y-38954819D02*
X38190476Y-39002438D01*
X38190476Y-39002438D02*
X38238095Y-39050057D01*
X38238095Y-39050057D02*
X38285714Y-39145295D01*
X38285714Y-39145295D02*
X38285714Y-39240533D01*
X38285714Y-39240533D02*
X38238095Y-39335771D01*
X38238095Y-39335771D02*
X38190476Y-39383390D01*
X38190476Y-39383390D02*
X38095238Y-39431009D01*
X38095238Y-39431009D02*
X37761905Y-39431009D01*
X38761905Y-38954819D02*
X38761905Y-39764342D01*
X38761905Y-39764342D02*
X38809524Y-39859580D01*
X38809524Y-39859580D02*
X38857143Y-39907200D01*
X38857143Y-39907200D02*
X38952381Y-39954819D01*
X38952381Y-39954819D02*
X39142857Y-39954819D01*
X39142857Y-39954819D02*
X39238095Y-39907200D01*
X39238095Y-39907200D02*
X39285714Y-39859580D01*
X39285714Y-39859580D02*
X39333333Y-39764342D01*
X39333333Y-39764342D02*
X39333333Y-38954819D01*
X39714286Y-38954819D02*
X40380952Y-38954819D01*
X40380952Y-38954819D02*
X39714286Y-39954819D01*
X39714286Y-39954819D02*
X40380952Y-39954819D01*
X41285714Y-39954819D02*
X40714286Y-39954819D01*
X41000000Y-39954819D02*
X41000000Y-38954819D01*
X41000000Y-38954819D02*
X40904762Y-39097676D01*
X40904762Y-39097676D02*
X40809524Y-39192914D01*
X40809524Y-39192914D02*
X40714286Y-39240533D01*
D10*
X37114911Y-47905383D02*
X38661578Y-47905383D01*
X37888244Y-48678716D02*
X37888244Y-47132050D01*
D11*
X185333333Y-40204819D02*
X185000000Y-39728628D01*
X184761905Y-40204819D02*
X184761905Y-39204819D01*
X184761905Y-39204819D02*
X185142857Y-39204819D01*
X185142857Y-39204819D02*
X185238095Y-39252438D01*
X185238095Y-39252438D02*
X185285714Y-39300057D01*
X185285714Y-39300057D02*
X185333333Y-39395295D01*
X185333333Y-39395295D02*
X185333333Y-39538152D01*
X185333333Y-39538152D02*
X185285714Y-39633390D01*
X185285714Y-39633390D02*
X185238095Y-39681009D01*
X185238095Y-39681009D02*
X185142857Y-39728628D01*
X185142857Y-39728628D02*
X184761905Y-39728628D01*
X185666667Y-39204819D02*
X186333333Y-39204819D01*
X186333333Y-39204819D02*
X185904762Y-40204819D01*
X221109580Y-30666666D02*
X221157200Y-30714285D01*
X221157200Y-30714285D02*
X221204819Y-30857142D01*
X221204819Y-30857142D02*
X221204819Y-30952380D01*
X221204819Y-30952380D02*
X221157200Y-31095237D01*
X221157200Y-31095237D02*
X221061961Y-31190475D01*
X221061961Y-31190475D02*
X220966723Y-31238094D01*
X220966723Y-31238094D02*
X220776247Y-31285713D01*
X220776247Y-31285713D02*
X220633390Y-31285713D01*
X220633390Y-31285713D02*
X220442914Y-31238094D01*
X220442914Y-31238094D02*
X220347676Y-31190475D01*
X220347676Y-31190475D02*
X220252438Y-31095237D01*
X220252438Y-31095237D02*
X220204819Y-30952380D01*
X220204819Y-30952380D02*
X220204819Y-30857142D01*
X220204819Y-30857142D02*
X220252438Y-30714285D01*
X220252438Y-30714285D02*
X220300057Y-30666666D01*
X220204819Y-29809523D02*
X220204819Y-29999999D01*
X220204819Y-29999999D02*
X220252438Y-30095237D01*
X220252438Y-30095237D02*
X220300057Y-30142856D01*
X220300057Y-30142856D02*
X220442914Y-30238094D01*
X220442914Y-30238094D02*
X220633390Y-30285713D01*
X220633390Y-30285713D02*
X221014342Y-30285713D01*
X221014342Y-30285713D02*
X221109580Y-30238094D01*
X221109580Y-30238094D02*
X221157200Y-30190475D01*
X221157200Y-30190475D02*
X221204819Y-30095237D01*
X221204819Y-30095237D02*
X221204819Y-29904761D01*
X221204819Y-29904761D02*
X221157200Y-29809523D01*
X221157200Y-29809523D02*
X221109580Y-29761904D01*
X221109580Y-29761904D02*
X221014342Y-29714285D01*
X221014342Y-29714285D02*
X220776247Y-29714285D01*
X220776247Y-29714285D02*
X220681009Y-29761904D01*
X220681009Y-29761904D02*
X220633390Y-29809523D01*
X220633390Y-29809523D02*
X220585771Y-29904761D01*
X220585771Y-29904761D02*
X220585771Y-30095237D01*
X220585771Y-30095237D02*
X220633390Y-30190475D01*
X220633390Y-30190475D02*
X220681009Y-30238094D01*
X220681009Y-30238094D02*
X220776247Y-30285713D01*
X252704819Y-36967857D02*
X252228628Y-37301190D01*
X252704819Y-37539285D02*
X251704819Y-37539285D01*
X251704819Y-37539285D02*
X251704819Y-37158333D01*
X251704819Y-37158333D02*
X251752438Y-37063095D01*
X251752438Y-37063095D02*
X251800057Y-37015476D01*
X251800057Y-37015476D02*
X251895295Y-36967857D01*
X251895295Y-36967857D02*
X252038152Y-36967857D01*
X252038152Y-36967857D02*
X252133390Y-37015476D01*
X252133390Y-37015476D02*
X252181009Y-37063095D01*
X252181009Y-37063095D02*
X252228628Y-37158333D01*
X252228628Y-37158333D02*
X252228628Y-37539285D01*
X251704819Y-36634523D02*
X251704819Y-36015476D01*
X251704819Y-36015476D02*
X252085771Y-36348809D01*
X252085771Y-36348809D02*
X252085771Y-36205952D01*
X252085771Y-36205952D02*
X252133390Y-36110714D01*
X252133390Y-36110714D02*
X252181009Y-36063095D01*
X252181009Y-36063095D02*
X252276247Y-36015476D01*
X252276247Y-36015476D02*
X252514342Y-36015476D01*
X252514342Y-36015476D02*
X252609580Y-36063095D01*
X252609580Y-36063095D02*
X252657200Y-36110714D01*
X252657200Y-36110714D02*
X252704819Y-36205952D01*
X252704819Y-36205952D02*
X252704819Y-36491666D01*
X252704819Y-36491666D02*
X252657200Y-36586904D01*
X252657200Y-36586904D02*
X252609580Y-36634523D01*
X251800057Y-35634523D02*
X251752438Y-35586904D01*
X251752438Y-35586904D02*
X251704819Y-35491666D01*
X251704819Y-35491666D02*
X251704819Y-35253571D01*
X251704819Y-35253571D02*
X251752438Y-35158333D01*
X251752438Y-35158333D02*
X251800057Y-35110714D01*
X251800057Y-35110714D02*
X251895295Y-35063095D01*
X251895295Y-35063095D02*
X251990533Y-35063095D01*
X251990533Y-35063095D02*
X252133390Y-35110714D01*
X252133390Y-35110714D02*
X252704819Y-35682142D01*
X252704819Y-35682142D02*
X252704819Y-35063095D01*
X41704819Y-52392857D02*
X41228628Y-52726190D01*
X41704819Y-52964285D02*
X40704819Y-52964285D01*
X40704819Y-52964285D02*
X40704819Y-52583333D01*
X40704819Y-52583333D02*
X40752438Y-52488095D01*
X40752438Y-52488095D02*
X40800057Y-52440476D01*
X40800057Y-52440476D02*
X40895295Y-52392857D01*
X40895295Y-52392857D02*
X41038152Y-52392857D01*
X41038152Y-52392857D02*
X41133390Y-52440476D01*
X41133390Y-52440476D02*
X41181009Y-52488095D01*
X41181009Y-52488095D02*
X41228628Y-52583333D01*
X41228628Y-52583333D02*
X41228628Y-52964285D01*
X41704819Y-51440476D02*
X41704819Y-52011904D01*
X41704819Y-51726190D02*
X40704819Y-51726190D01*
X40704819Y-51726190D02*
X40847676Y-51821428D01*
X40847676Y-51821428D02*
X40942914Y-51916666D01*
X40942914Y-51916666D02*
X40990533Y-52011904D01*
X41038152Y-50583333D02*
X41704819Y-50583333D01*
X40657200Y-50821428D02*
X41371485Y-51059523D01*
X41371485Y-51059523D02*
X41371485Y-50440476D01*
X191858333Y-24704819D02*
X191525000Y-24228628D01*
X191286905Y-24704819D02*
X191286905Y-23704819D01*
X191286905Y-23704819D02*
X191667857Y-23704819D01*
X191667857Y-23704819D02*
X191763095Y-23752438D01*
X191763095Y-23752438D02*
X191810714Y-23800057D01*
X191810714Y-23800057D02*
X191858333Y-23895295D01*
X191858333Y-23895295D02*
X191858333Y-24038152D01*
X191858333Y-24038152D02*
X191810714Y-24133390D01*
X191810714Y-24133390D02*
X191763095Y-24181009D01*
X191763095Y-24181009D02*
X191667857Y-24228628D01*
X191667857Y-24228628D02*
X191286905Y-24228628D01*
X192334524Y-24704819D02*
X192525000Y-24704819D01*
X192525000Y-24704819D02*
X192620238Y-24657200D01*
X192620238Y-24657200D02*
X192667857Y-24609580D01*
X192667857Y-24609580D02*
X192763095Y-24466723D01*
X192763095Y-24466723D02*
X192810714Y-24276247D01*
X192810714Y-24276247D02*
X192810714Y-23895295D01*
X192810714Y-23895295D02*
X192763095Y-23800057D01*
X192763095Y-23800057D02*
X192715476Y-23752438D01*
X192715476Y-23752438D02*
X192620238Y-23704819D01*
X192620238Y-23704819D02*
X192429762Y-23704819D01*
X192429762Y-23704819D02*
X192334524Y-23752438D01*
X192334524Y-23752438D02*
X192286905Y-23800057D01*
X192286905Y-23800057D02*
X192239286Y-23895295D01*
X192239286Y-23895295D02*
X192239286Y-24133390D01*
X192239286Y-24133390D02*
X192286905Y-24228628D01*
X192286905Y-24228628D02*
X192334524Y-24276247D01*
X192334524Y-24276247D02*
X192429762Y-24323866D01*
X192429762Y-24323866D02*
X192620238Y-24323866D01*
X192620238Y-24323866D02*
X192715476Y-24276247D01*
X192715476Y-24276247D02*
X192763095Y-24228628D01*
X192763095Y-24228628D02*
X192810714Y-24133390D01*
X191858333Y-27859580D02*
X191810714Y-27907200D01*
X191810714Y-27907200D02*
X191667857Y-27954819D01*
X191667857Y-27954819D02*
X191572619Y-27954819D01*
X191572619Y-27954819D02*
X191429762Y-27907200D01*
X191429762Y-27907200D02*
X191334524Y-27811961D01*
X191334524Y-27811961D02*
X191286905Y-27716723D01*
X191286905Y-27716723D02*
X191239286Y-27526247D01*
X191239286Y-27526247D02*
X191239286Y-27383390D01*
X191239286Y-27383390D02*
X191286905Y-27192914D01*
X191286905Y-27192914D02*
X191334524Y-27097676D01*
X191334524Y-27097676D02*
X191429762Y-27002438D01*
X191429762Y-27002438D02*
X191572619Y-26954819D01*
X191572619Y-26954819D02*
X191667857Y-26954819D01*
X191667857Y-26954819D02*
X191810714Y-27002438D01*
X191810714Y-27002438D02*
X191858333Y-27050057D01*
X192763095Y-26954819D02*
X192286905Y-26954819D01*
X192286905Y-26954819D02*
X192239286Y-27431009D01*
X192239286Y-27431009D02*
X192286905Y-27383390D01*
X192286905Y-27383390D02*
X192382143Y-27335771D01*
X192382143Y-27335771D02*
X192620238Y-27335771D01*
X192620238Y-27335771D02*
X192715476Y-27383390D01*
X192715476Y-27383390D02*
X192763095Y-27431009D01*
X192763095Y-27431009D02*
X192810714Y-27526247D01*
X192810714Y-27526247D02*
X192810714Y-27764342D01*
X192810714Y-27764342D02*
X192763095Y-27859580D01*
X192763095Y-27859580D02*
X192715476Y-27907200D01*
X192715476Y-27907200D02*
X192620238Y-27954819D01*
X192620238Y-27954819D02*
X192382143Y-27954819D01*
X192382143Y-27954819D02*
X192286905Y-27907200D01*
X192286905Y-27907200D02*
X192239286Y-27859580D01*
X250954819Y-36967857D02*
X250478628Y-37301190D01*
X250954819Y-37539285D02*
X249954819Y-37539285D01*
X249954819Y-37539285D02*
X249954819Y-37158333D01*
X249954819Y-37158333D02*
X250002438Y-37063095D01*
X250002438Y-37063095D02*
X250050057Y-37015476D01*
X250050057Y-37015476D02*
X250145295Y-36967857D01*
X250145295Y-36967857D02*
X250288152Y-36967857D01*
X250288152Y-36967857D02*
X250383390Y-37015476D01*
X250383390Y-37015476D02*
X250431009Y-37063095D01*
X250431009Y-37063095D02*
X250478628Y-37158333D01*
X250478628Y-37158333D02*
X250478628Y-37539285D01*
X249954819Y-36634523D02*
X249954819Y-36015476D01*
X249954819Y-36015476D02*
X250335771Y-36348809D01*
X250335771Y-36348809D02*
X250335771Y-36205952D01*
X250335771Y-36205952D02*
X250383390Y-36110714D01*
X250383390Y-36110714D02*
X250431009Y-36063095D01*
X250431009Y-36063095D02*
X250526247Y-36015476D01*
X250526247Y-36015476D02*
X250764342Y-36015476D01*
X250764342Y-36015476D02*
X250859580Y-36063095D01*
X250859580Y-36063095D02*
X250907200Y-36110714D01*
X250907200Y-36110714D02*
X250954819Y-36205952D01*
X250954819Y-36205952D02*
X250954819Y-36491666D01*
X250954819Y-36491666D02*
X250907200Y-36586904D01*
X250907200Y-36586904D02*
X250859580Y-36634523D01*
X249954819Y-35682142D02*
X249954819Y-35063095D01*
X249954819Y-35063095D02*
X250335771Y-35396428D01*
X250335771Y-35396428D02*
X250335771Y-35253571D01*
X250335771Y-35253571D02*
X250383390Y-35158333D01*
X250383390Y-35158333D02*
X250431009Y-35110714D01*
X250431009Y-35110714D02*
X250526247Y-35063095D01*
X250526247Y-35063095D02*
X250764342Y-35063095D01*
X250764342Y-35063095D02*
X250859580Y-35110714D01*
X250859580Y-35110714D02*
X250907200Y-35158333D01*
X250907200Y-35158333D02*
X250954819Y-35253571D01*
X250954819Y-35253571D02*
X250954819Y-35539285D01*
X250954819Y-35539285D02*
X250907200Y-35634523D01*
X250907200Y-35634523D02*
X250859580Y-35682142D01*
X176704819Y-45011904D02*
X177514342Y-45011904D01*
X177514342Y-45011904D02*
X177609580Y-44964285D01*
X177609580Y-44964285D02*
X177657200Y-44916666D01*
X177657200Y-44916666D02*
X177704819Y-44821428D01*
X177704819Y-44821428D02*
X177704819Y-44630952D01*
X177704819Y-44630952D02*
X177657200Y-44535714D01*
X177657200Y-44535714D02*
X177609580Y-44488095D01*
X177609580Y-44488095D02*
X177514342Y-44440476D01*
X177514342Y-44440476D02*
X176704819Y-44440476D01*
X176704819Y-44059523D02*
X176704819Y-43440476D01*
X176704819Y-43440476D02*
X177085771Y-43773809D01*
X177085771Y-43773809D02*
X177085771Y-43630952D01*
X177085771Y-43630952D02*
X177133390Y-43535714D01*
X177133390Y-43535714D02*
X177181009Y-43488095D01*
X177181009Y-43488095D02*
X177276247Y-43440476D01*
X177276247Y-43440476D02*
X177514342Y-43440476D01*
X177514342Y-43440476D02*
X177609580Y-43488095D01*
X177609580Y-43488095D02*
X177657200Y-43535714D01*
X177657200Y-43535714D02*
X177704819Y-43630952D01*
X177704819Y-43630952D02*
X177704819Y-43916666D01*
X177704819Y-43916666D02*
X177657200Y-44011904D01*
X177657200Y-44011904D02*
X177609580Y-44059523D01*
X249204819Y-36892857D02*
X248728628Y-37226190D01*
X249204819Y-37464285D02*
X248204819Y-37464285D01*
X248204819Y-37464285D02*
X248204819Y-37083333D01*
X248204819Y-37083333D02*
X248252438Y-36988095D01*
X248252438Y-36988095D02*
X248300057Y-36940476D01*
X248300057Y-36940476D02*
X248395295Y-36892857D01*
X248395295Y-36892857D02*
X248538152Y-36892857D01*
X248538152Y-36892857D02*
X248633390Y-36940476D01*
X248633390Y-36940476D02*
X248681009Y-36988095D01*
X248681009Y-36988095D02*
X248728628Y-37083333D01*
X248728628Y-37083333D02*
X248728628Y-37464285D01*
X248204819Y-36559523D02*
X248204819Y-35940476D01*
X248204819Y-35940476D02*
X248585771Y-36273809D01*
X248585771Y-36273809D02*
X248585771Y-36130952D01*
X248585771Y-36130952D02*
X248633390Y-36035714D01*
X248633390Y-36035714D02*
X248681009Y-35988095D01*
X248681009Y-35988095D02*
X248776247Y-35940476D01*
X248776247Y-35940476D02*
X249014342Y-35940476D01*
X249014342Y-35940476D02*
X249109580Y-35988095D01*
X249109580Y-35988095D02*
X249157200Y-36035714D01*
X249157200Y-36035714D02*
X249204819Y-36130952D01*
X249204819Y-36130952D02*
X249204819Y-36416666D01*
X249204819Y-36416666D02*
X249157200Y-36511904D01*
X249157200Y-36511904D02*
X249109580Y-36559523D01*
X249204819Y-34988095D02*
X249204819Y-35559523D01*
X249204819Y-35273809D02*
X248204819Y-35273809D01*
X248204819Y-35273809D02*
X248347676Y-35369047D01*
X248347676Y-35369047D02*
X248442914Y-35464285D01*
X248442914Y-35464285D02*
X248490533Y-35559523D01*
D12*
X48574318Y-31887381D02*
X47304318Y-31887381D01*
X47304318Y-31887381D02*
X47304318Y-31585000D01*
X47304318Y-31585000D02*
X47364794Y-31403571D01*
X47364794Y-31403571D02*
X47485746Y-31282619D01*
X47485746Y-31282619D02*
X47606699Y-31222142D01*
X47606699Y-31222142D02*
X47848603Y-31161666D01*
X47848603Y-31161666D02*
X48030032Y-31161666D01*
X48030032Y-31161666D02*
X48271937Y-31222142D01*
X48271937Y-31222142D02*
X48392889Y-31282619D01*
X48392889Y-31282619D02*
X48513842Y-31403571D01*
X48513842Y-31403571D02*
X48574318Y-31585000D01*
X48574318Y-31585000D02*
X48574318Y-31887381D01*
X47304318Y-30073095D02*
X47304318Y-30315000D01*
X47304318Y-30315000D02*
X47364794Y-30435952D01*
X47364794Y-30435952D02*
X47425270Y-30496428D01*
X47425270Y-30496428D02*
X47606699Y-30617381D01*
X47606699Y-30617381D02*
X47848603Y-30677857D01*
X47848603Y-30677857D02*
X48332413Y-30677857D01*
X48332413Y-30677857D02*
X48453365Y-30617381D01*
X48453365Y-30617381D02*
X48513842Y-30556904D01*
X48513842Y-30556904D02*
X48574318Y-30435952D01*
X48574318Y-30435952D02*
X48574318Y-30194047D01*
X48574318Y-30194047D02*
X48513842Y-30073095D01*
X48513842Y-30073095D02*
X48453365Y-30012619D01*
X48453365Y-30012619D02*
X48332413Y-29952142D01*
X48332413Y-29952142D02*
X48030032Y-29952142D01*
X48030032Y-29952142D02*
X47909080Y-30012619D01*
X47909080Y-30012619D02*
X47848603Y-30073095D01*
X47848603Y-30073095D02*
X47788127Y-30194047D01*
X47788127Y-30194047D02*
X47788127Y-30435952D01*
X47788127Y-30435952D02*
X47848603Y-30556904D01*
X47848603Y-30556904D02*
X47909080Y-30617381D01*
X47909080Y-30617381D02*
X48030032Y-30677857D01*
D11*
X185358333Y-22704819D02*
X185025000Y-22228628D01*
X184786905Y-22704819D02*
X184786905Y-21704819D01*
X184786905Y-21704819D02*
X185167857Y-21704819D01*
X185167857Y-21704819D02*
X185263095Y-21752438D01*
X185263095Y-21752438D02*
X185310714Y-21800057D01*
X185310714Y-21800057D02*
X185358333Y-21895295D01*
X185358333Y-21895295D02*
X185358333Y-22038152D01*
X185358333Y-22038152D02*
X185310714Y-22133390D01*
X185310714Y-22133390D02*
X185263095Y-22181009D01*
X185263095Y-22181009D02*
X185167857Y-22228628D01*
X185167857Y-22228628D02*
X184786905Y-22228628D01*
X185929762Y-22133390D02*
X185834524Y-22085771D01*
X185834524Y-22085771D02*
X185786905Y-22038152D01*
X185786905Y-22038152D02*
X185739286Y-21942914D01*
X185739286Y-21942914D02*
X185739286Y-21895295D01*
X185739286Y-21895295D02*
X185786905Y-21800057D01*
X185786905Y-21800057D02*
X185834524Y-21752438D01*
X185834524Y-21752438D02*
X185929762Y-21704819D01*
X185929762Y-21704819D02*
X186120238Y-21704819D01*
X186120238Y-21704819D02*
X186215476Y-21752438D01*
X186215476Y-21752438D02*
X186263095Y-21800057D01*
X186263095Y-21800057D02*
X186310714Y-21895295D01*
X186310714Y-21895295D02*
X186310714Y-21942914D01*
X186310714Y-21942914D02*
X186263095Y-22038152D01*
X186263095Y-22038152D02*
X186215476Y-22085771D01*
X186215476Y-22085771D02*
X186120238Y-22133390D01*
X186120238Y-22133390D02*
X185929762Y-22133390D01*
X185929762Y-22133390D02*
X185834524Y-22181009D01*
X185834524Y-22181009D02*
X185786905Y-22228628D01*
X185786905Y-22228628D02*
X185739286Y-22323866D01*
X185739286Y-22323866D02*
X185739286Y-22514342D01*
X185739286Y-22514342D02*
X185786905Y-22609580D01*
X185786905Y-22609580D02*
X185834524Y-22657200D01*
X185834524Y-22657200D02*
X185929762Y-22704819D01*
X185929762Y-22704819D02*
X186120238Y-22704819D01*
X186120238Y-22704819D02*
X186215476Y-22657200D01*
X186215476Y-22657200D02*
X186263095Y-22609580D01*
X186263095Y-22609580D02*
X186310714Y-22514342D01*
X186310714Y-22514342D02*
X186310714Y-22323866D01*
X186310714Y-22323866D02*
X186263095Y-22228628D01*
X186263095Y-22228628D02*
X186215476Y-22181009D01*
X186215476Y-22181009D02*
X186120238Y-22133390D01*
X188333333Y-47954819D02*
X188000000Y-47478628D01*
X187761905Y-47954819D02*
X187761905Y-46954819D01*
X187761905Y-46954819D02*
X188142857Y-46954819D01*
X188142857Y-46954819D02*
X188238095Y-47002438D01*
X188238095Y-47002438D02*
X188285714Y-47050057D01*
X188285714Y-47050057D02*
X188333333Y-47145295D01*
X188333333Y-47145295D02*
X188333333Y-47288152D01*
X188333333Y-47288152D02*
X188285714Y-47383390D01*
X188285714Y-47383390D02*
X188238095Y-47431009D01*
X188238095Y-47431009D02*
X188142857Y-47478628D01*
X188142857Y-47478628D02*
X187761905Y-47478628D01*
X189190476Y-46954819D02*
X189000000Y-46954819D01*
X189000000Y-46954819D02*
X188904762Y-47002438D01*
X188904762Y-47002438D02*
X188857143Y-47050057D01*
X188857143Y-47050057D02*
X188761905Y-47192914D01*
X188761905Y-47192914D02*
X188714286Y-47383390D01*
X188714286Y-47383390D02*
X188714286Y-47764342D01*
X188714286Y-47764342D02*
X188761905Y-47859580D01*
X188761905Y-47859580D02*
X188809524Y-47907200D01*
X188809524Y-47907200D02*
X188904762Y-47954819D01*
X188904762Y-47954819D02*
X189095238Y-47954819D01*
X189095238Y-47954819D02*
X189190476Y-47907200D01*
X189190476Y-47907200D02*
X189238095Y-47859580D01*
X189238095Y-47859580D02*
X189285714Y-47764342D01*
X189285714Y-47764342D02*
X189285714Y-47526247D01*
X189285714Y-47526247D02*
X189238095Y-47431009D01*
X189238095Y-47431009D02*
X189190476Y-47383390D01*
X189190476Y-47383390D02*
X189095238Y-47335771D01*
X189095238Y-47335771D02*
X188904762Y-47335771D01*
X188904762Y-47335771D02*
X188809524Y-47383390D01*
X188809524Y-47383390D02*
X188761905Y-47431009D01*
X188761905Y-47431009D02*
X188714286Y-47526247D01*
X184763095Y-28454819D02*
X184763095Y-29264342D01*
X184763095Y-29264342D02*
X184810714Y-29359580D01*
X184810714Y-29359580D02*
X184858333Y-29407200D01*
X184858333Y-29407200D02*
X184953571Y-29454819D01*
X184953571Y-29454819D02*
X185144047Y-29454819D01*
X185144047Y-29454819D02*
X185239285Y-29407200D01*
X185239285Y-29407200D02*
X185286904Y-29359580D01*
X185286904Y-29359580D02*
X185334523Y-29264342D01*
X185334523Y-29264342D02*
X185334523Y-28454819D01*
X186334523Y-29454819D02*
X185763095Y-29454819D01*
X186048809Y-29454819D02*
X186048809Y-28454819D01*
X186048809Y-28454819D02*
X185953571Y-28597676D01*
X185953571Y-28597676D02*
X185858333Y-28692914D01*
X185858333Y-28692914D02*
X185763095Y-28740533D01*
D12*
X253017318Y-50048332D02*
X253924461Y-50048332D01*
X253924461Y-50048332D02*
X254105889Y-50108809D01*
X254105889Y-50108809D02*
X254226842Y-50229761D01*
X254226842Y-50229761D02*
X254287318Y-50411190D01*
X254287318Y-50411190D02*
X254287318Y-50532142D01*
X253138270Y-49504047D02*
X253077794Y-49443571D01*
X253077794Y-49443571D02*
X253017318Y-49322618D01*
X253017318Y-49322618D02*
X253017318Y-49020237D01*
X253017318Y-49020237D02*
X253077794Y-48899285D01*
X253077794Y-48899285D02*
X253138270Y-48838809D01*
X253138270Y-48838809D02*
X253259222Y-48778332D01*
X253259222Y-48778332D02*
X253380175Y-48778332D01*
X253380175Y-48778332D02*
X253561603Y-48838809D01*
X253561603Y-48838809D02*
X254287318Y-49564523D01*
X254287318Y-49564523D02*
X254287318Y-48778332D01*
D11*
X194774819Y-32142857D02*
X194298628Y-32476190D01*
X194774819Y-32714285D02*
X193774819Y-32714285D01*
X193774819Y-32714285D02*
X193774819Y-32333333D01*
X193774819Y-32333333D02*
X193822438Y-32238095D01*
X193822438Y-32238095D02*
X193870057Y-32190476D01*
X193870057Y-32190476D02*
X193965295Y-32142857D01*
X193965295Y-32142857D02*
X194108152Y-32142857D01*
X194108152Y-32142857D02*
X194203390Y-32190476D01*
X194203390Y-32190476D02*
X194251009Y-32238095D01*
X194251009Y-32238095D02*
X194298628Y-32333333D01*
X194298628Y-32333333D02*
X194298628Y-32714285D01*
X194774819Y-31190476D02*
X194774819Y-31761904D01*
X194774819Y-31476190D02*
X193774819Y-31476190D01*
X193774819Y-31476190D02*
X193917676Y-31571428D01*
X193917676Y-31571428D02*
X194012914Y-31666666D01*
X194012914Y-31666666D02*
X194060533Y-31761904D01*
X193870057Y-30809523D02*
X193822438Y-30761904D01*
X193822438Y-30761904D02*
X193774819Y-30666666D01*
X193774819Y-30666666D02*
X193774819Y-30428571D01*
X193774819Y-30428571D02*
X193822438Y-30333333D01*
X193822438Y-30333333D02*
X193870057Y-30285714D01*
X193870057Y-30285714D02*
X193965295Y-30238095D01*
X193965295Y-30238095D02*
X194060533Y-30238095D01*
X194060533Y-30238095D02*
X194203390Y-30285714D01*
X194203390Y-30285714D02*
X194774819Y-30857142D01*
X194774819Y-30857142D02*
X194774819Y-30238095D01*
X220109580Y-36691666D02*
X220157200Y-36739285D01*
X220157200Y-36739285D02*
X220204819Y-36882142D01*
X220204819Y-36882142D02*
X220204819Y-36977380D01*
X220204819Y-36977380D02*
X220157200Y-37120237D01*
X220157200Y-37120237D02*
X220061961Y-37215475D01*
X220061961Y-37215475D02*
X219966723Y-37263094D01*
X219966723Y-37263094D02*
X219776247Y-37310713D01*
X219776247Y-37310713D02*
X219633390Y-37310713D01*
X219633390Y-37310713D02*
X219442914Y-37263094D01*
X219442914Y-37263094D02*
X219347676Y-37215475D01*
X219347676Y-37215475D02*
X219252438Y-37120237D01*
X219252438Y-37120237D02*
X219204819Y-36977380D01*
X219204819Y-36977380D02*
X219204819Y-36882142D01*
X219204819Y-36882142D02*
X219252438Y-36739285D01*
X219252438Y-36739285D02*
X219300057Y-36691666D01*
X219204819Y-36358332D02*
X219204819Y-35739285D01*
X219204819Y-35739285D02*
X219585771Y-36072618D01*
X219585771Y-36072618D02*
X219585771Y-35929761D01*
X219585771Y-35929761D02*
X219633390Y-35834523D01*
X219633390Y-35834523D02*
X219681009Y-35786904D01*
X219681009Y-35786904D02*
X219776247Y-35739285D01*
X219776247Y-35739285D02*
X220014342Y-35739285D01*
X220014342Y-35739285D02*
X220109580Y-35786904D01*
X220109580Y-35786904D02*
X220157200Y-35834523D01*
X220157200Y-35834523D02*
X220204819Y-35929761D01*
X220204819Y-35929761D02*
X220204819Y-36215475D01*
X220204819Y-36215475D02*
X220157200Y-36310713D01*
X220157200Y-36310713D02*
X220109580Y-36358332D01*
X233988095Y-34954819D02*
X233988095Y-35764342D01*
X233988095Y-35764342D02*
X234035714Y-35859580D01*
X234035714Y-35859580D02*
X234083333Y-35907200D01*
X234083333Y-35907200D02*
X234178571Y-35954819D01*
X234178571Y-35954819D02*
X234369047Y-35954819D01*
X234369047Y-35954819D02*
X234464285Y-35907200D01*
X234464285Y-35907200D02*
X234511904Y-35859580D01*
X234511904Y-35859580D02*
X234559523Y-35764342D01*
X234559523Y-35764342D02*
X234559523Y-34954819D01*
X235464285Y-35288152D02*
X235464285Y-35954819D01*
X235226190Y-34907200D02*
X234988095Y-35621485D01*
X234988095Y-35621485D02*
X235607142Y-35621485D01*
X226913094Y-24919104D02*
X227389284Y-24919104D01*
X226817856Y-25204819D02*
X227151189Y-24204819D01*
X227151189Y-24204819D02*
X227484522Y-25204819D01*
X227817856Y-24538152D02*
X227817856Y-25204819D01*
X227817856Y-24633390D02*
X227865475Y-24585771D01*
X227865475Y-24585771D02*
X227960713Y-24538152D01*
X227960713Y-24538152D02*
X228103570Y-24538152D01*
X228103570Y-24538152D02*
X228198808Y-24585771D01*
X228198808Y-24585771D02*
X228246427Y-24681009D01*
X228246427Y-24681009D02*
X228246427Y-25204819D01*
X228579761Y-24538152D02*
X228960713Y-24538152D01*
X228722618Y-24204819D02*
X228722618Y-25061961D01*
X228722618Y-25061961D02*
X228770237Y-25157200D01*
X228770237Y-25157200D02*
X228865475Y-25204819D01*
X228865475Y-25204819D02*
X228960713Y-25204819D01*
X229674999Y-25157200D02*
X229579761Y-25204819D01*
X229579761Y-25204819D02*
X229389285Y-25204819D01*
X229389285Y-25204819D02*
X229294047Y-25157200D01*
X229294047Y-25157200D02*
X229246428Y-25061961D01*
X229246428Y-25061961D02*
X229246428Y-24681009D01*
X229246428Y-24681009D02*
X229294047Y-24585771D01*
X229294047Y-24585771D02*
X229389285Y-24538152D01*
X229389285Y-24538152D02*
X229579761Y-24538152D01*
X229579761Y-24538152D02*
X229674999Y-24585771D01*
X229674999Y-24585771D02*
X229722618Y-24681009D01*
X229722618Y-24681009D02*
X229722618Y-24776247D01*
X229722618Y-24776247D02*
X229246428Y-24871485D01*
X230151190Y-24538152D02*
X230151190Y-25204819D01*
X230151190Y-24633390D02*
X230198809Y-24585771D01*
X230198809Y-24585771D02*
X230294047Y-24538152D01*
X230294047Y-24538152D02*
X230436904Y-24538152D01*
X230436904Y-24538152D02*
X230532142Y-24585771D01*
X230532142Y-24585771D02*
X230579761Y-24681009D01*
X230579761Y-24681009D02*
X230579761Y-25204819D01*
X231055952Y-24538152D02*
X231055952Y-25204819D01*
X231055952Y-24633390D02*
X231103571Y-24585771D01*
X231103571Y-24585771D02*
X231198809Y-24538152D01*
X231198809Y-24538152D02*
X231341666Y-24538152D01*
X231341666Y-24538152D02*
X231436904Y-24585771D01*
X231436904Y-24585771D02*
X231484523Y-24681009D01*
X231484523Y-24681009D02*
X231484523Y-25204819D01*
X232389285Y-25204819D02*
X232389285Y-24681009D01*
X232389285Y-24681009D02*
X232341666Y-24585771D01*
X232341666Y-24585771D02*
X232246428Y-24538152D01*
X232246428Y-24538152D02*
X232055952Y-24538152D01*
X232055952Y-24538152D02*
X231960714Y-24585771D01*
X232389285Y-25157200D02*
X232294047Y-25204819D01*
X232294047Y-25204819D02*
X232055952Y-25204819D01*
X232055952Y-25204819D02*
X231960714Y-25157200D01*
X231960714Y-25157200D02*
X231913095Y-25061961D01*
X231913095Y-25061961D02*
X231913095Y-24966723D01*
X231913095Y-24966723D02*
X231960714Y-24871485D01*
X231960714Y-24871485D02*
X232055952Y-24823866D01*
X232055952Y-24823866D02*
X232294047Y-24823866D01*
X232294047Y-24823866D02*
X232389285Y-24776247D01*
X233579762Y-24919104D02*
X234055952Y-24919104D01*
X233484524Y-25204819D02*
X233817857Y-24204819D01*
X233817857Y-24204819D02*
X234151190Y-25204819D01*
X234484524Y-25204819D02*
X234484524Y-24538152D01*
X234484524Y-24728628D02*
X234532143Y-24633390D01*
X234532143Y-24633390D02*
X234579762Y-24585771D01*
X234579762Y-24585771D02*
X234675000Y-24538152D01*
X234675000Y-24538152D02*
X234770238Y-24538152D01*
X235484524Y-25157200D02*
X235389286Y-25204819D01*
X235389286Y-25204819D02*
X235198810Y-25204819D01*
X235198810Y-25204819D02*
X235103572Y-25157200D01*
X235103572Y-25157200D02*
X235055953Y-25061961D01*
X235055953Y-25061961D02*
X235055953Y-24681009D01*
X235055953Y-24681009D02*
X235103572Y-24585771D01*
X235103572Y-24585771D02*
X235198810Y-24538152D01*
X235198810Y-24538152D02*
X235389286Y-24538152D01*
X235389286Y-24538152D02*
X235484524Y-24585771D01*
X235484524Y-24585771D02*
X235532143Y-24681009D01*
X235532143Y-24681009D02*
X235532143Y-24776247D01*
X235532143Y-24776247D02*
X235055953Y-24871485D01*
X236389286Y-25204819D02*
X236389286Y-24681009D01*
X236389286Y-24681009D02*
X236341667Y-24585771D01*
X236341667Y-24585771D02*
X236246429Y-24538152D01*
X236246429Y-24538152D02*
X236055953Y-24538152D01*
X236055953Y-24538152D02*
X235960715Y-24585771D01*
X236389286Y-25157200D02*
X236294048Y-25204819D01*
X236294048Y-25204819D02*
X236055953Y-25204819D01*
X236055953Y-25204819D02*
X235960715Y-25157200D01*
X235960715Y-25157200D02*
X235913096Y-25061961D01*
X235913096Y-25061961D02*
X235913096Y-24966723D01*
X235913096Y-24966723D02*
X235960715Y-24871485D01*
X235960715Y-24871485D02*
X236055953Y-24823866D01*
X236055953Y-24823866D02*
X236294048Y-24823866D01*
X236294048Y-24823866D02*
X236389286Y-24776247D01*
X220512380Y-26648276D02*
X220512380Y-27166371D01*
X220512380Y-27166371D02*
X220542857Y-27227323D01*
X220542857Y-27227323D02*
X220573333Y-27257800D01*
X220573333Y-27257800D02*
X220634285Y-27288276D01*
X220634285Y-27288276D02*
X220756190Y-27288276D01*
X220756190Y-27288276D02*
X220817142Y-27257800D01*
X220817142Y-27257800D02*
X220847619Y-27227323D01*
X220847619Y-27227323D02*
X220878095Y-27166371D01*
X220878095Y-27166371D02*
X220878095Y-26648276D01*
X221152380Y-26709228D02*
X221182856Y-26678752D01*
X221182856Y-26678752D02*
X221243809Y-26648276D01*
X221243809Y-26648276D02*
X221396190Y-26648276D01*
X221396190Y-26648276D02*
X221457142Y-26678752D01*
X221457142Y-26678752D02*
X221487618Y-26709228D01*
X221487618Y-26709228D02*
X221518095Y-26770180D01*
X221518095Y-26770180D02*
X221518095Y-26831133D01*
X221518095Y-26831133D02*
X221487618Y-26922561D01*
X221487618Y-26922561D02*
X221121904Y-27288276D01*
X221121904Y-27288276D02*
X221518095Y-27288276D01*
X218454819Y-36666666D02*
X217978628Y-36999999D01*
X218454819Y-37238094D02*
X217454819Y-37238094D01*
X217454819Y-37238094D02*
X217454819Y-36857142D01*
X217454819Y-36857142D02*
X217502438Y-36761904D01*
X217502438Y-36761904D02*
X217550057Y-36714285D01*
X217550057Y-36714285D02*
X217645295Y-36666666D01*
X217645295Y-36666666D02*
X217788152Y-36666666D01*
X217788152Y-36666666D02*
X217883390Y-36714285D01*
X217883390Y-36714285D02*
X217931009Y-36761904D01*
X217931009Y-36761904D02*
X217978628Y-36857142D01*
X217978628Y-36857142D02*
X217978628Y-37238094D01*
X217788152Y-35809523D02*
X218454819Y-35809523D01*
X217407200Y-36047618D02*
X218121485Y-36285713D01*
X218121485Y-36285713D02*
X218121485Y-35666666D01*
X257954819Y-36892857D02*
X257478628Y-37226190D01*
X257954819Y-37464285D02*
X256954819Y-37464285D01*
X256954819Y-37464285D02*
X256954819Y-37083333D01*
X256954819Y-37083333D02*
X257002438Y-36988095D01*
X257002438Y-36988095D02*
X257050057Y-36940476D01*
X257050057Y-36940476D02*
X257145295Y-36892857D01*
X257145295Y-36892857D02*
X257288152Y-36892857D01*
X257288152Y-36892857D02*
X257383390Y-36940476D01*
X257383390Y-36940476D02*
X257431009Y-36988095D01*
X257431009Y-36988095D02*
X257478628Y-37083333D01*
X257478628Y-37083333D02*
X257478628Y-37464285D01*
X257050057Y-36511904D02*
X257002438Y-36464285D01*
X257002438Y-36464285D02*
X256954819Y-36369047D01*
X256954819Y-36369047D02*
X256954819Y-36130952D01*
X256954819Y-36130952D02*
X257002438Y-36035714D01*
X257002438Y-36035714D02*
X257050057Y-35988095D01*
X257050057Y-35988095D02*
X257145295Y-35940476D01*
X257145295Y-35940476D02*
X257240533Y-35940476D01*
X257240533Y-35940476D02*
X257383390Y-35988095D01*
X257383390Y-35988095D02*
X257954819Y-36559523D01*
X257954819Y-36559523D02*
X257954819Y-35940476D01*
X257383390Y-35369047D02*
X257335771Y-35464285D01*
X257335771Y-35464285D02*
X257288152Y-35511904D01*
X257288152Y-35511904D02*
X257192914Y-35559523D01*
X257192914Y-35559523D02*
X257145295Y-35559523D01*
X257145295Y-35559523D02*
X257050057Y-35511904D01*
X257050057Y-35511904D02*
X257002438Y-35464285D01*
X257002438Y-35464285D02*
X256954819Y-35369047D01*
X256954819Y-35369047D02*
X256954819Y-35178571D01*
X256954819Y-35178571D02*
X257002438Y-35083333D01*
X257002438Y-35083333D02*
X257050057Y-35035714D01*
X257050057Y-35035714D02*
X257145295Y-34988095D01*
X257145295Y-34988095D02*
X257192914Y-34988095D01*
X257192914Y-34988095D02*
X257288152Y-35035714D01*
X257288152Y-35035714D02*
X257335771Y-35083333D01*
X257335771Y-35083333D02*
X257383390Y-35178571D01*
X257383390Y-35178571D02*
X257383390Y-35369047D01*
X257383390Y-35369047D02*
X257431009Y-35464285D01*
X257431009Y-35464285D02*
X257478628Y-35511904D01*
X257478628Y-35511904D02*
X257573866Y-35559523D01*
X257573866Y-35559523D02*
X257764342Y-35559523D01*
X257764342Y-35559523D02*
X257859580Y-35511904D01*
X257859580Y-35511904D02*
X257907200Y-35464285D01*
X257907200Y-35464285D02*
X257954819Y-35369047D01*
X257954819Y-35369047D02*
X257954819Y-35178571D01*
X257954819Y-35178571D02*
X257907200Y-35083333D01*
X257907200Y-35083333D02*
X257859580Y-35035714D01*
X257859580Y-35035714D02*
X257764342Y-34988095D01*
X257764342Y-34988095D02*
X257573866Y-34988095D01*
X257573866Y-34988095D02*
X257478628Y-35035714D01*
X257478628Y-35035714D02*
X257431009Y-35083333D01*
X257431009Y-35083333D02*
X257383390Y-35178571D01*
D13*
%TO.C,C2*%
X182859420Y-40990000D02*
X183140580Y-40990000D01*
X182859420Y-42010000D02*
X183140580Y-42010000D01*
%TO.C,R3*%
X37814564Y-28290000D02*
X33460436Y-28290000D01*
X37814564Y-31710000D02*
X33460436Y-31710000D01*
%TO.C,C7*%
X216990000Y-30359420D02*
X216990000Y-30640580D01*
X218010000Y-30359420D02*
X218010000Y-30640580D01*
%TO.C,R5*%
X186237258Y-45227500D02*
X185762742Y-45227500D01*
X186237258Y-46272500D02*
X185762742Y-46272500D01*
D14*
%TO.C,CN1*%
X64500000Y-21112500D02*
X64500000Y-22582500D01*
X64500000Y-25042500D02*
X64500000Y-29582500D01*
X64500000Y-32042500D02*
X64500000Y-33312500D01*
X64500000Y-33312500D02*
X70240000Y-33312500D01*
X65000000Y-21112500D02*
X65000000Y-19112500D01*
X70000000Y-19112500D02*
X65000000Y-19112500D01*
X70000000Y-21112500D02*
X70000000Y-19112500D01*
X70500000Y-21112500D02*
X64500000Y-21112500D01*
X70500000Y-21112500D02*
X70500000Y-21582500D01*
X70500000Y-24042500D02*
X70500000Y-25282500D01*
X70500000Y-27742500D02*
X70500000Y-31282500D01*
D10*
%TO.C,Q2*%
X44450000Y-50550000D02*
X45250000Y-50550000D01*
X45600000Y-50700000D02*
X45700000Y-50700000D01*
X45600000Y-52300000D02*
X45600000Y-50700000D01*
X45700000Y-50700000D02*
X45700000Y-52300000D01*
X45700000Y-52300000D02*
X45600000Y-52300000D01*
%TO.C,Q1*%
X218550000Y-23300000D02*
X219350000Y-23300000D01*
X219700000Y-23450000D02*
X219800000Y-23450000D01*
X219700000Y-25050000D02*
X219700000Y-23450000D01*
X219800000Y-23450000D02*
X219800000Y-25050000D01*
X219800000Y-25050000D02*
X219700000Y-25050000D01*
D15*
%TO.C,J1*%
X194605000Y-20150000D02*
X194605000Y-21580000D01*
X194605000Y-25600000D02*
X194605000Y-23920000D01*
X203545000Y-20150000D02*
X194605000Y-20150000D01*
X203545000Y-20150000D02*
X203545000Y-21580000D01*
X203545000Y-25600000D02*
X203545000Y-23920000D01*
D10*
X202375000Y-28750000D02*
G75*
G02*
X202175000Y-28750000I-100000J0D01*
G01*
X202175000Y-28750000D02*
G75*
G02*
X202375000Y-28750000I100000J0D01*
G01*
D13*
%TO.C,C4*%
X216990000Y-27109420D02*
X216990000Y-27390580D01*
X218010000Y-27109420D02*
X218010000Y-27390580D01*
%TO.C,R30*%
X253477500Y-39487258D02*
X253477500Y-39012742D01*
X254522500Y-39487258D02*
X254522500Y-39012742D01*
%TO.C,R10*%
X202477500Y-31737258D02*
X202477500Y-31262742D01*
X203522500Y-31737258D02*
X203522500Y-31262742D01*
%TO.C,D3*%
X188040000Y-25015000D02*
X188040000Y-26485000D01*
X188040000Y-26485000D02*
X190325000Y-26485000D01*
X190325000Y-25015000D02*
X188040000Y-25015000D01*
%TO.C,D4*%
X257765000Y-57765000D02*
X257765000Y-60050000D01*
X259235000Y-57765000D02*
X257765000Y-57765000D01*
X259235000Y-60050000D02*
X259235000Y-57765000D01*
%TO.C,R11*%
X256227500Y-59012742D02*
X256227500Y-59487258D01*
X257272500Y-59012742D02*
X257272500Y-59487258D01*
%TO.C,R29*%
X255227500Y-39487258D02*
X255227500Y-39012742D01*
X256272500Y-39487258D02*
X256272500Y-39012742D01*
D11*
%TO.C,SW1*%
X206950000Y-22010000D02*
X213050000Y-22010000D01*
X206950000Y-28610000D02*
X206950000Y-22010000D01*
X213050000Y-22010000D02*
X213050000Y-28610000D01*
X213050000Y-28610000D02*
X206950000Y-28610000D01*
D14*
X211530000Y-25310000D02*
G75*
G02*
X208470000Y-25310000I-1530000J0D01*
G01*
X208470000Y-25310000D02*
G75*
G02*
X211530000Y-25310000I1530000J0D01*
G01*
D11*
X213740000Y-28870000D02*
G75*
G02*
X213380000Y-28870000I-180000J0D01*
G01*
X213380000Y-28870000D02*
G75*
G02*
X213740000Y-28870000I180000J0D01*
G01*
D13*
%TO.C,U6*%
X198100000Y-30010000D02*
X199400000Y-30010000D01*
X198100000Y-31990000D02*
X199150000Y-31990000D01*
X199520000Y-32270000D02*
X199520000Y-31990000D01*
X199800000Y-31990000D01*
X199520000Y-32270000D01*
G36*
X199520000Y-32270000D02*
G01*
X199520000Y-31990000D01*
X199800000Y-31990000D01*
X199520000Y-32270000D01*
G37*
%TO.C,R2*%
X204227500Y-31262742D02*
X204227500Y-31737258D01*
X205272500Y-31262742D02*
X205272500Y-31737258D01*
%TO.C,R1*%
X182012258Y-23477500D02*
X181537742Y-23477500D01*
X182012258Y-24522500D02*
X181537742Y-24522500D01*
D10*
%TO.C,D2*%
X217100000Y-25325000D02*
X217100000Y-23650000D01*
X217900000Y-24850000D02*
X217900000Y-23650000D01*
D13*
%TO.C,C1*%
X181915580Y-26990000D02*
X181634420Y-26990000D01*
X181915580Y-28010000D02*
X181634420Y-28010000D01*
%TO.C,D1*%
X180975000Y-26485000D02*
X183260000Y-26485000D01*
X183260000Y-25015000D02*
X180975000Y-25015000D01*
X183260000Y-26485000D02*
X183260000Y-25015000D01*
D11*
%TO.C,SW2*%
X246950000Y-22450000D02*
X253050000Y-22450000D01*
X246950000Y-29050000D02*
X246950000Y-22450000D01*
X253050000Y-22450000D02*
X253050000Y-29050000D01*
X253050000Y-29050000D02*
X246950000Y-29050000D01*
X246620000Y-22190000D02*
G75*
G02*
X246260000Y-22190000I-180000J0D01*
G01*
X246260000Y-22190000D02*
G75*
G02*
X246620000Y-22190000I180000J0D01*
G01*
D14*
X251530000Y-25750000D02*
G75*
G02*
X248470000Y-25750000I-1530000J0D01*
G01*
X248470000Y-25750000D02*
G75*
G02*
X251530000Y-25750000I1530000J0D01*
G01*
D15*
%TO.C,BAT1*%
X71150000Y-40250000D02*
X73850000Y-40250000D01*
X71150000Y-41800000D02*
X71150000Y-40250000D01*
X71150000Y-44700000D02*
X71150000Y-46250000D01*
X71150000Y-46250000D02*
X73850000Y-46250000D01*
X76550000Y-46250000D02*
X77150000Y-46250000D01*
X77150000Y-40250000D02*
X76550000Y-40250000D01*
X77150000Y-46250000D02*
X77150000Y-40250000D01*
D16*
X69800000Y-44050000D02*
G75*
G02*
X69600000Y-44050000I-100000J0D01*
G01*
X69600000Y-44050000D02*
G75*
G02*
X69800000Y-44050000I100000J0D01*
G01*
D14*
%TO.C,BUZ1*%
X32110000Y-38490000D02*
X32110000Y-44520000D01*
X32360000Y-34520000D02*
X32360000Y-34520000D01*
X32360000Y-34520000D02*
X32870000Y-34010000D01*
X32360000Y-48490000D02*
X32360000Y-49000000D01*
X32360000Y-49000000D02*
X46840000Y-49000000D01*
X32870000Y-34010000D02*
X46330000Y-34010000D01*
X46330000Y-34010000D02*
X46840000Y-34520000D01*
X46840000Y-49000000D02*
X46840000Y-48490000D01*
X47100000Y-44520000D02*
X47100000Y-38490000D01*
D10*
X37170000Y-46200000D02*
G75*
G02*
X34830000Y-46200000I-1170000J0D01*
G01*
X34830000Y-46200000D02*
G75*
G02*
X37170000Y-46200000I1170000J0D01*
G01*
D13*
%TO.C,R7*%
X182762742Y-39227500D02*
X183237258Y-39227500D01*
X182762742Y-40272500D02*
X183237258Y-40272500D01*
%TO.C,C6*%
X218740000Y-30359420D02*
X218740000Y-30640580D01*
X219760000Y-30359420D02*
X219760000Y-30640580D01*
%TO.C,R32*%
X251727500Y-39487258D02*
X251727500Y-39012742D01*
X252772500Y-39487258D02*
X252772500Y-39012742D01*
%TO.C,R14*%
X42227500Y-51512742D02*
X42227500Y-51987258D01*
X43272500Y-51512742D02*
X43272500Y-51987258D01*
%TO.C,R9*%
X189287742Y-23477500D02*
X189762258Y-23477500D01*
X189287742Y-24522500D02*
X189762258Y-24522500D01*
%TO.C,C5*%
X189384420Y-26990000D02*
X189665580Y-26990000D01*
X189384420Y-28010000D02*
X189665580Y-28010000D01*
%TO.C,R33*%
X249977500Y-39487258D02*
X249977500Y-39012742D01*
X251022500Y-39487258D02*
X251022500Y-39012742D01*
D14*
%TO.C,U3*%
X174630000Y-36800000D02*
X174630000Y-51200000D01*
X174630000Y-36800000D02*
X176310000Y-36800000D01*
X174630000Y-51200000D02*
X176310000Y-51200000D01*
D13*
%TO.C,R31*%
X248227500Y-39487258D02*
X248227500Y-39012742D01*
X249272500Y-39487258D02*
X249272500Y-39012742D01*
D10*
%TO.C,D6*%
X45850000Y-30350000D02*
X45850000Y-31550000D01*
X46650000Y-29875000D02*
X46650000Y-31550000D01*
D13*
%TO.C,R8*%
X185762258Y-23227500D02*
X185287742Y-23227500D01*
X185762258Y-24272500D02*
X185287742Y-24272500D01*
%TO.C,R6*%
X186237258Y-46977500D02*
X185762742Y-46977500D01*
X186237258Y-48022500D02*
X185762742Y-48022500D01*
%TO.C,U1*%
X185662500Y-24990000D02*
X184862500Y-24990000D01*
X185662500Y-24990000D02*
X186462500Y-24990000D01*
X185662500Y-28110000D02*
X184862500Y-28110000D01*
X185662500Y-28110000D02*
X186462500Y-28110000D01*
X184362500Y-25040000D02*
X184122500Y-24710000D01*
X184602500Y-24710000D01*
X184362500Y-25040000D01*
G36*
X184362500Y-25040000D02*
G01*
X184122500Y-24710000D01*
X184602500Y-24710000D01*
X184362500Y-25040000D01*
G37*
D17*
%TO.C,J2*%
X247550000Y-45650000D02*
X247550000Y-55600000D01*
X247550000Y-55600000D02*
X248250000Y-55600000D01*
X252250000Y-55600000D02*
X256750000Y-55600000D01*
X256750000Y-43650000D02*
X251750000Y-43650000D01*
X260275000Y-46275000D02*
X260275000Y-46275000D01*
X260375000Y-46275000D02*
X260375000Y-46275000D01*
X260275000Y-46275000D02*
G75*
G02*
X260375000Y-46275000I50000J0D01*
G01*
X260375000Y-46275000D02*
G75*
G02*
X260275000Y-46275000I-50000J0D01*
G01*
D13*
%TO.C,R12*%
X195227500Y-31737258D02*
X195227500Y-31262742D01*
X196272500Y-31737258D02*
X196272500Y-31262742D01*
%TO.C,C3*%
X219240000Y-33884420D02*
X219240000Y-34165580D01*
X220260000Y-33884420D02*
X220260000Y-34165580D01*
%TO.C,U4*%
X222675000Y-21750000D02*
X222675000Y-28500000D01*
X222675000Y-21750000D02*
X240675000Y-21750000D01*
X222675000Y-46500000D02*
X222675000Y-47250000D01*
X222675000Y-47250000D02*
X223675000Y-47250000D01*
X240675000Y-21750000D02*
X240675000Y-28500000D01*
X240675000Y-27690000D02*
X222675000Y-27690000D01*
X240675000Y-46500000D02*
X240675000Y-47250000D01*
X240675000Y-47250000D02*
X239675000Y-47250000D01*
D10*
%TO.C,U2*%
X220695000Y-27800000D02*
G75*
G02*
X220495000Y-27800000I-100000J0D01*
G01*
X220495000Y-27800000D02*
G75*
G02*
X220695000Y-27800000I100000J0D01*
G01*
D13*
%TO.C,R4*%
X217477500Y-33787742D02*
X217477500Y-34262258D01*
X218522500Y-33787742D02*
X218522500Y-34262258D01*
%TO.C,R28*%
X256977500Y-39487258D02*
X256977500Y-39012742D01*
X258022500Y-39487258D02*
X258022500Y-39012742D01*
%TD*%
M02*
