M48
; DRILL file {KiCad 8.0.1} date 2024-06-05T18:31:35+0100
; FORMAT={-:-/ absolute / inch / decimal}
; #@! TF.CreationDate,2024-06-05T18:31:35+01:00
; #@! TF.GenerationSoftware,Kicad,Pcbnew,8.0.1
; #@! TF.FileFunction,Plated,1,2,PTH
FMAT,2
INCH
; #@! TA.AperFunction,Plated,PTH,ViaDrill
T1C0.0118
; #@! TA.AperFunction,Plated,PTH,ComponentDrill
T2C0.0236
; #@! TA.AperFunction,Plated,PTH,ComponentDrill
T3C0.0394
; #@! TA.AperFunction,Plated,PTH,ComponentDrill
T4C0.0433
%
G90
G05
T1
X1.2992Y-2.0571
X1.3268Y-2.7894
X1.3681Y-2.3917
X1.4232Y-5.2677
X1.4252Y-4.0768
X1.4449Y-6.1535
X1.4961Y-1.3976
X1.4961Y-1.6339
X1.4961Y-1.8602
X1.4961Y-2.0571
X1.6929Y-1.3976
X1.6929Y-1.624
X1.6929Y-1.8602
X1.7264Y-4.7638
X1.8701Y-2.0276
X1.9193Y-2.9724
X1.9587Y-2.4114
X1.9882Y-0.9843
X2.0472Y-1.624
X2.0768Y-5.4035
X2.2933Y-0.935
X2.2933Y-1.437
X2.2933Y-3.75
X2.4114Y-3.6811
X2.5Y-1.939
X2.5098Y-4.5571
X2.5157Y-2.7972
X2.7165Y-3.687
X2.7264Y-2.9331
X2.8012Y-4.5689
X2.9232Y-5.3543
X2.9331Y-2.0571
X3.0118Y-3.7205
X3.0315Y-1.3976
X3.0413Y-0.9154
X3.1102Y-3.563
X3.2579Y-4.5276
X3.2894Y-6.1378
X3.4252Y-1.5551
X3.5Y-3.6811
X3.5925Y-2.9921
X3.6024Y-4.5571
X3.7421Y-0.8976
X3.75Y-5.3642
X3.9075Y-3.7598
X4.0276Y-1.2441
X4.0768Y-6.1437
X4.1024Y-1.6791
X4.124Y-4.5472
X4.3504Y-2.9626
X4.4705Y-3.5925
X4.4882Y-4.5571
X4.561Y-0.9035
X4.5768Y-5.374
X4.7146Y-3.75
X4.8543Y-5.3465
X4.9606Y-4.5669
X4.9902Y-1.3957
X5.0689Y-6.1437
X5.1673Y-2.9528
X5.2756Y-5.315
X5.3563Y-3.5728
X5.7008Y-3.8524
X5.7283Y-4.5374
X5.8839Y-1.998
X5.9587Y-4.4685
X5.9646Y-5.1476
X6.1909Y-5.3543
X6.2244Y-3.7146
X6.2894Y-1.0728
X6.3504Y-3.6634
X6.4272Y-1.5098
X6.4449Y-5.3524
X6.4508Y-6.1398
X6.4961Y-4.5177
X6.6378Y-3.7657
X6.6417Y-4.3681
X6.7008Y-1.2835
X6.7256Y-1.063
X6.8406Y-0.8957
X6.9409Y-3.5768
X7.0157Y-1.3799
X7.0276Y-5.374
X7.0374Y-1.7618
X7.0591Y-1.5374
X7.0768Y-1.8307
X7.0768Y-3.7303
X7.126Y-2.5295
X7.1299Y-2.7835
X7.1581Y-2.3702
X7.185Y-2.5
X7.1923Y-2.3624
X7.2047Y-2.0768
X7.2238Y-2.3616
X7.2343Y-2.5197
X7.2382Y-5.3465
X7.2382Y-6.2224
X7.252Y-2.0059
X7.2539Y-1.2421
X7.2585Y-2.3706
X7.2768Y-1.3091
X7.2835Y-2.5295
X7.2953Y-1.2126
X7.313Y-4.5276
X7.3366Y-1.2126
X7.3366Y-1.6299
X7.3524Y-1.7409
X7.3524Y-2.4902
X7.4252Y-1.4311
X7.4252Y-3.7717
X7.4291Y-4.3622
X7.4409Y-1.7126
X7.4803Y-1.7618
X7.4902Y-1.6634
X7.4902Y-1.8465
X7.4902Y-2.0079
X7.5098Y-1.5256
X7.5118Y-1.3012
X7.5157Y-1.7894
X7.5295Y-5.2441
X7.5512Y-1.9311
X7.5531Y-1.0945
X7.565Y-2.0768
X7.6181Y-1.9587
X7.6378Y-2.5492
X7.6969Y-2.3091
X7.6969Y-5.3248
X7.7185Y-2.0768
X7.7224Y-3.6831
X7.7264Y-2.4902
X7.7362Y-2.3287
X7.7756Y-1.8012
X7.7756Y-2.5295
X7.7913Y-1.2579
X7.7927Y-1.6043
X7.7953Y-1.4764
X7.7953Y-1.5256
X7.7953Y-1.565
X7.7953Y-1.6437
X7.7953Y-2.313
X7.8209Y-3.4764
X7.8248Y-2.5295
X7.8445Y-0.9055
X7.8445Y-2.3228
X7.878Y-1.3327
X7.8839Y-2.5
X7.8957Y-1.9665
X7.9724Y-2.0079
X8.0196Y-2.3366
X8.0413Y-2.313
X8.0787Y-2.0768
X8.1102Y-0.9941
X8.1102Y-4.5374
X8.1201Y-5.3445
X8.1693Y-2.2835
X8.1693Y-2.5197
X8.2087Y-1.25
X8.2185Y-2.061
X8.2185Y-2.2835
X8.2205Y-3.7697
X8.2264Y-6.1339
X8.248Y-2.0806
X8.2677Y-0.9154
X8.2677Y-2.2933
X8.2677Y-2.5197
X8.2766Y-2.1092
X8.2972Y-1.9587
X8.3169Y-2.2933
X8.3169Y-2.5197
X8.3209Y-2.7776
X8.3268Y-1.9882
X8.4055Y-1.4075
X8.4055Y-2.5
X8.4134Y-4.5512
X8.4252Y-0.9941
X8.4272Y-1.9606
X8.4508Y-1.5492
X8.4547Y-1.4961
X8.4547Y-1.6043
X8.4547Y-1.6535
X8.4547Y-1.7028
X8.4606Y-1.187
X8.4941Y-1.1417
X8.5138Y-1.25
X8.5236Y-5.315
X8.5433Y-2.0472
X8.5433Y-2.2441
X8.5492Y-3.6949
X8.5669Y-2.1457
X8.5689Y-1.8996
X8.6614Y-2.2835
X8.6614Y-2.5197
X8.6732Y-1.9508
X8.6811Y-1.1417
X8.7106Y-2.2933
X8.7126Y-1.4134
X8.7126Y-1.4547
X8.7303Y-2.1378
X8.7598Y-2.2933
X8.7598Y-2.5394
X8.8012Y-2.7854
X8.8091Y-2.2933
X8.8091Y-2.5394
X8.8091Y-3.6713
X8.8917Y-1.9331
X8.8976Y-1.4665
X8.8976Y-1.6535
X8.9055Y-5.437
X8.9075Y-1.2008
X8.9075Y-2.5098
X8.937Y-4.5177
X8.9775Y-1.4271
X8.9784Y-1.4817
X8.9786Y-1.3734
X8.9786Y-1.5381
X8.9832Y-2.1328
X9.0Y-2.5394
X9.018Y-2.2399
X9.033Y-1.4274
X9.0332Y-1.3717
X9.0332Y-1.4839
X9.0336Y-1.5398
X9.0551Y-1.6732
X9.0551Y-1.9783
X9.0893Y-1.5394
X9.09Y-1.4841
X9.0902Y-1.3719
X9.0902Y-1.4265
X9.0945Y-1.1909
X9.1024Y-3.7697
X9.1339Y-2.2736
X9.1339Y-2.5098
X9.1443Y-1.4278
X9.145Y-1.5379
X9.1454Y-1.4839
X9.1456Y-1.3743
X9.1713Y-2.6417
X9.1831Y-2.2736
X9.1929Y-2.126
X9.2224Y-1.4764
X9.2323Y-1.6929
X9.2323Y-2.2736
X9.2323Y-2.5098
X9.2815Y-2.2736
X9.2913Y-2.5098
X9.313Y-1.9567
X9.3307Y-1.1909
X9.3307Y-1.378
X9.3307Y-1.5846
X9.3307Y-2.1161
X9.374Y-1.9921
X9.3799Y-2.1457
X9.3799Y-2.5098
X9.3898Y-1.3406
X9.3996Y-1.7224
X9.4272Y-2.0413
X9.4291Y-2.1457
X9.4685Y-3.7205
X9.498Y-2.5
X9.5374Y-5.3543
X9.5571Y-1.2421
X9.5925Y-3.4803
X9.5965Y-3.0807
X9.5984Y-4.4547
X9.685Y-1.1614
X9.7736Y-2.5
X9.7835Y-4.4783
X9.7933Y-1.6339
X9.7933Y-2.0866
X9.8228Y-0.9252
X9.8622Y-1.6339
X9.8622Y-2.0886
X9.8917Y-1.3189
X9.9311Y-1.6339
X9.9311Y-2.002
X9.9902Y-1.9154
X9.998Y-6.0453
X10.0Y-1.6339
X10.0098Y-2.2047
X10.0394Y-2.0472
X10.0689Y-1.6339
X10.0689Y-1.872
X10.0925Y-2.8937
X10.0925Y-3.6811
X10.0965Y-4.9587
X10.1575Y-1.0276
X10.1791Y-2.5472
X10.187Y-1.6437
T3
X6.9094Y-1.2746
X6.9094Y-1.3746
X6.9094Y-1.4746
X6.9094Y-1.5746
X6.9094Y-1.6746
X6.9094Y-1.7746
X6.9094Y-1.8746
X6.9094Y-1.9746
T4
X2.6575Y-0.9493
X2.6575Y-1.1855
T2
G00X7.6673Y-0.9114
M15
G01X7.6673Y-0.8799
M16
G05
G00X7.6673Y-1.0815
M15
G01X7.6673Y-1.0382
M16
G05
G00X8.0079Y-0.9114
M15
G01X8.0079Y-0.8799
M16
G05
G00X8.0079Y-1.0815
M15
G01X8.0079Y-1.0382
M16
G05
M30
