%TF.GenerationSoftware,KiCad,Pcbnew,8.0.3*%
%TF.CreationDate,2024-09-07T18:54:59+01:00*%
%TF.ProjectId,esp32-s3-spectrum,65737033-322d-4733-932d-737065637472,rev?*%
%TF.SameCoordinates,Original*%
%TF.FileFunction,Legend,Top*%
%TF.FilePolarity,Positive*%
%FSLAX46Y46*%
G04 Gerber Fmt 4.6, Leading zero omitted, Abs format (unit mm)*
G04 Created by KiCad (PCBNEW 8.0.3) date 2024-09-07 18:54:59*
%MOMM*%
%LPD*%
G01*
G04 APERTURE LIST*
%ADD10C,1.200000*%
%ADD11C,0.150000*%
%ADD12C,0.100000*%
%ADD13C,0.200000*%
%ADD14C,0.120000*%
%ADD15C,0.250000*%
%ADD16C,0.127000*%
%ADD17C,0.300000*%
G04 APERTURE END LIST*
D10*
G36*
X30701179Y-72006218D02*
G01*
X27751214Y-72006218D01*
X27751214Y-73756951D01*
X31114438Y-73756951D01*
X31114438Y-75070001D01*
X26509972Y-75070001D01*
X26509972Y-67957649D01*
X30964961Y-67957649D01*
X30964961Y-69161278D01*
X27751214Y-69161278D01*
X27751214Y-70802589D01*
X30701179Y-70802589D01*
X30701179Y-72006218D01*
G37*
G36*
X34275429Y-74085213D02*
G01*
X34588945Y-74068864D01*
X34894287Y-74008464D01*
X35005226Y-73968954D01*
X35285753Y-73791405D01*
X35474329Y-73509323D01*
X35536668Y-73173995D01*
X35537187Y-73136330D01*
X35462741Y-72803843D01*
X35273405Y-72585807D01*
X34985093Y-72428260D01*
X34677884Y-72316412D01*
X34445422Y-72250705D01*
X33802086Y-72079735D01*
X33467137Y-71983344D01*
X33173405Y-71883948D01*
X32882809Y-71764187D01*
X32591618Y-71604198D01*
X32491967Y-71530922D01*
X32252713Y-71286503D01*
X32072223Y-70988579D01*
X31950497Y-70637151D01*
X31892932Y-70293341D01*
X31877941Y-69976804D01*
X31898806Y-69627264D01*
X31975893Y-69248335D01*
X32109781Y-68900495D01*
X32300469Y-68583743D01*
X32471451Y-68376525D01*
X32713543Y-68159801D01*
X32994688Y-67987916D01*
X33314885Y-67860870D01*
X33611547Y-67789252D01*
X33935328Y-67748772D01*
X34213879Y-67738807D01*
X34507357Y-67752999D01*
X34841207Y-67807496D01*
X35155066Y-67902865D01*
X35448936Y-68039107D01*
X35722817Y-68216221D01*
X35852260Y-68320105D01*
X36083980Y-68556805D01*
X36270259Y-68832214D01*
X36411098Y-69146331D01*
X36506495Y-69499157D01*
X36556453Y-69890692D01*
X36563007Y-70029805D01*
X35343747Y-70029805D01*
X35282610Y-69666227D01*
X35122795Y-69349598D01*
X34866008Y-69120245D01*
X34578217Y-68998696D01*
X34287782Y-68948687D01*
X34127418Y-68942436D01*
X33814116Y-68970113D01*
X33525261Y-69063439D01*
X33344863Y-69176665D01*
X33134490Y-69437202D01*
X33052917Y-69779635D01*
X33051772Y-69831480D01*
X33123946Y-70168718D01*
X33340467Y-70407649D01*
X33631360Y-70546562D01*
X33919586Y-70644235D01*
X34131814Y-70706846D01*
X35178150Y-71004334D01*
X35463286Y-71095987D01*
X35749485Y-71216360D01*
X36020880Y-71371706D01*
X36217159Y-71527502D01*
X36429005Y-71771418D01*
X36588819Y-72058858D01*
X36696600Y-72389822D01*
X36752349Y-72764310D01*
X36760844Y-72997844D01*
X36738433Y-73356060D01*
X36671199Y-73690834D01*
X36536109Y-74051776D01*
X36371761Y-74335760D01*
X36162590Y-74596302D01*
X36123370Y-74637446D01*
X35866371Y-74858819D01*
X35572381Y-75034391D01*
X35241400Y-75164161D01*
X34937324Y-75237316D01*
X34607561Y-75278664D01*
X34325254Y-75288842D01*
X33966689Y-75273440D01*
X33632883Y-75227233D01*
X33323835Y-75150221D01*
X33039545Y-75042405D01*
X32731077Y-74872363D01*
X32458262Y-74657963D01*
X32227178Y-74404673D01*
X32043904Y-74117965D01*
X31908441Y-73797837D01*
X31820788Y-73444290D01*
X31780946Y-73057323D01*
X31778290Y-72920908D01*
X32990223Y-72920908D01*
X33055283Y-73275071D01*
X33186487Y-73600181D01*
X33217369Y-73647530D01*
X33453559Y-73878340D01*
X33739547Y-74012979D01*
X34052147Y-74074528D01*
X34275429Y-74085213D01*
G37*
G36*
X40673769Y-67977183D02*
G01*
X40977582Y-68035787D01*
X41299083Y-68153538D01*
X41585100Y-68324466D01*
X41802016Y-68513301D01*
X42014433Y-68784858D01*
X42174677Y-69114828D01*
X42270505Y-69444153D01*
X42328001Y-69816393D01*
X42346634Y-70159377D01*
X42347166Y-70231550D01*
X42333857Y-70610363D01*
X42293929Y-70952863D01*
X42210879Y-71315927D01*
X42065541Y-71673409D01*
X41868031Y-71959716D01*
X41802016Y-72028444D01*
X41541855Y-72232962D01*
X41237094Y-72387248D01*
X40940373Y-72479511D01*
X40610886Y-72534869D01*
X40311283Y-72552810D01*
X40248632Y-72553322D01*
X38959030Y-72553322D01*
X38959030Y-75070001D01*
X37697271Y-75070001D01*
X37697271Y-71349693D01*
X38959030Y-71349693D01*
X40141653Y-71349693D01*
X40451048Y-71312187D01*
X40741163Y-71173621D01*
X40842142Y-71082980D01*
X41011442Y-70788551D01*
X41081097Y-70441375D01*
X41089804Y-70234969D01*
X41060366Y-69875897D01*
X40949670Y-69553119D01*
X40840676Y-69409184D01*
X40584261Y-69239717D01*
X40277344Y-69167330D01*
X40141653Y-69161278D01*
X38959030Y-69161278D01*
X38959030Y-71349693D01*
X37697271Y-71349693D01*
X37697271Y-67957649D01*
X40343886Y-67957649D01*
X40673769Y-67977183D01*
G37*
G36*
X42817578Y-71677956D02*
G01*
X45184291Y-71677956D01*
X45184291Y-72991005D01*
X42817578Y-72991005D01*
X42817578Y-71677956D01*
G37*
G36*
X49373209Y-67975066D02*
G01*
X49667890Y-68017907D01*
X49964772Y-68103695D01*
X50055471Y-68144006D01*
X50317867Y-68308336D01*
X50545437Y-68526278D01*
X50638722Y-68644948D01*
X50815676Y-68933033D01*
X50950865Y-69250182D01*
X51033962Y-69581420D01*
X51065618Y-69927180D01*
X51066636Y-70005869D01*
X51040834Y-70355501D01*
X50963430Y-70701497D01*
X50848283Y-71012883D01*
X50664571Y-71318436D01*
X50413672Y-71555706D01*
X50127278Y-71712150D01*
X50408096Y-71881651D01*
X50634177Y-72117911D01*
X50722254Y-72267802D01*
X50829415Y-72591497D01*
X50880935Y-72942419D01*
X50897937Y-73321346D01*
X50898108Y-73367139D01*
X50898108Y-73839017D01*
X50904279Y-74201326D01*
X50930348Y-74492122D01*
X51061198Y-74798833D01*
X51161891Y-74893901D01*
X51161891Y-75070001D01*
X49763845Y-75070001D01*
X49688511Y-74732468D01*
X49681779Y-74695576D01*
X49639850Y-74342976D01*
X49629023Y-74095472D01*
X49620230Y-73447495D01*
X49596330Y-73073265D01*
X49516646Y-72739232D01*
X49407739Y-72556742D01*
X49138525Y-72397209D01*
X48841643Y-72342294D01*
X48644235Y-72334481D01*
X47332651Y-72334481D01*
X47332651Y-75070001D01*
X46091409Y-75070001D01*
X46091409Y-71130852D01*
X47332651Y-71130852D01*
X48771730Y-71130852D01*
X49084099Y-71111100D01*
X49371603Y-71032561D01*
X49413600Y-71011173D01*
X49644891Y-70797273D01*
X49769432Y-70468450D01*
X49793154Y-70185388D01*
X49764174Y-69845079D01*
X49650043Y-69523547D01*
X49426789Y-69291215D01*
X49129416Y-69186148D01*
X48833903Y-69161404D01*
X48808367Y-69161278D01*
X47332651Y-69161278D01*
X47332651Y-71130852D01*
X46091409Y-71130852D01*
X46091409Y-67957649D01*
X49072149Y-67957649D01*
X49373209Y-67975066D01*
G37*
G36*
X54112886Y-69724744D02*
G01*
X54411816Y-69773831D01*
X54734217Y-69870002D01*
X55036101Y-70008915D01*
X55108367Y-70050322D01*
X55359051Y-70258371D01*
X55538112Y-70542288D01*
X55645548Y-70902073D01*
X55680801Y-71279120D01*
X55681360Y-71337726D01*
X55681360Y-73739854D01*
X55684795Y-74093281D01*
X55690153Y-74345088D01*
X55745451Y-74682620D01*
X55759030Y-74709254D01*
X55933419Y-74868256D01*
X55933419Y-75070001D01*
X54655540Y-75070001D01*
X54580802Y-74794739D01*
X54548562Y-74502380D01*
X54321399Y-74756978D01*
X54084844Y-74961745D01*
X53987292Y-75032387D01*
X53714747Y-75178396D01*
X53418998Y-75263798D01*
X53130000Y-75288842D01*
X52803775Y-75256385D01*
X52510935Y-75159012D01*
X52251481Y-74996724D01*
X52121765Y-74878514D01*
X51929789Y-74619560D01*
X51800641Y-74306239D01*
X51734322Y-73938551D01*
X51724626Y-73710789D01*
X51731462Y-73604788D01*
X52902854Y-73604788D01*
X52962783Y-73953106D01*
X53072847Y-74110859D01*
X53347395Y-74255709D01*
X53475847Y-74268151D01*
X53774318Y-74225544D01*
X54052957Y-74097722D01*
X54174870Y-74009987D01*
X54371196Y-73754734D01*
X54475126Y-73414725D01*
X54506064Y-73061103D01*
X54506064Y-72551613D01*
X54281849Y-72684969D01*
X53995569Y-72773426D01*
X53971172Y-72779003D01*
X53707390Y-72835423D01*
X53405847Y-72915064D01*
X53175429Y-73023490D01*
X52962746Y-73281214D01*
X52902854Y-73604788D01*
X51731462Y-73604788D01*
X51747089Y-73362471D01*
X51830076Y-73004264D01*
X51974212Y-72697925D01*
X52179496Y-72443456D01*
X52363565Y-72293448D01*
X52643320Y-72145051D01*
X52930171Y-72047678D01*
X53228941Y-71979290D01*
X53393782Y-71951508D01*
X53793852Y-71893378D01*
X54087404Y-71835277D01*
X54259867Y-71771989D01*
X54480849Y-71544821D01*
X54510460Y-71377049D01*
X54427783Y-71036069D01*
X54318485Y-70927398D01*
X54028710Y-70823188D01*
X53757215Y-70802589D01*
X53458260Y-70842375D01*
X53189207Y-71014465D01*
X53166636Y-71043657D01*
X53032077Y-71363733D01*
X53002505Y-71524083D01*
X51868241Y-71524083D01*
X51909727Y-71156951D01*
X52002864Y-70794709D01*
X52145517Y-70480551D01*
X52197969Y-70395681D01*
X52433827Y-70127876D01*
X52686893Y-69950681D01*
X52986946Y-69821813D01*
X53333984Y-69741270D01*
X53659075Y-69711066D01*
X53798248Y-69708382D01*
X54112886Y-69724744D01*
G37*
G36*
X57908855Y-69817802D02*
G01*
X57908855Y-75070001D01*
X56717438Y-75070001D01*
X56717438Y-69817802D01*
X57908855Y-69817802D01*
G37*
G36*
X57908855Y-67957649D02*
G01*
X57908855Y-69270698D01*
X56717438Y-69270698D01*
X56717438Y-67957649D01*
X57908855Y-67957649D01*
G37*
G36*
X61148981Y-70843622D02*
G01*
X60842334Y-70890415D01*
X60571224Y-71052169D01*
X60373387Y-71329461D01*
X60328325Y-71435178D01*
X60245227Y-71766441D01*
X60214363Y-72114918D01*
X60212554Y-72233608D01*
X60212554Y-75070001D01*
X59043119Y-75070001D01*
X59043119Y-69841738D01*
X60175917Y-69841738D01*
X60175917Y-70605974D01*
X60356362Y-70315385D01*
X60567158Y-70059999D01*
X60605296Y-70024676D01*
X60877180Y-69844598D01*
X61164318Y-69745756D01*
X61489523Y-69708690D01*
X61524138Y-69708382D01*
X61856338Y-69734989D01*
X62156849Y-69814810D01*
X62457043Y-69968218D01*
X62662798Y-70134097D01*
X62877443Y-70416959D01*
X63009265Y-70742870D01*
X63079079Y-71085545D01*
X63106398Y-71481888D01*
X63106831Y-71542890D01*
X63106831Y-75070001D01*
X61903691Y-75070001D01*
X61903691Y-71881410D01*
X61882761Y-71535972D01*
X61808436Y-71247111D01*
X61616178Y-70985868D01*
X61320405Y-70857807D01*
X61148981Y-70843622D01*
G37*
G36*
X65293293Y-70503392D02*
G01*
X65481775Y-70236006D01*
X65717887Y-69998309D01*
X65784221Y-69947740D01*
X66070190Y-69792765D01*
X66385252Y-69719835D01*
X66591688Y-69708382D01*
X66910563Y-69734468D01*
X67202234Y-69812727D01*
X67508137Y-69969969D01*
X67777014Y-70198224D01*
X67978011Y-70450391D01*
X68148336Y-70743792D01*
X68283421Y-71067486D01*
X68383267Y-71421474D01*
X68447873Y-71805756D01*
X68474792Y-72149132D01*
X68479197Y-72365255D01*
X68467104Y-72734986D01*
X68430825Y-73084431D01*
X68355366Y-73476988D01*
X68245079Y-73840332D01*
X68099964Y-74174465D01*
X67983872Y-74380991D01*
X67784868Y-74652333D01*
X67517794Y-74897944D01*
X67213134Y-75067142D01*
X66922080Y-75151351D01*
X66603412Y-75179421D01*
X66308151Y-75159541D01*
X66020326Y-75090819D01*
X65730852Y-74943558D01*
X65709483Y-74928095D01*
X65485511Y-74706845D01*
X65287400Y-74429713D01*
X65272777Y-74406637D01*
X65272777Y-75070001D01*
X64122393Y-75070001D01*
X64122393Y-72525967D01*
X65255191Y-72525967D01*
X65275361Y-72886622D01*
X65345085Y-73244523D01*
X65464612Y-73557345D01*
X65510181Y-73642401D01*
X65718010Y-73894510D01*
X65988870Y-74041970D01*
X66289804Y-74085213D01*
X66601878Y-74025107D01*
X66856661Y-73844787D01*
X66994689Y-73657788D01*
X67138195Y-73331040D01*
X67216963Y-72978949D01*
X67245763Y-72617242D01*
X67246748Y-72531096D01*
X67232202Y-72170536D01*
X67183155Y-71828810D01*
X67123649Y-71607858D01*
X66981042Y-71304921D01*
X66761708Y-71067575D01*
X66480010Y-70939773D01*
X66257564Y-70915430D01*
X65963007Y-70957852D01*
X65691188Y-71106991D01*
X65482429Y-71363511D01*
X65378290Y-71594181D01*
X65294141Y-71950085D01*
X65259519Y-72319220D01*
X65255191Y-72525967D01*
X64122393Y-72525967D01*
X64122393Y-67983294D01*
X65293293Y-67983294D01*
X65293293Y-70503392D01*
G37*
G36*
X71660793Y-69728668D02*
G01*
X71979430Y-69789525D01*
X72269301Y-69890955D01*
X72579177Y-70066226D01*
X72847630Y-70299921D01*
X73039699Y-70539296D01*
X73232934Y-70860886D01*
X73386188Y-71203755D01*
X73499464Y-71567901D01*
X73572759Y-71953324D01*
X73606076Y-72360026D01*
X73608297Y-72500322D01*
X73594415Y-72852288D01*
X73541109Y-73253159D01*
X73447824Y-73630588D01*
X73314558Y-73984576D01*
X73141314Y-74315123D01*
X73039699Y-74471606D01*
X72805764Y-74749338D01*
X72530407Y-74969609D01*
X72213628Y-75132418D01*
X71918004Y-75224197D01*
X71593614Y-75276073D01*
X71313391Y-75288842D01*
X70965567Y-75268890D01*
X70646579Y-75209034D01*
X70356429Y-75109274D01*
X70046313Y-74936888D01*
X69777722Y-74707040D01*
X69585617Y-74471606D01*
X69392383Y-74152780D01*
X69239128Y-73810513D01*
X69125853Y-73444804D01*
X69052557Y-73055653D01*
X69022017Y-72713455D01*
X69017020Y-72500322D01*
X69017157Y-72496902D01*
X70236280Y-72496902D01*
X70253682Y-72855619D01*
X70314862Y-73207317D01*
X70434503Y-73533697D01*
X70514717Y-73671466D01*
X70734022Y-73907027D01*
X71009085Y-74044808D01*
X71307529Y-74085213D01*
X71606460Y-74044808D01*
X71881067Y-73907027D01*
X72098876Y-73671466D01*
X72256566Y-73346004D01*
X72343119Y-72978952D01*
X72373413Y-72636505D01*
X72375847Y-72496902D01*
X72358537Y-72137651D01*
X72297679Y-71786118D01*
X72178668Y-71460874D01*
X72098876Y-71324048D01*
X71881067Y-71089460D01*
X71606460Y-70952248D01*
X71307529Y-70912010D01*
X71009085Y-70952248D01*
X70734022Y-71089460D01*
X70514717Y-71324048D01*
X70356193Y-71647766D01*
X70269181Y-72014283D01*
X70238727Y-72357024D01*
X70236280Y-72496902D01*
X69017157Y-72496902D01*
X69030902Y-72154015D01*
X69084208Y-71757953D01*
X69177493Y-71383168D01*
X69310758Y-71029661D01*
X69484003Y-70697431D01*
X69585617Y-70539296D01*
X69819604Y-70256915D01*
X70095115Y-70032957D01*
X70412152Y-69867424D01*
X70708070Y-69774108D01*
X71032825Y-69721365D01*
X71313391Y-69708382D01*
X71660793Y-69728668D01*
G37*
G36*
X77830279Y-75070001D02*
G01*
X77125394Y-71243692D01*
X76413182Y-75070001D01*
X75192456Y-75070001D01*
X73930697Y-69817802D01*
X75192456Y-69817802D01*
X75892944Y-73585981D01*
X76540676Y-69817802D01*
X77732093Y-69817802D01*
X78414996Y-73599659D01*
X79116950Y-69817802D01*
X80340607Y-69817802D01*
X79037815Y-75070001D01*
X77830279Y-75070001D01*
G37*
G36*
X85402456Y-68090069D02*
G01*
X85709400Y-68159066D01*
X86033907Y-68302581D01*
X86310604Y-68512333D01*
X86539490Y-68788323D01*
X86665519Y-69009114D01*
X86797239Y-69322337D01*
X86906633Y-69674294D01*
X86993702Y-70064988D01*
X87047282Y-70405432D01*
X87086575Y-70770666D01*
X87111579Y-71160691D01*
X87122295Y-71575507D01*
X87122742Y-71683085D01*
X87115552Y-72103644D01*
X87093982Y-72499360D01*
X87058033Y-72870231D01*
X87007704Y-73216258D01*
X86924570Y-73613855D01*
X86818969Y-73972634D01*
X86690899Y-74292593D01*
X86662588Y-74351927D01*
X86466572Y-74670331D01*
X86222539Y-74922859D01*
X85930490Y-75109511D01*
X85650436Y-75214731D01*
X85337037Y-75274203D01*
X85062309Y-75288842D01*
X84721777Y-75265968D01*
X84414589Y-75197346D01*
X84089979Y-75054613D01*
X83813385Y-74846003D01*
X83584808Y-74571516D01*
X83459099Y-74351927D01*
X83326958Y-74039731D01*
X83217213Y-73688717D01*
X83129865Y-73298883D01*
X83076113Y-72959067D01*
X83036694Y-72594407D01*
X83011610Y-72204902D01*
X83000859Y-71790554D01*
X83000411Y-71683085D01*
X83000527Y-71676246D01*
X84199155Y-71676246D01*
X84203270Y-72044232D01*
X84219069Y-72448790D01*
X84246718Y-72812956D01*
X84293952Y-73186766D01*
X84367683Y-73546658D01*
X84491240Y-73859889D01*
X84718133Y-74103512D01*
X85028491Y-74194001D01*
X85060844Y-74194634D01*
X85353535Y-74131021D01*
X85594170Y-73914101D01*
X85738998Y-73583315D01*
X85749609Y-73543238D01*
X85820134Y-73184843D01*
X85865314Y-72811991D01*
X85891761Y-72448386D01*
X85906873Y-72044149D01*
X85910809Y-71676246D01*
X85906838Y-71291814D01*
X85894924Y-70939940D01*
X85870143Y-70560667D01*
X85826776Y-70177437D01*
X85758151Y-69817599D01*
X85748143Y-69778479D01*
X85611129Y-69453002D01*
X85378758Y-69234209D01*
X85060844Y-69161278D01*
X84768354Y-69221551D01*
X84526285Y-69427084D01*
X84378652Y-69740507D01*
X84367683Y-69778479D01*
X84293952Y-70127899D01*
X84246718Y-70502013D01*
X84219069Y-70873472D01*
X84205080Y-71218835D01*
X84199320Y-71596755D01*
X84199155Y-71676246D01*
X83000527Y-71676246D01*
X83007578Y-71262071D01*
X83029079Y-70865848D01*
X83064914Y-70494416D01*
X83115083Y-70147774D01*
X83197952Y-69749334D01*
X83303217Y-69389629D01*
X83430879Y-69068660D01*
X83459099Y-69009114D01*
X83655665Y-68688966D01*
X83900248Y-68435056D01*
X84192847Y-68247383D01*
X84473359Y-68141587D01*
X84787216Y-68081789D01*
X85062309Y-68067070D01*
X85402456Y-68090069D01*
G37*
G36*
X87936071Y-73647530D02*
G01*
X89184640Y-73647530D01*
X89184640Y-75070001D01*
X87936071Y-75070001D01*
X87936071Y-73647530D01*
G37*
G36*
X91357913Y-69469024D02*
G01*
X91224076Y-69777898D01*
X91170123Y-70135621D01*
X91167404Y-70291389D01*
X90071242Y-70291389D01*
X90096524Y-69940325D01*
X90150205Y-69601786D01*
X90223649Y-69304892D01*
X90368373Y-68987780D01*
X90549620Y-68714094D01*
X90676475Y-68562883D01*
X90929267Y-68350452D01*
X91204856Y-68203316D01*
X91224556Y-68195297D01*
X91530299Y-68107642D01*
X91836121Y-68071578D01*
X92004180Y-68067070D01*
X92313969Y-68085222D01*
X92645828Y-68152284D01*
X92945850Y-68268761D01*
X93214036Y-68434652D01*
X93386106Y-68583399D01*
X93616274Y-68862828D01*
X93780680Y-69186496D01*
X93879323Y-69554402D01*
X93911691Y-69912609D01*
X93912205Y-69966546D01*
X93881579Y-70332362D01*
X93789702Y-70660444D01*
X93617891Y-70977752D01*
X93598597Y-71004334D01*
X93370930Y-71247526D01*
X93186803Y-71363371D01*
X93458335Y-71504006D01*
X93648422Y-71689924D01*
X93845252Y-71958560D01*
X93985844Y-72272077D01*
X94070199Y-72630472D01*
X94097878Y-72980884D01*
X94098318Y-73033748D01*
X94073143Y-73415388D01*
X93997619Y-73776412D01*
X93871746Y-74116819D01*
X93695523Y-74436610D01*
X93572219Y-74610091D01*
X93318498Y-74874565D01*
X93062513Y-75049556D01*
X92770979Y-75176822D01*
X92443895Y-75256363D01*
X92144171Y-75286191D01*
X92017369Y-75288842D01*
X91711867Y-75274043D01*
X91364121Y-75213919D01*
X91054300Y-75107547D01*
X90782403Y-74954926D01*
X90506188Y-74710733D01*
X90284583Y-74399942D01*
X90252958Y-74341668D01*
X90125253Y-74027867D01*
X90033947Y-73663485D01*
X89983343Y-73297128D01*
X89964263Y-72996134D01*
X91117578Y-72996134D01*
X91143016Y-73356900D01*
X91233349Y-73688563D01*
X91422004Y-73976687D01*
X91693777Y-74145213D01*
X92012972Y-74194634D01*
X92317885Y-74131898D01*
X92584157Y-73943689D01*
X92616741Y-73909114D01*
X92793053Y-73611506D01*
X92868364Y-73249594D01*
X92874661Y-73088458D01*
X92836755Y-72726541D01*
X92705723Y-72411649D01*
X92481096Y-72188587D01*
X92395457Y-72139575D01*
X92097929Y-72048413D01*
X91779542Y-72012600D01*
X91538164Y-72006218D01*
X91538164Y-71021431D01*
X91833116Y-71007005D01*
X92141274Y-70960844D01*
X92338304Y-70891494D01*
X92576738Y-70680239D01*
X92705126Y-70351656D01*
X92729581Y-70067419D01*
X92685467Y-69723809D01*
X92528813Y-69414313D01*
X92271146Y-69216876D01*
X91967543Y-69161278D01*
X91666151Y-69212068D01*
X91409754Y-69396896D01*
X91357913Y-69469024D01*
G37*
D11*
X47548969Y-49923819D02*
X47072779Y-49923819D01*
X47072779Y-49923819D02*
X47025160Y-50400009D01*
X47025160Y-50400009D02*
X47072779Y-50352390D01*
X47072779Y-50352390D02*
X47168017Y-50304771D01*
X47168017Y-50304771D02*
X47406112Y-50304771D01*
X47406112Y-50304771D02*
X47501350Y-50352390D01*
X47501350Y-50352390D02*
X47548969Y-50400009D01*
X47548969Y-50400009D02*
X47596588Y-50495247D01*
X47596588Y-50495247D02*
X47596588Y-50733342D01*
X47596588Y-50733342D02*
X47548969Y-50828580D01*
X47548969Y-50828580D02*
X47501350Y-50876200D01*
X47501350Y-50876200D02*
X47406112Y-50923819D01*
X47406112Y-50923819D02*
X47168017Y-50923819D01*
X47168017Y-50923819D02*
X47072779Y-50876200D01*
X47072779Y-50876200D02*
X47025160Y-50828580D01*
X47882303Y-49923819D02*
X48215636Y-50923819D01*
X48215636Y-50923819D02*
X48548969Y-49923819D01*
X220031541Y-52209819D02*
X220269636Y-53209819D01*
X220269636Y-53209819D02*
X220460112Y-52495533D01*
X220460112Y-52495533D02*
X220650588Y-53209819D01*
X220650588Y-53209819D02*
X220888684Y-52209819D01*
X221698207Y-53209819D02*
X221698207Y-52686009D01*
X221698207Y-52686009D02*
X221650588Y-52590771D01*
X221650588Y-52590771D02*
X221555350Y-52543152D01*
X221555350Y-52543152D02*
X221364874Y-52543152D01*
X221364874Y-52543152D02*
X221269636Y-52590771D01*
X221698207Y-53162200D02*
X221602969Y-53209819D01*
X221602969Y-53209819D02*
X221364874Y-53209819D01*
X221364874Y-53209819D02*
X221269636Y-53162200D01*
X221269636Y-53162200D02*
X221222017Y-53066961D01*
X221222017Y-53066961D02*
X221222017Y-52971723D01*
X221222017Y-52971723D02*
X221269636Y-52876485D01*
X221269636Y-52876485D02*
X221364874Y-52828866D01*
X221364874Y-52828866D02*
X221602969Y-52828866D01*
X221602969Y-52828866D02*
X221698207Y-52781247D01*
X222079160Y-52543152D02*
X222317255Y-53209819D01*
X222555350Y-52543152D02*
X222317255Y-53209819D01*
X222317255Y-53209819D02*
X222222017Y-53447914D01*
X222222017Y-53447914D02*
X222174398Y-53495533D01*
X222174398Y-53495533D02*
X222079160Y-53543152D01*
X222841065Y-52209819D02*
X223079160Y-53209819D01*
X223079160Y-53209819D02*
X223269636Y-52495533D01*
X223269636Y-52495533D02*
X223460112Y-53209819D01*
X223460112Y-53209819D02*
X223698208Y-52209819D01*
X224507731Y-53209819D02*
X224507731Y-52686009D01*
X224507731Y-52686009D02*
X224460112Y-52590771D01*
X224460112Y-52590771D02*
X224364874Y-52543152D01*
X224364874Y-52543152D02*
X224174398Y-52543152D01*
X224174398Y-52543152D02*
X224079160Y-52590771D01*
X224507731Y-53162200D02*
X224412493Y-53209819D01*
X224412493Y-53209819D02*
X224174398Y-53209819D01*
X224174398Y-53209819D02*
X224079160Y-53162200D01*
X224079160Y-53162200D02*
X224031541Y-53066961D01*
X224031541Y-53066961D02*
X224031541Y-52971723D01*
X224031541Y-52971723D02*
X224079160Y-52876485D01*
X224079160Y-52876485D02*
X224174398Y-52828866D01*
X224174398Y-52828866D02*
X224412493Y-52828866D01*
X224412493Y-52828866D02*
X224507731Y-52781247D01*
X224888684Y-52543152D02*
X225126779Y-53209819D01*
X225364874Y-52543152D02*
X225126779Y-53209819D01*
X225126779Y-53209819D02*
X225031541Y-53447914D01*
X225031541Y-53447914D02*
X224983922Y-53495533D01*
X224983922Y-53495533D02*
X224888684Y-53543152D01*
X225650589Y-52209819D02*
X225888684Y-53209819D01*
X225888684Y-53209819D02*
X226079160Y-52495533D01*
X226079160Y-52495533D02*
X226269636Y-53209819D01*
X226269636Y-53209819D02*
X226507732Y-52209819D01*
X227317255Y-53209819D02*
X227317255Y-52686009D01*
X227317255Y-52686009D02*
X227269636Y-52590771D01*
X227269636Y-52590771D02*
X227174398Y-52543152D01*
X227174398Y-52543152D02*
X226983922Y-52543152D01*
X226983922Y-52543152D02*
X226888684Y-52590771D01*
X227317255Y-53162200D02*
X227222017Y-53209819D01*
X227222017Y-53209819D02*
X226983922Y-53209819D01*
X226983922Y-53209819D02*
X226888684Y-53162200D01*
X226888684Y-53162200D02*
X226841065Y-53066961D01*
X226841065Y-53066961D02*
X226841065Y-52971723D01*
X226841065Y-52971723D02*
X226888684Y-52876485D01*
X226888684Y-52876485D02*
X226983922Y-52828866D01*
X226983922Y-52828866D02*
X227222017Y-52828866D01*
X227222017Y-52828866D02*
X227317255Y-52781247D01*
X227698208Y-52543152D02*
X227936303Y-53209819D01*
X228174398Y-52543152D02*
X227936303Y-53209819D01*
X227936303Y-53209819D02*
X227841065Y-53447914D01*
X227841065Y-53447914D02*
X227793446Y-53495533D01*
X227793446Y-53495533D02*
X227698208Y-53543152D01*
D12*
X58370115Y-56134533D02*
X57608211Y-56134533D01*
X57707884Y-59181466D02*
X58469789Y-59181466D01*
X58088836Y-59562419D02*
X58088836Y-58800514D01*
D13*
X208561101Y-37127219D02*
X208227768Y-36651028D01*
X207989673Y-37127219D02*
X207989673Y-36127219D01*
X207989673Y-36127219D02*
X208370625Y-36127219D01*
X208370625Y-36127219D02*
X208465863Y-36174838D01*
X208465863Y-36174838D02*
X208513482Y-36222457D01*
X208513482Y-36222457D02*
X208561101Y-36317695D01*
X208561101Y-36317695D02*
X208561101Y-36460552D01*
X208561101Y-36460552D02*
X208513482Y-36555790D01*
X208513482Y-36555790D02*
X208465863Y-36603409D01*
X208465863Y-36603409D02*
X208370625Y-36651028D01*
X208370625Y-36651028D02*
X207989673Y-36651028D01*
X208989673Y-36603409D02*
X209323006Y-36603409D01*
X209465863Y-37127219D02*
X208989673Y-37127219D01*
X208989673Y-37127219D02*
X208989673Y-36127219D01*
X208989673Y-36127219D02*
X209465863Y-36127219D01*
X209846816Y-37079600D02*
X209989673Y-37127219D01*
X209989673Y-37127219D02*
X210227768Y-37127219D01*
X210227768Y-37127219D02*
X210323006Y-37079600D01*
X210323006Y-37079600D02*
X210370625Y-37031980D01*
X210370625Y-37031980D02*
X210418244Y-36936742D01*
X210418244Y-36936742D02*
X210418244Y-36841504D01*
X210418244Y-36841504D02*
X210370625Y-36746266D01*
X210370625Y-36746266D02*
X210323006Y-36698647D01*
X210323006Y-36698647D02*
X210227768Y-36651028D01*
X210227768Y-36651028D02*
X210037292Y-36603409D01*
X210037292Y-36603409D02*
X209942054Y-36555790D01*
X209942054Y-36555790D02*
X209894435Y-36508171D01*
X209894435Y-36508171D02*
X209846816Y-36412933D01*
X209846816Y-36412933D02*
X209846816Y-36317695D01*
X209846816Y-36317695D02*
X209894435Y-36222457D01*
X209894435Y-36222457D02*
X209942054Y-36174838D01*
X209942054Y-36174838D02*
X210037292Y-36127219D01*
X210037292Y-36127219D02*
X210275387Y-36127219D01*
X210275387Y-36127219D02*
X210418244Y-36174838D01*
X210846816Y-36603409D02*
X211180149Y-36603409D01*
X211323006Y-37127219D02*
X210846816Y-37127219D01*
X210846816Y-37127219D02*
X210846816Y-36127219D01*
X210846816Y-36127219D02*
X211323006Y-36127219D01*
X211608721Y-36127219D02*
X212180149Y-36127219D01*
X211894435Y-37127219D02*
X211894435Y-36127219D01*
D11*
X74791541Y-49659819D02*
X75410588Y-49659819D01*
X75410588Y-49659819D02*
X75077255Y-50040771D01*
X75077255Y-50040771D02*
X75220112Y-50040771D01*
X75220112Y-50040771D02*
X75315350Y-50088390D01*
X75315350Y-50088390D02*
X75362969Y-50136009D01*
X75362969Y-50136009D02*
X75410588Y-50231247D01*
X75410588Y-50231247D02*
X75410588Y-50469342D01*
X75410588Y-50469342D02*
X75362969Y-50564580D01*
X75362969Y-50564580D02*
X75315350Y-50612200D01*
X75315350Y-50612200D02*
X75220112Y-50659819D01*
X75220112Y-50659819D02*
X74934398Y-50659819D01*
X74934398Y-50659819D02*
X74839160Y-50612200D01*
X74839160Y-50612200D02*
X74791541Y-50564580D01*
X75696303Y-49659819D02*
X76029636Y-50659819D01*
X76029636Y-50659819D02*
X76362969Y-49659819D01*
X76601065Y-49659819D02*
X77220112Y-49659819D01*
X77220112Y-49659819D02*
X76886779Y-50040771D01*
X76886779Y-50040771D02*
X77029636Y-50040771D01*
X77029636Y-50040771D02*
X77124874Y-50088390D01*
X77124874Y-50088390D02*
X77172493Y-50136009D01*
X77172493Y-50136009D02*
X77220112Y-50231247D01*
X77220112Y-50231247D02*
X77220112Y-50469342D01*
X77220112Y-50469342D02*
X77172493Y-50564580D01*
X77172493Y-50564580D02*
X77124874Y-50612200D01*
X77124874Y-50612200D02*
X77029636Y-50659819D01*
X77029636Y-50659819D02*
X76743922Y-50659819D01*
X76743922Y-50659819D02*
X76648684Y-50612200D01*
X76648684Y-50612200D02*
X76601065Y-50564580D01*
X78076588Y-54035438D02*
X77981350Y-53987819D01*
X77981350Y-53987819D02*
X77838493Y-53987819D01*
X77838493Y-53987819D02*
X77695636Y-54035438D01*
X77695636Y-54035438D02*
X77600398Y-54130676D01*
X77600398Y-54130676D02*
X77552779Y-54225914D01*
X77552779Y-54225914D02*
X77505160Y-54416390D01*
X77505160Y-54416390D02*
X77505160Y-54559247D01*
X77505160Y-54559247D02*
X77552779Y-54749723D01*
X77552779Y-54749723D02*
X77600398Y-54844961D01*
X77600398Y-54844961D02*
X77695636Y-54940200D01*
X77695636Y-54940200D02*
X77838493Y-54987819D01*
X77838493Y-54987819D02*
X77933731Y-54987819D01*
X77933731Y-54987819D02*
X78076588Y-54940200D01*
X78076588Y-54940200D02*
X78124207Y-54892580D01*
X78124207Y-54892580D02*
X78124207Y-54559247D01*
X78124207Y-54559247D02*
X77933731Y-54559247D01*
X78552779Y-54987819D02*
X78552779Y-53987819D01*
X78552779Y-53987819D02*
X79124207Y-54987819D01*
X79124207Y-54987819D02*
X79124207Y-53987819D01*
X79600398Y-54987819D02*
X79600398Y-53987819D01*
X79600398Y-53987819D02*
X79838493Y-53987819D01*
X79838493Y-53987819D02*
X79981350Y-54035438D01*
X79981350Y-54035438D02*
X80076588Y-54130676D01*
X80076588Y-54130676D02*
X80124207Y-54225914D01*
X80124207Y-54225914D02*
X80171826Y-54416390D01*
X80171826Y-54416390D02*
X80171826Y-54559247D01*
X80171826Y-54559247D02*
X80124207Y-54749723D01*
X80124207Y-54749723D02*
X80076588Y-54844961D01*
X80076588Y-54844961D02*
X79981350Y-54940200D01*
X79981350Y-54940200D02*
X79838493Y-54987819D01*
X79838493Y-54987819D02*
X79600398Y-54987819D01*
D13*
X239273006Y-36693409D02*
X239415863Y-36741028D01*
X239415863Y-36741028D02*
X239463482Y-36788647D01*
X239463482Y-36788647D02*
X239511101Y-36883885D01*
X239511101Y-36883885D02*
X239511101Y-37026742D01*
X239511101Y-37026742D02*
X239463482Y-37121980D01*
X239463482Y-37121980D02*
X239415863Y-37169600D01*
X239415863Y-37169600D02*
X239320625Y-37217219D01*
X239320625Y-37217219D02*
X238939673Y-37217219D01*
X238939673Y-37217219D02*
X238939673Y-36217219D01*
X238939673Y-36217219D02*
X239273006Y-36217219D01*
X239273006Y-36217219D02*
X239368244Y-36264838D01*
X239368244Y-36264838D02*
X239415863Y-36312457D01*
X239415863Y-36312457D02*
X239463482Y-36407695D01*
X239463482Y-36407695D02*
X239463482Y-36502933D01*
X239463482Y-36502933D02*
X239415863Y-36598171D01*
X239415863Y-36598171D02*
X239368244Y-36645790D01*
X239368244Y-36645790D02*
X239273006Y-36693409D01*
X239273006Y-36693409D02*
X238939673Y-36693409D01*
X240130149Y-36217219D02*
X240320625Y-36217219D01*
X240320625Y-36217219D02*
X240415863Y-36264838D01*
X240415863Y-36264838D02*
X240511101Y-36360076D01*
X240511101Y-36360076D02*
X240558720Y-36550552D01*
X240558720Y-36550552D02*
X240558720Y-36883885D01*
X240558720Y-36883885D02*
X240511101Y-37074361D01*
X240511101Y-37074361D02*
X240415863Y-37169600D01*
X240415863Y-37169600D02*
X240320625Y-37217219D01*
X240320625Y-37217219D02*
X240130149Y-37217219D01*
X240130149Y-37217219D02*
X240034911Y-37169600D01*
X240034911Y-37169600D02*
X239939673Y-37074361D01*
X239939673Y-37074361D02*
X239892054Y-36883885D01*
X239892054Y-36883885D02*
X239892054Y-36550552D01*
X239892054Y-36550552D02*
X239939673Y-36360076D01*
X239939673Y-36360076D02*
X240034911Y-36264838D01*
X240034911Y-36264838D02*
X240130149Y-36217219D01*
X241177768Y-36217219D02*
X241368244Y-36217219D01*
X241368244Y-36217219D02*
X241463482Y-36264838D01*
X241463482Y-36264838D02*
X241558720Y-36360076D01*
X241558720Y-36360076D02*
X241606339Y-36550552D01*
X241606339Y-36550552D02*
X241606339Y-36883885D01*
X241606339Y-36883885D02*
X241558720Y-37074361D01*
X241558720Y-37074361D02*
X241463482Y-37169600D01*
X241463482Y-37169600D02*
X241368244Y-37217219D01*
X241368244Y-37217219D02*
X241177768Y-37217219D01*
X241177768Y-37217219D02*
X241082530Y-37169600D01*
X241082530Y-37169600D02*
X240987292Y-37074361D01*
X240987292Y-37074361D02*
X240939673Y-36883885D01*
X240939673Y-36883885D02*
X240939673Y-36550552D01*
X240939673Y-36550552D02*
X240987292Y-36360076D01*
X240987292Y-36360076D02*
X241082530Y-36264838D01*
X241082530Y-36264838D02*
X241177768Y-36217219D01*
X241892054Y-36217219D02*
X242463482Y-36217219D01*
X242177768Y-37217219D02*
X242177768Y-36217219D01*
D12*
X56498609Y-58290782D02*
X56546228Y-58147925D01*
X56546228Y-58147925D02*
X56593847Y-58100306D01*
X56593847Y-58100306D02*
X56689085Y-58052687D01*
X56689085Y-58052687D02*
X56831942Y-58052687D01*
X56831942Y-58052687D02*
X56927180Y-58100306D01*
X56927180Y-58100306D02*
X56974800Y-58147925D01*
X56974800Y-58147925D02*
X57022419Y-58243163D01*
X57022419Y-58243163D02*
X57022419Y-58624115D01*
X57022419Y-58624115D02*
X56022419Y-58624115D01*
X56022419Y-58624115D02*
X56022419Y-58290782D01*
X56022419Y-58290782D02*
X56070038Y-58195544D01*
X56070038Y-58195544D02*
X56117657Y-58147925D01*
X56117657Y-58147925D02*
X56212895Y-58100306D01*
X56212895Y-58100306D02*
X56308133Y-58100306D01*
X56308133Y-58100306D02*
X56403371Y-58147925D01*
X56403371Y-58147925D02*
X56450990Y-58195544D01*
X56450990Y-58195544D02*
X56498609Y-58290782D01*
X56498609Y-58290782D02*
X56498609Y-58624115D01*
X56736704Y-57671734D02*
X56736704Y-57195544D01*
X57022419Y-57766972D02*
X56022419Y-57433639D01*
X56022419Y-57433639D02*
X57022419Y-57100306D01*
X56022419Y-56909829D02*
X56022419Y-56338401D01*
X57022419Y-56624115D02*
X56022419Y-56624115D01*
D11*
X47816779Y-47289819D02*
X47816779Y-46289819D01*
X47816779Y-46289819D02*
X48197731Y-46289819D01*
X48197731Y-46289819D02*
X48292969Y-46337438D01*
X48292969Y-46337438D02*
X48340588Y-46385057D01*
X48340588Y-46385057D02*
X48388207Y-46480295D01*
X48388207Y-46480295D02*
X48388207Y-46623152D01*
X48388207Y-46623152D02*
X48340588Y-46718390D01*
X48340588Y-46718390D02*
X48292969Y-46766009D01*
X48292969Y-46766009D02*
X48197731Y-46813628D01*
X48197731Y-46813628D02*
X47816779Y-46813628D01*
X48721541Y-46289819D02*
X48959636Y-47289819D01*
X48959636Y-47289819D02*
X49150112Y-46575533D01*
X49150112Y-46575533D02*
X49340588Y-47289819D01*
X49340588Y-47289819D02*
X49578684Y-46289819D01*
X50531064Y-47289819D02*
X50197731Y-46813628D01*
X49959636Y-47289819D02*
X49959636Y-46289819D01*
X49959636Y-46289819D02*
X50340588Y-46289819D01*
X50340588Y-46289819D02*
X50435826Y-46337438D01*
X50435826Y-46337438D02*
X50483445Y-46385057D01*
X50483445Y-46385057D02*
X50531064Y-46480295D01*
X50531064Y-46480295D02*
X50531064Y-46623152D01*
X50531064Y-46623152D02*
X50483445Y-46718390D01*
X50483445Y-46718390D02*
X50435826Y-46766009D01*
X50435826Y-46766009D02*
X50340588Y-46813628D01*
X50340588Y-46813628D02*
X49959636Y-46813628D01*
X44225333Y-36344819D02*
X43892000Y-35868628D01*
X43653905Y-36344819D02*
X43653905Y-35344819D01*
X43653905Y-35344819D02*
X44034857Y-35344819D01*
X44034857Y-35344819D02*
X44130095Y-35392438D01*
X44130095Y-35392438D02*
X44177714Y-35440057D01*
X44177714Y-35440057D02*
X44225333Y-35535295D01*
X44225333Y-35535295D02*
X44225333Y-35678152D01*
X44225333Y-35678152D02*
X44177714Y-35773390D01*
X44177714Y-35773390D02*
X44130095Y-35821009D01*
X44130095Y-35821009D02*
X44034857Y-35868628D01*
X44034857Y-35868628D02*
X43653905Y-35868628D01*
X44558667Y-35344819D02*
X45225333Y-35344819D01*
X45225333Y-35344819D02*
X44796762Y-36344819D01*
X52293905Y-33728819D02*
X52293905Y-32728819D01*
X52293905Y-32728819D02*
X52532000Y-32728819D01*
X52532000Y-32728819D02*
X52674857Y-32776438D01*
X52674857Y-32776438D02*
X52770095Y-32871676D01*
X52770095Y-32871676D02*
X52817714Y-32966914D01*
X52817714Y-32966914D02*
X52865333Y-33157390D01*
X52865333Y-33157390D02*
X52865333Y-33300247D01*
X52865333Y-33300247D02*
X52817714Y-33490723D01*
X52817714Y-33490723D02*
X52770095Y-33585961D01*
X52770095Y-33585961D02*
X52674857Y-33681200D01*
X52674857Y-33681200D02*
X52532000Y-33728819D01*
X52532000Y-33728819D02*
X52293905Y-33728819D01*
X53817714Y-33728819D02*
X53246286Y-33728819D01*
X53532000Y-33728819D02*
X53532000Y-32728819D01*
X53532000Y-32728819D02*
X53436762Y-32871676D01*
X53436762Y-32871676D02*
X53341524Y-32966914D01*
X53341524Y-32966914D02*
X53246286Y-33014533D01*
X209843333Y-50679580D02*
X209795714Y-50727200D01*
X209795714Y-50727200D02*
X209652857Y-50774819D01*
X209652857Y-50774819D02*
X209557619Y-50774819D01*
X209557619Y-50774819D02*
X209414762Y-50727200D01*
X209414762Y-50727200D02*
X209319524Y-50631961D01*
X209319524Y-50631961D02*
X209271905Y-50536723D01*
X209271905Y-50536723D02*
X209224286Y-50346247D01*
X209224286Y-50346247D02*
X209224286Y-50203390D01*
X209224286Y-50203390D02*
X209271905Y-50012914D01*
X209271905Y-50012914D02*
X209319524Y-49917676D01*
X209319524Y-49917676D02*
X209414762Y-49822438D01*
X209414762Y-49822438D02*
X209557619Y-49774819D01*
X209557619Y-49774819D02*
X209652857Y-49774819D01*
X209652857Y-49774819D02*
X209795714Y-49822438D01*
X209795714Y-49822438D02*
X209843333Y-49870057D01*
X210224286Y-49870057D02*
X210271905Y-49822438D01*
X210271905Y-49822438D02*
X210367143Y-49774819D01*
X210367143Y-49774819D02*
X210605238Y-49774819D01*
X210605238Y-49774819D02*
X210700476Y-49822438D01*
X210700476Y-49822438D02*
X210748095Y-49870057D01*
X210748095Y-49870057D02*
X210795714Y-49965295D01*
X210795714Y-49965295D02*
X210795714Y-50060533D01*
X210795714Y-50060533D02*
X210748095Y-50203390D01*
X210748095Y-50203390D02*
X210176667Y-50774819D01*
X210176667Y-50774819D02*
X210795714Y-50774819D01*
X39321288Y-38232536D02*
X39273669Y-38280156D01*
X39273669Y-38280156D02*
X39130812Y-38327775D01*
X39130812Y-38327775D02*
X39035574Y-38327775D01*
X39035574Y-38327775D02*
X38892717Y-38280156D01*
X38892717Y-38280156D02*
X38797479Y-38184917D01*
X38797479Y-38184917D02*
X38749860Y-38089679D01*
X38749860Y-38089679D02*
X38702241Y-37899203D01*
X38702241Y-37899203D02*
X38702241Y-37756346D01*
X38702241Y-37756346D02*
X38749860Y-37565870D01*
X38749860Y-37565870D02*
X38797479Y-37470632D01*
X38797479Y-37470632D02*
X38892717Y-37375394D01*
X38892717Y-37375394D02*
X39035574Y-37327775D01*
X39035574Y-37327775D02*
X39130812Y-37327775D01*
X39130812Y-37327775D02*
X39273669Y-37375394D01*
X39273669Y-37375394D02*
X39321288Y-37423013D01*
X39702241Y-37423013D02*
X39749860Y-37375394D01*
X39749860Y-37375394D02*
X39845098Y-37327775D01*
X39845098Y-37327775D02*
X40083193Y-37327775D01*
X40083193Y-37327775D02*
X40178431Y-37375394D01*
X40178431Y-37375394D02*
X40226050Y-37423013D01*
X40226050Y-37423013D02*
X40273669Y-37518251D01*
X40273669Y-37518251D02*
X40273669Y-37613489D01*
X40273669Y-37613489D02*
X40226050Y-37756346D01*
X40226050Y-37756346D02*
X39654622Y-38327775D01*
X39654622Y-38327775D02*
X40273669Y-38327775D01*
X40654622Y-37423013D02*
X40702241Y-37375394D01*
X40702241Y-37375394D02*
X40797479Y-37327775D01*
X40797479Y-37327775D02*
X41035574Y-37327775D01*
X41035574Y-37327775D02*
X41130812Y-37375394D01*
X41130812Y-37375394D02*
X41178431Y-37423013D01*
X41178431Y-37423013D02*
X41226050Y-37518251D01*
X41226050Y-37518251D02*
X41226050Y-37613489D01*
X41226050Y-37613489D02*
X41178431Y-37756346D01*
X41178431Y-37756346D02*
X40607003Y-38327775D01*
X40607003Y-38327775D02*
X41226050Y-38327775D01*
X206049580Y-42782857D02*
X206097200Y-42830476D01*
X206097200Y-42830476D02*
X206144819Y-42973333D01*
X206144819Y-42973333D02*
X206144819Y-43068571D01*
X206144819Y-43068571D02*
X206097200Y-43211428D01*
X206097200Y-43211428D02*
X206001961Y-43306666D01*
X206001961Y-43306666D02*
X205906723Y-43354285D01*
X205906723Y-43354285D02*
X205716247Y-43401904D01*
X205716247Y-43401904D02*
X205573390Y-43401904D01*
X205573390Y-43401904D02*
X205382914Y-43354285D01*
X205382914Y-43354285D02*
X205287676Y-43306666D01*
X205287676Y-43306666D02*
X205192438Y-43211428D01*
X205192438Y-43211428D02*
X205144819Y-43068571D01*
X205144819Y-43068571D02*
X205144819Y-42973333D01*
X205144819Y-42973333D02*
X205192438Y-42830476D01*
X205192438Y-42830476D02*
X205240057Y-42782857D01*
X206144819Y-41830476D02*
X206144819Y-42401904D01*
X206144819Y-42116190D02*
X205144819Y-42116190D01*
X205144819Y-42116190D02*
X205287676Y-42211428D01*
X205287676Y-42211428D02*
X205382914Y-42306666D01*
X205382914Y-42306666D02*
X205430533Y-42401904D01*
X205573390Y-41259047D02*
X205525771Y-41354285D01*
X205525771Y-41354285D02*
X205478152Y-41401904D01*
X205478152Y-41401904D02*
X205382914Y-41449523D01*
X205382914Y-41449523D02*
X205335295Y-41449523D01*
X205335295Y-41449523D02*
X205240057Y-41401904D01*
X205240057Y-41401904D02*
X205192438Y-41354285D01*
X205192438Y-41354285D02*
X205144819Y-41259047D01*
X205144819Y-41259047D02*
X205144819Y-41068571D01*
X205144819Y-41068571D02*
X205192438Y-40973333D01*
X205192438Y-40973333D02*
X205240057Y-40925714D01*
X205240057Y-40925714D02*
X205335295Y-40878095D01*
X205335295Y-40878095D02*
X205382914Y-40878095D01*
X205382914Y-40878095D02*
X205478152Y-40925714D01*
X205478152Y-40925714D02*
X205525771Y-40973333D01*
X205525771Y-40973333D02*
X205573390Y-41068571D01*
X205573390Y-41068571D02*
X205573390Y-41259047D01*
X205573390Y-41259047D02*
X205621009Y-41354285D01*
X205621009Y-41354285D02*
X205668628Y-41401904D01*
X205668628Y-41401904D02*
X205763866Y-41449523D01*
X205763866Y-41449523D02*
X205954342Y-41449523D01*
X205954342Y-41449523D02*
X206049580Y-41401904D01*
X206049580Y-41401904D02*
X206097200Y-41354285D01*
X206097200Y-41354285D02*
X206144819Y-41259047D01*
X206144819Y-41259047D02*
X206144819Y-41068571D01*
X206144819Y-41068571D02*
X206097200Y-40973333D01*
X206097200Y-40973333D02*
X206049580Y-40925714D01*
X206049580Y-40925714D02*
X205954342Y-40878095D01*
X205954342Y-40878095D02*
X205763866Y-40878095D01*
X205763866Y-40878095D02*
X205668628Y-40925714D01*
X205668628Y-40925714D02*
X205621009Y-40973333D01*
X205621009Y-40973333D02*
X205573390Y-41068571D01*
X209319580Y-42652857D02*
X209367200Y-42700476D01*
X209367200Y-42700476D02*
X209414819Y-42843333D01*
X209414819Y-42843333D02*
X209414819Y-42938571D01*
X209414819Y-42938571D02*
X209367200Y-43081428D01*
X209367200Y-43081428D02*
X209271961Y-43176666D01*
X209271961Y-43176666D02*
X209176723Y-43224285D01*
X209176723Y-43224285D02*
X208986247Y-43271904D01*
X208986247Y-43271904D02*
X208843390Y-43271904D01*
X208843390Y-43271904D02*
X208652914Y-43224285D01*
X208652914Y-43224285D02*
X208557676Y-43176666D01*
X208557676Y-43176666D02*
X208462438Y-43081428D01*
X208462438Y-43081428D02*
X208414819Y-42938571D01*
X208414819Y-42938571D02*
X208414819Y-42843333D01*
X208414819Y-42843333D02*
X208462438Y-42700476D01*
X208462438Y-42700476D02*
X208510057Y-42652857D01*
X209414819Y-41700476D02*
X209414819Y-42271904D01*
X209414819Y-41986190D02*
X208414819Y-41986190D01*
X208414819Y-41986190D02*
X208557676Y-42081428D01*
X208557676Y-42081428D02*
X208652914Y-42176666D01*
X208652914Y-42176666D02*
X208700533Y-42271904D01*
X208748152Y-40843333D02*
X209414819Y-40843333D01*
X208367200Y-41081428D02*
X209081485Y-41319523D01*
X209081485Y-41319523D02*
X209081485Y-40700476D01*
X57039523Y-43689580D02*
X56991904Y-43737200D01*
X56991904Y-43737200D02*
X56849047Y-43784819D01*
X56849047Y-43784819D02*
X56753809Y-43784819D01*
X56753809Y-43784819D02*
X56610952Y-43737200D01*
X56610952Y-43737200D02*
X56515714Y-43641961D01*
X56515714Y-43641961D02*
X56468095Y-43546723D01*
X56468095Y-43546723D02*
X56420476Y-43356247D01*
X56420476Y-43356247D02*
X56420476Y-43213390D01*
X56420476Y-43213390D02*
X56468095Y-43022914D01*
X56468095Y-43022914D02*
X56515714Y-42927676D01*
X56515714Y-42927676D02*
X56610952Y-42832438D01*
X56610952Y-42832438D02*
X56753809Y-42784819D01*
X56753809Y-42784819D02*
X56849047Y-42784819D01*
X56849047Y-42784819D02*
X56991904Y-42832438D01*
X56991904Y-42832438D02*
X57039523Y-42880057D01*
X57468095Y-43784819D02*
X57468095Y-42784819D01*
X57468095Y-42784819D02*
X58039523Y-43784819D01*
X58039523Y-43784819D02*
X58039523Y-42784819D01*
X59039523Y-43784819D02*
X58468095Y-43784819D01*
X58753809Y-43784819D02*
X58753809Y-42784819D01*
X58753809Y-42784819D02*
X58658571Y-42927676D01*
X58658571Y-42927676D02*
X58563333Y-43022914D01*
X58563333Y-43022914D02*
X58468095Y-43070533D01*
X218612142Y-64764580D02*
X218564523Y-64812200D01*
X218564523Y-64812200D02*
X218421666Y-64859819D01*
X218421666Y-64859819D02*
X218326428Y-64859819D01*
X218326428Y-64859819D02*
X218183571Y-64812200D01*
X218183571Y-64812200D02*
X218088333Y-64716961D01*
X218088333Y-64716961D02*
X218040714Y-64621723D01*
X218040714Y-64621723D02*
X217993095Y-64431247D01*
X217993095Y-64431247D02*
X217993095Y-64288390D01*
X217993095Y-64288390D02*
X218040714Y-64097914D01*
X218040714Y-64097914D02*
X218088333Y-64002676D01*
X218088333Y-64002676D02*
X218183571Y-63907438D01*
X218183571Y-63907438D02*
X218326428Y-63859819D01*
X218326428Y-63859819D02*
X218421666Y-63859819D01*
X218421666Y-63859819D02*
X218564523Y-63907438D01*
X218564523Y-63907438D02*
X218612142Y-63955057D01*
X219564523Y-64859819D02*
X218993095Y-64859819D01*
X219278809Y-64859819D02*
X219278809Y-63859819D01*
X219278809Y-63859819D02*
X219183571Y-64002676D01*
X219183571Y-64002676D02*
X219088333Y-64097914D01*
X219088333Y-64097914D02*
X218993095Y-64145533D01*
X220516904Y-64859819D02*
X219945476Y-64859819D01*
X220231190Y-64859819D02*
X220231190Y-63859819D01*
X220231190Y-63859819D02*
X220135952Y-64002676D01*
X220135952Y-64002676D02*
X220040714Y-64097914D01*
X220040714Y-64097914D02*
X219945476Y-64145533D01*
D12*
X36441142Y-50622419D02*
X35964952Y-50622419D01*
X35964952Y-50622419D02*
X35964952Y-49622419D01*
X36726857Y-50574800D02*
X36869714Y-50622419D01*
X36869714Y-50622419D02*
X37107809Y-50622419D01*
X37107809Y-50622419D02*
X37203047Y-50574800D01*
X37203047Y-50574800D02*
X37250666Y-50527180D01*
X37250666Y-50527180D02*
X37298285Y-50431942D01*
X37298285Y-50431942D02*
X37298285Y-50336704D01*
X37298285Y-50336704D02*
X37250666Y-50241466D01*
X37250666Y-50241466D02*
X37203047Y-50193847D01*
X37203047Y-50193847D02*
X37107809Y-50146228D01*
X37107809Y-50146228D02*
X36917333Y-50098609D01*
X36917333Y-50098609D02*
X36822095Y-50050990D01*
X36822095Y-50050990D02*
X36774476Y-50003371D01*
X36774476Y-50003371D02*
X36726857Y-49908133D01*
X36726857Y-49908133D02*
X36726857Y-49812895D01*
X36726857Y-49812895D02*
X36774476Y-49717657D01*
X36774476Y-49717657D02*
X36822095Y-49670038D01*
X36822095Y-49670038D02*
X36917333Y-49622419D01*
X36917333Y-49622419D02*
X37155428Y-49622419D01*
X37155428Y-49622419D02*
X37298285Y-49670038D01*
X38250666Y-50622419D02*
X37679238Y-50622419D01*
X37964952Y-50622419D02*
X37964952Y-49622419D01*
X37964952Y-49622419D02*
X37869714Y-49765276D01*
X37869714Y-49765276D02*
X37774476Y-49860514D01*
X37774476Y-49860514D02*
X37679238Y-49908133D01*
D11*
X190696666Y-33424819D02*
X190696666Y-34139104D01*
X190696666Y-34139104D02*
X190649047Y-34281961D01*
X190649047Y-34281961D02*
X190553809Y-34377200D01*
X190553809Y-34377200D02*
X190410952Y-34424819D01*
X190410952Y-34424819D02*
X190315714Y-34424819D01*
X191696666Y-34424819D02*
X191125238Y-34424819D01*
X191410952Y-34424819D02*
X191410952Y-33424819D01*
X191410952Y-33424819D02*
X191315714Y-33567676D01*
X191315714Y-33567676D02*
X191220476Y-33662914D01*
X191220476Y-33662914D02*
X191125238Y-33710533D01*
X204429580Y-41786666D02*
X204477200Y-41834285D01*
X204477200Y-41834285D02*
X204524819Y-41977142D01*
X204524819Y-41977142D02*
X204524819Y-42072380D01*
X204524819Y-42072380D02*
X204477200Y-42215237D01*
X204477200Y-42215237D02*
X204381961Y-42310475D01*
X204381961Y-42310475D02*
X204286723Y-42358094D01*
X204286723Y-42358094D02*
X204096247Y-42405713D01*
X204096247Y-42405713D02*
X203953390Y-42405713D01*
X203953390Y-42405713D02*
X203762914Y-42358094D01*
X203762914Y-42358094D02*
X203667676Y-42310475D01*
X203667676Y-42310475D02*
X203572438Y-42215237D01*
X203572438Y-42215237D02*
X203524819Y-42072380D01*
X203524819Y-42072380D02*
X203524819Y-41977142D01*
X203524819Y-41977142D02*
X203572438Y-41834285D01*
X203572438Y-41834285D02*
X203620057Y-41786666D01*
X203524819Y-40929523D02*
X203524819Y-41119999D01*
X203524819Y-41119999D02*
X203572438Y-41215237D01*
X203572438Y-41215237D02*
X203620057Y-41262856D01*
X203620057Y-41262856D02*
X203762914Y-41358094D01*
X203762914Y-41358094D02*
X203953390Y-41405713D01*
X203953390Y-41405713D02*
X204334342Y-41405713D01*
X204334342Y-41405713D02*
X204429580Y-41358094D01*
X204429580Y-41358094D02*
X204477200Y-41310475D01*
X204477200Y-41310475D02*
X204524819Y-41215237D01*
X204524819Y-41215237D02*
X204524819Y-41024761D01*
X204524819Y-41024761D02*
X204477200Y-40929523D01*
X204477200Y-40929523D02*
X204429580Y-40881904D01*
X204429580Y-40881904D02*
X204334342Y-40834285D01*
X204334342Y-40834285D02*
X204096247Y-40834285D01*
X204096247Y-40834285D02*
X204001009Y-40881904D01*
X204001009Y-40881904D02*
X203953390Y-40929523D01*
X203953390Y-40929523D02*
X203905771Y-41024761D01*
X203905771Y-41024761D02*
X203905771Y-41215237D01*
X203905771Y-41215237D02*
X203953390Y-41310475D01*
X203953390Y-41310475D02*
X204001009Y-41358094D01*
X204001009Y-41358094D02*
X204096247Y-41405713D01*
X199788095Y-37904819D02*
X199788095Y-38714342D01*
X199788095Y-38714342D02*
X199835714Y-38809580D01*
X199835714Y-38809580D02*
X199883333Y-38857200D01*
X199883333Y-38857200D02*
X199978571Y-38904819D01*
X199978571Y-38904819D02*
X200169047Y-38904819D01*
X200169047Y-38904819D02*
X200264285Y-38857200D01*
X200264285Y-38857200D02*
X200311904Y-38809580D01*
X200311904Y-38809580D02*
X200359523Y-38714342D01*
X200359523Y-38714342D02*
X200359523Y-37904819D01*
X200788095Y-38000057D02*
X200835714Y-37952438D01*
X200835714Y-37952438D02*
X200930952Y-37904819D01*
X200930952Y-37904819D02*
X201169047Y-37904819D01*
X201169047Y-37904819D02*
X201264285Y-37952438D01*
X201264285Y-37952438D02*
X201311904Y-38000057D01*
X201311904Y-38000057D02*
X201359523Y-38095295D01*
X201359523Y-38095295D02*
X201359523Y-38190533D01*
X201359523Y-38190533D02*
X201311904Y-38333390D01*
X201311904Y-38333390D02*
X200740476Y-38904819D01*
X200740476Y-38904819D02*
X201359523Y-38904819D01*
X179498666Y-37269009D02*
X179165333Y-37269009D01*
X179165333Y-37792819D02*
X179165333Y-36792819D01*
X179165333Y-36792819D02*
X179641523Y-36792819D01*
X179974857Y-36888057D02*
X180022476Y-36840438D01*
X180022476Y-36840438D02*
X180117714Y-36792819D01*
X180117714Y-36792819D02*
X180355809Y-36792819D01*
X180355809Y-36792819D02*
X180451047Y-36840438D01*
X180451047Y-36840438D02*
X180498666Y-36888057D01*
X180498666Y-36888057D02*
X180546285Y-36983295D01*
X180546285Y-36983295D02*
X180546285Y-37078533D01*
X180546285Y-37078533D02*
X180498666Y-37221390D01*
X180498666Y-37221390D02*
X179927238Y-37792819D01*
X179927238Y-37792819D02*
X180546285Y-37792819D01*
X207659580Y-42832857D02*
X207707200Y-42880476D01*
X207707200Y-42880476D02*
X207754819Y-43023333D01*
X207754819Y-43023333D02*
X207754819Y-43118571D01*
X207754819Y-43118571D02*
X207707200Y-43261428D01*
X207707200Y-43261428D02*
X207611961Y-43356666D01*
X207611961Y-43356666D02*
X207516723Y-43404285D01*
X207516723Y-43404285D02*
X207326247Y-43451904D01*
X207326247Y-43451904D02*
X207183390Y-43451904D01*
X207183390Y-43451904D02*
X206992914Y-43404285D01*
X206992914Y-43404285D02*
X206897676Y-43356666D01*
X206897676Y-43356666D02*
X206802438Y-43261428D01*
X206802438Y-43261428D02*
X206754819Y-43118571D01*
X206754819Y-43118571D02*
X206754819Y-43023333D01*
X206754819Y-43023333D02*
X206802438Y-42880476D01*
X206802438Y-42880476D02*
X206850057Y-42832857D01*
X207754819Y-41880476D02*
X207754819Y-42451904D01*
X207754819Y-42166190D02*
X206754819Y-42166190D01*
X206754819Y-42166190D02*
X206897676Y-42261428D01*
X206897676Y-42261428D02*
X206992914Y-42356666D01*
X206992914Y-42356666D02*
X207040533Y-42451904D01*
X207754819Y-41404285D02*
X207754819Y-41213809D01*
X207754819Y-41213809D02*
X207707200Y-41118571D01*
X207707200Y-41118571D02*
X207659580Y-41070952D01*
X207659580Y-41070952D02*
X207516723Y-40975714D01*
X207516723Y-40975714D02*
X207326247Y-40928095D01*
X207326247Y-40928095D02*
X206945295Y-40928095D01*
X206945295Y-40928095D02*
X206850057Y-40975714D01*
X206850057Y-40975714D02*
X206802438Y-41023333D01*
X206802438Y-41023333D02*
X206754819Y-41118571D01*
X206754819Y-41118571D02*
X206754819Y-41309047D01*
X206754819Y-41309047D02*
X206802438Y-41404285D01*
X206802438Y-41404285D02*
X206850057Y-41451904D01*
X206850057Y-41451904D02*
X206945295Y-41499523D01*
X206945295Y-41499523D02*
X207183390Y-41499523D01*
X207183390Y-41499523D02*
X207278628Y-41451904D01*
X207278628Y-41451904D02*
X207326247Y-41404285D01*
X207326247Y-41404285D02*
X207373866Y-41309047D01*
X207373866Y-41309047D02*
X207373866Y-41118571D01*
X207373866Y-41118571D02*
X207326247Y-41023333D01*
X207326247Y-41023333D02*
X207278628Y-40975714D01*
X207278628Y-40975714D02*
X207183390Y-40928095D01*
X62335580Y-58196476D02*
X62383200Y-58244095D01*
X62383200Y-58244095D02*
X62430819Y-58386952D01*
X62430819Y-58386952D02*
X62430819Y-58482190D01*
X62430819Y-58482190D02*
X62383200Y-58625047D01*
X62383200Y-58625047D02*
X62287961Y-58720285D01*
X62287961Y-58720285D02*
X62192723Y-58767904D01*
X62192723Y-58767904D02*
X62002247Y-58815523D01*
X62002247Y-58815523D02*
X61859390Y-58815523D01*
X61859390Y-58815523D02*
X61668914Y-58767904D01*
X61668914Y-58767904D02*
X61573676Y-58720285D01*
X61573676Y-58720285D02*
X61478438Y-58625047D01*
X61478438Y-58625047D02*
X61430819Y-58482190D01*
X61430819Y-58482190D02*
X61430819Y-58386952D01*
X61430819Y-58386952D02*
X61478438Y-58244095D01*
X61478438Y-58244095D02*
X61526057Y-58196476D01*
X62430819Y-57767904D02*
X61430819Y-57767904D01*
X61430819Y-57767904D02*
X62430819Y-57196476D01*
X62430819Y-57196476D02*
X61430819Y-57196476D01*
X61764152Y-56291714D02*
X62430819Y-56291714D01*
X61383200Y-56529809D02*
X62097485Y-56767904D01*
X62097485Y-56767904D02*
X62097485Y-56148857D01*
X38441905Y-34564819D02*
X38441905Y-33564819D01*
X38441905Y-33564819D02*
X38680000Y-33564819D01*
X38680000Y-33564819D02*
X38822857Y-33612438D01*
X38822857Y-33612438D02*
X38918095Y-33707676D01*
X38918095Y-33707676D02*
X38965714Y-33802914D01*
X38965714Y-33802914D02*
X39013333Y-33993390D01*
X39013333Y-33993390D02*
X39013333Y-34136247D01*
X39013333Y-34136247D02*
X38965714Y-34326723D01*
X38965714Y-34326723D02*
X38918095Y-34421961D01*
X38918095Y-34421961D02*
X38822857Y-34517200D01*
X38822857Y-34517200D02*
X38680000Y-34564819D01*
X38680000Y-34564819D02*
X38441905Y-34564819D01*
X39394286Y-33660057D02*
X39441905Y-33612438D01*
X39441905Y-33612438D02*
X39537143Y-33564819D01*
X39537143Y-33564819D02*
X39775238Y-33564819D01*
X39775238Y-33564819D02*
X39870476Y-33612438D01*
X39870476Y-33612438D02*
X39918095Y-33660057D01*
X39918095Y-33660057D02*
X39965714Y-33755295D01*
X39965714Y-33755295D02*
X39965714Y-33850533D01*
X39965714Y-33850533D02*
X39918095Y-33993390D01*
X39918095Y-33993390D02*
X39346667Y-34564819D01*
X39346667Y-34564819D02*
X39965714Y-34564819D01*
X242114819Y-42539285D02*
X241638628Y-42805952D01*
X242114819Y-42996428D02*
X241114819Y-42996428D01*
X241114819Y-42996428D02*
X241114819Y-42691666D01*
X241114819Y-42691666D02*
X241162438Y-42615476D01*
X241162438Y-42615476D02*
X241210057Y-42577381D01*
X241210057Y-42577381D02*
X241305295Y-42539285D01*
X241305295Y-42539285D02*
X241448152Y-42539285D01*
X241448152Y-42539285D02*
X241543390Y-42577381D01*
X241543390Y-42577381D02*
X241591009Y-42615476D01*
X241591009Y-42615476D02*
X241638628Y-42691666D01*
X241638628Y-42691666D02*
X241638628Y-42996428D01*
X241114819Y-42272619D02*
X241114819Y-41777381D01*
X241114819Y-41777381D02*
X241495771Y-42044047D01*
X241495771Y-42044047D02*
X241495771Y-41929762D01*
X241495771Y-41929762D02*
X241543390Y-41853571D01*
X241543390Y-41853571D02*
X241591009Y-41815476D01*
X241591009Y-41815476D02*
X241686247Y-41777381D01*
X241686247Y-41777381D02*
X241924342Y-41777381D01*
X241924342Y-41777381D02*
X242019580Y-41815476D01*
X242019580Y-41815476D02*
X242067200Y-41853571D01*
X242067200Y-41853571D02*
X242114819Y-41929762D01*
X242114819Y-41929762D02*
X242114819Y-42158333D01*
X242114819Y-42158333D02*
X242067200Y-42234524D01*
X242067200Y-42234524D02*
X242019580Y-42272619D01*
X241114819Y-41282142D02*
X241114819Y-41205952D01*
X241114819Y-41205952D02*
X241162438Y-41129761D01*
X241162438Y-41129761D02*
X241210057Y-41091666D01*
X241210057Y-41091666D02*
X241305295Y-41053571D01*
X241305295Y-41053571D02*
X241495771Y-41015476D01*
X241495771Y-41015476D02*
X241733866Y-41015476D01*
X241733866Y-41015476D02*
X241924342Y-41053571D01*
X241924342Y-41053571D02*
X242019580Y-41091666D01*
X242019580Y-41091666D02*
X242067200Y-41129761D01*
X242067200Y-41129761D02*
X242114819Y-41205952D01*
X242114819Y-41205952D02*
X242114819Y-41282142D01*
X242114819Y-41282142D02*
X242067200Y-41358333D01*
X242067200Y-41358333D02*
X242019580Y-41396428D01*
X242019580Y-41396428D02*
X241924342Y-41434523D01*
X241924342Y-41434523D02*
X241733866Y-41472619D01*
X241733866Y-41472619D02*
X241495771Y-41472619D01*
X241495771Y-41472619D02*
X241305295Y-41434523D01*
X241305295Y-41434523D02*
X241210057Y-41396428D01*
X241210057Y-41396428D02*
X241162438Y-41358333D01*
X241162438Y-41358333D02*
X241114819Y-41282142D01*
X183434819Y-43292857D02*
X182958628Y-43626190D01*
X183434819Y-43864285D02*
X182434819Y-43864285D01*
X182434819Y-43864285D02*
X182434819Y-43483333D01*
X182434819Y-43483333D02*
X182482438Y-43388095D01*
X182482438Y-43388095D02*
X182530057Y-43340476D01*
X182530057Y-43340476D02*
X182625295Y-43292857D01*
X182625295Y-43292857D02*
X182768152Y-43292857D01*
X182768152Y-43292857D02*
X182863390Y-43340476D01*
X182863390Y-43340476D02*
X182911009Y-43388095D01*
X182911009Y-43388095D02*
X182958628Y-43483333D01*
X182958628Y-43483333D02*
X182958628Y-43864285D01*
X183434819Y-42340476D02*
X183434819Y-42911904D01*
X183434819Y-42626190D02*
X182434819Y-42626190D01*
X182434819Y-42626190D02*
X182577676Y-42721428D01*
X182577676Y-42721428D02*
X182672914Y-42816666D01*
X182672914Y-42816666D02*
X182720533Y-42911904D01*
X182434819Y-41721428D02*
X182434819Y-41626190D01*
X182434819Y-41626190D02*
X182482438Y-41530952D01*
X182482438Y-41530952D02*
X182530057Y-41483333D01*
X182530057Y-41483333D02*
X182625295Y-41435714D01*
X182625295Y-41435714D02*
X182815771Y-41388095D01*
X182815771Y-41388095D02*
X183053866Y-41388095D01*
X183053866Y-41388095D02*
X183244342Y-41435714D01*
X183244342Y-41435714D02*
X183339580Y-41483333D01*
X183339580Y-41483333D02*
X183387200Y-41530952D01*
X183387200Y-41530952D02*
X183434819Y-41626190D01*
X183434819Y-41626190D02*
X183434819Y-41721428D01*
X183434819Y-41721428D02*
X183387200Y-41816666D01*
X183387200Y-41816666D02*
X183339580Y-41864285D01*
X183339580Y-41864285D02*
X183244342Y-41911904D01*
X183244342Y-41911904D02*
X183053866Y-41959523D01*
X183053866Y-41959523D02*
X182815771Y-41959523D01*
X182815771Y-41959523D02*
X182625295Y-41911904D01*
X182625295Y-41911904D02*
X182530057Y-41864285D01*
X182530057Y-41864285D02*
X182482438Y-41816666D01*
X182482438Y-41816666D02*
X182434819Y-41721428D01*
X247701905Y-34324819D02*
X247701905Y-33324819D01*
X247701905Y-33324819D02*
X247940000Y-33324819D01*
X247940000Y-33324819D02*
X248082857Y-33372438D01*
X248082857Y-33372438D02*
X248178095Y-33467676D01*
X248178095Y-33467676D02*
X248225714Y-33562914D01*
X248225714Y-33562914D02*
X248273333Y-33753390D01*
X248273333Y-33753390D02*
X248273333Y-33896247D01*
X248273333Y-33896247D02*
X248225714Y-34086723D01*
X248225714Y-34086723D02*
X248178095Y-34181961D01*
X248178095Y-34181961D02*
X248082857Y-34277200D01*
X248082857Y-34277200D02*
X247940000Y-34324819D01*
X247940000Y-34324819D02*
X247701905Y-34324819D01*
X249130476Y-33658152D02*
X249130476Y-34324819D01*
X248892381Y-33277200D02*
X248654286Y-33991485D01*
X248654286Y-33991485D02*
X249273333Y-33991485D01*
X187607319Y-43128094D02*
X188416842Y-43128094D01*
X188416842Y-43128094D02*
X188512080Y-43080475D01*
X188512080Y-43080475D02*
X188559700Y-43032856D01*
X188559700Y-43032856D02*
X188607319Y-42937618D01*
X188607319Y-42937618D02*
X188607319Y-42747142D01*
X188607319Y-42747142D02*
X188559700Y-42651904D01*
X188559700Y-42651904D02*
X188512080Y-42604285D01*
X188512080Y-42604285D02*
X188416842Y-42556666D01*
X188416842Y-42556666D02*
X187607319Y-42556666D01*
X188607319Y-41556666D02*
X188607319Y-42128094D01*
X188607319Y-41842380D02*
X187607319Y-41842380D01*
X187607319Y-41842380D02*
X187750176Y-41937618D01*
X187750176Y-41937618D02*
X187845414Y-42032856D01*
X187845414Y-42032856D02*
X187893033Y-42128094D01*
X187702557Y-41175713D02*
X187654938Y-41128094D01*
X187654938Y-41128094D02*
X187607319Y-41032856D01*
X187607319Y-41032856D02*
X187607319Y-40794761D01*
X187607319Y-40794761D02*
X187654938Y-40699523D01*
X187654938Y-40699523D02*
X187702557Y-40651904D01*
X187702557Y-40651904D02*
X187797795Y-40604285D01*
X187797795Y-40604285D02*
X187893033Y-40604285D01*
X187893033Y-40604285D02*
X188035890Y-40651904D01*
X188035890Y-40651904D02*
X188607319Y-41223332D01*
X188607319Y-41223332D02*
X188607319Y-40604285D01*
X192112142Y-64694580D02*
X192064523Y-64742200D01*
X192064523Y-64742200D02*
X191921666Y-64789819D01*
X191921666Y-64789819D02*
X191826428Y-64789819D01*
X191826428Y-64789819D02*
X191683571Y-64742200D01*
X191683571Y-64742200D02*
X191588333Y-64646961D01*
X191588333Y-64646961D02*
X191540714Y-64551723D01*
X191540714Y-64551723D02*
X191493095Y-64361247D01*
X191493095Y-64361247D02*
X191493095Y-64218390D01*
X191493095Y-64218390D02*
X191540714Y-64027914D01*
X191540714Y-64027914D02*
X191588333Y-63932676D01*
X191588333Y-63932676D02*
X191683571Y-63837438D01*
X191683571Y-63837438D02*
X191826428Y-63789819D01*
X191826428Y-63789819D02*
X191921666Y-63789819D01*
X191921666Y-63789819D02*
X192064523Y-63837438D01*
X192064523Y-63837438D02*
X192112142Y-63885057D01*
X193064523Y-64789819D02*
X192493095Y-64789819D01*
X192778809Y-64789819D02*
X192778809Y-63789819D01*
X192778809Y-63789819D02*
X192683571Y-63932676D01*
X192683571Y-63932676D02*
X192588333Y-64027914D01*
X192588333Y-64027914D02*
X192493095Y-64075533D01*
X193397857Y-63789819D02*
X194016904Y-63789819D01*
X194016904Y-63789819D02*
X193683571Y-64170771D01*
X193683571Y-64170771D02*
X193826428Y-64170771D01*
X193826428Y-64170771D02*
X193921666Y-64218390D01*
X193921666Y-64218390D02*
X193969285Y-64266009D01*
X193969285Y-64266009D02*
X194016904Y-64361247D01*
X194016904Y-64361247D02*
X194016904Y-64599342D01*
X194016904Y-64599342D02*
X193969285Y-64694580D01*
X193969285Y-64694580D02*
X193921666Y-64742200D01*
X193921666Y-64742200D02*
X193826428Y-64789819D01*
X193826428Y-64789819D02*
X193540714Y-64789819D01*
X193540714Y-64789819D02*
X193445476Y-64742200D01*
X193445476Y-64742200D02*
X193397857Y-64694580D01*
X247134819Y-36932857D02*
X246658628Y-37266190D01*
X247134819Y-37504285D02*
X246134819Y-37504285D01*
X246134819Y-37504285D02*
X246134819Y-37123333D01*
X246134819Y-37123333D02*
X246182438Y-37028095D01*
X246182438Y-37028095D02*
X246230057Y-36980476D01*
X246230057Y-36980476D02*
X246325295Y-36932857D01*
X246325295Y-36932857D02*
X246468152Y-36932857D01*
X246468152Y-36932857D02*
X246563390Y-36980476D01*
X246563390Y-36980476D02*
X246611009Y-37028095D01*
X246611009Y-37028095D02*
X246658628Y-37123333D01*
X246658628Y-37123333D02*
X246658628Y-37504285D01*
X247134819Y-35980476D02*
X247134819Y-36551904D01*
X247134819Y-36266190D02*
X246134819Y-36266190D01*
X246134819Y-36266190D02*
X246277676Y-36361428D01*
X246277676Y-36361428D02*
X246372914Y-36456666D01*
X246372914Y-36456666D02*
X246420533Y-36551904D01*
X247134819Y-35028095D02*
X247134819Y-35599523D01*
X247134819Y-35313809D02*
X246134819Y-35313809D01*
X246134819Y-35313809D02*
X246277676Y-35409047D01*
X246277676Y-35409047D02*
X246372914Y-35504285D01*
X246372914Y-35504285D02*
X246420533Y-35599523D01*
X213957200Y-36083332D02*
X214004819Y-35940475D01*
X214004819Y-35940475D02*
X214004819Y-35702380D01*
X214004819Y-35702380D02*
X213957200Y-35607142D01*
X213957200Y-35607142D02*
X213909580Y-35559523D01*
X213909580Y-35559523D02*
X213814342Y-35511904D01*
X213814342Y-35511904D02*
X213719104Y-35511904D01*
X213719104Y-35511904D02*
X213623866Y-35559523D01*
X213623866Y-35559523D02*
X213576247Y-35607142D01*
X213576247Y-35607142D02*
X213528628Y-35702380D01*
X213528628Y-35702380D02*
X213481009Y-35892856D01*
X213481009Y-35892856D02*
X213433390Y-35988094D01*
X213433390Y-35988094D02*
X213385771Y-36035713D01*
X213385771Y-36035713D02*
X213290533Y-36083332D01*
X213290533Y-36083332D02*
X213195295Y-36083332D01*
X213195295Y-36083332D02*
X213100057Y-36035713D01*
X213100057Y-36035713D02*
X213052438Y-35988094D01*
X213052438Y-35988094D02*
X213004819Y-35892856D01*
X213004819Y-35892856D02*
X213004819Y-35654761D01*
X213004819Y-35654761D02*
X213052438Y-35511904D01*
X213004819Y-35178570D02*
X214004819Y-34940475D01*
X214004819Y-34940475D02*
X213290533Y-34749999D01*
X213290533Y-34749999D02*
X214004819Y-34559523D01*
X214004819Y-34559523D02*
X213004819Y-34321428D01*
X213100057Y-33988094D02*
X213052438Y-33940475D01*
X213052438Y-33940475D02*
X213004819Y-33845237D01*
X213004819Y-33845237D02*
X213004819Y-33607142D01*
X213004819Y-33607142D02*
X213052438Y-33511904D01*
X213052438Y-33511904D02*
X213100057Y-33464285D01*
X213100057Y-33464285D02*
X213195295Y-33416666D01*
X213195295Y-33416666D02*
X213290533Y-33416666D01*
X213290533Y-33416666D02*
X213433390Y-33464285D01*
X213433390Y-33464285D02*
X214004819Y-34035713D01*
X214004819Y-34035713D02*
X214004819Y-33416666D01*
X240364819Y-42539285D02*
X239888628Y-42805952D01*
X240364819Y-42996428D02*
X239364819Y-42996428D01*
X239364819Y-42996428D02*
X239364819Y-42691666D01*
X239364819Y-42691666D02*
X239412438Y-42615476D01*
X239412438Y-42615476D02*
X239460057Y-42577381D01*
X239460057Y-42577381D02*
X239555295Y-42539285D01*
X239555295Y-42539285D02*
X239698152Y-42539285D01*
X239698152Y-42539285D02*
X239793390Y-42577381D01*
X239793390Y-42577381D02*
X239841009Y-42615476D01*
X239841009Y-42615476D02*
X239888628Y-42691666D01*
X239888628Y-42691666D02*
X239888628Y-42996428D01*
X239460057Y-42234524D02*
X239412438Y-42196428D01*
X239412438Y-42196428D02*
X239364819Y-42120238D01*
X239364819Y-42120238D02*
X239364819Y-41929762D01*
X239364819Y-41929762D02*
X239412438Y-41853571D01*
X239412438Y-41853571D02*
X239460057Y-41815476D01*
X239460057Y-41815476D02*
X239555295Y-41777381D01*
X239555295Y-41777381D02*
X239650533Y-41777381D01*
X239650533Y-41777381D02*
X239793390Y-41815476D01*
X239793390Y-41815476D02*
X240364819Y-42272619D01*
X240364819Y-42272619D02*
X240364819Y-41777381D01*
X240364819Y-41396428D02*
X240364819Y-41244047D01*
X240364819Y-41244047D02*
X240317200Y-41167857D01*
X240317200Y-41167857D02*
X240269580Y-41129761D01*
X240269580Y-41129761D02*
X240126723Y-41053571D01*
X240126723Y-41053571D02*
X239936247Y-41015476D01*
X239936247Y-41015476D02*
X239555295Y-41015476D01*
X239555295Y-41015476D02*
X239460057Y-41053571D01*
X239460057Y-41053571D02*
X239412438Y-41091666D01*
X239412438Y-41091666D02*
X239364819Y-41167857D01*
X239364819Y-41167857D02*
X239364819Y-41320238D01*
X239364819Y-41320238D02*
X239412438Y-41396428D01*
X239412438Y-41396428D02*
X239460057Y-41434523D01*
X239460057Y-41434523D02*
X239555295Y-41472619D01*
X239555295Y-41472619D02*
X239793390Y-41472619D01*
X239793390Y-41472619D02*
X239888628Y-41434523D01*
X239888628Y-41434523D02*
X239936247Y-41396428D01*
X239936247Y-41396428D02*
X239983866Y-41320238D01*
X239983866Y-41320238D02*
X239983866Y-41167857D01*
X239983866Y-41167857D02*
X239936247Y-41091666D01*
X239936247Y-41091666D02*
X239888628Y-41053571D01*
X239888628Y-41053571D02*
X239793390Y-41015476D01*
X60063142Y-47857580D02*
X60015523Y-47905200D01*
X60015523Y-47905200D02*
X59872666Y-47952819D01*
X59872666Y-47952819D02*
X59777428Y-47952819D01*
X59777428Y-47952819D02*
X59634571Y-47905200D01*
X59634571Y-47905200D02*
X59539333Y-47809961D01*
X59539333Y-47809961D02*
X59491714Y-47714723D01*
X59491714Y-47714723D02*
X59444095Y-47524247D01*
X59444095Y-47524247D02*
X59444095Y-47381390D01*
X59444095Y-47381390D02*
X59491714Y-47190914D01*
X59491714Y-47190914D02*
X59539333Y-47095676D01*
X59539333Y-47095676D02*
X59634571Y-47000438D01*
X59634571Y-47000438D02*
X59777428Y-46952819D01*
X59777428Y-46952819D02*
X59872666Y-46952819D01*
X59872666Y-46952819D02*
X60015523Y-47000438D01*
X60015523Y-47000438D02*
X60063142Y-47048057D01*
X61015523Y-47952819D02*
X60444095Y-47952819D01*
X60729809Y-47952819D02*
X60729809Y-46952819D01*
X60729809Y-46952819D02*
X60634571Y-47095676D01*
X60634571Y-47095676D02*
X60539333Y-47190914D01*
X60539333Y-47190914D02*
X60444095Y-47238533D01*
X61920285Y-46952819D02*
X61444095Y-46952819D01*
X61444095Y-46952819D02*
X61396476Y-47429009D01*
X61396476Y-47429009D02*
X61444095Y-47381390D01*
X61444095Y-47381390D02*
X61539333Y-47333771D01*
X61539333Y-47333771D02*
X61777428Y-47333771D01*
X61777428Y-47333771D02*
X61872666Y-47381390D01*
X61872666Y-47381390D02*
X61920285Y-47429009D01*
X61920285Y-47429009D02*
X61967904Y-47524247D01*
X61967904Y-47524247D02*
X61967904Y-47762342D01*
X61967904Y-47762342D02*
X61920285Y-47857580D01*
X61920285Y-47857580D02*
X61872666Y-47905200D01*
X61872666Y-47905200D02*
X61777428Y-47952819D01*
X61777428Y-47952819D02*
X61539333Y-47952819D01*
X61539333Y-47952819D02*
X61444095Y-47905200D01*
X61444095Y-47905200D02*
X61396476Y-47857580D01*
X189924819Y-72323094D02*
X190734342Y-72323094D01*
X190734342Y-72323094D02*
X190829580Y-72275475D01*
X190829580Y-72275475D02*
X190877200Y-72227856D01*
X190877200Y-72227856D02*
X190924819Y-72132618D01*
X190924819Y-72132618D02*
X190924819Y-71942142D01*
X190924819Y-71942142D02*
X190877200Y-71846904D01*
X190877200Y-71846904D02*
X190829580Y-71799285D01*
X190829580Y-71799285D02*
X190734342Y-71751666D01*
X190734342Y-71751666D02*
X189924819Y-71751666D01*
X190924819Y-70751666D02*
X190924819Y-71323094D01*
X190924819Y-71037380D02*
X189924819Y-71037380D01*
X189924819Y-71037380D02*
X190067676Y-71132618D01*
X190067676Y-71132618D02*
X190162914Y-71227856D01*
X190162914Y-71227856D02*
X190210533Y-71323094D01*
X190924819Y-69799285D02*
X190924819Y-70370713D01*
X190924819Y-70084999D02*
X189924819Y-70084999D01*
X189924819Y-70084999D02*
X190067676Y-70180237D01*
X190067676Y-70180237D02*
X190162914Y-70275475D01*
X190162914Y-70275475D02*
X190210533Y-70370713D01*
D12*
X137922095Y-50447800D02*
X138064952Y-50495419D01*
X138064952Y-50495419D02*
X138303047Y-50495419D01*
X138303047Y-50495419D02*
X138398285Y-50447800D01*
X138398285Y-50447800D02*
X138445904Y-50400180D01*
X138445904Y-50400180D02*
X138493523Y-50304942D01*
X138493523Y-50304942D02*
X138493523Y-50209704D01*
X138493523Y-50209704D02*
X138445904Y-50114466D01*
X138445904Y-50114466D02*
X138398285Y-50066847D01*
X138398285Y-50066847D02*
X138303047Y-50019228D01*
X138303047Y-50019228D02*
X138112571Y-49971609D01*
X138112571Y-49971609D02*
X138017333Y-49923990D01*
X138017333Y-49923990D02*
X137969714Y-49876371D01*
X137969714Y-49876371D02*
X137922095Y-49781133D01*
X137922095Y-49781133D02*
X137922095Y-49685895D01*
X137922095Y-49685895D02*
X137969714Y-49590657D01*
X137969714Y-49590657D02*
X138017333Y-49543038D01*
X138017333Y-49543038D02*
X138112571Y-49495419D01*
X138112571Y-49495419D02*
X138350666Y-49495419D01*
X138350666Y-49495419D02*
X138493523Y-49543038D01*
X139445904Y-50495419D02*
X138874476Y-50495419D01*
X139160190Y-50495419D02*
X139160190Y-49495419D01*
X139160190Y-49495419D02*
X139064952Y-49638276D01*
X139064952Y-49638276D02*
X138969714Y-49733514D01*
X138969714Y-49733514D02*
X138874476Y-49781133D01*
D11*
X43711905Y-34490819D02*
X43711905Y-33490819D01*
X43711905Y-33490819D02*
X43950000Y-33490819D01*
X43950000Y-33490819D02*
X44092857Y-33538438D01*
X44092857Y-33538438D02*
X44188095Y-33633676D01*
X44188095Y-33633676D02*
X44235714Y-33728914D01*
X44235714Y-33728914D02*
X44283333Y-33919390D01*
X44283333Y-33919390D02*
X44283333Y-34062247D01*
X44283333Y-34062247D02*
X44235714Y-34252723D01*
X44235714Y-34252723D02*
X44188095Y-34347961D01*
X44188095Y-34347961D02*
X44092857Y-34443200D01*
X44092857Y-34443200D02*
X43950000Y-34490819D01*
X43950000Y-34490819D02*
X43711905Y-34490819D01*
X44616667Y-33490819D02*
X45235714Y-33490819D01*
X45235714Y-33490819D02*
X44902381Y-33871771D01*
X44902381Y-33871771D02*
X45045238Y-33871771D01*
X45045238Y-33871771D02*
X45140476Y-33919390D01*
X45140476Y-33919390D02*
X45188095Y-33967009D01*
X45188095Y-33967009D02*
X45235714Y-34062247D01*
X45235714Y-34062247D02*
X45235714Y-34300342D01*
X45235714Y-34300342D02*
X45188095Y-34395580D01*
X45188095Y-34395580D02*
X45140476Y-34443200D01*
X45140476Y-34443200D02*
X45045238Y-34490819D01*
X45045238Y-34490819D02*
X44759524Y-34490819D01*
X44759524Y-34490819D02*
X44664286Y-34443200D01*
X44664286Y-34443200D02*
X44616667Y-34395580D01*
X52919333Y-37538819D02*
X52586000Y-37062628D01*
X52347905Y-37538819D02*
X52347905Y-36538819D01*
X52347905Y-36538819D02*
X52728857Y-36538819D01*
X52728857Y-36538819D02*
X52824095Y-36586438D01*
X52824095Y-36586438D02*
X52871714Y-36634057D01*
X52871714Y-36634057D02*
X52919333Y-36729295D01*
X52919333Y-36729295D02*
X52919333Y-36872152D01*
X52919333Y-36872152D02*
X52871714Y-36967390D01*
X52871714Y-36967390D02*
X52824095Y-37015009D01*
X52824095Y-37015009D02*
X52728857Y-37062628D01*
X52728857Y-37062628D02*
X52347905Y-37062628D01*
X53871714Y-37538819D02*
X53300286Y-37538819D01*
X53586000Y-37538819D02*
X53586000Y-36538819D01*
X53586000Y-36538819D02*
X53490762Y-36681676D01*
X53490762Y-36681676D02*
X53395524Y-36776914D01*
X53395524Y-36776914D02*
X53300286Y-36824533D01*
X214619580Y-38742857D02*
X214667200Y-38790476D01*
X214667200Y-38790476D02*
X214714819Y-38933333D01*
X214714819Y-38933333D02*
X214714819Y-39028571D01*
X214714819Y-39028571D02*
X214667200Y-39171428D01*
X214667200Y-39171428D02*
X214571961Y-39266666D01*
X214571961Y-39266666D02*
X214476723Y-39314285D01*
X214476723Y-39314285D02*
X214286247Y-39361904D01*
X214286247Y-39361904D02*
X214143390Y-39361904D01*
X214143390Y-39361904D02*
X213952914Y-39314285D01*
X213952914Y-39314285D02*
X213857676Y-39266666D01*
X213857676Y-39266666D02*
X213762438Y-39171428D01*
X213762438Y-39171428D02*
X213714819Y-39028571D01*
X213714819Y-39028571D02*
X213714819Y-38933333D01*
X213714819Y-38933333D02*
X213762438Y-38790476D01*
X213762438Y-38790476D02*
X213810057Y-38742857D01*
X214714819Y-37790476D02*
X214714819Y-38361904D01*
X214714819Y-38076190D02*
X213714819Y-38076190D01*
X213714819Y-38076190D02*
X213857676Y-38171428D01*
X213857676Y-38171428D02*
X213952914Y-38266666D01*
X213952914Y-38266666D02*
X214000533Y-38361904D01*
X213714819Y-36933333D02*
X213714819Y-37123809D01*
X213714819Y-37123809D02*
X213762438Y-37219047D01*
X213762438Y-37219047D02*
X213810057Y-37266666D01*
X213810057Y-37266666D02*
X213952914Y-37361904D01*
X213952914Y-37361904D02*
X214143390Y-37409523D01*
X214143390Y-37409523D02*
X214524342Y-37409523D01*
X214524342Y-37409523D02*
X214619580Y-37361904D01*
X214619580Y-37361904D02*
X214667200Y-37314285D01*
X214667200Y-37314285D02*
X214714819Y-37219047D01*
X214714819Y-37219047D02*
X214714819Y-37028571D01*
X214714819Y-37028571D02*
X214667200Y-36933333D01*
X214667200Y-36933333D02*
X214619580Y-36885714D01*
X214619580Y-36885714D02*
X214524342Y-36838095D01*
X214524342Y-36838095D02*
X214286247Y-36838095D01*
X214286247Y-36838095D02*
X214191009Y-36885714D01*
X214191009Y-36885714D02*
X214143390Y-36933333D01*
X214143390Y-36933333D02*
X214095771Y-37028571D01*
X214095771Y-37028571D02*
X214095771Y-37219047D01*
X214095771Y-37219047D02*
X214143390Y-37314285D01*
X214143390Y-37314285D02*
X214191009Y-37361904D01*
X214191009Y-37361904D02*
X214286247Y-37409523D01*
X192717009Y-44529333D02*
X192717009Y-44862666D01*
X193240819Y-44862666D02*
X192240819Y-44862666D01*
X192240819Y-44862666D02*
X192240819Y-44386476D01*
X193240819Y-43481714D02*
X193240819Y-44053142D01*
X193240819Y-43767428D02*
X192240819Y-43767428D01*
X192240819Y-43767428D02*
X192383676Y-43862666D01*
X192383676Y-43862666D02*
X192478914Y-43957904D01*
X192478914Y-43957904D02*
X192526533Y-44053142D01*
X209903333Y-49144819D02*
X209570000Y-48668628D01*
X209331905Y-49144819D02*
X209331905Y-48144819D01*
X209331905Y-48144819D02*
X209712857Y-48144819D01*
X209712857Y-48144819D02*
X209808095Y-48192438D01*
X209808095Y-48192438D02*
X209855714Y-48240057D01*
X209855714Y-48240057D02*
X209903333Y-48335295D01*
X209903333Y-48335295D02*
X209903333Y-48478152D01*
X209903333Y-48478152D02*
X209855714Y-48573390D01*
X209855714Y-48573390D02*
X209808095Y-48621009D01*
X209808095Y-48621009D02*
X209712857Y-48668628D01*
X209712857Y-48668628D02*
X209331905Y-48668628D01*
X210808095Y-48144819D02*
X210331905Y-48144819D01*
X210331905Y-48144819D02*
X210284286Y-48621009D01*
X210284286Y-48621009D02*
X210331905Y-48573390D01*
X210331905Y-48573390D02*
X210427143Y-48525771D01*
X210427143Y-48525771D02*
X210665238Y-48525771D01*
X210665238Y-48525771D02*
X210760476Y-48573390D01*
X210760476Y-48573390D02*
X210808095Y-48621009D01*
X210808095Y-48621009D02*
X210855714Y-48716247D01*
X210855714Y-48716247D02*
X210855714Y-48954342D01*
X210855714Y-48954342D02*
X210808095Y-49049580D01*
X210808095Y-49049580D02*
X210760476Y-49097200D01*
X210760476Y-49097200D02*
X210665238Y-49144819D01*
X210665238Y-49144819D02*
X210427143Y-49144819D01*
X210427143Y-49144819D02*
X210331905Y-49097200D01*
X210331905Y-49097200D02*
X210284286Y-49049580D01*
X204736667Y-37527200D02*
X204879524Y-37574819D01*
X204879524Y-37574819D02*
X205117619Y-37574819D01*
X205117619Y-37574819D02*
X205212857Y-37527200D01*
X205212857Y-37527200D02*
X205260476Y-37479580D01*
X205260476Y-37479580D02*
X205308095Y-37384342D01*
X205308095Y-37384342D02*
X205308095Y-37289104D01*
X205308095Y-37289104D02*
X205260476Y-37193866D01*
X205260476Y-37193866D02*
X205212857Y-37146247D01*
X205212857Y-37146247D02*
X205117619Y-37098628D01*
X205117619Y-37098628D02*
X204927143Y-37051009D01*
X204927143Y-37051009D02*
X204831905Y-37003390D01*
X204831905Y-37003390D02*
X204784286Y-36955771D01*
X204784286Y-36955771D02*
X204736667Y-36860533D01*
X204736667Y-36860533D02*
X204736667Y-36765295D01*
X204736667Y-36765295D02*
X204784286Y-36670057D01*
X204784286Y-36670057D02*
X204831905Y-36622438D01*
X204831905Y-36622438D02*
X204927143Y-36574819D01*
X204927143Y-36574819D02*
X205165238Y-36574819D01*
X205165238Y-36574819D02*
X205308095Y-36622438D01*
X205641429Y-36574819D02*
X205879524Y-37574819D01*
X205879524Y-37574819D02*
X206070000Y-36860533D01*
X206070000Y-36860533D02*
X206260476Y-37574819D01*
X206260476Y-37574819D02*
X206498572Y-36574819D01*
X207403333Y-37574819D02*
X206831905Y-37574819D01*
X207117619Y-37574819D02*
X207117619Y-36574819D01*
X207117619Y-36574819D02*
X207022381Y-36717676D01*
X207022381Y-36717676D02*
X206927143Y-36812914D01*
X206927143Y-36812914D02*
X206831905Y-36860533D01*
X253089580Y-57210952D02*
X253137200Y-57258571D01*
X253137200Y-57258571D02*
X253184819Y-57401428D01*
X253184819Y-57401428D02*
X253184819Y-57496666D01*
X253184819Y-57496666D02*
X253137200Y-57639523D01*
X253137200Y-57639523D02*
X253041961Y-57734761D01*
X253041961Y-57734761D02*
X252946723Y-57782380D01*
X252946723Y-57782380D02*
X252756247Y-57829999D01*
X252756247Y-57829999D02*
X252613390Y-57829999D01*
X252613390Y-57829999D02*
X252422914Y-57782380D01*
X252422914Y-57782380D02*
X252327676Y-57734761D01*
X252327676Y-57734761D02*
X252232438Y-57639523D01*
X252232438Y-57639523D02*
X252184819Y-57496666D01*
X252184819Y-57496666D02*
X252184819Y-57401428D01*
X252184819Y-57401428D02*
X252232438Y-57258571D01*
X252232438Y-57258571D02*
X252280057Y-57210952D01*
X253184819Y-56353809D02*
X252661009Y-56353809D01*
X252661009Y-56353809D02*
X252565771Y-56401428D01*
X252565771Y-56401428D02*
X252518152Y-56496666D01*
X252518152Y-56496666D02*
X252518152Y-56687142D01*
X252518152Y-56687142D02*
X252565771Y-56782380D01*
X253137200Y-56353809D02*
X253184819Y-56449047D01*
X253184819Y-56449047D02*
X253184819Y-56687142D01*
X253184819Y-56687142D02*
X253137200Y-56782380D01*
X253137200Y-56782380D02*
X253041961Y-56829999D01*
X253041961Y-56829999D02*
X252946723Y-56829999D01*
X252946723Y-56829999D02*
X252851485Y-56782380D01*
X252851485Y-56782380D02*
X252803866Y-56687142D01*
X252803866Y-56687142D02*
X252803866Y-56449047D01*
X252803866Y-56449047D02*
X252756247Y-56353809D01*
X253184819Y-55877618D02*
X252518152Y-55877618D01*
X252708628Y-55877618D02*
X252613390Y-55829999D01*
X252613390Y-55829999D02*
X252565771Y-55782380D01*
X252565771Y-55782380D02*
X252518152Y-55687142D01*
X252518152Y-55687142D02*
X252518152Y-55591904D01*
X253184819Y-54829999D02*
X252184819Y-54829999D01*
X253137200Y-54829999D02*
X253184819Y-54925237D01*
X253184819Y-54925237D02*
X253184819Y-55115713D01*
X253184819Y-55115713D02*
X253137200Y-55210951D01*
X253137200Y-55210951D02*
X253089580Y-55258570D01*
X253089580Y-55258570D02*
X252994342Y-55306189D01*
X252994342Y-55306189D02*
X252708628Y-55306189D01*
X252708628Y-55306189D02*
X252613390Y-55258570D01*
X252613390Y-55258570D02*
X252565771Y-55210951D01*
X252565771Y-55210951D02*
X252518152Y-55115713D01*
X252518152Y-55115713D02*
X252518152Y-54925237D01*
X252518152Y-54925237D02*
X252565771Y-54829999D01*
X253184819Y-53829999D02*
X253184819Y-54401427D01*
X253184819Y-54115713D02*
X252184819Y-54115713D01*
X252184819Y-54115713D02*
X252327676Y-54210951D01*
X252327676Y-54210951D02*
X252422914Y-54306189D01*
X252422914Y-54306189D02*
X252470533Y-54401427D01*
X44354761Y-40174057D02*
X44259523Y-40126438D01*
X44259523Y-40126438D02*
X44164285Y-40031200D01*
X44164285Y-40031200D02*
X44021428Y-39888342D01*
X44021428Y-39888342D02*
X43926190Y-39840723D01*
X43926190Y-39840723D02*
X43830952Y-39840723D01*
X43878571Y-40078819D02*
X43783333Y-40031200D01*
X43783333Y-40031200D02*
X43688095Y-39935961D01*
X43688095Y-39935961D02*
X43640476Y-39745485D01*
X43640476Y-39745485D02*
X43640476Y-39412152D01*
X43640476Y-39412152D02*
X43688095Y-39221676D01*
X43688095Y-39221676D02*
X43783333Y-39126438D01*
X43783333Y-39126438D02*
X43878571Y-39078819D01*
X43878571Y-39078819D02*
X44069047Y-39078819D01*
X44069047Y-39078819D02*
X44164285Y-39126438D01*
X44164285Y-39126438D02*
X44259523Y-39221676D01*
X44259523Y-39221676D02*
X44307142Y-39412152D01*
X44307142Y-39412152D02*
X44307142Y-39745485D01*
X44307142Y-39745485D02*
X44259523Y-39935961D01*
X44259523Y-39935961D02*
X44164285Y-40031200D01*
X44164285Y-40031200D02*
X44069047Y-40078819D01*
X44069047Y-40078819D02*
X43878571Y-40078819D01*
X44688095Y-39174057D02*
X44735714Y-39126438D01*
X44735714Y-39126438D02*
X44830952Y-39078819D01*
X44830952Y-39078819D02*
X45069047Y-39078819D01*
X45069047Y-39078819D02*
X45164285Y-39126438D01*
X45164285Y-39126438D02*
X45211904Y-39174057D01*
X45211904Y-39174057D02*
X45259523Y-39269295D01*
X45259523Y-39269295D02*
X45259523Y-39364533D01*
X45259523Y-39364533D02*
X45211904Y-39507390D01*
X45211904Y-39507390D02*
X44640476Y-40078819D01*
X44640476Y-40078819D02*
X45259523Y-40078819D01*
X237437200Y-36043332D02*
X237484819Y-35900475D01*
X237484819Y-35900475D02*
X237484819Y-35662380D01*
X237484819Y-35662380D02*
X237437200Y-35567142D01*
X237437200Y-35567142D02*
X237389580Y-35519523D01*
X237389580Y-35519523D02*
X237294342Y-35471904D01*
X237294342Y-35471904D02*
X237199104Y-35471904D01*
X237199104Y-35471904D02*
X237103866Y-35519523D01*
X237103866Y-35519523D02*
X237056247Y-35567142D01*
X237056247Y-35567142D02*
X237008628Y-35662380D01*
X237008628Y-35662380D02*
X236961009Y-35852856D01*
X236961009Y-35852856D02*
X236913390Y-35948094D01*
X236913390Y-35948094D02*
X236865771Y-35995713D01*
X236865771Y-35995713D02*
X236770533Y-36043332D01*
X236770533Y-36043332D02*
X236675295Y-36043332D01*
X236675295Y-36043332D02*
X236580057Y-35995713D01*
X236580057Y-35995713D02*
X236532438Y-35948094D01*
X236532438Y-35948094D02*
X236484819Y-35852856D01*
X236484819Y-35852856D02*
X236484819Y-35614761D01*
X236484819Y-35614761D02*
X236532438Y-35471904D01*
X236484819Y-35138570D02*
X237484819Y-34900475D01*
X237484819Y-34900475D02*
X236770533Y-34709999D01*
X236770533Y-34709999D02*
X237484819Y-34519523D01*
X237484819Y-34519523D02*
X236484819Y-34281428D01*
X236818152Y-33471904D02*
X237484819Y-33471904D01*
X236437200Y-33709999D02*
X237151485Y-33948094D01*
X237151485Y-33948094D02*
X237151485Y-33329047D01*
X215329819Y-71846904D02*
X216139342Y-71846904D01*
X216139342Y-71846904D02*
X216234580Y-71799285D01*
X216234580Y-71799285D02*
X216282200Y-71751666D01*
X216282200Y-71751666D02*
X216329819Y-71656428D01*
X216329819Y-71656428D02*
X216329819Y-71465952D01*
X216329819Y-71465952D02*
X216282200Y-71370714D01*
X216282200Y-71370714D02*
X216234580Y-71323095D01*
X216234580Y-71323095D02*
X216139342Y-71275476D01*
X216139342Y-71275476D02*
X215329819Y-71275476D01*
X216329819Y-70751666D02*
X216329819Y-70561190D01*
X216329819Y-70561190D02*
X216282200Y-70465952D01*
X216282200Y-70465952D02*
X216234580Y-70418333D01*
X216234580Y-70418333D02*
X216091723Y-70323095D01*
X216091723Y-70323095D02*
X215901247Y-70275476D01*
X215901247Y-70275476D02*
X215520295Y-70275476D01*
X215520295Y-70275476D02*
X215425057Y-70323095D01*
X215425057Y-70323095D02*
X215377438Y-70370714D01*
X215377438Y-70370714D02*
X215329819Y-70465952D01*
X215329819Y-70465952D02*
X215329819Y-70656428D01*
X215329819Y-70656428D02*
X215377438Y-70751666D01*
X215377438Y-70751666D02*
X215425057Y-70799285D01*
X215425057Y-70799285D02*
X215520295Y-70846904D01*
X215520295Y-70846904D02*
X215758390Y-70846904D01*
X215758390Y-70846904D02*
X215853628Y-70799285D01*
X215853628Y-70799285D02*
X215901247Y-70751666D01*
X215901247Y-70751666D02*
X215948866Y-70656428D01*
X215948866Y-70656428D02*
X215948866Y-70465952D01*
X215948866Y-70465952D02*
X215901247Y-70370714D01*
X215901247Y-70370714D02*
X215853628Y-70323095D01*
X215853628Y-70323095D02*
X215758390Y-70275476D01*
X26487523Y-34903580D02*
X26439904Y-34951200D01*
X26439904Y-34951200D02*
X26297047Y-34998819D01*
X26297047Y-34998819D02*
X26201809Y-34998819D01*
X26201809Y-34998819D02*
X26058952Y-34951200D01*
X26058952Y-34951200D02*
X25963714Y-34855961D01*
X25963714Y-34855961D02*
X25916095Y-34760723D01*
X25916095Y-34760723D02*
X25868476Y-34570247D01*
X25868476Y-34570247D02*
X25868476Y-34427390D01*
X25868476Y-34427390D02*
X25916095Y-34236914D01*
X25916095Y-34236914D02*
X25963714Y-34141676D01*
X25963714Y-34141676D02*
X26058952Y-34046438D01*
X26058952Y-34046438D02*
X26201809Y-33998819D01*
X26201809Y-33998819D02*
X26297047Y-33998819D01*
X26297047Y-33998819D02*
X26439904Y-34046438D01*
X26439904Y-34046438D02*
X26487523Y-34094057D01*
X26916095Y-34998819D02*
X26916095Y-33998819D01*
X26916095Y-33998819D02*
X27487523Y-34998819D01*
X27487523Y-34998819D02*
X27487523Y-33998819D01*
X27868476Y-33998819D02*
X28487523Y-33998819D01*
X28487523Y-33998819D02*
X28154190Y-34379771D01*
X28154190Y-34379771D02*
X28297047Y-34379771D01*
X28297047Y-34379771D02*
X28392285Y-34427390D01*
X28392285Y-34427390D02*
X28439904Y-34475009D01*
X28439904Y-34475009D02*
X28487523Y-34570247D01*
X28487523Y-34570247D02*
X28487523Y-34808342D01*
X28487523Y-34808342D02*
X28439904Y-34903580D01*
X28439904Y-34903580D02*
X28392285Y-34951200D01*
X28392285Y-34951200D02*
X28297047Y-34998819D01*
X28297047Y-34998819D02*
X28011333Y-34998819D01*
X28011333Y-34998819D02*
X27916095Y-34951200D01*
X27916095Y-34951200D02*
X27868476Y-34903580D01*
X252200711Y-45134783D02*
X252153036Y-45230133D01*
X252153036Y-45230133D02*
X252057687Y-45325483D01*
X252057687Y-45325483D02*
X251914662Y-45468508D01*
X251914662Y-45468508D02*
X251866987Y-45563857D01*
X251866987Y-45563857D02*
X251866987Y-45659207D01*
X252105361Y-45611532D02*
X252057687Y-45706882D01*
X252057687Y-45706882D02*
X251962337Y-45802232D01*
X251962337Y-45802232D02*
X251771637Y-45849907D01*
X251771637Y-45849907D02*
X251437913Y-45849907D01*
X251437913Y-45849907D02*
X251247213Y-45802232D01*
X251247213Y-45802232D02*
X251151863Y-45706882D01*
X251151863Y-45706882D02*
X251104188Y-45611532D01*
X251104188Y-45611532D02*
X251104188Y-45420833D01*
X251104188Y-45420833D02*
X251151863Y-45325483D01*
X251151863Y-45325483D02*
X251247213Y-45230133D01*
X251247213Y-45230133D02*
X251437913Y-45182458D01*
X251437913Y-45182458D02*
X251771637Y-45182458D01*
X251771637Y-45182458D02*
X251962337Y-45230133D01*
X251962337Y-45230133D02*
X252057687Y-45325483D01*
X252057687Y-45325483D02*
X252105361Y-45420833D01*
X252105361Y-45420833D02*
X252105361Y-45611532D01*
X251104188Y-44848734D02*
X252105361Y-44610359D01*
X252105361Y-44610359D02*
X251390238Y-44419660D01*
X251390238Y-44419660D02*
X252105361Y-44228960D01*
X252105361Y-44228960D02*
X251104188Y-43990586D01*
X252105361Y-43609186D02*
X251104188Y-43609186D01*
X252105361Y-43132437D02*
X251104188Y-43132437D01*
X252010012Y-42083589D02*
X252057687Y-42131264D01*
X252057687Y-42131264D02*
X252105361Y-42274289D01*
X252105361Y-42274289D02*
X252105361Y-42369639D01*
X252105361Y-42369639D02*
X252057687Y-42512663D01*
X252057687Y-42512663D02*
X251962337Y-42608013D01*
X251962337Y-42608013D02*
X251866987Y-42655688D01*
X251866987Y-42655688D02*
X251676287Y-42703363D01*
X251676287Y-42703363D02*
X251533263Y-42703363D01*
X251533263Y-42703363D02*
X251342563Y-42655688D01*
X251342563Y-42655688D02*
X251247213Y-42608013D01*
X251247213Y-42608013D02*
X251151863Y-42512663D01*
X251151863Y-42512663D02*
X251104188Y-42369639D01*
X251104188Y-42369639D02*
X251104188Y-42274289D01*
X251104188Y-42274289D02*
X251151863Y-42131264D01*
X251151863Y-42131264D02*
X251199538Y-42083589D01*
X251199538Y-41702190D02*
X251151863Y-41654515D01*
X251151863Y-41654515D02*
X251104188Y-41559165D01*
X251104188Y-41559165D02*
X251104188Y-41320791D01*
X251104188Y-41320791D02*
X251151863Y-41225441D01*
X251151863Y-41225441D02*
X251199538Y-41177766D01*
X251199538Y-41177766D02*
X251294888Y-41130091D01*
X251294888Y-41130091D02*
X251390238Y-41130091D01*
X251390238Y-41130091D02*
X251533263Y-41177766D01*
X251533263Y-41177766D02*
X252105361Y-41749865D01*
X252105361Y-41749865D02*
X252105361Y-41130091D01*
X64095333Y-53963819D02*
X63762000Y-53487628D01*
X63523905Y-53963819D02*
X63523905Y-52963819D01*
X63523905Y-52963819D02*
X63904857Y-52963819D01*
X63904857Y-52963819D02*
X64000095Y-53011438D01*
X64000095Y-53011438D02*
X64047714Y-53059057D01*
X64047714Y-53059057D02*
X64095333Y-53154295D01*
X64095333Y-53154295D02*
X64095333Y-53297152D01*
X64095333Y-53297152D02*
X64047714Y-53392390D01*
X64047714Y-53392390D02*
X64000095Y-53440009D01*
X64000095Y-53440009D02*
X63904857Y-53487628D01*
X63904857Y-53487628D02*
X63523905Y-53487628D01*
X64952476Y-52963819D02*
X64762000Y-52963819D01*
X64762000Y-52963819D02*
X64666762Y-53011438D01*
X64666762Y-53011438D02*
X64619143Y-53059057D01*
X64619143Y-53059057D02*
X64523905Y-53201914D01*
X64523905Y-53201914D02*
X64476286Y-53392390D01*
X64476286Y-53392390D02*
X64476286Y-53773342D01*
X64476286Y-53773342D02*
X64523905Y-53868580D01*
X64523905Y-53868580D02*
X64571524Y-53916200D01*
X64571524Y-53916200D02*
X64666762Y-53963819D01*
X64666762Y-53963819D02*
X64857238Y-53963819D01*
X64857238Y-53963819D02*
X64952476Y-53916200D01*
X64952476Y-53916200D02*
X65000095Y-53868580D01*
X65000095Y-53868580D02*
X65047714Y-53773342D01*
X65047714Y-53773342D02*
X65047714Y-53535247D01*
X65047714Y-53535247D02*
X65000095Y-53440009D01*
X65000095Y-53440009D02*
X64952476Y-53392390D01*
X64952476Y-53392390D02*
X64857238Y-53344771D01*
X64857238Y-53344771D02*
X64666762Y-53344771D01*
X64666762Y-53344771D02*
X64571524Y-53392390D01*
X64571524Y-53392390D02*
X64523905Y-53440009D01*
X64523905Y-53440009D02*
X64476286Y-53535247D01*
X198515580Y-43560666D02*
X198563200Y-43608285D01*
X198563200Y-43608285D02*
X198610819Y-43751142D01*
X198610819Y-43751142D02*
X198610819Y-43846380D01*
X198610819Y-43846380D02*
X198563200Y-43989237D01*
X198563200Y-43989237D02*
X198467961Y-44084475D01*
X198467961Y-44084475D02*
X198372723Y-44132094D01*
X198372723Y-44132094D02*
X198182247Y-44179713D01*
X198182247Y-44179713D02*
X198039390Y-44179713D01*
X198039390Y-44179713D02*
X197848914Y-44132094D01*
X197848914Y-44132094D02*
X197753676Y-44084475D01*
X197753676Y-44084475D02*
X197658438Y-43989237D01*
X197658438Y-43989237D02*
X197610819Y-43846380D01*
X197610819Y-43846380D02*
X197610819Y-43751142D01*
X197610819Y-43751142D02*
X197658438Y-43608285D01*
X197658438Y-43608285D02*
X197706057Y-43560666D01*
X198610819Y-42608285D02*
X198610819Y-43179713D01*
X198610819Y-42893999D02*
X197610819Y-42893999D01*
X197610819Y-42893999D02*
X197753676Y-42989237D01*
X197753676Y-42989237D02*
X197848914Y-43084475D01*
X197848914Y-43084475D02*
X197896533Y-43179713D01*
X243864819Y-42614285D02*
X243388628Y-42880952D01*
X243864819Y-43071428D02*
X242864819Y-43071428D01*
X242864819Y-43071428D02*
X242864819Y-42766666D01*
X242864819Y-42766666D02*
X242912438Y-42690476D01*
X242912438Y-42690476D02*
X242960057Y-42652381D01*
X242960057Y-42652381D02*
X243055295Y-42614285D01*
X243055295Y-42614285D02*
X243198152Y-42614285D01*
X243198152Y-42614285D02*
X243293390Y-42652381D01*
X243293390Y-42652381D02*
X243341009Y-42690476D01*
X243341009Y-42690476D02*
X243388628Y-42766666D01*
X243388628Y-42766666D02*
X243388628Y-43071428D01*
X242864819Y-42347619D02*
X242864819Y-41852381D01*
X242864819Y-41852381D02*
X243245771Y-42119047D01*
X243245771Y-42119047D02*
X243245771Y-42004762D01*
X243245771Y-42004762D02*
X243293390Y-41928571D01*
X243293390Y-41928571D02*
X243341009Y-41890476D01*
X243341009Y-41890476D02*
X243436247Y-41852381D01*
X243436247Y-41852381D02*
X243674342Y-41852381D01*
X243674342Y-41852381D02*
X243769580Y-41890476D01*
X243769580Y-41890476D02*
X243817200Y-41928571D01*
X243817200Y-41928571D02*
X243864819Y-42004762D01*
X243864819Y-42004762D02*
X243864819Y-42233333D01*
X243864819Y-42233333D02*
X243817200Y-42309524D01*
X243817200Y-42309524D02*
X243769580Y-42347619D01*
X242960057Y-41547619D02*
X242912438Y-41509523D01*
X242912438Y-41509523D02*
X242864819Y-41433333D01*
X242864819Y-41433333D02*
X242864819Y-41242857D01*
X242864819Y-41242857D02*
X242912438Y-41166666D01*
X242912438Y-41166666D02*
X242960057Y-41128571D01*
X242960057Y-41128571D02*
X243055295Y-41090476D01*
X243055295Y-41090476D02*
X243150533Y-41090476D01*
X243150533Y-41090476D02*
X243293390Y-41128571D01*
X243293390Y-41128571D02*
X243864819Y-41585714D01*
X243864819Y-41585714D02*
X243864819Y-41090476D01*
X230862142Y-64764580D02*
X230814523Y-64812200D01*
X230814523Y-64812200D02*
X230671666Y-64859819D01*
X230671666Y-64859819D02*
X230576428Y-64859819D01*
X230576428Y-64859819D02*
X230433571Y-64812200D01*
X230433571Y-64812200D02*
X230338333Y-64716961D01*
X230338333Y-64716961D02*
X230290714Y-64621723D01*
X230290714Y-64621723D02*
X230243095Y-64431247D01*
X230243095Y-64431247D02*
X230243095Y-64288390D01*
X230243095Y-64288390D02*
X230290714Y-64097914D01*
X230290714Y-64097914D02*
X230338333Y-64002676D01*
X230338333Y-64002676D02*
X230433571Y-63907438D01*
X230433571Y-63907438D02*
X230576428Y-63859819D01*
X230576428Y-63859819D02*
X230671666Y-63859819D01*
X230671666Y-63859819D02*
X230814523Y-63907438D01*
X230814523Y-63907438D02*
X230862142Y-63955057D01*
X231814523Y-64859819D02*
X231243095Y-64859819D01*
X231528809Y-64859819D02*
X231528809Y-63859819D01*
X231528809Y-63859819D02*
X231433571Y-64002676D01*
X231433571Y-64002676D02*
X231338333Y-64097914D01*
X231338333Y-64097914D02*
X231243095Y-64145533D01*
X232433571Y-63859819D02*
X232528809Y-63859819D01*
X232528809Y-63859819D02*
X232624047Y-63907438D01*
X232624047Y-63907438D02*
X232671666Y-63955057D01*
X232671666Y-63955057D02*
X232719285Y-64050295D01*
X232719285Y-64050295D02*
X232766904Y-64240771D01*
X232766904Y-64240771D02*
X232766904Y-64478866D01*
X232766904Y-64478866D02*
X232719285Y-64669342D01*
X232719285Y-64669342D02*
X232671666Y-64764580D01*
X232671666Y-64764580D02*
X232624047Y-64812200D01*
X232624047Y-64812200D02*
X232528809Y-64859819D01*
X232528809Y-64859819D02*
X232433571Y-64859819D01*
X232433571Y-64859819D02*
X232338333Y-64812200D01*
X232338333Y-64812200D02*
X232290714Y-64764580D01*
X232290714Y-64764580D02*
X232243095Y-64669342D01*
X232243095Y-64669342D02*
X232195476Y-64478866D01*
X232195476Y-64478866D02*
X232195476Y-64240771D01*
X232195476Y-64240771D02*
X232243095Y-64050295D01*
X232243095Y-64050295D02*
X232290714Y-63955057D01*
X232290714Y-63955057D02*
X232338333Y-63907438D01*
X232338333Y-63907438D02*
X232433571Y-63859819D01*
X49730819Y-39187857D02*
X49254628Y-39521190D01*
X49730819Y-39759285D02*
X48730819Y-39759285D01*
X48730819Y-39759285D02*
X48730819Y-39378333D01*
X48730819Y-39378333D02*
X48778438Y-39283095D01*
X48778438Y-39283095D02*
X48826057Y-39235476D01*
X48826057Y-39235476D02*
X48921295Y-39187857D01*
X48921295Y-39187857D02*
X49064152Y-39187857D01*
X49064152Y-39187857D02*
X49159390Y-39235476D01*
X49159390Y-39235476D02*
X49207009Y-39283095D01*
X49207009Y-39283095D02*
X49254628Y-39378333D01*
X49254628Y-39378333D02*
X49254628Y-39759285D01*
X49730819Y-38235476D02*
X49730819Y-38806904D01*
X49730819Y-38521190D02*
X48730819Y-38521190D01*
X48730819Y-38521190D02*
X48873676Y-38616428D01*
X48873676Y-38616428D02*
X48968914Y-38711666D01*
X48968914Y-38711666D02*
X49016533Y-38806904D01*
X49064152Y-37378333D02*
X49730819Y-37378333D01*
X48683200Y-37616428D02*
X49397485Y-37854523D01*
X49397485Y-37854523D02*
X49397485Y-37235476D01*
X205612142Y-64694580D02*
X205564523Y-64742200D01*
X205564523Y-64742200D02*
X205421666Y-64789819D01*
X205421666Y-64789819D02*
X205326428Y-64789819D01*
X205326428Y-64789819D02*
X205183571Y-64742200D01*
X205183571Y-64742200D02*
X205088333Y-64646961D01*
X205088333Y-64646961D02*
X205040714Y-64551723D01*
X205040714Y-64551723D02*
X204993095Y-64361247D01*
X204993095Y-64361247D02*
X204993095Y-64218390D01*
X204993095Y-64218390D02*
X205040714Y-64027914D01*
X205040714Y-64027914D02*
X205088333Y-63932676D01*
X205088333Y-63932676D02*
X205183571Y-63837438D01*
X205183571Y-63837438D02*
X205326428Y-63789819D01*
X205326428Y-63789819D02*
X205421666Y-63789819D01*
X205421666Y-63789819D02*
X205564523Y-63837438D01*
X205564523Y-63837438D02*
X205612142Y-63885057D01*
X206564523Y-64789819D02*
X205993095Y-64789819D01*
X206278809Y-64789819D02*
X206278809Y-63789819D01*
X206278809Y-63789819D02*
X206183571Y-63932676D01*
X206183571Y-63932676D02*
X206088333Y-64027914D01*
X206088333Y-64027914D02*
X205993095Y-64075533D01*
X206945476Y-63885057D02*
X206993095Y-63837438D01*
X206993095Y-63837438D02*
X207088333Y-63789819D01*
X207088333Y-63789819D02*
X207326428Y-63789819D01*
X207326428Y-63789819D02*
X207421666Y-63837438D01*
X207421666Y-63837438D02*
X207469285Y-63885057D01*
X207469285Y-63885057D02*
X207516904Y-63980295D01*
X207516904Y-63980295D02*
X207516904Y-64075533D01*
X207516904Y-64075533D02*
X207469285Y-64218390D01*
X207469285Y-64218390D02*
X206897857Y-64789819D01*
X206897857Y-64789819D02*
X207516904Y-64789819D01*
X52951142Y-55985580D02*
X52903523Y-56033200D01*
X52903523Y-56033200D02*
X52760666Y-56080819D01*
X52760666Y-56080819D02*
X52665428Y-56080819D01*
X52665428Y-56080819D02*
X52522571Y-56033200D01*
X52522571Y-56033200D02*
X52427333Y-55937961D01*
X52427333Y-55937961D02*
X52379714Y-55842723D01*
X52379714Y-55842723D02*
X52332095Y-55652247D01*
X52332095Y-55652247D02*
X52332095Y-55509390D01*
X52332095Y-55509390D02*
X52379714Y-55318914D01*
X52379714Y-55318914D02*
X52427333Y-55223676D01*
X52427333Y-55223676D02*
X52522571Y-55128438D01*
X52522571Y-55128438D02*
X52665428Y-55080819D01*
X52665428Y-55080819D02*
X52760666Y-55080819D01*
X52760666Y-55080819D02*
X52903523Y-55128438D01*
X52903523Y-55128438D02*
X52951142Y-55176057D01*
X53332095Y-55176057D02*
X53379714Y-55128438D01*
X53379714Y-55128438D02*
X53474952Y-55080819D01*
X53474952Y-55080819D02*
X53713047Y-55080819D01*
X53713047Y-55080819D02*
X53808285Y-55128438D01*
X53808285Y-55128438D02*
X53855904Y-55176057D01*
X53855904Y-55176057D02*
X53903523Y-55271295D01*
X53903523Y-55271295D02*
X53903523Y-55366533D01*
X53903523Y-55366533D02*
X53855904Y-55509390D01*
X53855904Y-55509390D02*
X53284476Y-56080819D01*
X53284476Y-56080819D02*
X53903523Y-56080819D01*
X54236857Y-55080819D02*
X54855904Y-55080819D01*
X54855904Y-55080819D02*
X54522571Y-55461771D01*
X54522571Y-55461771D02*
X54665428Y-55461771D01*
X54665428Y-55461771D02*
X54760666Y-55509390D01*
X54760666Y-55509390D02*
X54808285Y-55557009D01*
X54808285Y-55557009D02*
X54855904Y-55652247D01*
X54855904Y-55652247D02*
X54855904Y-55890342D01*
X54855904Y-55890342D02*
X54808285Y-55985580D01*
X54808285Y-55985580D02*
X54760666Y-56033200D01*
X54760666Y-56033200D02*
X54665428Y-56080819D01*
X54665428Y-56080819D02*
X54379714Y-56080819D01*
X54379714Y-56080819D02*
X54284476Y-56033200D01*
X54284476Y-56033200D02*
X54236857Y-55985580D01*
X39133333Y-36414819D02*
X38800000Y-35938628D01*
X38561905Y-36414819D02*
X38561905Y-35414819D01*
X38561905Y-35414819D02*
X38942857Y-35414819D01*
X38942857Y-35414819D02*
X39038095Y-35462438D01*
X39038095Y-35462438D02*
X39085714Y-35510057D01*
X39085714Y-35510057D02*
X39133333Y-35605295D01*
X39133333Y-35605295D02*
X39133333Y-35748152D01*
X39133333Y-35748152D02*
X39085714Y-35843390D01*
X39085714Y-35843390D02*
X39038095Y-35891009D01*
X39038095Y-35891009D02*
X38942857Y-35938628D01*
X38942857Y-35938628D02*
X38561905Y-35938628D01*
X39514286Y-35510057D02*
X39561905Y-35462438D01*
X39561905Y-35462438D02*
X39657143Y-35414819D01*
X39657143Y-35414819D02*
X39895238Y-35414819D01*
X39895238Y-35414819D02*
X39990476Y-35462438D01*
X39990476Y-35462438D02*
X40038095Y-35510057D01*
X40038095Y-35510057D02*
X40085714Y-35605295D01*
X40085714Y-35605295D02*
X40085714Y-35700533D01*
X40085714Y-35700533D02*
X40038095Y-35843390D01*
X40038095Y-35843390D02*
X39466667Y-36414819D01*
X39466667Y-36414819D02*
X40085714Y-36414819D01*
X213269580Y-38868285D02*
X213317200Y-38906381D01*
X213317200Y-38906381D02*
X213364819Y-39020666D01*
X213364819Y-39020666D02*
X213364819Y-39096857D01*
X213364819Y-39096857D02*
X213317200Y-39211143D01*
X213317200Y-39211143D02*
X213221961Y-39287333D01*
X213221961Y-39287333D02*
X213126723Y-39325428D01*
X213126723Y-39325428D02*
X212936247Y-39363524D01*
X212936247Y-39363524D02*
X212793390Y-39363524D01*
X212793390Y-39363524D02*
X212602914Y-39325428D01*
X212602914Y-39325428D02*
X212507676Y-39287333D01*
X212507676Y-39287333D02*
X212412438Y-39211143D01*
X212412438Y-39211143D02*
X212364819Y-39096857D01*
X212364819Y-39096857D02*
X212364819Y-39020666D01*
X212364819Y-39020666D02*
X212412438Y-38906381D01*
X212412438Y-38906381D02*
X212460057Y-38868285D01*
X213364819Y-38106381D02*
X213364819Y-38563524D01*
X213364819Y-38334952D02*
X212364819Y-38334952D01*
X212364819Y-38334952D02*
X212507676Y-38411143D01*
X212507676Y-38411143D02*
X212602914Y-38487333D01*
X212602914Y-38487333D02*
X212650533Y-38563524D01*
X212364819Y-37839714D02*
X212364819Y-37306380D01*
X212364819Y-37306380D02*
X213364819Y-37649238D01*
X63180595Y-46497819D02*
X63180595Y-47307342D01*
X63180595Y-47307342D02*
X63228214Y-47402580D01*
X63228214Y-47402580D02*
X63275833Y-47450200D01*
X63275833Y-47450200D02*
X63371071Y-47497819D01*
X63371071Y-47497819D02*
X63561547Y-47497819D01*
X63561547Y-47497819D02*
X63656785Y-47450200D01*
X63656785Y-47450200D02*
X63704404Y-47402580D01*
X63704404Y-47402580D02*
X63752023Y-47307342D01*
X63752023Y-47307342D02*
X63752023Y-46497819D01*
X64752023Y-47497819D02*
X64180595Y-47497819D01*
X64466309Y-47497819D02*
X64466309Y-46497819D01*
X64466309Y-46497819D02*
X64371071Y-46640676D01*
X64371071Y-46640676D02*
X64275833Y-46735914D01*
X64275833Y-46735914D02*
X64180595Y-46783533D01*
X185134819Y-43422857D02*
X184658628Y-43756190D01*
X185134819Y-43994285D02*
X184134819Y-43994285D01*
X184134819Y-43994285D02*
X184134819Y-43613333D01*
X184134819Y-43613333D02*
X184182438Y-43518095D01*
X184182438Y-43518095D02*
X184230057Y-43470476D01*
X184230057Y-43470476D02*
X184325295Y-43422857D01*
X184325295Y-43422857D02*
X184468152Y-43422857D01*
X184468152Y-43422857D02*
X184563390Y-43470476D01*
X184563390Y-43470476D02*
X184611009Y-43518095D01*
X184611009Y-43518095D02*
X184658628Y-43613333D01*
X184658628Y-43613333D02*
X184658628Y-43994285D01*
X185134819Y-42470476D02*
X185134819Y-43041904D01*
X185134819Y-42756190D02*
X184134819Y-42756190D01*
X184134819Y-42756190D02*
X184277676Y-42851428D01*
X184277676Y-42851428D02*
X184372914Y-42946666D01*
X184372914Y-42946666D02*
X184420533Y-43041904D01*
X184230057Y-42089523D02*
X184182438Y-42041904D01*
X184182438Y-42041904D02*
X184134819Y-41946666D01*
X184134819Y-41946666D02*
X184134819Y-41708571D01*
X184134819Y-41708571D02*
X184182438Y-41613333D01*
X184182438Y-41613333D02*
X184230057Y-41565714D01*
X184230057Y-41565714D02*
X184325295Y-41518095D01*
X184325295Y-41518095D02*
X184420533Y-41518095D01*
X184420533Y-41518095D02*
X184563390Y-41565714D01*
X184563390Y-41565714D02*
X185134819Y-42137142D01*
X185134819Y-42137142D02*
X185134819Y-41518095D01*
X245614819Y-42614285D02*
X245138628Y-42880952D01*
X245614819Y-43071428D02*
X244614819Y-43071428D01*
X244614819Y-43071428D02*
X244614819Y-42766666D01*
X244614819Y-42766666D02*
X244662438Y-42690476D01*
X244662438Y-42690476D02*
X244710057Y-42652381D01*
X244710057Y-42652381D02*
X244805295Y-42614285D01*
X244805295Y-42614285D02*
X244948152Y-42614285D01*
X244948152Y-42614285D02*
X245043390Y-42652381D01*
X245043390Y-42652381D02*
X245091009Y-42690476D01*
X245091009Y-42690476D02*
X245138628Y-42766666D01*
X245138628Y-42766666D02*
X245138628Y-43071428D01*
X244614819Y-42347619D02*
X244614819Y-41852381D01*
X244614819Y-41852381D02*
X244995771Y-42119047D01*
X244995771Y-42119047D02*
X244995771Y-42004762D01*
X244995771Y-42004762D02*
X245043390Y-41928571D01*
X245043390Y-41928571D02*
X245091009Y-41890476D01*
X245091009Y-41890476D02*
X245186247Y-41852381D01*
X245186247Y-41852381D02*
X245424342Y-41852381D01*
X245424342Y-41852381D02*
X245519580Y-41890476D01*
X245519580Y-41890476D02*
X245567200Y-41928571D01*
X245567200Y-41928571D02*
X245614819Y-42004762D01*
X245614819Y-42004762D02*
X245614819Y-42233333D01*
X245614819Y-42233333D02*
X245567200Y-42309524D01*
X245567200Y-42309524D02*
X245519580Y-42347619D01*
X244614819Y-41585714D02*
X244614819Y-41090476D01*
X244614819Y-41090476D02*
X244995771Y-41357142D01*
X244995771Y-41357142D02*
X244995771Y-41242857D01*
X244995771Y-41242857D02*
X245043390Y-41166666D01*
X245043390Y-41166666D02*
X245091009Y-41128571D01*
X245091009Y-41128571D02*
X245186247Y-41090476D01*
X245186247Y-41090476D02*
X245424342Y-41090476D01*
X245424342Y-41090476D02*
X245519580Y-41128571D01*
X245519580Y-41128571D02*
X245567200Y-41166666D01*
X245567200Y-41166666D02*
X245614819Y-41242857D01*
X245614819Y-41242857D02*
X245614819Y-41471428D01*
X245614819Y-41471428D02*
X245567200Y-41547619D01*
X245567200Y-41547619D02*
X245519580Y-41585714D01*
X247364819Y-42539285D02*
X246888628Y-42805952D01*
X247364819Y-42996428D02*
X246364819Y-42996428D01*
X246364819Y-42996428D02*
X246364819Y-42691666D01*
X246364819Y-42691666D02*
X246412438Y-42615476D01*
X246412438Y-42615476D02*
X246460057Y-42577381D01*
X246460057Y-42577381D02*
X246555295Y-42539285D01*
X246555295Y-42539285D02*
X246698152Y-42539285D01*
X246698152Y-42539285D02*
X246793390Y-42577381D01*
X246793390Y-42577381D02*
X246841009Y-42615476D01*
X246841009Y-42615476D02*
X246888628Y-42691666D01*
X246888628Y-42691666D02*
X246888628Y-42996428D01*
X246364819Y-42272619D02*
X246364819Y-41777381D01*
X246364819Y-41777381D02*
X246745771Y-42044047D01*
X246745771Y-42044047D02*
X246745771Y-41929762D01*
X246745771Y-41929762D02*
X246793390Y-41853571D01*
X246793390Y-41853571D02*
X246841009Y-41815476D01*
X246841009Y-41815476D02*
X246936247Y-41777381D01*
X246936247Y-41777381D02*
X247174342Y-41777381D01*
X247174342Y-41777381D02*
X247269580Y-41815476D01*
X247269580Y-41815476D02*
X247317200Y-41853571D01*
X247317200Y-41853571D02*
X247364819Y-41929762D01*
X247364819Y-41929762D02*
X247364819Y-42158333D01*
X247364819Y-42158333D02*
X247317200Y-42234524D01*
X247317200Y-42234524D02*
X247269580Y-42272619D01*
X247364819Y-41015476D02*
X247364819Y-41472619D01*
X247364819Y-41244047D02*
X246364819Y-41244047D01*
X246364819Y-41244047D02*
X246507676Y-41320238D01*
X246507676Y-41320238D02*
X246602914Y-41396428D01*
X246602914Y-41396428D02*
X246650533Y-41472619D01*
X63264819Y-36573333D02*
X63979104Y-36573333D01*
X63979104Y-36573333D02*
X64121961Y-36620952D01*
X64121961Y-36620952D02*
X64217200Y-36716190D01*
X64217200Y-36716190D02*
X64264819Y-36859047D01*
X64264819Y-36859047D02*
X64264819Y-36954285D01*
X63360057Y-36144761D02*
X63312438Y-36097142D01*
X63312438Y-36097142D02*
X63264819Y-36001904D01*
X63264819Y-36001904D02*
X63264819Y-35763809D01*
X63264819Y-35763809D02*
X63312438Y-35668571D01*
X63312438Y-35668571D02*
X63360057Y-35620952D01*
X63360057Y-35620952D02*
X63455295Y-35573333D01*
X63455295Y-35573333D02*
X63550533Y-35573333D01*
X63550533Y-35573333D02*
X63693390Y-35620952D01*
X63693390Y-35620952D02*
X64264819Y-36192380D01*
X64264819Y-36192380D02*
X64264819Y-35573333D01*
X68682080Y-49709666D02*
X68729700Y-49757285D01*
X68729700Y-49757285D02*
X68777319Y-49900142D01*
X68777319Y-49900142D02*
X68777319Y-49995380D01*
X68777319Y-49995380D02*
X68729700Y-50138237D01*
X68729700Y-50138237D02*
X68634461Y-50233475D01*
X68634461Y-50233475D02*
X68539223Y-50281094D01*
X68539223Y-50281094D02*
X68348747Y-50328713D01*
X68348747Y-50328713D02*
X68205890Y-50328713D01*
X68205890Y-50328713D02*
X68015414Y-50281094D01*
X68015414Y-50281094D02*
X67920176Y-50233475D01*
X67920176Y-50233475D02*
X67824938Y-50138237D01*
X67824938Y-50138237D02*
X67777319Y-49995380D01*
X67777319Y-49995380D02*
X67777319Y-49900142D01*
X67777319Y-49900142D02*
X67824938Y-49757285D01*
X67824938Y-49757285D02*
X67872557Y-49709666D01*
X67777319Y-48804904D02*
X67777319Y-49281094D01*
X67777319Y-49281094D02*
X68253509Y-49328713D01*
X68253509Y-49328713D02*
X68205890Y-49281094D01*
X68205890Y-49281094D02*
X68158271Y-49185856D01*
X68158271Y-49185856D02*
X68158271Y-48947761D01*
X68158271Y-48947761D02*
X68205890Y-48852523D01*
X68205890Y-48852523D02*
X68253509Y-48804904D01*
X68253509Y-48804904D02*
X68348747Y-48757285D01*
X68348747Y-48757285D02*
X68586842Y-48757285D01*
X68586842Y-48757285D02*
X68682080Y-48804904D01*
X68682080Y-48804904D02*
X68729700Y-48852523D01*
X68729700Y-48852523D02*
X68777319Y-48947761D01*
X68777319Y-48947761D02*
X68777319Y-49185856D01*
X68777319Y-49185856D02*
X68729700Y-49281094D01*
X68729700Y-49281094D02*
X68682080Y-49328713D01*
X198339580Y-50490476D02*
X198387200Y-50538095D01*
X198387200Y-50538095D02*
X198434819Y-50680952D01*
X198434819Y-50680952D02*
X198434819Y-50776190D01*
X198434819Y-50776190D02*
X198387200Y-50919047D01*
X198387200Y-50919047D02*
X198291961Y-51014285D01*
X198291961Y-51014285D02*
X198196723Y-51061904D01*
X198196723Y-51061904D02*
X198006247Y-51109523D01*
X198006247Y-51109523D02*
X197863390Y-51109523D01*
X197863390Y-51109523D02*
X197672914Y-51061904D01*
X197672914Y-51061904D02*
X197577676Y-51014285D01*
X197577676Y-51014285D02*
X197482438Y-50919047D01*
X197482438Y-50919047D02*
X197434819Y-50776190D01*
X197434819Y-50776190D02*
X197434819Y-50680952D01*
X197434819Y-50680952D02*
X197482438Y-50538095D01*
X197482438Y-50538095D02*
X197530057Y-50490476D01*
X198434819Y-50061904D02*
X197434819Y-50061904D01*
X197434819Y-50061904D02*
X198434819Y-49490476D01*
X198434819Y-49490476D02*
X197434819Y-49490476D01*
X197530057Y-49061904D02*
X197482438Y-49014285D01*
X197482438Y-49014285D02*
X197434819Y-48919047D01*
X197434819Y-48919047D02*
X197434819Y-48680952D01*
X197434819Y-48680952D02*
X197482438Y-48585714D01*
X197482438Y-48585714D02*
X197530057Y-48538095D01*
X197530057Y-48538095D02*
X197625295Y-48490476D01*
X197625295Y-48490476D02*
X197720533Y-48490476D01*
X197720533Y-48490476D02*
X197863390Y-48538095D01*
X197863390Y-48538095D02*
X198434819Y-49109523D01*
X198434819Y-49109523D02*
X198434819Y-48490476D01*
X93125216Y-36460711D02*
X93029866Y-36413036D01*
X93029866Y-36413036D02*
X92934516Y-36317687D01*
X92934516Y-36317687D02*
X92791491Y-36174662D01*
X92791491Y-36174662D02*
X92696142Y-36126987D01*
X92696142Y-36126987D02*
X92600792Y-36126987D01*
X92648467Y-36365361D02*
X92553117Y-36317687D01*
X92553117Y-36317687D02*
X92457767Y-36222337D01*
X92457767Y-36222337D02*
X92410092Y-36031637D01*
X92410092Y-36031637D02*
X92410092Y-35697913D01*
X92410092Y-35697913D02*
X92457767Y-35507213D01*
X92457767Y-35507213D02*
X92553117Y-35411863D01*
X92553117Y-35411863D02*
X92648467Y-35364188D01*
X92648467Y-35364188D02*
X92839166Y-35364188D01*
X92839166Y-35364188D02*
X92934516Y-35411863D01*
X92934516Y-35411863D02*
X93029866Y-35507213D01*
X93029866Y-35507213D02*
X93077541Y-35697913D01*
X93077541Y-35697913D02*
X93077541Y-36031637D01*
X93077541Y-36031637D02*
X93029866Y-36222337D01*
X93029866Y-36222337D02*
X92934516Y-36317687D01*
X92934516Y-36317687D02*
X92839166Y-36365361D01*
X92839166Y-36365361D02*
X92648467Y-36365361D01*
X93411265Y-35364188D02*
X93649640Y-36365361D01*
X93649640Y-36365361D02*
X93840339Y-35650238D01*
X93840339Y-35650238D02*
X94031039Y-36365361D01*
X94031039Y-36365361D02*
X94269414Y-35364188D01*
X94650813Y-36365361D02*
X94650813Y-35364188D01*
X95127562Y-36365361D02*
X95127562Y-35364188D01*
X96176410Y-36270012D02*
X96128735Y-36317687D01*
X96128735Y-36317687D02*
X95985710Y-36365361D01*
X95985710Y-36365361D02*
X95890360Y-36365361D01*
X95890360Y-36365361D02*
X95747336Y-36317687D01*
X95747336Y-36317687D02*
X95651986Y-36222337D01*
X95651986Y-36222337D02*
X95604311Y-36126987D01*
X95604311Y-36126987D02*
X95556636Y-35936287D01*
X95556636Y-35936287D02*
X95556636Y-35793263D01*
X95556636Y-35793263D02*
X95604311Y-35602563D01*
X95604311Y-35602563D02*
X95651986Y-35507213D01*
X95651986Y-35507213D02*
X95747336Y-35411863D01*
X95747336Y-35411863D02*
X95890360Y-35364188D01*
X95890360Y-35364188D02*
X95985710Y-35364188D01*
X95985710Y-35364188D02*
X96128735Y-35411863D01*
X96128735Y-35411863D02*
X96176410Y-35459538D01*
X97129908Y-36365361D02*
X96557809Y-36365361D01*
X96843859Y-36365361D02*
X96843859Y-35364188D01*
X96843859Y-35364188D02*
X96748509Y-35507213D01*
X96748509Y-35507213D02*
X96653159Y-35602563D01*
X96653159Y-35602563D02*
X96557809Y-35650238D01*
X197070819Y-43610666D02*
X197070819Y-44086856D01*
X197070819Y-44086856D02*
X196070819Y-44086856D01*
X196166057Y-43324951D02*
X196118438Y-43277332D01*
X196118438Y-43277332D02*
X196070819Y-43182094D01*
X196070819Y-43182094D02*
X196070819Y-42943999D01*
X196070819Y-42943999D02*
X196118438Y-42848761D01*
X196118438Y-42848761D02*
X196166057Y-42801142D01*
X196166057Y-42801142D02*
X196261295Y-42753523D01*
X196261295Y-42753523D02*
X196356533Y-42753523D01*
X196356533Y-42753523D02*
X196499390Y-42801142D01*
X196499390Y-42801142D02*
X197070819Y-43372570D01*
X197070819Y-43372570D02*
X197070819Y-42753523D01*
X211179580Y-44584857D02*
X211227200Y-44632476D01*
X211227200Y-44632476D02*
X211274819Y-44775333D01*
X211274819Y-44775333D02*
X211274819Y-44870571D01*
X211274819Y-44870571D02*
X211227200Y-45013428D01*
X211227200Y-45013428D02*
X211131961Y-45108666D01*
X211131961Y-45108666D02*
X211036723Y-45156285D01*
X211036723Y-45156285D02*
X210846247Y-45203904D01*
X210846247Y-45203904D02*
X210703390Y-45203904D01*
X210703390Y-45203904D02*
X210512914Y-45156285D01*
X210512914Y-45156285D02*
X210417676Y-45108666D01*
X210417676Y-45108666D02*
X210322438Y-45013428D01*
X210322438Y-45013428D02*
X210274819Y-44870571D01*
X210274819Y-44870571D02*
X210274819Y-44775333D01*
X210274819Y-44775333D02*
X210322438Y-44632476D01*
X210322438Y-44632476D02*
X210370057Y-44584857D01*
X210370057Y-44203904D02*
X210322438Y-44156285D01*
X210322438Y-44156285D02*
X210274819Y-44061047D01*
X210274819Y-44061047D02*
X210274819Y-43822952D01*
X210274819Y-43822952D02*
X210322438Y-43727714D01*
X210322438Y-43727714D02*
X210370057Y-43680095D01*
X210370057Y-43680095D02*
X210465295Y-43632476D01*
X210465295Y-43632476D02*
X210560533Y-43632476D01*
X210560533Y-43632476D02*
X210703390Y-43680095D01*
X210703390Y-43680095D02*
X211274819Y-44251523D01*
X211274819Y-44251523D02*
X211274819Y-43632476D01*
X210274819Y-43013428D02*
X210274819Y-42918190D01*
X210274819Y-42918190D02*
X210322438Y-42822952D01*
X210322438Y-42822952D02*
X210370057Y-42775333D01*
X210370057Y-42775333D02*
X210465295Y-42727714D01*
X210465295Y-42727714D02*
X210655771Y-42680095D01*
X210655771Y-42680095D02*
X210893866Y-42680095D01*
X210893866Y-42680095D02*
X211084342Y-42727714D01*
X211084342Y-42727714D02*
X211179580Y-42775333D01*
X211179580Y-42775333D02*
X211227200Y-42822952D01*
X211227200Y-42822952D02*
X211274819Y-42918190D01*
X211274819Y-42918190D02*
X211274819Y-43013428D01*
X211274819Y-43013428D02*
X211227200Y-43108666D01*
X211227200Y-43108666D02*
X211179580Y-43156285D01*
X211179580Y-43156285D02*
X211084342Y-43203904D01*
X211084342Y-43203904D02*
X210893866Y-43251523D01*
X210893866Y-43251523D02*
X210655771Y-43251523D01*
X210655771Y-43251523D02*
X210465295Y-43203904D01*
X210465295Y-43203904D02*
X210370057Y-43156285D01*
X210370057Y-43156285D02*
X210322438Y-43108666D01*
X210322438Y-43108666D02*
X210274819Y-43013428D01*
X244123333Y-64809580D02*
X244075714Y-64857200D01*
X244075714Y-64857200D02*
X243932857Y-64904819D01*
X243932857Y-64904819D02*
X243837619Y-64904819D01*
X243837619Y-64904819D02*
X243694762Y-64857200D01*
X243694762Y-64857200D02*
X243599524Y-64761961D01*
X243599524Y-64761961D02*
X243551905Y-64666723D01*
X243551905Y-64666723D02*
X243504286Y-64476247D01*
X243504286Y-64476247D02*
X243504286Y-64333390D01*
X243504286Y-64333390D02*
X243551905Y-64142914D01*
X243551905Y-64142914D02*
X243599524Y-64047676D01*
X243599524Y-64047676D02*
X243694762Y-63952438D01*
X243694762Y-63952438D02*
X243837619Y-63904819D01*
X243837619Y-63904819D02*
X243932857Y-63904819D01*
X243932857Y-63904819D02*
X244075714Y-63952438D01*
X244075714Y-63952438D02*
X244123333Y-64000057D01*
X244694762Y-64333390D02*
X244599524Y-64285771D01*
X244599524Y-64285771D02*
X244551905Y-64238152D01*
X244551905Y-64238152D02*
X244504286Y-64142914D01*
X244504286Y-64142914D02*
X244504286Y-64095295D01*
X244504286Y-64095295D02*
X244551905Y-64000057D01*
X244551905Y-64000057D02*
X244599524Y-63952438D01*
X244599524Y-63952438D02*
X244694762Y-63904819D01*
X244694762Y-63904819D02*
X244885238Y-63904819D01*
X244885238Y-63904819D02*
X244980476Y-63952438D01*
X244980476Y-63952438D02*
X245028095Y-64000057D01*
X245028095Y-64000057D02*
X245075714Y-64095295D01*
X245075714Y-64095295D02*
X245075714Y-64142914D01*
X245075714Y-64142914D02*
X245028095Y-64238152D01*
X245028095Y-64238152D02*
X244980476Y-64285771D01*
X244980476Y-64285771D02*
X244885238Y-64333390D01*
X244885238Y-64333390D02*
X244694762Y-64333390D01*
X244694762Y-64333390D02*
X244599524Y-64381009D01*
X244599524Y-64381009D02*
X244551905Y-64428628D01*
X244551905Y-64428628D02*
X244504286Y-64523866D01*
X244504286Y-64523866D02*
X244504286Y-64714342D01*
X244504286Y-64714342D02*
X244551905Y-64809580D01*
X244551905Y-64809580D02*
X244599524Y-64857200D01*
X244599524Y-64857200D02*
X244694762Y-64904819D01*
X244694762Y-64904819D02*
X244885238Y-64904819D01*
X244885238Y-64904819D02*
X244980476Y-64857200D01*
X244980476Y-64857200D02*
X245028095Y-64809580D01*
X245028095Y-64809580D02*
X245075714Y-64714342D01*
X245075714Y-64714342D02*
X245075714Y-64523866D01*
X245075714Y-64523866D02*
X245028095Y-64428628D01*
X245028095Y-64428628D02*
X244980476Y-64381009D01*
X244980476Y-64381009D02*
X244885238Y-64333390D01*
X214439580Y-46926666D02*
X214487200Y-46974285D01*
X214487200Y-46974285D02*
X214534819Y-47117142D01*
X214534819Y-47117142D02*
X214534819Y-47212380D01*
X214534819Y-47212380D02*
X214487200Y-47355237D01*
X214487200Y-47355237D02*
X214391961Y-47450475D01*
X214391961Y-47450475D02*
X214296723Y-47498094D01*
X214296723Y-47498094D02*
X214106247Y-47545713D01*
X214106247Y-47545713D02*
X213963390Y-47545713D01*
X213963390Y-47545713D02*
X213772914Y-47498094D01*
X213772914Y-47498094D02*
X213677676Y-47450475D01*
X213677676Y-47450475D02*
X213582438Y-47355237D01*
X213582438Y-47355237D02*
X213534819Y-47212380D01*
X213534819Y-47212380D02*
X213534819Y-47117142D01*
X213534819Y-47117142D02*
X213582438Y-46974285D01*
X213582438Y-46974285D02*
X213630057Y-46926666D01*
X213534819Y-46593332D02*
X213534819Y-45974285D01*
X213534819Y-45974285D02*
X213915771Y-46307618D01*
X213915771Y-46307618D02*
X213915771Y-46164761D01*
X213915771Y-46164761D02*
X213963390Y-46069523D01*
X213963390Y-46069523D02*
X214011009Y-46021904D01*
X214011009Y-46021904D02*
X214106247Y-45974285D01*
X214106247Y-45974285D02*
X214344342Y-45974285D01*
X214344342Y-45974285D02*
X214439580Y-46021904D01*
X214439580Y-46021904D02*
X214487200Y-46069523D01*
X214487200Y-46069523D02*
X214534819Y-46164761D01*
X214534819Y-46164761D02*
X214534819Y-46450475D01*
X214534819Y-46450475D02*
X214487200Y-46545713D01*
X214487200Y-46545713D02*
X214439580Y-46593332D01*
X227076095Y-47206819D02*
X227076095Y-48016342D01*
X227076095Y-48016342D02*
X227123714Y-48111580D01*
X227123714Y-48111580D02*
X227171333Y-48159200D01*
X227171333Y-48159200D02*
X227266571Y-48206819D01*
X227266571Y-48206819D02*
X227457047Y-48206819D01*
X227457047Y-48206819D02*
X227552285Y-48159200D01*
X227552285Y-48159200D02*
X227599904Y-48111580D01*
X227599904Y-48111580D02*
X227647523Y-48016342D01*
X227647523Y-48016342D02*
X227647523Y-47206819D01*
X228552285Y-47540152D02*
X228552285Y-48206819D01*
X228314190Y-47159200D02*
X228076095Y-47873485D01*
X228076095Y-47873485D02*
X228695142Y-47873485D01*
X220393094Y-36179104D02*
X220869284Y-36179104D01*
X220297856Y-36464819D02*
X220631189Y-35464819D01*
X220631189Y-35464819D02*
X220964522Y-36464819D01*
X221297856Y-35798152D02*
X221297856Y-36464819D01*
X221297856Y-35893390D02*
X221345475Y-35845771D01*
X221345475Y-35845771D02*
X221440713Y-35798152D01*
X221440713Y-35798152D02*
X221583570Y-35798152D01*
X221583570Y-35798152D02*
X221678808Y-35845771D01*
X221678808Y-35845771D02*
X221726427Y-35941009D01*
X221726427Y-35941009D02*
X221726427Y-36464819D01*
X222059761Y-35798152D02*
X222440713Y-35798152D01*
X222202618Y-35464819D02*
X222202618Y-36321961D01*
X222202618Y-36321961D02*
X222250237Y-36417200D01*
X222250237Y-36417200D02*
X222345475Y-36464819D01*
X222345475Y-36464819D02*
X222440713Y-36464819D01*
X223154999Y-36417200D02*
X223059761Y-36464819D01*
X223059761Y-36464819D02*
X222869285Y-36464819D01*
X222869285Y-36464819D02*
X222774047Y-36417200D01*
X222774047Y-36417200D02*
X222726428Y-36321961D01*
X222726428Y-36321961D02*
X222726428Y-35941009D01*
X222726428Y-35941009D02*
X222774047Y-35845771D01*
X222774047Y-35845771D02*
X222869285Y-35798152D01*
X222869285Y-35798152D02*
X223059761Y-35798152D01*
X223059761Y-35798152D02*
X223154999Y-35845771D01*
X223154999Y-35845771D02*
X223202618Y-35941009D01*
X223202618Y-35941009D02*
X223202618Y-36036247D01*
X223202618Y-36036247D02*
X222726428Y-36131485D01*
X223631190Y-35798152D02*
X223631190Y-36464819D01*
X223631190Y-35893390D02*
X223678809Y-35845771D01*
X223678809Y-35845771D02*
X223774047Y-35798152D01*
X223774047Y-35798152D02*
X223916904Y-35798152D01*
X223916904Y-35798152D02*
X224012142Y-35845771D01*
X224012142Y-35845771D02*
X224059761Y-35941009D01*
X224059761Y-35941009D02*
X224059761Y-36464819D01*
X224535952Y-35798152D02*
X224535952Y-36464819D01*
X224535952Y-35893390D02*
X224583571Y-35845771D01*
X224583571Y-35845771D02*
X224678809Y-35798152D01*
X224678809Y-35798152D02*
X224821666Y-35798152D01*
X224821666Y-35798152D02*
X224916904Y-35845771D01*
X224916904Y-35845771D02*
X224964523Y-35941009D01*
X224964523Y-35941009D02*
X224964523Y-36464819D01*
X225869285Y-36464819D02*
X225869285Y-35941009D01*
X225869285Y-35941009D02*
X225821666Y-35845771D01*
X225821666Y-35845771D02*
X225726428Y-35798152D01*
X225726428Y-35798152D02*
X225535952Y-35798152D01*
X225535952Y-35798152D02*
X225440714Y-35845771D01*
X225869285Y-36417200D02*
X225774047Y-36464819D01*
X225774047Y-36464819D02*
X225535952Y-36464819D01*
X225535952Y-36464819D02*
X225440714Y-36417200D01*
X225440714Y-36417200D02*
X225393095Y-36321961D01*
X225393095Y-36321961D02*
X225393095Y-36226723D01*
X225393095Y-36226723D02*
X225440714Y-36131485D01*
X225440714Y-36131485D02*
X225535952Y-36083866D01*
X225535952Y-36083866D02*
X225774047Y-36083866D01*
X225774047Y-36083866D02*
X225869285Y-36036247D01*
X227059762Y-36179104D02*
X227535952Y-36179104D01*
X226964524Y-36464819D02*
X227297857Y-35464819D01*
X227297857Y-35464819D02*
X227631190Y-36464819D01*
X227964524Y-36464819D02*
X227964524Y-35798152D01*
X227964524Y-35988628D02*
X228012143Y-35893390D01*
X228012143Y-35893390D02*
X228059762Y-35845771D01*
X228059762Y-35845771D02*
X228155000Y-35798152D01*
X228155000Y-35798152D02*
X228250238Y-35798152D01*
X228964524Y-36417200D02*
X228869286Y-36464819D01*
X228869286Y-36464819D02*
X228678810Y-36464819D01*
X228678810Y-36464819D02*
X228583572Y-36417200D01*
X228583572Y-36417200D02*
X228535953Y-36321961D01*
X228535953Y-36321961D02*
X228535953Y-35941009D01*
X228535953Y-35941009D02*
X228583572Y-35845771D01*
X228583572Y-35845771D02*
X228678810Y-35798152D01*
X228678810Y-35798152D02*
X228869286Y-35798152D01*
X228869286Y-35798152D02*
X228964524Y-35845771D01*
X228964524Y-35845771D02*
X229012143Y-35941009D01*
X229012143Y-35941009D02*
X229012143Y-36036247D01*
X229012143Y-36036247D02*
X228535953Y-36131485D01*
X229869286Y-36464819D02*
X229869286Y-35941009D01*
X229869286Y-35941009D02*
X229821667Y-35845771D01*
X229821667Y-35845771D02*
X229726429Y-35798152D01*
X229726429Y-35798152D02*
X229535953Y-35798152D01*
X229535953Y-35798152D02*
X229440715Y-35845771D01*
X229869286Y-36417200D02*
X229774048Y-36464819D01*
X229774048Y-36464819D02*
X229535953Y-36464819D01*
X229535953Y-36464819D02*
X229440715Y-36417200D01*
X229440715Y-36417200D02*
X229393096Y-36321961D01*
X229393096Y-36321961D02*
X229393096Y-36226723D01*
X229393096Y-36226723D02*
X229440715Y-36131485D01*
X229440715Y-36131485D02*
X229535953Y-36083866D01*
X229535953Y-36083866D02*
X229774048Y-36083866D01*
X229774048Y-36083866D02*
X229869286Y-36036247D01*
X194759580Y-44551666D02*
X194807200Y-44599285D01*
X194807200Y-44599285D02*
X194854819Y-44742142D01*
X194854819Y-44742142D02*
X194854819Y-44837380D01*
X194854819Y-44837380D02*
X194807200Y-44980237D01*
X194807200Y-44980237D02*
X194711961Y-45075475D01*
X194711961Y-45075475D02*
X194616723Y-45123094D01*
X194616723Y-45123094D02*
X194426247Y-45170713D01*
X194426247Y-45170713D02*
X194283390Y-45170713D01*
X194283390Y-45170713D02*
X194092914Y-45123094D01*
X194092914Y-45123094D02*
X193997676Y-45075475D01*
X193997676Y-45075475D02*
X193902438Y-44980237D01*
X193902438Y-44980237D02*
X193854819Y-44837380D01*
X193854819Y-44837380D02*
X193854819Y-44742142D01*
X193854819Y-44742142D02*
X193902438Y-44599285D01*
X193902438Y-44599285D02*
X193950057Y-44551666D01*
X194188152Y-43694523D02*
X194854819Y-43694523D01*
X193807200Y-43932618D02*
X194521485Y-44170713D01*
X194521485Y-44170713D02*
X194521485Y-43551666D01*
X228032319Y-71846904D02*
X228841842Y-71846904D01*
X228841842Y-71846904D02*
X228937080Y-71799285D01*
X228937080Y-71799285D02*
X228984700Y-71751666D01*
X228984700Y-71751666D02*
X229032319Y-71656428D01*
X229032319Y-71656428D02*
X229032319Y-71465952D01*
X229032319Y-71465952D02*
X228984700Y-71370714D01*
X228984700Y-71370714D02*
X228937080Y-71323095D01*
X228937080Y-71323095D02*
X228841842Y-71275476D01*
X228841842Y-71275476D02*
X228032319Y-71275476D01*
X228460890Y-70656428D02*
X228413271Y-70751666D01*
X228413271Y-70751666D02*
X228365652Y-70799285D01*
X228365652Y-70799285D02*
X228270414Y-70846904D01*
X228270414Y-70846904D02*
X228222795Y-70846904D01*
X228222795Y-70846904D02*
X228127557Y-70799285D01*
X228127557Y-70799285D02*
X228079938Y-70751666D01*
X228079938Y-70751666D02*
X228032319Y-70656428D01*
X228032319Y-70656428D02*
X228032319Y-70465952D01*
X228032319Y-70465952D02*
X228079938Y-70370714D01*
X228079938Y-70370714D02*
X228127557Y-70323095D01*
X228127557Y-70323095D02*
X228222795Y-70275476D01*
X228222795Y-70275476D02*
X228270414Y-70275476D01*
X228270414Y-70275476D02*
X228365652Y-70323095D01*
X228365652Y-70323095D02*
X228413271Y-70370714D01*
X228413271Y-70370714D02*
X228460890Y-70465952D01*
X228460890Y-70465952D02*
X228460890Y-70656428D01*
X228460890Y-70656428D02*
X228508509Y-70751666D01*
X228508509Y-70751666D02*
X228556128Y-70799285D01*
X228556128Y-70799285D02*
X228651366Y-70846904D01*
X228651366Y-70846904D02*
X228841842Y-70846904D01*
X228841842Y-70846904D02*
X228937080Y-70799285D01*
X228937080Y-70799285D02*
X228984700Y-70751666D01*
X228984700Y-70751666D02*
X229032319Y-70656428D01*
X229032319Y-70656428D02*
X229032319Y-70465952D01*
X229032319Y-70465952D02*
X228984700Y-70370714D01*
X228984700Y-70370714D02*
X228937080Y-70323095D01*
X228937080Y-70323095D02*
X228841842Y-70275476D01*
X228841842Y-70275476D02*
X228651366Y-70275476D01*
X228651366Y-70275476D02*
X228556128Y-70323095D01*
X228556128Y-70323095D02*
X228508509Y-70370714D01*
X228508509Y-70370714D02*
X228460890Y-70465952D01*
X212654819Y-46876666D02*
X212178628Y-47209999D01*
X212654819Y-47448094D02*
X211654819Y-47448094D01*
X211654819Y-47448094D02*
X211654819Y-47067142D01*
X211654819Y-47067142D02*
X211702438Y-46971904D01*
X211702438Y-46971904D02*
X211750057Y-46924285D01*
X211750057Y-46924285D02*
X211845295Y-46876666D01*
X211845295Y-46876666D02*
X211988152Y-46876666D01*
X211988152Y-46876666D02*
X212083390Y-46924285D01*
X212083390Y-46924285D02*
X212131009Y-46971904D01*
X212131009Y-46971904D02*
X212178628Y-47067142D01*
X212178628Y-47067142D02*
X212178628Y-47448094D01*
X211988152Y-46019523D02*
X212654819Y-46019523D01*
X211607200Y-46257618D02*
X212321485Y-46495713D01*
X212321485Y-46495713D02*
X212321485Y-45876666D01*
X232837142Y-60859580D02*
X232789523Y-60907200D01*
X232789523Y-60907200D02*
X232646666Y-60954819D01*
X232646666Y-60954819D02*
X232551428Y-60954819D01*
X232551428Y-60954819D02*
X232408571Y-60907200D01*
X232408571Y-60907200D02*
X232313333Y-60811961D01*
X232313333Y-60811961D02*
X232265714Y-60716723D01*
X232265714Y-60716723D02*
X232218095Y-60526247D01*
X232218095Y-60526247D02*
X232218095Y-60383390D01*
X232218095Y-60383390D02*
X232265714Y-60192914D01*
X232265714Y-60192914D02*
X232313333Y-60097676D01*
X232313333Y-60097676D02*
X232408571Y-60002438D01*
X232408571Y-60002438D02*
X232551428Y-59954819D01*
X232551428Y-59954819D02*
X232646666Y-59954819D01*
X232646666Y-59954819D02*
X232789523Y-60002438D01*
X232789523Y-60002438D02*
X232837142Y-60050057D01*
X233218095Y-60050057D02*
X233265714Y-60002438D01*
X233265714Y-60002438D02*
X233360952Y-59954819D01*
X233360952Y-59954819D02*
X233599047Y-59954819D01*
X233599047Y-59954819D02*
X233694285Y-60002438D01*
X233694285Y-60002438D02*
X233741904Y-60050057D01*
X233741904Y-60050057D02*
X233789523Y-60145295D01*
X233789523Y-60145295D02*
X233789523Y-60240533D01*
X233789523Y-60240533D02*
X233741904Y-60383390D01*
X233741904Y-60383390D02*
X233170476Y-60954819D01*
X233170476Y-60954819D02*
X233789523Y-60954819D01*
X234741904Y-60954819D02*
X234170476Y-60954819D01*
X234456190Y-60954819D02*
X234456190Y-59954819D01*
X234456190Y-59954819D02*
X234360952Y-60097676D01*
X234360952Y-60097676D02*
X234265714Y-60192914D01*
X234265714Y-60192914D02*
X234170476Y-60240533D01*
X27709905Y-37538819D02*
X27709905Y-36538819D01*
X27709905Y-36538819D02*
X27948000Y-36538819D01*
X27948000Y-36538819D02*
X28090857Y-36586438D01*
X28090857Y-36586438D02*
X28186095Y-36681676D01*
X28186095Y-36681676D02*
X28233714Y-36776914D01*
X28233714Y-36776914D02*
X28281333Y-36967390D01*
X28281333Y-36967390D02*
X28281333Y-37110247D01*
X28281333Y-37110247D02*
X28233714Y-37300723D01*
X28233714Y-37300723D02*
X28186095Y-37395961D01*
X28186095Y-37395961D02*
X28090857Y-37491200D01*
X28090857Y-37491200D02*
X27948000Y-37538819D01*
X27948000Y-37538819D02*
X27709905Y-37538819D01*
X29138476Y-36538819D02*
X28948000Y-36538819D01*
X28948000Y-36538819D02*
X28852762Y-36586438D01*
X28852762Y-36586438D02*
X28805143Y-36634057D01*
X28805143Y-36634057D02*
X28709905Y-36776914D01*
X28709905Y-36776914D02*
X28662286Y-36967390D01*
X28662286Y-36967390D02*
X28662286Y-37348342D01*
X28662286Y-37348342D02*
X28709905Y-37443580D01*
X28709905Y-37443580D02*
X28757524Y-37491200D01*
X28757524Y-37491200D02*
X28852762Y-37538819D01*
X28852762Y-37538819D02*
X29043238Y-37538819D01*
X29043238Y-37538819D02*
X29138476Y-37491200D01*
X29138476Y-37491200D02*
X29186095Y-37443580D01*
X29186095Y-37443580D02*
X29233714Y-37348342D01*
X29233714Y-37348342D02*
X29233714Y-37110247D01*
X29233714Y-37110247D02*
X29186095Y-37015009D01*
X29186095Y-37015009D02*
X29138476Y-36967390D01*
X29138476Y-36967390D02*
X29043238Y-36919771D01*
X29043238Y-36919771D02*
X28852762Y-36919771D01*
X28852762Y-36919771D02*
X28757524Y-36967390D01*
X28757524Y-36967390D02*
X28709905Y-37015009D01*
X28709905Y-37015009D02*
X28662286Y-37110247D01*
X240734819Y-71846904D02*
X241544342Y-71846904D01*
X241544342Y-71846904D02*
X241639580Y-71799285D01*
X241639580Y-71799285D02*
X241687200Y-71751666D01*
X241687200Y-71751666D02*
X241734819Y-71656428D01*
X241734819Y-71656428D02*
X241734819Y-71465952D01*
X241734819Y-71465952D02*
X241687200Y-71370714D01*
X241687200Y-71370714D02*
X241639580Y-71323095D01*
X241639580Y-71323095D02*
X241544342Y-71275476D01*
X241544342Y-71275476D02*
X240734819Y-71275476D01*
X240734819Y-70894523D02*
X240734819Y-70227857D01*
X240734819Y-70227857D02*
X241734819Y-70656428D01*
X45666819Y-38012666D02*
X45190628Y-38345999D01*
X45666819Y-38584094D02*
X44666819Y-38584094D01*
X44666819Y-38584094D02*
X44666819Y-38203142D01*
X44666819Y-38203142D02*
X44714438Y-38107904D01*
X44714438Y-38107904D02*
X44762057Y-38060285D01*
X44762057Y-38060285D02*
X44857295Y-38012666D01*
X44857295Y-38012666D02*
X45000152Y-38012666D01*
X45000152Y-38012666D02*
X45095390Y-38060285D01*
X45095390Y-38060285D02*
X45143009Y-38107904D01*
X45143009Y-38107904D02*
X45190628Y-38203142D01*
X45190628Y-38203142D02*
X45190628Y-38584094D01*
X45095390Y-37441237D02*
X45047771Y-37536475D01*
X45047771Y-37536475D02*
X45000152Y-37584094D01*
X45000152Y-37584094D02*
X44904914Y-37631713D01*
X44904914Y-37631713D02*
X44857295Y-37631713D01*
X44857295Y-37631713D02*
X44762057Y-37584094D01*
X44762057Y-37584094D02*
X44714438Y-37536475D01*
X44714438Y-37536475D02*
X44666819Y-37441237D01*
X44666819Y-37441237D02*
X44666819Y-37250761D01*
X44666819Y-37250761D02*
X44714438Y-37155523D01*
X44714438Y-37155523D02*
X44762057Y-37107904D01*
X44762057Y-37107904D02*
X44857295Y-37060285D01*
X44857295Y-37060285D02*
X44904914Y-37060285D01*
X44904914Y-37060285D02*
X45000152Y-37107904D01*
X45000152Y-37107904D02*
X45047771Y-37155523D01*
X45047771Y-37155523D02*
X45095390Y-37250761D01*
X45095390Y-37250761D02*
X45095390Y-37441237D01*
X45095390Y-37441237D02*
X45143009Y-37536475D01*
X45143009Y-37536475D02*
X45190628Y-37584094D01*
X45190628Y-37584094D02*
X45285866Y-37631713D01*
X45285866Y-37631713D02*
X45476342Y-37631713D01*
X45476342Y-37631713D02*
X45571580Y-37584094D01*
X45571580Y-37584094D02*
X45619200Y-37536475D01*
X45619200Y-37536475D02*
X45666819Y-37441237D01*
X45666819Y-37441237D02*
X45666819Y-37250761D01*
X45666819Y-37250761D02*
X45619200Y-37155523D01*
X45619200Y-37155523D02*
X45571580Y-37107904D01*
X45571580Y-37107904D02*
X45476342Y-37060285D01*
X45476342Y-37060285D02*
X45285866Y-37060285D01*
X45285866Y-37060285D02*
X45190628Y-37107904D01*
X45190628Y-37107904D02*
X45143009Y-37155523D01*
X45143009Y-37155523D02*
X45095390Y-37250761D01*
X202627319Y-72323094D02*
X203436842Y-72323094D01*
X203436842Y-72323094D02*
X203532080Y-72275475D01*
X203532080Y-72275475D02*
X203579700Y-72227856D01*
X203579700Y-72227856D02*
X203627319Y-72132618D01*
X203627319Y-72132618D02*
X203627319Y-71942142D01*
X203627319Y-71942142D02*
X203579700Y-71846904D01*
X203579700Y-71846904D02*
X203532080Y-71799285D01*
X203532080Y-71799285D02*
X203436842Y-71751666D01*
X203436842Y-71751666D02*
X202627319Y-71751666D01*
X203627319Y-70751666D02*
X203627319Y-71323094D01*
X203627319Y-71037380D02*
X202627319Y-71037380D01*
X202627319Y-71037380D02*
X202770176Y-71132618D01*
X202770176Y-71132618D02*
X202865414Y-71227856D01*
X202865414Y-71227856D02*
X202913033Y-71323094D01*
X202627319Y-70132618D02*
X202627319Y-70037380D01*
X202627319Y-70037380D02*
X202674938Y-69942142D01*
X202674938Y-69942142D02*
X202722557Y-69894523D01*
X202722557Y-69894523D02*
X202817795Y-69846904D01*
X202817795Y-69846904D02*
X203008271Y-69799285D01*
X203008271Y-69799285D02*
X203246366Y-69799285D01*
X203246366Y-69799285D02*
X203436842Y-69846904D01*
X203436842Y-69846904D02*
X203532080Y-69894523D01*
X203532080Y-69894523D02*
X203579700Y-69942142D01*
X203579700Y-69942142D02*
X203627319Y-70037380D01*
X203627319Y-70037380D02*
X203627319Y-70132618D01*
X203627319Y-70132618D02*
X203579700Y-70227856D01*
X203579700Y-70227856D02*
X203532080Y-70275475D01*
X203532080Y-70275475D02*
X203436842Y-70323094D01*
X203436842Y-70323094D02*
X203246366Y-70370713D01*
X203246366Y-70370713D02*
X203008271Y-70370713D01*
X203008271Y-70370713D02*
X202817795Y-70323094D01*
X202817795Y-70323094D02*
X202722557Y-70275475D01*
X202722557Y-70275475D02*
X202674938Y-70227856D01*
X202674938Y-70227856D02*
X202627319Y-70132618D01*
X238614819Y-42539285D02*
X238138628Y-42805952D01*
X238614819Y-42996428D02*
X237614819Y-42996428D01*
X237614819Y-42996428D02*
X237614819Y-42691666D01*
X237614819Y-42691666D02*
X237662438Y-42615476D01*
X237662438Y-42615476D02*
X237710057Y-42577381D01*
X237710057Y-42577381D02*
X237805295Y-42539285D01*
X237805295Y-42539285D02*
X237948152Y-42539285D01*
X237948152Y-42539285D02*
X238043390Y-42577381D01*
X238043390Y-42577381D02*
X238091009Y-42615476D01*
X238091009Y-42615476D02*
X238138628Y-42691666D01*
X238138628Y-42691666D02*
X238138628Y-42996428D01*
X237710057Y-42234524D02*
X237662438Y-42196428D01*
X237662438Y-42196428D02*
X237614819Y-42120238D01*
X237614819Y-42120238D02*
X237614819Y-41929762D01*
X237614819Y-41929762D02*
X237662438Y-41853571D01*
X237662438Y-41853571D02*
X237710057Y-41815476D01*
X237710057Y-41815476D02*
X237805295Y-41777381D01*
X237805295Y-41777381D02*
X237900533Y-41777381D01*
X237900533Y-41777381D02*
X238043390Y-41815476D01*
X238043390Y-41815476D02*
X238614819Y-42272619D01*
X238614819Y-42272619D02*
X238614819Y-41777381D01*
X238043390Y-41320238D02*
X237995771Y-41396428D01*
X237995771Y-41396428D02*
X237948152Y-41434523D01*
X237948152Y-41434523D02*
X237852914Y-41472619D01*
X237852914Y-41472619D02*
X237805295Y-41472619D01*
X237805295Y-41472619D02*
X237710057Y-41434523D01*
X237710057Y-41434523D02*
X237662438Y-41396428D01*
X237662438Y-41396428D02*
X237614819Y-41320238D01*
X237614819Y-41320238D02*
X237614819Y-41167857D01*
X237614819Y-41167857D02*
X237662438Y-41091666D01*
X237662438Y-41091666D02*
X237710057Y-41053571D01*
X237710057Y-41053571D02*
X237805295Y-41015476D01*
X237805295Y-41015476D02*
X237852914Y-41015476D01*
X237852914Y-41015476D02*
X237948152Y-41053571D01*
X237948152Y-41053571D02*
X237995771Y-41091666D01*
X237995771Y-41091666D02*
X238043390Y-41167857D01*
X238043390Y-41167857D02*
X238043390Y-41320238D01*
X238043390Y-41320238D02*
X238091009Y-41396428D01*
X238091009Y-41396428D02*
X238138628Y-41434523D01*
X238138628Y-41434523D02*
X238233866Y-41472619D01*
X238233866Y-41472619D02*
X238424342Y-41472619D01*
X238424342Y-41472619D02*
X238519580Y-41434523D01*
X238519580Y-41434523D02*
X238567200Y-41396428D01*
X238567200Y-41396428D02*
X238614819Y-41320238D01*
X238614819Y-41320238D02*
X238614819Y-41167857D01*
X238614819Y-41167857D02*
X238567200Y-41091666D01*
X238567200Y-41091666D02*
X238519580Y-41053571D01*
X238519580Y-41053571D02*
X238424342Y-41015476D01*
X238424342Y-41015476D02*
X238233866Y-41015476D01*
X238233866Y-41015476D02*
X238138628Y-41053571D01*
X238138628Y-41053571D02*
X238091009Y-41091666D01*
X238091009Y-41091666D02*
X238043390Y-41167857D01*
X39444333Y-39671500D02*
X39396714Y-39719120D01*
X39396714Y-39719120D02*
X39253857Y-39766739D01*
X39253857Y-39766739D02*
X39158619Y-39766739D01*
X39158619Y-39766739D02*
X39015762Y-39719120D01*
X39015762Y-39719120D02*
X38920524Y-39623881D01*
X38920524Y-39623881D02*
X38872905Y-39528643D01*
X38872905Y-39528643D02*
X38825286Y-39338167D01*
X38825286Y-39338167D02*
X38825286Y-39195310D01*
X38825286Y-39195310D02*
X38872905Y-39004834D01*
X38872905Y-39004834D02*
X38920524Y-38909596D01*
X38920524Y-38909596D02*
X39015762Y-38814358D01*
X39015762Y-38814358D02*
X39158619Y-38766739D01*
X39158619Y-38766739D02*
X39253857Y-38766739D01*
X39253857Y-38766739D02*
X39396714Y-38814358D01*
X39396714Y-38814358D02*
X39444333Y-38861977D01*
X39777667Y-38766739D02*
X40444333Y-38766739D01*
X40444333Y-38766739D02*
X40015762Y-39766739D01*
X210367380Y-38923276D02*
X210367380Y-39441371D01*
X210367380Y-39441371D02*
X210397857Y-39502323D01*
X210397857Y-39502323D02*
X210428333Y-39532800D01*
X210428333Y-39532800D02*
X210489285Y-39563276D01*
X210489285Y-39563276D02*
X210611190Y-39563276D01*
X210611190Y-39563276D02*
X210672142Y-39532800D01*
X210672142Y-39532800D02*
X210702619Y-39502323D01*
X210702619Y-39502323D02*
X210733095Y-39441371D01*
X210733095Y-39441371D02*
X210733095Y-38923276D01*
X211312142Y-38923276D02*
X211190237Y-38923276D01*
X211190237Y-38923276D02*
X211129285Y-38953752D01*
X211129285Y-38953752D02*
X211098809Y-38984228D01*
X211098809Y-38984228D02*
X211037856Y-39075657D01*
X211037856Y-39075657D02*
X211007380Y-39197561D01*
X211007380Y-39197561D02*
X211007380Y-39441371D01*
X211007380Y-39441371D02*
X211037856Y-39502323D01*
X211037856Y-39502323D02*
X211068333Y-39532800D01*
X211068333Y-39532800D02*
X211129285Y-39563276D01*
X211129285Y-39563276D02*
X211251190Y-39563276D01*
X211251190Y-39563276D02*
X211312142Y-39532800D01*
X211312142Y-39532800D02*
X211342618Y-39502323D01*
X211342618Y-39502323D02*
X211373095Y-39441371D01*
X211373095Y-39441371D02*
X211373095Y-39288990D01*
X211373095Y-39288990D02*
X211342618Y-39228038D01*
X211342618Y-39228038D02*
X211312142Y-39197561D01*
X211312142Y-39197561D02*
X211251190Y-39167085D01*
X211251190Y-39167085D02*
X211129285Y-39167085D01*
X211129285Y-39167085D02*
X211068333Y-39197561D01*
X211068333Y-39197561D02*
X211037856Y-39228038D01*
X211037856Y-39228038D02*
X211007380Y-39288990D01*
D14*
%TO.C,R7*%
X47249258Y-35297500D02*
X46774742Y-35297500D01*
X47249258Y-36342500D02*
X46774742Y-36342500D01*
%TO.C,D1*%
X49035332Y-33165000D02*
X49035332Y-34635000D01*
X49035332Y-34635000D02*
X51320332Y-34635000D01*
X51320332Y-33165000D02*
X49035332Y-33165000D01*
%TO.C,C2*%
X207419420Y-49820000D02*
X207700580Y-49820000D01*
X207419420Y-50840000D02*
X207700580Y-50840000D01*
%TO.C,C22*%
X36939251Y-37336000D02*
X37220411Y-37336000D01*
X36939251Y-38356000D02*
X37220411Y-38356000D01*
%TO.C,C18*%
X205130000Y-39069420D02*
X205130000Y-39350580D01*
X206150000Y-39069420D02*
X206150000Y-39350580D01*
%TO.C,C14*%
X208440000Y-39039420D02*
X208440000Y-39320580D01*
X209460000Y-39039420D02*
X209460000Y-39320580D01*
D15*
%TO.C,CN1*%
X54900000Y-32372500D02*
X54900000Y-33842500D01*
X54900000Y-36302500D02*
X54900000Y-40842500D01*
X54900000Y-43302500D02*
X54900000Y-44572500D01*
X54900000Y-44572500D02*
X59805000Y-44572500D01*
X55400000Y-32372500D02*
X55400000Y-30372500D01*
X60400000Y-30372500D02*
X55400000Y-30372500D01*
X60400000Y-32372500D02*
X60400000Y-30372500D01*
X60900000Y-32372500D02*
X54900000Y-32372500D01*
X60900000Y-32372500D02*
X60900000Y-32842500D01*
X60900000Y-35302500D02*
X60900000Y-36542500D01*
X60900000Y-39002500D02*
X60900000Y-42542500D01*
D14*
%TO.C,C11*%
X219114420Y-65325000D02*
X219395580Y-65325000D01*
X219114420Y-66345000D02*
X219395580Y-66345000D01*
%TO.C,TP4*%
X77188000Y-54102000D02*
G75*
G02*
X73688000Y-54102000I-1750000J0D01*
G01*
X73688000Y-54102000D02*
G75*
G02*
X77188000Y-54102000I1750000J0D01*
G01*
D12*
%TO.C,LS1*%
X22084000Y-58292000D02*
X22084000Y-42292000D01*
X24084000Y-40292000D02*
X50084000Y-40292000D01*
X24084000Y-56292000D02*
X24084000Y-44292000D01*
X26084000Y-42292000D02*
X48084000Y-42292000D01*
X48084000Y-58292000D02*
X26084000Y-58292000D01*
X50084000Y-44292000D02*
X50084000Y-56292000D01*
X50084000Y-60292000D02*
X24084000Y-60292000D01*
X52084000Y-42292000D02*
X52084000Y-58292000D01*
X33084000Y-47292000D02*
X37084000Y-47292000D01*
X37084000Y-53292000D01*
X33084000Y-53292000D01*
X33084000Y-47292000D01*
X22084000Y-42292000D02*
G75*
G02*
X24084000Y-40292000I1999999J1D01*
G01*
X24084000Y-44292000D02*
G75*
G02*
X26084000Y-42292000I1999999J1D01*
G01*
X24084000Y-60292000D02*
G75*
G02*
X22084000Y-58292000I-1J1999999D01*
G01*
X26084000Y-58292000D02*
G75*
G02*
X24084000Y-56292000I-1J1999999D01*
G01*
X39878000Y-47244000D02*
G75*
G02*
X39878000Y-53340000I-6794001J-3048000D01*
G01*
X48084000Y-42292000D02*
G75*
G02*
X50084000Y-44292000I0J-2000000D01*
G01*
X50084000Y-40292000D02*
G75*
G02*
X52084000Y-42292000I0J-2000000D01*
G01*
X50084000Y-56292000D02*
G75*
G02*
X48084000Y-58292000I-2000000J0D01*
G01*
X52084000Y-58292000D02*
G75*
G02*
X50084000Y-60292000I-2000000J0D01*
G01*
X39878000Y-56007000D02*
X37084000Y-53292000D01*
X37084000Y-47292000D01*
X39878000Y-44577000D01*
X39878000Y-56007000D01*
D16*
%TO.C,J1*%
X186560000Y-31370000D02*
X186560000Y-32800000D01*
X186560000Y-36820000D02*
X186560000Y-35140000D01*
X195500000Y-31370000D02*
X186560000Y-31370000D01*
X195500000Y-31370000D02*
X195500000Y-32800000D01*
X195500000Y-36820000D02*
X195500000Y-35140000D01*
D13*
X194330000Y-39970000D02*
G75*
G02*
X194130000Y-39970000I-100000J0D01*
G01*
X194130000Y-39970000D02*
G75*
G02*
X194330000Y-39970000I100000J0D01*
G01*
D14*
%TO.C,C6*%
X203500000Y-39069420D02*
X203500000Y-39350580D01*
X204520000Y-39069420D02*
X204520000Y-39350580D01*
%TO.C,U2*%
X201600000Y-39377500D02*
X200550000Y-39377500D01*
X201600000Y-41697500D02*
X200300000Y-41697500D01*
X200190000Y-39377500D02*
X199910000Y-39377500D01*
X200190000Y-39097500D01*
X200190000Y-39377500D01*
G36*
X200190000Y-39377500D02*
G01*
X199910000Y-39377500D01*
X200190000Y-39097500D01*
X200190000Y-39377500D01*
G37*
D11*
%TO.C,F2*%
X183530000Y-37464000D02*
X183530000Y-36704000D01*
X182510000Y-37714000D02*
X183270000Y-37714000D01*
X182510000Y-36454000D02*
X183270000Y-36454000D01*
X181750000Y-37714000D02*
X180990000Y-37714000D01*
X181750000Y-36454000D02*
X180990000Y-36454000D01*
X180730000Y-37464000D02*
X180730000Y-36704000D01*
D14*
%TO.C,C19*%
X206790000Y-39039420D02*
X206790000Y-39320580D01*
X207810000Y-39039420D02*
X207810000Y-39320580D01*
D15*
%TO.C,CN4*%
X59108000Y-55366000D02*
X59811000Y-55366000D01*
X59108000Y-56496000D02*
X59108000Y-55366000D01*
X59108000Y-57696000D02*
X59108000Y-57346000D01*
X59148000Y-59586000D02*
X59148000Y-58626000D01*
X59811000Y-59586000D02*
X59148000Y-59586000D01*
X63113000Y-59666000D02*
X63318000Y-59666000D01*
X63318000Y-55376000D02*
X63113000Y-55376000D01*
X63318000Y-59666000D02*
X63318000Y-55376000D01*
D14*
%TO.C,D2*%
X40435000Y-33295000D02*
X40435000Y-34765000D01*
X40435000Y-34765000D02*
X42720000Y-34765000D01*
X42720000Y-33295000D02*
X40435000Y-33295000D01*
%TO.C,R30*%
X241137500Y-44952258D02*
X241137500Y-44477742D01*
X242182500Y-44952258D02*
X242182500Y-44477742D01*
%TO.C,R10*%
X182417500Y-39887258D02*
X182417500Y-39412742D01*
X183462500Y-39887258D02*
X183462500Y-39412742D01*
%TO.C,D4*%
X245110000Y-34605000D02*
X247395000Y-34605000D01*
X247395000Y-33135000D02*
X245110000Y-33135000D01*
X247395000Y-34605000D02*
X247395000Y-33135000D01*
%TO.C,U12*%
X189162500Y-41240000D02*
X189162500Y-42290000D01*
X191142500Y-41240000D02*
X191142500Y-42540000D01*
X189162500Y-42940000D02*
X188882500Y-42660000D01*
X189162500Y-42660000D01*
X189162500Y-42940000D01*
G36*
X189162500Y-42940000D02*
G01*
X188882500Y-42660000D01*
X189162500Y-42660000D01*
X189162500Y-42940000D01*
G37*
%TO.C,C13*%
X192614420Y-65325000D02*
X192895580Y-65325000D01*
X192614420Y-66345000D02*
X192895580Y-66345000D01*
%TO.C,R11*%
X244637500Y-36597258D02*
X244637500Y-36122742D01*
X245682500Y-36597258D02*
X245682500Y-36122742D01*
D15*
%TO.C,SW2*%
X207590000Y-32710000D02*
X212190000Y-32710000D01*
X207590000Y-32850000D02*
X207590000Y-32710000D01*
X208890000Y-31510000D02*
X208890000Y-32710000D01*
X208890000Y-31510000D02*
X210890000Y-31510000D01*
X209000000Y-35010000D02*
X210780000Y-35010000D01*
X210890000Y-31510000D02*
X210890000Y-32710000D01*
X212190000Y-32710000D02*
X212190000Y-32850000D01*
D14*
%TO.C,R29*%
X239387500Y-44952258D02*
X239387500Y-44477742D01*
X240432500Y-44952258D02*
X240432500Y-44477742D01*
%TO.C,C15*%
X60532500Y-49402420D02*
X60532500Y-49683580D01*
X61552500Y-49402420D02*
X61552500Y-49683580D01*
%TO.C,U11*%
X191310000Y-71085000D02*
X191310000Y-69135000D01*
X191310000Y-71085000D02*
X191310000Y-73035000D01*
X201430000Y-71085000D02*
X201430000Y-69135000D01*
X201430000Y-71085000D02*
X201430000Y-73035000D01*
X191365000Y-73785000D02*
X191035000Y-74025000D01*
X191035000Y-73545000D01*
X191365000Y-73785000D01*
G36*
X191365000Y-73785000D02*
G01*
X191035000Y-74025000D01*
X191035000Y-73545000D01*
X191365000Y-73785000D01*
G37*
%TO.C,S1*%
D12*
X100530000Y-23590000D02*
X177930000Y-23590000D01*
X177930000Y-77590000D01*
X100530000Y-77590000D01*
X100530000Y-23590000D01*
D14*
%TO.C,D3*%
X46183666Y-34635000D02*
X48468666Y-34635000D01*
X48468666Y-33165000D02*
X46183666Y-33165000D01*
X48468666Y-34635000D02*
X48468666Y-33165000D01*
%TO.C,R1*%
X50294742Y-35297500D02*
X50769258Y-35297500D01*
X50294742Y-36342500D02*
X50769258Y-36342500D01*
%TO.C,C16*%
X213820000Y-41170580D02*
X213820000Y-40889420D01*
X214840000Y-41170580D02*
X214840000Y-40889420D01*
D11*
%TO.C,F1*%
X192150000Y-41415000D02*
X192150000Y-40655000D01*
X192150000Y-42175000D02*
X192150000Y-42935000D01*
X193160000Y-40395000D02*
X192400000Y-40395000D01*
X193160000Y-43195000D02*
X192400000Y-43195000D01*
X193410000Y-41415000D02*
X193410000Y-40655000D01*
X193410000Y-42175000D02*
X193410000Y-42935000D01*
D14*
%TO.C,R5*%
X207777258Y-48017500D02*
X207302742Y-48017500D01*
X207777258Y-49062500D02*
X207302742Y-49062500D01*
D15*
%TO.C,SW1*%
X198340000Y-34145000D02*
X198340000Y-35065000D01*
X198592000Y-33255000D02*
X204688000Y-33255000D01*
X200050000Y-35955000D02*
X200230000Y-35955000D01*
X200340000Y-31255000D02*
X201640000Y-31255000D01*
X200340000Y-33255000D02*
X200340000Y-31255000D01*
X201550000Y-35955000D02*
X203230000Y-35955000D01*
X201640000Y-31255000D02*
X201640000Y-33255000D01*
X204940000Y-34145000D02*
X204940000Y-35065000D01*
%TO.C,Card1*%
X240530000Y-50150000D02*
X240530000Y-49080000D01*
X240530000Y-62780000D02*
X240530000Y-61410000D01*
X246800000Y-49080000D02*
X240530000Y-49080000D01*
X246800000Y-62780000D02*
X240530000Y-62780000D01*
X252130000Y-49080000D02*
X248860000Y-49080000D01*
X252130000Y-51510000D02*
X252130000Y-49080000D01*
X252130000Y-60310000D02*
X252130000Y-62780000D01*
X252130000Y-62780000D02*
X248860000Y-62780000D01*
X252129194Y-60308657D02*
G75*
G02*
X252130000Y-51510000I7330806J4398657D01*
G01*
D14*
%TO.C,Q2*%
X41518000Y-39004000D02*
X41518000Y-37704000D01*
X43318000Y-39004000D02*
X43318000Y-37704000D01*
D11*
X43003000Y-37104000D02*
G75*
G02*
X42853000Y-37104000I-75000J0D01*
G01*
X42853000Y-37104000D02*
G75*
G02*
X43003000Y-37104000I75000J0D01*
G01*
D15*
%TO.C,SW4*%
X238250000Y-32730000D02*
X242850000Y-32730000D01*
X238250000Y-32870000D02*
X238250000Y-32730000D01*
X239550000Y-31530000D02*
X239550000Y-32730000D01*
X239550000Y-31530000D02*
X241550000Y-31530000D01*
X239660000Y-35030000D02*
X241440000Y-35030000D01*
X241550000Y-31530000D02*
X241550000Y-32730000D01*
X242850000Y-32730000D02*
X242850000Y-32870000D01*
D14*
%TO.C,U9*%
X216715000Y-71085000D02*
X216715000Y-69135000D01*
X216715000Y-71085000D02*
X216715000Y-73035000D01*
X226835000Y-71085000D02*
X226835000Y-69135000D01*
X226835000Y-71085000D02*
X226835000Y-73035000D01*
X216770000Y-73785000D02*
X216440000Y-74025000D01*
X216440000Y-73545000D01*
X216770000Y-73785000D01*
G36*
X216770000Y-73785000D02*
G01*
X216440000Y-74025000D01*
X216440000Y-73545000D01*
X216770000Y-73785000D01*
G37*
D15*
%TO.C,CN3*%
X31530000Y-37146000D02*
X31530000Y-36443000D01*
X31540000Y-32936000D02*
X31540000Y-33141000D01*
X32660000Y-37146000D02*
X31530000Y-37146000D01*
X33860000Y-37146000D02*
X33510000Y-37146000D01*
X35750000Y-37106000D02*
X34790000Y-37106000D01*
X35751621Y-36405654D02*
X35750000Y-37106000D01*
X35830000Y-32936000D02*
X31540000Y-32936000D01*
X35830000Y-33141000D02*
X35830000Y-32936000D01*
D16*
%TO.C,QWIIC2*%
X250030000Y-40580000D02*
X252305000Y-40580000D01*
X250030000Y-41380000D02*
X250030000Y-40580000D01*
X250030000Y-45780000D02*
X250030000Y-46580000D01*
X250030000Y-46580000D02*
X252305000Y-46580000D01*
X254280000Y-45380000D02*
X254280000Y-41780000D01*
D17*
X249420000Y-46030000D02*
G75*
G02*
X249220000Y-46030000I-100000J0D01*
G01*
X249220000Y-46030000D02*
G75*
G02*
X249420000Y-46030000I100000J0D01*
G01*
D14*
%TO.C,TP1*%
X74090000Y-50030000D02*
G75*
G02*
X70590000Y-50030000I-1750000J0D01*
G01*
X70590000Y-50030000D02*
G75*
G02*
X74090000Y-50030000I1750000J0D01*
G01*
%TO.C,R6*%
X63580242Y-51436500D02*
X64054758Y-51436500D01*
X63580242Y-52481500D02*
X64054758Y-52481500D01*
%TO.C,C1*%
X197686000Y-40753420D02*
X197686000Y-41034580D01*
X198706000Y-40753420D02*
X198706000Y-41034580D01*
%TO.C,R32*%
X242887500Y-44952258D02*
X242887500Y-44477742D01*
X243932500Y-44952258D02*
X243932500Y-44477742D01*
%TO.C,C10*%
X231364420Y-65325000D02*
X231645580Y-65325000D01*
X231364420Y-66345000D02*
X231645580Y-66345000D01*
%TO.C,R14*%
X47483500Y-38782258D02*
X47483500Y-38307742D01*
X48528500Y-38782258D02*
X48528500Y-38307742D01*
%TO.C,C12*%
X206364420Y-65325000D02*
X206645580Y-65325000D01*
X206364420Y-66345000D02*
X206645580Y-66345000D01*
%TO.C,C23*%
X52587998Y-49067846D02*
X52587998Y-54823409D01*
X52587998Y-54823409D02*
X54937998Y-54823409D01*
X53652435Y-48003409D02*
X52587998Y-49067846D01*
X53652435Y-48003409D02*
X54937998Y-48003409D01*
X57845498Y-46975909D02*
X57845498Y-47763409D01*
X58239248Y-47369659D02*
X57451748Y-47369659D01*
X58343561Y-48003409D02*
X57057998Y-48003409D01*
X58343561Y-48003409D02*
X59407998Y-49067846D01*
X59407998Y-49067846D02*
X59407998Y-54823409D01*
X59407998Y-54823409D02*
X57057998Y-54823409D01*
%TO.C,R2*%
X41672742Y-35357500D02*
X42147258Y-35357500D01*
X41672742Y-36402500D02*
X42147258Y-36402500D01*
%TO.C,C17*%
X212230000Y-41160580D02*
X212230000Y-40879420D01*
X213250000Y-41160580D02*
X213250000Y-40879420D01*
%TO.C,U1*%
X63992500Y-47883000D02*
X63192500Y-47883000D01*
X63992500Y-47883000D02*
X64792500Y-47883000D01*
X63992500Y-51003000D02*
X63192500Y-51003000D01*
X63992500Y-51003000D02*
X64792500Y-51003000D01*
X65532500Y-51283000D02*
X65052500Y-51283000D01*
X65292500Y-50953000D01*
X65532500Y-51283000D01*
G36*
X65532500Y-51283000D02*
G01*
X65052500Y-51283000D01*
X65292500Y-50953000D01*
X65532500Y-51283000D01*
G37*
%TO.C,R12*%
X184197500Y-39867258D02*
X184197500Y-39392742D01*
X185242500Y-39867258D02*
X185242500Y-39392742D01*
%TO.C,R33*%
X244637500Y-44952258D02*
X244637500Y-44477742D01*
X245682500Y-44952258D02*
X245682500Y-44477742D01*
%TO.C,R31*%
X246387500Y-44952258D02*
X246387500Y-44477742D01*
X247432500Y-44952258D02*
X247432500Y-44477742D01*
%TO.C,J2*%
X65250000Y-33640000D02*
X66580000Y-33640000D01*
X65250000Y-34970000D02*
X65250000Y-33640000D01*
X65250000Y-36240000D02*
X67850000Y-36240000D01*
X65250000Y-38840000D02*
X65250000Y-36240000D01*
X65250000Y-38840000D02*
X88230000Y-38840000D01*
X67850000Y-33640000D02*
X88230000Y-33640000D01*
X67850000Y-36240000D02*
X67850000Y-33640000D01*
X88230000Y-38840000D02*
X88230000Y-33640000D01*
%TO.C,C5*%
X66382500Y-49402420D02*
X66382500Y-49683580D01*
X67402500Y-49402420D02*
X67402500Y-49683580D01*
D15*
%TO.C,CN2*%
X198940000Y-42670000D02*
X198940000Y-57350000D01*
X198940000Y-57350000D02*
X200220000Y-57350000D01*
X200220000Y-42670000D02*
X198940000Y-42670000D01*
X204530000Y-42670000D02*
X203880000Y-42670000D01*
X204530000Y-45380000D02*
X204530000Y-42670000D01*
X204530000Y-54640000D02*
X204530000Y-57350000D01*
X204530000Y-57350000D02*
X203880000Y-57350000D01*
X205130000Y-54760000D02*
G75*
G02*
X204870000Y-54760000I-130000J0D01*
G01*
X204870000Y-54760000D02*
G75*
G02*
X205130000Y-54760000I130000J0D01*
G01*
D16*
%TO.C,QWIIC1*%
X91820000Y-37535000D02*
X91820000Y-35260000D01*
X92620000Y-37535000D02*
X91820000Y-37535000D01*
X96620000Y-33285000D02*
X93020000Y-33285000D01*
X97020000Y-37535000D02*
X97820000Y-37535000D01*
X97820000Y-37535000D02*
X97820000Y-35260000D01*
D17*
X97370000Y-38245000D02*
G75*
G02*
X97170000Y-38245000I-100000J0D01*
G01*
X97170000Y-38245000D02*
G75*
G02*
X97370000Y-38245000I100000J0D01*
G01*
D14*
%TO.C,TP2*%
X47180000Y-46550000D02*
G75*
G02*
X43680000Y-46550000I-1750000J0D01*
G01*
X43680000Y-46550000D02*
G75*
G02*
X47180000Y-46550000I1750000J0D01*
G01*
D11*
%TO.C,L2*%
X195926000Y-39594000D02*
X195926000Y-40354000D01*
X195926000Y-39594000D02*
X196086000Y-39434000D01*
X195926000Y-42124000D02*
X195926000Y-41354000D01*
X196086000Y-39434000D02*
X197096000Y-39434000D01*
X196086000Y-42274000D02*
X195926000Y-42124000D01*
X197096000Y-39434000D02*
X197246000Y-39594000D01*
X197096000Y-42274000D02*
X196086000Y-42274000D01*
X197246000Y-39594000D02*
X197246000Y-40354000D01*
X197246000Y-42124000D02*
X197096000Y-42274000D01*
X197246000Y-42124000D02*
X197246000Y-41354000D01*
D14*
%TO.C,C20*%
X210640000Y-41160580D02*
X210640000Y-40879420D01*
X211660000Y-41160580D02*
X211660000Y-40879420D01*
%TO.C,C8*%
X243364420Y-65325000D02*
X243645580Y-65325000D01*
X243364420Y-66345000D02*
X243645580Y-66345000D01*
%TO.C,C3*%
X213420000Y-44119420D02*
X213420000Y-44400580D01*
X214440000Y-44119420D02*
X214440000Y-44400580D01*
%TO.C,U4*%
X216155000Y-33010000D02*
X216155000Y-39760000D01*
X216155000Y-33010000D02*
X234155000Y-33010000D01*
X216155000Y-57760000D02*
X216155000Y-58510000D01*
X216155000Y-58510000D02*
X217155000Y-58510000D01*
X234155000Y-33010000D02*
X234155000Y-39760000D01*
X234155000Y-38950000D02*
X216155000Y-38950000D01*
X234155000Y-57760000D02*
X234155000Y-58510000D01*
X234155000Y-58510000D02*
X233155000Y-58510000D01*
%TO.C,C4*%
X193860000Y-41965580D02*
X193860000Y-41684420D01*
X194880000Y-41965580D02*
X194880000Y-41684420D01*
%TO.C,U8*%
X229417500Y-71085000D02*
X229417500Y-69135000D01*
X229417500Y-71085000D02*
X229417500Y-73035000D01*
X239537500Y-71085000D02*
X239537500Y-69135000D01*
X239537500Y-71085000D02*
X239537500Y-73035000D01*
X229472500Y-73785000D02*
X229142500Y-74025000D01*
X229142500Y-73545000D01*
X229472500Y-73785000D01*
G36*
X229472500Y-73785000D02*
G01*
X229142500Y-74025000D01*
X229142500Y-73545000D01*
X229472500Y-73785000D01*
G37*
%TO.C,TP3*%
X47216000Y-52324000D02*
G75*
G02*
X43716000Y-52324000I-1750000J0D01*
G01*
X43716000Y-52324000D02*
G75*
G02*
X47216000Y-52324000I1750000J0D01*
G01*
%TO.C,R4*%
X211757500Y-44022742D02*
X211757500Y-44497258D01*
X212802500Y-44022742D02*
X212802500Y-44497258D01*
%TO.C,C21*%
X236520580Y-59900000D02*
X236239420Y-59900000D01*
X236520580Y-60920000D02*
X236239420Y-60920000D01*
%TO.C,D6*%
X28870000Y-37758000D02*
X28870000Y-39458000D01*
X28870000Y-37758000D02*
X31530000Y-37758000D01*
X28870000Y-39458000D02*
X31530000Y-39458000D01*
%TO.C,U7*%
X242120000Y-71085000D02*
X242120000Y-69135000D01*
X242120000Y-71085000D02*
X242120000Y-73035000D01*
X252240000Y-71085000D02*
X252240000Y-69135000D01*
X252240000Y-71085000D02*
X252240000Y-73035000D01*
X242175000Y-73785000D02*
X241845000Y-74025000D01*
X241845000Y-73545000D01*
X242175000Y-73785000D01*
G36*
X242175000Y-73785000D02*
G01*
X241845000Y-74025000D01*
X241845000Y-73545000D01*
X242175000Y-73785000D01*
G37*
%TO.C,R8*%
X45959500Y-38782258D02*
X45959500Y-38307742D01*
X47004500Y-38782258D02*
X47004500Y-38307742D01*
%TO.C,U10*%
X204012500Y-71085000D02*
X204012500Y-69135000D01*
X204012500Y-71085000D02*
X204012500Y-73035000D01*
X214132500Y-71085000D02*
X214132500Y-69135000D01*
X214132500Y-71085000D02*
X214132500Y-73035000D01*
X204067500Y-73785000D02*
X203737500Y-74025000D01*
X203737500Y-73545000D01*
X204067500Y-73785000D01*
G36*
X204067500Y-73785000D02*
G01*
X203737500Y-74025000D01*
X203737500Y-73545000D01*
X204067500Y-73785000D01*
G37*
%TO.C,R28*%
X237637500Y-44952258D02*
X237637500Y-44477742D01*
X238682500Y-44952258D02*
X238682500Y-44477742D01*
%TO.C,C7*%
X36943420Y-38801920D02*
X37224580Y-38801920D01*
X36943420Y-39821920D02*
X37224580Y-39821920D01*
D13*
%TO.C,U6*%
X212185000Y-38465000D02*
G75*
G02*
X211985000Y-38465000I-100000J0D01*
G01*
X211985000Y-38465000D02*
G75*
G02*
X212185000Y-38465000I100000J0D01*
G01*
%TD*%
M02*
