%TF.GenerationSoftware,KiCad,Pcbnew,8.0.3*%
%TF.CreationDate,2024-09-07T19:32:27+01:00*%
%TF.ProjectId,esp32-s3-spectrum,65737033-322d-4733-932d-737065637472,rev?*%
%TF.SameCoordinates,Original*%
%TF.FileFunction,Paste,Top*%
%TF.FilePolarity,Positive*%
%FSLAX46Y46*%
G04 Gerber Fmt 4.6, Leading zero omitted, Abs format (unit mm)*
G04 Created by KiCad (PCBNEW 8.0.3) date 2024-09-07 19:32:27*
%MOMM*%
%LPD*%
G01*
G04 APERTURE LIST*
G04 Aperture macros list*
%AMRoundRect*
0 Rectangle with rounded corners*
0 $1 Rounding radius*
0 $2 $3 $4 $5 $6 $7 $8 $9 X,Y pos of 4 corners*
0 Add a 4 corners polygon primitive as box body*
4,1,4,$2,$3,$4,$5,$6,$7,$8,$9,$2,$3,0*
0 Add four circle primitives for the rounded corners*
1,1,$1+$1,$2,$3*
1,1,$1+$1,$4,$5*
1,1,$1+$1,$6,$7*
1,1,$1+$1,$8,$9*
0 Add four rect primitives between the rounded corners*
20,1,$1+$1,$2,$3,$4,$5,0*
20,1,$1+$1,$4,$5,$6,$7,0*
20,1,$1+$1,$6,$7,$8,$9,0*
20,1,$1+$1,$8,$9,$2,$3,0*%
%AMRotRect*
0 Rectangle, with rotation*
0 The origin of the aperture is its center*
0 $1 length*
0 $2 width*
0 $3 Rotation angle, in degrees counterclockwise*
0 Add horizontal line*
21,1,$1,$2,0,0,$3*%
G04 Aperture macros list end*
%ADD10C,0.010000*%
%ADD11RoundRect,0.200000X0.200000X0.275000X-0.200000X0.275000X-0.200000X-0.275000X0.200000X-0.275000X0*%
%ADD12RoundRect,0.218750X-0.218750X-0.256250X0.218750X-0.256250X0.218750X0.256250X-0.218750X0.256250X0*%
%ADD13RoundRect,0.225000X-0.225000X-0.250000X0.225000X-0.250000X0.225000X0.250000X-0.225000X0.250000X0*%
%ADD14RoundRect,0.225000X-0.250000X0.225000X-0.250000X-0.225000X0.250000X-0.225000X0.250000X0.225000X0*%
%ADD15R,3.200000X2.000000*%
%ADD16R,0.600000X1.140000*%
%ADD17R,0.300000X1.140000*%
%ADD18RoundRect,0.050000X-0.285000X-0.100000X0.285000X-0.100000X0.285000X0.100000X-0.285000X0.100000X0*%
%ADD19R,0.810000X0.860000*%
%ADD20R,1.600000X0.500000*%
%ADD21R,3.000000X2.000000*%
%ADD22RoundRect,0.200000X0.275000X-0.200000X0.275000X0.200000X-0.275000X0.200000X-0.275000X-0.200000X0*%
%ADD23RoundRect,0.218750X0.218750X0.256250X-0.218750X0.256250X-0.218750X-0.256250X0.218750X-0.256250X0*%
%ADD24RoundRect,0.093750X0.093750X-0.156250X0.093750X0.156250X-0.093750X0.156250X-0.093750X-0.156250X0*%
%ADD25RoundRect,0.075000X0.075000X-0.250000X0.075000X0.250000X-0.075000X0.250000X-0.075000X-0.250000X0*%
%ADD26R,0.900000X1.200000*%
%ADD27R,1.200000X1.300000*%
%ADD28RoundRect,0.150000X0.150000X-0.825000X0.150000X0.825000X-0.150000X0.825000X-0.150000X-0.825000X0*%
%ADD29RoundRect,0.200000X-0.200000X-0.275000X0.200000X-0.275000X0.200000X0.275000X-0.200000X0.275000X0*%
%ADD30RoundRect,0.225000X0.250000X-0.225000X0.250000X0.225000X-0.250000X0.225000X-0.250000X-0.225000X0*%
%ADD31R,0.860000X0.810000*%
%ADD32R,0.900000X2.000000*%
%ADD33R,1.100000X0.930000*%
%ADD34R,1.300000X0.800000*%
%ADD35R,1.600000X1.300000*%
%ADD36RoundRect,0.100000X0.100000X-0.155000X0.100000X0.155000X-0.100000X0.155000X-0.100000X-0.155000X0*%
%ADD37R,0.500000X1.600000*%
%ADD38R,2.000000X3.000000*%
%ADD39R,1.550000X0.600000*%
%ADD40R,1.800000X1.200000*%
%ADD41RoundRect,0.250000X-0.550000X1.500000X-0.550000X-1.500000X0.550000X-1.500000X0.550000X1.500000X0*%
%ADD42RoundRect,0.150000X0.512500X0.150000X-0.512500X0.150000X-0.512500X-0.150000X0.512500X-0.150000X0*%
%ADD43R,1.800000X0.300000*%
%ADD44R,3.200000X2.500000*%
%ADD45R,0.600000X1.550000*%
%ADD46R,1.200000X1.800000*%
%ADD47R,0.860000X0.800000*%
%ADD48R,1.500000X0.900000*%
%ADD49R,0.900000X1.500000*%
%ADD50R,0.900000X0.900000*%
%ADD51RoundRect,0.200000X-0.275000X0.200000X-0.275000X-0.200000X0.275000X-0.200000X0.275000X0.200000X0*%
%ADD52RoundRect,0.225000X0.225000X0.250000X-0.225000X0.250000X-0.225000X-0.250000X0.225000X-0.250000X0*%
%ADD53RoundRect,0.112500X-0.187500X-0.112500X0.187500X-0.112500X0.187500X0.112500X-0.187500X0.112500X0*%
%ADD54RotRect,0.520000X0.520000X225.000000*%
G04 APERTURE END LIST*
D10*
%TO.C,U6*%
X210625000Y-37770000D02*
X210475000Y-37920000D01*
X210235000Y-37920000D01*
X210235000Y-37660000D01*
X210625000Y-37660000D01*
X210625000Y-37770000D01*
G36*
X210625000Y-37770000D02*
G01*
X210475000Y-37920000D01*
X210235000Y-37920000D01*
X210235000Y-37660000D01*
X210625000Y-37660000D01*
X210625000Y-37770000D01*
G37*
X210625000Y-38460000D02*
X210625000Y-38570000D01*
X210235000Y-38570000D01*
X210235000Y-38310000D01*
X210475000Y-38310000D01*
X210625000Y-38460000D01*
G36*
X210625000Y-38460000D02*
G01*
X210625000Y-38570000D01*
X210235000Y-38570000D01*
X210235000Y-38310000D01*
X210475000Y-38310000D01*
X210625000Y-38460000D01*
G37*
X211435000Y-37920000D02*
X211195000Y-37920000D01*
X211045000Y-37770000D01*
X211045000Y-37660000D01*
X211435000Y-37660000D01*
X211435000Y-37920000D01*
G36*
X211435000Y-37920000D02*
G01*
X211195000Y-37920000D01*
X211045000Y-37770000D01*
X211045000Y-37660000D01*
X211435000Y-37660000D01*
X211435000Y-37920000D01*
G37*
X211435000Y-38570000D02*
X211045000Y-38570000D01*
X211045000Y-38460000D01*
X211195000Y-38310000D01*
X211435000Y-38310000D01*
X211435000Y-38570000D01*
G36*
X211435000Y-38570000D02*
G01*
X211045000Y-38570000D01*
X211045000Y-38460000D01*
X211195000Y-38310000D01*
X211435000Y-38310000D01*
X211435000Y-38570000D01*
G37*
%TD*%
D11*
%TO.C,R7*%
X47837000Y-35820000D03*
X46187000Y-35820000D03*
%TD*%
D12*
%TO.C,D1*%
X49732832Y-33900000D03*
X51307832Y-33900000D03*
%TD*%
D13*
%TO.C,C2*%
X206785000Y-50330000D03*
X208335000Y-50330000D03*
%TD*%
%TO.C,C22*%
X36304831Y-37846000D03*
X37854831Y-37846000D03*
%TD*%
D14*
%TO.C,C18*%
X205640000Y-38435000D03*
X205640000Y-39985000D03*
%TD*%
%TO.C,C14*%
X208950000Y-38405000D03*
X208950000Y-39955000D03*
%TD*%
D15*
%TO.C,CN1*%
X61700000Y-34072500D03*
X54100000Y-35072500D03*
X61700000Y-37772500D03*
X54100000Y-42072500D03*
X61700000Y-43772500D03*
%TD*%
D13*
%TO.C,C11*%
X218480000Y-65835000D03*
X220030000Y-65835000D03*
%TD*%
D16*
%TO.C,J1*%
X194230000Y-38720000D03*
X193430000Y-38720000D03*
D17*
X192280000Y-38720000D03*
X191280000Y-38720000D03*
X190780000Y-38720000D03*
X189780000Y-38720000D03*
D16*
X187830000Y-38720000D03*
X188630000Y-38720000D03*
D17*
X189280000Y-38720000D03*
X190280000Y-38720000D03*
X191780000Y-38720000D03*
X192780000Y-38720000D03*
%TD*%
D14*
%TO.C,C6*%
X204010000Y-38435000D03*
X204010000Y-39985000D03*
%TD*%
D18*
%TO.C,U2*%
X200210000Y-39787500D03*
X200210000Y-40287500D03*
X200210000Y-40787500D03*
X200210000Y-41287500D03*
X201690000Y-41287500D03*
X201690000Y-40787500D03*
X201690000Y-40287500D03*
X201690000Y-39787500D03*
%TD*%
D19*
%TO.C,F2*%
X182880000Y-37084000D03*
X181380000Y-37084000D03*
%TD*%
D14*
%TO.C,C19*%
X207300000Y-38405000D03*
X207300000Y-39955000D03*
%TD*%
D20*
%TO.C,CN4*%
X58408000Y-58126000D03*
X58408000Y-56886000D03*
D21*
X61468000Y-54306000D03*
X61468000Y-60706000D03*
%TD*%
D12*
%TO.C,D2*%
X41132500Y-34030000D03*
X42707500Y-34030000D03*
%TD*%
D22*
%TO.C,R30*%
X241660000Y-45540000D03*
X241660000Y-43890000D03*
%TD*%
%TO.C,R10*%
X182940000Y-40475000D03*
X182940000Y-38825000D03*
%TD*%
D23*
%TO.C,D4*%
X246697500Y-33870000D03*
X245122500Y-33870000D03*
%TD*%
D24*
%TO.C,U12*%
X189615000Y-42740000D03*
D25*
X190152500Y-42815000D03*
D24*
X190690000Y-42740000D03*
X190690000Y-41040000D03*
D25*
X190152500Y-40965000D03*
D24*
X189615000Y-41040000D03*
%TD*%
D13*
%TO.C,C13*%
X191980000Y-65835000D03*
X193530000Y-65835000D03*
%TD*%
D22*
%TO.C,R11*%
X245160000Y-37185000D03*
X245160000Y-35535000D03*
%TD*%
D26*
%TO.C,SW2*%
X207590000Y-33610000D03*
X212190000Y-33610000D03*
D27*
X208220000Y-35150000D03*
X211570000Y-35150000D03*
%TD*%
D22*
%TO.C,R29*%
X239910000Y-45540000D03*
X239910000Y-43890000D03*
%TD*%
D14*
%TO.C,C15*%
X61042500Y-48768000D03*
X61042500Y-50318000D03*
%TD*%
D28*
%TO.C,U11*%
X191925000Y-73560000D03*
X193195000Y-73560000D03*
X194465000Y-73560000D03*
X195735000Y-73560000D03*
X197005000Y-73560000D03*
X198275000Y-73560000D03*
X199545000Y-73560000D03*
X200815000Y-73560000D03*
X200815000Y-68610000D03*
X199545000Y-68610000D03*
X198275000Y-68610000D03*
X197005000Y-68610000D03*
X195735000Y-68610000D03*
X194465000Y-68610000D03*
X193195000Y-68610000D03*
X191925000Y-68610000D03*
%TD*%
D23*
%TO.C,D3*%
X47771166Y-33900000D03*
X46196166Y-33900000D03*
%TD*%
D29*
%TO.C,R1*%
X49707000Y-35820000D03*
X51357000Y-35820000D03*
%TD*%
D30*
%TO.C,C16*%
X214330000Y-41805000D03*
X214330000Y-40255000D03*
%TD*%
D31*
%TO.C,F1*%
X192780000Y-41045000D03*
X192780000Y-42545000D03*
%TD*%
D11*
%TO.C,R5*%
X208365000Y-48540000D03*
X206715000Y-48540000D03*
%TD*%
D32*
%TO.C,SW1*%
X203890000Y-36455000D03*
X200890000Y-36455000D03*
X199390000Y-36455000D03*
D33*
X197840000Y-35745000D03*
X197840000Y-33475000D03*
X205440000Y-33475000D03*
X205440000Y-35745000D03*
%TD*%
D34*
%TO.C,Card1*%
X239880000Y-53080000D03*
X239880000Y-54180000D03*
X239880000Y-55280000D03*
X239880000Y-56380000D03*
X239880000Y-57480000D03*
X239880000Y-58580000D03*
X239880000Y-59680000D03*
X239880000Y-60780000D03*
D35*
X247820000Y-48630000D03*
X247820000Y-63230000D03*
D34*
X239880000Y-51980000D03*
X239880000Y-50780000D03*
%TD*%
D36*
%TO.C,Q2*%
X42918000Y-37709000D03*
X41918000Y-37709000D03*
X42418000Y-38999000D03*
%TD*%
D26*
%TO.C,SW4*%
X238250000Y-33630000D03*
X242850000Y-33630000D03*
D27*
X238880000Y-35170000D03*
X242230000Y-35170000D03*
%TD*%
D28*
%TO.C,U9*%
X217330000Y-73560000D03*
X218600000Y-73560000D03*
X219870000Y-73560000D03*
X221140000Y-73560000D03*
X222410000Y-73560000D03*
X223680000Y-73560000D03*
X224950000Y-73560000D03*
X226220000Y-73560000D03*
X226220000Y-68610000D03*
X224950000Y-68610000D03*
X223680000Y-68610000D03*
X222410000Y-68610000D03*
X221140000Y-68610000D03*
X219870000Y-68610000D03*
X218600000Y-68610000D03*
X217330000Y-68610000D03*
%TD*%
D37*
%TO.C,CN3*%
X34290000Y-37846000D03*
X33050000Y-37846000D03*
D38*
X30470000Y-34786000D03*
X36870000Y-34786000D03*
%TD*%
D39*
%TO.C,QWIIC2*%
X249705000Y-45080000D03*
X249705000Y-44080000D03*
X249705000Y-43080000D03*
X249705000Y-42080000D03*
D40*
X253580000Y-46380000D03*
X253580000Y-40780000D03*
%TD*%
D29*
%TO.C,R6*%
X62992500Y-51959000D03*
X64642500Y-51959000D03*
%TD*%
D14*
%TO.C,C1*%
X198196000Y-40119000D03*
X198196000Y-41669000D03*
%TD*%
D22*
%TO.C,R32*%
X243410000Y-45540000D03*
X243410000Y-43890000D03*
%TD*%
D13*
%TO.C,C10*%
X230730000Y-65835000D03*
X232280000Y-65835000D03*
%TD*%
D22*
%TO.C,R14*%
X48006000Y-39370000D03*
X48006000Y-37720000D03*
%TD*%
D13*
%TO.C,C12*%
X205730000Y-65835000D03*
X207280000Y-65835000D03*
%TD*%
D41*
%TO.C,C23*%
X55997998Y-48713409D03*
X55997998Y-54113409D03*
%TD*%
D29*
%TO.C,R2*%
X41085000Y-35880000D03*
X42735000Y-35880000D03*
%TD*%
D30*
%TO.C,C17*%
X212740000Y-41795000D03*
X212740000Y-40245000D03*
%TD*%
D42*
%TO.C,U1*%
X65130000Y-50393000D03*
X65130000Y-49443000D03*
X65130000Y-48493000D03*
X62855000Y-48493000D03*
X62855000Y-49443000D03*
X62855000Y-50393000D03*
%TD*%
D22*
%TO.C,R12*%
X184720000Y-40455000D03*
X184720000Y-38805000D03*
%TD*%
%TO.C,R33*%
X245160000Y-45540000D03*
X245160000Y-43890000D03*
%TD*%
%TO.C,R31*%
X246910000Y-45540000D03*
X246910000Y-43890000D03*
%TD*%
D14*
%TO.C,C5*%
X66892500Y-48768000D03*
X66892500Y-50318000D03*
%TD*%
D43*
%TO.C,CN2*%
X203950000Y-54260000D03*
X203950000Y-53760000D03*
X203950000Y-53260000D03*
X203950000Y-52760000D03*
X203950000Y-52260000D03*
X203950000Y-51760000D03*
X203950000Y-51260000D03*
X203950000Y-50760000D03*
X203950000Y-50260000D03*
X203950000Y-49760000D03*
X203950000Y-49260000D03*
X203950000Y-48760000D03*
X203950000Y-48260000D03*
X203950000Y-47760000D03*
X203950000Y-47260000D03*
X203950000Y-46760000D03*
X203950000Y-46260000D03*
X203950000Y-45760000D03*
D44*
X202050000Y-43810000D03*
X202050000Y-56210000D03*
%TD*%
D45*
%TO.C,QWIIC1*%
X96320000Y-37860000D03*
X95320000Y-37860000D03*
X94320000Y-37860000D03*
X93320000Y-37860000D03*
D46*
X97620000Y-33985000D03*
X92020000Y-33985000D03*
%TD*%
D47*
%TO.C,L2*%
X196596000Y-41544000D03*
X196596000Y-40144000D03*
%TD*%
D30*
%TO.C,C20*%
X211150000Y-41795000D03*
X211150000Y-40245000D03*
%TD*%
D13*
%TO.C,C8*%
X242730000Y-65835000D03*
X244280000Y-65835000D03*
%TD*%
D14*
%TO.C,C3*%
X213930000Y-43485000D03*
X213930000Y-45035000D03*
%TD*%
D48*
%TO.C,U4*%
X216405000Y-40500000D03*
X216405000Y-41770000D03*
X216405000Y-43040000D03*
X216405000Y-44310000D03*
X216405000Y-45580000D03*
X216405000Y-46850000D03*
X216405000Y-48120000D03*
X216405000Y-49390000D03*
X216405000Y-50660000D03*
X216405000Y-51930000D03*
X216405000Y-53200000D03*
X216405000Y-54470000D03*
X216405000Y-55740000D03*
X216405000Y-57010000D03*
D49*
X218170000Y-58260000D03*
X219440000Y-58260000D03*
X220710000Y-58260000D03*
X221980000Y-58260000D03*
X223250000Y-58260000D03*
X224520000Y-58260000D03*
X225790000Y-58260000D03*
X227060000Y-58260000D03*
X228330000Y-58260000D03*
X229600000Y-58260000D03*
X230870000Y-58260000D03*
X232140000Y-58260000D03*
D48*
X233905000Y-57010000D03*
X233905000Y-55740000D03*
X233905000Y-54470000D03*
X233905000Y-53200000D03*
X233905000Y-51930000D03*
X233905000Y-50660000D03*
X233905000Y-49390000D03*
X233905000Y-48120000D03*
X233905000Y-46850000D03*
X233905000Y-45580000D03*
X233905000Y-44310000D03*
X233905000Y-43040000D03*
X233905000Y-41770000D03*
X233905000Y-40500000D03*
D50*
X222255000Y-46820000D03*
X222255000Y-48220000D03*
X222255000Y-49620000D03*
X222255000Y-49620000D03*
X223655000Y-46820000D03*
X223655000Y-46820000D03*
X223655000Y-48220000D03*
X223655000Y-49620000D03*
X225055000Y-46820000D03*
X225055000Y-48220000D03*
X225055000Y-49620000D03*
%TD*%
D30*
%TO.C,C4*%
X194370000Y-42600000D03*
X194370000Y-41050000D03*
%TD*%
D28*
%TO.C,U8*%
X230032500Y-73560000D03*
X231302500Y-73560000D03*
X232572500Y-73560000D03*
X233842500Y-73560000D03*
X235112500Y-73560000D03*
X236382500Y-73560000D03*
X237652500Y-73560000D03*
X238922500Y-73560000D03*
X238922500Y-68610000D03*
X237652500Y-68610000D03*
X236382500Y-68610000D03*
X235112500Y-68610000D03*
X233842500Y-68610000D03*
X232572500Y-68610000D03*
X231302500Y-68610000D03*
X230032500Y-68610000D03*
%TD*%
D51*
%TO.C,R4*%
X212280000Y-43435000D03*
X212280000Y-45085000D03*
%TD*%
D52*
%TO.C,C21*%
X237155000Y-60410000D03*
X235605000Y-60410000D03*
%TD*%
D53*
%TO.C,D6*%
X29430000Y-38608000D03*
X31530000Y-38608000D03*
%TD*%
D28*
%TO.C,U7*%
X242735000Y-73560000D03*
X244005000Y-73560000D03*
X245275000Y-73560000D03*
X246545000Y-73560000D03*
X247815000Y-73560000D03*
X249085000Y-73560000D03*
X250355000Y-73560000D03*
X251625000Y-73560000D03*
X251625000Y-68610000D03*
X250355000Y-68610000D03*
X249085000Y-68610000D03*
X247815000Y-68610000D03*
X246545000Y-68610000D03*
X245275000Y-68610000D03*
X244005000Y-68610000D03*
X242735000Y-68610000D03*
%TD*%
D22*
%TO.C,R8*%
X46482000Y-39370000D03*
X46482000Y-37720000D03*
%TD*%
D28*
%TO.C,U10*%
X204627500Y-73560000D03*
X205897500Y-73560000D03*
X207167500Y-73560000D03*
X208437500Y-73560000D03*
X209707500Y-73560000D03*
X210977500Y-73560000D03*
X212247500Y-73560000D03*
X213517500Y-73560000D03*
X213517500Y-68610000D03*
X212247500Y-68610000D03*
X210977500Y-68610000D03*
X209707500Y-68610000D03*
X208437500Y-68610000D03*
X207167500Y-68610000D03*
X205897500Y-68610000D03*
X204627500Y-68610000D03*
%TD*%
D22*
%TO.C,R28*%
X238160000Y-45540000D03*
X238160000Y-43890000D03*
%TD*%
D13*
%TO.C,C7*%
X36309000Y-39311920D03*
X37859000Y-39311920D03*
%TD*%
D54*
%TO.C,U6*%
X210835000Y-38115000D03*
%TD*%
M02*
