%TF.GenerationSoftware,KiCad,Pcbnew,8.0.3*%
%TF.CreationDate,2024-08-27T21:26:44+01:00*%
%TF.ProjectId,esp32-s3-spectrum,65737033-322d-4733-932d-737065637472,rev?*%
%TF.SameCoordinates,Original*%
%TF.FileFunction,Legend,Top*%
%TF.FilePolarity,Positive*%
%FSLAX46Y46*%
G04 Gerber Fmt 4.6, Leading zero omitted, Abs format (unit mm)*
G04 Created by KiCad (PCBNEW 8.0.3) date 2024-08-27 21:26:44*
%MOMM*%
%LPD*%
G01*
G04 APERTURE LIST*
%ADD10C,0.150000*%
%ADD11C,1.200000*%
%ADD12C,0.100000*%
%ADD13C,0.200000*%
%ADD14C,0.120000*%
%ADD15C,0.250000*%
%ADD16C,0.127000*%
%ADD17C,0.300000*%
G04 APERTURE END LIST*
D10*
X35481541Y-36889819D02*
X36100588Y-36889819D01*
X36100588Y-36889819D02*
X35767255Y-37270771D01*
X35767255Y-37270771D02*
X35910112Y-37270771D01*
X35910112Y-37270771D02*
X36005350Y-37318390D01*
X36005350Y-37318390D02*
X36052969Y-37366009D01*
X36052969Y-37366009D02*
X36100588Y-37461247D01*
X36100588Y-37461247D02*
X36100588Y-37699342D01*
X36100588Y-37699342D02*
X36052969Y-37794580D01*
X36052969Y-37794580D02*
X36005350Y-37842200D01*
X36005350Y-37842200D02*
X35910112Y-37889819D01*
X35910112Y-37889819D02*
X35624398Y-37889819D01*
X35624398Y-37889819D02*
X35529160Y-37842200D01*
X35529160Y-37842200D02*
X35481541Y-37794580D01*
X36386303Y-36889819D02*
X36719636Y-37889819D01*
X36719636Y-37889819D02*
X37052969Y-36889819D01*
X37291065Y-36889819D02*
X37910112Y-36889819D01*
X37910112Y-36889819D02*
X37576779Y-37270771D01*
X37576779Y-37270771D02*
X37719636Y-37270771D01*
X37719636Y-37270771D02*
X37814874Y-37318390D01*
X37814874Y-37318390D02*
X37862493Y-37366009D01*
X37862493Y-37366009D02*
X37910112Y-37461247D01*
X37910112Y-37461247D02*
X37910112Y-37699342D01*
X37910112Y-37699342D02*
X37862493Y-37794580D01*
X37862493Y-37794580D02*
X37814874Y-37842200D01*
X37814874Y-37842200D02*
X37719636Y-37889819D01*
X37719636Y-37889819D02*
X37433922Y-37889819D01*
X37433922Y-37889819D02*
X37338684Y-37842200D01*
X37338684Y-37842200D02*
X37291065Y-37794580D01*
D11*
G36*
X30701179Y-72006218D02*
G01*
X27751214Y-72006218D01*
X27751214Y-73756951D01*
X31114438Y-73756951D01*
X31114438Y-75070001D01*
X26509972Y-75070001D01*
X26509972Y-67957649D01*
X30964961Y-67957649D01*
X30964961Y-69161278D01*
X27751214Y-69161278D01*
X27751214Y-70802589D01*
X30701179Y-70802589D01*
X30701179Y-72006218D01*
G37*
G36*
X34275429Y-74085213D02*
G01*
X34588945Y-74068864D01*
X34894287Y-74008464D01*
X35005226Y-73968954D01*
X35285753Y-73791405D01*
X35474329Y-73509323D01*
X35536668Y-73173995D01*
X35537187Y-73136330D01*
X35462741Y-72803843D01*
X35273405Y-72585807D01*
X34985093Y-72428260D01*
X34677884Y-72316412D01*
X34445422Y-72250705D01*
X33802086Y-72079735D01*
X33467137Y-71983344D01*
X33173405Y-71883948D01*
X32882809Y-71764187D01*
X32591618Y-71604198D01*
X32491967Y-71530922D01*
X32252713Y-71286503D01*
X32072223Y-70988579D01*
X31950497Y-70637151D01*
X31892932Y-70293341D01*
X31877941Y-69976804D01*
X31898806Y-69627264D01*
X31975893Y-69248335D01*
X32109781Y-68900495D01*
X32300469Y-68583743D01*
X32471451Y-68376525D01*
X32713543Y-68159801D01*
X32994688Y-67987916D01*
X33314885Y-67860870D01*
X33611547Y-67789252D01*
X33935328Y-67748772D01*
X34213879Y-67738807D01*
X34507357Y-67752999D01*
X34841207Y-67807496D01*
X35155066Y-67902865D01*
X35448936Y-68039107D01*
X35722817Y-68216221D01*
X35852260Y-68320105D01*
X36083980Y-68556805D01*
X36270259Y-68832214D01*
X36411098Y-69146331D01*
X36506495Y-69499157D01*
X36556453Y-69890692D01*
X36563007Y-70029805D01*
X35343747Y-70029805D01*
X35282610Y-69666227D01*
X35122795Y-69349598D01*
X34866008Y-69120245D01*
X34578217Y-68998696D01*
X34287782Y-68948687D01*
X34127418Y-68942436D01*
X33814116Y-68970113D01*
X33525261Y-69063439D01*
X33344863Y-69176665D01*
X33134490Y-69437202D01*
X33052917Y-69779635D01*
X33051772Y-69831480D01*
X33123946Y-70168718D01*
X33340467Y-70407649D01*
X33631360Y-70546562D01*
X33919586Y-70644235D01*
X34131814Y-70706846D01*
X35178150Y-71004334D01*
X35463286Y-71095987D01*
X35749485Y-71216360D01*
X36020880Y-71371706D01*
X36217159Y-71527502D01*
X36429005Y-71771418D01*
X36588819Y-72058858D01*
X36696600Y-72389822D01*
X36752349Y-72764310D01*
X36760844Y-72997844D01*
X36738433Y-73356060D01*
X36671199Y-73690834D01*
X36536109Y-74051776D01*
X36371761Y-74335760D01*
X36162590Y-74596302D01*
X36123370Y-74637446D01*
X35866371Y-74858819D01*
X35572381Y-75034391D01*
X35241400Y-75164161D01*
X34937324Y-75237316D01*
X34607561Y-75278664D01*
X34325254Y-75288842D01*
X33966689Y-75273440D01*
X33632883Y-75227233D01*
X33323835Y-75150221D01*
X33039545Y-75042405D01*
X32731077Y-74872363D01*
X32458262Y-74657963D01*
X32227178Y-74404673D01*
X32043904Y-74117965D01*
X31908441Y-73797837D01*
X31820788Y-73444290D01*
X31780946Y-73057323D01*
X31778290Y-72920908D01*
X32990223Y-72920908D01*
X33055283Y-73275071D01*
X33186487Y-73600181D01*
X33217369Y-73647530D01*
X33453559Y-73878340D01*
X33739547Y-74012979D01*
X34052147Y-74074528D01*
X34275429Y-74085213D01*
G37*
G36*
X40673769Y-67977183D02*
G01*
X40977582Y-68035787D01*
X41299083Y-68153538D01*
X41585100Y-68324466D01*
X41802016Y-68513301D01*
X42014433Y-68784858D01*
X42174677Y-69114828D01*
X42270505Y-69444153D01*
X42328001Y-69816393D01*
X42346634Y-70159377D01*
X42347166Y-70231550D01*
X42333857Y-70610363D01*
X42293929Y-70952863D01*
X42210879Y-71315927D01*
X42065541Y-71673409D01*
X41868031Y-71959716D01*
X41802016Y-72028444D01*
X41541855Y-72232962D01*
X41237094Y-72387248D01*
X40940373Y-72479511D01*
X40610886Y-72534869D01*
X40311283Y-72552810D01*
X40248632Y-72553322D01*
X38959030Y-72553322D01*
X38959030Y-75070001D01*
X37697271Y-75070001D01*
X37697271Y-71349693D01*
X38959030Y-71349693D01*
X40141653Y-71349693D01*
X40451048Y-71312187D01*
X40741163Y-71173621D01*
X40842142Y-71082980D01*
X41011442Y-70788551D01*
X41081097Y-70441375D01*
X41089804Y-70234969D01*
X41060366Y-69875897D01*
X40949670Y-69553119D01*
X40840676Y-69409184D01*
X40584261Y-69239717D01*
X40277344Y-69167330D01*
X40141653Y-69161278D01*
X38959030Y-69161278D01*
X38959030Y-71349693D01*
X37697271Y-71349693D01*
X37697271Y-67957649D01*
X40343886Y-67957649D01*
X40673769Y-67977183D01*
G37*
G36*
X42817578Y-71677956D02*
G01*
X45184291Y-71677956D01*
X45184291Y-72991005D01*
X42817578Y-72991005D01*
X42817578Y-71677956D01*
G37*
G36*
X48267613Y-74085213D02*
G01*
X48581129Y-74068864D01*
X48886471Y-74008464D01*
X48997411Y-73968954D01*
X49277937Y-73791405D01*
X49466513Y-73509323D01*
X49528852Y-73173995D01*
X49529371Y-73136330D01*
X49454925Y-72803843D01*
X49265589Y-72585807D01*
X48977278Y-72428260D01*
X48670068Y-72316412D01*
X48437606Y-72250705D01*
X47794270Y-72079735D01*
X47459322Y-71983344D01*
X47165589Y-71883948D01*
X46874994Y-71764187D01*
X46583803Y-71604198D01*
X46484152Y-71530922D01*
X46244897Y-71286503D01*
X46064407Y-70988579D01*
X45942681Y-70637151D01*
X45885116Y-70293341D01*
X45870125Y-69976804D01*
X45890991Y-69627264D01*
X45968077Y-69248335D01*
X46101965Y-68900495D01*
X46292653Y-68583743D01*
X46463635Y-68376525D01*
X46705728Y-68159801D01*
X46986872Y-67987916D01*
X47307069Y-67860870D01*
X47603731Y-67789252D01*
X47927512Y-67748772D01*
X48206064Y-67738807D01*
X48499542Y-67752999D01*
X48833391Y-67807496D01*
X49147251Y-67902865D01*
X49441121Y-68039107D01*
X49715001Y-68216221D01*
X49844445Y-68320105D01*
X50076164Y-68556805D01*
X50262443Y-68832214D01*
X50403282Y-69146331D01*
X50498680Y-69499157D01*
X50548637Y-69890692D01*
X50555191Y-70029805D01*
X49335931Y-70029805D01*
X49274794Y-69666227D01*
X49114979Y-69349598D01*
X48858192Y-69120245D01*
X48570402Y-68998696D01*
X48279966Y-68948687D01*
X48119602Y-68942436D01*
X47806300Y-68970113D01*
X47517445Y-69063439D01*
X47337048Y-69176665D01*
X47126674Y-69437202D01*
X47045101Y-69779635D01*
X47043956Y-69831480D01*
X47116130Y-70168718D01*
X47332651Y-70407649D01*
X47623545Y-70546562D01*
X47911770Y-70644235D01*
X48123998Y-70706846D01*
X49170334Y-71004334D01*
X49455470Y-71095987D01*
X49741670Y-71216360D01*
X50013064Y-71371706D01*
X50209344Y-71527502D01*
X50421189Y-71771418D01*
X50581003Y-72058858D01*
X50688784Y-72389822D01*
X50744533Y-72764310D01*
X50753028Y-72997844D01*
X50730617Y-73356060D01*
X50663383Y-73690834D01*
X50528294Y-74051776D01*
X50363945Y-74335760D01*
X50154774Y-74596302D01*
X50115554Y-74637446D01*
X49858555Y-74858819D01*
X49564565Y-75034391D01*
X49233584Y-75164161D01*
X48929509Y-75237316D01*
X48599745Y-75278664D01*
X48317438Y-75288842D01*
X47958874Y-75273440D01*
X47625067Y-75227233D01*
X47316019Y-75150221D01*
X47031729Y-75042405D01*
X46723262Y-74872363D01*
X46450446Y-74657963D01*
X46219362Y-74404673D01*
X46036088Y-74117965D01*
X45900625Y-73797837D01*
X45812972Y-73444290D01*
X45773130Y-73057323D01*
X45770474Y-72920908D01*
X46982407Y-72920908D01*
X47047467Y-73275071D01*
X47178671Y-73600181D01*
X47209553Y-73647530D01*
X47445743Y-73878340D01*
X47731731Y-74012979D01*
X48044331Y-74074528D01*
X48267613Y-74085213D01*
G37*
G36*
X54326585Y-69740615D02*
G01*
X54637016Y-69837317D01*
X54924446Y-69998486D01*
X55188875Y-70224123D01*
X55329651Y-70382003D01*
X55514418Y-70656791D01*
X55660958Y-70975937D01*
X55769271Y-71339442D01*
X55830329Y-71676248D01*
X55864840Y-72043858D01*
X55873335Y-72360126D01*
X55860312Y-72774236D01*
X55821243Y-73156372D01*
X55756127Y-73506535D01*
X55643608Y-73884526D01*
X55493581Y-74216475D01*
X55339909Y-74457928D01*
X55129055Y-74703123D01*
X54855710Y-74925067D01*
X54552913Y-75077961D01*
X54220663Y-75161807D01*
X53965310Y-75179421D01*
X53648605Y-75147364D01*
X53367106Y-75051194D01*
X53098119Y-74871355D01*
X53075778Y-74851159D01*
X52860476Y-74594804D01*
X52696224Y-74322862D01*
X52696224Y-77054962D01*
X51534117Y-77054962D01*
X51534117Y-72474676D01*
X52655191Y-72474676D01*
X52675107Y-72848755D01*
X52746639Y-73212360D01*
X52889298Y-73539926D01*
X53071381Y-73758661D01*
X53341392Y-73921510D01*
X53635120Y-73975581D01*
X53656099Y-73975793D01*
X53965905Y-73923468D01*
X54240679Y-73747035D01*
X54403482Y-73532980D01*
X54539494Y-73227672D01*
X54625132Y-72865262D01*
X54659135Y-72490272D01*
X54661402Y-72354997D01*
X54638218Y-71990250D01*
X54568666Y-71652551D01*
X54438604Y-71312322D01*
X54423998Y-71283015D01*
X54226811Y-71017279D01*
X53959666Y-70861848D01*
X53656099Y-70816267D01*
X53361633Y-70860506D01*
X53090136Y-71016031D01*
X52881931Y-71283536D01*
X52778290Y-71524083D01*
X52698588Y-71861598D01*
X52661082Y-72232256D01*
X52655191Y-72474676D01*
X51534117Y-72474676D01*
X51534117Y-69817802D01*
X52658122Y-69817802D01*
X52658122Y-70592296D01*
X52841147Y-70306114D01*
X53062588Y-70057160D01*
X53321591Y-69873234D01*
X53609502Y-69757429D01*
X53926321Y-69709744D01*
X53993154Y-69708382D01*
X54326585Y-69740615D01*
G37*
G36*
X58773983Y-69727315D02*
G01*
X59093922Y-69792765D01*
X59391822Y-69904964D01*
X59476894Y-69947740D01*
X59742766Y-70124386D01*
X59978012Y-70355129D01*
X60182632Y-70639968D01*
X60219881Y-70703427D01*
X60366570Y-71001856D01*
X60476908Y-71328669D01*
X60550897Y-71683866D01*
X60561332Y-71758312D01*
X60590985Y-72125717D01*
X60600115Y-72497498D01*
X60599434Y-72772164D01*
X57523440Y-72772164D01*
X57552291Y-73123861D01*
X57629228Y-73465694D01*
X57771835Y-73773621D01*
X57948422Y-73979212D01*
X58216235Y-74140779D01*
X58511895Y-74194424D01*
X58533140Y-74194634D01*
X58825058Y-74148492D01*
X59094793Y-73982758D01*
X59123719Y-73953566D01*
X59305373Y-73675827D01*
X59342072Y-73592820D01*
X60540816Y-73592820D01*
X60460994Y-73944083D01*
X60307445Y-74268186D01*
X60124626Y-74534864D01*
X59891928Y-74791099D01*
X59626874Y-74994320D01*
X59329467Y-75144526D01*
X58999705Y-75241718D01*
X58700188Y-75282215D01*
X58509692Y-75288842D01*
X58195266Y-75266122D01*
X57894956Y-75197961D01*
X57608763Y-75084359D01*
X57336686Y-74925317D01*
X57078725Y-74720834D01*
X56995875Y-74642576D01*
X56773257Y-74371034D01*
X56596699Y-74042391D01*
X56484750Y-73724902D01*
X56404787Y-73367760D01*
X56356809Y-72970965D01*
X56341456Y-72624978D01*
X56340816Y-72534516D01*
X56355234Y-72122702D01*
X56380909Y-71896797D01*
X57552749Y-71896797D01*
X59378709Y-71896797D01*
X59332064Y-71558222D01*
X59208624Y-71236746D01*
X59095875Y-71081271D01*
X58850760Y-70890766D01*
X58559083Y-70806944D01*
X58467194Y-70802589D01*
X58166174Y-70851404D01*
X57893376Y-71029045D01*
X57834117Y-71098368D01*
X57669905Y-71395929D01*
X57574688Y-71744319D01*
X57552749Y-71896797D01*
X56380909Y-71896797D01*
X56398490Y-71742110D01*
X56470582Y-71392740D01*
X56595157Y-71014709D01*
X56761258Y-70681638D01*
X56931395Y-70438423D01*
X57165777Y-70190323D01*
X57424888Y-69993554D01*
X57708729Y-69848116D01*
X58017299Y-69754009D01*
X58350599Y-69711233D01*
X58467194Y-69708382D01*
X58773983Y-69727315D01*
G37*
G36*
X65253726Y-71758312D02*
G01*
X64050586Y-71758312D01*
X63969642Y-71414101D01*
X63882058Y-71230014D01*
X63648608Y-71001759D01*
X63344148Y-70914805D01*
X63268032Y-70912010D01*
X62963858Y-70965295D01*
X62695496Y-71149488D01*
X62516618Y-71427752D01*
X62456168Y-71585632D01*
X62377028Y-71943454D01*
X62345937Y-72287961D01*
X62340397Y-72536225D01*
X62354077Y-72898052D01*
X62405519Y-73258467D01*
X62456168Y-73444076D01*
X62603490Y-73754001D01*
X62836246Y-73979401D01*
X63141702Y-74079578D01*
X63247515Y-74085213D01*
X63542675Y-74042324D01*
X63797710Y-73871781D01*
X63832233Y-73825339D01*
X63977500Y-73505795D01*
X64041793Y-73151717D01*
X65242002Y-73151717D01*
X65194694Y-73499239D01*
X65098931Y-73837834D01*
X64954714Y-74167504D01*
X64853656Y-74346797D01*
X64668442Y-74618187D01*
X64411804Y-74883137D01*
X64117659Y-75081850D01*
X63786008Y-75214325D01*
X63480981Y-75274123D01*
X63218206Y-75288842D01*
X62893308Y-75270434D01*
X62596389Y-75215211D01*
X62277016Y-75100348D01*
X61997933Y-74932470D01*
X61759137Y-74711578D01*
X61622323Y-74534864D01*
X61449010Y-74236255D01*
X61311555Y-73905909D01*
X61209957Y-73543826D01*
X61144218Y-73150007D01*
X61116826Y-72797582D01*
X61112344Y-72575548D01*
X61126119Y-72165571D01*
X61167442Y-71785146D01*
X61236314Y-71434274D01*
X61355325Y-71052236D01*
X61514007Y-70712753D01*
X61676545Y-70462359D01*
X61903662Y-70206125D01*
X62160764Y-70002904D01*
X62447851Y-69852698D01*
X62764922Y-69755505D01*
X63111978Y-69711327D01*
X63234326Y-69708382D01*
X63540595Y-69724550D01*
X63870561Y-69784285D01*
X64171074Y-69888034D01*
X64442135Y-70035797D01*
X64617718Y-70168291D01*
X64859152Y-70439492D01*
X65025326Y-70745866D01*
X65149427Y-71116707D01*
X65222310Y-71485882D01*
X65253726Y-71758312D01*
G37*
G36*
X68096713Y-74085213D02*
G01*
X68096713Y-75070001D01*
X67539839Y-75093936D01*
X67246244Y-75092514D01*
X66950599Y-75054845D01*
X66644674Y-74949433D01*
X66402644Y-74757125D01*
X66254267Y-74457501D01*
X66205580Y-74090843D01*
X66204808Y-74030503D01*
X66204808Y-70802589D01*
X65577592Y-70802589D01*
X65577592Y-69817802D01*
X66204808Y-69817802D01*
X66204808Y-68356009D01*
X67366915Y-68356009D01*
X67366915Y-69817802D01*
X68096713Y-69817802D01*
X68096713Y-70802589D01*
X67366915Y-70802589D01*
X67366915Y-73608207D01*
X67402497Y-73950441D01*
X67435792Y-74015116D01*
X67721906Y-74091626D01*
X67865170Y-74095472D01*
X67978011Y-74093762D01*
X68096713Y-74085213D01*
G37*
G36*
X71093572Y-71089819D02*
G01*
X70768699Y-71123479D01*
X70472626Y-71241814D01*
X70229853Y-71473224D01*
X70142491Y-71628375D01*
X70049325Y-71956837D01*
X70012725Y-72302153D01*
X70006203Y-72561871D01*
X70006203Y-75070001D01*
X68823579Y-75070001D01*
X68823579Y-69817802D01*
X69944654Y-69817802D01*
X69944654Y-70746169D01*
X70107371Y-70451413D01*
X70298792Y-70164579D01*
X70417997Y-70029805D01*
X70668062Y-69846807D01*
X70964881Y-69739771D01*
X71275289Y-69708382D01*
X71330976Y-69708382D01*
X71432093Y-69708382D01*
X71432093Y-71113755D01*
X71234256Y-71094948D01*
X71093572Y-71089819D01*
G37*
G36*
X74981430Y-74346797D02*
G01*
X74899364Y-74486993D01*
X74742561Y-74692157D01*
X74504859Y-74904634D01*
X74241443Y-75063315D01*
X74209134Y-75076839D01*
X73910278Y-75156881D01*
X73605366Y-75179421D01*
X73309419Y-75158968D01*
X72996315Y-75080429D01*
X72688980Y-74914351D01*
X72444056Y-74668097D01*
X72261542Y-74341668D01*
X72159532Y-74010414D01*
X72100027Y-73639195D01*
X72072824Y-73251093D01*
X72068101Y-72980747D01*
X72068101Y-69817802D01*
X73271242Y-69817802D01*
X73271242Y-73002973D01*
X73288633Y-73355372D01*
X73362100Y-73683434D01*
X73561333Y-73958088D01*
X73852828Y-74075404D01*
X73992247Y-74085213D01*
X74300310Y-74039908D01*
X74572450Y-73883297D01*
X74770745Y-73614820D01*
X74815833Y-73512464D01*
X74898931Y-73178396D01*
X74929796Y-72817765D01*
X74931605Y-72693518D01*
X74931605Y-69817802D01*
X76123021Y-69817802D01*
X76123021Y-75070001D01*
X74981430Y-75070001D01*
X74981430Y-74346797D01*
G37*
G36*
X79752958Y-71271047D02*
G01*
X79550678Y-70998614D01*
X79249744Y-70894830D01*
X79171172Y-70891494D01*
X78864561Y-70936343D01*
X78602666Y-71104993D01*
X78495596Y-71271047D01*
X78416062Y-71603028D01*
X78400341Y-71915604D01*
X78400341Y-75070001D01*
X77208925Y-75070001D01*
X77208925Y-69834899D01*
X78350516Y-69834899D01*
X78350516Y-70599135D01*
X78523816Y-70305790D01*
X78725820Y-70050884D01*
X78762309Y-70016128D01*
X79021788Y-69840917D01*
X79328714Y-69738435D01*
X79648911Y-69708382D01*
X79951991Y-69734261D01*
X80240751Y-69822509D01*
X80482756Y-69973385D01*
X80694761Y-70234623D01*
X80843825Y-70533353D01*
X80869637Y-70604264D01*
X81041148Y-70315791D01*
X81258665Y-70066989D01*
X81442630Y-69925513D01*
X81725853Y-69793199D01*
X82032568Y-69721952D01*
X82250097Y-69708382D01*
X82545020Y-69742148D01*
X82834815Y-69843448D01*
X83093874Y-70014401D01*
X83314746Y-70253946D01*
X83359448Y-70315325D01*
X83517718Y-70620506D01*
X83610196Y-70964066D01*
X83614438Y-70988947D01*
X83646455Y-71339514D01*
X83655310Y-71700710D01*
X83655471Y-71763441D01*
X83646678Y-75070001D01*
X82443538Y-75070001D01*
X82443538Y-71732666D01*
X82408195Y-71387128D01*
X82361472Y-71241982D01*
X82156508Y-70979366D01*
X81860623Y-70879322D01*
X81784082Y-70876107D01*
X81485263Y-70931865D01*
X81224094Y-71141537D01*
X81112903Y-71347984D01*
X81033369Y-71680567D01*
X81017648Y-71949798D01*
X81017648Y-75070001D01*
X79835024Y-75070001D01*
X79835024Y-71949798D01*
X79819316Y-71590153D01*
X79752958Y-71271047D01*
G37*
G36*
X89148164Y-68090069D02*
G01*
X89455109Y-68159066D01*
X89779616Y-68302581D01*
X90056312Y-68512333D01*
X90285198Y-68788323D01*
X90411228Y-69009114D01*
X90542947Y-69322337D01*
X90652341Y-69674294D01*
X90739410Y-70064988D01*
X90792991Y-70405432D01*
X90832283Y-70770666D01*
X90857288Y-71160691D01*
X90868004Y-71575507D01*
X90868450Y-71683085D01*
X90861260Y-72103644D01*
X90839691Y-72499360D01*
X90803741Y-72870231D01*
X90753412Y-73216258D01*
X90670279Y-73613855D01*
X90564677Y-73972634D01*
X90436607Y-74292593D01*
X90408297Y-74351927D01*
X90212280Y-74670331D01*
X89968247Y-74922859D01*
X89676198Y-75109511D01*
X89396144Y-75214731D01*
X89082745Y-75274203D01*
X88808018Y-75288842D01*
X88467485Y-75265968D01*
X88160297Y-75197346D01*
X87835687Y-75054613D01*
X87559093Y-74846003D01*
X87330516Y-74571516D01*
X87204808Y-74351927D01*
X87072666Y-74039731D01*
X86962921Y-73688717D01*
X86875573Y-73298883D01*
X86821821Y-72959067D01*
X86782402Y-72594407D01*
X86757318Y-72204902D01*
X86746567Y-71790554D01*
X86746120Y-71683085D01*
X86746236Y-71676246D01*
X87944863Y-71676246D01*
X87948978Y-72044232D01*
X87964777Y-72448790D01*
X87992426Y-72812956D01*
X88039660Y-73186766D01*
X88113391Y-73546658D01*
X88236949Y-73859889D01*
X88463841Y-74103512D01*
X88774199Y-74194001D01*
X88806552Y-74194634D01*
X89099243Y-74131021D01*
X89339878Y-73914101D01*
X89484707Y-73583315D01*
X89495317Y-73543238D01*
X89565842Y-73184843D01*
X89611022Y-72811991D01*
X89637469Y-72448386D01*
X89652582Y-72044149D01*
X89656517Y-71676246D01*
X89652546Y-71291814D01*
X89640632Y-70939940D01*
X89615851Y-70560667D01*
X89572484Y-70177437D01*
X89503859Y-69817599D01*
X89493852Y-69778479D01*
X89356837Y-69453002D01*
X89124466Y-69234209D01*
X88806552Y-69161278D01*
X88514062Y-69221551D01*
X88271994Y-69427084D01*
X88124360Y-69740507D01*
X88113391Y-69778479D01*
X88039660Y-70127899D01*
X87992426Y-70502013D01*
X87964777Y-70873472D01*
X87950788Y-71218835D01*
X87945028Y-71596755D01*
X87944863Y-71676246D01*
X86746236Y-71676246D01*
X86753287Y-71262071D01*
X86774788Y-70865848D01*
X86810623Y-70494416D01*
X86860792Y-70147774D01*
X86943660Y-69749334D01*
X87048925Y-69389629D01*
X87176588Y-69068660D01*
X87204808Y-69009114D01*
X87401373Y-68688966D01*
X87645956Y-68435056D01*
X87938555Y-68247383D01*
X88219067Y-68141587D01*
X88532924Y-68081789D01*
X88808018Y-68067070D01*
X89148164Y-68090069D01*
G37*
G36*
X91681779Y-73647530D02*
G01*
X92930348Y-73647530D01*
X92930348Y-75070001D01*
X91681779Y-75070001D01*
X91681779Y-73647530D01*
G37*
G36*
X96422533Y-69561347D02*
G01*
X96185090Y-69352727D01*
X95892010Y-69273253D01*
X95820230Y-69270698D01*
X95518494Y-69316279D01*
X95244820Y-69491310D01*
X95090432Y-69737446D01*
X95001772Y-70085370D01*
X94965090Y-70450658D01*
X94958541Y-70592296D01*
X93816950Y-70592296D01*
X93840151Y-70219457D01*
X93884109Y-69878851D01*
X93959763Y-69529057D01*
X94077280Y-69185863D01*
X94092456Y-69151019D01*
X94257277Y-68838749D01*
X94457733Y-68579405D01*
X94693823Y-68372989D01*
X94965548Y-68219500D01*
X95272907Y-68118938D01*
X95615902Y-68071304D01*
X95763077Y-68067070D01*
X96104483Y-68088648D01*
X96418686Y-68153383D01*
X96705686Y-68261274D01*
X97006139Y-68441693D01*
X97269567Y-68680852D01*
X97488265Y-68967696D01*
X97653248Y-69292664D01*
X97764515Y-69655756D01*
X97817134Y-69997322D01*
X97830837Y-70303357D01*
X97806107Y-70679705D01*
X97731919Y-71034254D01*
X97608271Y-71367004D01*
X97435163Y-71677956D01*
X97240418Y-71936848D01*
X97009351Y-72184984D01*
X96759582Y-72417583D01*
X96582267Y-72568710D01*
X96113321Y-72956811D01*
X95864680Y-73165782D01*
X95622320Y-73378536D01*
X95508087Y-73486818D01*
X95301509Y-73748563D01*
X95235512Y-73866372D01*
X97844026Y-73866372D01*
X97844026Y-75070001D01*
X93751004Y-75070001D01*
X93774269Y-74706155D01*
X93827941Y-74358338D01*
X93912021Y-74026549D01*
X94026510Y-73710789D01*
X94169464Y-73404673D01*
X94377774Y-73090702D01*
X94608343Y-72815334D01*
X94837163Y-72581452D01*
X95099328Y-72343563D01*
X95213531Y-72247286D01*
X95453671Y-72046129D01*
X95704814Y-71829425D01*
X95946763Y-71610636D01*
X96177057Y-71383193D01*
X96265729Y-71283015D01*
X96458929Y-70991498D01*
X96588802Y-70651545D01*
X96632093Y-70291389D01*
X96591982Y-69935391D01*
X96459983Y-69617151D01*
X96422533Y-69561347D01*
G37*
D10*
X59132969Y-48859819D02*
X58656779Y-48859819D01*
X58656779Y-48859819D02*
X58609160Y-49336009D01*
X58609160Y-49336009D02*
X58656779Y-49288390D01*
X58656779Y-49288390D02*
X58752017Y-49240771D01*
X58752017Y-49240771D02*
X58990112Y-49240771D01*
X58990112Y-49240771D02*
X59085350Y-49288390D01*
X59085350Y-49288390D02*
X59132969Y-49336009D01*
X59132969Y-49336009D02*
X59180588Y-49431247D01*
X59180588Y-49431247D02*
X59180588Y-49669342D01*
X59180588Y-49669342D02*
X59132969Y-49764580D01*
X59132969Y-49764580D02*
X59085350Y-49812200D01*
X59085350Y-49812200D02*
X58990112Y-49859819D01*
X58990112Y-49859819D02*
X58752017Y-49859819D01*
X58752017Y-49859819D02*
X58656779Y-49812200D01*
X58656779Y-49812200D02*
X58609160Y-49764580D01*
X59466303Y-48859819D02*
X59799636Y-49859819D01*
X59799636Y-49859819D02*
X60132969Y-48859819D01*
X220031541Y-53079819D02*
X220269636Y-54079819D01*
X220269636Y-54079819D02*
X220460112Y-53365533D01*
X220460112Y-53365533D02*
X220650588Y-54079819D01*
X220650588Y-54079819D02*
X220888684Y-53079819D01*
X221698207Y-54079819D02*
X221698207Y-53556009D01*
X221698207Y-53556009D02*
X221650588Y-53460771D01*
X221650588Y-53460771D02*
X221555350Y-53413152D01*
X221555350Y-53413152D02*
X221364874Y-53413152D01*
X221364874Y-53413152D02*
X221269636Y-53460771D01*
X221698207Y-54032200D02*
X221602969Y-54079819D01*
X221602969Y-54079819D02*
X221364874Y-54079819D01*
X221364874Y-54079819D02*
X221269636Y-54032200D01*
X221269636Y-54032200D02*
X221222017Y-53936961D01*
X221222017Y-53936961D02*
X221222017Y-53841723D01*
X221222017Y-53841723D02*
X221269636Y-53746485D01*
X221269636Y-53746485D02*
X221364874Y-53698866D01*
X221364874Y-53698866D02*
X221602969Y-53698866D01*
X221602969Y-53698866D02*
X221698207Y-53651247D01*
X222079160Y-53413152D02*
X222317255Y-54079819D01*
X222555350Y-53413152D02*
X222317255Y-54079819D01*
X222317255Y-54079819D02*
X222222017Y-54317914D01*
X222222017Y-54317914D02*
X222174398Y-54365533D01*
X222174398Y-54365533D02*
X222079160Y-54413152D01*
X222841065Y-53079819D02*
X223079160Y-54079819D01*
X223079160Y-54079819D02*
X223269636Y-53365533D01*
X223269636Y-53365533D02*
X223460112Y-54079819D01*
X223460112Y-54079819D02*
X223698208Y-53079819D01*
X224507731Y-54079819D02*
X224507731Y-53556009D01*
X224507731Y-53556009D02*
X224460112Y-53460771D01*
X224460112Y-53460771D02*
X224364874Y-53413152D01*
X224364874Y-53413152D02*
X224174398Y-53413152D01*
X224174398Y-53413152D02*
X224079160Y-53460771D01*
X224507731Y-54032200D02*
X224412493Y-54079819D01*
X224412493Y-54079819D02*
X224174398Y-54079819D01*
X224174398Y-54079819D02*
X224079160Y-54032200D01*
X224079160Y-54032200D02*
X224031541Y-53936961D01*
X224031541Y-53936961D02*
X224031541Y-53841723D01*
X224031541Y-53841723D02*
X224079160Y-53746485D01*
X224079160Y-53746485D02*
X224174398Y-53698866D01*
X224174398Y-53698866D02*
X224412493Y-53698866D01*
X224412493Y-53698866D02*
X224507731Y-53651247D01*
X224888684Y-53413152D02*
X225126779Y-54079819D01*
X225364874Y-53413152D02*
X225126779Y-54079819D01*
X225126779Y-54079819D02*
X225031541Y-54317914D01*
X225031541Y-54317914D02*
X224983922Y-54365533D01*
X224983922Y-54365533D02*
X224888684Y-54413152D01*
X225650589Y-53079819D02*
X225888684Y-54079819D01*
X225888684Y-54079819D02*
X226079160Y-53365533D01*
X226079160Y-53365533D02*
X226269636Y-54079819D01*
X226269636Y-54079819D02*
X226507732Y-53079819D01*
X227317255Y-54079819D02*
X227317255Y-53556009D01*
X227317255Y-53556009D02*
X227269636Y-53460771D01*
X227269636Y-53460771D02*
X227174398Y-53413152D01*
X227174398Y-53413152D02*
X226983922Y-53413152D01*
X226983922Y-53413152D02*
X226888684Y-53460771D01*
X227317255Y-54032200D02*
X227222017Y-54079819D01*
X227222017Y-54079819D02*
X226983922Y-54079819D01*
X226983922Y-54079819D02*
X226888684Y-54032200D01*
X226888684Y-54032200D02*
X226841065Y-53936961D01*
X226841065Y-53936961D02*
X226841065Y-53841723D01*
X226841065Y-53841723D02*
X226888684Y-53746485D01*
X226888684Y-53746485D02*
X226983922Y-53698866D01*
X226983922Y-53698866D02*
X227222017Y-53698866D01*
X227222017Y-53698866D02*
X227317255Y-53651247D01*
X227698208Y-53413152D02*
X227936303Y-54079819D01*
X228174398Y-53413152D02*
X227936303Y-54079819D01*
X227936303Y-54079819D02*
X227841065Y-54317914D01*
X227841065Y-54317914D02*
X227793446Y-54365533D01*
X227793446Y-54365533D02*
X227698208Y-54413152D01*
D12*
X42513884Y-52981466D02*
X43275789Y-52981466D01*
X42583884Y-57611466D02*
X43345789Y-57611466D01*
X42964836Y-57992419D02*
X42964836Y-57230514D01*
D13*
X208561101Y-37127219D02*
X208227768Y-36651028D01*
X207989673Y-37127219D02*
X207989673Y-36127219D01*
X207989673Y-36127219D02*
X208370625Y-36127219D01*
X208370625Y-36127219D02*
X208465863Y-36174838D01*
X208465863Y-36174838D02*
X208513482Y-36222457D01*
X208513482Y-36222457D02*
X208561101Y-36317695D01*
X208561101Y-36317695D02*
X208561101Y-36460552D01*
X208561101Y-36460552D02*
X208513482Y-36555790D01*
X208513482Y-36555790D02*
X208465863Y-36603409D01*
X208465863Y-36603409D02*
X208370625Y-36651028D01*
X208370625Y-36651028D02*
X207989673Y-36651028D01*
X208989673Y-36603409D02*
X209323006Y-36603409D01*
X209465863Y-37127219D02*
X208989673Y-37127219D01*
X208989673Y-37127219D02*
X208989673Y-36127219D01*
X208989673Y-36127219D02*
X209465863Y-36127219D01*
X209846816Y-37079600D02*
X209989673Y-37127219D01*
X209989673Y-37127219D02*
X210227768Y-37127219D01*
X210227768Y-37127219D02*
X210323006Y-37079600D01*
X210323006Y-37079600D02*
X210370625Y-37031980D01*
X210370625Y-37031980D02*
X210418244Y-36936742D01*
X210418244Y-36936742D02*
X210418244Y-36841504D01*
X210418244Y-36841504D02*
X210370625Y-36746266D01*
X210370625Y-36746266D02*
X210323006Y-36698647D01*
X210323006Y-36698647D02*
X210227768Y-36651028D01*
X210227768Y-36651028D02*
X210037292Y-36603409D01*
X210037292Y-36603409D02*
X209942054Y-36555790D01*
X209942054Y-36555790D02*
X209894435Y-36508171D01*
X209894435Y-36508171D02*
X209846816Y-36412933D01*
X209846816Y-36412933D02*
X209846816Y-36317695D01*
X209846816Y-36317695D02*
X209894435Y-36222457D01*
X209894435Y-36222457D02*
X209942054Y-36174838D01*
X209942054Y-36174838D02*
X210037292Y-36127219D01*
X210037292Y-36127219D02*
X210275387Y-36127219D01*
X210275387Y-36127219D02*
X210418244Y-36174838D01*
X210846816Y-36603409D02*
X211180149Y-36603409D01*
X211323006Y-37127219D02*
X210846816Y-37127219D01*
X210846816Y-37127219D02*
X210846816Y-36127219D01*
X210846816Y-36127219D02*
X211323006Y-36127219D01*
X211608721Y-36127219D02*
X212180149Y-36127219D01*
X211894435Y-37127219D02*
X211894435Y-36127219D01*
D10*
X40649160Y-37832200D02*
X40792017Y-37879819D01*
X40792017Y-37879819D02*
X41030112Y-37879819D01*
X41030112Y-37879819D02*
X41125350Y-37832200D01*
X41125350Y-37832200D02*
X41172969Y-37784580D01*
X41172969Y-37784580D02*
X41220588Y-37689342D01*
X41220588Y-37689342D02*
X41220588Y-37594104D01*
X41220588Y-37594104D02*
X41172969Y-37498866D01*
X41172969Y-37498866D02*
X41125350Y-37451247D01*
X41125350Y-37451247D02*
X41030112Y-37403628D01*
X41030112Y-37403628D02*
X40839636Y-37356009D01*
X40839636Y-37356009D02*
X40744398Y-37308390D01*
X40744398Y-37308390D02*
X40696779Y-37260771D01*
X40696779Y-37260771D02*
X40649160Y-37165533D01*
X40649160Y-37165533D02*
X40649160Y-37070295D01*
X40649160Y-37070295D02*
X40696779Y-36975057D01*
X40696779Y-36975057D02*
X40744398Y-36927438D01*
X40744398Y-36927438D02*
X40839636Y-36879819D01*
X40839636Y-36879819D02*
X41077731Y-36879819D01*
X41077731Y-36879819D02*
X41220588Y-36927438D01*
X41506303Y-36879819D02*
X42077731Y-36879819D01*
X41792017Y-37879819D02*
X41792017Y-36879819D01*
X42411065Y-37879819D02*
X42411065Y-36879819D01*
X42411065Y-36879819D02*
X42649160Y-36879819D01*
X42649160Y-36879819D02*
X42792017Y-36927438D01*
X42792017Y-36927438D02*
X42887255Y-37022676D01*
X42887255Y-37022676D02*
X42934874Y-37117914D01*
X42934874Y-37117914D02*
X42982493Y-37308390D01*
X42982493Y-37308390D02*
X42982493Y-37451247D01*
X42982493Y-37451247D02*
X42934874Y-37641723D01*
X42934874Y-37641723D02*
X42887255Y-37736961D01*
X42887255Y-37736961D02*
X42792017Y-37832200D01*
X42792017Y-37832200D02*
X42649160Y-37879819D01*
X42649160Y-37879819D02*
X42411065Y-37879819D01*
X43744398Y-37356009D02*
X43887255Y-37403628D01*
X43887255Y-37403628D02*
X43934874Y-37451247D01*
X43934874Y-37451247D02*
X43982493Y-37546485D01*
X43982493Y-37546485D02*
X43982493Y-37689342D01*
X43982493Y-37689342D02*
X43934874Y-37784580D01*
X43934874Y-37784580D02*
X43887255Y-37832200D01*
X43887255Y-37832200D02*
X43792017Y-37879819D01*
X43792017Y-37879819D02*
X43411065Y-37879819D01*
X43411065Y-37879819D02*
X43411065Y-36879819D01*
X43411065Y-36879819D02*
X43744398Y-36879819D01*
X43744398Y-36879819D02*
X43839636Y-36927438D01*
X43839636Y-36927438D02*
X43887255Y-36975057D01*
X43887255Y-36975057D02*
X43934874Y-37070295D01*
X43934874Y-37070295D02*
X43934874Y-37165533D01*
X43934874Y-37165533D02*
X43887255Y-37260771D01*
X43887255Y-37260771D02*
X43839636Y-37308390D01*
X43839636Y-37308390D02*
X43744398Y-37356009D01*
X43744398Y-37356009D02*
X43411065Y-37356009D01*
X74791541Y-49659819D02*
X75410588Y-49659819D01*
X75410588Y-49659819D02*
X75077255Y-50040771D01*
X75077255Y-50040771D02*
X75220112Y-50040771D01*
X75220112Y-50040771D02*
X75315350Y-50088390D01*
X75315350Y-50088390D02*
X75362969Y-50136009D01*
X75362969Y-50136009D02*
X75410588Y-50231247D01*
X75410588Y-50231247D02*
X75410588Y-50469342D01*
X75410588Y-50469342D02*
X75362969Y-50564580D01*
X75362969Y-50564580D02*
X75315350Y-50612200D01*
X75315350Y-50612200D02*
X75220112Y-50659819D01*
X75220112Y-50659819D02*
X74934398Y-50659819D01*
X74934398Y-50659819D02*
X74839160Y-50612200D01*
X74839160Y-50612200D02*
X74791541Y-50564580D01*
X75696303Y-49659819D02*
X76029636Y-50659819D01*
X76029636Y-50659819D02*
X76362969Y-49659819D01*
X76601065Y-49659819D02*
X77220112Y-49659819D01*
X77220112Y-49659819D02*
X76886779Y-50040771D01*
X76886779Y-50040771D02*
X77029636Y-50040771D01*
X77029636Y-50040771D02*
X77124874Y-50088390D01*
X77124874Y-50088390D02*
X77172493Y-50136009D01*
X77172493Y-50136009D02*
X77220112Y-50231247D01*
X77220112Y-50231247D02*
X77220112Y-50469342D01*
X77220112Y-50469342D02*
X77172493Y-50564580D01*
X77172493Y-50564580D02*
X77124874Y-50612200D01*
X77124874Y-50612200D02*
X77029636Y-50659819D01*
X77029636Y-50659819D02*
X76743922Y-50659819D01*
X76743922Y-50659819D02*
X76648684Y-50612200D01*
X76648684Y-50612200D02*
X76601065Y-50564580D01*
X58010588Y-60385438D02*
X57915350Y-60337819D01*
X57915350Y-60337819D02*
X57772493Y-60337819D01*
X57772493Y-60337819D02*
X57629636Y-60385438D01*
X57629636Y-60385438D02*
X57534398Y-60480676D01*
X57534398Y-60480676D02*
X57486779Y-60575914D01*
X57486779Y-60575914D02*
X57439160Y-60766390D01*
X57439160Y-60766390D02*
X57439160Y-60909247D01*
X57439160Y-60909247D02*
X57486779Y-61099723D01*
X57486779Y-61099723D02*
X57534398Y-61194961D01*
X57534398Y-61194961D02*
X57629636Y-61290200D01*
X57629636Y-61290200D02*
X57772493Y-61337819D01*
X57772493Y-61337819D02*
X57867731Y-61337819D01*
X57867731Y-61337819D02*
X58010588Y-61290200D01*
X58010588Y-61290200D02*
X58058207Y-61242580D01*
X58058207Y-61242580D02*
X58058207Y-60909247D01*
X58058207Y-60909247D02*
X57867731Y-60909247D01*
X58486779Y-61337819D02*
X58486779Y-60337819D01*
X58486779Y-60337819D02*
X59058207Y-61337819D01*
X59058207Y-61337819D02*
X59058207Y-60337819D01*
X59534398Y-61337819D02*
X59534398Y-60337819D01*
X59534398Y-60337819D02*
X59772493Y-60337819D01*
X59772493Y-60337819D02*
X59915350Y-60385438D01*
X59915350Y-60385438D02*
X60010588Y-60480676D01*
X60010588Y-60480676D02*
X60058207Y-60575914D01*
X60058207Y-60575914D02*
X60105826Y-60766390D01*
X60105826Y-60766390D02*
X60105826Y-60909247D01*
X60105826Y-60909247D02*
X60058207Y-61099723D01*
X60058207Y-61099723D02*
X60010588Y-61194961D01*
X60010588Y-61194961D02*
X59915350Y-61290200D01*
X59915350Y-61290200D02*
X59772493Y-61337819D01*
X59772493Y-61337819D02*
X59534398Y-61337819D01*
D13*
X239273006Y-36693409D02*
X239415863Y-36741028D01*
X239415863Y-36741028D02*
X239463482Y-36788647D01*
X239463482Y-36788647D02*
X239511101Y-36883885D01*
X239511101Y-36883885D02*
X239511101Y-37026742D01*
X239511101Y-37026742D02*
X239463482Y-37121980D01*
X239463482Y-37121980D02*
X239415863Y-37169600D01*
X239415863Y-37169600D02*
X239320625Y-37217219D01*
X239320625Y-37217219D02*
X238939673Y-37217219D01*
X238939673Y-37217219D02*
X238939673Y-36217219D01*
X238939673Y-36217219D02*
X239273006Y-36217219D01*
X239273006Y-36217219D02*
X239368244Y-36264838D01*
X239368244Y-36264838D02*
X239415863Y-36312457D01*
X239415863Y-36312457D02*
X239463482Y-36407695D01*
X239463482Y-36407695D02*
X239463482Y-36502933D01*
X239463482Y-36502933D02*
X239415863Y-36598171D01*
X239415863Y-36598171D02*
X239368244Y-36645790D01*
X239368244Y-36645790D02*
X239273006Y-36693409D01*
X239273006Y-36693409D02*
X238939673Y-36693409D01*
X240130149Y-36217219D02*
X240320625Y-36217219D01*
X240320625Y-36217219D02*
X240415863Y-36264838D01*
X240415863Y-36264838D02*
X240511101Y-36360076D01*
X240511101Y-36360076D02*
X240558720Y-36550552D01*
X240558720Y-36550552D02*
X240558720Y-36883885D01*
X240558720Y-36883885D02*
X240511101Y-37074361D01*
X240511101Y-37074361D02*
X240415863Y-37169600D01*
X240415863Y-37169600D02*
X240320625Y-37217219D01*
X240320625Y-37217219D02*
X240130149Y-37217219D01*
X240130149Y-37217219D02*
X240034911Y-37169600D01*
X240034911Y-37169600D02*
X239939673Y-37074361D01*
X239939673Y-37074361D02*
X239892054Y-36883885D01*
X239892054Y-36883885D02*
X239892054Y-36550552D01*
X239892054Y-36550552D02*
X239939673Y-36360076D01*
X239939673Y-36360076D02*
X240034911Y-36264838D01*
X240034911Y-36264838D02*
X240130149Y-36217219D01*
X241177768Y-36217219D02*
X241368244Y-36217219D01*
X241368244Y-36217219D02*
X241463482Y-36264838D01*
X241463482Y-36264838D02*
X241558720Y-36360076D01*
X241558720Y-36360076D02*
X241606339Y-36550552D01*
X241606339Y-36550552D02*
X241606339Y-36883885D01*
X241606339Y-36883885D02*
X241558720Y-37074361D01*
X241558720Y-37074361D02*
X241463482Y-37169600D01*
X241463482Y-37169600D02*
X241368244Y-37217219D01*
X241368244Y-37217219D02*
X241177768Y-37217219D01*
X241177768Y-37217219D02*
X241082530Y-37169600D01*
X241082530Y-37169600D02*
X240987292Y-37074361D01*
X240987292Y-37074361D02*
X240939673Y-36883885D01*
X240939673Y-36883885D02*
X240939673Y-36550552D01*
X240939673Y-36550552D02*
X240987292Y-36360076D01*
X240987292Y-36360076D02*
X241082530Y-36264838D01*
X241082530Y-36264838D02*
X241177768Y-36217219D01*
X241892054Y-36217219D02*
X242463482Y-36217219D01*
X242177768Y-37217219D02*
X242177768Y-36217219D01*
D10*
X45358207Y-37824580D02*
X45310588Y-37872200D01*
X45310588Y-37872200D02*
X45167731Y-37919819D01*
X45167731Y-37919819D02*
X45072493Y-37919819D01*
X45072493Y-37919819D02*
X44929636Y-37872200D01*
X44929636Y-37872200D02*
X44834398Y-37776961D01*
X44834398Y-37776961D02*
X44786779Y-37681723D01*
X44786779Y-37681723D02*
X44739160Y-37491247D01*
X44739160Y-37491247D02*
X44739160Y-37348390D01*
X44739160Y-37348390D02*
X44786779Y-37157914D01*
X44786779Y-37157914D02*
X44834398Y-37062676D01*
X44834398Y-37062676D02*
X44929636Y-36967438D01*
X44929636Y-36967438D02*
X45072493Y-36919819D01*
X45072493Y-36919819D02*
X45167731Y-36919819D01*
X45167731Y-36919819D02*
X45310588Y-36967438D01*
X45310588Y-36967438D02*
X45358207Y-37015057D01*
X45786779Y-37919819D02*
X45786779Y-36919819D01*
X45786779Y-37396009D02*
X46358207Y-37396009D01*
X46358207Y-37919819D02*
X46358207Y-36919819D01*
X47405826Y-37919819D02*
X47072493Y-37443628D01*
X46834398Y-37919819D02*
X46834398Y-36919819D01*
X46834398Y-36919819D02*
X47215350Y-36919819D01*
X47215350Y-36919819D02*
X47310588Y-36967438D01*
X47310588Y-36967438D02*
X47358207Y-37015057D01*
X47358207Y-37015057D02*
X47405826Y-37110295D01*
X47405826Y-37110295D02*
X47405826Y-37253152D01*
X47405826Y-37253152D02*
X47358207Y-37348390D01*
X47358207Y-37348390D02*
X47310588Y-37396009D01*
X47310588Y-37396009D02*
X47215350Y-37443628D01*
X47215350Y-37443628D02*
X46834398Y-37443628D01*
D12*
X52728609Y-56242782D02*
X52776228Y-56099925D01*
X52776228Y-56099925D02*
X52823847Y-56052306D01*
X52823847Y-56052306D02*
X52919085Y-56004687D01*
X52919085Y-56004687D02*
X53061942Y-56004687D01*
X53061942Y-56004687D02*
X53157180Y-56052306D01*
X53157180Y-56052306D02*
X53204800Y-56099925D01*
X53204800Y-56099925D02*
X53252419Y-56195163D01*
X53252419Y-56195163D02*
X53252419Y-56576115D01*
X53252419Y-56576115D02*
X52252419Y-56576115D01*
X52252419Y-56576115D02*
X52252419Y-56242782D01*
X52252419Y-56242782D02*
X52300038Y-56147544D01*
X52300038Y-56147544D02*
X52347657Y-56099925D01*
X52347657Y-56099925D02*
X52442895Y-56052306D01*
X52442895Y-56052306D02*
X52538133Y-56052306D01*
X52538133Y-56052306D02*
X52633371Y-56099925D01*
X52633371Y-56099925D02*
X52680990Y-56147544D01*
X52680990Y-56147544D02*
X52728609Y-56242782D01*
X52728609Y-56242782D02*
X52728609Y-56576115D01*
X52966704Y-55623734D02*
X52966704Y-55147544D01*
X53252419Y-55718972D02*
X52252419Y-55385639D01*
X52252419Y-55385639D02*
X53252419Y-55052306D01*
X52252419Y-54861829D02*
X52252419Y-54290401D01*
X53252419Y-54576115D02*
X52252419Y-54576115D01*
D10*
X47816779Y-47289819D02*
X47816779Y-46289819D01*
X47816779Y-46289819D02*
X48197731Y-46289819D01*
X48197731Y-46289819D02*
X48292969Y-46337438D01*
X48292969Y-46337438D02*
X48340588Y-46385057D01*
X48340588Y-46385057D02*
X48388207Y-46480295D01*
X48388207Y-46480295D02*
X48388207Y-46623152D01*
X48388207Y-46623152D02*
X48340588Y-46718390D01*
X48340588Y-46718390D02*
X48292969Y-46766009D01*
X48292969Y-46766009D02*
X48197731Y-46813628D01*
X48197731Y-46813628D02*
X47816779Y-46813628D01*
X48721541Y-46289819D02*
X48959636Y-47289819D01*
X48959636Y-47289819D02*
X49150112Y-46575533D01*
X49150112Y-46575533D02*
X49340588Y-47289819D01*
X49340588Y-47289819D02*
X49578684Y-46289819D01*
X50531064Y-47289819D02*
X50197731Y-46813628D01*
X49959636Y-47289819D02*
X49959636Y-46289819D01*
X49959636Y-46289819D02*
X50340588Y-46289819D01*
X50340588Y-46289819D02*
X50435826Y-46337438D01*
X50435826Y-46337438D02*
X50483445Y-46385057D01*
X50483445Y-46385057D02*
X50531064Y-46480295D01*
X50531064Y-46480295D02*
X50531064Y-46623152D01*
X50531064Y-46623152D02*
X50483445Y-46718390D01*
X50483445Y-46718390D02*
X50435826Y-46766009D01*
X50435826Y-46766009D02*
X50340588Y-46813628D01*
X50340588Y-46813628D02*
X49959636Y-46813628D01*
X39653333Y-36344819D02*
X39320000Y-35868628D01*
X39081905Y-36344819D02*
X39081905Y-35344819D01*
X39081905Y-35344819D02*
X39462857Y-35344819D01*
X39462857Y-35344819D02*
X39558095Y-35392438D01*
X39558095Y-35392438D02*
X39605714Y-35440057D01*
X39605714Y-35440057D02*
X39653333Y-35535295D01*
X39653333Y-35535295D02*
X39653333Y-35678152D01*
X39653333Y-35678152D02*
X39605714Y-35773390D01*
X39605714Y-35773390D02*
X39558095Y-35821009D01*
X39558095Y-35821009D02*
X39462857Y-35868628D01*
X39462857Y-35868628D02*
X39081905Y-35868628D01*
X39986667Y-35344819D02*
X40653333Y-35344819D01*
X40653333Y-35344819D02*
X40224762Y-36344819D01*
X47721905Y-34454819D02*
X47721905Y-33454819D01*
X47721905Y-33454819D02*
X47960000Y-33454819D01*
X47960000Y-33454819D02*
X48102857Y-33502438D01*
X48102857Y-33502438D02*
X48198095Y-33597676D01*
X48198095Y-33597676D02*
X48245714Y-33692914D01*
X48245714Y-33692914D02*
X48293333Y-33883390D01*
X48293333Y-33883390D02*
X48293333Y-34026247D01*
X48293333Y-34026247D02*
X48245714Y-34216723D01*
X48245714Y-34216723D02*
X48198095Y-34311961D01*
X48198095Y-34311961D02*
X48102857Y-34407200D01*
X48102857Y-34407200D02*
X47960000Y-34454819D01*
X47960000Y-34454819D02*
X47721905Y-34454819D01*
X49245714Y-34454819D02*
X48674286Y-34454819D01*
X48960000Y-34454819D02*
X48960000Y-33454819D01*
X48960000Y-33454819D02*
X48864762Y-33597676D01*
X48864762Y-33597676D02*
X48769524Y-33692914D01*
X48769524Y-33692914D02*
X48674286Y-33740533D01*
X209843333Y-50679580D02*
X209795714Y-50727200D01*
X209795714Y-50727200D02*
X209652857Y-50774819D01*
X209652857Y-50774819D02*
X209557619Y-50774819D01*
X209557619Y-50774819D02*
X209414762Y-50727200D01*
X209414762Y-50727200D02*
X209319524Y-50631961D01*
X209319524Y-50631961D02*
X209271905Y-50536723D01*
X209271905Y-50536723D02*
X209224286Y-50346247D01*
X209224286Y-50346247D02*
X209224286Y-50203390D01*
X209224286Y-50203390D02*
X209271905Y-50012914D01*
X209271905Y-50012914D02*
X209319524Y-49917676D01*
X209319524Y-49917676D02*
X209414762Y-49822438D01*
X209414762Y-49822438D02*
X209557619Y-49774819D01*
X209557619Y-49774819D02*
X209652857Y-49774819D01*
X209652857Y-49774819D02*
X209795714Y-49822438D01*
X209795714Y-49822438D02*
X209843333Y-49870057D01*
X210224286Y-49870057D02*
X210271905Y-49822438D01*
X210271905Y-49822438D02*
X210367143Y-49774819D01*
X210367143Y-49774819D02*
X210605238Y-49774819D01*
X210605238Y-49774819D02*
X210700476Y-49822438D01*
X210700476Y-49822438D02*
X210748095Y-49870057D01*
X210748095Y-49870057D02*
X210795714Y-49965295D01*
X210795714Y-49965295D02*
X210795714Y-50060533D01*
X210795714Y-50060533D02*
X210748095Y-50203390D01*
X210748095Y-50203390D02*
X210176667Y-50774819D01*
X210176667Y-50774819D02*
X210795714Y-50774819D01*
X76506666Y-57101009D02*
X76173333Y-57101009D01*
X76173333Y-57624819D02*
X76173333Y-56624819D01*
X76173333Y-56624819D02*
X76649523Y-56624819D01*
X76982857Y-56720057D02*
X77030476Y-56672438D01*
X77030476Y-56672438D02*
X77125714Y-56624819D01*
X77125714Y-56624819D02*
X77363809Y-56624819D01*
X77363809Y-56624819D02*
X77459047Y-56672438D01*
X77459047Y-56672438D02*
X77506666Y-56720057D01*
X77506666Y-56720057D02*
X77554285Y-56815295D01*
X77554285Y-56815295D02*
X77554285Y-56910533D01*
X77554285Y-56910533D02*
X77506666Y-57053390D01*
X77506666Y-57053390D02*
X76935238Y-57624819D01*
X76935238Y-57624819D02*
X77554285Y-57624819D01*
X36917333Y-59636819D02*
X36584000Y-59160628D01*
X36345905Y-59636819D02*
X36345905Y-58636819D01*
X36345905Y-58636819D02*
X36726857Y-58636819D01*
X36726857Y-58636819D02*
X36822095Y-58684438D01*
X36822095Y-58684438D02*
X36869714Y-58732057D01*
X36869714Y-58732057D02*
X36917333Y-58827295D01*
X36917333Y-58827295D02*
X36917333Y-58970152D01*
X36917333Y-58970152D02*
X36869714Y-59065390D01*
X36869714Y-59065390D02*
X36822095Y-59113009D01*
X36822095Y-59113009D02*
X36726857Y-59160628D01*
X36726857Y-59160628D02*
X36345905Y-59160628D01*
X37250667Y-58636819D02*
X37869714Y-58636819D01*
X37869714Y-58636819D02*
X37536381Y-59017771D01*
X37536381Y-59017771D02*
X37679238Y-59017771D01*
X37679238Y-59017771D02*
X37774476Y-59065390D01*
X37774476Y-59065390D02*
X37822095Y-59113009D01*
X37822095Y-59113009D02*
X37869714Y-59208247D01*
X37869714Y-59208247D02*
X37869714Y-59446342D01*
X37869714Y-59446342D02*
X37822095Y-59541580D01*
X37822095Y-59541580D02*
X37774476Y-59589200D01*
X37774476Y-59589200D02*
X37679238Y-59636819D01*
X37679238Y-59636819D02*
X37393524Y-59636819D01*
X37393524Y-59636819D02*
X37298286Y-59589200D01*
X37298286Y-59589200D02*
X37250667Y-59541580D01*
X206049580Y-42782857D02*
X206097200Y-42830476D01*
X206097200Y-42830476D02*
X206144819Y-42973333D01*
X206144819Y-42973333D02*
X206144819Y-43068571D01*
X206144819Y-43068571D02*
X206097200Y-43211428D01*
X206097200Y-43211428D02*
X206001961Y-43306666D01*
X206001961Y-43306666D02*
X205906723Y-43354285D01*
X205906723Y-43354285D02*
X205716247Y-43401904D01*
X205716247Y-43401904D02*
X205573390Y-43401904D01*
X205573390Y-43401904D02*
X205382914Y-43354285D01*
X205382914Y-43354285D02*
X205287676Y-43306666D01*
X205287676Y-43306666D02*
X205192438Y-43211428D01*
X205192438Y-43211428D02*
X205144819Y-43068571D01*
X205144819Y-43068571D02*
X205144819Y-42973333D01*
X205144819Y-42973333D02*
X205192438Y-42830476D01*
X205192438Y-42830476D02*
X205240057Y-42782857D01*
X206144819Y-41830476D02*
X206144819Y-42401904D01*
X206144819Y-42116190D02*
X205144819Y-42116190D01*
X205144819Y-42116190D02*
X205287676Y-42211428D01*
X205287676Y-42211428D02*
X205382914Y-42306666D01*
X205382914Y-42306666D02*
X205430533Y-42401904D01*
X205573390Y-41259047D02*
X205525771Y-41354285D01*
X205525771Y-41354285D02*
X205478152Y-41401904D01*
X205478152Y-41401904D02*
X205382914Y-41449523D01*
X205382914Y-41449523D02*
X205335295Y-41449523D01*
X205335295Y-41449523D02*
X205240057Y-41401904D01*
X205240057Y-41401904D02*
X205192438Y-41354285D01*
X205192438Y-41354285D02*
X205144819Y-41259047D01*
X205144819Y-41259047D02*
X205144819Y-41068571D01*
X205144819Y-41068571D02*
X205192438Y-40973333D01*
X205192438Y-40973333D02*
X205240057Y-40925714D01*
X205240057Y-40925714D02*
X205335295Y-40878095D01*
X205335295Y-40878095D02*
X205382914Y-40878095D01*
X205382914Y-40878095D02*
X205478152Y-40925714D01*
X205478152Y-40925714D02*
X205525771Y-40973333D01*
X205525771Y-40973333D02*
X205573390Y-41068571D01*
X205573390Y-41068571D02*
X205573390Y-41259047D01*
X205573390Y-41259047D02*
X205621009Y-41354285D01*
X205621009Y-41354285D02*
X205668628Y-41401904D01*
X205668628Y-41401904D02*
X205763866Y-41449523D01*
X205763866Y-41449523D02*
X205954342Y-41449523D01*
X205954342Y-41449523D02*
X206049580Y-41401904D01*
X206049580Y-41401904D02*
X206097200Y-41354285D01*
X206097200Y-41354285D02*
X206144819Y-41259047D01*
X206144819Y-41259047D02*
X206144819Y-41068571D01*
X206144819Y-41068571D02*
X206097200Y-40973333D01*
X206097200Y-40973333D02*
X206049580Y-40925714D01*
X206049580Y-40925714D02*
X205954342Y-40878095D01*
X205954342Y-40878095D02*
X205763866Y-40878095D01*
X205763866Y-40878095D02*
X205668628Y-40925714D01*
X205668628Y-40925714D02*
X205621009Y-40973333D01*
X205621009Y-40973333D02*
X205573390Y-41068571D01*
X209319580Y-42652857D02*
X209367200Y-42700476D01*
X209367200Y-42700476D02*
X209414819Y-42843333D01*
X209414819Y-42843333D02*
X209414819Y-42938571D01*
X209414819Y-42938571D02*
X209367200Y-43081428D01*
X209367200Y-43081428D02*
X209271961Y-43176666D01*
X209271961Y-43176666D02*
X209176723Y-43224285D01*
X209176723Y-43224285D02*
X208986247Y-43271904D01*
X208986247Y-43271904D02*
X208843390Y-43271904D01*
X208843390Y-43271904D02*
X208652914Y-43224285D01*
X208652914Y-43224285D02*
X208557676Y-43176666D01*
X208557676Y-43176666D02*
X208462438Y-43081428D01*
X208462438Y-43081428D02*
X208414819Y-42938571D01*
X208414819Y-42938571D02*
X208414819Y-42843333D01*
X208414819Y-42843333D02*
X208462438Y-42700476D01*
X208462438Y-42700476D02*
X208510057Y-42652857D01*
X209414819Y-41700476D02*
X209414819Y-42271904D01*
X209414819Y-41986190D02*
X208414819Y-41986190D01*
X208414819Y-41986190D02*
X208557676Y-42081428D01*
X208557676Y-42081428D02*
X208652914Y-42176666D01*
X208652914Y-42176666D02*
X208700533Y-42271904D01*
X208748152Y-40843333D02*
X209414819Y-40843333D01*
X208367200Y-41081428D02*
X209081485Y-41319523D01*
X209081485Y-41319523D02*
X209081485Y-40700476D01*
X48889580Y-55750476D02*
X48937200Y-55798095D01*
X48937200Y-55798095D02*
X48984819Y-55940952D01*
X48984819Y-55940952D02*
X48984819Y-56036190D01*
X48984819Y-56036190D02*
X48937200Y-56179047D01*
X48937200Y-56179047D02*
X48841961Y-56274285D01*
X48841961Y-56274285D02*
X48746723Y-56321904D01*
X48746723Y-56321904D02*
X48556247Y-56369523D01*
X48556247Y-56369523D02*
X48413390Y-56369523D01*
X48413390Y-56369523D02*
X48222914Y-56321904D01*
X48222914Y-56321904D02*
X48127676Y-56274285D01*
X48127676Y-56274285D02*
X48032438Y-56179047D01*
X48032438Y-56179047D02*
X47984819Y-56036190D01*
X47984819Y-56036190D02*
X47984819Y-55940952D01*
X47984819Y-55940952D02*
X48032438Y-55798095D01*
X48032438Y-55798095D02*
X48080057Y-55750476D01*
X48984819Y-55321904D02*
X47984819Y-55321904D01*
X47984819Y-55321904D02*
X48984819Y-54750476D01*
X48984819Y-54750476D02*
X47984819Y-54750476D01*
X47984819Y-54369523D02*
X47984819Y-53750476D01*
X47984819Y-53750476D02*
X48365771Y-54083809D01*
X48365771Y-54083809D02*
X48365771Y-53940952D01*
X48365771Y-53940952D02*
X48413390Y-53845714D01*
X48413390Y-53845714D02*
X48461009Y-53798095D01*
X48461009Y-53798095D02*
X48556247Y-53750476D01*
X48556247Y-53750476D02*
X48794342Y-53750476D01*
X48794342Y-53750476D02*
X48889580Y-53798095D01*
X48889580Y-53798095D02*
X48937200Y-53845714D01*
X48937200Y-53845714D02*
X48984819Y-53940952D01*
X48984819Y-53940952D02*
X48984819Y-54226666D01*
X48984819Y-54226666D02*
X48937200Y-54321904D01*
X48937200Y-54321904D02*
X48889580Y-54369523D01*
X57039523Y-43689580D02*
X56991904Y-43737200D01*
X56991904Y-43737200D02*
X56849047Y-43784819D01*
X56849047Y-43784819D02*
X56753809Y-43784819D01*
X56753809Y-43784819D02*
X56610952Y-43737200D01*
X56610952Y-43737200D02*
X56515714Y-43641961D01*
X56515714Y-43641961D02*
X56468095Y-43546723D01*
X56468095Y-43546723D02*
X56420476Y-43356247D01*
X56420476Y-43356247D02*
X56420476Y-43213390D01*
X56420476Y-43213390D02*
X56468095Y-43022914D01*
X56468095Y-43022914D02*
X56515714Y-42927676D01*
X56515714Y-42927676D02*
X56610952Y-42832438D01*
X56610952Y-42832438D02*
X56753809Y-42784819D01*
X56753809Y-42784819D02*
X56849047Y-42784819D01*
X56849047Y-42784819D02*
X56991904Y-42832438D01*
X56991904Y-42832438D02*
X57039523Y-42880057D01*
X57468095Y-43784819D02*
X57468095Y-42784819D01*
X57468095Y-42784819D02*
X58039523Y-43784819D01*
X58039523Y-43784819D02*
X58039523Y-42784819D01*
X59039523Y-43784819D02*
X58468095Y-43784819D01*
X58753809Y-43784819D02*
X58753809Y-42784819D01*
X58753809Y-42784819D02*
X58658571Y-42927676D01*
X58658571Y-42927676D02*
X58563333Y-43022914D01*
X58563333Y-43022914D02*
X58468095Y-43070533D01*
X218612142Y-64764580D02*
X218564523Y-64812200D01*
X218564523Y-64812200D02*
X218421666Y-64859819D01*
X218421666Y-64859819D02*
X218326428Y-64859819D01*
X218326428Y-64859819D02*
X218183571Y-64812200D01*
X218183571Y-64812200D02*
X218088333Y-64716961D01*
X218088333Y-64716961D02*
X218040714Y-64621723D01*
X218040714Y-64621723D02*
X217993095Y-64431247D01*
X217993095Y-64431247D02*
X217993095Y-64288390D01*
X217993095Y-64288390D02*
X218040714Y-64097914D01*
X218040714Y-64097914D02*
X218088333Y-64002676D01*
X218088333Y-64002676D02*
X218183571Y-63907438D01*
X218183571Y-63907438D02*
X218326428Y-63859819D01*
X218326428Y-63859819D02*
X218421666Y-63859819D01*
X218421666Y-63859819D02*
X218564523Y-63907438D01*
X218564523Y-63907438D02*
X218612142Y-63955057D01*
X219564523Y-64859819D02*
X218993095Y-64859819D01*
X219278809Y-64859819D02*
X219278809Y-63859819D01*
X219278809Y-63859819D02*
X219183571Y-64002676D01*
X219183571Y-64002676D02*
X219088333Y-64097914D01*
X219088333Y-64097914D02*
X218993095Y-64145533D01*
X220516904Y-64859819D02*
X219945476Y-64859819D01*
X220231190Y-64859819D02*
X220231190Y-63859819D01*
X220231190Y-63859819D02*
X220135952Y-64002676D01*
X220135952Y-64002676D02*
X220040714Y-64097914D01*
X220040714Y-64097914D02*
X219945476Y-64145533D01*
X190696666Y-33424819D02*
X190696666Y-34139104D01*
X190696666Y-34139104D02*
X190649047Y-34281961D01*
X190649047Y-34281961D02*
X190553809Y-34377200D01*
X190553809Y-34377200D02*
X190410952Y-34424819D01*
X190410952Y-34424819D02*
X190315714Y-34424819D01*
X191696666Y-34424819D02*
X191125238Y-34424819D01*
X191410952Y-34424819D02*
X191410952Y-33424819D01*
X191410952Y-33424819D02*
X191315714Y-33567676D01*
X191315714Y-33567676D02*
X191220476Y-33662914D01*
X191220476Y-33662914D02*
X191125238Y-33710533D01*
X204429580Y-41786666D02*
X204477200Y-41834285D01*
X204477200Y-41834285D02*
X204524819Y-41977142D01*
X204524819Y-41977142D02*
X204524819Y-42072380D01*
X204524819Y-42072380D02*
X204477200Y-42215237D01*
X204477200Y-42215237D02*
X204381961Y-42310475D01*
X204381961Y-42310475D02*
X204286723Y-42358094D01*
X204286723Y-42358094D02*
X204096247Y-42405713D01*
X204096247Y-42405713D02*
X203953390Y-42405713D01*
X203953390Y-42405713D02*
X203762914Y-42358094D01*
X203762914Y-42358094D02*
X203667676Y-42310475D01*
X203667676Y-42310475D02*
X203572438Y-42215237D01*
X203572438Y-42215237D02*
X203524819Y-42072380D01*
X203524819Y-42072380D02*
X203524819Y-41977142D01*
X203524819Y-41977142D02*
X203572438Y-41834285D01*
X203572438Y-41834285D02*
X203620057Y-41786666D01*
X203524819Y-40929523D02*
X203524819Y-41119999D01*
X203524819Y-41119999D02*
X203572438Y-41215237D01*
X203572438Y-41215237D02*
X203620057Y-41262856D01*
X203620057Y-41262856D02*
X203762914Y-41358094D01*
X203762914Y-41358094D02*
X203953390Y-41405713D01*
X203953390Y-41405713D02*
X204334342Y-41405713D01*
X204334342Y-41405713D02*
X204429580Y-41358094D01*
X204429580Y-41358094D02*
X204477200Y-41310475D01*
X204477200Y-41310475D02*
X204524819Y-41215237D01*
X204524819Y-41215237D02*
X204524819Y-41024761D01*
X204524819Y-41024761D02*
X204477200Y-40929523D01*
X204477200Y-40929523D02*
X204429580Y-40881904D01*
X204429580Y-40881904D02*
X204334342Y-40834285D01*
X204334342Y-40834285D02*
X204096247Y-40834285D01*
X204096247Y-40834285D02*
X204001009Y-40881904D01*
X204001009Y-40881904D02*
X203953390Y-40929523D01*
X203953390Y-40929523D02*
X203905771Y-41024761D01*
X203905771Y-41024761D02*
X203905771Y-41215237D01*
X203905771Y-41215237D02*
X203953390Y-41310475D01*
X203953390Y-41310475D02*
X204001009Y-41358094D01*
X204001009Y-41358094D02*
X204096247Y-41405713D01*
X199788095Y-37904819D02*
X199788095Y-38714342D01*
X199788095Y-38714342D02*
X199835714Y-38809580D01*
X199835714Y-38809580D02*
X199883333Y-38857200D01*
X199883333Y-38857200D02*
X199978571Y-38904819D01*
X199978571Y-38904819D02*
X200169047Y-38904819D01*
X200169047Y-38904819D02*
X200264285Y-38857200D01*
X200264285Y-38857200D02*
X200311904Y-38809580D01*
X200311904Y-38809580D02*
X200359523Y-38714342D01*
X200359523Y-38714342D02*
X200359523Y-37904819D01*
X200788095Y-38000057D02*
X200835714Y-37952438D01*
X200835714Y-37952438D02*
X200930952Y-37904819D01*
X200930952Y-37904819D02*
X201169047Y-37904819D01*
X201169047Y-37904819D02*
X201264285Y-37952438D01*
X201264285Y-37952438D02*
X201311904Y-38000057D01*
X201311904Y-38000057D02*
X201359523Y-38095295D01*
X201359523Y-38095295D02*
X201359523Y-38190533D01*
X201359523Y-38190533D02*
X201311904Y-38333390D01*
X201311904Y-38333390D02*
X200740476Y-38904819D01*
X200740476Y-38904819D02*
X201359523Y-38904819D01*
X207659580Y-42832857D02*
X207707200Y-42880476D01*
X207707200Y-42880476D02*
X207754819Y-43023333D01*
X207754819Y-43023333D02*
X207754819Y-43118571D01*
X207754819Y-43118571D02*
X207707200Y-43261428D01*
X207707200Y-43261428D02*
X207611961Y-43356666D01*
X207611961Y-43356666D02*
X207516723Y-43404285D01*
X207516723Y-43404285D02*
X207326247Y-43451904D01*
X207326247Y-43451904D02*
X207183390Y-43451904D01*
X207183390Y-43451904D02*
X206992914Y-43404285D01*
X206992914Y-43404285D02*
X206897676Y-43356666D01*
X206897676Y-43356666D02*
X206802438Y-43261428D01*
X206802438Y-43261428D02*
X206754819Y-43118571D01*
X206754819Y-43118571D02*
X206754819Y-43023333D01*
X206754819Y-43023333D02*
X206802438Y-42880476D01*
X206802438Y-42880476D02*
X206850057Y-42832857D01*
X207754819Y-41880476D02*
X207754819Y-42451904D01*
X207754819Y-42166190D02*
X206754819Y-42166190D01*
X206754819Y-42166190D02*
X206897676Y-42261428D01*
X206897676Y-42261428D02*
X206992914Y-42356666D01*
X206992914Y-42356666D02*
X207040533Y-42451904D01*
X207754819Y-41404285D02*
X207754819Y-41213809D01*
X207754819Y-41213809D02*
X207707200Y-41118571D01*
X207707200Y-41118571D02*
X207659580Y-41070952D01*
X207659580Y-41070952D02*
X207516723Y-40975714D01*
X207516723Y-40975714D02*
X207326247Y-40928095D01*
X207326247Y-40928095D02*
X206945295Y-40928095D01*
X206945295Y-40928095D02*
X206850057Y-40975714D01*
X206850057Y-40975714D02*
X206802438Y-41023333D01*
X206802438Y-41023333D02*
X206754819Y-41118571D01*
X206754819Y-41118571D02*
X206754819Y-41309047D01*
X206754819Y-41309047D02*
X206802438Y-41404285D01*
X206802438Y-41404285D02*
X206850057Y-41451904D01*
X206850057Y-41451904D02*
X206945295Y-41499523D01*
X206945295Y-41499523D02*
X207183390Y-41499523D01*
X207183390Y-41499523D02*
X207278628Y-41451904D01*
X207278628Y-41451904D02*
X207326247Y-41404285D01*
X207326247Y-41404285D02*
X207373866Y-41309047D01*
X207373866Y-41309047D02*
X207373866Y-41118571D01*
X207373866Y-41118571D02*
X207326247Y-41023333D01*
X207326247Y-41023333D02*
X207278628Y-40975714D01*
X207278628Y-40975714D02*
X207183390Y-40928095D01*
X33331905Y-34564819D02*
X33331905Y-33564819D01*
X33331905Y-33564819D02*
X33570000Y-33564819D01*
X33570000Y-33564819D02*
X33712857Y-33612438D01*
X33712857Y-33612438D02*
X33808095Y-33707676D01*
X33808095Y-33707676D02*
X33855714Y-33802914D01*
X33855714Y-33802914D02*
X33903333Y-33993390D01*
X33903333Y-33993390D02*
X33903333Y-34136247D01*
X33903333Y-34136247D02*
X33855714Y-34326723D01*
X33855714Y-34326723D02*
X33808095Y-34421961D01*
X33808095Y-34421961D02*
X33712857Y-34517200D01*
X33712857Y-34517200D02*
X33570000Y-34564819D01*
X33570000Y-34564819D02*
X33331905Y-34564819D01*
X34284286Y-33660057D02*
X34331905Y-33612438D01*
X34331905Y-33612438D02*
X34427143Y-33564819D01*
X34427143Y-33564819D02*
X34665238Y-33564819D01*
X34665238Y-33564819D02*
X34760476Y-33612438D01*
X34760476Y-33612438D02*
X34808095Y-33660057D01*
X34808095Y-33660057D02*
X34855714Y-33755295D01*
X34855714Y-33755295D02*
X34855714Y-33850533D01*
X34855714Y-33850533D02*
X34808095Y-33993390D01*
X34808095Y-33993390D02*
X34236667Y-34564819D01*
X34236667Y-34564819D02*
X34855714Y-34564819D01*
X242114819Y-42539285D02*
X241638628Y-42805952D01*
X242114819Y-42996428D02*
X241114819Y-42996428D01*
X241114819Y-42996428D02*
X241114819Y-42691666D01*
X241114819Y-42691666D02*
X241162438Y-42615476D01*
X241162438Y-42615476D02*
X241210057Y-42577381D01*
X241210057Y-42577381D02*
X241305295Y-42539285D01*
X241305295Y-42539285D02*
X241448152Y-42539285D01*
X241448152Y-42539285D02*
X241543390Y-42577381D01*
X241543390Y-42577381D02*
X241591009Y-42615476D01*
X241591009Y-42615476D02*
X241638628Y-42691666D01*
X241638628Y-42691666D02*
X241638628Y-42996428D01*
X241114819Y-42272619D02*
X241114819Y-41777381D01*
X241114819Y-41777381D02*
X241495771Y-42044047D01*
X241495771Y-42044047D02*
X241495771Y-41929762D01*
X241495771Y-41929762D02*
X241543390Y-41853571D01*
X241543390Y-41853571D02*
X241591009Y-41815476D01*
X241591009Y-41815476D02*
X241686247Y-41777381D01*
X241686247Y-41777381D02*
X241924342Y-41777381D01*
X241924342Y-41777381D02*
X242019580Y-41815476D01*
X242019580Y-41815476D02*
X242067200Y-41853571D01*
X242067200Y-41853571D02*
X242114819Y-41929762D01*
X242114819Y-41929762D02*
X242114819Y-42158333D01*
X242114819Y-42158333D02*
X242067200Y-42234524D01*
X242067200Y-42234524D02*
X242019580Y-42272619D01*
X241114819Y-41282142D02*
X241114819Y-41205952D01*
X241114819Y-41205952D02*
X241162438Y-41129761D01*
X241162438Y-41129761D02*
X241210057Y-41091666D01*
X241210057Y-41091666D02*
X241305295Y-41053571D01*
X241305295Y-41053571D02*
X241495771Y-41015476D01*
X241495771Y-41015476D02*
X241733866Y-41015476D01*
X241733866Y-41015476D02*
X241924342Y-41053571D01*
X241924342Y-41053571D02*
X242019580Y-41091666D01*
X242019580Y-41091666D02*
X242067200Y-41129761D01*
X242067200Y-41129761D02*
X242114819Y-41205952D01*
X242114819Y-41205952D02*
X242114819Y-41282142D01*
X242114819Y-41282142D02*
X242067200Y-41358333D01*
X242067200Y-41358333D02*
X242019580Y-41396428D01*
X242019580Y-41396428D02*
X241924342Y-41434523D01*
X241924342Y-41434523D02*
X241733866Y-41472619D01*
X241733866Y-41472619D02*
X241495771Y-41472619D01*
X241495771Y-41472619D02*
X241305295Y-41434523D01*
X241305295Y-41434523D02*
X241210057Y-41396428D01*
X241210057Y-41396428D02*
X241162438Y-41358333D01*
X241162438Y-41358333D02*
X241114819Y-41282142D01*
X183434819Y-43292857D02*
X182958628Y-43626190D01*
X183434819Y-43864285D02*
X182434819Y-43864285D01*
X182434819Y-43864285D02*
X182434819Y-43483333D01*
X182434819Y-43483333D02*
X182482438Y-43388095D01*
X182482438Y-43388095D02*
X182530057Y-43340476D01*
X182530057Y-43340476D02*
X182625295Y-43292857D01*
X182625295Y-43292857D02*
X182768152Y-43292857D01*
X182768152Y-43292857D02*
X182863390Y-43340476D01*
X182863390Y-43340476D02*
X182911009Y-43388095D01*
X182911009Y-43388095D02*
X182958628Y-43483333D01*
X182958628Y-43483333D02*
X182958628Y-43864285D01*
X183434819Y-42340476D02*
X183434819Y-42911904D01*
X183434819Y-42626190D02*
X182434819Y-42626190D01*
X182434819Y-42626190D02*
X182577676Y-42721428D01*
X182577676Y-42721428D02*
X182672914Y-42816666D01*
X182672914Y-42816666D02*
X182720533Y-42911904D01*
X182434819Y-41721428D02*
X182434819Y-41626190D01*
X182434819Y-41626190D02*
X182482438Y-41530952D01*
X182482438Y-41530952D02*
X182530057Y-41483333D01*
X182530057Y-41483333D02*
X182625295Y-41435714D01*
X182625295Y-41435714D02*
X182815771Y-41388095D01*
X182815771Y-41388095D02*
X183053866Y-41388095D01*
X183053866Y-41388095D02*
X183244342Y-41435714D01*
X183244342Y-41435714D02*
X183339580Y-41483333D01*
X183339580Y-41483333D02*
X183387200Y-41530952D01*
X183387200Y-41530952D02*
X183434819Y-41626190D01*
X183434819Y-41626190D02*
X183434819Y-41721428D01*
X183434819Y-41721428D02*
X183387200Y-41816666D01*
X183387200Y-41816666D02*
X183339580Y-41864285D01*
X183339580Y-41864285D02*
X183244342Y-41911904D01*
X183244342Y-41911904D02*
X183053866Y-41959523D01*
X183053866Y-41959523D02*
X182815771Y-41959523D01*
X182815771Y-41959523D02*
X182625295Y-41911904D01*
X182625295Y-41911904D02*
X182530057Y-41864285D01*
X182530057Y-41864285D02*
X182482438Y-41816666D01*
X182482438Y-41816666D02*
X182434819Y-41721428D01*
X247701905Y-34324819D02*
X247701905Y-33324819D01*
X247701905Y-33324819D02*
X247940000Y-33324819D01*
X247940000Y-33324819D02*
X248082857Y-33372438D01*
X248082857Y-33372438D02*
X248178095Y-33467676D01*
X248178095Y-33467676D02*
X248225714Y-33562914D01*
X248225714Y-33562914D02*
X248273333Y-33753390D01*
X248273333Y-33753390D02*
X248273333Y-33896247D01*
X248273333Y-33896247D02*
X248225714Y-34086723D01*
X248225714Y-34086723D02*
X248178095Y-34181961D01*
X248178095Y-34181961D02*
X248082857Y-34277200D01*
X248082857Y-34277200D02*
X247940000Y-34324819D01*
X247940000Y-34324819D02*
X247701905Y-34324819D01*
X249130476Y-33658152D02*
X249130476Y-34324819D01*
X248892381Y-33277200D02*
X248654286Y-33991485D01*
X248654286Y-33991485D02*
X249273333Y-33991485D01*
X187607319Y-43128094D02*
X188416842Y-43128094D01*
X188416842Y-43128094D02*
X188512080Y-43080475D01*
X188512080Y-43080475D02*
X188559700Y-43032856D01*
X188559700Y-43032856D02*
X188607319Y-42937618D01*
X188607319Y-42937618D02*
X188607319Y-42747142D01*
X188607319Y-42747142D02*
X188559700Y-42651904D01*
X188559700Y-42651904D02*
X188512080Y-42604285D01*
X188512080Y-42604285D02*
X188416842Y-42556666D01*
X188416842Y-42556666D02*
X187607319Y-42556666D01*
X188607319Y-41556666D02*
X188607319Y-42128094D01*
X188607319Y-41842380D02*
X187607319Y-41842380D01*
X187607319Y-41842380D02*
X187750176Y-41937618D01*
X187750176Y-41937618D02*
X187845414Y-42032856D01*
X187845414Y-42032856D02*
X187893033Y-42128094D01*
X187702557Y-41175713D02*
X187654938Y-41128094D01*
X187654938Y-41128094D02*
X187607319Y-41032856D01*
X187607319Y-41032856D02*
X187607319Y-40794761D01*
X187607319Y-40794761D02*
X187654938Y-40699523D01*
X187654938Y-40699523D02*
X187702557Y-40651904D01*
X187702557Y-40651904D02*
X187797795Y-40604285D01*
X187797795Y-40604285D02*
X187893033Y-40604285D01*
X187893033Y-40604285D02*
X188035890Y-40651904D01*
X188035890Y-40651904D02*
X188607319Y-41223332D01*
X188607319Y-41223332D02*
X188607319Y-40604285D01*
X192112142Y-64694580D02*
X192064523Y-64742200D01*
X192064523Y-64742200D02*
X191921666Y-64789819D01*
X191921666Y-64789819D02*
X191826428Y-64789819D01*
X191826428Y-64789819D02*
X191683571Y-64742200D01*
X191683571Y-64742200D02*
X191588333Y-64646961D01*
X191588333Y-64646961D02*
X191540714Y-64551723D01*
X191540714Y-64551723D02*
X191493095Y-64361247D01*
X191493095Y-64361247D02*
X191493095Y-64218390D01*
X191493095Y-64218390D02*
X191540714Y-64027914D01*
X191540714Y-64027914D02*
X191588333Y-63932676D01*
X191588333Y-63932676D02*
X191683571Y-63837438D01*
X191683571Y-63837438D02*
X191826428Y-63789819D01*
X191826428Y-63789819D02*
X191921666Y-63789819D01*
X191921666Y-63789819D02*
X192064523Y-63837438D01*
X192064523Y-63837438D02*
X192112142Y-63885057D01*
X193064523Y-64789819D02*
X192493095Y-64789819D01*
X192778809Y-64789819D02*
X192778809Y-63789819D01*
X192778809Y-63789819D02*
X192683571Y-63932676D01*
X192683571Y-63932676D02*
X192588333Y-64027914D01*
X192588333Y-64027914D02*
X192493095Y-64075533D01*
X193397857Y-63789819D02*
X194016904Y-63789819D01*
X194016904Y-63789819D02*
X193683571Y-64170771D01*
X193683571Y-64170771D02*
X193826428Y-64170771D01*
X193826428Y-64170771D02*
X193921666Y-64218390D01*
X193921666Y-64218390D02*
X193969285Y-64266009D01*
X193969285Y-64266009D02*
X194016904Y-64361247D01*
X194016904Y-64361247D02*
X194016904Y-64599342D01*
X194016904Y-64599342D02*
X193969285Y-64694580D01*
X193969285Y-64694580D02*
X193921666Y-64742200D01*
X193921666Y-64742200D02*
X193826428Y-64789819D01*
X193826428Y-64789819D02*
X193540714Y-64789819D01*
X193540714Y-64789819D02*
X193445476Y-64742200D01*
X193445476Y-64742200D02*
X193397857Y-64694580D01*
X247134819Y-36932857D02*
X246658628Y-37266190D01*
X247134819Y-37504285D02*
X246134819Y-37504285D01*
X246134819Y-37504285D02*
X246134819Y-37123333D01*
X246134819Y-37123333D02*
X246182438Y-37028095D01*
X246182438Y-37028095D02*
X246230057Y-36980476D01*
X246230057Y-36980476D02*
X246325295Y-36932857D01*
X246325295Y-36932857D02*
X246468152Y-36932857D01*
X246468152Y-36932857D02*
X246563390Y-36980476D01*
X246563390Y-36980476D02*
X246611009Y-37028095D01*
X246611009Y-37028095D02*
X246658628Y-37123333D01*
X246658628Y-37123333D02*
X246658628Y-37504285D01*
X247134819Y-35980476D02*
X247134819Y-36551904D01*
X247134819Y-36266190D02*
X246134819Y-36266190D01*
X246134819Y-36266190D02*
X246277676Y-36361428D01*
X246277676Y-36361428D02*
X246372914Y-36456666D01*
X246372914Y-36456666D02*
X246420533Y-36551904D01*
X247134819Y-35028095D02*
X247134819Y-35599523D01*
X247134819Y-35313809D02*
X246134819Y-35313809D01*
X246134819Y-35313809D02*
X246277676Y-35409047D01*
X246277676Y-35409047D02*
X246372914Y-35504285D01*
X246372914Y-35504285D02*
X246420533Y-35599523D01*
X213957200Y-36083332D02*
X214004819Y-35940475D01*
X214004819Y-35940475D02*
X214004819Y-35702380D01*
X214004819Y-35702380D02*
X213957200Y-35607142D01*
X213957200Y-35607142D02*
X213909580Y-35559523D01*
X213909580Y-35559523D02*
X213814342Y-35511904D01*
X213814342Y-35511904D02*
X213719104Y-35511904D01*
X213719104Y-35511904D02*
X213623866Y-35559523D01*
X213623866Y-35559523D02*
X213576247Y-35607142D01*
X213576247Y-35607142D02*
X213528628Y-35702380D01*
X213528628Y-35702380D02*
X213481009Y-35892856D01*
X213481009Y-35892856D02*
X213433390Y-35988094D01*
X213433390Y-35988094D02*
X213385771Y-36035713D01*
X213385771Y-36035713D02*
X213290533Y-36083332D01*
X213290533Y-36083332D02*
X213195295Y-36083332D01*
X213195295Y-36083332D02*
X213100057Y-36035713D01*
X213100057Y-36035713D02*
X213052438Y-35988094D01*
X213052438Y-35988094D02*
X213004819Y-35892856D01*
X213004819Y-35892856D02*
X213004819Y-35654761D01*
X213004819Y-35654761D02*
X213052438Y-35511904D01*
X213004819Y-35178570D02*
X214004819Y-34940475D01*
X214004819Y-34940475D02*
X213290533Y-34749999D01*
X213290533Y-34749999D02*
X214004819Y-34559523D01*
X214004819Y-34559523D02*
X213004819Y-34321428D01*
X213100057Y-33988094D02*
X213052438Y-33940475D01*
X213052438Y-33940475D02*
X213004819Y-33845237D01*
X213004819Y-33845237D02*
X213004819Y-33607142D01*
X213004819Y-33607142D02*
X213052438Y-33511904D01*
X213052438Y-33511904D02*
X213100057Y-33464285D01*
X213100057Y-33464285D02*
X213195295Y-33416666D01*
X213195295Y-33416666D02*
X213290533Y-33416666D01*
X213290533Y-33416666D02*
X213433390Y-33464285D01*
X213433390Y-33464285D02*
X214004819Y-34035713D01*
X214004819Y-34035713D02*
X214004819Y-33416666D01*
X240364819Y-42539285D02*
X239888628Y-42805952D01*
X240364819Y-42996428D02*
X239364819Y-42996428D01*
X239364819Y-42996428D02*
X239364819Y-42691666D01*
X239364819Y-42691666D02*
X239412438Y-42615476D01*
X239412438Y-42615476D02*
X239460057Y-42577381D01*
X239460057Y-42577381D02*
X239555295Y-42539285D01*
X239555295Y-42539285D02*
X239698152Y-42539285D01*
X239698152Y-42539285D02*
X239793390Y-42577381D01*
X239793390Y-42577381D02*
X239841009Y-42615476D01*
X239841009Y-42615476D02*
X239888628Y-42691666D01*
X239888628Y-42691666D02*
X239888628Y-42996428D01*
X239460057Y-42234524D02*
X239412438Y-42196428D01*
X239412438Y-42196428D02*
X239364819Y-42120238D01*
X239364819Y-42120238D02*
X239364819Y-41929762D01*
X239364819Y-41929762D02*
X239412438Y-41853571D01*
X239412438Y-41853571D02*
X239460057Y-41815476D01*
X239460057Y-41815476D02*
X239555295Y-41777381D01*
X239555295Y-41777381D02*
X239650533Y-41777381D01*
X239650533Y-41777381D02*
X239793390Y-41815476D01*
X239793390Y-41815476D02*
X240364819Y-42272619D01*
X240364819Y-42272619D02*
X240364819Y-41777381D01*
X240364819Y-41396428D02*
X240364819Y-41244047D01*
X240364819Y-41244047D02*
X240317200Y-41167857D01*
X240317200Y-41167857D02*
X240269580Y-41129761D01*
X240269580Y-41129761D02*
X240126723Y-41053571D01*
X240126723Y-41053571D02*
X239936247Y-41015476D01*
X239936247Y-41015476D02*
X239555295Y-41015476D01*
X239555295Y-41015476D02*
X239460057Y-41053571D01*
X239460057Y-41053571D02*
X239412438Y-41091666D01*
X239412438Y-41091666D02*
X239364819Y-41167857D01*
X239364819Y-41167857D02*
X239364819Y-41320238D01*
X239364819Y-41320238D02*
X239412438Y-41396428D01*
X239412438Y-41396428D02*
X239460057Y-41434523D01*
X239460057Y-41434523D02*
X239555295Y-41472619D01*
X239555295Y-41472619D02*
X239793390Y-41472619D01*
X239793390Y-41472619D02*
X239888628Y-41434523D01*
X239888628Y-41434523D02*
X239936247Y-41396428D01*
X239936247Y-41396428D02*
X239983866Y-41320238D01*
X239983866Y-41320238D02*
X239983866Y-41167857D01*
X239983866Y-41167857D02*
X239936247Y-41091666D01*
X239936247Y-41091666D02*
X239888628Y-41053571D01*
X239888628Y-41053571D02*
X239793390Y-41015476D01*
X59852080Y-53852857D02*
X59899700Y-53900476D01*
X59899700Y-53900476D02*
X59947319Y-54043333D01*
X59947319Y-54043333D02*
X59947319Y-54138571D01*
X59947319Y-54138571D02*
X59899700Y-54281428D01*
X59899700Y-54281428D02*
X59804461Y-54376666D01*
X59804461Y-54376666D02*
X59709223Y-54424285D01*
X59709223Y-54424285D02*
X59518747Y-54471904D01*
X59518747Y-54471904D02*
X59375890Y-54471904D01*
X59375890Y-54471904D02*
X59185414Y-54424285D01*
X59185414Y-54424285D02*
X59090176Y-54376666D01*
X59090176Y-54376666D02*
X58994938Y-54281428D01*
X58994938Y-54281428D02*
X58947319Y-54138571D01*
X58947319Y-54138571D02*
X58947319Y-54043333D01*
X58947319Y-54043333D02*
X58994938Y-53900476D01*
X58994938Y-53900476D02*
X59042557Y-53852857D01*
X59947319Y-52900476D02*
X59947319Y-53471904D01*
X59947319Y-53186190D02*
X58947319Y-53186190D01*
X58947319Y-53186190D02*
X59090176Y-53281428D01*
X59090176Y-53281428D02*
X59185414Y-53376666D01*
X59185414Y-53376666D02*
X59233033Y-53471904D01*
X58947319Y-51995714D02*
X58947319Y-52471904D01*
X58947319Y-52471904D02*
X59423509Y-52519523D01*
X59423509Y-52519523D02*
X59375890Y-52471904D01*
X59375890Y-52471904D02*
X59328271Y-52376666D01*
X59328271Y-52376666D02*
X59328271Y-52138571D01*
X59328271Y-52138571D02*
X59375890Y-52043333D01*
X59375890Y-52043333D02*
X59423509Y-51995714D01*
X59423509Y-51995714D02*
X59518747Y-51948095D01*
X59518747Y-51948095D02*
X59756842Y-51948095D01*
X59756842Y-51948095D02*
X59852080Y-51995714D01*
X59852080Y-51995714D02*
X59899700Y-52043333D01*
X59899700Y-52043333D02*
X59947319Y-52138571D01*
X59947319Y-52138571D02*
X59947319Y-52376666D01*
X59947319Y-52376666D02*
X59899700Y-52471904D01*
X59899700Y-52471904D02*
X59852080Y-52519523D01*
X189924819Y-72323094D02*
X190734342Y-72323094D01*
X190734342Y-72323094D02*
X190829580Y-72275475D01*
X190829580Y-72275475D02*
X190877200Y-72227856D01*
X190877200Y-72227856D02*
X190924819Y-72132618D01*
X190924819Y-72132618D02*
X190924819Y-71942142D01*
X190924819Y-71942142D02*
X190877200Y-71846904D01*
X190877200Y-71846904D02*
X190829580Y-71799285D01*
X190829580Y-71799285D02*
X190734342Y-71751666D01*
X190734342Y-71751666D02*
X189924819Y-71751666D01*
X190924819Y-70751666D02*
X190924819Y-71323094D01*
X190924819Y-71037380D02*
X189924819Y-71037380D01*
X189924819Y-71037380D02*
X190067676Y-71132618D01*
X190067676Y-71132618D02*
X190162914Y-71227856D01*
X190162914Y-71227856D02*
X190210533Y-71323094D01*
X190924819Y-69799285D02*
X190924819Y-70370713D01*
X190924819Y-70084999D02*
X189924819Y-70084999D01*
X189924819Y-70084999D02*
X190067676Y-70180237D01*
X190067676Y-70180237D02*
X190162914Y-70275475D01*
X190162914Y-70275475D02*
X190210533Y-70370713D01*
D12*
X138468095Y-50448800D02*
X138610952Y-50496419D01*
X138610952Y-50496419D02*
X138849047Y-50496419D01*
X138849047Y-50496419D02*
X138944285Y-50448800D01*
X138944285Y-50448800D02*
X138991904Y-50401180D01*
X138991904Y-50401180D02*
X139039523Y-50305942D01*
X139039523Y-50305942D02*
X139039523Y-50210704D01*
X139039523Y-50210704D02*
X138991904Y-50115466D01*
X138991904Y-50115466D02*
X138944285Y-50067847D01*
X138944285Y-50067847D02*
X138849047Y-50020228D01*
X138849047Y-50020228D02*
X138658571Y-49972609D01*
X138658571Y-49972609D02*
X138563333Y-49924990D01*
X138563333Y-49924990D02*
X138515714Y-49877371D01*
X138515714Y-49877371D02*
X138468095Y-49782133D01*
X138468095Y-49782133D02*
X138468095Y-49686895D01*
X138468095Y-49686895D02*
X138515714Y-49591657D01*
X138515714Y-49591657D02*
X138563333Y-49544038D01*
X138563333Y-49544038D02*
X138658571Y-49496419D01*
X138658571Y-49496419D02*
X138896666Y-49496419D01*
X138896666Y-49496419D02*
X139039523Y-49544038D01*
X139991904Y-50496419D02*
X139420476Y-50496419D01*
X139706190Y-50496419D02*
X139706190Y-49496419D01*
X139706190Y-49496419D02*
X139610952Y-49639276D01*
X139610952Y-49639276D02*
X139515714Y-49734514D01*
X139515714Y-49734514D02*
X139420476Y-49782133D01*
D10*
X39091905Y-34494819D02*
X39091905Y-33494819D01*
X39091905Y-33494819D02*
X39330000Y-33494819D01*
X39330000Y-33494819D02*
X39472857Y-33542438D01*
X39472857Y-33542438D02*
X39568095Y-33637676D01*
X39568095Y-33637676D02*
X39615714Y-33732914D01*
X39615714Y-33732914D02*
X39663333Y-33923390D01*
X39663333Y-33923390D02*
X39663333Y-34066247D01*
X39663333Y-34066247D02*
X39615714Y-34256723D01*
X39615714Y-34256723D02*
X39568095Y-34351961D01*
X39568095Y-34351961D02*
X39472857Y-34447200D01*
X39472857Y-34447200D02*
X39330000Y-34494819D01*
X39330000Y-34494819D02*
X39091905Y-34494819D01*
X39996667Y-33494819D02*
X40615714Y-33494819D01*
X40615714Y-33494819D02*
X40282381Y-33875771D01*
X40282381Y-33875771D02*
X40425238Y-33875771D01*
X40425238Y-33875771D02*
X40520476Y-33923390D01*
X40520476Y-33923390D02*
X40568095Y-33971009D01*
X40568095Y-33971009D02*
X40615714Y-34066247D01*
X40615714Y-34066247D02*
X40615714Y-34304342D01*
X40615714Y-34304342D02*
X40568095Y-34399580D01*
X40568095Y-34399580D02*
X40520476Y-34447200D01*
X40520476Y-34447200D02*
X40425238Y-34494819D01*
X40425238Y-34494819D02*
X40139524Y-34494819D01*
X40139524Y-34494819D02*
X40044286Y-34447200D01*
X40044286Y-34447200D02*
X39996667Y-34399580D01*
X48343333Y-36344819D02*
X48010000Y-35868628D01*
X47771905Y-36344819D02*
X47771905Y-35344819D01*
X47771905Y-35344819D02*
X48152857Y-35344819D01*
X48152857Y-35344819D02*
X48248095Y-35392438D01*
X48248095Y-35392438D02*
X48295714Y-35440057D01*
X48295714Y-35440057D02*
X48343333Y-35535295D01*
X48343333Y-35535295D02*
X48343333Y-35678152D01*
X48343333Y-35678152D02*
X48295714Y-35773390D01*
X48295714Y-35773390D02*
X48248095Y-35821009D01*
X48248095Y-35821009D02*
X48152857Y-35868628D01*
X48152857Y-35868628D02*
X47771905Y-35868628D01*
X49295714Y-36344819D02*
X48724286Y-36344819D01*
X49010000Y-36344819D02*
X49010000Y-35344819D01*
X49010000Y-35344819D02*
X48914762Y-35487676D01*
X48914762Y-35487676D02*
X48819524Y-35582914D01*
X48819524Y-35582914D02*
X48724286Y-35630533D01*
X214619580Y-38742857D02*
X214667200Y-38790476D01*
X214667200Y-38790476D02*
X214714819Y-38933333D01*
X214714819Y-38933333D02*
X214714819Y-39028571D01*
X214714819Y-39028571D02*
X214667200Y-39171428D01*
X214667200Y-39171428D02*
X214571961Y-39266666D01*
X214571961Y-39266666D02*
X214476723Y-39314285D01*
X214476723Y-39314285D02*
X214286247Y-39361904D01*
X214286247Y-39361904D02*
X214143390Y-39361904D01*
X214143390Y-39361904D02*
X213952914Y-39314285D01*
X213952914Y-39314285D02*
X213857676Y-39266666D01*
X213857676Y-39266666D02*
X213762438Y-39171428D01*
X213762438Y-39171428D02*
X213714819Y-39028571D01*
X213714819Y-39028571D02*
X213714819Y-38933333D01*
X213714819Y-38933333D02*
X213762438Y-38790476D01*
X213762438Y-38790476D02*
X213810057Y-38742857D01*
X214714819Y-37790476D02*
X214714819Y-38361904D01*
X214714819Y-38076190D02*
X213714819Y-38076190D01*
X213714819Y-38076190D02*
X213857676Y-38171428D01*
X213857676Y-38171428D02*
X213952914Y-38266666D01*
X213952914Y-38266666D02*
X214000533Y-38361904D01*
X213714819Y-36933333D02*
X213714819Y-37123809D01*
X213714819Y-37123809D02*
X213762438Y-37219047D01*
X213762438Y-37219047D02*
X213810057Y-37266666D01*
X213810057Y-37266666D02*
X213952914Y-37361904D01*
X213952914Y-37361904D02*
X214143390Y-37409523D01*
X214143390Y-37409523D02*
X214524342Y-37409523D01*
X214524342Y-37409523D02*
X214619580Y-37361904D01*
X214619580Y-37361904D02*
X214667200Y-37314285D01*
X214667200Y-37314285D02*
X214714819Y-37219047D01*
X214714819Y-37219047D02*
X214714819Y-37028571D01*
X214714819Y-37028571D02*
X214667200Y-36933333D01*
X214667200Y-36933333D02*
X214619580Y-36885714D01*
X214619580Y-36885714D02*
X214524342Y-36838095D01*
X214524342Y-36838095D02*
X214286247Y-36838095D01*
X214286247Y-36838095D02*
X214191009Y-36885714D01*
X214191009Y-36885714D02*
X214143390Y-36933333D01*
X214143390Y-36933333D02*
X214095771Y-37028571D01*
X214095771Y-37028571D02*
X214095771Y-37219047D01*
X214095771Y-37219047D02*
X214143390Y-37314285D01*
X214143390Y-37314285D02*
X214191009Y-37361904D01*
X214191009Y-37361904D02*
X214286247Y-37409523D01*
X192801009Y-44758333D02*
X192801009Y-45091666D01*
X193324819Y-45091666D02*
X192324819Y-45091666D01*
X192324819Y-45091666D02*
X192324819Y-44615476D01*
X193324819Y-43710714D02*
X193324819Y-44282142D01*
X193324819Y-43996428D02*
X192324819Y-43996428D01*
X192324819Y-43996428D02*
X192467676Y-44091666D01*
X192467676Y-44091666D02*
X192562914Y-44186904D01*
X192562914Y-44186904D02*
X192610533Y-44282142D01*
X209903333Y-49144819D02*
X209570000Y-48668628D01*
X209331905Y-49144819D02*
X209331905Y-48144819D01*
X209331905Y-48144819D02*
X209712857Y-48144819D01*
X209712857Y-48144819D02*
X209808095Y-48192438D01*
X209808095Y-48192438D02*
X209855714Y-48240057D01*
X209855714Y-48240057D02*
X209903333Y-48335295D01*
X209903333Y-48335295D02*
X209903333Y-48478152D01*
X209903333Y-48478152D02*
X209855714Y-48573390D01*
X209855714Y-48573390D02*
X209808095Y-48621009D01*
X209808095Y-48621009D02*
X209712857Y-48668628D01*
X209712857Y-48668628D02*
X209331905Y-48668628D01*
X210808095Y-48144819D02*
X210331905Y-48144819D01*
X210331905Y-48144819D02*
X210284286Y-48621009D01*
X210284286Y-48621009D02*
X210331905Y-48573390D01*
X210331905Y-48573390D02*
X210427143Y-48525771D01*
X210427143Y-48525771D02*
X210665238Y-48525771D01*
X210665238Y-48525771D02*
X210760476Y-48573390D01*
X210760476Y-48573390D02*
X210808095Y-48621009D01*
X210808095Y-48621009D02*
X210855714Y-48716247D01*
X210855714Y-48716247D02*
X210855714Y-48954342D01*
X210855714Y-48954342D02*
X210808095Y-49049580D01*
X210808095Y-49049580D02*
X210760476Y-49097200D01*
X210760476Y-49097200D02*
X210665238Y-49144819D01*
X210665238Y-49144819D02*
X210427143Y-49144819D01*
X210427143Y-49144819D02*
X210331905Y-49097200D01*
X210331905Y-49097200D02*
X210284286Y-49049580D01*
X204736667Y-37527200D02*
X204879524Y-37574819D01*
X204879524Y-37574819D02*
X205117619Y-37574819D01*
X205117619Y-37574819D02*
X205212857Y-37527200D01*
X205212857Y-37527200D02*
X205260476Y-37479580D01*
X205260476Y-37479580D02*
X205308095Y-37384342D01*
X205308095Y-37384342D02*
X205308095Y-37289104D01*
X205308095Y-37289104D02*
X205260476Y-37193866D01*
X205260476Y-37193866D02*
X205212857Y-37146247D01*
X205212857Y-37146247D02*
X205117619Y-37098628D01*
X205117619Y-37098628D02*
X204927143Y-37051009D01*
X204927143Y-37051009D02*
X204831905Y-37003390D01*
X204831905Y-37003390D02*
X204784286Y-36955771D01*
X204784286Y-36955771D02*
X204736667Y-36860533D01*
X204736667Y-36860533D02*
X204736667Y-36765295D01*
X204736667Y-36765295D02*
X204784286Y-36670057D01*
X204784286Y-36670057D02*
X204831905Y-36622438D01*
X204831905Y-36622438D02*
X204927143Y-36574819D01*
X204927143Y-36574819D02*
X205165238Y-36574819D01*
X205165238Y-36574819D02*
X205308095Y-36622438D01*
X205641429Y-36574819D02*
X205879524Y-37574819D01*
X205879524Y-37574819D02*
X206070000Y-36860533D01*
X206070000Y-36860533D02*
X206260476Y-37574819D01*
X206260476Y-37574819D02*
X206498572Y-36574819D01*
X207403333Y-37574819D02*
X206831905Y-37574819D01*
X207117619Y-37574819D02*
X207117619Y-36574819D01*
X207117619Y-36574819D02*
X207022381Y-36717676D01*
X207022381Y-36717676D02*
X206927143Y-36812914D01*
X206927143Y-36812914D02*
X206831905Y-36860533D01*
X252559580Y-57210952D02*
X252607200Y-57258571D01*
X252607200Y-57258571D02*
X252654819Y-57401428D01*
X252654819Y-57401428D02*
X252654819Y-57496666D01*
X252654819Y-57496666D02*
X252607200Y-57639523D01*
X252607200Y-57639523D02*
X252511961Y-57734761D01*
X252511961Y-57734761D02*
X252416723Y-57782380D01*
X252416723Y-57782380D02*
X252226247Y-57829999D01*
X252226247Y-57829999D02*
X252083390Y-57829999D01*
X252083390Y-57829999D02*
X251892914Y-57782380D01*
X251892914Y-57782380D02*
X251797676Y-57734761D01*
X251797676Y-57734761D02*
X251702438Y-57639523D01*
X251702438Y-57639523D02*
X251654819Y-57496666D01*
X251654819Y-57496666D02*
X251654819Y-57401428D01*
X251654819Y-57401428D02*
X251702438Y-57258571D01*
X251702438Y-57258571D02*
X251750057Y-57210952D01*
X252654819Y-56353809D02*
X252131009Y-56353809D01*
X252131009Y-56353809D02*
X252035771Y-56401428D01*
X252035771Y-56401428D02*
X251988152Y-56496666D01*
X251988152Y-56496666D02*
X251988152Y-56687142D01*
X251988152Y-56687142D02*
X252035771Y-56782380D01*
X252607200Y-56353809D02*
X252654819Y-56449047D01*
X252654819Y-56449047D02*
X252654819Y-56687142D01*
X252654819Y-56687142D02*
X252607200Y-56782380D01*
X252607200Y-56782380D02*
X252511961Y-56829999D01*
X252511961Y-56829999D02*
X252416723Y-56829999D01*
X252416723Y-56829999D02*
X252321485Y-56782380D01*
X252321485Y-56782380D02*
X252273866Y-56687142D01*
X252273866Y-56687142D02*
X252273866Y-56449047D01*
X252273866Y-56449047D02*
X252226247Y-56353809D01*
X252654819Y-55877618D02*
X251988152Y-55877618D01*
X252178628Y-55877618D02*
X252083390Y-55829999D01*
X252083390Y-55829999D02*
X252035771Y-55782380D01*
X252035771Y-55782380D02*
X251988152Y-55687142D01*
X251988152Y-55687142D02*
X251988152Y-55591904D01*
X252654819Y-54829999D02*
X251654819Y-54829999D01*
X252607200Y-54829999D02*
X252654819Y-54925237D01*
X252654819Y-54925237D02*
X252654819Y-55115713D01*
X252654819Y-55115713D02*
X252607200Y-55210951D01*
X252607200Y-55210951D02*
X252559580Y-55258570D01*
X252559580Y-55258570D02*
X252464342Y-55306189D01*
X252464342Y-55306189D02*
X252178628Y-55306189D01*
X252178628Y-55306189D02*
X252083390Y-55258570D01*
X252083390Y-55258570D02*
X252035771Y-55210951D01*
X252035771Y-55210951D02*
X251988152Y-55115713D01*
X251988152Y-55115713D02*
X251988152Y-54925237D01*
X251988152Y-54925237D02*
X252035771Y-54829999D01*
X252654819Y-53829999D02*
X252654819Y-54401427D01*
X252654819Y-54115713D02*
X251654819Y-54115713D01*
X251654819Y-54115713D02*
X251797676Y-54210951D01*
X251797676Y-54210951D02*
X251892914Y-54306189D01*
X251892914Y-54306189D02*
X251940533Y-54401427D01*
X45176057Y-40989238D02*
X45128438Y-41084476D01*
X45128438Y-41084476D02*
X45033200Y-41179714D01*
X45033200Y-41179714D02*
X44890342Y-41322571D01*
X44890342Y-41322571D02*
X44842723Y-41417809D01*
X44842723Y-41417809D02*
X44842723Y-41513047D01*
X45080819Y-41465428D02*
X45033200Y-41560666D01*
X45033200Y-41560666D02*
X44937961Y-41655904D01*
X44937961Y-41655904D02*
X44747485Y-41703523D01*
X44747485Y-41703523D02*
X44414152Y-41703523D01*
X44414152Y-41703523D02*
X44223676Y-41655904D01*
X44223676Y-41655904D02*
X44128438Y-41560666D01*
X44128438Y-41560666D02*
X44080819Y-41465428D01*
X44080819Y-41465428D02*
X44080819Y-41274952D01*
X44080819Y-41274952D02*
X44128438Y-41179714D01*
X44128438Y-41179714D02*
X44223676Y-41084476D01*
X44223676Y-41084476D02*
X44414152Y-41036857D01*
X44414152Y-41036857D02*
X44747485Y-41036857D01*
X44747485Y-41036857D02*
X44937961Y-41084476D01*
X44937961Y-41084476D02*
X45033200Y-41179714D01*
X45033200Y-41179714D02*
X45080819Y-41274952D01*
X45080819Y-41274952D02*
X45080819Y-41465428D01*
X44176057Y-40655904D02*
X44128438Y-40608285D01*
X44128438Y-40608285D02*
X44080819Y-40513047D01*
X44080819Y-40513047D02*
X44080819Y-40274952D01*
X44080819Y-40274952D02*
X44128438Y-40179714D01*
X44128438Y-40179714D02*
X44176057Y-40132095D01*
X44176057Y-40132095D02*
X44271295Y-40084476D01*
X44271295Y-40084476D02*
X44366533Y-40084476D01*
X44366533Y-40084476D02*
X44509390Y-40132095D01*
X44509390Y-40132095D02*
X45080819Y-40703523D01*
X45080819Y-40703523D02*
X45080819Y-40084476D01*
X237437200Y-36043332D02*
X237484819Y-35900475D01*
X237484819Y-35900475D02*
X237484819Y-35662380D01*
X237484819Y-35662380D02*
X237437200Y-35567142D01*
X237437200Y-35567142D02*
X237389580Y-35519523D01*
X237389580Y-35519523D02*
X237294342Y-35471904D01*
X237294342Y-35471904D02*
X237199104Y-35471904D01*
X237199104Y-35471904D02*
X237103866Y-35519523D01*
X237103866Y-35519523D02*
X237056247Y-35567142D01*
X237056247Y-35567142D02*
X237008628Y-35662380D01*
X237008628Y-35662380D02*
X236961009Y-35852856D01*
X236961009Y-35852856D02*
X236913390Y-35948094D01*
X236913390Y-35948094D02*
X236865771Y-35995713D01*
X236865771Y-35995713D02*
X236770533Y-36043332D01*
X236770533Y-36043332D02*
X236675295Y-36043332D01*
X236675295Y-36043332D02*
X236580057Y-35995713D01*
X236580057Y-35995713D02*
X236532438Y-35948094D01*
X236532438Y-35948094D02*
X236484819Y-35852856D01*
X236484819Y-35852856D02*
X236484819Y-35614761D01*
X236484819Y-35614761D02*
X236532438Y-35471904D01*
X236484819Y-35138570D02*
X237484819Y-34900475D01*
X237484819Y-34900475D02*
X236770533Y-34709999D01*
X236770533Y-34709999D02*
X237484819Y-34519523D01*
X237484819Y-34519523D02*
X236484819Y-34281428D01*
X236818152Y-33471904D02*
X237484819Y-33471904D01*
X236437200Y-33709999D02*
X237151485Y-33948094D01*
X237151485Y-33948094D02*
X237151485Y-33329047D01*
X215329819Y-71846904D02*
X216139342Y-71846904D01*
X216139342Y-71846904D02*
X216234580Y-71799285D01*
X216234580Y-71799285D02*
X216282200Y-71751666D01*
X216282200Y-71751666D02*
X216329819Y-71656428D01*
X216329819Y-71656428D02*
X216329819Y-71465952D01*
X216329819Y-71465952D02*
X216282200Y-71370714D01*
X216282200Y-71370714D02*
X216234580Y-71323095D01*
X216234580Y-71323095D02*
X216139342Y-71275476D01*
X216139342Y-71275476D02*
X215329819Y-71275476D01*
X216329819Y-70751666D02*
X216329819Y-70561190D01*
X216329819Y-70561190D02*
X216282200Y-70465952D01*
X216282200Y-70465952D02*
X216234580Y-70418333D01*
X216234580Y-70418333D02*
X216091723Y-70323095D01*
X216091723Y-70323095D02*
X215901247Y-70275476D01*
X215901247Y-70275476D02*
X215520295Y-70275476D01*
X215520295Y-70275476D02*
X215425057Y-70323095D01*
X215425057Y-70323095D02*
X215377438Y-70370714D01*
X215377438Y-70370714D02*
X215329819Y-70465952D01*
X215329819Y-70465952D02*
X215329819Y-70656428D01*
X215329819Y-70656428D02*
X215377438Y-70751666D01*
X215377438Y-70751666D02*
X215425057Y-70799285D01*
X215425057Y-70799285D02*
X215520295Y-70846904D01*
X215520295Y-70846904D02*
X215758390Y-70846904D01*
X215758390Y-70846904D02*
X215853628Y-70799285D01*
X215853628Y-70799285D02*
X215901247Y-70751666D01*
X215901247Y-70751666D02*
X215948866Y-70656428D01*
X215948866Y-70656428D02*
X215948866Y-70465952D01*
X215948866Y-70465952D02*
X215901247Y-70370714D01*
X215901247Y-70370714D02*
X215853628Y-70323095D01*
X215853628Y-70323095D02*
X215758390Y-70275476D01*
X252200711Y-45134783D02*
X252153036Y-45230133D01*
X252153036Y-45230133D02*
X252057687Y-45325483D01*
X252057687Y-45325483D02*
X251914662Y-45468508D01*
X251914662Y-45468508D02*
X251866987Y-45563857D01*
X251866987Y-45563857D02*
X251866987Y-45659207D01*
X252105361Y-45611532D02*
X252057687Y-45706882D01*
X252057687Y-45706882D02*
X251962337Y-45802232D01*
X251962337Y-45802232D02*
X251771637Y-45849907D01*
X251771637Y-45849907D02*
X251437913Y-45849907D01*
X251437913Y-45849907D02*
X251247213Y-45802232D01*
X251247213Y-45802232D02*
X251151863Y-45706882D01*
X251151863Y-45706882D02*
X251104188Y-45611532D01*
X251104188Y-45611532D02*
X251104188Y-45420833D01*
X251104188Y-45420833D02*
X251151863Y-45325483D01*
X251151863Y-45325483D02*
X251247213Y-45230133D01*
X251247213Y-45230133D02*
X251437913Y-45182458D01*
X251437913Y-45182458D02*
X251771637Y-45182458D01*
X251771637Y-45182458D02*
X251962337Y-45230133D01*
X251962337Y-45230133D02*
X252057687Y-45325483D01*
X252057687Y-45325483D02*
X252105361Y-45420833D01*
X252105361Y-45420833D02*
X252105361Y-45611532D01*
X251104188Y-44848734D02*
X252105361Y-44610359D01*
X252105361Y-44610359D02*
X251390238Y-44419660D01*
X251390238Y-44419660D02*
X252105361Y-44228960D01*
X252105361Y-44228960D02*
X251104188Y-43990586D01*
X252105361Y-43609186D02*
X251104188Y-43609186D01*
X252105361Y-43132437D02*
X251104188Y-43132437D01*
X252010012Y-42083589D02*
X252057687Y-42131264D01*
X252057687Y-42131264D02*
X252105361Y-42274289D01*
X252105361Y-42274289D02*
X252105361Y-42369639D01*
X252105361Y-42369639D02*
X252057687Y-42512663D01*
X252057687Y-42512663D02*
X251962337Y-42608013D01*
X251962337Y-42608013D02*
X251866987Y-42655688D01*
X251866987Y-42655688D02*
X251676287Y-42703363D01*
X251676287Y-42703363D02*
X251533263Y-42703363D01*
X251533263Y-42703363D02*
X251342563Y-42655688D01*
X251342563Y-42655688D02*
X251247213Y-42608013D01*
X251247213Y-42608013D02*
X251151863Y-42512663D01*
X251151863Y-42512663D02*
X251104188Y-42369639D01*
X251104188Y-42369639D02*
X251104188Y-42274289D01*
X251104188Y-42274289D02*
X251151863Y-42131264D01*
X251151863Y-42131264D02*
X251199538Y-42083589D01*
X251199538Y-41702190D02*
X251151863Y-41654515D01*
X251151863Y-41654515D02*
X251104188Y-41559165D01*
X251104188Y-41559165D02*
X251104188Y-41320791D01*
X251104188Y-41320791D02*
X251151863Y-41225441D01*
X251151863Y-41225441D02*
X251199538Y-41177766D01*
X251199538Y-41177766D02*
X251294888Y-41130091D01*
X251294888Y-41130091D02*
X251390238Y-41130091D01*
X251390238Y-41130091D02*
X251533263Y-41177766D01*
X251533263Y-41177766D02*
X252105361Y-41749865D01*
X252105361Y-41749865D02*
X252105361Y-41130091D01*
X63650833Y-58064819D02*
X63317500Y-57588628D01*
X63079405Y-58064819D02*
X63079405Y-57064819D01*
X63079405Y-57064819D02*
X63460357Y-57064819D01*
X63460357Y-57064819D02*
X63555595Y-57112438D01*
X63555595Y-57112438D02*
X63603214Y-57160057D01*
X63603214Y-57160057D02*
X63650833Y-57255295D01*
X63650833Y-57255295D02*
X63650833Y-57398152D01*
X63650833Y-57398152D02*
X63603214Y-57493390D01*
X63603214Y-57493390D02*
X63555595Y-57541009D01*
X63555595Y-57541009D02*
X63460357Y-57588628D01*
X63460357Y-57588628D02*
X63079405Y-57588628D01*
X64507976Y-57064819D02*
X64317500Y-57064819D01*
X64317500Y-57064819D02*
X64222262Y-57112438D01*
X64222262Y-57112438D02*
X64174643Y-57160057D01*
X64174643Y-57160057D02*
X64079405Y-57302914D01*
X64079405Y-57302914D02*
X64031786Y-57493390D01*
X64031786Y-57493390D02*
X64031786Y-57874342D01*
X64031786Y-57874342D02*
X64079405Y-57969580D01*
X64079405Y-57969580D02*
X64127024Y-58017200D01*
X64127024Y-58017200D02*
X64222262Y-58064819D01*
X64222262Y-58064819D02*
X64412738Y-58064819D01*
X64412738Y-58064819D02*
X64507976Y-58017200D01*
X64507976Y-58017200D02*
X64555595Y-57969580D01*
X64555595Y-57969580D02*
X64603214Y-57874342D01*
X64603214Y-57874342D02*
X64603214Y-57636247D01*
X64603214Y-57636247D02*
X64555595Y-57541009D01*
X64555595Y-57541009D02*
X64507976Y-57493390D01*
X64507976Y-57493390D02*
X64412738Y-57445771D01*
X64412738Y-57445771D02*
X64222262Y-57445771D01*
X64222262Y-57445771D02*
X64127024Y-57493390D01*
X64127024Y-57493390D02*
X64079405Y-57541009D01*
X64079405Y-57541009D02*
X64031786Y-57636247D01*
X197929580Y-44521666D02*
X197977200Y-44569285D01*
X197977200Y-44569285D02*
X198024819Y-44712142D01*
X198024819Y-44712142D02*
X198024819Y-44807380D01*
X198024819Y-44807380D02*
X197977200Y-44950237D01*
X197977200Y-44950237D02*
X197881961Y-45045475D01*
X197881961Y-45045475D02*
X197786723Y-45093094D01*
X197786723Y-45093094D02*
X197596247Y-45140713D01*
X197596247Y-45140713D02*
X197453390Y-45140713D01*
X197453390Y-45140713D02*
X197262914Y-45093094D01*
X197262914Y-45093094D02*
X197167676Y-45045475D01*
X197167676Y-45045475D02*
X197072438Y-44950237D01*
X197072438Y-44950237D02*
X197024819Y-44807380D01*
X197024819Y-44807380D02*
X197024819Y-44712142D01*
X197024819Y-44712142D02*
X197072438Y-44569285D01*
X197072438Y-44569285D02*
X197120057Y-44521666D01*
X198024819Y-43569285D02*
X198024819Y-44140713D01*
X198024819Y-43854999D02*
X197024819Y-43854999D01*
X197024819Y-43854999D02*
X197167676Y-43950237D01*
X197167676Y-43950237D02*
X197262914Y-44045475D01*
X197262914Y-44045475D02*
X197310533Y-44140713D01*
X243864819Y-42614285D02*
X243388628Y-42880952D01*
X243864819Y-43071428D02*
X242864819Y-43071428D01*
X242864819Y-43071428D02*
X242864819Y-42766666D01*
X242864819Y-42766666D02*
X242912438Y-42690476D01*
X242912438Y-42690476D02*
X242960057Y-42652381D01*
X242960057Y-42652381D02*
X243055295Y-42614285D01*
X243055295Y-42614285D02*
X243198152Y-42614285D01*
X243198152Y-42614285D02*
X243293390Y-42652381D01*
X243293390Y-42652381D02*
X243341009Y-42690476D01*
X243341009Y-42690476D02*
X243388628Y-42766666D01*
X243388628Y-42766666D02*
X243388628Y-43071428D01*
X242864819Y-42347619D02*
X242864819Y-41852381D01*
X242864819Y-41852381D02*
X243245771Y-42119047D01*
X243245771Y-42119047D02*
X243245771Y-42004762D01*
X243245771Y-42004762D02*
X243293390Y-41928571D01*
X243293390Y-41928571D02*
X243341009Y-41890476D01*
X243341009Y-41890476D02*
X243436247Y-41852381D01*
X243436247Y-41852381D02*
X243674342Y-41852381D01*
X243674342Y-41852381D02*
X243769580Y-41890476D01*
X243769580Y-41890476D02*
X243817200Y-41928571D01*
X243817200Y-41928571D02*
X243864819Y-42004762D01*
X243864819Y-42004762D02*
X243864819Y-42233333D01*
X243864819Y-42233333D02*
X243817200Y-42309524D01*
X243817200Y-42309524D02*
X243769580Y-42347619D01*
X242960057Y-41547619D02*
X242912438Y-41509523D01*
X242912438Y-41509523D02*
X242864819Y-41433333D01*
X242864819Y-41433333D02*
X242864819Y-41242857D01*
X242864819Y-41242857D02*
X242912438Y-41166666D01*
X242912438Y-41166666D02*
X242960057Y-41128571D01*
X242960057Y-41128571D02*
X243055295Y-41090476D01*
X243055295Y-41090476D02*
X243150533Y-41090476D01*
X243150533Y-41090476D02*
X243293390Y-41128571D01*
X243293390Y-41128571D02*
X243864819Y-41585714D01*
X243864819Y-41585714D02*
X243864819Y-41090476D01*
X230862142Y-64764580D02*
X230814523Y-64812200D01*
X230814523Y-64812200D02*
X230671666Y-64859819D01*
X230671666Y-64859819D02*
X230576428Y-64859819D01*
X230576428Y-64859819D02*
X230433571Y-64812200D01*
X230433571Y-64812200D02*
X230338333Y-64716961D01*
X230338333Y-64716961D02*
X230290714Y-64621723D01*
X230290714Y-64621723D02*
X230243095Y-64431247D01*
X230243095Y-64431247D02*
X230243095Y-64288390D01*
X230243095Y-64288390D02*
X230290714Y-64097914D01*
X230290714Y-64097914D02*
X230338333Y-64002676D01*
X230338333Y-64002676D02*
X230433571Y-63907438D01*
X230433571Y-63907438D02*
X230576428Y-63859819D01*
X230576428Y-63859819D02*
X230671666Y-63859819D01*
X230671666Y-63859819D02*
X230814523Y-63907438D01*
X230814523Y-63907438D02*
X230862142Y-63955057D01*
X231814523Y-64859819D02*
X231243095Y-64859819D01*
X231528809Y-64859819D02*
X231528809Y-63859819D01*
X231528809Y-63859819D02*
X231433571Y-64002676D01*
X231433571Y-64002676D02*
X231338333Y-64097914D01*
X231338333Y-64097914D02*
X231243095Y-64145533D01*
X232433571Y-63859819D02*
X232528809Y-63859819D01*
X232528809Y-63859819D02*
X232624047Y-63907438D01*
X232624047Y-63907438D02*
X232671666Y-63955057D01*
X232671666Y-63955057D02*
X232719285Y-64050295D01*
X232719285Y-64050295D02*
X232766904Y-64240771D01*
X232766904Y-64240771D02*
X232766904Y-64478866D01*
X232766904Y-64478866D02*
X232719285Y-64669342D01*
X232719285Y-64669342D02*
X232671666Y-64764580D01*
X232671666Y-64764580D02*
X232624047Y-64812200D01*
X232624047Y-64812200D02*
X232528809Y-64859819D01*
X232528809Y-64859819D02*
X232433571Y-64859819D01*
X232433571Y-64859819D02*
X232338333Y-64812200D01*
X232338333Y-64812200D02*
X232290714Y-64764580D01*
X232290714Y-64764580D02*
X232243095Y-64669342D01*
X232243095Y-64669342D02*
X232195476Y-64478866D01*
X232195476Y-64478866D02*
X232195476Y-64240771D01*
X232195476Y-64240771D02*
X232243095Y-64050295D01*
X232243095Y-64050295D02*
X232290714Y-63955057D01*
X232290714Y-63955057D02*
X232338333Y-63907438D01*
X232338333Y-63907438D02*
X232433571Y-63859819D01*
X27632819Y-42044857D02*
X27156628Y-42378190D01*
X27632819Y-42616285D02*
X26632819Y-42616285D01*
X26632819Y-42616285D02*
X26632819Y-42235333D01*
X26632819Y-42235333D02*
X26680438Y-42140095D01*
X26680438Y-42140095D02*
X26728057Y-42092476D01*
X26728057Y-42092476D02*
X26823295Y-42044857D01*
X26823295Y-42044857D02*
X26966152Y-42044857D01*
X26966152Y-42044857D02*
X27061390Y-42092476D01*
X27061390Y-42092476D02*
X27109009Y-42140095D01*
X27109009Y-42140095D02*
X27156628Y-42235333D01*
X27156628Y-42235333D02*
X27156628Y-42616285D01*
X27632819Y-41092476D02*
X27632819Y-41663904D01*
X27632819Y-41378190D02*
X26632819Y-41378190D01*
X26632819Y-41378190D02*
X26775676Y-41473428D01*
X26775676Y-41473428D02*
X26870914Y-41568666D01*
X26870914Y-41568666D02*
X26918533Y-41663904D01*
X26966152Y-40235333D02*
X27632819Y-40235333D01*
X26585200Y-40473428D02*
X27299485Y-40711523D01*
X27299485Y-40711523D02*
X27299485Y-40092476D01*
X205612142Y-64694580D02*
X205564523Y-64742200D01*
X205564523Y-64742200D02*
X205421666Y-64789819D01*
X205421666Y-64789819D02*
X205326428Y-64789819D01*
X205326428Y-64789819D02*
X205183571Y-64742200D01*
X205183571Y-64742200D02*
X205088333Y-64646961D01*
X205088333Y-64646961D02*
X205040714Y-64551723D01*
X205040714Y-64551723D02*
X204993095Y-64361247D01*
X204993095Y-64361247D02*
X204993095Y-64218390D01*
X204993095Y-64218390D02*
X205040714Y-64027914D01*
X205040714Y-64027914D02*
X205088333Y-63932676D01*
X205088333Y-63932676D02*
X205183571Y-63837438D01*
X205183571Y-63837438D02*
X205326428Y-63789819D01*
X205326428Y-63789819D02*
X205421666Y-63789819D01*
X205421666Y-63789819D02*
X205564523Y-63837438D01*
X205564523Y-63837438D02*
X205612142Y-63885057D01*
X206564523Y-64789819D02*
X205993095Y-64789819D01*
X206278809Y-64789819D02*
X206278809Y-63789819D01*
X206278809Y-63789819D02*
X206183571Y-63932676D01*
X206183571Y-63932676D02*
X206088333Y-64027914D01*
X206088333Y-64027914D02*
X205993095Y-64075533D01*
X206945476Y-63885057D02*
X206993095Y-63837438D01*
X206993095Y-63837438D02*
X207088333Y-63789819D01*
X207088333Y-63789819D02*
X207326428Y-63789819D01*
X207326428Y-63789819D02*
X207421666Y-63837438D01*
X207421666Y-63837438D02*
X207469285Y-63885057D01*
X207469285Y-63885057D02*
X207516904Y-63980295D01*
X207516904Y-63980295D02*
X207516904Y-64075533D01*
X207516904Y-64075533D02*
X207469285Y-64218390D01*
X207469285Y-64218390D02*
X206897857Y-64789819D01*
X206897857Y-64789819D02*
X207516904Y-64789819D01*
X34023333Y-36414819D02*
X33690000Y-35938628D01*
X33451905Y-36414819D02*
X33451905Y-35414819D01*
X33451905Y-35414819D02*
X33832857Y-35414819D01*
X33832857Y-35414819D02*
X33928095Y-35462438D01*
X33928095Y-35462438D02*
X33975714Y-35510057D01*
X33975714Y-35510057D02*
X34023333Y-35605295D01*
X34023333Y-35605295D02*
X34023333Y-35748152D01*
X34023333Y-35748152D02*
X33975714Y-35843390D01*
X33975714Y-35843390D02*
X33928095Y-35891009D01*
X33928095Y-35891009D02*
X33832857Y-35938628D01*
X33832857Y-35938628D02*
X33451905Y-35938628D01*
X34404286Y-35510057D02*
X34451905Y-35462438D01*
X34451905Y-35462438D02*
X34547143Y-35414819D01*
X34547143Y-35414819D02*
X34785238Y-35414819D01*
X34785238Y-35414819D02*
X34880476Y-35462438D01*
X34880476Y-35462438D02*
X34928095Y-35510057D01*
X34928095Y-35510057D02*
X34975714Y-35605295D01*
X34975714Y-35605295D02*
X34975714Y-35700533D01*
X34975714Y-35700533D02*
X34928095Y-35843390D01*
X34928095Y-35843390D02*
X34356667Y-36414819D01*
X34356667Y-36414819D02*
X34975714Y-36414819D01*
X31869238Y-39047009D02*
X32012095Y-39094628D01*
X32012095Y-39094628D02*
X32059714Y-39142247D01*
X32059714Y-39142247D02*
X32107333Y-39237485D01*
X32107333Y-39237485D02*
X32107333Y-39380342D01*
X32107333Y-39380342D02*
X32059714Y-39475580D01*
X32059714Y-39475580D02*
X32012095Y-39523200D01*
X32012095Y-39523200D02*
X31916857Y-39570819D01*
X31916857Y-39570819D02*
X31535905Y-39570819D01*
X31535905Y-39570819D02*
X31535905Y-38570819D01*
X31535905Y-38570819D02*
X31869238Y-38570819D01*
X31869238Y-38570819D02*
X31964476Y-38618438D01*
X31964476Y-38618438D02*
X32012095Y-38666057D01*
X32012095Y-38666057D02*
X32059714Y-38761295D01*
X32059714Y-38761295D02*
X32059714Y-38856533D01*
X32059714Y-38856533D02*
X32012095Y-38951771D01*
X32012095Y-38951771D02*
X31964476Y-38999390D01*
X31964476Y-38999390D02*
X31869238Y-39047009D01*
X31869238Y-39047009D02*
X31535905Y-39047009D01*
X32535905Y-38570819D02*
X32535905Y-39380342D01*
X32535905Y-39380342D02*
X32583524Y-39475580D01*
X32583524Y-39475580D02*
X32631143Y-39523200D01*
X32631143Y-39523200D02*
X32726381Y-39570819D01*
X32726381Y-39570819D02*
X32916857Y-39570819D01*
X32916857Y-39570819D02*
X33012095Y-39523200D01*
X33012095Y-39523200D02*
X33059714Y-39475580D01*
X33059714Y-39475580D02*
X33107333Y-39380342D01*
X33107333Y-39380342D02*
X33107333Y-38570819D01*
X33488286Y-38570819D02*
X34154952Y-38570819D01*
X34154952Y-38570819D02*
X33488286Y-39570819D01*
X33488286Y-39570819D02*
X34154952Y-39570819D01*
X35059714Y-39570819D02*
X34488286Y-39570819D01*
X34774000Y-39570819D02*
X34774000Y-38570819D01*
X34774000Y-38570819D02*
X34678762Y-38713676D01*
X34678762Y-38713676D02*
X34583524Y-38808914D01*
X34583524Y-38808914D02*
X34488286Y-38856533D01*
X213269580Y-38868285D02*
X213317200Y-38906381D01*
X213317200Y-38906381D02*
X213364819Y-39020666D01*
X213364819Y-39020666D02*
X213364819Y-39096857D01*
X213364819Y-39096857D02*
X213317200Y-39211143D01*
X213317200Y-39211143D02*
X213221961Y-39287333D01*
X213221961Y-39287333D02*
X213126723Y-39325428D01*
X213126723Y-39325428D02*
X212936247Y-39363524D01*
X212936247Y-39363524D02*
X212793390Y-39363524D01*
X212793390Y-39363524D02*
X212602914Y-39325428D01*
X212602914Y-39325428D02*
X212507676Y-39287333D01*
X212507676Y-39287333D02*
X212412438Y-39211143D01*
X212412438Y-39211143D02*
X212364819Y-39096857D01*
X212364819Y-39096857D02*
X212364819Y-39020666D01*
X212364819Y-39020666D02*
X212412438Y-38906381D01*
X212412438Y-38906381D02*
X212460057Y-38868285D01*
X213364819Y-38106381D02*
X213364819Y-38563524D01*
X213364819Y-38334952D02*
X212364819Y-38334952D01*
X212364819Y-38334952D02*
X212507676Y-38411143D01*
X212507676Y-38411143D02*
X212602914Y-38487333D01*
X212602914Y-38487333D02*
X212650533Y-38563524D01*
X212364819Y-37839714D02*
X212364819Y-37306380D01*
X212364819Y-37306380D02*
X213364819Y-37649238D01*
X63180595Y-50164819D02*
X63180595Y-50974342D01*
X63180595Y-50974342D02*
X63228214Y-51069580D01*
X63228214Y-51069580D02*
X63275833Y-51117200D01*
X63275833Y-51117200D02*
X63371071Y-51164819D01*
X63371071Y-51164819D02*
X63561547Y-51164819D01*
X63561547Y-51164819D02*
X63656785Y-51117200D01*
X63656785Y-51117200D02*
X63704404Y-51069580D01*
X63704404Y-51069580D02*
X63752023Y-50974342D01*
X63752023Y-50974342D02*
X63752023Y-50164819D01*
X64752023Y-51164819D02*
X64180595Y-51164819D01*
X64466309Y-51164819D02*
X64466309Y-50164819D01*
X64466309Y-50164819D02*
X64371071Y-50307676D01*
X64371071Y-50307676D02*
X64275833Y-50402914D01*
X64275833Y-50402914D02*
X64180595Y-50450533D01*
X24691200Y-55181332D02*
X24738819Y-55038475D01*
X24738819Y-55038475D02*
X24738819Y-54800380D01*
X24738819Y-54800380D02*
X24691200Y-54705142D01*
X24691200Y-54705142D02*
X24643580Y-54657523D01*
X24643580Y-54657523D02*
X24548342Y-54609904D01*
X24548342Y-54609904D02*
X24453104Y-54609904D01*
X24453104Y-54609904D02*
X24357866Y-54657523D01*
X24357866Y-54657523D02*
X24310247Y-54705142D01*
X24310247Y-54705142D02*
X24262628Y-54800380D01*
X24262628Y-54800380D02*
X24215009Y-54990856D01*
X24215009Y-54990856D02*
X24167390Y-55086094D01*
X24167390Y-55086094D02*
X24119771Y-55133713D01*
X24119771Y-55133713D02*
X24024533Y-55181332D01*
X24024533Y-55181332D02*
X23929295Y-55181332D01*
X23929295Y-55181332D02*
X23834057Y-55133713D01*
X23834057Y-55133713D02*
X23786438Y-55086094D01*
X23786438Y-55086094D02*
X23738819Y-54990856D01*
X23738819Y-54990856D02*
X23738819Y-54752761D01*
X23738819Y-54752761D02*
X23786438Y-54609904D01*
X23738819Y-54276570D02*
X24738819Y-54038475D01*
X24738819Y-54038475D02*
X24024533Y-53847999D01*
X24024533Y-53847999D02*
X24738819Y-53657523D01*
X24738819Y-53657523D02*
X23738819Y-53419428D01*
X23738819Y-53133713D02*
X23738819Y-52514666D01*
X23738819Y-52514666D02*
X24119771Y-52847999D01*
X24119771Y-52847999D02*
X24119771Y-52705142D01*
X24119771Y-52705142D02*
X24167390Y-52609904D01*
X24167390Y-52609904D02*
X24215009Y-52562285D01*
X24215009Y-52562285D02*
X24310247Y-52514666D01*
X24310247Y-52514666D02*
X24548342Y-52514666D01*
X24548342Y-52514666D02*
X24643580Y-52562285D01*
X24643580Y-52562285D02*
X24691200Y-52609904D01*
X24691200Y-52609904D02*
X24738819Y-52705142D01*
X24738819Y-52705142D02*
X24738819Y-52990856D01*
X24738819Y-52990856D02*
X24691200Y-53086094D01*
X24691200Y-53086094D02*
X24643580Y-53133713D01*
X185134819Y-43422857D02*
X184658628Y-43756190D01*
X185134819Y-43994285D02*
X184134819Y-43994285D01*
X184134819Y-43994285D02*
X184134819Y-43613333D01*
X184134819Y-43613333D02*
X184182438Y-43518095D01*
X184182438Y-43518095D02*
X184230057Y-43470476D01*
X184230057Y-43470476D02*
X184325295Y-43422857D01*
X184325295Y-43422857D02*
X184468152Y-43422857D01*
X184468152Y-43422857D02*
X184563390Y-43470476D01*
X184563390Y-43470476D02*
X184611009Y-43518095D01*
X184611009Y-43518095D02*
X184658628Y-43613333D01*
X184658628Y-43613333D02*
X184658628Y-43994285D01*
X185134819Y-42470476D02*
X185134819Y-43041904D01*
X185134819Y-42756190D02*
X184134819Y-42756190D01*
X184134819Y-42756190D02*
X184277676Y-42851428D01*
X184277676Y-42851428D02*
X184372914Y-42946666D01*
X184372914Y-42946666D02*
X184420533Y-43041904D01*
X184230057Y-42089523D02*
X184182438Y-42041904D01*
X184182438Y-42041904D02*
X184134819Y-41946666D01*
X184134819Y-41946666D02*
X184134819Y-41708571D01*
X184134819Y-41708571D02*
X184182438Y-41613333D01*
X184182438Y-41613333D02*
X184230057Y-41565714D01*
X184230057Y-41565714D02*
X184325295Y-41518095D01*
X184325295Y-41518095D02*
X184420533Y-41518095D01*
X184420533Y-41518095D02*
X184563390Y-41565714D01*
X184563390Y-41565714D02*
X185134819Y-42137142D01*
X185134819Y-42137142D02*
X185134819Y-41518095D01*
X245614819Y-42614285D02*
X245138628Y-42880952D01*
X245614819Y-43071428D02*
X244614819Y-43071428D01*
X244614819Y-43071428D02*
X244614819Y-42766666D01*
X244614819Y-42766666D02*
X244662438Y-42690476D01*
X244662438Y-42690476D02*
X244710057Y-42652381D01*
X244710057Y-42652381D02*
X244805295Y-42614285D01*
X244805295Y-42614285D02*
X244948152Y-42614285D01*
X244948152Y-42614285D02*
X245043390Y-42652381D01*
X245043390Y-42652381D02*
X245091009Y-42690476D01*
X245091009Y-42690476D02*
X245138628Y-42766666D01*
X245138628Y-42766666D02*
X245138628Y-43071428D01*
X244614819Y-42347619D02*
X244614819Y-41852381D01*
X244614819Y-41852381D02*
X244995771Y-42119047D01*
X244995771Y-42119047D02*
X244995771Y-42004762D01*
X244995771Y-42004762D02*
X245043390Y-41928571D01*
X245043390Y-41928571D02*
X245091009Y-41890476D01*
X245091009Y-41890476D02*
X245186247Y-41852381D01*
X245186247Y-41852381D02*
X245424342Y-41852381D01*
X245424342Y-41852381D02*
X245519580Y-41890476D01*
X245519580Y-41890476D02*
X245567200Y-41928571D01*
X245567200Y-41928571D02*
X245614819Y-42004762D01*
X245614819Y-42004762D02*
X245614819Y-42233333D01*
X245614819Y-42233333D02*
X245567200Y-42309524D01*
X245567200Y-42309524D02*
X245519580Y-42347619D01*
X244614819Y-41585714D02*
X244614819Y-41090476D01*
X244614819Y-41090476D02*
X244995771Y-41357142D01*
X244995771Y-41357142D02*
X244995771Y-41242857D01*
X244995771Y-41242857D02*
X245043390Y-41166666D01*
X245043390Y-41166666D02*
X245091009Y-41128571D01*
X245091009Y-41128571D02*
X245186247Y-41090476D01*
X245186247Y-41090476D02*
X245424342Y-41090476D01*
X245424342Y-41090476D02*
X245519580Y-41128571D01*
X245519580Y-41128571D02*
X245567200Y-41166666D01*
X245567200Y-41166666D02*
X245614819Y-41242857D01*
X245614819Y-41242857D02*
X245614819Y-41471428D01*
X245614819Y-41471428D02*
X245567200Y-41547619D01*
X245567200Y-41547619D02*
X245519580Y-41585714D01*
X247364819Y-42539285D02*
X246888628Y-42805952D01*
X247364819Y-42996428D02*
X246364819Y-42996428D01*
X246364819Y-42996428D02*
X246364819Y-42691666D01*
X246364819Y-42691666D02*
X246412438Y-42615476D01*
X246412438Y-42615476D02*
X246460057Y-42577381D01*
X246460057Y-42577381D02*
X246555295Y-42539285D01*
X246555295Y-42539285D02*
X246698152Y-42539285D01*
X246698152Y-42539285D02*
X246793390Y-42577381D01*
X246793390Y-42577381D02*
X246841009Y-42615476D01*
X246841009Y-42615476D02*
X246888628Y-42691666D01*
X246888628Y-42691666D02*
X246888628Y-42996428D01*
X246364819Y-42272619D02*
X246364819Y-41777381D01*
X246364819Y-41777381D02*
X246745771Y-42044047D01*
X246745771Y-42044047D02*
X246745771Y-41929762D01*
X246745771Y-41929762D02*
X246793390Y-41853571D01*
X246793390Y-41853571D02*
X246841009Y-41815476D01*
X246841009Y-41815476D02*
X246936247Y-41777381D01*
X246936247Y-41777381D02*
X247174342Y-41777381D01*
X247174342Y-41777381D02*
X247269580Y-41815476D01*
X247269580Y-41815476D02*
X247317200Y-41853571D01*
X247317200Y-41853571D02*
X247364819Y-41929762D01*
X247364819Y-41929762D02*
X247364819Y-42158333D01*
X247364819Y-42158333D02*
X247317200Y-42234524D01*
X247317200Y-42234524D02*
X247269580Y-42272619D01*
X247364819Y-41015476D02*
X247364819Y-41472619D01*
X247364819Y-41244047D02*
X246364819Y-41244047D01*
X246364819Y-41244047D02*
X246507676Y-41320238D01*
X246507676Y-41320238D02*
X246602914Y-41396428D01*
X246602914Y-41396428D02*
X246650533Y-41472619D01*
X63264819Y-36573333D02*
X63979104Y-36573333D01*
X63979104Y-36573333D02*
X64121961Y-36620952D01*
X64121961Y-36620952D02*
X64217200Y-36716190D01*
X64217200Y-36716190D02*
X64264819Y-36859047D01*
X64264819Y-36859047D02*
X64264819Y-36954285D01*
X63360057Y-36144761D02*
X63312438Y-36097142D01*
X63312438Y-36097142D02*
X63264819Y-36001904D01*
X63264819Y-36001904D02*
X63264819Y-35763809D01*
X63264819Y-35763809D02*
X63312438Y-35668571D01*
X63312438Y-35668571D02*
X63360057Y-35620952D01*
X63360057Y-35620952D02*
X63455295Y-35573333D01*
X63455295Y-35573333D02*
X63550533Y-35573333D01*
X63550533Y-35573333D02*
X63693390Y-35620952D01*
X63693390Y-35620952D02*
X64264819Y-36192380D01*
X64264819Y-36192380D02*
X64264819Y-35573333D01*
X68682080Y-53376666D02*
X68729700Y-53424285D01*
X68729700Y-53424285D02*
X68777319Y-53567142D01*
X68777319Y-53567142D02*
X68777319Y-53662380D01*
X68777319Y-53662380D02*
X68729700Y-53805237D01*
X68729700Y-53805237D02*
X68634461Y-53900475D01*
X68634461Y-53900475D02*
X68539223Y-53948094D01*
X68539223Y-53948094D02*
X68348747Y-53995713D01*
X68348747Y-53995713D02*
X68205890Y-53995713D01*
X68205890Y-53995713D02*
X68015414Y-53948094D01*
X68015414Y-53948094D02*
X67920176Y-53900475D01*
X67920176Y-53900475D02*
X67824938Y-53805237D01*
X67824938Y-53805237D02*
X67777319Y-53662380D01*
X67777319Y-53662380D02*
X67777319Y-53567142D01*
X67777319Y-53567142D02*
X67824938Y-53424285D01*
X67824938Y-53424285D02*
X67872557Y-53376666D01*
X67777319Y-52471904D02*
X67777319Y-52948094D01*
X67777319Y-52948094D02*
X68253509Y-52995713D01*
X68253509Y-52995713D02*
X68205890Y-52948094D01*
X68205890Y-52948094D02*
X68158271Y-52852856D01*
X68158271Y-52852856D02*
X68158271Y-52614761D01*
X68158271Y-52614761D02*
X68205890Y-52519523D01*
X68205890Y-52519523D02*
X68253509Y-52471904D01*
X68253509Y-52471904D02*
X68348747Y-52424285D01*
X68348747Y-52424285D02*
X68586842Y-52424285D01*
X68586842Y-52424285D02*
X68682080Y-52471904D01*
X68682080Y-52471904D02*
X68729700Y-52519523D01*
X68729700Y-52519523D02*
X68777319Y-52614761D01*
X68777319Y-52614761D02*
X68777319Y-52852856D01*
X68777319Y-52852856D02*
X68729700Y-52948094D01*
X68729700Y-52948094D02*
X68682080Y-52995713D01*
X198339580Y-50490476D02*
X198387200Y-50538095D01*
X198387200Y-50538095D02*
X198434819Y-50680952D01*
X198434819Y-50680952D02*
X198434819Y-50776190D01*
X198434819Y-50776190D02*
X198387200Y-50919047D01*
X198387200Y-50919047D02*
X198291961Y-51014285D01*
X198291961Y-51014285D02*
X198196723Y-51061904D01*
X198196723Y-51061904D02*
X198006247Y-51109523D01*
X198006247Y-51109523D02*
X197863390Y-51109523D01*
X197863390Y-51109523D02*
X197672914Y-51061904D01*
X197672914Y-51061904D02*
X197577676Y-51014285D01*
X197577676Y-51014285D02*
X197482438Y-50919047D01*
X197482438Y-50919047D02*
X197434819Y-50776190D01*
X197434819Y-50776190D02*
X197434819Y-50680952D01*
X197434819Y-50680952D02*
X197482438Y-50538095D01*
X197482438Y-50538095D02*
X197530057Y-50490476D01*
X198434819Y-50061904D02*
X197434819Y-50061904D01*
X197434819Y-50061904D02*
X198434819Y-49490476D01*
X198434819Y-49490476D02*
X197434819Y-49490476D01*
X197530057Y-49061904D02*
X197482438Y-49014285D01*
X197482438Y-49014285D02*
X197434819Y-48919047D01*
X197434819Y-48919047D02*
X197434819Y-48680952D01*
X197434819Y-48680952D02*
X197482438Y-48585714D01*
X197482438Y-48585714D02*
X197530057Y-48538095D01*
X197530057Y-48538095D02*
X197625295Y-48490476D01*
X197625295Y-48490476D02*
X197720533Y-48490476D01*
X197720533Y-48490476D02*
X197863390Y-48538095D01*
X197863390Y-48538095D02*
X198434819Y-49109523D01*
X198434819Y-49109523D02*
X198434819Y-48490476D01*
X93125216Y-36460711D02*
X93029866Y-36413036D01*
X93029866Y-36413036D02*
X92934516Y-36317687D01*
X92934516Y-36317687D02*
X92791491Y-36174662D01*
X92791491Y-36174662D02*
X92696142Y-36126987D01*
X92696142Y-36126987D02*
X92600792Y-36126987D01*
X92648467Y-36365361D02*
X92553117Y-36317687D01*
X92553117Y-36317687D02*
X92457767Y-36222337D01*
X92457767Y-36222337D02*
X92410092Y-36031637D01*
X92410092Y-36031637D02*
X92410092Y-35697913D01*
X92410092Y-35697913D02*
X92457767Y-35507213D01*
X92457767Y-35507213D02*
X92553117Y-35411863D01*
X92553117Y-35411863D02*
X92648467Y-35364188D01*
X92648467Y-35364188D02*
X92839166Y-35364188D01*
X92839166Y-35364188D02*
X92934516Y-35411863D01*
X92934516Y-35411863D02*
X93029866Y-35507213D01*
X93029866Y-35507213D02*
X93077541Y-35697913D01*
X93077541Y-35697913D02*
X93077541Y-36031637D01*
X93077541Y-36031637D02*
X93029866Y-36222337D01*
X93029866Y-36222337D02*
X92934516Y-36317687D01*
X92934516Y-36317687D02*
X92839166Y-36365361D01*
X92839166Y-36365361D02*
X92648467Y-36365361D01*
X93411265Y-35364188D02*
X93649640Y-36365361D01*
X93649640Y-36365361D02*
X93840339Y-35650238D01*
X93840339Y-35650238D02*
X94031039Y-36365361D01*
X94031039Y-36365361D02*
X94269414Y-35364188D01*
X94650813Y-36365361D02*
X94650813Y-35364188D01*
X95127562Y-36365361D02*
X95127562Y-35364188D01*
X96176410Y-36270012D02*
X96128735Y-36317687D01*
X96128735Y-36317687D02*
X95985710Y-36365361D01*
X95985710Y-36365361D02*
X95890360Y-36365361D01*
X95890360Y-36365361D02*
X95747336Y-36317687D01*
X95747336Y-36317687D02*
X95651986Y-36222337D01*
X95651986Y-36222337D02*
X95604311Y-36126987D01*
X95604311Y-36126987D02*
X95556636Y-35936287D01*
X95556636Y-35936287D02*
X95556636Y-35793263D01*
X95556636Y-35793263D02*
X95604311Y-35602563D01*
X95604311Y-35602563D02*
X95651986Y-35507213D01*
X95651986Y-35507213D02*
X95747336Y-35411863D01*
X95747336Y-35411863D02*
X95890360Y-35364188D01*
X95890360Y-35364188D02*
X95985710Y-35364188D01*
X95985710Y-35364188D02*
X96128735Y-35411863D01*
X96128735Y-35411863D02*
X96176410Y-35459538D01*
X97129908Y-36365361D02*
X96557809Y-36365361D01*
X96843859Y-36365361D02*
X96843859Y-35364188D01*
X96843859Y-35364188D02*
X96748509Y-35507213D01*
X96748509Y-35507213D02*
X96653159Y-35602563D01*
X96653159Y-35602563D02*
X96557809Y-35650238D01*
X196484819Y-44571666D02*
X196484819Y-45047856D01*
X196484819Y-45047856D02*
X195484819Y-45047856D01*
X195580057Y-44285951D02*
X195532438Y-44238332D01*
X195532438Y-44238332D02*
X195484819Y-44143094D01*
X195484819Y-44143094D02*
X195484819Y-43904999D01*
X195484819Y-43904999D02*
X195532438Y-43809761D01*
X195532438Y-43809761D02*
X195580057Y-43762142D01*
X195580057Y-43762142D02*
X195675295Y-43714523D01*
X195675295Y-43714523D02*
X195770533Y-43714523D01*
X195770533Y-43714523D02*
X195913390Y-43762142D01*
X195913390Y-43762142D02*
X196484819Y-44333570D01*
X196484819Y-44333570D02*
X196484819Y-43714523D01*
X211179580Y-44584857D02*
X211227200Y-44632476D01*
X211227200Y-44632476D02*
X211274819Y-44775333D01*
X211274819Y-44775333D02*
X211274819Y-44870571D01*
X211274819Y-44870571D02*
X211227200Y-45013428D01*
X211227200Y-45013428D02*
X211131961Y-45108666D01*
X211131961Y-45108666D02*
X211036723Y-45156285D01*
X211036723Y-45156285D02*
X210846247Y-45203904D01*
X210846247Y-45203904D02*
X210703390Y-45203904D01*
X210703390Y-45203904D02*
X210512914Y-45156285D01*
X210512914Y-45156285D02*
X210417676Y-45108666D01*
X210417676Y-45108666D02*
X210322438Y-45013428D01*
X210322438Y-45013428D02*
X210274819Y-44870571D01*
X210274819Y-44870571D02*
X210274819Y-44775333D01*
X210274819Y-44775333D02*
X210322438Y-44632476D01*
X210322438Y-44632476D02*
X210370057Y-44584857D01*
X210370057Y-44203904D02*
X210322438Y-44156285D01*
X210322438Y-44156285D02*
X210274819Y-44061047D01*
X210274819Y-44061047D02*
X210274819Y-43822952D01*
X210274819Y-43822952D02*
X210322438Y-43727714D01*
X210322438Y-43727714D02*
X210370057Y-43680095D01*
X210370057Y-43680095D02*
X210465295Y-43632476D01*
X210465295Y-43632476D02*
X210560533Y-43632476D01*
X210560533Y-43632476D02*
X210703390Y-43680095D01*
X210703390Y-43680095D02*
X211274819Y-44251523D01*
X211274819Y-44251523D02*
X211274819Y-43632476D01*
X210274819Y-43013428D02*
X210274819Y-42918190D01*
X210274819Y-42918190D02*
X210322438Y-42822952D01*
X210322438Y-42822952D02*
X210370057Y-42775333D01*
X210370057Y-42775333D02*
X210465295Y-42727714D01*
X210465295Y-42727714D02*
X210655771Y-42680095D01*
X210655771Y-42680095D02*
X210893866Y-42680095D01*
X210893866Y-42680095D02*
X211084342Y-42727714D01*
X211084342Y-42727714D02*
X211179580Y-42775333D01*
X211179580Y-42775333D02*
X211227200Y-42822952D01*
X211227200Y-42822952D02*
X211274819Y-42918190D01*
X211274819Y-42918190D02*
X211274819Y-43013428D01*
X211274819Y-43013428D02*
X211227200Y-43108666D01*
X211227200Y-43108666D02*
X211179580Y-43156285D01*
X211179580Y-43156285D02*
X211084342Y-43203904D01*
X211084342Y-43203904D02*
X210893866Y-43251523D01*
X210893866Y-43251523D02*
X210655771Y-43251523D01*
X210655771Y-43251523D02*
X210465295Y-43203904D01*
X210465295Y-43203904D02*
X210370057Y-43156285D01*
X210370057Y-43156285D02*
X210322438Y-43108666D01*
X210322438Y-43108666D02*
X210274819Y-43013428D01*
X244123333Y-64809580D02*
X244075714Y-64857200D01*
X244075714Y-64857200D02*
X243932857Y-64904819D01*
X243932857Y-64904819D02*
X243837619Y-64904819D01*
X243837619Y-64904819D02*
X243694762Y-64857200D01*
X243694762Y-64857200D02*
X243599524Y-64761961D01*
X243599524Y-64761961D02*
X243551905Y-64666723D01*
X243551905Y-64666723D02*
X243504286Y-64476247D01*
X243504286Y-64476247D02*
X243504286Y-64333390D01*
X243504286Y-64333390D02*
X243551905Y-64142914D01*
X243551905Y-64142914D02*
X243599524Y-64047676D01*
X243599524Y-64047676D02*
X243694762Y-63952438D01*
X243694762Y-63952438D02*
X243837619Y-63904819D01*
X243837619Y-63904819D02*
X243932857Y-63904819D01*
X243932857Y-63904819D02*
X244075714Y-63952438D01*
X244075714Y-63952438D02*
X244123333Y-64000057D01*
X244694762Y-64333390D02*
X244599524Y-64285771D01*
X244599524Y-64285771D02*
X244551905Y-64238152D01*
X244551905Y-64238152D02*
X244504286Y-64142914D01*
X244504286Y-64142914D02*
X244504286Y-64095295D01*
X244504286Y-64095295D02*
X244551905Y-64000057D01*
X244551905Y-64000057D02*
X244599524Y-63952438D01*
X244599524Y-63952438D02*
X244694762Y-63904819D01*
X244694762Y-63904819D02*
X244885238Y-63904819D01*
X244885238Y-63904819D02*
X244980476Y-63952438D01*
X244980476Y-63952438D02*
X245028095Y-64000057D01*
X245028095Y-64000057D02*
X245075714Y-64095295D01*
X245075714Y-64095295D02*
X245075714Y-64142914D01*
X245075714Y-64142914D02*
X245028095Y-64238152D01*
X245028095Y-64238152D02*
X244980476Y-64285771D01*
X244980476Y-64285771D02*
X244885238Y-64333390D01*
X244885238Y-64333390D02*
X244694762Y-64333390D01*
X244694762Y-64333390D02*
X244599524Y-64381009D01*
X244599524Y-64381009D02*
X244551905Y-64428628D01*
X244551905Y-64428628D02*
X244504286Y-64523866D01*
X244504286Y-64523866D02*
X244504286Y-64714342D01*
X244504286Y-64714342D02*
X244551905Y-64809580D01*
X244551905Y-64809580D02*
X244599524Y-64857200D01*
X244599524Y-64857200D02*
X244694762Y-64904819D01*
X244694762Y-64904819D02*
X244885238Y-64904819D01*
X244885238Y-64904819D02*
X244980476Y-64857200D01*
X244980476Y-64857200D02*
X245028095Y-64809580D01*
X245028095Y-64809580D02*
X245075714Y-64714342D01*
X245075714Y-64714342D02*
X245075714Y-64523866D01*
X245075714Y-64523866D02*
X245028095Y-64428628D01*
X245028095Y-64428628D02*
X244980476Y-64381009D01*
X244980476Y-64381009D02*
X244885238Y-64333390D01*
X214439580Y-46926666D02*
X214487200Y-46974285D01*
X214487200Y-46974285D02*
X214534819Y-47117142D01*
X214534819Y-47117142D02*
X214534819Y-47212380D01*
X214534819Y-47212380D02*
X214487200Y-47355237D01*
X214487200Y-47355237D02*
X214391961Y-47450475D01*
X214391961Y-47450475D02*
X214296723Y-47498094D01*
X214296723Y-47498094D02*
X214106247Y-47545713D01*
X214106247Y-47545713D02*
X213963390Y-47545713D01*
X213963390Y-47545713D02*
X213772914Y-47498094D01*
X213772914Y-47498094D02*
X213677676Y-47450475D01*
X213677676Y-47450475D02*
X213582438Y-47355237D01*
X213582438Y-47355237D02*
X213534819Y-47212380D01*
X213534819Y-47212380D02*
X213534819Y-47117142D01*
X213534819Y-47117142D02*
X213582438Y-46974285D01*
X213582438Y-46974285D02*
X213630057Y-46926666D01*
X213534819Y-46593332D02*
X213534819Y-45974285D01*
X213534819Y-45974285D02*
X213915771Y-46307618D01*
X213915771Y-46307618D02*
X213915771Y-46164761D01*
X213915771Y-46164761D02*
X213963390Y-46069523D01*
X213963390Y-46069523D02*
X214011009Y-46021904D01*
X214011009Y-46021904D02*
X214106247Y-45974285D01*
X214106247Y-45974285D02*
X214344342Y-45974285D01*
X214344342Y-45974285D02*
X214439580Y-46021904D01*
X214439580Y-46021904D02*
X214487200Y-46069523D01*
X214487200Y-46069523D02*
X214534819Y-46164761D01*
X214534819Y-46164761D02*
X214534819Y-46450475D01*
X214534819Y-46450475D02*
X214487200Y-46545713D01*
X214487200Y-46545713D02*
X214439580Y-46593332D01*
X227468095Y-46214819D02*
X227468095Y-47024342D01*
X227468095Y-47024342D02*
X227515714Y-47119580D01*
X227515714Y-47119580D02*
X227563333Y-47167200D01*
X227563333Y-47167200D02*
X227658571Y-47214819D01*
X227658571Y-47214819D02*
X227849047Y-47214819D01*
X227849047Y-47214819D02*
X227944285Y-47167200D01*
X227944285Y-47167200D02*
X227991904Y-47119580D01*
X227991904Y-47119580D02*
X228039523Y-47024342D01*
X228039523Y-47024342D02*
X228039523Y-46214819D01*
X228944285Y-46548152D02*
X228944285Y-47214819D01*
X228706190Y-46167200D02*
X228468095Y-46881485D01*
X228468095Y-46881485D02*
X229087142Y-46881485D01*
X220393094Y-36179104D02*
X220869284Y-36179104D01*
X220297856Y-36464819D02*
X220631189Y-35464819D01*
X220631189Y-35464819D02*
X220964522Y-36464819D01*
X221297856Y-35798152D02*
X221297856Y-36464819D01*
X221297856Y-35893390D02*
X221345475Y-35845771D01*
X221345475Y-35845771D02*
X221440713Y-35798152D01*
X221440713Y-35798152D02*
X221583570Y-35798152D01*
X221583570Y-35798152D02*
X221678808Y-35845771D01*
X221678808Y-35845771D02*
X221726427Y-35941009D01*
X221726427Y-35941009D02*
X221726427Y-36464819D01*
X222059761Y-35798152D02*
X222440713Y-35798152D01*
X222202618Y-35464819D02*
X222202618Y-36321961D01*
X222202618Y-36321961D02*
X222250237Y-36417200D01*
X222250237Y-36417200D02*
X222345475Y-36464819D01*
X222345475Y-36464819D02*
X222440713Y-36464819D01*
X223154999Y-36417200D02*
X223059761Y-36464819D01*
X223059761Y-36464819D02*
X222869285Y-36464819D01*
X222869285Y-36464819D02*
X222774047Y-36417200D01*
X222774047Y-36417200D02*
X222726428Y-36321961D01*
X222726428Y-36321961D02*
X222726428Y-35941009D01*
X222726428Y-35941009D02*
X222774047Y-35845771D01*
X222774047Y-35845771D02*
X222869285Y-35798152D01*
X222869285Y-35798152D02*
X223059761Y-35798152D01*
X223059761Y-35798152D02*
X223154999Y-35845771D01*
X223154999Y-35845771D02*
X223202618Y-35941009D01*
X223202618Y-35941009D02*
X223202618Y-36036247D01*
X223202618Y-36036247D02*
X222726428Y-36131485D01*
X223631190Y-35798152D02*
X223631190Y-36464819D01*
X223631190Y-35893390D02*
X223678809Y-35845771D01*
X223678809Y-35845771D02*
X223774047Y-35798152D01*
X223774047Y-35798152D02*
X223916904Y-35798152D01*
X223916904Y-35798152D02*
X224012142Y-35845771D01*
X224012142Y-35845771D02*
X224059761Y-35941009D01*
X224059761Y-35941009D02*
X224059761Y-36464819D01*
X224535952Y-35798152D02*
X224535952Y-36464819D01*
X224535952Y-35893390D02*
X224583571Y-35845771D01*
X224583571Y-35845771D02*
X224678809Y-35798152D01*
X224678809Y-35798152D02*
X224821666Y-35798152D01*
X224821666Y-35798152D02*
X224916904Y-35845771D01*
X224916904Y-35845771D02*
X224964523Y-35941009D01*
X224964523Y-35941009D02*
X224964523Y-36464819D01*
X225869285Y-36464819D02*
X225869285Y-35941009D01*
X225869285Y-35941009D02*
X225821666Y-35845771D01*
X225821666Y-35845771D02*
X225726428Y-35798152D01*
X225726428Y-35798152D02*
X225535952Y-35798152D01*
X225535952Y-35798152D02*
X225440714Y-35845771D01*
X225869285Y-36417200D02*
X225774047Y-36464819D01*
X225774047Y-36464819D02*
X225535952Y-36464819D01*
X225535952Y-36464819D02*
X225440714Y-36417200D01*
X225440714Y-36417200D02*
X225393095Y-36321961D01*
X225393095Y-36321961D02*
X225393095Y-36226723D01*
X225393095Y-36226723D02*
X225440714Y-36131485D01*
X225440714Y-36131485D02*
X225535952Y-36083866D01*
X225535952Y-36083866D02*
X225774047Y-36083866D01*
X225774047Y-36083866D02*
X225869285Y-36036247D01*
X227059762Y-36179104D02*
X227535952Y-36179104D01*
X226964524Y-36464819D02*
X227297857Y-35464819D01*
X227297857Y-35464819D02*
X227631190Y-36464819D01*
X227964524Y-36464819D02*
X227964524Y-35798152D01*
X227964524Y-35988628D02*
X228012143Y-35893390D01*
X228012143Y-35893390D02*
X228059762Y-35845771D01*
X228059762Y-35845771D02*
X228155000Y-35798152D01*
X228155000Y-35798152D02*
X228250238Y-35798152D01*
X228964524Y-36417200D02*
X228869286Y-36464819D01*
X228869286Y-36464819D02*
X228678810Y-36464819D01*
X228678810Y-36464819D02*
X228583572Y-36417200D01*
X228583572Y-36417200D02*
X228535953Y-36321961D01*
X228535953Y-36321961D02*
X228535953Y-35941009D01*
X228535953Y-35941009D02*
X228583572Y-35845771D01*
X228583572Y-35845771D02*
X228678810Y-35798152D01*
X228678810Y-35798152D02*
X228869286Y-35798152D01*
X228869286Y-35798152D02*
X228964524Y-35845771D01*
X228964524Y-35845771D02*
X229012143Y-35941009D01*
X229012143Y-35941009D02*
X229012143Y-36036247D01*
X229012143Y-36036247D02*
X228535953Y-36131485D01*
X229869286Y-36464819D02*
X229869286Y-35941009D01*
X229869286Y-35941009D02*
X229821667Y-35845771D01*
X229821667Y-35845771D02*
X229726429Y-35798152D01*
X229726429Y-35798152D02*
X229535953Y-35798152D01*
X229535953Y-35798152D02*
X229440715Y-35845771D01*
X229869286Y-36417200D02*
X229774048Y-36464819D01*
X229774048Y-36464819D02*
X229535953Y-36464819D01*
X229535953Y-36464819D02*
X229440715Y-36417200D01*
X229440715Y-36417200D02*
X229393096Y-36321961D01*
X229393096Y-36321961D02*
X229393096Y-36226723D01*
X229393096Y-36226723D02*
X229440715Y-36131485D01*
X229440715Y-36131485D02*
X229535953Y-36083866D01*
X229535953Y-36083866D02*
X229774048Y-36083866D01*
X229774048Y-36083866D02*
X229869286Y-36036247D01*
X194759580Y-44551666D02*
X194807200Y-44599285D01*
X194807200Y-44599285D02*
X194854819Y-44742142D01*
X194854819Y-44742142D02*
X194854819Y-44837380D01*
X194854819Y-44837380D02*
X194807200Y-44980237D01*
X194807200Y-44980237D02*
X194711961Y-45075475D01*
X194711961Y-45075475D02*
X194616723Y-45123094D01*
X194616723Y-45123094D02*
X194426247Y-45170713D01*
X194426247Y-45170713D02*
X194283390Y-45170713D01*
X194283390Y-45170713D02*
X194092914Y-45123094D01*
X194092914Y-45123094D02*
X193997676Y-45075475D01*
X193997676Y-45075475D02*
X193902438Y-44980237D01*
X193902438Y-44980237D02*
X193854819Y-44837380D01*
X193854819Y-44837380D02*
X193854819Y-44742142D01*
X193854819Y-44742142D02*
X193902438Y-44599285D01*
X193902438Y-44599285D02*
X193950057Y-44551666D01*
X194188152Y-43694523D02*
X194854819Y-43694523D01*
X193807200Y-43932618D02*
X194521485Y-44170713D01*
X194521485Y-44170713D02*
X194521485Y-43551666D01*
X228032319Y-71846904D02*
X228841842Y-71846904D01*
X228841842Y-71846904D02*
X228937080Y-71799285D01*
X228937080Y-71799285D02*
X228984700Y-71751666D01*
X228984700Y-71751666D02*
X229032319Y-71656428D01*
X229032319Y-71656428D02*
X229032319Y-71465952D01*
X229032319Y-71465952D02*
X228984700Y-71370714D01*
X228984700Y-71370714D02*
X228937080Y-71323095D01*
X228937080Y-71323095D02*
X228841842Y-71275476D01*
X228841842Y-71275476D02*
X228032319Y-71275476D01*
X228460890Y-70656428D02*
X228413271Y-70751666D01*
X228413271Y-70751666D02*
X228365652Y-70799285D01*
X228365652Y-70799285D02*
X228270414Y-70846904D01*
X228270414Y-70846904D02*
X228222795Y-70846904D01*
X228222795Y-70846904D02*
X228127557Y-70799285D01*
X228127557Y-70799285D02*
X228079938Y-70751666D01*
X228079938Y-70751666D02*
X228032319Y-70656428D01*
X228032319Y-70656428D02*
X228032319Y-70465952D01*
X228032319Y-70465952D02*
X228079938Y-70370714D01*
X228079938Y-70370714D02*
X228127557Y-70323095D01*
X228127557Y-70323095D02*
X228222795Y-70275476D01*
X228222795Y-70275476D02*
X228270414Y-70275476D01*
X228270414Y-70275476D02*
X228365652Y-70323095D01*
X228365652Y-70323095D02*
X228413271Y-70370714D01*
X228413271Y-70370714D02*
X228460890Y-70465952D01*
X228460890Y-70465952D02*
X228460890Y-70656428D01*
X228460890Y-70656428D02*
X228508509Y-70751666D01*
X228508509Y-70751666D02*
X228556128Y-70799285D01*
X228556128Y-70799285D02*
X228651366Y-70846904D01*
X228651366Y-70846904D02*
X228841842Y-70846904D01*
X228841842Y-70846904D02*
X228937080Y-70799285D01*
X228937080Y-70799285D02*
X228984700Y-70751666D01*
X228984700Y-70751666D02*
X229032319Y-70656428D01*
X229032319Y-70656428D02*
X229032319Y-70465952D01*
X229032319Y-70465952D02*
X228984700Y-70370714D01*
X228984700Y-70370714D02*
X228937080Y-70323095D01*
X228937080Y-70323095D02*
X228841842Y-70275476D01*
X228841842Y-70275476D02*
X228651366Y-70275476D01*
X228651366Y-70275476D02*
X228556128Y-70323095D01*
X228556128Y-70323095D02*
X228508509Y-70370714D01*
X228508509Y-70370714D02*
X228460890Y-70465952D01*
X212654819Y-46876666D02*
X212178628Y-47209999D01*
X212654819Y-47448094D02*
X211654819Y-47448094D01*
X211654819Y-47448094D02*
X211654819Y-47067142D01*
X211654819Y-47067142D02*
X211702438Y-46971904D01*
X211702438Y-46971904D02*
X211750057Y-46924285D01*
X211750057Y-46924285D02*
X211845295Y-46876666D01*
X211845295Y-46876666D02*
X211988152Y-46876666D01*
X211988152Y-46876666D02*
X212083390Y-46924285D01*
X212083390Y-46924285D02*
X212131009Y-46971904D01*
X212131009Y-46971904D02*
X212178628Y-47067142D01*
X212178628Y-47067142D02*
X212178628Y-47448094D01*
X211988152Y-46019523D02*
X212654819Y-46019523D01*
X211607200Y-46257618D02*
X212321485Y-46495713D01*
X212321485Y-46495713D02*
X212321485Y-45876666D01*
X232837142Y-60859580D02*
X232789523Y-60907200D01*
X232789523Y-60907200D02*
X232646666Y-60954819D01*
X232646666Y-60954819D02*
X232551428Y-60954819D01*
X232551428Y-60954819D02*
X232408571Y-60907200D01*
X232408571Y-60907200D02*
X232313333Y-60811961D01*
X232313333Y-60811961D02*
X232265714Y-60716723D01*
X232265714Y-60716723D02*
X232218095Y-60526247D01*
X232218095Y-60526247D02*
X232218095Y-60383390D01*
X232218095Y-60383390D02*
X232265714Y-60192914D01*
X232265714Y-60192914D02*
X232313333Y-60097676D01*
X232313333Y-60097676D02*
X232408571Y-60002438D01*
X232408571Y-60002438D02*
X232551428Y-59954819D01*
X232551428Y-59954819D02*
X232646666Y-59954819D01*
X232646666Y-59954819D02*
X232789523Y-60002438D01*
X232789523Y-60002438D02*
X232837142Y-60050057D01*
X233218095Y-60050057D02*
X233265714Y-60002438D01*
X233265714Y-60002438D02*
X233360952Y-59954819D01*
X233360952Y-59954819D02*
X233599047Y-59954819D01*
X233599047Y-59954819D02*
X233694285Y-60002438D01*
X233694285Y-60002438D02*
X233741904Y-60050057D01*
X233741904Y-60050057D02*
X233789523Y-60145295D01*
X233789523Y-60145295D02*
X233789523Y-60240533D01*
X233789523Y-60240533D02*
X233741904Y-60383390D01*
X233741904Y-60383390D02*
X233170476Y-60954819D01*
X233170476Y-60954819D02*
X233789523Y-60954819D01*
X234741904Y-60954819D02*
X234170476Y-60954819D01*
X234456190Y-60954819D02*
X234456190Y-59954819D01*
X234456190Y-59954819D02*
X234360952Y-60097676D01*
X234360952Y-60097676D02*
X234265714Y-60192914D01*
X234265714Y-60192914D02*
X234170476Y-60240533D01*
X45489905Y-43634819D02*
X45489905Y-42634819D01*
X45489905Y-42634819D02*
X45728000Y-42634819D01*
X45728000Y-42634819D02*
X45870857Y-42682438D01*
X45870857Y-42682438D02*
X45966095Y-42777676D01*
X45966095Y-42777676D02*
X46013714Y-42872914D01*
X46013714Y-42872914D02*
X46061333Y-43063390D01*
X46061333Y-43063390D02*
X46061333Y-43206247D01*
X46061333Y-43206247D02*
X46013714Y-43396723D01*
X46013714Y-43396723D02*
X45966095Y-43491961D01*
X45966095Y-43491961D02*
X45870857Y-43587200D01*
X45870857Y-43587200D02*
X45728000Y-43634819D01*
X45728000Y-43634819D02*
X45489905Y-43634819D01*
X46918476Y-42634819D02*
X46728000Y-42634819D01*
X46728000Y-42634819D02*
X46632762Y-42682438D01*
X46632762Y-42682438D02*
X46585143Y-42730057D01*
X46585143Y-42730057D02*
X46489905Y-42872914D01*
X46489905Y-42872914D02*
X46442286Y-43063390D01*
X46442286Y-43063390D02*
X46442286Y-43444342D01*
X46442286Y-43444342D02*
X46489905Y-43539580D01*
X46489905Y-43539580D02*
X46537524Y-43587200D01*
X46537524Y-43587200D02*
X46632762Y-43634819D01*
X46632762Y-43634819D02*
X46823238Y-43634819D01*
X46823238Y-43634819D02*
X46918476Y-43587200D01*
X46918476Y-43587200D02*
X46966095Y-43539580D01*
X46966095Y-43539580D02*
X47013714Y-43444342D01*
X47013714Y-43444342D02*
X47013714Y-43206247D01*
X47013714Y-43206247D02*
X46966095Y-43111009D01*
X46966095Y-43111009D02*
X46918476Y-43063390D01*
X46918476Y-43063390D02*
X46823238Y-43015771D01*
X46823238Y-43015771D02*
X46632762Y-43015771D01*
X46632762Y-43015771D02*
X46537524Y-43063390D01*
X46537524Y-43063390D02*
X46489905Y-43111009D01*
X46489905Y-43111009D02*
X46442286Y-43206247D01*
X240734819Y-71846904D02*
X241544342Y-71846904D01*
X241544342Y-71846904D02*
X241639580Y-71799285D01*
X241639580Y-71799285D02*
X241687200Y-71751666D01*
X241687200Y-71751666D02*
X241734819Y-71656428D01*
X241734819Y-71656428D02*
X241734819Y-71465952D01*
X241734819Y-71465952D02*
X241687200Y-71370714D01*
X241687200Y-71370714D02*
X241639580Y-71323095D01*
X241639580Y-71323095D02*
X241544342Y-71275476D01*
X241544342Y-71275476D02*
X240734819Y-71275476D01*
X240734819Y-70894523D02*
X240734819Y-70227857D01*
X240734819Y-70227857D02*
X241734819Y-70656428D01*
X23314819Y-41568666D02*
X22838628Y-41901999D01*
X23314819Y-42140094D02*
X22314819Y-42140094D01*
X22314819Y-42140094D02*
X22314819Y-41759142D01*
X22314819Y-41759142D02*
X22362438Y-41663904D01*
X22362438Y-41663904D02*
X22410057Y-41616285D01*
X22410057Y-41616285D02*
X22505295Y-41568666D01*
X22505295Y-41568666D02*
X22648152Y-41568666D01*
X22648152Y-41568666D02*
X22743390Y-41616285D01*
X22743390Y-41616285D02*
X22791009Y-41663904D01*
X22791009Y-41663904D02*
X22838628Y-41759142D01*
X22838628Y-41759142D02*
X22838628Y-42140094D01*
X22743390Y-40997237D02*
X22695771Y-41092475D01*
X22695771Y-41092475D02*
X22648152Y-41140094D01*
X22648152Y-41140094D02*
X22552914Y-41187713D01*
X22552914Y-41187713D02*
X22505295Y-41187713D01*
X22505295Y-41187713D02*
X22410057Y-41140094D01*
X22410057Y-41140094D02*
X22362438Y-41092475D01*
X22362438Y-41092475D02*
X22314819Y-40997237D01*
X22314819Y-40997237D02*
X22314819Y-40806761D01*
X22314819Y-40806761D02*
X22362438Y-40711523D01*
X22362438Y-40711523D02*
X22410057Y-40663904D01*
X22410057Y-40663904D02*
X22505295Y-40616285D01*
X22505295Y-40616285D02*
X22552914Y-40616285D01*
X22552914Y-40616285D02*
X22648152Y-40663904D01*
X22648152Y-40663904D02*
X22695771Y-40711523D01*
X22695771Y-40711523D02*
X22743390Y-40806761D01*
X22743390Y-40806761D02*
X22743390Y-40997237D01*
X22743390Y-40997237D02*
X22791009Y-41092475D01*
X22791009Y-41092475D02*
X22838628Y-41140094D01*
X22838628Y-41140094D02*
X22933866Y-41187713D01*
X22933866Y-41187713D02*
X23124342Y-41187713D01*
X23124342Y-41187713D02*
X23219580Y-41140094D01*
X23219580Y-41140094D02*
X23267200Y-41092475D01*
X23267200Y-41092475D02*
X23314819Y-40997237D01*
X23314819Y-40997237D02*
X23314819Y-40806761D01*
X23314819Y-40806761D02*
X23267200Y-40711523D01*
X23267200Y-40711523D02*
X23219580Y-40663904D01*
X23219580Y-40663904D02*
X23124342Y-40616285D01*
X23124342Y-40616285D02*
X22933866Y-40616285D01*
X22933866Y-40616285D02*
X22838628Y-40663904D01*
X22838628Y-40663904D02*
X22791009Y-40711523D01*
X22791009Y-40711523D02*
X22743390Y-40806761D01*
X202627319Y-72323094D02*
X203436842Y-72323094D01*
X203436842Y-72323094D02*
X203532080Y-72275475D01*
X203532080Y-72275475D02*
X203579700Y-72227856D01*
X203579700Y-72227856D02*
X203627319Y-72132618D01*
X203627319Y-72132618D02*
X203627319Y-71942142D01*
X203627319Y-71942142D02*
X203579700Y-71846904D01*
X203579700Y-71846904D02*
X203532080Y-71799285D01*
X203532080Y-71799285D02*
X203436842Y-71751666D01*
X203436842Y-71751666D02*
X202627319Y-71751666D01*
X203627319Y-70751666D02*
X203627319Y-71323094D01*
X203627319Y-71037380D02*
X202627319Y-71037380D01*
X202627319Y-71037380D02*
X202770176Y-71132618D01*
X202770176Y-71132618D02*
X202865414Y-71227856D01*
X202865414Y-71227856D02*
X202913033Y-71323094D01*
X202627319Y-70132618D02*
X202627319Y-70037380D01*
X202627319Y-70037380D02*
X202674938Y-69942142D01*
X202674938Y-69942142D02*
X202722557Y-69894523D01*
X202722557Y-69894523D02*
X202817795Y-69846904D01*
X202817795Y-69846904D02*
X203008271Y-69799285D01*
X203008271Y-69799285D02*
X203246366Y-69799285D01*
X203246366Y-69799285D02*
X203436842Y-69846904D01*
X203436842Y-69846904D02*
X203532080Y-69894523D01*
X203532080Y-69894523D02*
X203579700Y-69942142D01*
X203579700Y-69942142D02*
X203627319Y-70037380D01*
X203627319Y-70037380D02*
X203627319Y-70132618D01*
X203627319Y-70132618D02*
X203579700Y-70227856D01*
X203579700Y-70227856D02*
X203532080Y-70275475D01*
X203532080Y-70275475D02*
X203436842Y-70323094D01*
X203436842Y-70323094D02*
X203246366Y-70370713D01*
X203246366Y-70370713D02*
X203008271Y-70370713D01*
X203008271Y-70370713D02*
X202817795Y-70323094D01*
X202817795Y-70323094D02*
X202722557Y-70275475D01*
X202722557Y-70275475D02*
X202674938Y-70227856D01*
X202674938Y-70227856D02*
X202627319Y-70132618D01*
X238614819Y-42539285D02*
X238138628Y-42805952D01*
X238614819Y-42996428D02*
X237614819Y-42996428D01*
X237614819Y-42996428D02*
X237614819Y-42691666D01*
X237614819Y-42691666D02*
X237662438Y-42615476D01*
X237662438Y-42615476D02*
X237710057Y-42577381D01*
X237710057Y-42577381D02*
X237805295Y-42539285D01*
X237805295Y-42539285D02*
X237948152Y-42539285D01*
X237948152Y-42539285D02*
X238043390Y-42577381D01*
X238043390Y-42577381D02*
X238091009Y-42615476D01*
X238091009Y-42615476D02*
X238138628Y-42691666D01*
X238138628Y-42691666D02*
X238138628Y-42996428D01*
X237710057Y-42234524D02*
X237662438Y-42196428D01*
X237662438Y-42196428D02*
X237614819Y-42120238D01*
X237614819Y-42120238D02*
X237614819Y-41929762D01*
X237614819Y-41929762D02*
X237662438Y-41853571D01*
X237662438Y-41853571D02*
X237710057Y-41815476D01*
X237710057Y-41815476D02*
X237805295Y-41777381D01*
X237805295Y-41777381D02*
X237900533Y-41777381D01*
X237900533Y-41777381D02*
X238043390Y-41815476D01*
X238043390Y-41815476D02*
X238614819Y-42272619D01*
X238614819Y-42272619D02*
X238614819Y-41777381D01*
X238043390Y-41320238D02*
X237995771Y-41396428D01*
X237995771Y-41396428D02*
X237948152Y-41434523D01*
X237948152Y-41434523D02*
X237852914Y-41472619D01*
X237852914Y-41472619D02*
X237805295Y-41472619D01*
X237805295Y-41472619D02*
X237710057Y-41434523D01*
X237710057Y-41434523D02*
X237662438Y-41396428D01*
X237662438Y-41396428D02*
X237614819Y-41320238D01*
X237614819Y-41320238D02*
X237614819Y-41167857D01*
X237614819Y-41167857D02*
X237662438Y-41091666D01*
X237662438Y-41091666D02*
X237710057Y-41053571D01*
X237710057Y-41053571D02*
X237805295Y-41015476D01*
X237805295Y-41015476D02*
X237852914Y-41015476D01*
X237852914Y-41015476D02*
X237948152Y-41053571D01*
X237948152Y-41053571D02*
X237995771Y-41091666D01*
X237995771Y-41091666D02*
X238043390Y-41167857D01*
X238043390Y-41167857D02*
X238043390Y-41320238D01*
X238043390Y-41320238D02*
X238091009Y-41396428D01*
X238091009Y-41396428D02*
X238138628Y-41434523D01*
X238138628Y-41434523D02*
X238233866Y-41472619D01*
X238233866Y-41472619D02*
X238424342Y-41472619D01*
X238424342Y-41472619D02*
X238519580Y-41434523D01*
X238519580Y-41434523D02*
X238567200Y-41396428D01*
X238567200Y-41396428D02*
X238614819Y-41320238D01*
X238614819Y-41320238D02*
X238614819Y-41167857D01*
X238614819Y-41167857D02*
X238567200Y-41091666D01*
X238567200Y-41091666D02*
X238519580Y-41053571D01*
X238519580Y-41053571D02*
X238424342Y-41015476D01*
X238424342Y-41015476D02*
X238233866Y-41015476D01*
X238233866Y-41015476D02*
X238138628Y-41053571D01*
X238138628Y-41053571D02*
X238091009Y-41091666D01*
X238091009Y-41091666D02*
X238043390Y-41167857D01*
X28475333Y-55711580D02*
X28427714Y-55759200D01*
X28427714Y-55759200D02*
X28284857Y-55806819D01*
X28284857Y-55806819D02*
X28189619Y-55806819D01*
X28189619Y-55806819D02*
X28046762Y-55759200D01*
X28046762Y-55759200D02*
X27951524Y-55663961D01*
X27951524Y-55663961D02*
X27903905Y-55568723D01*
X27903905Y-55568723D02*
X27856286Y-55378247D01*
X27856286Y-55378247D02*
X27856286Y-55235390D01*
X27856286Y-55235390D02*
X27903905Y-55044914D01*
X27903905Y-55044914D02*
X27951524Y-54949676D01*
X27951524Y-54949676D02*
X28046762Y-54854438D01*
X28046762Y-54854438D02*
X28189619Y-54806819D01*
X28189619Y-54806819D02*
X28284857Y-54806819D01*
X28284857Y-54806819D02*
X28427714Y-54854438D01*
X28427714Y-54854438D02*
X28475333Y-54902057D01*
X28808667Y-54806819D02*
X29475333Y-54806819D01*
X29475333Y-54806819D02*
X29046762Y-55806819D01*
X210367380Y-38923276D02*
X210367380Y-39441371D01*
X210367380Y-39441371D02*
X210397857Y-39502323D01*
X210397857Y-39502323D02*
X210428333Y-39532800D01*
X210428333Y-39532800D02*
X210489285Y-39563276D01*
X210489285Y-39563276D02*
X210611190Y-39563276D01*
X210611190Y-39563276D02*
X210672142Y-39532800D01*
X210672142Y-39532800D02*
X210702619Y-39502323D01*
X210702619Y-39502323D02*
X210733095Y-39441371D01*
X210733095Y-39441371D02*
X210733095Y-38923276D01*
X211312142Y-38923276D02*
X211190237Y-38923276D01*
X211190237Y-38923276D02*
X211129285Y-38953752D01*
X211129285Y-38953752D02*
X211098809Y-38984228D01*
X211098809Y-38984228D02*
X211037856Y-39075657D01*
X211037856Y-39075657D02*
X211007380Y-39197561D01*
X211007380Y-39197561D02*
X211007380Y-39441371D01*
X211007380Y-39441371D02*
X211037856Y-39502323D01*
X211037856Y-39502323D02*
X211068333Y-39532800D01*
X211068333Y-39532800D02*
X211129285Y-39563276D01*
X211129285Y-39563276D02*
X211251190Y-39563276D01*
X211251190Y-39563276D02*
X211312142Y-39532800D01*
X211312142Y-39532800D02*
X211342618Y-39502323D01*
X211342618Y-39502323D02*
X211373095Y-39441371D01*
X211373095Y-39441371D02*
X211373095Y-39288990D01*
X211373095Y-39288990D02*
X211342618Y-39228038D01*
X211342618Y-39228038D02*
X211312142Y-39197561D01*
X211312142Y-39197561D02*
X211251190Y-39167085D01*
X211251190Y-39167085D02*
X211129285Y-39167085D01*
X211129285Y-39167085D02*
X211068333Y-39197561D01*
X211068333Y-39197561D02*
X211037856Y-39228038D01*
X211037856Y-39228038D02*
X211007380Y-39288990D01*
D14*
%TO.C,R7*%
X42677258Y-35297500D02*
X42202742Y-35297500D01*
X42677258Y-36342500D02*
X42202742Y-36342500D01*
%TO.C,D1*%
X44463332Y-33165000D02*
X44463332Y-34635000D01*
X44463332Y-34635000D02*
X46748332Y-34635000D01*
X46748332Y-33165000D02*
X44463332Y-33165000D01*
%TO.C,C2*%
X207419420Y-49820000D02*
X207700580Y-49820000D01*
X207419420Y-50840000D02*
X207700580Y-50840000D01*
D10*
%TO.C,F2*%
X75510000Y-56040000D02*
X75510000Y-55280000D01*
X76530000Y-55030000D02*
X75770000Y-55030000D01*
X76530000Y-56290000D02*
X75770000Y-56290000D01*
X77290000Y-55030000D02*
X78050000Y-55030000D01*
X77290000Y-56290000D02*
X78050000Y-56290000D01*
X78310000Y-56040000D02*
X78310000Y-55280000D01*
D14*
%TO.C,R3*%
X34906936Y-54678000D02*
X39261064Y-54678000D01*
X34906936Y-58098000D02*
X39261064Y-58098000D01*
%TO.C,C18*%
X205130000Y-39069420D02*
X205130000Y-39350580D01*
X206150000Y-39069420D02*
X206150000Y-39350580D01*
%TO.C,C14*%
X208440000Y-39039420D02*
X208440000Y-39320580D01*
X209460000Y-39039420D02*
X209460000Y-39320580D01*
D15*
%TO.C,CN3*%
X43940000Y-51210000D02*
X43940000Y-52160000D01*
X43940000Y-51210000D02*
X48160000Y-51210000D01*
X43940000Y-52160000D02*
X45510000Y-52160000D01*
X43940000Y-58160000D02*
X43940000Y-59110000D01*
X43940000Y-59110000D02*
X48160000Y-59110000D01*
X45510000Y-52160000D02*
X45510000Y-53430000D01*
X45510000Y-54890000D02*
X45510000Y-55430000D01*
X45520000Y-56890000D02*
X45520000Y-58160000D01*
X45520000Y-58160000D02*
X43940000Y-58160000D01*
X51540000Y-52760000D02*
X51540000Y-57560000D01*
%TO.C,CN1*%
X54900000Y-32372500D02*
X54900000Y-33842500D01*
X54900000Y-36302500D02*
X54900000Y-40842500D01*
X54900000Y-43302500D02*
X54900000Y-44572500D01*
X54900000Y-44572500D02*
X59805000Y-44572500D01*
X55400000Y-32372500D02*
X55400000Y-30372500D01*
X60400000Y-30372500D02*
X55400000Y-30372500D01*
X60400000Y-32372500D02*
X60400000Y-30372500D01*
X60900000Y-32372500D02*
X54900000Y-32372500D01*
X60900000Y-32372500D02*
X60900000Y-32842500D01*
X60900000Y-35302500D02*
X60900000Y-36542500D01*
X60900000Y-39002500D02*
X60900000Y-42542500D01*
D14*
%TO.C,C11*%
X219114420Y-65325000D02*
X219395580Y-65325000D01*
X219114420Y-66345000D02*
X219395580Y-66345000D01*
%TO.C,TP4*%
X56614000Y-61468000D02*
G75*
G02*
X53114000Y-61468000I-1750000J0D01*
G01*
X53114000Y-61468000D02*
G75*
G02*
X56614000Y-61468000I1750000J0D01*
G01*
D16*
%TO.C,J1*%
X186560000Y-31370000D02*
X186560000Y-32800000D01*
X186560000Y-36820000D02*
X186560000Y-35140000D01*
X195500000Y-31370000D02*
X186560000Y-31370000D01*
X195500000Y-31370000D02*
X195500000Y-32800000D01*
X195500000Y-36820000D02*
X195500000Y-35140000D01*
D13*
X194330000Y-39970000D02*
G75*
G02*
X194130000Y-39970000I-100000J0D01*
G01*
X194130000Y-39970000D02*
G75*
G02*
X194330000Y-39970000I100000J0D01*
G01*
D14*
%TO.C,C6*%
X203500000Y-39069420D02*
X203500000Y-39350580D01*
X204520000Y-39069420D02*
X204520000Y-39350580D01*
%TO.C,U2*%
X201600000Y-39377500D02*
X200550000Y-39377500D01*
X201600000Y-41697500D02*
X200300000Y-41697500D01*
X200190000Y-39377500D02*
X199910000Y-39377500D01*
X200190000Y-39097500D01*
X200190000Y-39377500D01*
G36*
X200190000Y-39377500D02*
G01*
X199910000Y-39377500D01*
X200190000Y-39097500D01*
X200190000Y-39377500D01*
G37*
%TO.C,C19*%
X206790000Y-39039420D02*
X206790000Y-39320580D01*
X207810000Y-39039420D02*
X207810000Y-39320580D01*
%TO.C,D2*%
X35325000Y-33295000D02*
X35325000Y-34765000D01*
X35325000Y-34765000D02*
X37610000Y-34765000D01*
X37610000Y-33295000D02*
X35325000Y-33295000D01*
%TO.C,R30*%
X241137500Y-44952258D02*
X241137500Y-44477742D01*
X242182500Y-44952258D02*
X242182500Y-44477742D01*
%TO.C,R10*%
X182417500Y-39887258D02*
X182417500Y-39412742D01*
X183462500Y-39887258D02*
X183462500Y-39412742D01*
%TO.C,D4*%
X245110000Y-34605000D02*
X247395000Y-34605000D01*
X247395000Y-33135000D02*
X245110000Y-33135000D01*
X247395000Y-34605000D02*
X247395000Y-33135000D01*
%TO.C,U12*%
X189162500Y-41240000D02*
X189162500Y-42290000D01*
X191142500Y-41240000D02*
X191142500Y-42540000D01*
X189162500Y-42940000D02*
X188882500Y-42660000D01*
X189162500Y-42660000D01*
X189162500Y-42940000D01*
G36*
X189162500Y-42940000D02*
G01*
X188882500Y-42660000D01*
X189162500Y-42660000D01*
X189162500Y-42940000D01*
G37*
%TO.C,C13*%
X192614420Y-65325000D02*
X192895580Y-65325000D01*
X192614420Y-66345000D02*
X192895580Y-66345000D01*
%TO.C,R11*%
X244637500Y-36597258D02*
X244637500Y-36122742D01*
X245682500Y-36597258D02*
X245682500Y-36122742D01*
D15*
%TO.C,SW2*%
X207590000Y-32710000D02*
X212190000Y-32710000D01*
X207590000Y-32850000D02*
X207590000Y-32710000D01*
X208890000Y-31510000D02*
X208890000Y-32710000D01*
X208890000Y-31510000D02*
X210890000Y-31510000D01*
X209000000Y-35010000D02*
X210780000Y-35010000D01*
X210890000Y-31510000D02*
X210890000Y-32710000D01*
X212190000Y-32710000D02*
X212190000Y-32850000D01*
D14*
%TO.C,R29*%
X239387500Y-44952258D02*
X239387500Y-44477742D01*
X240432500Y-44952258D02*
X240432500Y-44477742D01*
%TO.C,C15*%
X60532500Y-53069420D02*
X60532500Y-53350580D01*
X61552500Y-53069420D02*
X61552500Y-53350580D01*
%TO.C,U11*%
X191310000Y-71085000D02*
X191310000Y-69135000D01*
X191310000Y-71085000D02*
X191310000Y-73035000D01*
X201430000Y-71085000D02*
X201430000Y-69135000D01*
X201430000Y-71085000D02*
X201430000Y-73035000D01*
X191365000Y-73785000D02*
X191035000Y-74025000D01*
X191035000Y-73545000D01*
X191365000Y-73785000D01*
G36*
X191365000Y-73785000D02*
G01*
X191035000Y-74025000D01*
X191035000Y-73545000D01*
X191365000Y-73785000D01*
G37*
%TO.C,S1*%
D12*
X100530000Y-23590000D02*
X177930000Y-23590000D01*
X177930000Y-77590000D01*
X100530000Y-77590000D01*
X100530000Y-23590000D01*
D14*
%TO.C,D3*%
X41611666Y-34635000D02*
X43896666Y-34635000D01*
X43896666Y-33165000D02*
X41611666Y-33165000D01*
X43896666Y-34635000D02*
X43896666Y-33165000D01*
%TO.C,R1*%
X45722742Y-35297500D02*
X46197258Y-35297500D01*
X45722742Y-36342500D02*
X46197258Y-36342500D01*
%TO.C,C16*%
X213820000Y-41170580D02*
X213820000Y-40889420D01*
X214840000Y-41170580D02*
X214840000Y-40889420D01*
D10*
%TO.C,F1*%
X192150000Y-41415000D02*
X192150000Y-40655000D01*
X192150000Y-42175000D02*
X192150000Y-42935000D01*
X193160000Y-40395000D02*
X192400000Y-40395000D01*
X193160000Y-43195000D02*
X192400000Y-43195000D01*
X193410000Y-41415000D02*
X193410000Y-40655000D01*
X193410000Y-42175000D02*
X193410000Y-42935000D01*
D14*
%TO.C,R5*%
X207777258Y-48017500D02*
X207302742Y-48017500D01*
X207777258Y-49062500D02*
X207302742Y-49062500D01*
D15*
%TO.C,SW1*%
X198340000Y-34145000D02*
X198340000Y-35065000D01*
X198592000Y-33255000D02*
X204688000Y-33255000D01*
X200050000Y-35955000D02*
X200230000Y-35955000D01*
X200340000Y-31255000D02*
X201640000Y-31255000D01*
X200340000Y-33255000D02*
X200340000Y-31255000D01*
X201550000Y-35955000D02*
X203230000Y-35955000D01*
X201640000Y-31255000D02*
X201640000Y-33255000D01*
X204940000Y-34145000D02*
X204940000Y-35065000D01*
%TO.C,Card1*%
X240530000Y-50150000D02*
X240530000Y-49080000D01*
X240530000Y-62780000D02*
X240530000Y-61410000D01*
X246800000Y-49080000D02*
X240530000Y-49080000D01*
X246800000Y-62780000D02*
X240530000Y-62780000D01*
X252130000Y-49080000D02*
X248860000Y-49080000D01*
X252130000Y-51510000D02*
X252130000Y-49080000D01*
X252130000Y-60310000D02*
X252130000Y-62780000D01*
X252130000Y-62780000D02*
X248860000Y-62780000D01*
X252129194Y-60308657D02*
G75*
G02*
X252130000Y-51510000I7330806J4398657D01*
G01*
D14*
%TO.C,Q2*%
X42026000Y-41544000D02*
X42026000Y-40244000D01*
X43826000Y-41544000D02*
X43826000Y-40244000D01*
D10*
X43511000Y-39644000D02*
G75*
G02*
X43361000Y-39644000I-75000J0D01*
G01*
X43361000Y-39644000D02*
G75*
G02*
X43511000Y-39644000I75000J0D01*
G01*
D15*
%TO.C,SW4*%
X238250000Y-32730000D02*
X242850000Y-32730000D01*
X238250000Y-32870000D02*
X238250000Y-32730000D01*
X239550000Y-31530000D02*
X239550000Y-32730000D01*
X239550000Y-31530000D02*
X241550000Y-31530000D01*
X239660000Y-35030000D02*
X241440000Y-35030000D01*
X241550000Y-31530000D02*
X241550000Y-32730000D01*
X242850000Y-32730000D02*
X242850000Y-32870000D01*
D14*
%TO.C,U9*%
X216715000Y-71085000D02*
X216715000Y-69135000D01*
X216715000Y-71085000D02*
X216715000Y-73035000D01*
X226835000Y-71085000D02*
X226835000Y-69135000D01*
X226835000Y-71085000D02*
X226835000Y-73035000D01*
X216770000Y-73785000D02*
X216440000Y-74025000D01*
X216440000Y-73545000D01*
X216770000Y-73785000D01*
G36*
X216770000Y-73785000D02*
G01*
X216440000Y-74025000D01*
X216440000Y-73545000D01*
X216770000Y-73785000D01*
G37*
D16*
%TO.C,QWIIC2*%
X250030000Y-40580000D02*
X252305000Y-40580000D01*
X250030000Y-41380000D02*
X250030000Y-40580000D01*
X250030000Y-45780000D02*
X250030000Y-46580000D01*
X250030000Y-46580000D02*
X252305000Y-46580000D01*
X254280000Y-45380000D02*
X254280000Y-41780000D01*
D17*
X249420000Y-46030000D02*
G75*
G02*
X249220000Y-46030000I-100000J0D01*
G01*
X249220000Y-46030000D02*
G75*
G02*
X249420000Y-46030000I100000J0D01*
G01*
D14*
%TO.C,TP1*%
X74090000Y-50030000D02*
G75*
G02*
X70590000Y-50030000I-1750000J0D01*
G01*
X70590000Y-50030000D02*
G75*
G02*
X74090000Y-50030000I1750000J0D01*
G01*
%TO.C,R6*%
X63580242Y-55537500D02*
X64054758Y-55537500D01*
X63580242Y-56582500D02*
X64054758Y-56582500D01*
%TO.C,C1*%
X197100000Y-41714420D02*
X197100000Y-41995580D01*
X198120000Y-41714420D02*
X198120000Y-41995580D01*
%TO.C,R32*%
X242887500Y-44952258D02*
X242887500Y-44477742D01*
X243932500Y-44952258D02*
X243932500Y-44477742D01*
%TO.C,C10*%
X231364420Y-65325000D02*
X231645580Y-65325000D01*
X231364420Y-66345000D02*
X231645580Y-66345000D01*
%TO.C,R14*%
X25385500Y-41639258D02*
X25385500Y-41164742D01*
X26430500Y-41639258D02*
X26430500Y-41164742D01*
%TO.C,C12*%
X206364420Y-65325000D02*
X206645580Y-65325000D01*
X206364420Y-66345000D02*
X206645580Y-66345000D01*
%TO.C,R2*%
X36562742Y-35357500D02*
X37037258Y-35357500D01*
X36562742Y-36402500D02*
X37037258Y-36402500D01*
D15*
%TO.C,BUZ1*%
X28410000Y-41624000D02*
X29080000Y-40954000D01*
X28410000Y-51624000D02*
X28410000Y-41624000D01*
X28410000Y-51624000D02*
X29080000Y-52294000D01*
X32040000Y-40624000D02*
X32410000Y-40624000D01*
X32410000Y-40424000D02*
X32710000Y-40124000D01*
X32410000Y-40624000D02*
X32410000Y-40424000D01*
X32410000Y-52624000D02*
X32040000Y-52624000D01*
X32410000Y-52824000D02*
X32410000Y-52624000D01*
X32710000Y-40124000D02*
X37110000Y-40124000D01*
X32710000Y-53124000D02*
X32410000Y-52824000D01*
X37110000Y-40124000D02*
X37410000Y-40424000D01*
X37120000Y-53124000D02*
X32710000Y-53124000D01*
X37410000Y-40424000D02*
X37410000Y-40624000D01*
X37410000Y-40624000D02*
X37780000Y-40624000D01*
X37410000Y-52624000D02*
X37410000Y-52824000D01*
X37410000Y-52824000D02*
X37120000Y-53124000D01*
X37780000Y-52624000D02*
X37410000Y-52624000D01*
X38590000Y-49924000D02*
X39860000Y-49924000D01*
X39230000Y-50564000D02*
X39230000Y-49294000D01*
X40740000Y-40624000D02*
X41410000Y-40624000D01*
X41410000Y-40624000D02*
X41410000Y-52624000D01*
X41410000Y-52624000D02*
X40740000Y-52624000D01*
X38470000Y-46624000D02*
G75*
G02*
X31350000Y-46624000I-3560000J0D01*
G01*
X31350000Y-46624000D02*
G75*
G02*
X38470000Y-46624000I3560000J0D01*
G01*
D14*
%TO.C,C17*%
X212230000Y-41160580D02*
X212230000Y-40879420D01*
X213250000Y-41160580D02*
X213250000Y-40879420D01*
%TO.C,U1*%
X63992500Y-51550000D02*
X63192500Y-51550000D01*
X63992500Y-51550000D02*
X64792500Y-51550000D01*
X63992500Y-54670000D02*
X63192500Y-54670000D01*
X63992500Y-54670000D02*
X64792500Y-54670000D01*
X65532500Y-54950000D02*
X65052500Y-54950000D01*
X65292500Y-54620000D01*
X65532500Y-54950000D01*
G36*
X65532500Y-54950000D02*
G01*
X65052500Y-54950000D01*
X65292500Y-54620000D01*
X65532500Y-54950000D01*
G37*
D15*
%TO.C,SW3*%
X20738500Y-47762000D02*
X22738500Y-47762000D01*
X20738500Y-49062000D02*
X20738500Y-47762000D01*
X22738500Y-49062000D02*
X20738500Y-49062000D01*
X22738500Y-50962000D02*
X22738500Y-44562000D01*
X23628500Y-44462000D02*
X24548500Y-44462000D01*
X23628500Y-51062000D02*
X24548500Y-51062000D01*
X25438500Y-47852000D02*
X25438500Y-46172000D01*
X25438500Y-49352000D02*
X25438500Y-49172000D01*
D14*
%TO.C,R12*%
X184197500Y-39867258D02*
X184197500Y-39392742D01*
X185242500Y-39867258D02*
X185242500Y-39392742D01*
%TO.C,R33*%
X244637500Y-44952258D02*
X244637500Y-44477742D01*
X245682500Y-44952258D02*
X245682500Y-44477742D01*
%TO.C,R31*%
X246387500Y-44952258D02*
X246387500Y-44477742D01*
X247432500Y-44952258D02*
X247432500Y-44477742D01*
%TO.C,J2*%
X65250000Y-33640000D02*
X66580000Y-33640000D01*
X65250000Y-34970000D02*
X65250000Y-33640000D01*
X65250000Y-36240000D02*
X67850000Y-36240000D01*
X65250000Y-38840000D02*
X65250000Y-36240000D01*
X65250000Y-38840000D02*
X88230000Y-38840000D01*
X67850000Y-33640000D02*
X88230000Y-33640000D01*
X67850000Y-36240000D02*
X67850000Y-33640000D01*
X88230000Y-38840000D02*
X88230000Y-33640000D01*
%TO.C,C5*%
X66382500Y-53069420D02*
X66382500Y-53350580D01*
X67402500Y-53069420D02*
X67402500Y-53350580D01*
D15*
%TO.C,CN2*%
X198940000Y-42670000D02*
X198940000Y-57350000D01*
X198940000Y-57350000D02*
X200220000Y-57350000D01*
X200220000Y-42670000D02*
X198940000Y-42670000D01*
X204530000Y-42670000D02*
X203880000Y-42670000D01*
X204530000Y-45380000D02*
X204530000Y-42670000D01*
X204530000Y-54640000D02*
X204530000Y-57350000D01*
X204530000Y-57350000D02*
X203880000Y-57350000D01*
X205130000Y-54760000D02*
G75*
G02*
X204870000Y-54760000I-130000J0D01*
G01*
X204870000Y-54760000D02*
G75*
G02*
X205130000Y-54760000I130000J0D01*
G01*
D16*
%TO.C,QWIIC1*%
X91820000Y-37535000D02*
X91820000Y-35260000D01*
X92620000Y-37535000D02*
X91820000Y-37535000D01*
X96620000Y-33285000D02*
X93020000Y-33285000D01*
X97020000Y-37535000D02*
X97820000Y-37535000D01*
X97820000Y-37535000D02*
X97820000Y-35260000D01*
D17*
X97370000Y-38245000D02*
G75*
G02*
X97170000Y-38245000I-100000J0D01*
G01*
X97170000Y-38245000D02*
G75*
G02*
X97370000Y-38245000I100000J0D01*
G01*
D14*
%TO.C,TP2*%
X47180000Y-46550000D02*
G75*
G02*
X43680000Y-46550000I-1750000J0D01*
G01*
X43680000Y-46550000D02*
G75*
G02*
X47180000Y-46550000I1750000J0D01*
G01*
D10*
%TO.C,L2*%
X195340000Y-40555000D02*
X195340000Y-41315000D01*
X195340000Y-40555000D02*
X195500000Y-40395000D01*
X195340000Y-43085000D02*
X195340000Y-42315000D01*
X195500000Y-40395000D02*
X196510000Y-40395000D01*
X195500000Y-43235000D02*
X195340000Y-43085000D01*
X196510000Y-40395000D02*
X196660000Y-40555000D01*
X196510000Y-43235000D02*
X195500000Y-43235000D01*
X196660000Y-40555000D02*
X196660000Y-41315000D01*
X196660000Y-43085000D02*
X196510000Y-43235000D01*
X196660000Y-43085000D02*
X196660000Y-42315000D01*
D14*
%TO.C,C20*%
X210640000Y-41160580D02*
X210640000Y-40879420D01*
X211660000Y-41160580D02*
X211660000Y-40879420D01*
%TO.C,C8*%
X243364420Y-65325000D02*
X243645580Y-65325000D01*
X243364420Y-66345000D02*
X243645580Y-66345000D01*
%TO.C,C3*%
X213420000Y-44119420D02*
X213420000Y-44400580D01*
X214440000Y-44119420D02*
X214440000Y-44400580D01*
%TO.C,U4*%
X216155000Y-33010000D02*
X216155000Y-39760000D01*
X216155000Y-33010000D02*
X234155000Y-33010000D01*
X216155000Y-57760000D02*
X216155000Y-58510000D01*
X216155000Y-58510000D02*
X217155000Y-58510000D01*
X234155000Y-33010000D02*
X234155000Y-39760000D01*
X234155000Y-38950000D02*
X216155000Y-38950000D01*
X234155000Y-57760000D02*
X234155000Y-58510000D01*
X234155000Y-58510000D02*
X233155000Y-58510000D01*
%TO.C,C4*%
X193860000Y-41965580D02*
X193860000Y-41684420D01*
X194880000Y-41965580D02*
X194880000Y-41684420D01*
%TO.C,U8*%
X229417500Y-71085000D02*
X229417500Y-69135000D01*
X229417500Y-71085000D02*
X229417500Y-73035000D01*
X239537500Y-71085000D02*
X239537500Y-69135000D01*
X239537500Y-71085000D02*
X239537500Y-73035000D01*
X229472500Y-73785000D02*
X229142500Y-74025000D01*
X229142500Y-73545000D01*
X229472500Y-73785000D01*
G36*
X229472500Y-73785000D02*
G01*
X229142500Y-74025000D01*
X229142500Y-73545000D01*
X229472500Y-73785000D01*
G37*
%TO.C,TP3*%
X58000000Y-49480000D02*
G75*
G02*
X54500000Y-49480000I-1750000J0D01*
G01*
X54500000Y-49480000D02*
G75*
G02*
X58000000Y-49480000I1750000J0D01*
G01*
%TO.C,R4*%
X211757500Y-44022742D02*
X211757500Y-44497258D01*
X212802500Y-44022742D02*
X212802500Y-44497258D01*
%TO.C,C21*%
X236520580Y-59900000D02*
X236239420Y-59900000D01*
X236520580Y-60920000D02*
X236239420Y-60920000D01*
D10*
%TO.C,D6*%
X42524000Y-42450000D02*
X42524000Y-42660000D01*
X42524000Y-43910000D02*
X42524000Y-43710000D01*
X43874000Y-43910000D02*
X43874000Y-42450000D01*
X44284000Y-42450000D02*
X42524000Y-42450000D01*
X44284000Y-43910000D02*
X42524000Y-43910000D01*
D14*
%TO.C,U7*%
X242120000Y-71085000D02*
X242120000Y-69135000D01*
X242120000Y-71085000D02*
X242120000Y-73035000D01*
X252240000Y-71085000D02*
X252240000Y-69135000D01*
X252240000Y-71085000D02*
X252240000Y-73035000D01*
X242175000Y-73785000D02*
X241845000Y-74025000D01*
X241845000Y-73545000D01*
X242175000Y-73785000D01*
G36*
X242175000Y-73785000D02*
G01*
X241845000Y-74025000D01*
X241845000Y-73545000D01*
X242175000Y-73785000D01*
G37*
%TO.C,R8*%
X23861500Y-41639258D02*
X23861500Y-41164742D01*
X24906500Y-41639258D02*
X24906500Y-41164742D01*
%TO.C,U10*%
X204012500Y-71085000D02*
X204012500Y-69135000D01*
X204012500Y-71085000D02*
X204012500Y-73035000D01*
X214132500Y-71085000D02*
X214132500Y-69135000D01*
X214132500Y-71085000D02*
X214132500Y-73035000D01*
X204067500Y-73785000D02*
X203737500Y-74025000D01*
X203737500Y-73545000D01*
X204067500Y-73785000D01*
G36*
X204067500Y-73785000D02*
G01*
X203737500Y-74025000D01*
X203737500Y-73545000D01*
X204067500Y-73785000D01*
G37*
%TO.C,R28*%
X237637500Y-44952258D02*
X237637500Y-44477742D01*
X238682500Y-44952258D02*
X238682500Y-44477742D01*
%TO.C,C7*%
X31382580Y-54862000D02*
X31101420Y-54862000D01*
X31382580Y-55882000D02*
X31101420Y-55882000D01*
D13*
%TO.C,U6*%
X212185000Y-38465000D02*
G75*
G02*
X211985000Y-38465000I-100000J0D01*
G01*
X211985000Y-38465000D02*
G75*
G02*
X212185000Y-38465000I100000J0D01*
G01*
%TD*%
M02*
