%TF.GenerationSoftware,KiCad,Pcbnew,8.0.1*%
%TF.CreationDate,2024-05-06T20:40:18+01:00*%
%TF.ProjectId,esp32-s3-spectrum,65737033-322d-4733-932d-737065637472,rev?*%
%TF.SameCoordinates,Original*%
%TF.FileFunction,Legend,Top*%
%TF.FilePolarity,Positive*%
%FSLAX46Y46*%
G04 Gerber Fmt 4.6, Leading zero omitted, Abs format (unit mm)*
G04 Created by KiCad (PCBNEW 8.0.1) date 2024-05-06 20:40:18*
%MOMM*%
%LPD*%
G01*
G04 APERTURE LIST*
%ADD10C,0.150000*%
%ADD11C,0.200000*%
%ADD12C,0.125000*%
%ADD13C,0.254000*%
%ADD14C,0.120000*%
%ADD15C,0.000000*%
%ADD16C,0.250000*%
%ADD17C,0.127000*%
%ADD18C,0.300000*%
%ADD19C,0.100000*%
G04 APERTURE END LIST*
D10*
X173905533Y-30472744D02*
X173953152Y-30329887D01*
X173953152Y-30329887D02*
X173953152Y-30091792D01*
X173953152Y-30091792D02*
X173905533Y-29996554D01*
X173905533Y-29996554D02*
X173857913Y-29948935D01*
X173857913Y-29948935D02*
X173762675Y-29901316D01*
X173762675Y-29901316D02*
X173667437Y-29901316D01*
X173667437Y-29901316D02*
X173572199Y-29948935D01*
X173572199Y-29948935D02*
X173524580Y-29996554D01*
X173524580Y-29996554D02*
X173476961Y-30091792D01*
X173476961Y-30091792D02*
X173429342Y-30282268D01*
X173429342Y-30282268D02*
X173381723Y-30377506D01*
X173381723Y-30377506D02*
X173334104Y-30425125D01*
X173334104Y-30425125D02*
X173238866Y-30472744D01*
X173238866Y-30472744D02*
X173143628Y-30472744D01*
X173143628Y-30472744D02*
X173048390Y-30425125D01*
X173048390Y-30425125D02*
X173000771Y-30377506D01*
X173000771Y-30377506D02*
X172953152Y-30282268D01*
X172953152Y-30282268D02*
X172953152Y-30044173D01*
X172953152Y-30044173D02*
X173000771Y-29901316D01*
X173953152Y-29472744D02*
X172953152Y-29472744D01*
X172953152Y-29472744D02*
X172953152Y-29234649D01*
X172953152Y-29234649D02*
X173000771Y-29091792D01*
X173000771Y-29091792D02*
X173096009Y-28996554D01*
X173096009Y-28996554D02*
X173191247Y-28948935D01*
X173191247Y-28948935D02*
X173381723Y-28901316D01*
X173381723Y-28901316D02*
X173524580Y-28901316D01*
X173524580Y-28901316D02*
X173715056Y-28948935D01*
X173715056Y-28948935D02*
X173810294Y-28996554D01*
X173810294Y-28996554D02*
X173905533Y-29091792D01*
X173905533Y-29091792D02*
X173953152Y-29234649D01*
X173953152Y-29234649D02*
X173953152Y-29472744D01*
X173667437Y-28520363D02*
X173667437Y-28044173D01*
X173953152Y-28615601D02*
X172953152Y-28282268D01*
X172953152Y-28282268D02*
X173953152Y-27948935D01*
X175667437Y-30139411D02*
X175619818Y-30234649D01*
X175619818Y-30234649D02*
X175619818Y-30377506D01*
X175619818Y-30377506D02*
X175667437Y-30520363D01*
X175667437Y-30520363D02*
X175762675Y-30615601D01*
X175762675Y-30615601D02*
X175857913Y-30663220D01*
X175857913Y-30663220D02*
X176048389Y-30710839D01*
X176048389Y-30710839D02*
X176191246Y-30710839D01*
X176191246Y-30710839D02*
X176381722Y-30663220D01*
X176381722Y-30663220D02*
X176476960Y-30615601D01*
X176476960Y-30615601D02*
X176572199Y-30520363D01*
X176572199Y-30520363D02*
X176619818Y-30377506D01*
X176619818Y-30377506D02*
X176619818Y-30282268D01*
X176619818Y-30282268D02*
X176572199Y-30139411D01*
X176572199Y-30139411D02*
X176524579Y-30091792D01*
X176524579Y-30091792D02*
X176191246Y-30091792D01*
X176191246Y-30091792D02*
X176191246Y-30282268D01*
X176619818Y-29663220D02*
X175619818Y-29663220D01*
X175619818Y-29663220D02*
X176619818Y-29091792D01*
X176619818Y-29091792D02*
X175619818Y-29091792D01*
X176619818Y-28615601D02*
X175619818Y-28615601D01*
X175619818Y-28615601D02*
X175619818Y-28377506D01*
X175619818Y-28377506D02*
X175667437Y-28234649D01*
X175667437Y-28234649D02*
X175762675Y-28139411D01*
X175762675Y-28139411D02*
X175857913Y-28091792D01*
X175857913Y-28091792D02*
X176048389Y-28044173D01*
X176048389Y-28044173D02*
X176191246Y-28044173D01*
X176191246Y-28044173D02*
X176381722Y-28091792D01*
X176381722Y-28091792D02*
X176476960Y-28139411D01*
X176476960Y-28139411D02*
X176572199Y-28234649D01*
X176572199Y-28234649D02*
X176619818Y-28377506D01*
X176619818Y-28377506D02*
X176619818Y-28615601D01*
X172572200Y-30425125D02*
X172619819Y-30282268D01*
X172619819Y-30282268D02*
X172619819Y-30044173D01*
X172619819Y-30044173D02*
X172572200Y-29948935D01*
X172572200Y-29948935D02*
X172524580Y-29901316D01*
X172524580Y-29901316D02*
X172429342Y-29853697D01*
X172429342Y-29853697D02*
X172334104Y-29853697D01*
X172334104Y-29853697D02*
X172238866Y-29901316D01*
X172238866Y-29901316D02*
X172191247Y-29948935D01*
X172191247Y-29948935D02*
X172143628Y-30044173D01*
X172143628Y-30044173D02*
X172096009Y-30234649D01*
X172096009Y-30234649D02*
X172048390Y-30329887D01*
X172048390Y-30329887D02*
X172000771Y-30377506D01*
X172000771Y-30377506D02*
X171905533Y-30425125D01*
X171905533Y-30425125D02*
X171810295Y-30425125D01*
X171810295Y-30425125D02*
X171715057Y-30377506D01*
X171715057Y-30377506D02*
X171667438Y-30329887D01*
X171667438Y-30329887D02*
X171619819Y-30234649D01*
X171619819Y-30234649D02*
X171619819Y-29996554D01*
X171619819Y-29996554D02*
X171667438Y-29853697D01*
X172524580Y-28853697D02*
X172572200Y-28901316D01*
X172572200Y-28901316D02*
X172619819Y-29044173D01*
X172619819Y-29044173D02*
X172619819Y-29139411D01*
X172619819Y-29139411D02*
X172572200Y-29282268D01*
X172572200Y-29282268D02*
X172476961Y-29377506D01*
X172476961Y-29377506D02*
X172381723Y-29425125D01*
X172381723Y-29425125D02*
X172191247Y-29472744D01*
X172191247Y-29472744D02*
X172048390Y-29472744D01*
X172048390Y-29472744D02*
X171857914Y-29425125D01*
X171857914Y-29425125D02*
X171762676Y-29377506D01*
X171762676Y-29377506D02*
X171667438Y-29282268D01*
X171667438Y-29282268D02*
X171619819Y-29139411D01*
X171619819Y-29139411D02*
X171619819Y-29044173D01*
X171619819Y-29044173D02*
X171667438Y-28901316D01*
X171667438Y-28901316D02*
X171715057Y-28853697D01*
X172619819Y-27948935D02*
X172619819Y-28425125D01*
X172619819Y-28425125D02*
X171619819Y-28425125D01*
X174286485Y-30472744D02*
X174286485Y-29853697D01*
X174286485Y-29853697D02*
X174667437Y-30187030D01*
X174667437Y-30187030D02*
X174667437Y-30044173D01*
X174667437Y-30044173D02*
X174715056Y-29948935D01*
X174715056Y-29948935D02*
X174762675Y-29901316D01*
X174762675Y-29901316D02*
X174857913Y-29853697D01*
X174857913Y-29853697D02*
X175096008Y-29853697D01*
X175096008Y-29853697D02*
X175191246Y-29901316D01*
X175191246Y-29901316D02*
X175238866Y-29948935D01*
X175238866Y-29948935D02*
X175286485Y-30044173D01*
X175286485Y-30044173D02*
X175286485Y-30329887D01*
X175286485Y-30329887D02*
X175238866Y-30425125D01*
X175238866Y-30425125D02*
X175191246Y-30472744D01*
X174286485Y-29567982D02*
X175286485Y-29234649D01*
X175286485Y-29234649D02*
X174286485Y-28901316D01*
X174286485Y-28663220D02*
X174286485Y-28044173D01*
X174286485Y-28044173D02*
X174667437Y-28377506D01*
X174667437Y-28377506D02*
X174667437Y-28234649D01*
X174667437Y-28234649D02*
X174715056Y-28139411D01*
X174715056Y-28139411D02*
X174762675Y-28091792D01*
X174762675Y-28091792D02*
X174857913Y-28044173D01*
X174857913Y-28044173D02*
X175096008Y-28044173D01*
X175096008Y-28044173D02*
X175191246Y-28091792D01*
X175191246Y-28091792D02*
X175238866Y-28139411D01*
X175238866Y-28139411D02*
X175286485Y-28234649D01*
X175286485Y-28234649D02*
X175286485Y-28520363D01*
X175286485Y-28520363D02*
X175238866Y-28615601D01*
X175238866Y-28615601D02*
X175191246Y-28663220D01*
X227741541Y-42119819D02*
X227979636Y-43119819D01*
X227979636Y-43119819D02*
X228170112Y-42405533D01*
X228170112Y-42405533D02*
X228360588Y-43119819D01*
X228360588Y-43119819D02*
X228598684Y-42119819D01*
X229408207Y-43119819D02*
X229408207Y-42596009D01*
X229408207Y-42596009D02*
X229360588Y-42500771D01*
X229360588Y-42500771D02*
X229265350Y-42453152D01*
X229265350Y-42453152D02*
X229074874Y-42453152D01*
X229074874Y-42453152D02*
X228979636Y-42500771D01*
X229408207Y-43072200D02*
X229312969Y-43119819D01*
X229312969Y-43119819D02*
X229074874Y-43119819D01*
X229074874Y-43119819D02*
X228979636Y-43072200D01*
X228979636Y-43072200D02*
X228932017Y-42976961D01*
X228932017Y-42976961D02*
X228932017Y-42881723D01*
X228932017Y-42881723D02*
X228979636Y-42786485D01*
X228979636Y-42786485D02*
X229074874Y-42738866D01*
X229074874Y-42738866D02*
X229312969Y-42738866D01*
X229312969Y-42738866D02*
X229408207Y-42691247D01*
X229789160Y-42453152D02*
X230027255Y-43119819D01*
X230265350Y-42453152D02*
X230027255Y-43119819D01*
X230027255Y-43119819D02*
X229932017Y-43357914D01*
X229932017Y-43357914D02*
X229884398Y-43405533D01*
X229884398Y-43405533D02*
X229789160Y-43453152D01*
X230551065Y-42119819D02*
X230789160Y-43119819D01*
X230789160Y-43119819D02*
X230979636Y-42405533D01*
X230979636Y-42405533D02*
X231170112Y-43119819D01*
X231170112Y-43119819D02*
X231408208Y-42119819D01*
X232217731Y-43119819D02*
X232217731Y-42596009D01*
X232217731Y-42596009D02*
X232170112Y-42500771D01*
X232170112Y-42500771D02*
X232074874Y-42453152D01*
X232074874Y-42453152D02*
X231884398Y-42453152D01*
X231884398Y-42453152D02*
X231789160Y-42500771D01*
X232217731Y-43072200D02*
X232122493Y-43119819D01*
X232122493Y-43119819D02*
X231884398Y-43119819D01*
X231884398Y-43119819D02*
X231789160Y-43072200D01*
X231789160Y-43072200D02*
X231741541Y-42976961D01*
X231741541Y-42976961D02*
X231741541Y-42881723D01*
X231741541Y-42881723D02*
X231789160Y-42786485D01*
X231789160Y-42786485D02*
X231884398Y-42738866D01*
X231884398Y-42738866D02*
X232122493Y-42738866D01*
X232122493Y-42738866D02*
X232217731Y-42691247D01*
X232598684Y-42453152D02*
X232836779Y-43119819D01*
X233074874Y-42453152D02*
X232836779Y-43119819D01*
X232836779Y-43119819D02*
X232741541Y-43357914D01*
X232741541Y-43357914D02*
X232693922Y-43405533D01*
X232693922Y-43405533D02*
X232598684Y-43453152D01*
X233360589Y-42119819D02*
X233598684Y-43119819D01*
X233598684Y-43119819D02*
X233789160Y-42405533D01*
X233789160Y-42405533D02*
X233979636Y-43119819D01*
X233979636Y-43119819D02*
X234217732Y-42119819D01*
X235027255Y-43119819D02*
X235027255Y-42596009D01*
X235027255Y-42596009D02*
X234979636Y-42500771D01*
X234979636Y-42500771D02*
X234884398Y-42453152D01*
X234884398Y-42453152D02*
X234693922Y-42453152D01*
X234693922Y-42453152D02*
X234598684Y-42500771D01*
X235027255Y-43072200D02*
X234932017Y-43119819D01*
X234932017Y-43119819D02*
X234693922Y-43119819D01*
X234693922Y-43119819D02*
X234598684Y-43072200D01*
X234598684Y-43072200D02*
X234551065Y-42976961D01*
X234551065Y-42976961D02*
X234551065Y-42881723D01*
X234551065Y-42881723D02*
X234598684Y-42786485D01*
X234598684Y-42786485D02*
X234693922Y-42738866D01*
X234693922Y-42738866D02*
X234932017Y-42738866D01*
X234932017Y-42738866D02*
X235027255Y-42691247D01*
X235408208Y-42453152D02*
X235646303Y-43119819D01*
X235884398Y-42453152D02*
X235646303Y-43119819D01*
X235646303Y-43119819D02*
X235551065Y-43357914D01*
X235551065Y-43357914D02*
X235503446Y-43405533D01*
X235503446Y-43405533D02*
X235408208Y-43453152D01*
D11*
X208441101Y-30367219D02*
X208107768Y-29891028D01*
X207869673Y-30367219D02*
X207869673Y-29367219D01*
X207869673Y-29367219D02*
X208250625Y-29367219D01*
X208250625Y-29367219D02*
X208345863Y-29414838D01*
X208345863Y-29414838D02*
X208393482Y-29462457D01*
X208393482Y-29462457D02*
X208441101Y-29557695D01*
X208441101Y-29557695D02*
X208441101Y-29700552D01*
X208441101Y-29700552D02*
X208393482Y-29795790D01*
X208393482Y-29795790D02*
X208345863Y-29843409D01*
X208345863Y-29843409D02*
X208250625Y-29891028D01*
X208250625Y-29891028D02*
X207869673Y-29891028D01*
X208869673Y-29843409D02*
X209203006Y-29843409D01*
X209345863Y-30367219D02*
X208869673Y-30367219D01*
X208869673Y-30367219D02*
X208869673Y-29367219D01*
X208869673Y-29367219D02*
X209345863Y-29367219D01*
X209726816Y-30319600D02*
X209869673Y-30367219D01*
X209869673Y-30367219D02*
X210107768Y-30367219D01*
X210107768Y-30367219D02*
X210203006Y-30319600D01*
X210203006Y-30319600D02*
X210250625Y-30271980D01*
X210250625Y-30271980D02*
X210298244Y-30176742D01*
X210298244Y-30176742D02*
X210298244Y-30081504D01*
X210298244Y-30081504D02*
X210250625Y-29986266D01*
X210250625Y-29986266D02*
X210203006Y-29938647D01*
X210203006Y-29938647D02*
X210107768Y-29891028D01*
X210107768Y-29891028D02*
X209917292Y-29843409D01*
X209917292Y-29843409D02*
X209822054Y-29795790D01*
X209822054Y-29795790D02*
X209774435Y-29748171D01*
X209774435Y-29748171D02*
X209726816Y-29652933D01*
X209726816Y-29652933D02*
X209726816Y-29557695D01*
X209726816Y-29557695D02*
X209774435Y-29462457D01*
X209774435Y-29462457D02*
X209822054Y-29414838D01*
X209822054Y-29414838D02*
X209917292Y-29367219D01*
X209917292Y-29367219D02*
X210155387Y-29367219D01*
X210155387Y-29367219D02*
X210298244Y-29414838D01*
X210726816Y-29843409D02*
X211060149Y-29843409D01*
X211203006Y-30367219D02*
X210726816Y-30367219D01*
X210726816Y-30367219D02*
X210726816Y-29367219D01*
X210726816Y-29367219D02*
X211203006Y-29367219D01*
X211488721Y-29367219D02*
X212060149Y-29367219D01*
X211774435Y-30367219D02*
X211774435Y-29367219D01*
X248953006Y-30093409D02*
X249095863Y-30141028D01*
X249095863Y-30141028D02*
X249143482Y-30188647D01*
X249143482Y-30188647D02*
X249191101Y-30283885D01*
X249191101Y-30283885D02*
X249191101Y-30426742D01*
X249191101Y-30426742D02*
X249143482Y-30521980D01*
X249143482Y-30521980D02*
X249095863Y-30569600D01*
X249095863Y-30569600D02*
X249000625Y-30617219D01*
X249000625Y-30617219D02*
X248619673Y-30617219D01*
X248619673Y-30617219D02*
X248619673Y-29617219D01*
X248619673Y-29617219D02*
X248953006Y-29617219D01*
X248953006Y-29617219D02*
X249048244Y-29664838D01*
X249048244Y-29664838D02*
X249095863Y-29712457D01*
X249095863Y-29712457D02*
X249143482Y-29807695D01*
X249143482Y-29807695D02*
X249143482Y-29902933D01*
X249143482Y-29902933D02*
X249095863Y-29998171D01*
X249095863Y-29998171D02*
X249048244Y-30045790D01*
X249048244Y-30045790D02*
X248953006Y-30093409D01*
X248953006Y-30093409D02*
X248619673Y-30093409D01*
X249810149Y-29617219D02*
X250000625Y-29617219D01*
X250000625Y-29617219D02*
X250095863Y-29664838D01*
X250095863Y-29664838D02*
X250191101Y-29760076D01*
X250191101Y-29760076D02*
X250238720Y-29950552D01*
X250238720Y-29950552D02*
X250238720Y-30283885D01*
X250238720Y-30283885D02*
X250191101Y-30474361D01*
X250191101Y-30474361D02*
X250095863Y-30569600D01*
X250095863Y-30569600D02*
X250000625Y-30617219D01*
X250000625Y-30617219D02*
X249810149Y-30617219D01*
X249810149Y-30617219D02*
X249714911Y-30569600D01*
X249714911Y-30569600D02*
X249619673Y-30474361D01*
X249619673Y-30474361D02*
X249572054Y-30283885D01*
X249572054Y-30283885D02*
X249572054Y-29950552D01*
X249572054Y-29950552D02*
X249619673Y-29760076D01*
X249619673Y-29760076D02*
X249714911Y-29664838D01*
X249714911Y-29664838D02*
X249810149Y-29617219D01*
X250857768Y-29617219D02*
X251048244Y-29617219D01*
X251048244Y-29617219D02*
X251143482Y-29664838D01*
X251143482Y-29664838D02*
X251238720Y-29760076D01*
X251238720Y-29760076D02*
X251286339Y-29950552D01*
X251286339Y-29950552D02*
X251286339Y-30283885D01*
X251286339Y-30283885D02*
X251238720Y-30474361D01*
X251238720Y-30474361D02*
X251143482Y-30569600D01*
X251143482Y-30569600D02*
X251048244Y-30617219D01*
X251048244Y-30617219D02*
X250857768Y-30617219D01*
X250857768Y-30617219D02*
X250762530Y-30569600D01*
X250762530Y-30569600D02*
X250667292Y-30474361D01*
X250667292Y-30474361D02*
X250619673Y-30283885D01*
X250619673Y-30283885D02*
X250619673Y-29950552D01*
X250619673Y-29950552D02*
X250667292Y-29760076D01*
X250667292Y-29760076D02*
X250762530Y-29664838D01*
X250762530Y-29664838D02*
X250857768Y-29617219D01*
X251572054Y-29617219D02*
X252143482Y-29617219D01*
X251857768Y-30617219D02*
X251857768Y-29617219D01*
D10*
X140554819Y-24333333D02*
X141269104Y-24333333D01*
X141269104Y-24333333D02*
X141411961Y-24380952D01*
X141411961Y-24380952D02*
X141507200Y-24476190D01*
X141507200Y-24476190D02*
X141554819Y-24619047D01*
X141554819Y-24619047D02*
X141554819Y-24714285D01*
X140888152Y-23428571D02*
X141554819Y-23428571D01*
X140507200Y-23666666D02*
X141221485Y-23904761D01*
X141221485Y-23904761D02*
X141221485Y-23285714D01*
D12*
X168248619Y-26690475D02*
X168224809Y-26738094D01*
X168224809Y-26738094D02*
X168224809Y-26809523D01*
X168224809Y-26809523D02*
X168248619Y-26880951D01*
X168248619Y-26880951D02*
X168296238Y-26928570D01*
X168296238Y-26928570D02*
X168343857Y-26952380D01*
X168343857Y-26952380D02*
X168439095Y-26976189D01*
X168439095Y-26976189D02*
X168510523Y-26976189D01*
X168510523Y-26976189D02*
X168605761Y-26952380D01*
X168605761Y-26952380D02*
X168653380Y-26928570D01*
X168653380Y-26928570D02*
X168701000Y-26880951D01*
X168701000Y-26880951D02*
X168724809Y-26809523D01*
X168724809Y-26809523D02*
X168724809Y-26761904D01*
X168724809Y-26761904D02*
X168701000Y-26690475D01*
X168701000Y-26690475D02*
X168677190Y-26666666D01*
X168677190Y-26666666D02*
X168510523Y-26666666D01*
X168510523Y-26666666D02*
X168510523Y-26761904D01*
X168224809Y-26380951D02*
X168343857Y-26380951D01*
X168296238Y-26499999D02*
X168343857Y-26380951D01*
X168343857Y-26380951D02*
X168296238Y-26261904D01*
X168439095Y-26452380D02*
X168343857Y-26380951D01*
X168343857Y-26380951D02*
X168439095Y-26309523D01*
X168224809Y-25999999D02*
X168343857Y-25999999D01*
X168296238Y-26119047D02*
X168343857Y-25999999D01*
X168343857Y-25999999D02*
X168296238Y-25880952D01*
X168439095Y-26071428D02*
X168343857Y-25999999D01*
X168343857Y-25999999D02*
X168439095Y-25928571D01*
X168224809Y-25619047D02*
X168343857Y-25619047D01*
X168296238Y-25738095D02*
X168343857Y-25619047D01*
X168343857Y-25619047D02*
X168296238Y-25500000D01*
X168439095Y-25690476D02*
X168343857Y-25619047D01*
X168343857Y-25619047D02*
X168439095Y-25547619D01*
D10*
X185333333Y-41859580D02*
X185285714Y-41907200D01*
X185285714Y-41907200D02*
X185142857Y-41954819D01*
X185142857Y-41954819D02*
X185047619Y-41954819D01*
X185047619Y-41954819D02*
X184904762Y-41907200D01*
X184904762Y-41907200D02*
X184809524Y-41811961D01*
X184809524Y-41811961D02*
X184761905Y-41716723D01*
X184761905Y-41716723D02*
X184714286Y-41526247D01*
X184714286Y-41526247D02*
X184714286Y-41383390D01*
X184714286Y-41383390D02*
X184761905Y-41192914D01*
X184761905Y-41192914D02*
X184809524Y-41097676D01*
X184809524Y-41097676D02*
X184904762Y-41002438D01*
X184904762Y-41002438D02*
X185047619Y-40954819D01*
X185047619Y-40954819D02*
X185142857Y-40954819D01*
X185142857Y-40954819D02*
X185285714Y-41002438D01*
X185285714Y-41002438D02*
X185333333Y-41050057D01*
X185714286Y-41050057D02*
X185761905Y-41002438D01*
X185761905Y-41002438D02*
X185857143Y-40954819D01*
X185857143Y-40954819D02*
X186095238Y-40954819D01*
X186095238Y-40954819D02*
X186190476Y-41002438D01*
X186190476Y-41002438D02*
X186238095Y-41050057D01*
X186238095Y-41050057D02*
X186285714Y-41145295D01*
X186285714Y-41145295D02*
X186285714Y-41240533D01*
X186285714Y-41240533D02*
X186238095Y-41383390D01*
X186238095Y-41383390D02*
X185666667Y-41954819D01*
X185666667Y-41954819D02*
X186285714Y-41954819D01*
X35470833Y-33074819D02*
X35137500Y-32598628D01*
X34899405Y-33074819D02*
X34899405Y-32074819D01*
X34899405Y-32074819D02*
X35280357Y-32074819D01*
X35280357Y-32074819D02*
X35375595Y-32122438D01*
X35375595Y-32122438D02*
X35423214Y-32170057D01*
X35423214Y-32170057D02*
X35470833Y-32265295D01*
X35470833Y-32265295D02*
X35470833Y-32408152D01*
X35470833Y-32408152D02*
X35423214Y-32503390D01*
X35423214Y-32503390D02*
X35375595Y-32551009D01*
X35375595Y-32551009D02*
X35280357Y-32598628D01*
X35280357Y-32598628D02*
X34899405Y-32598628D01*
X35804167Y-32074819D02*
X36423214Y-32074819D01*
X36423214Y-32074819D02*
X36089881Y-32455771D01*
X36089881Y-32455771D02*
X36232738Y-32455771D01*
X36232738Y-32455771D02*
X36327976Y-32503390D01*
X36327976Y-32503390D02*
X36375595Y-32551009D01*
X36375595Y-32551009D02*
X36423214Y-32646247D01*
X36423214Y-32646247D02*
X36423214Y-32884342D01*
X36423214Y-32884342D02*
X36375595Y-32979580D01*
X36375595Y-32979580D02*
X36327976Y-33027200D01*
X36327976Y-33027200D02*
X36232738Y-33074819D01*
X36232738Y-33074819D02*
X35947024Y-33074819D01*
X35947024Y-33074819D02*
X35851786Y-33027200D01*
X35851786Y-33027200D02*
X35804167Y-32979580D01*
X216359580Y-30666666D02*
X216407200Y-30714285D01*
X216407200Y-30714285D02*
X216454819Y-30857142D01*
X216454819Y-30857142D02*
X216454819Y-30952380D01*
X216454819Y-30952380D02*
X216407200Y-31095237D01*
X216407200Y-31095237D02*
X216311961Y-31190475D01*
X216311961Y-31190475D02*
X216216723Y-31238094D01*
X216216723Y-31238094D02*
X216026247Y-31285713D01*
X216026247Y-31285713D02*
X215883390Y-31285713D01*
X215883390Y-31285713D02*
X215692914Y-31238094D01*
X215692914Y-31238094D02*
X215597676Y-31190475D01*
X215597676Y-31190475D02*
X215502438Y-31095237D01*
X215502438Y-31095237D02*
X215454819Y-30952380D01*
X215454819Y-30952380D02*
X215454819Y-30857142D01*
X215454819Y-30857142D02*
X215502438Y-30714285D01*
X215502438Y-30714285D02*
X215550057Y-30666666D01*
X215454819Y-30333332D02*
X215454819Y-29666666D01*
X215454819Y-29666666D02*
X216454819Y-30095237D01*
X188333333Y-46204819D02*
X188000000Y-45728628D01*
X187761905Y-46204819D02*
X187761905Y-45204819D01*
X187761905Y-45204819D02*
X188142857Y-45204819D01*
X188142857Y-45204819D02*
X188238095Y-45252438D01*
X188238095Y-45252438D02*
X188285714Y-45300057D01*
X188285714Y-45300057D02*
X188333333Y-45395295D01*
X188333333Y-45395295D02*
X188333333Y-45538152D01*
X188333333Y-45538152D02*
X188285714Y-45633390D01*
X188285714Y-45633390D02*
X188238095Y-45681009D01*
X188238095Y-45681009D02*
X188142857Y-45728628D01*
X188142857Y-45728628D02*
X187761905Y-45728628D01*
X189238095Y-45204819D02*
X188761905Y-45204819D01*
X188761905Y-45204819D02*
X188714286Y-45681009D01*
X188714286Y-45681009D02*
X188761905Y-45633390D01*
X188761905Y-45633390D02*
X188857143Y-45585771D01*
X188857143Y-45585771D02*
X189095238Y-45585771D01*
X189095238Y-45585771D02*
X189190476Y-45633390D01*
X189190476Y-45633390D02*
X189238095Y-45681009D01*
X189238095Y-45681009D02*
X189285714Y-45776247D01*
X189285714Y-45776247D02*
X189285714Y-46014342D01*
X189285714Y-46014342D02*
X189238095Y-46109580D01*
X189238095Y-46109580D02*
X189190476Y-46157200D01*
X189190476Y-46157200D02*
X189095238Y-46204819D01*
X189095238Y-46204819D02*
X188857143Y-46204819D01*
X188857143Y-46204819D02*
X188761905Y-46157200D01*
X188761905Y-46157200D02*
X188714286Y-46109580D01*
X66809523Y-27359580D02*
X66761904Y-27407200D01*
X66761904Y-27407200D02*
X66619047Y-27454819D01*
X66619047Y-27454819D02*
X66523809Y-27454819D01*
X66523809Y-27454819D02*
X66380952Y-27407200D01*
X66380952Y-27407200D02*
X66285714Y-27311961D01*
X66285714Y-27311961D02*
X66238095Y-27216723D01*
X66238095Y-27216723D02*
X66190476Y-27026247D01*
X66190476Y-27026247D02*
X66190476Y-26883390D01*
X66190476Y-26883390D02*
X66238095Y-26692914D01*
X66238095Y-26692914D02*
X66285714Y-26597676D01*
X66285714Y-26597676D02*
X66380952Y-26502438D01*
X66380952Y-26502438D02*
X66523809Y-26454819D01*
X66523809Y-26454819D02*
X66619047Y-26454819D01*
X66619047Y-26454819D02*
X66761904Y-26502438D01*
X66761904Y-26502438D02*
X66809523Y-26550057D01*
X67238095Y-27454819D02*
X67238095Y-26454819D01*
X67238095Y-26454819D02*
X67809523Y-27454819D01*
X67809523Y-27454819D02*
X67809523Y-26454819D01*
X68809523Y-27454819D02*
X68238095Y-27454819D01*
X68523809Y-27454819D02*
X68523809Y-26454819D01*
X68523809Y-26454819D02*
X68428571Y-26597676D01*
X68428571Y-26597676D02*
X68333333Y-26692914D01*
X68333333Y-26692914D02*
X68238095Y-26740533D01*
D13*
X45529047Y-54445270D02*
X45408095Y-54384794D01*
X45408095Y-54384794D02*
X45287142Y-54263842D01*
X45287142Y-54263842D02*
X45105714Y-54082413D01*
X45105714Y-54082413D02*
X44984761Y-54021937D01*
X44984761Y-54021937D02*
X44863809Y-54021937D01*
X44924285Y-54324318D02*
X44803333Y-54263842D01*
X44803333Y-54263842D02*
X44682380Y-54142889D01*
X44682380Y-54142889D02*
X44621904Y-53900984D01*
X44621904Y-53900984D02*
X44621904Y-53477651D01*
X44621904Y-53477651D02*
X44682380Y-53235746D01*
X44682380Y-53235746D02*
X44803333Y-53114794D01*
X44803333Y-53114794D02*
X44924285Y-53054318D01*
X44924285Y-53054318D02*
X45166190Y-53054318D01*
X45166190Y-53054318D02*
X45287142Y-53114794D01*
X45287142Y-53114794D02*
X45408095Y-53235746D01*
X45408095Y-53235746D02*
X45468571Y-53477651D01*
X45468571Y-53477651D02*
X45468571Y-53900984D01*
X45468571Y-53900984D02*
X45408095Y-54142889D01*
X45408095Y-54142889D02*
X45287142Y-54263842D01*
X45287142Y-54263842D02*
X45166190Y-54324318D01*
X45166190Y-54324318D02*
X44924285Y-54324318D01*
X45952380Y-53175270D02*
X46012856Y-53114794D01*
X46012856Y-53114794D02*
X46133809Y-53054318D01*
X46133809Y-53054318D02*
X46436190Y-53054318D01*
X46436190Y-53054318D02*
X46557142Y-53114794D01*
X46557142Y-53114794D02*
X46617618Y-53175270D01*
X46617618Y-53175270D02*
X46678095Y-53296222D01*
X46678095Y-53296222D02*
X46678095Y-53417175D01*
X46678095Y-53417175D02*
X46617618Y-53598603D01*
X46617618Y-53598603D02*
X45891904Y-54324318D01*
X45891904Y-54324318D02*
X46678095Y-54324318D01*
X219629047Y-22945270D02*
X219508095Y-22884794D01*
X219508095Y-22884794D02*
X219387142Y-22763842D01*
X219387142Y-22763842D02*
X219205714Y-22582413D01*
X219205714Y-22582413D02*
X219084761Y-22521937D01*
X219084761Y-22521937D02*
X218963809Y-22521937D01*
X219024285Y-22824318D02*
X218903333Y-22763842D01*
X218903333Y-22763842D02*
X218782380Y-22642889D01*
X218782380Y-22642889D02*
X218721904Y-22400984D01*
X218721904Y-22400984D02*
X218721904Y-21977651D01*
X218721904Y-21977651D02*
X218782380Y-21735746D01*
X218782380Y-21735746D02*
X218903333Y-21614794D01*
X218903333Y-21614794D02*
X219024285Y-21554318D01*
X219024285Y-21554318D02*
X219266190Y-21554318D01*
X219266190Y-21554318D02*
X219387142Y-21614794D01*
X219387142Y-21614794D02*
X219508095Y-21735746D01*
X219508095Y-21735746D02*
X219568571Y-21977651D01*
X219568571Y-21977651D02*
X219568571Y-22400984D01*
X219568571Y-22400984D02*
X219508095Y-22642889D01*
X219508095Y-22642889D02*
X219387142Y-22763842D01*
X219387142Y-22763842D02*
X219266190Y-22824318D01*
X219266190Y-22824318D02*
X219024285Y-22824318D01*
X220778095Y-22824318D02*
X220052380Y-22824318D01*
X220415237Y-22824318D02*
X220415237Y-21554318D01*
X220415237Y-21554318D02*
X220294285Y-21735746D01*
X220294285Y-21735746D02*
X220173333Y-21856699D01*
X220173333Y-21856699D02*
X220052380Y-21917175D01*
D10*
X198741666Y-22204819D02*
X198741666Y-22919104D01*
X198741666Y-22919104D02*
X198694047Y-23061961D01*
X198694047Y-23061961D02*
X198598809Y-23157200D01*
X198598809Y-23157200D02*
X198455952Y-23204819D01*
X198455952Y-23204819D02*
X198360714Y-23204819D01*
X199741666Y-23204819D02*
X199170238Y-23204819D01*
X199455952Y-23204819D02*
X199455952Y-22204819D01*
X199455952Y-22204819D02*
X199360714Y-22347676D01*
X199360714Y-22347676D02*
X199265476Y-22442914D01*
X199265476Y-22442914D02*
X199170238Y-22490533D01*
X216359580Y-27416666D02*
X216407200Y-27464285D01*
X216407200Y-27464285D02*
X216454819Y-27607142D01*
X216454819Y-27607142D02*
X216454819Y-27702380D01*
X216454819Y-27702380D02*
X216407200Y-27845237D01*
X216407200Y-27845237D02*
X216311961Y-27940475D01*
X216311961Y-27940475D02*
X216216723Y-27988094D01*
X216216723Y-27988094D02*
X216026247Y-28035713D01*
X216026247Y-28035713D02*
X215883390Y-28035713D01*
X215883390Y-28035713D02*
X215692914Y-27988094D01*
X215692914Y-27988094D02*
X215597676Y-27940475D01*
X215597676Y-27940475D02*
X215502438Y-27845237D01*
X215502438Y-27845237D02*
X215454819Y-27702380D01*
X215454819Y-27702380D02*
X215454819Y-27607142D01*
X215454819Y-27607142D02*
X215502438Y-27464285D01*
X215502438Y-27464285D02*
X215550057Y-27416666D01*
X215788152Y-26559523D02*
X216454819Y-26559523D01*
X215407200Y-26797618D02*
X216121485Y-27035713D01*
X216121485Y-27035713D02*
X216121485Y-26416666D01*
X254454819Y-36892857D02*
X253978628Y-37226190D01*
X254454819Y-37464285D02*
X253454819Y-37464285D01*
X253454819Y-37464285D02*
X253454819Y-37083333D01*
X253454819Y-37083333D02*
X253502438Y-36988095D01*
X253502438Y-36988095D02*
X253550057Y-36940476D01*
X253550057Y-36940476D02*
X253645295Y-36892857D01*
X253645295Y-36892857D02*
X253788152Y-36892857D01*
X253788152Y-36892857D02*
X253883390Y-36940476D01*
X253883390Y-36940476D02*
X253931009Y-36988095D01*
X253931009Y-36988095D02*
X253978628Y-37083333D01*
X253978628Y-37083333D02*
X253978628Y-37464285D01*
X253454819Y-36559523D02*
X253454819Y-35940476D01*
X253454819Y-35940476D02*
X253835771Y-36273809D01*
X253835771Y-36273809D02*
X253835771Y-36130952D01*
X253835771Y-36130952D02*
X253883390Y-36035714D01*
X253883390Y-36035714D02*
X253931009Y-35988095D01*
X253931009Y-35988095D02*
X254026247Y-35940476D01*
X254026247Y-35940476D02*
X254264342Y-35940476D01*
X254264342Y-35940476D02*
X254359580Y-35988095D01*
X254359580Y-35988095D02*
X254407200Y-36035714D01*
X254407200Y-36035714D02*
X254454819Y-36130952D01*
X254454819Y-36130952D02*
X254454819Y-36416666D01*
X254454819Y-36416666D02*
X254407200Y-36511904D01*
X254407200Y-36511904D02*
X254359580Y-36559523D01*
X253454819Y-35321428D02*
X253454819Y-35226190D01*
X253454819Y-35226190D02*
X253502438Y-35130952D01*
X253502438Y-35130952D02*
X253550057Y-35083333D01*
X253550057Y-35083333D02*
X253645295Y-35035714D01*
X253645295Y-35035714D02*
X253835771Y-34988095D01*
X253835771Y-34988095D02*
X254073866Y-34988095D01*
X254073866Y-34988095D02*
X254264342Y-35035714D01*
X254264342Y-35035714D02*
X254359580Y-35083333D01*
X254359580Y-35083333D02*
X254407200Y-35130952D01*
X254407200Y-35130952D02*
X254454819Y-35226190D01*
X254454819Y-35226190D02*
X254454819Y-35321428D01*
X254454819Y-35321428D02*
X254407200Y-35416666D01*
X254407200Y-35416666D02*
X254359580Y-35464285D01*
X254359580Y-35464285D02*
X254264342Y-35511904D01*
X254264342Y-35511904D02*
X254073866Y-35559523D01*
X254073866Y-35559523D02*
X253835771Y-35559523D01*
X253835771Y-35559523D02*
X253645295Y-35511904D01*
X253645295Y-35511904D02*
X253550057Y-35464285D01*
X253550057Y-35464285D02*
X253502438Y-35416666D01*
X253502438Y-35416666D02*
X253454819Y-35321428D01*
X202024819Y-32142857D02*
X201548628Y-32476190D01*
X202024819Y-32714285D02*
X201024819Y-32714285D01*
X201024819Y-32714285D02*
X201024819Y-32333333D01*
X201024819Y-32333333D02*
X201072438Y-32238095D01*
X201072438Y-32238095D02*
X201120057Y-32190476D01*
X201120057Y-32190476D02*
X201215295Y-32142857D01*
X201215295Y-32142857D02*
X201358152Y-32142857D01*
X201358152Y-32142857D02*
X201453390Y-32190476D01*
X201453390Y-32190476D02*
X201501009Y-32238095D01*
X201501009Y-32238095D02*
X201548628Y-32333333D01*
X201548628Y-32333333D02*
X201548628Y-32714285D01*
X202024819Y-31190476D02*
X202024819Y-31761904D01*
X202024819Y-31476190D02*
X201024819Y-31476190D01*
X201024819Y-31476190D02*
X201167676Y-31571428D01*
X201167676Y-31571428D02*
X201262914Y-31666666D01*
X201262914Y-31666666D02*
X201310533Y-31761904D01*
X201024819Y-30571428D02*
X201024819Y-30476190D01*
X201024819Y-30476190D02*
X201072438Y-30380952D01*
X201072438Y-30380952D02*
X201120057Y-30333333D01*
X201120057Y-30333333D02*
X201215295Y-30285714D01*
X201215295Y-30285714D02*
X201405771Y-30238095D01*
X201405771Y-30238095D02*
X201643866Y-30238095D01*
X201643866Y-30238095D02*
X201834342Y-30285714D01*
X201834342Y-30285714D02*
X201929580Y-30333333D01*
X201929580Y-30333333D02*
X201977200Y-30380952D01*
X201977200Y-30380952D02*
X202024819Y-30476190D01*
X202024819Y-30476190D02*
X202024819Y-30571428D01*
X202024819Y-30571428D02*
X201977200Y-30666666D01*
X201977200Y-30666666D02*
X201929580Y-30714285D01*
X201929580Y-30714285D02*
X201834342Y-30761904D01*
X201834342Y-30761904D02*
X201643866Y-30809523D01*
X201643866Y-30809523D02*
X201405771Y-30809523D01*
X201405771Y-30809523D02*
X201215295Y-30761904D01*
X201215295Y-30761904D02*
X201120057Y-30714285D01*
X201120057Y-30714285D02*
X201072438Y-30666666D01*
X201072438Y-30666666D02*
X201024819Y-30571428D01*
X191286905Y-26204819D02*
X191286905Y-25204819D01*
X191286905Y-25204819D02*
X191525000Y-25204819D01*
X191525000Y-25204819D02*
X191667857Y-25252438D01*
X191667857Y-25252438D02*
X191763095Y-25347676D01*
X191763095Y-25347676D02*
X191810714Y-25442914D01*
X191810714Y-25442914D02*
X191858333Y-25633390D01*
X191858333Y-25633390D02*
X191858333Y-25776247D01*
X191858333Y-25776247D02*
X191810714Y-25966723D01*
X191810714Y-25966723D02*
X191763095Y-26061961D01*
X191763095Y-26061961D02*
X191667857Y-26157200D01*
X191667857Y-26157200D02*
X191525000Y-26204819D01*
X191525000Y-26204819D02*
X191286905Y-26204819D01*
X192191667Y-25204819D02*
X192810714Y-25204819D01*
X192810714Y-25204819D02*
X192477381Y-25585771D01*
X192477381Y-25585771D02*
X192620238Y-25585771D01*
X192620238Y-25585771D02*
X192715476Y-25633390D01*
X192715476Y-25633390D02*
X192763095Y-25681009D01*
X192763095Y-25681009D02*
X192810714Y-25776247D01*
X192810714Y-25776247D02*
X192810714Y-26014342D01*
X192810714Y-26014342D02*
X192763095Y-26109580D01*
X192763095Y-26109580D02*
X192715476Y-26157200D01*
X192715476Y-26157200D02*
X192620238Y-26204819D01*
X192620238Y-26204819D02*
X192334524Y-26204819D01*
X192334524Y-26204819D02*
X192239286Y-26157200D01*
X192239286Y-26157200D02*
X192191667Y-26109580D01*
X258954819Y-62738094D02*
X257954819Y-62738094D01*
X257954819Y-62738094D02*
X257954819Y-62499999D01*
X257954819Y-62499999D02*
X258002438Y-62357142D01*
X258002438Y-62357142D02*
X258097676Y-62261904D01*
X258097676Y-62261904D02*
X258192914Y-62214285D01*
X258192914Y-62214285D02*
X258383390Y-62166666D01*
X258383390Y-62166666D02*
X258526247Y-62166666D01*
X258526247Y-62166666D02*
X258716723Y-62214285D01*
X258716723Y-62214285D02*
X258811961Y-62261904D01*
X258811961Y-62261904D02*
X258907200Y-62357142D01*
X258907200Y-62357142D02*
X258954819Y-62499999D01*
X258954819Y-62499999D02*
X258954819Y-62738094D01*
X258288152Y-61309523D02*
X258954819Y-61309523D01*
X257907200Y-61547618D02*
X258621485Y-61785713D01*
X258621485Y-61785713D02*
X258621485Y-61166666D01*
X257204819Y-62892857D02*
X256728628Y-63226190D01*
X257204819Y-63464285D02*
X256204819Y-63464285D01*
X256204819Y-63464285D02*
X256204819Y-63083333D01*
X256204819Y-63083333D02*
X256252438Y-62988095D01*
X256252438Y-62988095D02*
X256300057Y-62940476D01*
X256300057Y-62940476D02*
X256395295Y-62892857D01*
X256395295Y-62892857D02*
X256538152Y-62892857D01*
X256538152Y-62892857D02*
X256633390Y-62940476D01*
X256633390Y-62940476D02*
X256681009Y-62988095D01*
X256681009Y-62988095D02*
X256728628Y-63083333D01*
X256728628Y-63083333D02*
X256728628Y-63464285D01*
X257204819Y-61940476D02*
X257204819Y-62511904D01*
X257204819Y-62226190D02*
X256204819Y-62226190D01*
X256204819Y-62226190D02*
X256347676Y-62321428D01*
X256347676Y-62321428D02*
X256442914Y-62416666D01*
X256442914Y-62416666D02*
X256490533Y-62511904D01*
X257204819Y-60988095D02*
X257204819Y-61559523D01*
X257204819Y-61273809D02*
X256204819Y-61273809D01*
X256204819Y-61273809D02*
X256347676Y-61369047D01*
X256347676Y-61369047D02*
X256442914Y-61464285D01*
X256442914Y-61464285D02*
X256490533Y-61559523D01*
X256204819Y-36892857D02*
X255728628Y-37226190D01*
X256204819Y-37464285D02*
X255204819Y-37464285D01*
X255204819Y-37464285D02*
X255204819Y-37083333D01*
X255204819Y-37083333D02*
X255252438Y-36988095D01*
X255252438Y-36988095D02*
X255300057Y-36940476D01*
X255300057Y-36940476D02*
X255395295Y-36892857D01*
X255395295Y-36892857D02*
X255538152Y-36892857D01*
X255538152Y-36892857D02*
X255633390Y-36940476D01*
X255633390Y-36940476D02*
X255681009Y-36988095D01*
X255681009Y-36988095D02*
X255728628Y-37083333D01*
X255728628Y-37083333D02*
X255728628Y-37464285D01*
X255300057Y-36511904D02*
X255252438Y-36464285D01*
X255252438Y-36464285D02*
X255204819Y-36369047D01*
X255204819Y-36369047D02*
X255204819Y-36130952D01*
X255204819Y-36130952D02*
X255252438Y-36035714D01*
X255252438Y-36035714D02*
X255300057Y-35988095D01*
X255300057Y-35988095D02*
X255395295Y-35940476D01*
X255395295Y-35940476D02*
X255490533Y-35940476D01*
X255490533Y-35940476D02*
X255633390Y-35988095D01*
X255633390Y-35988095D02*
X256204819Y-36559523D01*
X256204819Y-36559523D02*
X256204819Y-35940476D01*
X256204819Y-35464285D02*
X256204819Y-35273809D01*
X256204819Y-35273809D02*
X256157200Y-35178571D01*
X256157200Y-35178571D02*
X256109580Y-35130952D01*
X256109580Y-35130952D02*
X255966723Y-35035714D01*
X255966723Y-35035714D02*
X255776247Y-34988095D01*
X255776247Y-34988095D02*
X255395295Y-34988095D01*
X255395295Y-34988095D02*
X255300057Y-35035714D01*
X255300057Y-35035714D02*
X255252438Y-35083333D01*
X255252438Y-35083333D02*
X255204819Y-35178571D01*
X255204819Y-35178571D02*
X255204819Y-35369047D01*
X255204819Y-35369047D02*
X255252438Y-35464285D01*
X255252438Y-35464285D02*
X255300057Y-35511904D01*
X255300057Y-35511904D02*
X255395295Y-35559523D01*
X255395295Y-35559523D02*
X255633390Y-35559523D01*
X255633390Y-35559523D02*
X255728628Y-35511904D01*
X255728628Y-35511904D02*
X255776247Y-35464285D01*
X255776247Y-35464285D02*
X255823866Y-35369047D01*
X255823866Y-35369047D02*
X255823866Y-35178571D01*
X255823866Y-35178571D02*
X255776247Y-35083333D01*
X255776247Y-35083333D02*
X255728628Y-35035714D01*
X255728628Y-35035714D02*
X255633390Y-34988095D01*
X210166667Y-23157200D02*
X210309524Y-23204819D01*
X210309524Y-23204819D02*
X210547619Y-23204819D01*
X210547619Y-23204819D02*
X210642857Y-23157200D01*
X210642857Y-23157200D02*
X210690476Y-23109580D01*
X210690476Y-23109580D02*
X210738095Y-23014342D01*
X210738095Y-23014342D02*
X210738095Y-22919104D01*
X210738095Y-22919104D02*
X210690476Y-22823866D01*
X210690476Y-22823866D02*
X210642857Y-22776247D01*
X210642857Y-22776247D02*
X210547619Y-22728628D01*
X210547619Y-22728628D02*
X210357143Y-22681009D01*
X210357143Y-22681009D02*
X210261905Y-22633390D01*
X210261905Y-22633390D02*
X210214286Y-22585771D01*
X210214286Y-22585771D02*
X210166667Y-22490533D01*
X210166667Y-22490533D02*
X210166667Y-22395295D01*
X210166667Y-22395295D02*
X210214286Y-22300057D01*
X210214286Y-22300057D02*
X210261905Y-22252438D01*
X210261905Y-22252438D02*
X210357143Y-22204819D01*
X210357143Y-22204819D02*
X210595238Y-22204819D01*
X210595238Y-22204819D02*
X210738095Y-22252438D01*
X211071429Y-22204819D02*
X211309524Y-23204819D01*
X211309524Y-23204819D02*
X211500000Y-22490533D01*
X211500000Y-22490533D02*
X211690476Y-23204819D01*
X211690476Y-23204819D02*
X211928572Y-22204819D01*
X212833333Y-23204819D02*
X212261905Y-23204819D01*
X212547619Y-23204819D02*
X212547619Y-22204819D01*
X212547619Y-22204819D02*
X212452381Y-22347676D01*
X212452381Y-22347676D02*
X212357143Y-22442914D01*
X212357143Y-22442914D02*
X212261905Y-22490533D01*
X197988095Y-32454819D02*
X197988095Y-33264342D01*
X197988095Y-33264342D02*
X198035714Y-33359580D01*
X198035714Y-33359580D02*
X198083333Y-33407200D01*
X198083333Y-33407200D02*
X198178571Y-33454819D01*
X198178571Y-33454819D02*
X198369047Y-33454819D01*
X198369047Y-33454819D02*
X198464285Y-33407200D01*
X198464285Y-33407200D02*
X198511904Y-33359580D01*
X198511904Y-33359580D02*
X198559523Y-33264342D01*
X198559523Y-33264342D02*
X198559523Y-32454819D01*
X199464285Y-32454819D02*
X199273809Y-32454819D01*
X199273809Y-32454819D02*
X199178571Y-32502438D01*
X199178571Y-32502438D02*
X199130952Y-32550057D01*
X199130952Y-32550057D02*
X199035714Y-32692914D01*
X199035714Y-32692914D02*
X198988095Y-32883390D01*
X198988095Y-32883390D02*
X198988095Y-33264342D01*
X198988095Y-33264342D02*
X199035714Y-33359580D01*
X199035714Y-33359580D02*
X199083333Y-33407200D01*
X199083333Y-33407200D02*
X199178571Y-33454819D01*
X199178571Y-33454819D02*
X199369047Y-33454819D01*
X199369047Y-33454819D02*
X199464285Y-33407200D01*
X199464285Y-33407200D02*
X199511904Y-33359580D01*
X199511904Y-33359580D02*
X199559523Y-33264342D01*
X199559523Y-33264342D02*
X199559523Y-33026247D01*
X199559523Y-33026247D02*
X199511904Y-32931009D01*
X199511904Y-32931009D02*
X199464285Y-32883390D01*
X199464285Y-32883390D02*
X199369047Y-32835771D01*
X199369047Y-32835771D02*
X199178571Y-32835771D01*
X199178571Y-32835771D02*
X199083333Y-32883390D01*
X199083333Y-32883390D02*
X199035714Y-32931009D01*
X199035714Y-32931009D02*
X198988095Y-33026247D01*
X206704819Y-31666666D02*
X206228628Y-31999999D01*
X206704819Y-32238094D02*
X205704819Y-32238094D01*
X205704819Y-32238094D02*
X205704819Y-31857142D01*
X205704819Y-31857142D02*
X205752438Y-31761904D01*
X205752438Y-31761904D02*
X205800057Y-31714285D01*
X205800057Y-31714285D02*
X205895295Y-31666666D01*
X205895295Y-31666666D02*
X206038152Y-31666666D01*
X206038152Y-31666666D02*
X206133390Y-31714285D01*
X206133390Y-31714285D02*
X206181009Y-31761904D01*
X206181009Y-31761904D02*
X206228628Y-31857142D01*
X206228628Y-31857142D02*
X206228628Y-32238094D01*
X205800057Y-31285713D02*
X205752438Y-31238094D01*
X205752438Y-31238094D02*
X205704819Y-31142856D01*
X205704819Y-31142856D02*
X205704819Y-30904761D01*
X205704819Y-30904761D02*
X205752438Y-30809523D01*
X205752438Y-30809523D02*
X205800057Y-30761904D01*
X205800057Y-30761904D02*
X205895295Y-30714285D01*
X205895295Y-30714285D02*
X205990533Y-30714285D01*
X205990533Y-30714285D02*
X206133390Y-30761904D01*
X206133390Y-30761904D02*
X206704819Y-31333332D01*
X206704819Y-31333332D02*
X206704819Y-30714285D01*
X179108333Y-24454819D02*
X178775000Y-23978628D01*
X178536905Y-24454819D02*
X178536905Y-23454819D01*
X178536905Y-23454819D02*
X178917857Y-23454819D01*
X178917857Y-23454819D02*
X179013095Y-23502438D01*
X179013095Y-23502438D02*
X179060714Y-23550057D01*
X179060714Y-23550057D02*
X179108333Y-23645295D01*
X179108333Y-23645295D02*
X179108333Y-23788152D01*
X179108333Y-23788152D02*
X179060714Y-23883390D01*
X179060714Y-23883390D02*
X179013095Y-23931009D01*
X179013095Y-23931009D02*
X178917857Y-23978628D01*
X178917857Y-23978628D02*
X178536905Y-23978628D01*
X180060714Y-24454819D02*
X179489286Y-24454819D01*
X179775000Y-24454819D02*
X179775000Y-23454819D01*
X179775000Y-23454819D02*
X179679762Y-23597676D01*
X179679762Y-23597676D02*
X179584524Y-23692914D01*
X179584524Y-23692914D02*
X179489286Y-23740533D01*
D13*
X216574318Y-25187381D02*
X215304318Y-25187381D01*
X215304318Y-25187381D02*
X215304318Y-24885000D01*
X215304318Y-24885000D02*
X215364794Y-24703571D01*
X215364794Y-24703571D02*
X215485746Y-24582619D01*
X215485746Y-24582619D02*
X215606699Y-24522142D01*
X215606699Y-24522142D02*
X215848603Y-24461666D01*
X215848603Y-24461666D02*
X216030032Y-24461666D01*
X216030032Y-24461666D02*
X216271937Y-24522142D01*
X216271937Y-24522142D02*
X216392889Y-24582619D01*
X216392889Y-24582619D02*
X216513842Y-24703571D01*
X216513842Y-24703571D02*
X216574318Y-24885000D01*
X216574318Y-24885000D02*
X216574318Y-25187381D01*
X215425270Y-23977857D02*
X215364794Y-23917381D01*
X215364794Y-23917381D02*
X215304318Y-23796428D01*
X215304318Y-23796428D02*
X215304318Y-23494047D01*
X215304318Y-23494047D02*
X215364794Y-23373095D01*
X215364794Y-23373095D02*
X215425270Y-23312619D01*
X215425270Y-23312619D02*
X215546222Y-23252142D01*
X215546222Y-23252142D02*
X215667175Y-23252142D01*
X215667175Y-23252142D02*
X215848603Y-23312619D01*
X215848603Y-23312619D02*
X216574318Y-24038333D01*
X216574318Y-24038333D02*
X216574318Y-23252142D01*
D10*
X179108333Y-27859580D02*
X179060714Y-27907200D01*
X179060714Y-27907200D02*
X178917857Y-27954819D01*
X178917857Y-27954819D02*
X178822619Y-27954819D01*
X178822619Y-27954819D02*
X178679762Y-27907200D01*
X178679762Y-27907200D02*
X178584524Y-27811961D01*
X178584524Y-27811961D02*
X178536905Y-27716723D01*
X178536905Y-27716723D02*
X178489286Y-27526247D01*
X178489286Y-27526247D02*
X178489286Y-27383390D01*
X178489286Y-27383390D02*
X178536905Y-27192914D01*
X178536905Y-27192914D02*
X178584524Y-27097676D01*
X178584524Y-27097676D02*
X178679762Y-27002438D01*
X178679762Y-27002438D02*
X178822619Y-26954819D01*
X178822619Y-26954819D02*
X178917857Y-26954819D01*
X178917857Y-26954819D02*
X179060714Y-27002438D01*
X179060714Y-27002438D02*
X179108333Y-27050057D01*
X180060714Y-27954819D02*
X179489286Y-27954819D01*
X179775000Y-27954819D02*
X179775000Y-26954819D01*
X179775000Y-26954819D02*
X179679762Y-27097676D01*
X179679762Y-27097676D02*
X179584524Y-27192914D01*
X179584524Y-27192914D02*
X179489286Y-27240533D01*
X178536905Y-26204819D02*
X178536905Y-25204819D01*
X178536905Y-25204819D02*
X178775000Y-25204819D01*
X178775000Y-25204819D02*
X178917857Y-25252438D01*
X178917857Y-25252438D02*
X179013095Y-25347676D01*
X179013095Y-25347676D02*
X179060714Y-25442914D01*
X179060714Y-25442914D02*
X179108333Y-25633390D01*
X179108333Y-25633390D02*
X179108333Y-25776247D01*
X179108333Y-25776247D02*
X179060714Y-25966723D01*
X179060714Y-25966723D02*
X179013095Y-26061961D01*
X179013095Y-26061961D02*
X178917857Y-26157200D01*
X178917857Y-26157200D02*
X178775000Y-26204819D01*
X178775000Y-26204819D02*
X178536905Y-26204819D01*
X180060714Y-26204819D02*
X179489286Y-26204819D01*
X179775000Y-26204819D02*
X179775000Y-25204819D01*
X179775000Y-25204819D02*
X179679762Y-25347676D01*
X179679762Y-25347676D02*
X179584524Y-25442914D01*
X179584524Y-25442914D02*
X179489286Y-25490533D01*
X249666667Y-23657200D02*
X249809524Y-23704819D01*
X249809524Y-23704819D02*
X250047619Y-23704819D01*
X250047619Y-23704819D02*
X250142857Y-23657200D01*
X250142857Y-23657200D02*
X250190476Y-23609580D01*
X250190476Y-23609580D02*
X250238095Y-23514342D01*
X250238095Y-23514342D02*
X250238095Y-23419104D01*
X250238095Y-23419104D02*
X250190476Y-23323866D01*
X250190476Y-23323866D02*
X250142857Y-23276247D01*
X250142857Y-23276247D02*
X250047619Y-23228628D01*
X250047619Y-23228628D02*
X249857143Y-23181009D01*
X249857143Y-23181009D02*
X249761905Y-23133390D01*
X249761905Y-23133390D02*
X249714286Y-23085771D01*
X249714286Y-23085771D02*
X249666667Y-22990533D01*
X249666667Y-22990533D02*
X249666667Y-22895295D01*
X249666667Y-22895295D02*
X249714286Y-22800057D01*
X249714286Y-22800057D02*
X249761905Y-22752438D01*
X249761905Y-22752438D02*
X249857143Y-22704819D01*
X249857143Y-22704819D02*
X250095238Y-22704819D01*
X250095238Y-22704819D02*
X250238095Y-22752438D01*
X250571429Y-22704819D02*
X250809524Y-23704819D01*
X250809524Y-23704819D02*
X251000000Y-22990533D01*
X251000000Y-22990533D02*
X251190476Y-23704819D01*
X251190476Y-23704819D02*
X251428572Y-22704819D01*
X251761905Y-22800057D02*
X251809524Y-22752438D01*
X251809524Y-22752438D02*
X251904762Y-22704819D01*
X251904762Y-22704819D02*
X252142857Y-22704819D01*
X252142857Y-22704819D02*
X252238095Y-22752438D01*
X252238095Y-22752438D02*
X252285714Y-22800057D01*
X252285714Y-22800057D02*
X252333333Y-22895295D01*
X252333333Y-22895295D02*
X252333333Y-22990533D01*
X252333333Y-22990533D02*
X252285714Y-23133390D01*
X252285714Y-23133390D02*
X251714286Y-23704819D01*
X251714286Y-23704819D02*
X252333333Y-23704819D01*
X68356009Y-44679285D02*
X68403628Y-44536428D01*
X68403628Y-44536428D02*
X68451247Y-44488809D01*
X68451247Y-44488809D02*
X68546485Y-44441190D01*
X68546485Y-44441190D02*
X68689342Y-44441190D01*
X68689342Y-44441190D02*
X68784580Y-44488809D01*
X68784580Y-44488809D02*
X68832200Y-44536428D01*
X68832200Y-44536428D02*
X68879819Y-44631666D01*
X68879819Y-44631666D02*
X68879819Y-45012618D01*
X68879819Y-45012618D02*
X67879819Y-45012618D01*
X67879819Y-45012618D02*
X67879819Y-44679285D01*
X67879819Y-44679285D02*
X67927438Y-44584047D01*
X67927438Y-44584047D02*
X67975057Y-44536428D01*
X67975057Y-44536428D02*
X68070295Y-44488809D01*
X68070295Y-44488809D02*
X68165533Y-44488809D01*
X68165533Y-44488809D02*
X68260771Y-44536428D01*
X68260771Y-44536428D02*
X68308390Y-44584047D01*
X68308390Y-44584047D02*
X68356009Y-44679285D01*
X68356009Y-44679285D02*
X68356009Y-45012618D01*
X68594104Y-44060237D02*
X68594104Y-43584047D01*
X68879819Y-44155475D02*
X67879819Y-43822142D01*
X67879819Y-43822142D02*
X68879819Y-43488809D01*
X67879819Y-43298332D02*
X67879819Y-42726904D01*
X68879819Y-43012618D02*
X67879819Y-43012618D01*
X68879819Y-41869761D02*
X68879819Y-42441189D01*
X68879819Y-42155475D02*
X67879819Y-42155475D01*
X67879819Y-42155475D02*
X68022676Y-42250713D01*
X68022676Y-42250713D02*
X68117914Y-42345951D01*
X68117914Y-42345951D02*
X68165533Y-42441189D01*
X38095238Y-39431009D02*
X38238095Y-39478628D01*
X38238095Y-39478628D02*
X38285714Y-39526247D01*
X38285714Y-39526247D02*
X38333333Y-39621485D01*
X38333333Y-39621485D02*
X38333333Y-39764342D01*
X38333333Y-39764342D02*
X38285714Y-39859580D01*
X38285714Y-39859580D02*
X38238095Y-39907200D01*
X38238095Y-39907200D02*
X38142857Y-39954819D01*
X38142857Y-39954819D02*
X37761905Y-39954819D01*
X37761905Y-39954819D02*
X37761905Y-38954819D01*
X37761905Y-38954819D02*
X38095238Y-38954819D01*
X38095238Y-38954819D02*
X38190476Y-39002438D01*
X38190476Y-39002438D02*
X38238095Y-39050057D01*
X38238095Y-39050057D02*
X38285714Y-39145295D01*
X38285714Y-39145295D02*
X38285714Y-39240533D01*
X38285714Y-39240533D02*
X38238095Y-39335771D01*
X38238095Y-39335771D02*
X38190476Y-39383390D01*
X38190476Y-39383390D02*
X38095238Y-39431009D01*
X38095238Y-39431009D02*
X37761905Y-39431009D01*
X38761905Y-38954819D02*
X38761905Y-39764342D01*
X38761905Y-39764342D02*
X38809524Y-39859580D01*
X38809524Y-39859580D02*
X38857143Y-39907200D01*
X38857143Y-39907200D02*
X38952381Y-39954819D01*
X38952381Y-39954819D02*
X39142857Y-39954819D01*
X39142857Y-39954819D02*
X39238095Y-39907200D01*
X39238095Y-39907200D02*
X39285714Y-39859580D01*
X39285714Y-39859580D02*
X39333333Y-39764342D01*
X39333333Y-39764342D02*
X39333333Y-38954819D01*
X39714286Y-38954819D02*
X40380952Y-38954819D01*
X40380952Y-38954819D02*
X39714286Y-39954819D01*
X39714286Y-39954819D02*
X40380952Y-39954819D01*
X41285714Y-39954819D02*
X40714286Y-39954819D01*
X41000000Y-39954819D02*
X41000000Y-38954819D01*
X41000000Y-38954819D02*
X40904762Y-39097676D01*
X40904762Y-39097676D02*
X40809524Y-39192914D01*
X40809524Y-39192914D02*
X40714286Y-39240533D01*
D11*
X37114911Y-47905383D02*
X38661578Y-47905383D01*
X37888244Y-48678716D02*
X37888244Y-47132050D01*
D10*
X185333333Y-40204819D02*
X185000000Y-39728628D01*
X184761905Y-40204819D02*
X184761905Y-39204819D01*
X184761905Y-39204819D02*
X185142857Y-39204819D01*
X185142857Y-39204819D02*
X185238095Y-39252438D01*
X185238095Y-39252438D02*
X185285714Y-39300057D01*
X185285714Y-39300057D02*
X185333333Y-39395295D01*
X185333333Y-39395295D02*
X185333333Y-39538152D01*
X185333333Y-39538152D02*
X185285714Y-39633390D01*
X185285714Y-39633390D02*
X185238095Y-39681009D01*
X185238095Y-39681009D02*
X185142857Y-39728628D01*
X185142857Y-39728628D02*
X184761905Y-39728628D01*
X185666667Y-39204819D02*
X186333333Y-39204819D01*
X186333333Y-39204819D02*
X185904762Y-40204819D01*
X221109580Y-30666666D02*
X221157200Y-30714285D01*
X221157200Y-30714285D02*
X221204819Y-30857142D01*
X221204819Y-30857142D02*
X221204819Y-30952380D01*
X221204819Y-30952380D02*
X221157200Y-31095237D01*
X221157200Y-31095237D02*
X221061961Y-31190475D01*
X221061961Y-31190475D02*
X220966723Y-31238094D01*
X220966723Y-31238094D02*
X220776247Y-31285713D01*
X220776247Y-31285713D02*
X220633390Y-31285713D01*
X220633390Y-31285713D02*
X220442914Y-31238094D01*
X220442914Y-31238094D02*
X220347676Y-31190475D01*
X220347676Y-31190475D02*
X220252438Y-31095237D01*
X220252438Y-31095237D02*
X220204819Y-30952380D01*
X220204819Y-30952380D02*
X220204819Y-30857142D01*
X220204819Y-30857142D02*
X220252438Y-30714285D01*
X220252438Y-30714285D02*
X220300057Y-30666666D01*
X220204819Y-29809523D02*
X220204819Y-29999999D01*
X220204819Y-29999999D02*
X220252438Y-30095237D01*
X220252438Y-30095237D02*
X220300057Y-30142856D01*
X220300057Y-30142856D02*
X220442914Y-30238094D01*
X220442914Y-30238094D02*
X220633390Y-30285713D01*
X220633390Y-30285713D02*
X221014342Y-30285713D01*
X221014342Y-30285713D02*
X221109580Y-30238094D01*
X221109580Y-30238094D02*
X221157200Y-30190475D01*
X221157200Y-30190475D02*
X221204819Y-30095237D01*
X221204819Y-30095237D02*
X221204819Y-29904761D01*
X221204819Y-29904761D02*
X221157200Y-29809523D01*
X221157200Y-29809523D02*
X221109580Y-29761904D01*
X221109580Y-29761904D02*
X221014342Y-29714285D01*
X221014342Y-29714285D02*
X220776247Y-29714285D01*
X220776247Y-29714285D02*
X220681009Y-29761904D01*
X220681009Y-29761904D02*
X220633390Y-29809523D01*
X220633390Y-29809523D02*
X220585771Y-29904761D01*
X220585771Y-29904761D02*
X220585771Y-30095237D01*
X220585771Y-30095237D02*
X220633390Y-30190475D01*
X220633390Y-30190475D02*
X220681009Y-30238094D01*
X220681009Y-30238094D02*
X220776247Y-30285713D01*
X252704819Y-36967857D02*
X252228628Y-37301190D01*
X252704819Y-37539285D02*
X251704819Y-37539285D01*
X251704819Y-37539285D02*
X251704819Y-37158333D01*
X251704819Y-37158333D02*
X251752438Y-37063095D01*
X251752438Y-37063095D02*
X251800057Y-37015476D01*
X251800057Y-37015476D02*
X251895295Y-36967857D01*
X251895295Y-36967857D02*
X252038152Y-36967857D01*
X252038152Y-36967857D02*
X252133390Y-37015476D01*
X252133390Y-37015476D02*
X252181009Y-37063095D01*
X252181009Y-37063095D02*
X252228628Y-37158333D01*
X252228628Y-37158333D02*
X252228628Y-37539285D01*
X251704819Y-36634523D02*
X251704819Y-36015476D01*
X251704819Y-36015476D02*
X252085771Y-36348809D01*
X252085771Y-36348809D02*
X252085771Y-36205952D01*
X252085771Y-36205952D02*
X252133390Y-36110714D01*
X252133390Y-36110714D02*
X252181009Y-36063095D01*
X252181009Y-36063095D02*
X252276247Y-36015476D01*
X252276247Y-36015476D02*
X252514342Y-36015476D01*
X252514342Y-36015476D02*
X252609580Y-36063095D01*
X252609580Y-36063095D02*
X252657200Y-36110714D01*
X252657200Y-36110714D02*
X252704819Y-36205952D01*
X252704819Y-36205952D02*
X252704819Y-36491666D01*
X252704819Y-36491666D02*
X252657200Y-36586904D01*
X252657200Y-36586904D02*
X252609580Y-36634523D01*
X251800057Y-35634523D02*
X251752438Y-35586904D01*
X251752438Y-35586904D02*
X251704819Y-35491666D01*
X251704819Y-35491666D02*
X251704819Y-35253571D01*
X251704819Y-35253571D02*
X251752438Y-35158333D01*
X251752438Y-35158333D02*
X251800057Y-35110714D01*
X251800057Y-35110714D02*
X251895295Y-35063095D01*
X251895295Y-35063095D02*
X251990533Y-35063095D01*
X251990533Y-35063095D02*
X252133390Y-35110714D01*
X252133390Y-35110714D02*
X252704819Y-35682142D01*
X252704819Y-35682142D02*
X252704819Y-35063095D01*
X41704819Y-52392857D02*
X41228628Y-52726190D01*
X41704819Y-52964285D02*
X40704819Y-52964285D01*
X40704819Y-52964285D02*
X40704819Y-52583333D01*
X40704819Y-52583333D02*
X40752438Y-52488095D01*
X40752438Y-52488095D02*
X40800057Y-52440476D01*
X40800057Y-52440476D02*
X40895295Y-52392857D01*
X40895295Y-52392857D02*
X41038152Y-52392857D01*
X41038152Y-52392857D02*
X41133390Y-52440476D01*
X41133390Y-52440476D02*
X41181009Y-52488095D01*
X41181009Y-52488095D02*
X41228628Y-52583333D01*
X41228628Y-52583333D02*
X41228628Y-52964285D01*
X41704819Y-51440476D02*
X41704819Y-52011904D01*
X41704819Y-51726190D02*
X40704819Y-51726190D01*
X40704819Y-51726190D02*
X40847676Y-51821428D01*
X40847676Y-51821428D02*
X40942914Y-51916666D01*
X40942914Y-51916666D02*
X40990533Y-52011904D01*
X41038152Y-50583333D02*
X41704819Y-50583333D01*
X40657200Y-50821428D02*
X41371485Y-51059523D01*
X41371485Y-51059523D02*
X41371485Y-50440476D01*
X191858333Y-24704819D02*
X191525000Y-24228628D01*
X191286905Y-24704819D02*
X191286905Y-23704819D01*
X191286905Y-23704819D02*
X191667857Y-23704819D01*
X191667857Y-23704819D02*
X191763095Y-23752438D01*
X191763095Y-23752438D02*
X191810714Y-23800057D01*
X191810714Y-23800057D02*
X191858333Y-23895295D01*
X191858333Y-23895295D02*
X191858333Y-24038152D01*
X191858333Y-24038152D02*
X191810714Y-24133390D01*
X191810714Y-24133390D02*
X191763095Y-24181009D01*
X191763095Y-24181009D02*
X191667857Y-24228628D01*
X191667857Y-24228628D02*
X191286905Y-24228628D01*
X192334524Y-24704819D02*
X192525000Y-24704819D01*
X192525000Y-24704819D02*
X192620238Y-24657200D01*
X192620238Y-24657200D02*
X192667857Y-24609580D01*
X192667857Y-24609580D02*
X192763095Y-24466723D01*
X192763095Y-24466723D02*
X192810714Y-24276247D01*
X192810714Y-24276247D02*
X192810714Y-23895295D01*
X192810714Y-23895295D02*
X192763095Y-23800057D01*
X192763095Y-23800057D02*
X192715476Y-23752438D01*
X192715476Y-23752438D02*
X192620238Y-23704819D01*
X192620238Y-23704819D02*
X192429762Y-23704819D01*
X192429762Y-23704819D02*
X192334524Y-23752438D01*
X192334524Y-23752438D02*
X192286905Y-23800057D01*
X192286905Y-23800057D02*
X192239286Y-23895295D01*
X192239286Y-23895295D02*
X192239286Y-24133390D01*
X192239286Y-24133390D02*
X192286905Y-24228628D01*
X192286905Y-24228628D02*
X192334524Y-24276247D01*
X192334524Y-24276247D02*
X192429762Y-24323866D01*
X192429762Y-24323866D02*
X192620238Y-24323866D01*
X192620238Y-24323866D02*
X192715476Y-24276247D01*
X192715476Y-24276247D02*
X192763095Y-24228628D01*
X192763095Y-24228628D02*
X192810714Y-24133390D01*
X191858333Y-27859580D02*
X191810714Y-27907200D01*
X191810714Y-27907200D02*
X191667857Y-27954819D01*
X191667857Y-27954819D02*
X191572619Y-27954819D01*
X191572619Y-27954819D02*
X191429762Y-27907200D01*
X191429762Y-27907200D02*
X191334524Y-27811961D01*
X191334524Y-27811961D02*
X191286905Y-27716723D01*
X191286905Y-27716723D02*
X191239286Y-27526247D01*
X191239286Y-27526247D02*
X191239286Y-27383390D01*
X191239286Y-27383390D02*
X191286905Y-27192914D01*
X191286905Y-27192914D02*
X191334524Y-27097676D01*
X191334524Y-27097676D02*
X191429762Y-27002438D01*
X191429762Y-27002438D02*
X191572619Y-26954819D01*
X191572619Y-26954819D02*
X191667857Y-26954819D01*
X191667857Y-26954819D02*
X191810714Y-27002438D01*
X191810714Y-27002438D02*
X191858333Y-27050057D01*
X192763095Y-26954819D02*
X192286905Y-26954819D01*
X192286905Y-26954819D02*
X192239286Y-27431009D01*
X192239286Y-27431009D02*
X192286905Y-27383390D01*
X192286905Y-27383390D02*
X192382143Y-27335771D01*
X192382143Y-27335771D02*
X192620238Y-27335771D01*
X192620238Y-27335771D02*
X192715476Y-27383390D01*
X192715476Y-27383390D02*
X192763095Y-27431009D01*
X192763095Y-27431009D02*
X192810714Y-27526247D01*
X192810714Y-27526247D02*
X192810714Y-27764342D01*
X192810714Y-27764342D02*
X192763095Y-27859580D01*
X192763095Y-27859580D02*
X192715476Y-27907200D01*
X192715476Y-27907200D02*
X192620238Y-27954819D01*
X192620238Y-27954819D02*
X192382143Y-27954819D01*
X192382143Y-27954819D02*
X192286905Y-27907200D01*
X192286905Y-27907200D02*
X192239286Y-27859580D01*
X250954819Y-36967857D02*
X250478628Y-37301190D01*
X250954819Y-37539285D02*
X249954819Y-37539285D01*
X249954819Y-37539285D02*
X249954819Y-37158333D01*
X249954819Y-37158333D02*
X250002438Y-37063095D01*
X250002438Y-37063095D02*
X250050057Y-37015476D01*
X250050057Y-37015476D02*
X250145295Y-36967857D01*
X250145295Y-36967857D02*
X250288152Y-36967857D01*
X250288152Y-36967857D02*
X250383390Y-37015476D01*
X250383390Y-37015476D02*
X250431009Y-37063095D01*
X250431009Y-37063095D02*
X250478628Y-37158333D01*
X250478628Y-37158333D02*
X250478628Y-37539285D01*
X249954819Y-36634523D02*
X249954819Y-36015476D01*
X249954819Y-36015476D02*
X250335771Y-36348809D01*
X250335771Y-36348809D02*
X250335771Y-36205952D01*
X250335771Y-36205952D02*
X250383390Y-36110714D01*
X250383390Y-36110714D02*
X250431009Y-36063095D01*
X250431009Y-36063095D02*
X250526247Y-36015476D01*
X250526247Y-36015476D02*
X250764342Y-36015476D01*
X250764342Y-36015476D02*
X250859580Y-36063095D01*
X250859580Y-36063095D02*
X250907200Y-36110714D01*
X250907200Y-36110714D02*
X250954819Y-36205952D01*
X250954819Y-36205952D02*
X250954819Y-36491666D01*
X250954819Y-36491666D02*
X250907200Y-36586904D01*
X250907200Y-36586904D02*
X250859580Y-36634523D01*
X249954819Y-35682142D02*
X249954819Y-35063095D01*
X249954819Y-35063095D02*
X250335771Y-35396428D01*
X250335771Y-35396428D02*
X250335771Y-35253571D01*
X250335771Y-35253571D02*
X250383390Y-35158333D01*
X250383390Y-35158333D02*
X250431009Y-35110714D01*
X250431009Y-35110714D02*
X250526247Y-35063095D01*
X250526247Y-35063095D02*
X250764342Y-35063095D01*
X250764342Y-35063095D02*
X250859580Y-35110714D01*
X250859580Y-35110714D02*
X250907200Y-35158333D01*
X250907200Y-35158333D02*
X250954819Y-35253571D01*
X250954819Y-35253571D02*
X250954819Y-35539285D01*
X250954819Y-35539285D02*
X250907200Y-35634523D01*
X250907200Y-35634523D02*
X250859580Y-35682142D01*
X176704819Y-45011904D02*
X177514342Y-45011904D01*
X177514342Y-45011904D02*
X177609580Y-44964285D01*
X177609580Y-44964285D02*
X177657200Y-44916666D01*
X177657200Y-44916666D02*
X177704819Y-44821428D01*
X177704819Y-44821428D02*
X177704819Y-44630952D01*
X177704819Y-44630952D02*
X177657200Y-44535714D01*
X177657200Y-44535714D02*
X177609580Y-44488095D01*
X177609580Y-44488095D02*
X177514342Y-44440476D01*
X177514342Y-44440476D02*
X176704819Y-44440476D01*
X176704819Y-44059523D02*
X176704819Y-43440476D01*
X176704819Y-43440476D02*
X177085771Y-43773809D01*
X177085771Y-43773809D02*
X177085771Y-43630952D01*
X177085771Y-43630952D02*
X177133390Y-43535714D01*
X177133390Y-43535714D02*
X177181009Y-43488095D01*
X177181009Y-43488095D02*
X177276247Y-43440476D01*
X177276247Y-43440476D02*
X177514342Y-43440476D01*
X177514342Y-43440476D02*
X177609580Y-43488095D01*
X177609580Y-43488095D02*
X177657200Y-43535714D01*
X177657200Y-43535714D02*
X177704819Y-43630952D01*
X177704819Y-43630952D02*
X177704819Y-43916666D01*
X177704819Y-43916666D02*
X177657200Y-44011904D01*
X177657200Y-44011904D02*
X177609580Y-44059523D01*
X249204819Y-36892857D02*
X248728628Y-37226190D01*
X249204819Y-37464285D02*
X248204819Y-37464285D01*
X248204819Y-37464285D02*
X248204819Y-37083333D01*
X248204819Y-37083333D02*
X248252438Y-36988095D01*
X248252438Y-36988095D02*
X248300057Y-36940476D01*
X248300057Y-36940476D02*
X248395295Y-36892857D01*
X248395295Y-36892857D02*
X248538152Y-36892857D01*
X248538152Y-36892857D02*
X248633390Y-36940476D01*
X248633390Y-36940476D02*
X248681009Y-36988095D01*
X248681009Y-36988095D02*
X248728628Y-37083333D01*
X248728628Y-37083333D02*
X248728628Y-37464285D01*
X248204819Y-36559523D02*
X248204819Y-35940476D01*
X248204819Y-35940476D02*
X248585771Y-36273809D01*
X248585771Y-36273809D02*
X248585771Y-36130952D01*
X248585771Y-36130952D02*
X248633390Y-36035714D01*
X248633390Y-36035714D02*
X248681009Y-35988095D01*
X248681009Y-35988095D02*
X248776247Y-35940476D01*
X248776247Y-35940476D02*
X249014342Y-35940476D01*
X249014342Y-35940476D02*
X249109580Y-35988095D01*
X249109580Y-35988095D02*
X249157200Y-36035714D01*
X249157200Y-36035714D02*
X249204819Y-36130952D01*
X249204819Y-36130952D02*
X249204819Y-36416666D01*
X249204819Y-36416666D02*
X249157200Y-36511904D01*
X249157200Y-36511904D02*
X249109580Y-36559523D01*
X249204819Y-34988095D02*
X249204819Y-35559523D01*
X249204819Y-35273809D02*
X248204819Y-35273809D01*
X248204819Y-35273809D02*
X248347676Y-35369047D01*
X248347676Y-35369047D02*
X248442914Y-35464285D01*
X248442914Y-35464285D02*
X248490533Y-35559523D01*
D13*
X48574318Y-31887381D02*
X47304318Y-31887381D01*
X47304318Y-31887381D02*
X47304318Y-31585000D01*
X47304318Y-31585000D02*
X47364794Y-31403571D01*
X47364794Y-31403571D02*
X47485746Y-31282619D01*
X47485746Y-31282619D02*
X47606699Y-31222142D01*
X47606699Y-31222142D02*
X47848603Y-31161666D01*
X47848603Y-31161666D02*
X48030032Y-31161666D01*
X48030032Y-31161666D02*
X48271937Y-31222142D01*
X48271937Y-31222142D02*
X48392889Y-31282619D01*
X48392889Y-31282619D02*
X48513842Y-31403571D01*
X48513842Y-31403571D02*
X48574318Y-31585000D01*
X48574318Y-31585000D02*
X48574318Y-31887381D01*
X47304318Y-30073095D02*
X47304318Y-30315000D01*
X47304318Y-30315000D02*
X47364794Y-30435952D01*
X47364794Y-30435952D02*
X47425270Y-30496428D01*
X47425270Y-30496428D02*
X47606699Y-30617381D01*
X47606699Y-30617381D02*
X47848603Y-30677857D01*
X47848603Y-30677857D02*
X48332413Y-30677857D01*
X48332413Y-30677857D02*
X48453365Y-30617381D01*
X48453365Y-30617381D02*
X48513842Y-30556904D01*
X48513842Y-30556904D02*
X48574318Y-30435952D01*
X48574318Y-30435952D02*
X48574318Y-30194047D01*
X48574318Y-30194047D02*
X48513842Y-30073095D01*
X48513842Y-30073095D02*
X48453365Y-30012619D01*
X48453365Y-30012619D02*
X48332413Y-29952142D01*
X48332413Y-29952142D02*
X48030032Y-29952142D01*
X48030032Y-29952142D02*
X47909080Y-30012619D01*
X47909080Y-30012619D02*
X47848603Y-30073095D01*
X47848603Y-30073095D02*
X47788127Y-30194047D01*
X47788127Y-30194047D02*
X47788127Y-30435952D01*
X47788127Y-30435952D02*
X47848603Y-30556904D01*
X47848603Y-30556904D02*
X47909080Y-30617381D01*
X47909080Y-30617381D02*
X48030032Y-30677857D01*
D10*
X185358333Y-22704819D02*
X185025000Y-22228628D01*
X184786905Y-22704819D02*
X184786905Y-21704819D01*
X184786905Y-21704819D02*
X185167857Y-21704819D01*
X185167857Y-21704819D02*
X185263095Y-21752438D01*
X185263095Y-21752438D02*
X185310714Y-21800057D01*
X185310714Y-21800057D02*
X185358333Y-21895295D01*
X185358333Y-21895295D02*
X185358333Y-22038152D01*
X185358333Y-22038152D02*
X185310714Y-22133390D01*
X185310714Y-22133390D02*
X185263095Y-22181009D01*
X185263095Y-22181009D02*
X185167857Y-22228628D01*
X185167857Y-22228628D02*
X184786905Y-22228628D01*
X185929762Y-22133390D02*
X185834524Y-22085771D01*
X185834524Y-22085771D02*
X185786905Y-22038152D01*
X185786905Y-22038152D02*
X185739286Y-21942914D01*
X185739286Y-21942914D02*
X185739286Y-21895295D01*
X185739286Y-21895295D02*
X185786905Y-21800057D01*
X185786905Y-21800057D02*
X185834524Y-21752438D01*
X185834524Y-21752438D02*
X185929762Y-21704819D01*
X185929762Y-21704819D02*
X186120238Y-21704819D01*
X186120238Y-21704819D02*
X186215476Y-21752438D01*
X186215476Y-21752438D02*
X186263095Y-21800057D01*
X186263095Y-21800057D02*
X186310714Y-21895295D01*
X186310714Y-21895295D02*
X186310714Y-21942914D01*
X186310714Y-21942914D02*
X186263095Y-22038152D01*
X186263095Y-22038152D02*
X186215476Y-22085771D01*
X186215476Y-22085771D02*
X186120238Y-22133390D01*
X186120238Y-22133390D02*
X185929762Y-22133390D01*
X185929762Y-22133390D02*
X185834524Y-22181009D01*
X185834524Y-22181009D02*
X185786905Y-22228628D01*
X185786905Y-22228628D02*
X185739286Y-22323866D01*
X185739286Y-22323866D02*
X185739286Y-22514342D01*
X185739286Y-22514342D02*
X185786905Y-22609580D01*
X185786905Y-22609580D02*
X185834524Y-22657200D01*
X185834524Y-22657200D02*
X185929762Y-22704819D01*
X185929762Y-22704819D02*
X186120238Y-22704819D01*
X186120238Y-22704819D02*
X186215476Y-22657200D01*
X186215476Y-22657200D02*
X186263095Y-22609580D01*
X186263095Y-22609580D02*
X186310714Y-22514342D01*
X186310714Y-22514342D02*
X186310714Y-22323866D01*
X186310714Y-22323866D02*
X186263095Y-22228628D01*
X186263095Y-22228628D02*
X186215476Y-22181009D01*
X186215476Y-22181009D02*
X186120238Y-22133390D01*
X188333333Y-47954819D02*
X188000000Y-47478628D01*
X187761905Y-47954819D02*
X187761905Y-46954819D01*
X187761905Y-46954819D02*
X188142857Y-46954819D01*
X188142857Y-46954819D02*
X188238095Y-47002438D01*
X188238095Y-47002438D02*
X188285714Y-47050057D01*
X188285714Y-47050057D02*
X188333333Y-47145295D01*
X188333333Y-47145295D02*
X188333333Y-47288152D01*
X188333333Y-47288152D02*
X188285714Y-47383390D01*
X188285714Y-47383390D02*
X188238095Y-47431009D01*
X188238095Y-47431009D02*
X188142857Y-47478628D01*
X188142857Y-47478628D02*
X187761905Y-47478628D01*
X189190476Y-46954819D02*
X189000000Y-46954819D01*
X189000000Y-46954819D02*
X188904762Y-47002438D01*
X188904762Y-47002438D02*
X188857143Y-47050057D01*
X188857143Y-47050057D02*
X188761905Y-47192914D01*
X188761905Y-47192914D02*
X188714286Y-47383390D01*
X188714286Y-47383390D02*
X188714286Y-47764342D01*
X188714286Y-47764342D02*
X188761905Y-47859580D01*
X188761905Y-47859580D02*
X188809524Y-47907200D01*
X188809524Y-47907200D02*
X188904762Y-47954819D01*
X188904762Y-47954819D02*
X189095238Y-47954819D01*
X189095238Y-47954819D02*
X189190476Y-47907200D01*
X189190476Y-47907200D02*
X189238095Y-47859580D01*
X189238095Y-47859580D02*
X189285714Y-47764342D01*
X189285714Y-47764342D02*
X189285714Y-47526247D01*
X189285714Y-47526247D02*
X189238095Y-47431009D01*
X189238095Y-47431009D02*
X189190476Y-47383390D01*
X189190476Y-47383390D02*
X189095238Y-47335771D01*
X189095238Y-47335771D02*
X188904762Y-47335771D01*
X188904762Y-47335771D02*
X188809524Y-47383390D01*
X188809524Y-47383390D02*
X188761905Y-47431009D01*
X188761905Y-47431009D02*
X188714286Y-47526247D01*
X172355216Y-25300711D02*
X172259866Y-25253036D01*
X172259866Y-25253036D02*
X172164516Y-25157687D01*
X172164516Y-25157687D02*
X172021491Y-25014662D01*
X172021491Y-25014662D02*
X171926142Y-24966987D01*
X171926142Y-24966987D02*
X171830792Y-24966987D01*
X171878467Y-25205361D02*
X171783117Y-25157687D01*
X171783117Y-25157687D02*
X171687767Y-25062337D01*
X171687767Y-25062337D02*
X171640092Y-24871637D01*
X171640092Y-24871637D02*
X171640092Y-24537913D01*
X171640092Y-24537913D02*
X171687767Y-24347213D01*
X171687767Y-24347213D02*
X171783117Y-24251863D01*
X171783117Y-24251863D02*
X171878467Y-24204188D01*
X171878467Y-24204188D02*
X172069166Y-24204188D01*
X172069166Y-24204188D02*
X172164516Y-24251863D01*
X172164516Y-24251863D02*
X172259866Y-24347213D01*
X172259866Y-24347213D02*
X172307541Y-24537913D01*
X172307541Y-24537913D02*
X172307541Y-24871637D01*
X172307541Y-24871637D02*
X172259866Y-25062337D01*
X172259866Y-25062337D02*
X172164516Y-25157687D01*
X172164516Y-25157687D02*
X172069166Y-25205361D01*
X172069166Y-25205361D02*
X171878467Y-25205361D01*
X172641265Y-24204188D02*
X172879640Y-25205361D01*
X172879640Y-25205361D02*
X173070339Y-24490238D01*
X173070339Y-24490238D02*
X173261039Y-25205361D01*
X173261039Y-25205361D02*
X173499414Y-24204188D01*
X173880813Y-25205361D02*
X173880813Y-24204188D01*
X174357562Y-25205361D02*
X174357562Y-24204188D01*
X175406410Y-25110012D02*
X175358735Y-25157687D01*
X175358735Y-25157687D02*
X175215710Y-25205361D01*
X175215710Y-25205361D02*
X175120360Y-25205361D01*
X175120360Y-25205361D02*
X174977336Y-25157687D01*
X174977336Y-25157687D02*
X174881986Y-25062337D01*
X174881986Y-25062337D02*
X174834311Y-24966987D01*
X174834311Y-24966987D02*
X174786636Y-24776287D01*
X174786636Y-24776287D02*
X174786636Y-24633263D01*
X174786636Y-24633263D02*
X174834311Y-24442563D01*
X174834311Y-24442563D02*
X174881986Y-24347213D01*
X174881986Y-24347213D02*
X174977336Y-24251863D01*
X174977336Y-24251863D02*
X175120360Y-24204188D01*
X175120360Y-24204188D02*
X175215710Y-24204188D01*
X175215710Y-24204188D02*
X175358735Y-24251863D01*
X175358735Y-24251863D02*
X175406410Y-24299538D01*
X176359908Y-25205361D02*
X175787809Y-25205361D01*
X176073859Y-25205361D02*
X176073859Y-24204188D01*
X176073859Y-24204188D02*
X175978509Y-24347213D01*
X175978509Y-24347213D02*
X175883159Y-24442563D01*
X175883159Y-24442563D02*
X175787809Y-24490238D01*
X184763095Y-28454819D02*
X184763095Y-29264342D01*
X184763095Y-29264342D02*
X184810714Y-29359580D01*
X184810714Y-29359580D02*
X184858333Y-29407200D01*
X184858333Y-29407200D02*
X184953571Y-29454819D01*
X184953571Y-29454819D02*
X185144047Y-29454819D01*
X185144047Y-29454819D02*
X185239285Y-29407200D01*
X185239285Y-29407200D02*
X185286904Y-29359580D01*
X185286904Y-29359580D02*
X185334523Y-29264342D01*
X185334523Y-29264342D02*
X185334523Y-28454819D01*
X186334523Y-29454819D02*
X185763095Y-29454819D01*
X186048809Y-29454819D02*
X186048809Y-28454819D01*
X186048809Y-28454819D02*
X185953571Y-28597676D01*
X185953571Y-28597676D02*
X185858333Y-28692914D01*
X185858333Y-28692914D02*
X185763095Y-28740533D01*
D13*
X253017318Y-50048332D02*
X253924461Y-50048332D01*
X253924461Y-50048332D02*
X254105889Y-50108809D01*
X254105889Y-50108809D02*
X254226842Y-50229761D01*
X254226842Y-50229761D02*
X254287318Y-50411190D01*
X254287318Y-50411190D02*
X254287318Y-50532142D01*
X253138270Y-49504047D02*
X253077794Y-49443571D01*
X253077794Y-49443571D02*
X253017318Y-49322618D01*
X253017318Y-49322618D02*
X253017318Y-49020237D01*
X253017318Y-49020237D02*
X253077794Y-48899285D01*
X253077794Y-48899285D02*
X253138270Y-48838809D01*
X253138270Y-48838809D02*
X253259222Y-48778332D01*
X253259222Y-48778332D02*
X253380175Y-48778332D01*
X253380175Y-48778332D02*
X253561603Y-48838809D01*
X253561603Y-48838809D02*
X254287318Y-49564523D01*
X254287318Y-49564523D02*
X254287318Y-48778332D01*
D10*
X194774819Y-32142857D02*
X194298628Y-32476190D01*
X194774819Y-32714285D02*
X193774819Y-32714285D01*
X193774819Y-32714285D02*
X193774819Y-32333333D01*
X193774819Y-32333333D02*
X193822438Y-32238095D01*
X193822438Y-32238095D02*
X193870057Y-32190476D01*
X193870057Y-32190476D02*
X193965295Y-32142857D01*
X193965295Y-32142857D02*
X194108152Y-32142857D01*
X194108152Y-32142857D02*
X194203390Y-32190476D01*
X194203390Y-32190476D02*
X194251009Y-32238095D01*
X194251009Y-32238095D02*
X194298628Y-32333333D01*
X194298628Y-32333333D02*
X194298628Y-32714285D01*
X194774819Y-31190476D02*
X194774819Y-31761904D01*
X194774819Y-31476190D02*
X193774819Y-31476190D01*
X193774819Y-31476190D02*
X193917676Y-31571428D01*
X193917676Y-31571428D02*
X194012914Y-31666666D01*
X194012914Y-31666666D02*
X194060533Y-31761904D01*
X193870057Y-30809523D02*
X193822438Y-30761904D01*
X193822438Y-30761904D02*
X193774819Y-30666666D01*
X193774819Y-30666666D02*
X193774819Y-30428571D01*
X193774819Y-30428571D02*
X193822438Y-30333333D01*
X193822438Y-30333333D02*
X193870057Y-30285714D01*
X193870057Y-30285714D02*
X193965295Y-30238095D01*
X193965295Y-30238095D02*
X194060533Y-30238095D01*
X194060533Y-30238095D02*
X194203390Y-30285714D01*
X194203390Y-30285714D02*
X194774819Y-30857142D01*
X194774819Y-30857142D02*
X194774819Y-30238095D01*
X220109580Y-36691666D02*
X220157200Y-36739285D01*
X220157200Y-36739285D02*
X220204819Y-36882142D01*
X220204819Y-36882142D02*
X220204819Y-36977380D01*
X220204819Y-36977380D02*
X220157200Y-37120237D01*
X220157200Y-37120237D02*
X220061961Y-37215475D01*
X220061961Y-37215475D02*
X219966723Y-37263094D01*
X219966723Y-37263094D02*
X219776247Y-37310713D01*
X219776247Y-37310713D02*
X219633390Y-37310713D01*
X219633390Y-37310713D02*
X219442914Y-37263094D01*
X219442914Y-37263094D02*
X219347676Y-37215475D01*
X219347676Y-37215475D02*
X219252438Y-37120237D01*
X219252438Y-37120237D02*
X219204819Y-36977380D01*
X219204819Y-36977380D02*
X219204819Y-36882142D01*
X219204819Y-36882142D02*
X219252438Y-36739285D01*
X219252438Y-36739285D02*
X219300057Y-36691666D01*
X219204819Y-36358332D02*
X219204819Y-35739285D01*
X219204819Y-35739285D02*
X219585771Y-36072618D01*
X219585771Y-36072618D02*
X219585771Y-35929761D01*
X219585771Y-35929761D02*
X219633390Y-35834523D01*
X219633390Y-35834523D02*
X219681009Y-35786904D01*
X219681009Y-35786904D02*
X219776247Y-35739285D01*
X219776247Y-35739285D02*
X220014342Y-35739285D01*
X220014342Y-35739285D02*
X220109580Y-35786904D01*
X220109580Y-35786904D02*
X220157200Y-35834523D01*
X220157200Y-35834523D02*
X220204819Y-35929761D01*
X220204819Y-35929761D02*
X220204819Y-36215475D01*
X220204819Y-36215475D02*
X220157200Y-36310713D01*
X220157200Y-36310713D02*
X220109580Y-36358332D01*
X233988095Y-34954819D02*
X233988095Y-35764342D01*
X233988095Y-35764342D02*
X234035714Y-35859580D01*
X234035714Y-35859580D02*
X234083333Y-35907200D01*
X234083333Y-35907200D02*
X234178571Y-35954819D01*
X234178571Y-35954819D02*
X234369047Y-35954819D01*
X234369047Y-35954819D02*
X234464285Y-35907200D01*
X234464285Y-35907200D02*
X234511904Y-35859580D01*
X234511904Y-35859580D02*
X234559523Y-35764342D01*
X234559523Y-35764342D02*
X234559523Y-34954819D01*
X235464285Y-35288152D02*
X235464285Y-35954819D01*
X235226190Y-34907200D02*
X234988095Y-35621485D01*
X234988095Y-35621485D02*
X235607142Y-35621485D01*
X226913094Y-24919104D02*
X227389284Y-24919104D01*
X226817856Y-25204819D02*
X227151189Y-24204819D01*
X227151189Y-24204819D02*
X227484522Y-25204819D01*
X227817856Y-24538152D02*
X227817856Y-25204819D01*
X227817856Y-24633390D02*
X227865475Y-24585771D01*
X227865475Y-24585771D02*
X227960713Y-24538152D01*
X227960713Y-24538152D02*
X228103570Y-24538152D01*
X228103570Y-24538152D02*
X228198808Y-24585771D01*
X228198808Y-24585771D02*
X228246427Y-24681009D01*
X228246427Y-24681009D02*
X228246427Y-25204819D01*
X228579761Y-24538152D02*
X228960713Y-24538152D01*
X228722618Y-24204819D02*
X228722618Y-25061961D01*
X228722618Y-25061961D02*
X228770237Y-25157200D01*
X228770237Y-25157200D02*
X228865475Y-25204819D01*
X228865475Y-25204819D02*
X228960713Y-25204819D01*
X229674999Y-25157200D02*
X229579761Y-25204819D01*
X229579761Y-25204819D02*
X229389285Y-25204819D01*
X229389285Y-25204819D02*
X229294047Y-25157200D01*
X229294047Y-25157200D02*
X229246428Y-25061961D01*
X229246428Y-25061961D02*
X229246428Y-24681009D01*
X229246428Y-24681009D02*
X229294047Y-24585771D01*
X229294047Y-24585771D02*
X229389285Y-24538152D01*
X229389285Y-24538152D02*
X229579761Y-24538152D01*
X229579761Y-24538152D02*
X229674999Y-24585771D01*
X229674999Y-24585771D02*
X229722618Y-24681009D01*
X229722618Y-24681009D02*
X229722618Y-24776247D01*
X229722618Y-24776247D02*
X229246428Y-24871485D01*
X230151190Y-24538152D02*
X230151190Y-25204819D01*
X230151190Y-24633390D02*
X230198809Y-24585771D01*
X230198809Y-24585771D02*
X230294047Y-24538152D01*
X230294047Y-24538152D02*
X230436904Y-24538152D01*
X230436904Y-24538152D02*
X230532142Y-24585771D01*
X230532142Y-24585771D02*
X230579761Y-24681009D01*
X230579761Y-24681009D02*
X230579761Y-25204819D01*
X231055952Y-24538152D02*
X231055952Y-25204819D01*
X231055952Y-24633390D02*
X231103571Y-24585771D01*
X231103571Y-24585771D02*
X231198809Y-24538152D01*
X231198809Y-24538152D02*
X231341666Y-24538152D01*
X231341666Y-24538152D02*
X231436904Y-24585771D01*
X231436904Y-24585771D02*
X231484523Y-24681009D01*
X231484523Y-24681009D02*
X231484523Y-25204819D01*
X232389285Y-25204819D02*
X232389285Y-24681009D01*
X232389285Y-24681009D02*
X232341666Y-24585771D01*
X232341666Y-24585771D02*
X232246428Y-24538152D01*
X232246428Y-24538152D02*
X232055952Y-24538152D01*
X232055952Y-24538152D02*
X231960714Y-24585771D01*
X232389285Y-25157200D02*
X232294047Y-25204819D01*
X232294047Y-25204819D02*
X232055952Y-25204819D01*
X232055952Y-25204819D02*
X231960714Y-25157200D01*
X231960714Y-25157200D02*
X231913095Y-25061961D01*
X231913095Y-25061961D02*
X231913095Y-24966723D01*
X231913095Y-24966723D02*
X231960714Y-24871485D01*
X231960714Y-24871485D02*
X232055952Y-24823866D01*
X232055952Y-24823866D02*
X232294047Y-24823866D01*
X232294047Y-24823866D02*
X232389285Y-24776247D01*
X233579762Y-24919104D02*
X234055952Y-24919104D01*
X233484524Y-25204819D02*
X233817857Y-24204819D01*
X233817857Y-24204819D02*
X234151190Y-25204819D01*
X234484524Y-25204819D02*
X234484524Y-24538152D01*
X234484524Y-24728628D02*
X234532143Y-24633390D01*
X234532143Y-24633390D02*
X234579762Y-24585771D01*
X234579762Y-24585771D02*
X234675000Y-24538152D01*
X234675000Y-24538152D02*
X234770238Y-24538152D01*
X235484524Y-25157200D02*
X235389286Y-25204819D01*
X235389286Y-25204819D02*
X235198810Y-25204819D01*
X235198810Y-25204819D02*
X235103572Y-25157200D01*
X235103572Y-25157200D02*
X235055953Y-25061961D01*
X235055953Y-25061961D02*
X235055953Y-24681009D01*
X235055953Y-24681009D02*
X235103572Y-24585771D01*
X235103572Y-24585771D02*
X235198810Y-24538152D01*
X235198810Y-24538152D02*
X235389286Y-24538152D01*
X235389286Y-24538152D02*
X235484524Y-24585771D01*
X235484524Y-24585771D02*
X235532143Y-24681009D01*
X235532143Y-24681009D02*
X235532143Y-24776247D01*
X235532143Y-24776247D02*
X235055953Y-24871485D01*
X236389286Y-25204819D02*
X236389286Y-24681009D01*
X236389286Y-24681009D02*
X236341667Y-24585771D01*
X236341667Y-24585771D02*
X236246429Y-24538152D01*
X236246429Y-24538152D02*
X236055953Y-24538152D01*
X236055953Y-24538152D02*
X235960715Y-24585771D01*
X236389286Y-25157200D02*
X236294048Y-25204819D01*
X236294048Y-25204819D02*
X236055953Y-25204819D01*
X236055953Y-25204819D02*
X235960715Y-25157200D01*
X235960715Y-25157200D02*
X235913096Y-25061961D01*
X235913096Y-25061961D02*
X235913096Y-24966723D01*
X235913096Y-24966723D02*
X235960715Y-24871485D01*
X235960715Y-24871485D02*
X236055953Y-24823866D01*
X236055953Y-24823866D02*
X236294048Y-24823866D01*
X236294048Y-24823866D02*
X236389286Y-24776247D01*
X220512380Y-26648276D02*
X220512380Y-27166371D01*
X220512380Y-27166371D02*
X220542857Y-27227323D01*
X220542857Y-27227323D02*
X220573333Y-27257800D01*
X220573333Y-27257800D02*
X220634285Y-27288276D01*
X220634285Y-27288276D02*
X220756190Y-27288276D01*
X220756190Y-27288276D02*
X220817142Y-27257800D01*
X220817142Y-27257800D02*
X220847619Y-27227323D01*
X220847619Y-27227323D02*
X220878095Y-27166371D01*
X220878095Y-27166371D02*
X220878095Y-26648276D01*
X221152380Y-26709228D02*
X221182856Y-26678752D01*
X221182856Y-26678752D02*
X221243809Y-26648276D01*
X221243809Y-26648276D02*
X221396190Y-26648276D01*
X221396190Y-26648276D02*
X221457142Y-26678752D01*
X221457142Y-26678752D02*
X221487618Y-26709228D01*
X221487618Y-26709228D02*
X221518095Y-26770180D01*
X221518095Y-26770180D02*
X221518095Y-26831133D01*
X221518095Y-26831133D02*
X221487618Y-26922561D01*
X221487618Y-26922561D02*
X221121904Y-27288276D01*
X221121904Y-27288276D02*
X221518095Y-27288276D01*
X218454819Y-36666666D02*
X217978628Y-36999999D01*
X218454819Y-37238094D02*
X217454819Y-37238094D01*
X217454819Y-37238094D02*
X217454819Y-36857142D01*
X217454819Y-36857142D02*
X217502438Y-36761904D01*
X217502438Y-36761904D02*
X217550057Y-36714285D01*
X217550057Y-36714285D02*
X217645295Y-36666666D01*
X217645295Y-36666666D02*
X217788152Y-36666666D01*
X217788152Y-36666666D02*
X217883390Y-36714285D01*
X217883390Y-36714285D02*
X217931009Y-36761904D01*
X217931009Y-36761904D02*
X217978628Y-36857142D01*
X217978628Y-36857142D02*
X217978628Y-37238094D01*
X217788152Y-35809523D02*
X218454819Y-35809523D01*
X217407200Y-36047618D02*
X218121485Y-36285713D01*
X218121485Y-36285713D02*
X218121485Y-35666666D01*
X257954819Y-36892857D02*
X257478628Y-37226190D01*
X257954819Y-37464285D02*
X256954819Y-37464285D01*
X256954819Y-37464285D02*
X256954819Y-37083333D01*
X256954819Y-37083333D02*
X257002438Y-36988095D01*
X257002438Y-36988095D02*
X257050057Y-36940476D01*
X257050057Y-36940476D02*
X257145295Y-36892857D01*
X257145295Y-36892857D02*
X257288152Y-36892857D01*
X257288152Y-36892857D02*
X257383390Y-36940476D01*
X257383390Y-36940476D02*
X257431009Y-36988095D01*
X257431009Y-36988095D02*
X257478628Y-37083333D01*
X257478628Y-37083333D02*
X257478628Y-37464285D01*
X257050057Y-36511904D02*
X257002438Y-36464285D01*
X257002438Y-36464285D02*
X256954819Y-36369047D01*
X256954819Y-36369047D02*
X256954819Y-36130952D01*
X256954819Y-36130952D02*
X257002438Y-36035714D01*
X257002438Y-36035714D02*
X257050057Y-35988095D01*
X257050057Y-35988095D02*
X257145295Y-35940476D01*
X257145295Y-35940476D02*
X257240533Y-35940476D01*
X257240533Y-35940476D02*
X257383390Y-35988095D01*
X257383390Y-35988095D02*
X257954819Y-36559523D01*
X257954819Y-36559523D02*
X257954819Y-35940476D01*
X257383390Y-35369047D02*
X257335771Y-35464285D01*
X257335771Y-35464285D02*
X257288152Y-35511904D01*
X257288152Y-35511904D02*
X257192914Y-35559523D01*
X257192914Y-35559523D02*
X257145295Y-35559523D01*
X257145295Y-35559523D02*
X257050057Y-35511904D01*
X257050057Y-35511904D02*
X257002438Y-35464285D01*
X257002438Y-35464285D02*
X256954819Y-35369047D01*
X256954819Y-35369047D02*
X256954819Y-35178571D01*
X256954819Y-35178571D02*
X257002438Y-35083333D01*
X257002438Y-35083333D02*
X257050057Y-35035714D01*
X257050057Y-35035714D02*
X257145295Y-34988095D01*
X257145295Y-34988095D02*
X257192914Y-34988095D01*
X257192914Y-34988095D02*
X257288152Y-35035714D01*
X257288152Y-35035714D02*
X257335771Y-35083333D01*
X257335771Y-35083333D02*
X257383390Y-35178571D01*
X257383390Y-35178571D02*
X257383390Y-35369047D01*
X257383390Y-35369047D02*
X257431009Y-35464285D01*
X257431009Y-35464285D02*
X257478628Y-35511904D01*
X257478628Y-35511904D02*
X257573866Y-35559523D01*
X257573866Y-35559523D02*
X257764342Y-35559523D01*
X257764342Y-35559523D02*
X257859580Y-35511904D01*
X257859580Y-35511904D02*
X257907200Y-35464285D01*
X257907200Y-35464285D02*
X257954819Y-35369047D01*
X257954819Y-35369047D02*
X257954819Y-35178571D01*
X257954819Y-35178571D02*
X257907200Y-35083333D01*
X257907200Y-35083333D02*
X257859580Y-35035714D01*
X257859580Y-35035714D02*
X257764342Y-34988095D01*
X257764342Y-34988095D02*
X257573866Y-34988095D01*
X257573866Y-34988095D02*
X257478628Y-35035714D01*
X257478628Y-35035714D02*
X257431009Y-35083333D01*
X257431009Y-35083333D02*
X257383390Y-35178571D01*
D14*
%TO.C,J4*%
X142100000Y-25330000D02*
X142100000Y-24000000D01*
X143430000Y-25330000D02*
X142100000Y-25330000D01*
X144700000Y-25330000D02*
X165080000Y-25330000D01*
X144700000Y-25330000D02*
X144700000Y-22670000D01*
X165080000Y-25330000D02*
X165080000Y-22670000D01*
X144700000Y-22670000D02*
X165080000Y-22670000D01*
D15*
%TO.C,G\u002A\u002A\u002A*%
G36*
X168709605Y-28665598D02*
G01*
X168792093Y-28694076D01*
X168795389Y-28695618D01*
X168845935Y-28727372D01*
X168893043Y-28770993D01*
X168931290Y-28820631D01*
X168954079Y-28866840D01*
X168964550Y-28914716D01*
X168968663Y-28972423D01*
X168966434Y-29031318D01*
X168957880Y-29082757D01*
X168953624Y-29096758D01*
X168931222Y-29140272D01*
X168896327Y-29185864D01*
X168854542Y-29227090D01*
X168816287Y-29254774D01*
X168745747Y-29286316D01*
X168668534Y-29303950D01*
X168588124Y-29308307D01*
X168507991Y-29300017D01*
X168431612Y-29279711D01*
X168362462Y-29248018D01*
X168304017Y-29205569D01*
X168260367Y-29153970D01*
X168229767Y-29089133D01*
X168214463Y-29018446D01*
X168213996Y-28945987D01*
X168227907Y-28875835D01*
X168255737Y-28812067D01*
X168297027Y-28758762D01*
X168305770Y-28750666D01*
X168372560Y-28704767D01*
X168450188Y-28672878D01*
X168534804Y-28655432D01*
X168622559Y-28652861D01*
X168709605Y-28665598D01*
G37*
G36*
X169759258Y-22129868D02*
G01*
X169760000Y-22144185D01*
X169751952Y-22167355D01*
X169726309Y-22189184D01*
X169725000Y-22190000D01*
X169700583Y-22209073D01*
X169690835Y-22229617D01*
X169690000Y-22240816D01*
X169692036Y-22260437D01*
X169702175Y-22268484D01*
X169725000Y-22270000D01*
X169748669Y-22271868D01*
X169758358Y-22280274D01*
X169760000Y-22295000D01*
X169760000Y-22320000D01*
X169640000Y-22320000D01*
X169560000Y-22320000D01*
X169520000Y-22320000D01*
X169520000Y-22270000D01*
X169560000Y-22270000D01*
X169605000Y-22270000D01*
X169632665Y-22269149D01*
X169645768Y-22264127D01*
X169649740Y-22251234D01*
X169650000Y-22239343D01*
X169646624Y-22210435D01*
X169639648Y-22189343D01*
X169621612Y-22173973D01*
X169596372Y-22170764D01*
X169573332Y-22180737D01*
X169572000Y-22182000D01*
X169564101Y-22199352D01*
X169560115Y-22226612D01*
X169560000Y-22232000D01*
X169560000Y-22270000D01*
X169520000Y-22270000D01*
X169520000Y-22244546D01*
X169520747Y-22204403D01*
X169523940Y-22178426D01*
X169531004Y-22160806D01*
X169543364Y-22145736D01*
X169544545Y-22144546D01*
X169577500Y-22124103D01*
X169614369Y-22122116D01*
X169651026Y-22138727D01*
X169653715Y-22140777D01*
X169680127Y-22161553D01*
X169713744Y-22140777D01*
X169740126Y-22125468D01*
X169753971Y-22121734D01*
X169759258Y-22129868D01*
G37*
G36*
X169712142Y-21986499D02*
G01*
X169772750Y-22011765D01*
X169823422Y-22050699D01*
X169862149Y-22100704D01*
X169886926Y-22159183D01*
X169895746Y-22223538D01*
X169886602Y-22291172D01*
X169886430Y-22291795D01*
X169859978Y-22354043D01*
X169820546Y-22403809D01*
X169771162Y-22440601D01*
X169714853Y-22463926D01*
X169667238Y-22471334D01*
X169654646Y-22473293D01*
X169593568Y-22468209D01*
X169534646Y-22448182D01*
X169480909Y-22412721D01*
X169437720Y-22364721D01*
X169406934Y-22305260D01*
X169394003Y-22243471D01*
X169395050Y-22224813D01*
X169449741Y-22224813D01*
X169455984Y-22280455D01*
X169474799Y-22330935D01*
X169506185Y-22371074D01*
X169506435Y-22371295D01*
X169554684Y-22402046D01*
X169609860Y-22418530D01*
X169667238Y-22420875D01*
X169722095Y-22409209D01*
X169769708Y-22383661D01*
X169791248Y-22363565D01*
X169822948Y-22312914D01*
X169838675Y-22254627D01*
X169837873Y-22193804D01*
X169819988Y-22135545D01*
X169816723Y-22129073D01*
X169781551Y-22082123D01*
X169735363Y-22049232D01*
X169681952Y-22031014D01*
X169625111Y-22028085D01*
X169568632Y-22041061D01*
X169516309Y-22070558D01*
X169506435Y-22078706D01*
X169474966Y-22118759D01*
X169456068Y-22169187D01*
X169449741Y-22224813D01*
X169395050Y-22224813D01*
X169397444Y-22182141D01*
X169415778Y-22124055D01*
X169447522Y-22071998D01*
X169491196Y-22028757D01*
X169545319Y-21997117D01*
X169608409Y-21979863D01*
X169643605Y-21977500D01*
X169712142Y-21986499D01*
G37*
G36*
X168630000Y-22173415D02*
G01*
X168788754Y-22188688D01*
X168937836Y-22220573D01*
X169079904Y-22269935D01*
X169217614Y-22337638D01*
X169310359Y-22394750D01*
X169439461Y-22492545D01*
X169554891Y-22604518D01*
X169655680Y-22729398D01*
X169740857Y-22865913D01*
X169809452Y-23012794D01*
X169834486Y-23081438D01*
X169841419Y-23101722D01*
X169847847Y-23120091D01*
X169853787Y-23137325D01*
X169859259Y-23154206D01*
X169864283Y-23171517D01*
X169868877Y-23190040D01*
X169873061Y-23210555D01*
X169876853Y-23233845D01*
X169880273Y-23260691D01*
X169883340Y-23291876D01*
X169886072Y-23328181D01*
X169888490Y-23370387D01*
X169890613Y-23419278D01*
X169892458Y-23475634D01*
X169894047Y-23540237D01*
X169895397Y-23613869D01*
X169896527Y-23697312D01*
X169897458Y-23791348D01*
X169898207Y-23896758D01*
X169898795Y-24014324D01*
X169899240Y-24144829D01*
X169899562Y-24289053D01*
X169899779Y-24447779D01*
X169899911Y-24621788D01*
X169899976Y-24811862D01*
X169899995Y-25018783D01*
X169899985Y-25243333D01*
X169899967Y-25486294D01*
X169899959Y-25748447D01*
X169899959Y-25757454D01*
X169900000Y-28139908D01*
X168857500Y-28142454D01*
X167819771Y-28144988D01*
X167815000Y-28145000D01*
X167812328Y-28397500D01*
X167809656Y-28650000D01*
X167908962Y-28650000D01*
X168008267Y-28650000D01*
X167956307Y-28703221D01*
X167906000Y-28765081D01*
X167861907Y-28838908D01*
X167828372Y-28916756D01*
X167815374Y-28961032D01*
X167805726Y-29021290D01*
X167801247Y-29093182D01*
X167801945Y-29169017D01*
X167807830Y-29241107D01*
X167814993Y-29285000D01*
X167846676Y-29388817D01*
X167895901Y-29484936D01*
X167961214Y-29571910D01*
X168041159Y-29648292D01*
X168134282Y-29712636D01*
X168239126Y-29763496D01*
X168325000Y-29792035D01*
X168358523Y-29800362D01*
X168391121Y-29806306D01*
X168427200Y-29810244D01*
X168471168Y-29812550D01*
X168527434Y-29813603D01*
X168580000Y-29813795D01*
X168668822Y-29812449D01*
X168742581Y-29807770D01*
X168806068Y-29798797D01*
X168864078Y-29784568D01*
X168921406Y-29764120D01*
X168982844Y-29736493D01*
X168995000Y-29730540D01*
X169097793Y-29669605D01*
X169184747Y-29596577D01*
X169255562Y-29511949D01*
X169309942Y-29416215D01*
X169347589Y-29309868D01*
X169368204Y-29193402D01*
X169372340Y-29105000D01*
X169366287Y-29003266D01*
X169347803Y-28914518D01*
X169315485Y-28835059D01*
X169267934Y-28761193D01*
X169221677Y-28707500D01*
X169166955Y-28650000D01*
X169533477Y-28650000D01*
X169900000Y-28650000D01*
X169898839Y-28932500D01*
X169898392Y-29006582D01*
X169897706Y-29074823D01*
X169896833Y-29134464D01*
X169895820Y-29182742D01*
X169894718Y-29216894D01*
X169893575Y-29234158D01*
X169893430Y-29235000D01*
X169889546Y-29254200D01*
X169883182Y-29286571D01*
X169875612Y-29325638D01*
X169874404Y-29331917D01*
X169844374Y-29452025D01*
X169799766Y-29572827D01*
X169754078Y-29670000D01*
X169673074Y-29807082D01*
X169576589Y-29932634D01*
X169466214Y-30045495D01*
X169343539Y-30144506D01*
X169210156Y-30228506D01*
X169067657Y-30296335D01*
X168917632Y-30346831D01*
X168787524Y-30374914D01*
X168706784Y-30384276D01*
X168614738Y-30388848D01*
X168519105Y-30388644D01*
X168427605Y-30383676D01*
X168349262Y-30374178D01*
X168193048Y-30338132D01*
X168044630Y-30284399D01*
X167905135Y-30214151D01*
X167775695Y-30128556D01*
X167657439Y-30028786D01*
X167551497Y-29916011D01*
X167458998Y-29791401D01*
X167381073Y-29656127D01*
X167318851Y-29511359D01*
X167273463Y-29358268D01*
X167250817Y-29236329D01*
X167249617Y-29219874D01*
X167248493Y-29188134D01*
X167247443Y-29140835D01*
X167246468Y-29077707D01*
X167245565Y-28998475D01*
X167244734Y-28902867D01*
X167243974Y-28790611D01*
X167243284Y-28661434D01*
X167242662Y-28515064D01*
X167242109Y-28351227D01*
X167241622Y-28169651D01*
X167241201Y-27970064D01*
X167240845Y-27752193D01*
X167240553Y-27515765D01*
X167240323Y-27260509D01*
X167240156Y-26986150D01*
X167240049Y-26692416D01*
X167240002Y-26379036D01*
X167239999Y-26283060D01*
X167239989Y-25993423D01*
X167239968Y-25723080D01*
X167239959Y-25600239D01*
X167810000Y-25600239D01*
X167810109Y-25675922D01*
X167810550Y-25734031D01*
X167811495Y-25776990D01*
X167813114Y-25807224D01*
X167815578Y-25827158D01*
X167819059Y-25839217D01*
X167823727Y-25845825D01*
X167827500Y-25848357D01*
X167840293Y-25852883D01*
X167870388Y-25862444D01*
X167915889Y-25876470D01*
X167974900Y-25894387D01*
X168045525Y-25915624D01*
X168125868Y-25939608D01*
X168214033Y-25965768D01*
X168308125Y-25993532D01*
X168330000Y-25999965D01*
X168424974Y-26027939D01*
X168514296Y-26054361D01*
X168596096Y-26078672D01*
X168668500Y-26100308D01*
X168729637Y-26118708D01*
X168777634Y-26133311D01*
X168810620Y-26143555D01*
X168826723Y-26148877D01*
X168827855Y-26149353D01*
X168821020Y-26153353D01*
X168796666Y-26162345D01*
X168756497Y-26175796D01*
X168702216Y-26193172D01*
X168635525Y-26213940D01*
X168558128Y-26237567D01*
X168471727Y-26263518D01*
X168378025Y-26291262D01*
X168327855Y-26305964D01*
X167815000Y-26455735D01*
X167815000Y-26699174D01*
X167815000Y-26942613D01*
X168322127Y-27089267D01*
X168419022Y-27117351D01*
X168510026Y-27143849D01*
X168593344Y-27168229D01*
X168667184Y-27189963D01*
X168729752Y-27208518D01*
X168779254Y-27223365D01*
X168813896Y-27233973D01*
X168831885Y-27239810D01*
X168834056Y-27240723D01*
X168825678Y-27244369D01*
X168799840Y-27253085D01*
X168758279Y-27266339D01*
X168702733Y-27283596D01*
X168634940Y-27304325D01*
X168556637Y-27327991D01*
X168469564Y-27354061D01*
X168375457Y-27382002D01*
X168326928Y-27396326D01*
X167815000Y-27547127D01*
X167812331Y-27803564D01*
X167811799Y-27892226D01*
X167812230Y-27962578D01*
X167813611Y-28014218D01*
X167815932Y-28046745D01*
X167819180Y-28059756D01*
X167819771Y-28060000D01*
X167830382Y-28056672D01*
X167858060Y-28047102D01*
X167901088Y-28031913D01*
X167957748Y-28011728D01*
X168026323Y-27987172D01*
X168105094Y-27958866D01*
X168192345Y-27927433D01*
X168286358Y-27893498D01*
X168385414Y-27857683D01*
X168487797Y-27820611D01*
X168591789Y-27782906D01*
X168695672Y-27745190D01*
X168797729Y-27708086D01*
X168896242Y-27672218D01*
X168989494Y-27638209D01*
X169075766Y-27606682D01*
X169153342Y-27578260D01*
X169220503Y-27553566D01*
X169275532Y-27533224D01*
X169316712Y-27517856D01*
X169342324Y-27508085D01*
X169350551Y-27504660D01*
X169353386Y-27493177D01*
X169355823Y-27463943D01*
X169357778Y-27419202D01*
X169359166Y-27361200D01*
X169359902Y-27292182D01*
X169360000Y-27253900D01*
X169360000Y-27008980D01*
X169327500Y-26995648D01*
X169311351Y-26989975D01*
X169278190Y-26979095D01*
X169230121Y-26963672D01*
X169169249Y-26944373D01*
X169097679Y-26921862D01*
X169017518Y-26896805D01*
X168930869Y-26869866D01*
X168865000Y-26849480D01*
X168776069Y-26821923D01*
X168693028Y-26796028D01*
X168617827Y-26772416D01*
X168552419Y-26751706D01*
X168498756Y-26734520D01*
X168458791Y-26721479D01*
X168434475Y-26713201D01*
X168427632Y-26710455D01*
X168435382Y-26706385D01*
X168460452Y-26697123D01*
X168501019Y-26683261D01*
X168555259Y-26665394D01*
X168621348Y-26644116D01*
X168697462Y-26620018D01*
X168781776Y-26593695D01*
X168872468Y-26565739D01*
X168872632Y-26565689D01*
X168964357Y-26537517D01*
X169050580Y-26510894D01*
X169129342Y-26486435D01*
X169198682Y-26464755D01*
X169256642Y-26446469D01*
X169301262Y-26432193D01*
X169330582Y-26422541D01*
X169342500Y-26418205D01*
X169347984Y-26413943D01*
X169352195Y-26405847D01*
X169355298Y-26391522D01*
X169357459Y-26368569D01*
X169358843Y-26334591D01*
X169359616Y-26287192D01*
X169359945Y-26223975D01*
X169360000Y-26165239D01*
X169359720Y-26083144D01*
X169358827Y-26019354D01*
X169357238Y-25972179D01*
X169354870Y-25939930D01*
X169351643Y-25920919D01*
X169347752Y-25913612D01*
X169335209Y-25908184D01*
X169305844Y-25896721D01*
X169261365Y-25879842D01*
X169203482Y-25858171D01*
X169133903Y-25832328D01*
X169054338Y-25802935D01*
X168966495Y-25770614D01*
X168921430Y-25754085D01*
X168872083Y-25735986D01*
X168772812Y-25699674D01*
X168670390Y-25662298D01*
X168566526Y-25624481D01*
X168462929Y-25586844D01*
X168361308Y-25550009D01*
X168263372Y-25514597D01*
X168170830Y-25481230D01*
X168085391Y-25450531D01*
X168008764Y-25423119D01*
X167942657Y-25399618D01*
X167888780Y-25380649D01*
X167848841Y-25366833D01*
X167824550Y-25358792D01*
X167817500Y-25356948D01*
X167815401Y-25367712D01*
X167813529Y-25395673D01*
X167811970Y-25438027D01*
X167810811Y-25491971D01*
X167810136Y-25554703D01*
X167810000Y-25600239D01*
X167239959Y-25600239D01*
X167239950Y-25471327D01*
X167239950Y-25237460D01*
X167239983Y-25020773D01*
X167240062Y-24820562D01*
X167240085Y-24790000D01*
X167809656Y-24790000D01*
X167812328Y-25042500D01*
X167815000Y-25295000D01*
X168575000Y-25297586D01*
X168696700Y-25297938D01*
X168812700Y-25298153D01*
X168921430Y-25298236D01*
X169021322Y-25298191D01*
X169110804Y-25298023D01*
X169188308Y-25297736D01*
X169252265Y-25297334D01*
X169301104Y-25296822D01*
X169333256Y-25296204D01*
X169347152Y-25295485D01*
X169347500Y-25295400D01*
X169351582Y-25289010D01*
X169354745Y-25272126D01*
X169357079Y-25242942D01*
X169358671Y-25199653D01*
X169359610Y-25140452D01*
X169359984Y-25063534D01*
X169360000Y-25040314D01*
X169360000Y-24790000D01*
X168584828Y-24790000D01*
X167809656Y-24790000D01*
X167240085Y-24790000D01*
X167240162Y-24690000D01*
X167809656Y-24690000D01*
X168585000Y-24690000D01*
X169360343Y-24690000D01*
X169357671Y-24437500D01*
X169355000Y-24185000D01*
X168598709Y-24185000D01*
X168585000Y-24185000D01*
X167815000Y-24185000D01*
X167812328Y-24437500D01*
X167809656Y-24690000D01*
X167240162Y-24690000D01*
X167240203Y-24636121D01*
X167240419Y-24466745D01*
X167240726Y-24311731D01*
X167241138Y-24170372D01*
X167241668Y-24041964D01*
X167242333Y-23925802D01*
X167243145Y-23821180D01*
X167244121Y-23727395D01*
X167245273Y-23643742D01*
X167246617Y-23569514D01*
X167248167Y-23504008D01*
X167249937Y-23446518D01*
X167251942Y-23396340D01*
X167254197Y-23352768D01*
X167256716Y-23315098D01*
X167257661Y-23304121D01*
X167799999Y-23304121D01*
X167808529Y-23438001D01*
X167833773Y-23561806D01*
X167875212Y-23674830D01*
X167932328Y-23776371D01*
X168004601Y-23865722D01*
X168091513Y-23942182D01*
X168192545Y-24005044D01*
X168307178Y-24053605D01*
X168365000Y-24071125D01*
X168432485Y-24084211D01*
X168512595Y-24091856D01*
X168598709Y-24094058D01*
X168684206Y-24090812D01*
X168762463Y-24082117D01*
X168815000Y-24071343D01*
X168919982Y-24036757D01*
X169011495Y-23991313D01*
X169094341Y-23932280D01*
X169150366Y-23880790D01*
X169222521Y-23799157D01*
X169278940Y-23713945D01*
X169320703Y-23622344D01*
X169348891Y-23521547D01*
X169364582Y-23408743D01*
X169368823Y-23312500D01*
X169370000Y-23200000D01*
X169161677Y-23200000D01*
X168953354Y-23200000D01*
X168957798Y-23253585D01*
X168955265Y-23329896D01*
X168935232Y-23398130D01*
X168898947Y-23457182D01*
X168847656Y-23505946D01*
X168782605Y-23543314D01*
X168705042Y-23568180D01*
X168616213Y-23579437D01*
X168589999Y-23580000D01*
X168495490Y-23572743D01*
X168413179Y-23551247D01*
X168343932Y-23515928D01*
X168288614Y-23467201D01*
X168255168Y-23419206D01*
X168239747Y-23388676D01*
X168230718Y-23361705D01*
X168226418Y-23330724D01*
X168225187Y-23288168D01*
X168225168Y-23282543D01*
X168225000Y-23200086D01*
X168012500Y-23200043D01*
X167800000Y-23200000D01*
X167799999Y-23304121D01*
X167257661Y-23304121D01*
X167259513Y-23282625D01*
X167262603Y-23254644D01*
X167266000Y-23230450D01*
X167269719Y-23209338D01*
X167273774Y-23190603D01*
X167278180Y-23173540D01*
X167282951Y-23157445D01*
X167288101Y-23141612D01*
X167293646Y-23125336D01*
X167299599Y-23107914D01*
X167305535Y-23090000D01*
X167364389Y-22939551D01*
X167439358Y-22799850D01*
X167529154Y-22671786D01*
X167632487Y-22556254D01*
X167748069Y-22454143D01*
X167874613Y-22366346D01*
X168010830Y-22293754D01*
X168155430Y-22237259D01*
X168307127Y-22197752D01*
X168464631Y-22176126D01*
X168626654Y-22173271D01*
X168630000Y-22173415D01*
G37*
D14*
%TO.C,C2*%
X182859420Y-40990000D02*
X183140580Y-40990000D01*
X182859420Y-42010000D02*
X183140580Y-42010000D01*
%TO.C,R3*%
X37814564Y-28290000D02*
X33460436Y-28290000D01*
X37814564Y-31710000D02*
X33460436Y-31710000D01*
%TO.C,C7*%
X216990000Y-30359420D02*
X216990000Y-30640580D01*
X218010000Y-30359420D02*
X218010000Y-30640580D01*
%TO.C,R5*%
X186237258Y-45227500D02*
X185762742Y-45227500D01*
X186237258Y-46272500D02*
X185762742Y-46272500D01*
D16*
%TO.C,CN1*%
X64500000Y-21112500D02*
X64500000Y-22582500D01*
X64500000Y-25042500D02*
X64500000Y-29582500D01*
X64500000Y-32042500D02*
X64500000Y-33312500D01*
X64500000Y-33312500D02*
X70240000Y-33312500D01*
X65000000Y-21112500D02*
X65000000Y-19112500D01*
X70000000Y-19112500D02*
X65000000Y-19112500D01*
X70000000Y-21112500D02*
X70000000Y-19112500D01*
X70500000Y-21112500D02*
X64500000Y-21112500D01*
X70500000Y-21112500D02*
X70500000Y-21582500D01*
X70500000Y-24042500D02*
X70500000Y-25282500D01*
X70500000Y-27742500D02*
X70500000Y-31282500D01*
D11*
%TO.C,Q2*%
X44450000Y-50550000D02*
X45250000Y-50550000D01*
X45600000Y-50700000D02*
X45700000Y-50700000D01*
X45600000Y-52300000D02*
X45600000Y-50700000D01*
X45700000Y-50700000D02*
X45700000Y-52300000D01*
X45700000Y-52300000D02*
X45600000Y-52300000D01*
%TO.C,Q1*%
X218550000Y-23300000D02*
X219350000Y-23300000D01*
X219700000Y-23450000D02*
X219800000Y-23450000D01*
X219700000Y-25050000D02*
X219700000Y-23450000D01*
X219800000Y-23450000D02*
X219800000Y-25050000D01*
X219800000Y-25050000D02*
X219700000Y-25050000D01*
D17*
%TO.C,J1*%
X194605000Y-20150000D02*
X194605000Y-21580000D01*
X194605000Y-25600000D02*
X194605000Y-23920000D01*
X203545000Y-20150000D02*
X194605000Y-20150000D01*
X203545000Y-20150000D02*
X203545000Y-21580000D01*
X203545000Y-25600000D02*
X203545000Y-23920000D01*
D11*
X202375000Y-28750000D02*
G75*
G02*
X202175000Y-28750000I-100000J0D01*
G01*
X202175000Y-28750000D02*
G75*
G02*
X202375000Y-28750000I100000J0D01*
G01*
D14*
%TO.C,C4*%
X216990000Y-27109420D02*
X216990000Y-27390580D01*
X218010000Y-27109420D02*
X218010000Y-27390580D01*
%TO.C,R30*%
X253477500Y-39487258D02*
X253477500Y-39012742D01*
X254522500Y-39487258D02*
X254522500Y-39012742D01*
%TO.C,R10*%
X202477500Y-31737258D02*
X202477500Y-31262742D01*
X203522500Y-31737258D02*
X203522500Y-31262742D01*
%TO.C,D3*%
X188040000Y-25015000D02*
X188040000Y-26485000D01*
X188040000Y-26485000D02*
X190325000Y-26485000D01*
X190325000Y-25015000D02*
X188040000Y-25015000D01*
%TO.C,D4*%
X257765000Y-57765000D02*
X257765000Y-60050000D01*
X259235000Y-57765000D02*
X257765000Y-57765000D01*
X259235000Y-60050000D02*
X259235000Y-57765000D01*
%TO.C,R11*%
X256227500Y-59012742D02*
X256227500Y-59487258D01*
X257272500Y-59012742D02*
X257272500Y-59487258D01*
%TO.C,R29*%
X255227500Y-39487258D02*
X255227500Y-39012742D01*
X256272500Y-39487258D02*
X256272500Y-39012742D01*
D10*
%TO.C,SW1*%
X206950000Y-22010000D02*
X213050000Y-22010000D01*
X206950000Y-28610000D02*
X206950000Y-22010000D01*
X213050000Y-22010000D02*
X213050000Y-28610000D01*
X213050000Y-28610000D02*
X206950000Y-28610000D01*
D16*
X211530000Y-25310000D02*
G75*
G02*
X208470000Y-25310000I-1530000J0D01*
G01*
X208470000Y-25310000D02*
G75*
G02*
X211530000Y-25310000I1530000J0D01*
G01*
D10*
X213740000Y-28870000D02*
G75*
G02*
X213380000Y-28870000I-180000J0D01*
G01*
X213380000Y-28870000D02*
G75*
G02*
X213740000Y-28870000I180000J0D01*
G01*
D14*
%TO.C,U6*%
X198100000Y-30010000D02*
X199400000Y-30010000D01*
X198100000Y-31990000D02*
X199150000Y-31990000D01*
X199520000Y-32270000D02*
X199520000Y-31990000D01*
X199800000Y-31990000D01*
X199520000Y-32270000D01*
G36*
X199520000Y-32270000D02*
G01*
X199520000Y-31990000D01*
X199800000Y-31990000D01*
X199520000Y-32270000D01*
G37*
%TO.C,R2*%
X204227500Y-31262742D02*
X204227500Y-31737258D01*
X205272500Y-31262742D02*
X205272500Y-31737258D01*
%TO.C,R1*%
X182012258Y-23477500D02*
X181537742Y-23477500D01*
X182012258Y-24522500D02*
X181537742Y-24522500D01*
D11*
%TO.C,D2*%
X217100000Y-25325000D02*
X217100000Y-23650000D01*
X217900000Y-24850000D02*
X217900000Y-23650000D01*
D14*
%TO.C,C1*%
X181915580Y-26990000D02*
X181634420Y-26990000D01*
X181915580Y-28010000D02*
X181634420Y-28010000D01*
%TO.C,D1*%
X180975000Y-26485000D02*
X183260000Y-26485000D01*
X183260000Y-25015000D02*
X180975000Y-25015000D01*
X183260000Y-26485000D02*
X183260000Y-25015000D01*
D10*
%TO.C,SW2*%
X246950000Y-22450000D02*
X253050000Y-22450000D01*
X246950000Y-29050000D02*
X246950000Y-22450000D01*
X253050000Y-22450000D02*
X253050000Y-29050000D01*
X253050000Y-29050000D02*
X246950000Y-29050000D01*
X246620000Y-22190000D02*
G75*
G02*
X246260000Y-22190000I-180000J0D01*
G01*
X246260000Y-22190000D02*
G75*
G02*
X246620000Y-22190000I180000J0D01*
G01*
D16*
X251530000Y-25750000D02*
G75*
G02*
X248470000Y-25750000I-1530000J0D01*
G01*
X248470000Y-25750000D02*
G75*
G02*
X251530000Y-25750000I1530000J0D01*
G01*
D17*
%TO.C,BAT1*%
X71150000Y-40250000D02*
X73850000Y-40250000D01*
X71150000Y-41800000D02*
X71150000Y-40250000D01*
X71150000Y-44700000D02*
X71150000Y-46250000D01*
X71150000Y-46250000D02*
X73850000Y-46250000D01*
X76550000Y-46250000D02*
X77150000Y-46250000D01*
X77150000Y-40250000D02*
X76550000Y-40250000D01*
X77150000Y-46250000D02*
X77150000Y-40250000D01*
D18*
X69800000Y-44050000D02*
G75*
G02*
X69600000Y-44050000I-100000J0D01*
G01*
X69600000Y-44050000D02*
G75*
G02*
X69800000Y-44050000I100000J0D01*
G01*
D16*
%TO.C,BUZ1*%
X32110000Y-38490000D02*
X32110000Y-44520000D01*
X32360000Y-34520000D02*
X32360000Y-34520000D01*
X32360000Y-34520000D02*
X32870000Y-34010000D01*
X32360000Y-48490000D02*
X32360000Y-49000000D01*
X32360000Y-49000000D02*
X46840000Y-49000000D01*
X32870000Y-34010000D02*
X46330000Y-34010000D01*
X46330000Y-34010000D02*
X46840000Y-34520000D01*
X46840000Y-49000000D02*
X46840000Y-48490000D01*
X47100000Y-44520000D02*
X47100000Y-38490000D01*
D11*
X37170000Y-46200000D02*
G75*
G02*
X34830000Y-46200000I-1170000J0D01*
G01*
X34830000Y-46200000D02*
G75*
G02*
X37170000Y-46200000I1170000J0D01*
G01*
D14*
%TO.C,R7*%
X182762742Y-39227500D02*
X183237258Y-39227500D01*
X182762742Y-40272500D02*
X183237258Y-40272500D01*
%TO.C,C6*%
X218740000Y-30359420D02*
X218740000Y-30640580D01*
X219760000Y-30359420D02*
X219760000Y-30640580D01*
%TO.C,R32*%
X251727500Y-39487258D02*
X251727500Y-39012742D01*
X252772500Y-39487258D02*
X252772500Y-39012742D01*
%TO.C,R14*%
X42227500Y-51512742D02*
X42227500Y-51987258D01*
X43272500Y-51512742D02*
X43272500Y-51987258D01*
%TO.C,R9*%
X189287742Y-23477500D02*
X189762258Y-23477500D01*
X189287742Y-24522500D02*
X189762258Y-24522500D01*
%TO.C,C5*%
X189384420Y-26990000D02*
X189665580Y-26990000D01*
X189384420Y-28010000D02*
X189665580Y-28010000D01*
%TO.C,R33*%
X249977500Y-39487258D02*
X249977500Y-39012742D01*
X251022500Y-39487258D02*
X251022500Y-39012742D01*
D16*
%TO.C,U3*%
X174630000Y-36800000D02*
X174630000Y-51200000D01*
X174630000Y-36800000D02*
X176310000Y-36800000D01*
X174630000Y-51200000D02*
X176310000Y-51200000D01*
D14*
%TO.C,R31*%
X248227500Y-39487258D02*
X248227500Y-39012742D01*
X249272500Y-39487258D02*
X249272500Y-39012742D01*
D11*
%TO.C,D6*%
X45850000Y-30350000D02*
X45850000Y-31550000D01*
X46650000Y-29875000D02*
X46650000Y-31550000D01*
D14*
%TO.C,R8*%
X185762258Y-23227500D02*
X185287742Y-23227500D01*
X185762258Y-24272500D02*
X185287742Y-24272500D01*
%TO.C,R6*%
X186237258Y-46977500D02*
X185762742Y-46977500D01*
X186237258Y-48022500D02*
X185762742Y-48022500D01*
D17*
%TO.C,QWIIC1*%
X171050000Y-26300000D02*
X171050000Y-24025000D01*
X171850000Y-26300000D02*
X171050000Y-26300000D01*
X175850000Y-22050000D02*
X172250000Y-22050000D01*
X176250000Y-26300000D02*
X177050000Y-26300000D01*
X177050000Y-26300000D02*
X177050000Y-24025000D01*
D18*
X176600000Y-27010000D02*
G75*
G02*
X176400000Y-27010000I-100000J0D01*
G01*
X176400000Y-27010000D02*
G75*
G02*
X176600000Y-27010000I100000J0D01*
G01*
D14*
%TO.C,U1*%
X185662500Y-24990000D02*
X184862500Y-24990000D01*
X185662500Y-24990000D02*
X186462500Y-24990000D01*
X185662500Y-28110000D02*
X184862500Y-28110000D01*
X185662500Y-28110000D02*
X186462500Y-28110000D01*
X184362500Y-25040000D02*
X184122500Y-24710000D01*
X184602500Y-24710000D01*
X184362500Y-25040000D01*
G36*
X184362500Y-25040000D02*
G01*
X184122500Y-24710000D01*
X184602500Y-24710000D01*
X184362500Y-25040000D01*
G37*
D19*
%TO.C,J2*%
X247550000Y-45650000D02*
X247550000Y-55600000D01*
X247550000Y-55600000D02*
X248250000Y-55600000D01*
X252250000Y-55600000D02*
X256750000Y-55600000D01*
X256750000Y-43650000D02*
X251750000Y-43650000D01*
X260275000Y-46275000D02*
X260275000Y-46275000D01*
X260375000Y-46275000D02*
X260375000Y-46275000D01*
X260275000Y-46275000D02*
G75*
G02*
X260375000Y-46275000I50000J0D01*
G01*
X260375000Y-46275000D02*
G75*
G02*
X260275000Y-46275000I-50000J0D01*
G01*
D14*
%TO.C,R12*%
X195227500Y-31737258D02*
X195227500Y-31262742D01*
X196272500Y-31737258D02*
X196272500Y-31262742D01*
%TO.C,C3*%
X219240000Y-33884420D02*
X219240000Y-34165580D01*
X220260000Y-33884420D02*
X220260000Y-34165580D01*
%TO.C,U4*%
X222675000Y-21750000D02*
X222675000Y-28500000D01*
X222675000Y-21750000D02*
X240675000Y-21750000D01*
X222675000Y-46500000D02*
X222675000Y-47250000D01*
X222675000Y-47250000D02*
X223675000Y-47250000D01*
X240675000Y-21750000D02*
X240675000Y-28500000D01*
X240675000Y-27690000D02*
X222675000Y-27690000D01*
X240675000Y-46500000D02*
X240675000Y-47250000D01*
X240675000Y-47250000D02*
X239675000Y-47250000D01*
D11*
%TO.C,U2*%
X220695000Y-27800000D02*
G75*
G02*
X220495000Y-27800000I-100000J0D01*
G01*
X220495000Y-27800000D02*
G75*
G02*
X220695000Y-27800000I100000J0D01*
G01*
D14*
%TO.C,R4*%
X217477500Y-33787742D02*
X217477500Y-34262258D01*
X218522500Y-33787742D02*
X218522500Y-34262258D01*
%TO.C,R28*%
X256977500Y-39487258D02*
X256977500Y-39012742D01*
X258022500Y-39487258D02*
X258022500Y-39012742D01*
%TD*%
M02*
