%TF.GenerationSoftware,KiCad,Pcbnew,8.0.1*%
%TF.CreationDate,2024-05-05T16:25:59+01:00*%
%TF.ProjectId,esp32-s3-spectrum,65737033-322d-4733-932d-737065637472,rev?*%
%TF.SameCoordinates,Original*%
%TF.FileFunction,Paste,Top*%
%TF.FilePolarity,Positive*%
%FSLAX46Y46*%
G04 Gerber Fmt 4.6, Leading zero omitted, Abs format (unit mm)*
G04 Created by KiCad (PCBNEW 8.0.1) date 2024-05-05 16:25:59*
%MOMM*%
%LPD*%
G01*
G04 APERTURE LIST*
G04 Aperture macros list*
%AMRoundRect*
0 Rectangle with rounded corners*
0 $1 Rounding radius*
0 $2 $3 $4 $5 $6 $7 $8 $9 X,Y pos of 4 corners*
0 Add a 4 corners polygon primitive as box body*
4,1,4,$2,$3,$4,$5,$6,$7,$8,$9,$2,$3,0*
0 Add four circle primitives for the rounded corners*
1,1,$1+$1,$2,$3*
1,1,$1+$1,$4,$5*
1,1,$1+$1,$6,$7*
1,1,$1+$1,$8,$9*
0 Add four rect primitives between the rounded corners*
20,1,$1+$1,$2,$3,$4,$5,0*
20,1,$1+$1,$4,$5,$6,$7,0*
20,1,$1+$1,$6,$7,$8,$9,0*
20,1,$1+$1,$8,$9,$2,$3,0*%
%AMRotRect*
0 Rectangle, with rotation*
0 The origin of the aperture is its center*
0 $1 length*
0 $2 width*
0 $3 Rotation angle, in degrees counterclockwise*
0 Add horizontal line*
21,1,$1,$2,0,0,$3*%
G04 Aperture macros list end*
%ADD10C,0.010000*%
%ADD11RoundRect,0.225000X-0.225000X-0.250000X0.225000X-0.250000X0.225000X0.250000X-0.225000X0.250000X0*%
%ADD12RoundRect,0.250000X0.362500X1.425000X-0.362500X1.425000X-0.362500X-1.425000X0.362500X-1.425000X0*%
%ADD13RoundRect,0.225000X-0.250000X0.225000X-0.250000X-0.225000X0.250000X-0.225000X0.250000X0.225000X0*%
%ADD14RoundRect,0.200000X0.200000X0.275000X-0.200000X0.275000X-0.200000X-0.275000X0.200000X-0.275000X0*%
%ADD15R,3.200000X2.000000*%
%ADD16R,0.800000X0.400000*%
%ADD17R,0.600000X1.140000*%
%ADD18R,0.300000X1.140000*%
%ADD19RoundRect,0.200000X0.275000X-0.200000X0.275000X0.200000X-0.275000X0.200000X-0.275000X-0.200000X0*%
%ADD20RoundRect,0.218750X-0.218750X-0.256250X0.218750X-0.256250X0.218750X0.256250X-0.218750X0.256250X0*%
%ADD21RoundRect,0.218750X-0.256250X0.218750X-0.256250X-0.218750X0.256250X-0.218750X0.256250X0.218750X0*%
%ADD22RoundRect,0.200000X-0.275000X0.200000X-0.275000X-0.200000X0.275000X-0.200000X0.275000X0.200000X0*%
%ADD23R,1.550000X1.410000*%
%ADD24RoundRect,0.093750X0.156250X0.093750X-0.156250X0.093750X-0.156250X-0.093750X0.156250X-0.093750X0*%
%ADD25RoundRect,0.075000X0.250000X0.075000X-0.250000X0.075000X-0.250000X-0.075000X0.250000X-0.075000X0*%
%ADD26R,0.420000X0.550000*%
%ADD27RoundRect,0.225000X0.225000X0.250000X-0.225000X0.250000X-0.225000X-0.250000X0.225000X-0.250000X0*%
%ADD28RoundRect,0.218750X0.218750X0.256250X-0.218750X0.256250X-0.218750X-0.256250X0.218750X-0.256250X0*%
%ADD29R,2.500000X0.700000*%
%ADD30R,1.900000X1.100000*%
%ADD31R,2.000000X3.500000*%
%ADD32RoundRect,0.200000X-0.200000X-0.275000X0.200000X-0.275000X0.200000X0.275000X-0.200000X0.275000X0*%
%ADD33R,1.100000X0.300000*%
%ADD34R,3.100000X2.300000*%
%ADD35RoundRect,0.150000X-0.512500X-0.150000X0.512500X-0.150000X0.512500X0.150000X-0.512500X0.150000X0*%
%ADD36R,1.750000X0.800000*%
%ADD37R,1.500000X1.500000*%
%ADD38R,1.500000X1.300000*%
%ADD39R,1.400000X0.800000*%
%ADD40R,1.550000X1.000000*%
%ADD41R,1.000000X1.450000*%
%ADD42R,1.500000X0.800000*%
%ADD43R,1.500000X0.900000*%
%ADD44R,0.900000X1.500000*%
%ADD45R,0.900000X0.900000*%
%ADD46RotRect,0.520000X0.520000X225.000000*%
G04 APERTURE END LIST*
D10*
%TO.C,U2*%
X219135000Y-27105000D02*
X218985000Y-27255000D01*
X218745000Y-27255000D01*
X218745000Y-26995000D01*
X219135000Y-26995000D01*
X219135000Y-27105000D01*
G36*
X219135000Y-27105000D02*
G01*
X218985000Y-27255000D01*
X218745000Y-27255000D01*
X218745000Y-26995000D01*
X219135000Y-26995000D01*
X219135000Y-27105000D01*
G37*
X219135000Y-27795000D02*
X219135000Y-27905000D01*
X218745000Y-27905000D01*
X218745000Y-27645000D01*
X218985000Y-27645000D01*
X219135000Y-27795000D01*
G36*
X219135000Y-27795000D02*
G01*
X219135000Y-27905000D01*
X218745000Y-27905000D01*
X218745000Y-27645000D01*
X218985000Y-27645000D01*
X219135000Y-27795000D01*
G37*
X219945000Y-27255000D02*
X219705000Y-27255000D01*
X219555000Y-27105000D01*
X219555000Y-26995000D01*
X219945000Y-26995000D01*
X219945000Y-27255000D01*
G36*
X219945000Y-27255000D02*
G01*
X219705000Y-27255000D01*
X219555000Y-27105000D01*
X219555000Y-26995000D01*
X219945000Y-26995000D01*
X219945000Y-27255000D01*
G37*
X219945000Y-27905000D02*
X219555000Y-27905000D01*
X219555000Y-27795000D01*
X219705000Y-27645000D01*
X219945000Y-27645000D01*
X219945000Y-27905000D01*
G36*
X219945000Y-27905000D02*
G01*
X219555000Y-27905000D01*
X219555000Y-27795000D01*
X219705000Y-27645000D01*
X219945000Y-27645000D01*
X219945000Y-27905000D01*
G37*
%TD*%
D11*
%TO.C,C2*%
X182225000Y-41500000D03*
X183775000Y-41500000D03*
%TD*%
D12*
%TO.C,R3*%
X38600000Y-30000000D03*
X32675000Y-30000000D03*
%TD*%
D13*
%TO.C,C7*%
X217500000Y-29725000D03*
X217500000Y-31275000D03*
%TD*%
D14*
%TO.C,R5*%
X186825000Y-45750000D03*
X185175000Y-45750000D03*
%TD*%
D15*
%TO.C,CN1*%
X71300000Y-22812500D03*
X63700000Y-23812500D03*
X71300000Y-26512500D03*
X63700000Y-30812500D03*
X71300000Y-32512500D03*
%TD*%
D16*
%TO.C,Q2*%
X44850000Y-51000000D03*
X44850000Y-52000000D03*
X46450000Y-51500000D03*
%TD*%
%TO.C,Q1*%
X218950000Y-23750000D03*
X218950000Y-24750000D03*
X220550000Y-24250000D03*
%TD*%
D17*
%TO.C,J1*%
X202275000Y-27500000D03*
X201475000Y-27500000D03*
D18*
X200325000Y-27500000D03*
X199325000Y-27500000D03*
X198825000Y-27500000D03*
X197825000Y-27500000D03*
D17*
X195875000Y-27500000D03*
X196675000Y-27500000D03*
D18*
X197325000Y-27500000D03*
X198325000Y-27500000D03*
X199825000Y-27500000D03*
X200825000Y-27500000D03*
%TD*%
D13*
%TO.C,C4*%
X217500000Y-26475000D03*
X217500000Y-28025000D03*
%TD*%
D19*
%TO.C,R30*%
X254000000Y-40075000D03*
X254000000Y-38425000D03*
%TD*%
%TO.C,R10*%
X203000000Y-32325000D03*
X203000000Y-30675000D03*
%TD*%
D20*
%TO.C,D3*%
X188737500Y-25750000D03*
X190312500Y-25750000D03*
%TD*%
D21*
%TO.C,D4*%
X258500000Y-58462500D03*
X258500000Y-60037500D03*
%TD*%
D22*
%TO.C,R11*%
X256750000Y-58425000D03*
X256750000Y-60075000D03*
%TD*%
D19*
%TO.C,R29*%
X255750000Y-40075000D03*
X255750000Y-38425000D03*
%TD*%
D23*
%TO.C,SW1*%
X213970000Y-27560000D03*
X206030000Y-27560000D03*
X213970000Y-23060000D03*
X206030000Y-23060000D03*
%TD*%
D24*
%TO.C,U6*%
X199600000Y-31537500D03*
D25*
X199675000Y-31000000D03*
D24*
X199600000Y-30462500D03*
X197900000Y-30462500D03*
D25*
X197825000Y-31000000D03*
D24*
X197900000Y-31537500D03*
%TD*%
D22*
%TO.C,R2*%
X204750000Y-30675000D03*
X204750000Y-32325000D03*
%TD*%
D14*
%TO.C,R1*%
X182600000Y-24000000D03*
X180950000Y-24000000D03*
%TD*%
D26*
%TO.C,D2*%
X217500000Y-25050000D03*
X217500000Y-23450000D03*
%TD*%
D27*
%TO.C,C1*%
X182550000Y-27500000D03*
X181000000Y-27500000D03*
%TD*%
D28*
%TO.C,D1*%
X182562500Y-25750000D03*
X180987500Y-25750000D03*
%TD*%
D23*
%TO.C,SW2*%
X246030000Y-23500000D03*
X253970000Y-23500000D03*
X246030000Y-28000000D03*
X253970000Y-28000000D03*
%TD*%
D29*
%TO.C,BAT1*%
X71600000Y-44000000D03*
X71600000Y-42500000D03*
D30*
X75200000Y-45950000D03*
X75200000Y-40550000D03*
%TD*%
D31*
%TO.C,BUZ1*%
X32750000Y-46500000D03*
X46450000Y-46500000D03*
X46450000Y-36500000D03*
X32750000Y-36500000D03*
%TD*%
D32*
%TO.C,R7*%
X182175000Y-39750000D03*
X183825000Y-39750000D03*
%TD*%
D13*
%TO.C,C6*%
X219250000Y-29725000D03*
X219250000Y-31275000D03*
%TD*%
D19*
%TO.C,R32*%
X252250000Y-40075000D03*
X252250000Y-38425000D03*
%TD*%
D22*
%TO.C,R14*%
X42750000Y-50925000D03*
X42750000Y-52575000D03*
%TD*%
D32*
%TO.C,R9*%
X188700000Y-24000000D03*
X190350000Y-24000000D03*
%TD*%
D11*
%TO.C,C5*%
X188750000Y-27500000D03*
X190300000Y-27500000D03*
%TD*%
D19*
%TO.C,R33*%
X250500000Y-40075000D03*
X250500000Y-38425000D03*
%TD*%
D33*
%TO.C,U3*%
X179750000Y-39750000D03*
X179750000Y-40250000D03*
X179750000Y-40750000D03*
X179750000Y-41250000D03*
X179750000Y-41750000D03*
X179750000Y-42250000D03*
X179750000Y-42750000D03*
X179750000Y-43250000D03*
X179750000Y-43750000D03*
X179750000Y-44250000D03*
X179750000Y-44750000D03*
X179750000Y-45250000D03*
X179750000Y-45750000D03*
X179750000Y-46250000D03*
X179750000Y-46750000D03*
X179750000Y-47250000D03*
X179750000Y-47750000D03*
X179750000Y-48250000D03*
D34*
X178050000Y-49920000D03*
X178050000Y-38080000D03*
%TD*%
D19*
%TO.C,R31*%
X248750000Y-40075000D03*
X248750000Y-38425000D03*
%TD*%
D26*
%TO.C,D6*%
X46250000Y-30150000D03*
X46250000Y-31750000D03*
%TD*%
D14*
%TO.C,R8*%
X186350000Y-23750000D03*
X184700000Y-23750000D03*
%TD*%
%TO.C,R6*%
X186825000Y-47500000D03*
X185175000Y-47500000D03*
%TD*%
D35*
%TO.C,U1*%
X184525000Y-25600000D03*
X184525000Y-26550000D03*
X184525000Y-27500000D03*
X186800000Y-27500000D03*
X186800000Y-26550000D03*
X186800000Y-25600000D03*
%TD*%
D36*
%TO.C,J2*%
X258625000Y-46450000D03*
X258625000Y-47550000D03*
X258625000Y-48650000D03*
X258625000Y-49750000D03*
X258625000Y-50850000D03*
X258625000Y-51950000D03*
X258625000Y-53050000D03*
X258625000Y-54150000D03*
D37*
X258500000Y-44000000D03*
D38*
X258500000Y-55350000D03*
D39*
X250250000Y-43650000D03*
D40*
X247825000Y-44100000D03*
D41*
X249400000Y-55275000D03*
D42*
X250900000Y-55600000D03*
%TD*%
D19*
%TO.C,R12*%
X195750000Y-32325000D03*
X195750000Y-30675000D03*
%TD*%
D13*
%TO.C,C3*%
X219750000Y-33250000D03*
X219750000Y-34800000D03*
%TD*%
D43*
%TO.C,U4*%
X222925000Y-29240000D03*
X222925000Y-30510000D03*
X222925000Y-31780000D03*
X222925000Y-33050000D03*
X222925000Y-34320000D03*
X222925000Y-35590000D03*
X222925000Y-36860000D03*
X222925000Y-38130000D03*
X222925000Y-39400000D03*
X222925000Y-40670000D03*
X222925000Y-41940000D03*
X222925000Y-43210000D03*
X222925000Y-44480000D03*
X222925000Y-45750000D03*
D44*
X224690000Y-47000000D03*
X225960000Y-47000000D03*
X227230000Y-47000000D03*
X228500000Y-47000000D03*
X229770000Y-47000000D03*
X231040000Y-47000000D03*
X232310000Y-47000000D03*
X233580000Y-47000000D03*
X234850000Y-47000000D03*
X236120000Y-47000000D03*
X237390000Y-47000000D03*
X238660000Y-47000000D03*
D43*
X240425000Y-45750000D03*
X240425000Y-44480000D03*
X240425000Y-43210000D03*
X240425000Y-41940000D03*
X240425000Y-40670000D03*
X240425000Y-39400000D03*
X240425000Y-38130000D03*
X240425000Y-36860000D03*
X240425000Y-35590000D03*
X240425000Y-34320000D03*
X240425000Y-33050000D03*
X240425000Y-31780000D03*
X240425000Y-30510000D03*
X240425000Y-29240000D03*
D45*
X228775000Y-35560000D03*
X228775000Y-36960000D03*
X228775000Y-38360000D03*
X228775000Y-38360000D03*
X230175000Y-35560000D03*
X230175000Y-35560000D03*
X230175000Y-36960000D03*
X230175000Y-38360000D03*
X231575000Y-35560000D03*
X231575000Y-36960000D03*
X231575000Y-38360000D03*
%TD*%
D46*
%TO.C,U2*%
X219345000Y-27450000D03*
%TD*%
D22*
%TO.C,R4*%
X218000000Y-33200000D03*
X218000000Y-34850000D03*
%TD*%
D19*
%TO.C,R28*%
X257500000Y-40075000D03*
X257500000Y-38425000D03*
%TD*%
M02*
