%TF.GenerationSoftware,KiCad,Pcbnew,8.0.3*%
%TF.CreationDate,2024-08-27T21:26:44+01:00*%
%TF.ProjectId,esp32-s3-spectrum,65737033-322d-4733-932d-737065637472,rev?*%
%TF.SameCoordinates,Original*%
%TF.FileFunction,Legend,Bot*%
%TF.FilePolarity,Positive*%
%FSLAX46Y46*%
G04 Gerber Fmt 4.6, Leading zero omitted, Abs format (unit mm)*
G04 Created by KiCad (PCBNEW 8.0.3) date 2024-08-27 21:26:44*
%MOMM*%
%LPD*%
G01*
G04 APERTURE LIST*
%ADD10C,0.100000*%
%ADD11C,0.150000*%
%ADD12C,0.200000*%
%ADD13C,0.000000*%
G04 APERTURE END LIST*
D10*
X75405588Y-39099987D02*
X75395588Y-45550000D01*
X80670588Y-39109993D02*
X80660588Y-45560006D01*
X64885588Y-39110000D02*
X88265588Y-39110000D01*
X88265588Y-45560000D01*
X64885588Y-45560000D01*
X64885588Y-39110000D01*
X64970563Y-42330000D02*
X88265588Y-42335000D01*
X83275000Y-39104993D02*
X83265000Y-45555006D01*
X85735000Y-39114993D02*
X85725000Y-45565006D01*
X78015588Y-39099987D02*
X78005588Y-45550000D01*
X72965588Y-39109987D02*
X72955588Y-45560000D01*
X70335588Y-39109987D02*
X70325588Y-45560000D01*
X67695588Y-39119987D02*
X67685588Y-45570000D01*
D11*
X95963513Y-36208458D02*
X95963513Y-35589411D01*
X95963513Y-35589411D02*
X95582561Y-35922744D01*
X95582561Y-35922744D02*
X95582561Y-35779887D01*
X95582561Y-35779887D02*
X95534942Y-35684649D01*
X95534942Y-35684649D02*
X95487323Y-35637030D01*
X95487323Y-35637030D02*
X95392085Y-35589411D01*
X95392085Y-35589411D02*
X95153990Y-35589411D01*
X95153990Y-35589411D02*
X95058752Y-35637030D01*
X95058752Y-35637030D02*
X95011133Y-35684649D01*
X95011133Y-35684649D02*
X94963513Y-35779887D01*
X94963513Y-35779887D02*
X94963513Y-36065601D01*
X94963513Y-36065601D02*
X95011133Y-36160839D01*
X95011133Y-36160839D02*
X95058752Y-36208458D01*
X95963513Y-35303696D02*
X94963513Y-34970363D01*
X94963513Y-34970363D02*
X95963513Y-34637030D01*
X95963513Y-34398934D02*
X95963513Y-33779887D01*
X95963513Y-33779887D02*
X95582561Y-34113220D01*
X95582561Y-34113220D02*
X95582561Y-33970363D01*
X95582561Y-33970363D02*
X95534942Y-33875125D01*
X95534942Y-33875125D02*
X95487323Y-33827506D01*
X95487323Y-33827506D02*
X95392085Y-33779887D01*
X95392085Y-33779887D02*
X95153990Y-33779887D01*
X95153990Y-33779887D02*
X95058752Y-33827506D01*
X95058752Y-33827506D02*
X95011133Y-33875125D01*
X95011133Y-33875125D02*
X94963513Y-33970363D01*
X94963513Y-33970363D02*
X94963513Y-34256077D01*
X94963513Y-34256077D02*
X95011133Y-34351315D01*
X95011133Y-34351315D02*
X95058752Y-34398934D01*
D10*
G36*
X81315000Y-45306894D02*
G01*
X82815628Y-45306894D01*
X82815628Y-45142763D01*
X81753171Y-44946880D01*
X81531154Y-44907801D01*
X81603815Y-44894864D01*
X81680501Y-44880830D01*
X81752411Y-44867473D01*
X81771856Y-44863837D01*
X82815628Y-44666001D01*
X82815628Y-44518967D01*
X81315000Y-44518967D01*
X81315000Y-44624235D01*
X82591046Y-44624235D01*
X81315000Y-44864570D01*
X81315000Y-44962756D01*
X82621454Y-45201870D01*
X81315000Y-45201870D01*
X81315000Y-45306894D01*
G37*
G36*
X81315000Y-44326503D02*
G01*
X82815628Y-44326503D01*
X82815628Y-44217327D01*
X81315000Y-44217327D01*
X81315000Y-44326503D01*
G37*
G36*
X81807393Y-44065652D02*
G01*
X81830840Y-43962581D01*
X81752602Y-43955364D01*
X81679928Y-43942741D01*
X81621280Y-43925212D01*
X81561494Y-43894798D01*
X81512928Y-43854847D01*
X81501113Y-43841681D01*
X81471699Y-43795369D01*
X81457280Y-43744541D01*
X81455683Y-43719560D01*
X81461392Y-43668083D01*
X81481127Y-43619043D01*
X81519117Y-43575018D01*
X81527857Y-43568129D01*
X81588067Y-43535237D01*
X81660435Y-43517525D01*
X81715436Y-43514152D01*
X81789416Y-43521040D01*
X81833039Y-43533691D01*
X81889081Y-43565939D01*
X81915837Y-43592798D01*
X81946446Y-43640062D01*
X81972808Y-43690494D01*
X81996237Y-43739736D01*
X82007062Y-43763523D01*
X82029965Y-43811387D01*
X82056097Y-43858216D01*
X82088698Y-43904947D01*
X82111475Y-43929853D01*
X82162646Y-43968862D01*
X82224476Y-43999550D01*
X82244099Y-44006789D01*
X82312796Y-44024501D01*
X82388507Y-44033183D01*
X82425816Y-44034145D01*
X82502287Y-44030370D01*
X82581868Y-44016810D01*
X82653114Y-43993390D01*
X82716026Y-43960108D01*
X82723304Y-43955254D01*
X82773954Y-43912267D01*
X82810132Y-43862442D01*
X82829917Y-43813235D01*
X82838623Y-43758791D01*
X82839075Y-43742274D01*
X82834815Y-43692296D01*
X82820089Y-43641024D01*
X82794844Y-43594236D01*
X82785219Y-43581074D01*
X82742652Y-43537219D01*
X82689003Y-43500694D01*
X82630614Y-43473851D01*
X82557149Y-43451841D01*
X82483074Y-43439095D01*
X82402059Y-43433265D01*
X82393576Y-43433063D01*
X82370129Y-43538087D01*
X82450954Y-43546101D01*
X82525872Y-43562845D01*
X82590183Y-43590795D01*
X82599839Y-43596950D01*
X82645606Y-43640490D01*
X82669003Y-43690600D01*
X82674944Y-43738855D01*
X82668325Y-43792440D01*
X82645754Y-43841522D01*
X82607166Y-43880272D01*
X82545567Y-43911899D01*
X82470907Y-43927403D01*
X82432044Y-43929120D01*
X82358454Y-43923235D01*
X82291875Y-43901818D01*
X82277438Y-43893461D01*
X82233695Y-43849576D01*
X82204473Y-43801956D01*
X82182347Y-43755168D01*
X82173025Y-43732505D01*
X82152338Y-43682548D01*
X82130242Y-43633955D01*
X82104940Y-43585965D01*
X82088761Y-43560802D01*
X82050557Y-43517258D01*
X82000682Y-43477735D01*
X81942581Y-43446985D01*
X81876464Y-43425014D01*
X81802035Y-43412163D01*
X81727159Y-43408394D01*
X81651489Y-43412354D01*
X81580184Y-43424232D01*
X81506790Y-43446444D01*
X81500380Y-43448939D01*
X81435864Y-43480276D01*
X81382864Y-43518540D01*
X81344675Y-43559336D01*
X81316661Y-43605633D01*
X81299023Y-43657511D01*
X81292019Y-43708973D01*
X81291552Y-43727131D01*
X81296434Y-43782378D01*
X81311078Y-43833262D01*
X81335486Y-43879785D01*
X81376301Y-43928548D01*
X81430404Y-43971374D01*
X81496028Y-44006941D01*
X81571084Y-44034139D01*
X81642924Y-44050791D01*
X81721694Y-44061296D01*
X81807393Y-44065652D01*
G37*
G36*
X82078895Y-42504747D02*
G01*
X82166428Y-42507209D01*
X82249246Y-42513362D01*
X82327350Y-42523208D01*
X82400740Y-42536747D01*
X82480404Y-42557208D01*
X82501968Y-42563919D01*
X82572303Y-42589721D01*
X82634644Y-42619124D01*
X82696101Y-42657134D01*
X82747117Y-42699846D01*
X82787349Y-42745993D01*
X82816086Y-42794551D01*
X82833328Y-42845521D01*
X82839075Y-42898904D01*
X82838272Y-42919813D01*
X82829240Y-42970184D01*
X82810172Y-43017835D01*
X82781069Y-43062767D01*
X82741930Y-43104980D01*
X82692755Y-43144474D01*
X82633545Y-43181249D01*
X82607162Y-43194972D01*
X82535157Y-43225407D01*
X82454513Y-43250308D01*
X82383776Y-43266245D01*
X82307509Y-43278640D01*
X82225712Y-43287494D01*
X82138386Y-43292806D01*
X82045530Y-43294577D01*
X82008003Y-43294183D01*
X81917217Y-43289750D01*
X81830760Y-43280392D01*
X81748632Y-43266108D01*
X81670834Y-43246899D01*
X81597364Y-43222765D01*
X81528224Y-43193705D01*
X81499564Y-43179504D01*
X81436005Y-43141566D01*
X81384002Y-43100145D01*
X81343555Y-43055241D01*
X81314665Y-43006855D01*
X81297330Y-42954987D01*
X81291628Y-42900369D01*
X81455683Y-42900369D01*
X81457036Y-42922086D01*
X81470710Y-42970336D01*
X81504370Y-43021330D01*
X81549600Y-43062317D01*
X81609556Y-43099916D01*
X81660701Y-43123558D01*
X81730150Y-43146639D01*
X81808408Y-43163949D01*
X81880354Y-43173967D01*
X81958417Y-43179978D01*
X82042599Y-43181981D01*
X82062652Y-43181903D01*
X82139560Y-43180031D01*
X82228257Y-43174182D01*
X82308689Y-43164432D01*
X82380856Y-43150783D01*
X82456548Y-43129256D01*
X82520338Y-43102114D01*
X82556574Y-43081403D01*
X82608361Y-43041871D01*
X82645351Y-42998155D01*
X82667546Y-42950255D01*
X82674944Y-42898171D01*
X82668039Y-42851278D01*
X82644492Y-42802451D01*
X82604235Y-42756510D01*
X82595258Y-42748517D01*
X82544833Y-42712386D01*
X82485177Y-42682648D01*
X82416290Y-42659302D01*
X82377353Y-42649456D01*
X82306071Y-42635384D01*
X82230793Y-42625333D01*
X82151517Y-42619302D01*
X82068244Y-42617292D01*
X81995143Y-42618566D01*
X81910175Y-42623745D01*
X81832326Y-42632906D01*
X81748305Y-42649158D01*
X81674537Y-42671145D01*
X81611022Y-42698869D01*
X81574614Y-42719809D01*
X81522582Y-42759374D01*
X81485416Y-42802656D01*
X81463117Y-42849654D01*
X81455683Y-42900369D01*
X81291628Y-42900369D01*
X81291552Y-42899637D01*
X81292452Y-42877253D01*
X81302579Y-42823657D01*
X81323958Y-42773435D01*
X81356589Y-42726589D01*
X81400473Y-42683118D01*
X81455608Y-42643022D01*
X81521995Y-42606301D01*
X81590383Y-42577030D01*
X81664799Y-42552720D01*
X81745243Y-42533371D01*
X81831716Y-42518984D01*
X81905235Y-42511046D01*
X81982613Y-42506283D01*
X82063848Y-42504696D01*
X82078895Y-42504747D01*
G37*
G36*
X68613604Y-44914242D02*
G01*
X68637051Y-44812393D01*
X68555993Y-44800180D01*
X68476858Y-44779274D01*
X68409539Y-44746267D01*
X68369147Y-44703980D01*
X68355683Y-44652414D01*
X68368048Y-44603000D01*
X68405143Y-44558808D01*
X68443611Y-44532246D01*
X68510460Y-44503323D01*
X68581901Y-44487447D01*
X68654886Y-44481642D01*
X68672222Y-44481444D01*
X68749803Y-44485999D01*
X68823405Y-44501534D01*
X68884713Y-44528094D01*
X68933829Y-44566104D01*
X68961457Y-44614104D01*
X68965314Y-44642888D01*
X68954715Y-44691384D01*
X68944797Y-44714207D01*
X69129445Y-44702484D01*
X69127613Y-44686608D01*
X69136474Y-44634504D01*
X69166074Y-44586973D01*
X69190628Y-44565219D01*
X69249139Y-44535015D01*
X69321677Y-44520209D01*
X69359888Y-44518569D01*
X69437546Y-44526095D01*
X69504565Y-44550864D01*
X69515959Y-44557892D01*
X69558297Y-44598285D01*
X69574713Y-44646191D01*
X69574944Y-44653147D01*
X69562144Y-44703901D01*
X69523746Y-44746713D01*
X69516692Y-44751821D01*
X69454291Y-44781306D01*
X69382610Y-44797724D01*
X69340471Y-44802867D01*
X69363918Y-44903984D01*
X69440817Y-44893252D01*
X69518011Y-44875376D01*
X69583802Y-44851517D01*
X69644187Y-44817522D01*
X69690055Y-44777381D01*
X69720913Y-44732797D01*
X69736758Y-44683770D01*
X69739075Y-44654612D01*
X69730236Y-44600542D01*
X69703719Y-44551263D01*
X69659525Y-44506775D01*
X69627334Y-44484130D01*
X69568006Y-44453463D01*
X69501396Y-44431557D01*
X69427505Y-44418414D01*
X69346332Y-44414033D01*
X69272367Y-44418257D01*
X69199563Y-44432369D01*
X69163517Y-44444075D01*
X69100475Y-44474682D01*
X69050476Y-44514359D01*
X69038586Y-44527361D01*
X69009136Y-44479575D01*
X68970443Y-44445540D01*
X68910843Y-44414801D01*
X68843314Y-44393516D01*
X68770174Y-44379825D01*
X68695854Y-44373977D01*
X68665628Y-44373488D01*
X68590108Y-44376365D01*
X68508708Y-44386992D01*
X68434532Y-44405450D01*
X68367578Y-44431738D01*
X68324176Y-44455310D01*
X68272499Y-44492649D01*
X68228982Y-44539101D01*
X68202043Y-44589583D01*
X68191682Y-44644095D01*
X68191552Y-44651193D01*
X68198696Y-44702056D01*
X68220129Y-44748890D01*
X68255849Y-44791693D01*
X68305858Y-44830467D01*
X68368094Y-44863272D01*
X68440130Y-44888169D01*
X68511201Y-44903468D01*
X68589776Y-44912713D01*
X68613604Y-44914242D01*
G37*
G36*
X68215000Y-43997354D02*
G01*
X69715628Y-44317313D01*
X69715628Y-44199343D01*
X68628258Y-43984165D01*
X68556858Y-43970772D01*
X68478748Y-43957024D01*
X68401926Y-43944468D01*
X68379131Y-43940934D01*
X68457770Y-43928350D01*
X68535694Y-43914716D01*
X68612903Y-43900033D01*
X68628258Y-43896971D01*
X69715628Y-43673733D01*
X69715628Y-43562602D01*
X68215000Y-43885247D01*
X68215000Y-43997354D01*
G37*
G36*
X68613604Y-43511311D02*
G01*
X68637051Y-43409462D01*
X68555993Y-43397249D01*
X68476858Y-43376343D01*
X68409539Y-43343336D01*
X68369147Y-43301049D01*
X68355683Y-43249483D01*
X68368048Y-43200069D01*
X68405143Y-43155877D01*
X68443611Y-43129315D01*
X68510460Y-43100392D01*
X68581901Y-43084516D01*
X68654886Y-43078711D01*
X68672222Y-43078513D01*
X68749803Y-43083069D01*
X68823405Y-43098604D01*
X68884713Y-43125163D01*
X68933829Y-43163174D01*
X68961457Y-43211173D01*
X68965314Y-43239957D01*
X68954715Y-43288453D01*
X68944797Y-43311276D01*
X69129445Y-43299553D01*
X69127613Y-43283677D01*
X69136474Y-43231573D01*
X69166074Y-43184042D01*
X69190628Y-43162288D01*
X69249139Y-43132084D01*
X69321677Y-43117278D01*
X69359888Y-43115638D01*
X69437546Y-43123164D01*
X69504565Y-43147933D01*
X69515959Y-43154961D01*
X69558297Y-43195354D01*
X69574713Y-43243260D01*
X69574944Y-43250216D01*
X69562144Y-43300970D01*
X69523746Y-43343782D01*
X69516692Y-43348890D01*
X69454291Y-43378375D01*
X69382610Y-43394793D01*
X69340471Y-43399936D01*
X69363918Y-43501053D01*
X69440817Y-43490321D01*
X69518011Y-43472445D01*
X69583802Y-43448586D01*
X69644187Y-43414591D01*
X69690055Y-43374451D01*
X69720913Y-43329866D01*
X69736758Y-43280839D01*
X69739075Y-43251681D01*
X69730236Y-43197611D01*
X69703719Y-43148332D01*
X69659525Y-43103844D01*
X69627334Y-43081200D01*
X69568006Y-43050532D01*
X69501396Y-43028626D01*
X69427505Y-43015483D01*
X69346332Y-43011102D01*
X69272367Y-43015326D01*
X69199563Y-43029438D01*
X69163517Y-43041144D01*
X69100475Y-43071751D01*
X69050476Y-43111428D01*
X69038586Y-43124431D01*
X69009136Y-43076645D01*
X68970443Y-43042609D01*
X68910843Y-43011870D01*
X68843314Y-42990585D01*
X68770174Y-42976894D01*
X68695854Y-42971047D01*
X68665628Y-42970558D01*
X68590108Y-42973434D01*
X68508708Y-42984061D01*
X68434532Y-43002519D01*
X68367578Y-43028807D01*
X68324176Y-43052379D01*
X68272499Y-43089718D01*
X68228982Y-43136170D01*
X68202043Y-43186652D01*
X68191682Y-43241164D01*
X68191552Y-43248262D01*
X68198696Y-43299125D01*
X68220129Y-43345959D01*
X68255849Y-43388762D01*
X68305858Y-43427536D01*
X68368094Y-43460341D01*
X68440130Y-43485238D01*
X68511201Y-43500537D01*
X68589776Y-43509782D01*
X68613604Y-43511311D01*
G37*
D12*
X204149850Y-32747219D02*
X203959374Y-32747219D01*
X203959374Y-32747219D02*
X203864136Y-32794838D01*
X203864136Y-32794838D02*
X203768898Y-32890076D01*
X203768898Y-32890076D02*
X203721279Y-33080552D01*
X203721279Y-33080552D02*
X203721279Y-33413885D01*
X203721279Y-33413885D02*
X203768898Y-33604361D01*
X203768898Y-33604361D02*
X203864136Y-33699600D01*
X203864136Y-33699600D02*
X203959374Y-33747219D01*
X203959374Y-33747219D02*
X204149850Y-33747219D01*
X204149850Y-33747219D02*
X204245088Y-33699600D01*
X204245088Y-33699600D02*
X204340326Y-33604361D01*
X204340326Y-33604361D02*
X204387945Y-33413885D01*
X204387945Y-33413885D02*
X204387945Y-33080552D01*
X204387945Y-33080552D02*
X204340326Y-32890076D01*
X204340326Y-32890076D02*
X204245088Y-32794838D01*
X204245088Y-32794838D02*
X204149850Y-32747219D01*
X202959374Y-33223409D02*
X203292707Y-33223409D01*
X203292707Y-33747219D02*
X203292707Y-32747219D01*
X203292707Y-32747219D02*
X202816517Y-32747219D01*
X202102231Y-33223409D02*
X202435564Y-33223409D01*
X202435564Y-33747219D02*
X202435564Y-32747219D01*
X202435564Y-32747219D02*
X201959374Y-32747219D01*
D10*
G36*
X74064288Y-43808108D02*
G01*
X74017393Y-43698199D01*
X73939335Y-43710907D01*
X73867735Y-43726287D01*
X73790339Y-43748269D01*
X73722242Y-43774097D01*
X73663445Y-43803773D01*
X73629413Y-43825694D01*
X73579592Y-43867349D01*
X73542008Y-43912815D01*
X73516661Y-43962091D01*
X73503550Y-44015176D01*
X73501552Y-44047222D01*
X73506750Y-44102528D01*
X73522343Y-44153651D01*
X73548332Y-44200591D01*
X73584717Y-44243349D01*
X73632573Y-44282183D01*
X73692978Y-44317354D01*
X73756125Y-44345124D01*
X73828879Y-44370088D01*
X73851430Y-44376705D01*
X73922729Y-44394302D01*
X73998691Y-44408258D01*
X74079316Y-44418574D01*
X74164603Y-44425249D01*
X74239237Y-44428030D01*
X74285572Y-44428485D01*
X74360886Y-44427221D01*
X74446375Y-44422366D01*
X74526531Y-44413871D01*
X74601355Y-44401735D01*
X74670847Y-44385959D01*
X74703593Y-44376705D01*
X74774432Y-44352204D01*
X74837240Y-44324219D01*
X74899190Y-44287972D01*
X74950653Y-44247176D01*
X74961880Y-44236266D01*
X75000028Y-44190638D01*
X75027276Y-44142415D01*
X75043625Y-44091598D01*
X75049075Y-44038185D01*
X75043658Y-43987545D01*
X75024200Y-43933621D01*
X74990592Y-43883910D01*
X74942833Y-43838412D01*
X74935868Y-43833021D01*
X74881274Y-43797873D01*
X74816547Y-43767658D01*
X74741686Y-43742375D01*
X74669455Y-43724629D01*
X74603576Y-43712609D01*
X74556681Y-43819832D01*
X74633618Y-43835299D01*
X74715363Y-43859496D01*
X74781079Y-43889095D01*
X74838782Y-43931745D01*
X74873403Y-43982174D01*
X74884944Y-44040383D01*
X74878754Y-44089833D01*
X74857648Y-44139268D01*
X74821563Y-44183509D01*
X74769633Y-44222128D01*
X74707924Y-44252276D01*
X74640577Y-44275372D01*
X74624092Y-44279985D01*
X74552789Y-44295693D01*
X74472601Y-44306913D01*
X74395148Y-44313049D01*
X74310894Y-44315749D01*
X74285572Y-44315889D01*
X74210507Y-44314752D01*
X74123487Y-44310132D01*
X74044033Y-44301958D01*
X73972147Y-44290230D01*
X73895871Y-44271465D01*
X73830493Y-44247582D01*
X73820655Y-44243105D01*
X73760271Y-44208947D01*
X73714718Y-44170162D01*
X73680817Y-44120168D01*
X73667045Y-44071465D01*
X73665683Y-44049176D01*
X73675343Y-43995819D01*
X73704323Y-43947185D01*
X73752623Y-43903274D01*
X73764602Y-43895058D01*
X73828300Y-43861914D01*
X73898447Y-43838161D01*
X73970269Y-43821786D01*
X74051839Y-43809524D01*
X74064288Y-43808108D01*
G37*
G36*
X74017393Y-43602700D02*
G01*
X74040840Y-43499629D01*
X73962602Y-43492412D01*
X73889928Y-43479789D01*
X73831280Y-43462260D01*
X73771494Y-43431846D01*
X73722928Y-43391895D01*
X73711113Y-43378729D01*
X73681699Y-43332416D01*
X73667280Y-43281589D01*
X73665683Y-43256608D01*
X73671392Y-43205131D01*
X73691127Y-43156091D01*
X73729117Y-43112066D01*
X73737857Y-43105177D01*
X73798067Y-43072284D01*
X73870435Y-43054573D01*
X73925436Y-43051199D01*
X73999416Y-43058088D01*
X74043039Y-43070739D01*
X74099081Y-43102987D01*
X74125837Y-43129846D01*
X74156446Y-43177110D01*
X74182808Y-43227542D01*
X74206237Y-43276784D01*
X74217062Y-43300571D01*
X74239965Y-43348435D01*
X74266097Y-43395264D01*
X74298698Y-43441995D01*
X74321475Y-43466901D01*
X74372646Y-43505910D01*
X74434476Y-43536598D01*
X74454099Y-43543837D01*
X74522796Y-43561549D01*
X74598507Y-43570231D01*
X74635816Y-43571192D01*
X74712287Y-43567417D01*
X74791868Y-43553858D01*
X74863114Y-43530438D01*
X74926026Y-43497156D01*
X74933304Y-43492302D01*
X74983954Y-43449315D01*
X75020132Y-43399490D01*
X75039917Y-43350282D01*
X75048623Y-43295839D01*
X75049075Y-43279322D01*
X75044815Y-43229344D01*
X75030089Y-43178072D01*
X75004844Y-43131284D01*
X74995219Y-43118122D01*
X74952652Y-43074267D01*
X74899003Y-43037742D01*
X74840614Y-43010899D01*
X74767149Y-42988889D01*
X74693074Y-42976143D01*
X74612059Y-42970313D01*
X74603576Y-42970111D01*
X74580129Y-43075135D01*
X74660954Y-43083149D01*
X74735872Y-43099893D01*
X74800183Y-43127843D01*
X74809839Y-43133998D01*
X74855606Y-43177538D01*
X74879003Y-43227648D01*
X74884944Y-43275903D01*
X74878325Y-43329488D01*
X74855754Y-43378570D01*
X74817166Y-43417319D01*
X74755567Y-43448947D01*
X74680907Y-43464451D01*
X74642044Y-43466168D01*
X74568454Y-43460283D01*
X74501875Y-43438866D01*
X74487438Y-43430509D01*
X74443695Y-43386624D01*
X74414473Y-43339004D01*
X74392347Y-43292216D01*
X74383025Y-43269553D01*
X74362338Y-43219596D01*
X74340242Y-43171003D01*
X74314940Y-43123013D01*
X74298761Y-43097850D01*
X74260557Y-43054306D01*
X74210682Y-43014782D01*
X74152581Y-42984033D01*
X74086464Y-42962062D01*
X74012035Y-42949211D01*
X73937159Y-42945442D01*
X73861489Y-42949402D01*
X73790184Y-42961280D01*
X73716790Y-42983492D01*
X73710380Y-42985987D01*
X73645864Y-43017324D01*
X73592864Y-43055588D01*
X73554675Y-43096384D01*
X73526661Y-43142681D01*
X73509023Y-43194559D01*
X73502019Y-43246021D01*
X73501552Y-43264179D01*
X73506434Y-43319426D01*
X73521078Y-43370310D01*
X73545486Y-43416833D01*
X73586301Y-43465596D01*
X73640404Y-43508422D01*
X73706028Y-43543988D01*
X73781084Y-43571187D01*
X73852924Y-43587839D01*
X73931694Y-43598343D01*
X74017393Y-43602700D01*
G37*
G36*
X73856060Y-41292504D02*
G01*
X73920532Y-41316723D01*
X73986987Y-41346064D01*
X74048768Y-41378233D01*
X74077158Y-41403431D01*
X74113248Y-41448331D01*
X74126969Y-41407730D01*
X74153760Y-41359500D01*
X74195504Y-41313306D01*
X74249535Y-41275651D01*
X74299637Y-41252430D01*
X74373275Y-41230955D01*
X74447441Y-41219781D01*
X74529804Y-41216056D01*
X74537993Y-41216090D01*
X74616418Y-41220212D01*
X74688546Y-41231203D01*
X74760614Y-41251227D01*
X74801476Y-41267454D01*
X74858801Y-41299677D01*
X74902763Y-41340864D01*
X74912809Y-41355423D01*
X74933530Y-41405182D01*
X74942949Y-41456498D01*
X74945628Y-41510124D01*
X74945628Y-41876244D01*
X73445000Y-41876244D01*
X73445000Y-41767068D01*
X74101524Y-41767068D01*
X74101524Y-41640550D01*
X74098485Y-41602769D01*
X74079909Y-41555065D01*
X74056769Y-41532106D01*
X74289103Y-41532106D01*
X74289103Y-41767068D01*
X74758049Y-41767068D01*
X74758049Y-41505972D01*
X74754202Y-41464817D01*
X74736351Y-41417003D01*
X74696500Y-41373593D01*
X74671933Y-41358403D01*
X74601989Y-41335182D01*
X74527972Y-41328896D01*
X74466403Y-41333384D01*
X74397547Y-41352343D01*
X74356901Y-41373937D01*
X74315115Y-41415358D01*
X74306275Y-41431593D01*
X74292761Y-41479624D01*
X74289103Y-41532106D01*
X74056769Y-41532106D01*
X74050628Y-41526013D01*
X73995645Y-41492050D01*
X73962734Y-41476236D01*
X73896073Y-41448453D01*
X73826103Y-41421831D01*
X73752745Y-41395330D01*
X73445000Y-41285421D01*
X73445000Y-41148156D01*
X73856060Y-41292504D01*
G37*
G36*
X73937393Y-41084165D02*
G01*
X73960840Y-40981094D01*
X73882602Y-40973877D01*
X73809928Y-40961254D01*
X73751280Y-40943725D01*
X73691494Y-40913311D01*
X73642928Y-40873360D01*
X73631113Y-40860194D01*
X73601699Y-40813881D01*
X73587280Y-40763054D01*
X73585683Y-40738073D01*
X73591392Y-40686596D01*
X73611127Y-40637556D01*
X73649117Y-40593531D01*
X73657857Y-40586642D01*
X73718067Y-40553749D01*
X73790435Y-40536038D01*
X73845436Y-40532664D01*
X73919416Y-40539553D01*
X73963039Y-40552204D01*
X74019081Y-40584452D01*
X74045837Y-40611311D01*
X74076446Y-40658575D01*
X74102808Y-40709007D01*
X74126237Y-40758249D01*
X74137062Y-40782036D01*
X74159965Y-40829900D01*
X74186097Y-40876729D01*
X74218698Y-40923460D01*
X74241475Y-40948366D01*
X74292646Y-40987375D01*
X74354476Y-41018063D01*
X74374099Y-41025302D01*
X74442796Y-41043014D01*
X74518507Y-41051696D01*
X74555816Y-41052657D01*
X74632287Y-41048882D01*
X74711868Y-41035323D01*
X74783114Y-41011903D01*
X74846026Y-40978621D01*
X74853304Y-40973767D01*
X74903954Y-40930780D01*
X74940132Y-40880955D01*
X74959917Y-40831747D01*
X74968623Y-40777304D01*
X74969075Y-40760787D01*
X74964815Y-40710809D01*
X74950089Y-40659537D01*
X74924844Y-40612749D01*
X74915219Y-40599587D01*
X74872652Y-40555732D01*
X74819003Y-40519207D01*
X74760614Y-40492364D01*
X74687149Y-40470354D01*
X74613074Y-40457608D01*
X74532059Y-40451778D01*
X74523576Y-40451576D01*
X74500129Y-40556600D01*
X74580954Y-40564614D01*
X74655872Y-40581358D01*
X74720183Y-40609308D01*
X74729839Y-40615463D01*
X74775606Y-40659003D01*
X74799003Y-40709113D01*
X74804944Y-40757368D01*
X74798325Y-40810953D01*
X74775754Y-40860035D01*
X74737166Y-40898784D01*
X74675567Y-40930412D01*
X74600907Y-40945916D01*
X74562044Y-40947633D01*
X74488454Y-40941748D01*
X74421875Y-40920331D01*
X74407438Y-40911974D01*
X74363695Y-40868089D01*
X74334473Y-40820469D01*
X74312347Y-40773681D01*
X74303025Y-40751018D01*
X74282338Y-40701061D01*
X74260242Y-40652468D01*
X74234940Y-40604478D01*
X74218761Y-40579315D01*
X74180557Y-40535771D01*
X74130682Y-40496247D01*
X74072581Y-40465498D01*
X74006464Y-40443527D01*
X73932035Y-40430676D01*
X73857159Y-40426907D01*
X73781489Y-40430867D01*
X73710184Y-40442745D01*
X73636790Y-40464957D01*
X73630380Y-40467452D01*
X73565864Y-40498789D01*
X73512864Y-40537053D01*
X73474675Y-40577849D01*
X73446661Y-40624146D01*
X73429023Y-40676024D01*
X73422019Y-40727486D01*
X73421552Y-40745644D01*
X73426434Y-40800891D01*
X73441078Y-40851775D01*
X73465486Y-40898298D01*
X73506301Y-40947061D01*
X73560404Y-40989887D01*
X73626028Y-41025453D01*
X73701084Y-41052652D01*
X73772924Y-41069304D01*
X73851694Y-41079808D01*
X73937393Y-41084165D01*
G37*
G36*
X73445000Y-40070557D02*
G01*
X74758049Y-40070557D01*
X74758049Y-40342644D01*
X74945628Y-40342644D01*
X74945628Y-39688073D01*
X74758049Y-39688073D01*
X74758049Y-39961380D01*
X73445000Y-39961380D01*
X73445000Y-40070557D01*
G37*
D11*
X97249227Y-35875125D02*
X97296846Y-35970363D01*
X97296846Y-35970363D02*
X97296846Y-36113220D01*
X97296846Y-36113220D02*
X97249227Y-36256077D01*
X97249227Y-36256077D02*
X97153989Y-36351315D01*
X97153989Y-36351315D02*
X97058751Y-36398934D01*
X97058751Y-36398934D02*
X96868275Y-36446553D01*
X96868275Y-36446553D02*
X96725418Y-36446553D01*
X96725418Y-36446553D02*
X96534942Y-36398934D01*
X96534942Y-36398934D02*
X96439704Y-36351315D01*
X96439704Y-36351315D02*
X96344466Y-36256077D01*
X96344466Y-36256077D02*
X96296846Y-36113220D01*
X96296846Y-36113220D02*
X96296846Y-36017982D01*
X96296846Y-36017982D02*
X96344466Y-35875125D01*
X96344466Y-35875125D02*
X96392085Y-35827506D01*
X96392085Y-35827506D02*
X96725418Y-35827506D01*
X96725418Y-35827506D02*
X96725418Y-36017982D01*
X96296846Y-35398934D02*
X97296846Y-35398934D01*
X97296846Y-35398934D02*
X96296846Y-34827506D01*
X96296846Y-34827506D02*
X97296846Y-34827506D01*
X96296846Y-34351315D02*
X97296846Y-34351315D01*
X97296846Y-34351315D02*
X97296846Y-34113220D01*
X97296846Y-34113220D02*
X97249227Y-33970363D01*
X97249227Y-33970363D02*
X97153989Y-33875125D01*
X97153989Y-33875125D02*
X97058751Y-33827506D01*
X97058751Y-33827506D02*
X96868275Y-33779887D01*
X96868275Y-33779887D02*
X96725418Y-33779887D01*
X96725418Y-33779887D02*
X96534942Y-33827506D01*
X96534942Y-33827506D02*
X96439704Y-33875125D01*
X96439704Y-33875125D02*
X96344466Y-33970363D01*
X96344466Y-33970363D02*
X96296846Y-34113220D01*
X96296846Y-34113220D02*
X96296846Y-34351315D01*
D10*
G36*
X66171182Y-41441667D02*
G01*
X66358761Y-41441667D01*
X66358761Y-41092155D01*
X65782470Y-41092155D01*
X65730904Y-41132685D01*
X65686116Y-41173916D01*
X65648106Y-41215849D01*
X65616873Y-41258485D01*
X65590131Y-41307094D01*
X65572141Y-41356476D01*
X65562903Y-41406631D01*
X65561552Y-41434828D01*
X65565847Y-41486471D01*
X65578733Y-41535614D01*
X65603977Y-41588714D01*
X65640442Y-41638547D01*
X65651311Y-41650495D01*
X65694543Y-41690073D01*
X65745699Y-41725888D01*
X65804779Y-41757940D01*
X65871783Y-41786229D01*
X65913628Y-41800704D01*
X65992453Y-41822212D01*
X66065320Y-41836443D01*
X66143080Y-41846793D01*
X66225736Y-41853262D01*
X66313285Y-41855849D01*
X66328353Y-41855903D01*
X66403293Y-41854543D01*
X66489159Y-41849323D01*
X66570595Y-41840186D01*
X66647600Y-41827135D01*
X66720175Y-41810167D01*
X66754801Y-41800216D01*
X66829726Y-41774216D01*
X66895500Y-41744944D01*
X66952123Y-41712400D01*
X67005630Y-41671199D01*
X67022613Y-41654647D01*
X67060440Y-41607630D01*
X67087459Y-41556461D01*
X67102236Y-41508282D01*
X67108737Y-41456925D01*
X67109075Y-41441667D01*
X67105105Y-41392493D01*
X67091380Y-41342071D01*
X67064961Y-41291730D01*
X67058883Y-41283153D01*
X67019398Y-41239162D01*
X66969955Y-41200885D01*
X66916367Y-41171046D01*
X66852168Y-41145715D01*
X66782886Y-41126588D01*
X66712155Y-41112506D01*
X66663576Y-41105100D01*
X66616681Y-41203530D01*
X66690527Y-41217049D01*
X66762517Y-41235917D01*
X66808656Y-41253844D01*
X66865534Y-41288771D01*
X66906380Y-41330388D01*
X66908674Y-41333467D01*
X66934707Y-41382458D01*
X66944625Y-41433121D01*
X66944944Y-41444598D01*
X66938504Y-41498341D01*
X66919184Y-41547218D01*
X66886984Y-41591229D01*
X66878998Y-41599448D01*
X66830627Y-41637573D01*
X66767944Y-41670736D01*
X66699294Y-41696342D01*
X66673834Y-41703984D01*
X66600584Y-41721188D01*
X66519686Y-41733476D01*
X66442627Y-41740196D01*
X66359713Y-41743153D01*
X66334947Y-41743307D01*
X66261045Y-41741986D01*
X66175396Y-41736622D01*
X66097225Y-41727132D01*
X66026532Y-41713515D01*
X65951571Y-41691727D01*
X65887377Y-41663998D01*
X65877725Y-41658799D01*
X65818482Y-41619396D01*
X65773790Y-41575130D01*
X65743649Y-41526003D01*
X65728059Y-41472014D01*
X65725683Y-41438980D01*
X65732329Y-41390174D01*
X65752268Y-41340474D01*
X65772944Y-41306845D01*
X65807514Y-41263622D01*
X65853728Y-41221024D01*
X65885052Y-41199378D01*
X66171182Y-41199378D01*
X66171182Y-41441667D01*
G37*
G36*
X65585000Y-40940969D02*
G01*
X67085628Y-40940969D01*
X67085628Y-40829106D01*
X65898241Y-40394842D01*
X67085628Y-40394842D01*
X67085628Y-40290550D01*
X65585000Y-40290550D01*
X65585000Y-40402414D01*
X66770554Y-40835945D01*
X65585000Y-40835945D01*
X65585000Y-40940969D01*
G37*
G36*
X66367984Y-39429221D02*
G01*
X66450809Y-39431444D01*
X66528479Y-39436494D01*
X66610934Y-39445730D01*
X66686657Y-39458659D01*
X66722148Y-39466414D01*
X66796311Y-39486541D01*
X66862592Y-39510378D01*
X66926992Y-39541213D01*
X66980730Y-39576070D01*
X67026453Y-39618766D01*
X67058150Y-39666022D01*
X67061478Y-39673090D01*
X67076934Y-39723877D01*
X67083910Y-39777167D01*
X67085628Y-39826978D01*
X67085628Y-40112009D01*
X65585000Y-40112009D01*
X65585000Y-39826733D01*
X65772578Y-39826733D01*
X65772578Y-40002588D01*
X66898049Y-40002588D01*
X66898049Y-39829420D01*
X66896647Y-39790105D01*
X66888775Y-39738290D01*
X66868740Y-39689957D01*
X66863048Y-39681898D01*
X66819824Y-39640882D01*
X66763023Y-39608453D01*
X66697648Y-39583223D01*
X66655233Y-39571261D01*
X66577621Y-39556340D01*
X66499868Y-39547541D01*
X66425911Y-39543162D01*
X66345205Y-39541702D01*
X66293920Y-39542313D01*
X66220448Y-39545518D01*
X66139973Y-39552731D01*
X66065143Y-39563684D01*
X65986535Y-39580781D01*
X65934145Y-39597145D01*
X65869985Y-39627645D01*
X65823136Y-39665289D01*
X65811287Y-39679833D01*
X65786847Y-39728132D01*
X65775738Y-39776709D01*
X65772578Y-39826733D01*
X65585000Y-39826733D01*
X65585000Y-39813788D01*
X65588541Y-39760537D01*
X65601260Y-39705346D01*
X65623231Y-39656200D01*
X65659005Y-39608136D01*
X65663754Y-39603248D01*
X65715577Y-39561773D01*
X65775363Y-39528701D01*
X65838270Y-39502693D01*
X65911064Y-39479420D01*
X65956688Y-39467628D01*
X66029631Y-39452887D01*
X66107984Y-39441684D01*
X66191747Y-39434019D01*
X66265682Y-39430334D01*
X66343374Y-39429106D01*
X66367984Y-39429221D01*
G37*
D11*
X254198458Y-43518867D02*
X254055601Y-43566486D01*
X254055601Y-43566486D02*
X253817506Y-43566486D01*
X253817506Y-43566486D02*
X253722268Y-43518867D01*
X253722268Y-43518867D02*
X253674649Y-43471247D01*
X253674649Y-43471247D02*
X253627030Y-43376009D01*
X253627030Y-43376009D02*
X253627030Y-43280771D01*
X253627030Y-43280771D02*
X253674649Y-43185533D01*
X253674649Y-43185533D02*
X253722268Y-43137914D01*
X253722268Y-43137914D02*
X253817506Y-43090295D01*
X253817506Y-43090295D02*
X254007982Y-43042676D01*
X254007982Y-43042676D02*
X254103220Y-42995057D01*
X254103220Y-42995057D02*
X254150839Y-42947438D01*
X254150839Y-42947438D02*
X254198458Y-42852200D01*
X254198458Y-42852200D02*
X254198458Y-42756962D01*
X254198458Y-42756962D02*
X254150839Y-42661724D01*
X254150839Y-42661724D02*
X254103220Y-42614105D01*
X254103220Y-42614105D02*
X254007982Y-42566486D01*
X254007982Y-42566486D02*
X253769887Y-42566486D01*
X253769887Y-42566486D02*
X253627030Y-42614105D01*
X253198458Y-43566486D02*
X253198458Y-42566486D01*
X253198458Y-42566486D02*
X252960363Y-42566486D01*
X252960363Y-42566486D02*
X252817506Y-42614105D01*
X252817506Y-42614105D02*
X252722268Y-42709343D01*
X252722268Y-42709343D02*
X252674649Y-42804581D01*
X252674649Y-42804581D02*
X252627030Y-42995057D01*
X252627030Y-42995057D02*
X252627030Y-43137914D01*
X252627030Y-43137914D02*
X252674649Y-43328390D01*
X252674649Y-43328390D02*
X252722268Y-43423628D01*
X252722268Y-43423628D02*
X252817506Y-43518867D01*
X252817506Y-43518867D02*
X252960363Y-43566486D01*
X252960363Y-43566486D02*
X253198458Y-43566486D01*
X252246077Y-43280771D02*
X251769887Y-43280771D01*
X252341315Y-43566486D02*
X252007982Y-42566486D01*
X252007982Y-42566486D02*
X251674649Y-43566486D01*
X254150839Y-42185534D02*
X254007982Y-42233153D01*
X254007982Y-42233153D02*
X253769887Y-42233153D01*
X253769887Y-42233153D02*
X253674649Y-42185534D01*
X253674649Y-42185534D02*
X253627030Y-42137914D01*
X253627030Y-42137914D02*
X253579411Y-42042676D01*
X253579411Y-42042676D02*
X253579411Y-41947438D01*
X253579411Y-41947438D02*
X253627030Y-41852200D01*
X253627030Y-41852200D02*
X253674649Y-41804581D01*
X253674649Y-41804581D02*
X253769887Y-41756962D01*
X253769887Y-41756962D02*
X253960363Y-41709343D01*
X253960363Y-41709343D02*
X254055601Y-41661724D01*
X254055601Y-41661724D02*
X254103220Y-41614105D01*
X254103220Y-41614105D02*
X254150839Y-41518867D01*
X254150839Y-41518867D02*
X254150839Y-41423629D01*
X254150839Y-41423629D02*
X254103220Y-41328391D01*
X254103220Y-41328391D02*
X254055601Y-41280772D01*
X254055601Y-41280772D02*
X253960363Y-41233153D01*
X253960363Y-41233153D02*
X253722268Y-41233153D01*
X253722268Y-41233153D02*
X253579411Y-41280772D01*
X252579411Y-42137914D02*
X252627030Y-42185534D01*
X252627030Y-42185534D02*
X252769887Y-42233153D01*
X252769887Y-42233153D02*
X252865125Y-42233153D01*
X252865125Y-42233153D02*
X253007982Y-42185534D01*
X253007982Y-42185534D02*
X253103220Y-42090295D01*
X253103220Y-42090295D02*
X253150839Y-41995057D01*
X253150839Y-41995057D02*
X253198458Y-41804581D01*
X253198458Y-41804581D02*
X253198458Y-41661724D01*
X253198458Y-41661724D02*
X253150839Y-41471248D01*
X253150839Y-41471248D02*
X253103220Y-41376010D01*
X253103220Y-41376010D02*
X253007982Y-41280772D01*
X253007982Y-41280772D02*
X252865125Y-41233153D01*
X252865125Y-41233153D02*
X252769887Y-41233153D01*
X252769887Y-41233153D02*
X252627030Y-41280772D01*
X252627030Y-41280772D02*
X252579411Y-41328391D01*
X251674649Y-42233153D02*
X252150839Y-42233153D01*
X252150839Y-42233153D02*
X252150839Y-41233153D01*
D10*
G36*
X76025000Y-41519496D02*
G01*
X77525628Y-41519496D01*
X77525628Y-41410320D01*
X76025000Y-41410320D01*
X76025000Y-41519496D01*
G37*
G36*
X76788895Y-40462709D02*
G01*
X76876428Y-40465170D01*
X76959246Y-40471324D01*
X77037350Y-40481170D01*
X77110740Y-40494708D01*
X77190404Y-40515170D01*
X77211968Y-40521881D01*
X77282303Y-40547683D01*
X77344644Y-40577085D01*
X77406101Y-40615095D01*
X77457117Y-40657807D01*
X77497349Y-40703954D01*
X77526086Y-40752513D01*
X77543328Y-40803483D01*
X77549075Y-40856865D01*
X77548272Y-40877775D01*
X77539240Y-40928145D01*
X77520172Y-40975796D01*
X77491069Y-41020728D01*
X77451930Y-41062941D01*
X77402755Y-41102435D01*
X77343545Y-41139210D01*
X77317162Y-41152934D01*
X77245157Y-41183368D01*
X77164513Y-41208270D01*
X77093776Y-41224207D01*
X77017509Y-41236602D01*
X76935712Y-41245456D01*
X76848386Y-41250768D01*
X76755530Y-41252539D01*
X76718003Y-41252145D01*
X76627217Y-41247712D01*
X76540760Y-41238354D01*
X76458632Y-41224070D01*
X76380834Y-41204861D01*
X76307364Y-41180726D01*
X76238224Y-41151666D01*
X76209564Y-41137466D01*
X76146005Y-41099527D01*
X76094002Y-41058106D01*
X76053555Y-41013203D01*
X76024665Y-40964817D01*
X76007330Y-40912949D01*
X76001629Y-40858331D01*
X76165683Y-40858331D01*
X76167036Y-40880047D01*
X76180710Y-40928298D01*
X76214370Y-40979291D01*
X76259600Y-41020279D01*
X76319556Y-41057877D01*
X76370701Y-41081519D01*
X76440150Y-41104600D01*
X76518408Y-41121911D01*
X76590354Y-41131929D01*
X76668417Y-41137939D01*
X76752599Y-41139943D01*
X76772652Y-41139865D01*
X76849560Y-41137993D01*
X76938257Y-41132143D01*
X77018689Y-41122394D01*
X77090856Y-41108745D01*
X77166548Y-41087218D01*
X77230338Y-41060075D01*
X77266574Y-41039364D01*
X77318361Y-40999833D01*
X77355351Y-40956117D01*
X77377546Y-40908217D01*
X77384944Y-40856133D01*
X77378039Y-40809240D01*
X77354492Y-40760413D01*
X77314235Y-40714472D01*
X77305258Y-40706479D01*
X77254833Y-40670348D01*
X77195177Y-40640609D01*
X77126290Y-40617263D01*
X77087353Y-40607417D01*
X77016071Y-40593345D01*
X76940793Y-40583294D01*
X76861517Y-40577264D01*
X76778244Y-40575253D01*
X76705143Y-40576528D01*
X76620175Y-40581706D01*
X76542326Y-40590868D01*
X76458305Y-40607119D01*
X76384537Y-40629107D01*
X76321022Y-40656830D01*
X76284614Y-40677770D01*
X76232582Y-40717336D01*
X76195416Y-40760617D01*
X76173117Y-40807616D01*
X76165683Y-40858331D01*
X76001629Y-40858331D01*
X76001552Y-40857598D01*
X76002452Y-40835215D01*
X76012579Y-40781618D01*
X76033958Y-40731397D01*
X76066589Y-40684551D01*
X76110473Y-40641080D01*
X76165608Y-40600984D01*
X76231995Y-40564262D01*
X76300383Y-40534991D01*
X76374799Y-40510682D01*
X76455243Y-40491333D01*
X76541716Y-40476946D01*
X76615235Y-40469008D01*
X76692613Y-40464245D01*
X76773848Y-40462657D01*
X76788895Y-40462709D01*
G37*
G36*
X76423604Y-40372043D02*
G01*
X76447051Y-40265553D01*
X76372830Y-40256093D01*
X76297700Y-40237866D01*
X76235293Y-40209622D01*
X76187708Y-40168703D01*
X76166295Y-40118946D01*
X76165683Y-40108261D01*
X76179491Y-40057004D01*
X76220913Y-40011312D01*
X76263869Y-39983941D01*
X76332476Y-39956378D01*
X76406214Y-39940300D01*
X76481296Y-39932950D01*
X76532780Y-39931673D01*
X76608320Y-39934833D01*
X76682519Y-39945942D01*
X76751570Y-39967667D01*
X76780809Y-39982232D01*
X76831078Y-40019882D01*
X76862119Y-40067933D01*
X76869103Y-40108750D01*
X76857047Y-40158750D01*
X76831001Y-40194967D01*
X76782428Y-40232839D01*
X76725488Y-40258470D01*
X76748203Y-40353969D01*
X77525628Y-40273613D01*
X77525628Y-39863530D01*
X77361496Y-39863530D01*
X77361496Y-40192525D01*
X76956664Y-40237221D01*
X76997043Y-40190414D01*
X77022466Y-40141890D01*
X77032935Y-40091649D01*
X77033234Y-40081394D01*
X77024922Y-40031202D01*
X76999986Y-39984430D01*
X76958427Y-39941077D01*
X76900244Y-39901143D01*
X76837625Y-39871260D01*
X76766136Y-39848717D01*
X76685776Y-39833513D01*
X76609835Y-39826323D01*
X76541573Y-39824451D01*
X76460408Y-39827147D01*
X76383699Y-39835236D01*
X76311446Y-39848717D01*
X76243650Y-39867590D01*
X76170187Y-39896425D01*
X76160188Y-39901143D01*
X76098376Y-39937114D01*
X76051746Y-39978133D01*
X76020297Y-40024201D01*
X76004031Y-40075319D01*
X76001552Y-40106796D01*
X76008536Y-40158331D01*
X76029487Y-40205714D01*
X76064407Y-40248945D01*
X76113293Y-40288024D01*
X76174728Y-40320936D01*
X76246925Y-40345909D01*
X76318925Y-40361250D01*
X76399165Y-40370513D01*
X76423604Y-40372043D01*
G37*
G36*
X84394288Y-41378066D02*
G01*
X84347393Y-41268157D01*
X84269335Y-41280865D01*
X84197735Y-41296245D01*
X84120339Y-41318227D01*
X84052242Y-41344055D01*
X83993445Y-41373731D01*
X83959413Y-41395652D01*
X83909592Y-41437307D01*
X83872008Y-41482773D01*
X83846661Y-41532049D01*
X83833550Y-41585134D01*
X83831552Y-41617180D01*
X83836750Y-41672486D01*
X83852343Y-41723609D01*
X83878332Y-41770549D01*
X83914717Y-41813307D01*
X83962573Y-41852141D01*
X84022978Y-41887312D01*
X84086125Y-41915082D01*
X84158879Y-41940046D01*
X84181430Y-41946663D01*
X84252729Y-41964260D01*
X84328691Y-41978216D01*
X84409316Y-41988532D01*
X84494603Y-41995207D01*
X84569237Y-41997988D01*
X84615572Y-41998443D01*
X84690886Y-41997179D01*
X84776375Y-41992324D01*
X84856531Y-41983829D01*
X84931355Y-41971693D01*
X85000847Y-41955917D01*
X85033593Y-41946663D01*
X85104432Y-41922162D01*
X85167240Y-41894177D01*
X85229190Y-41857930D01*
X85280653Y-41817134D01*
X85291880Y-41806224D01*
X85330028Y-41760596D01*
X85357276Y-41712373D01*
X85373625Y-41661556D01*
X85379075Y-41608143D01*
X85373658Y-41557503D01*
X85354200Y-41503579D01*
X85320592Y-41453868D01*
X85272833Y-41408370D01*
X85265868Y-41402979D01*
X85211274Y-41367831D01*
X85146547Y-41337616D01*
X85071686Y-41312333D01*
X84999455Y-41294587D01*
X84933576Y-41282567D01*
X84886681Y-41389790D01*
X84963618Y-41405257D01*
X85045363Y-41429454D01*
X85111079Y-41459053D01*
X85168782Y-41501703D01*
X85203403Y-41552132D01*
X85214944Y-41610341D01*
X85208754Y-41659791D01*
X85187648Y-41709226D01*
X85151563Y-41753467D01*
X85099633Y-41792086D01*
X85037924Y-41822234D01*
X84970577Y-41845330D01*
X84954092Y-41849943D01*
X84882789Y-41865651D01*
X84802601Y-41876871D01*
X84725148Y-41883007D01*
X84640894Y-41885707D01*
X84615572Y-41885847D01*
X84540507Y-41884710D01*
X84453487Y-41880090D01*
X84374033Y-41871916D01*
X84302147Y-41860188D01*
X84225871Y-41841423D01*
X84160493Y-41817540D01*
X84150655Y-41813063D01*
X84090271Y-41778905D01*
X84044718Y-41740120D01*
X84010817Y-41690126D01*
X83997045Y-41641423D01*
X83995683Y-41619134D01*
X84005343Y-41565777D01*
X84034323Y-41517143D01*
X84082623Y-41473232D01*
X84094602Y-41465016D01*
X84158300Y-41431872D01*
X84228447Y-41408119D01*
X84300269Y-41391744D01*
X84381839Y-41379482D01*
X84394288Y-41378066D01*
G37*
G36*
X83855000Y-41138952D02*
G01*
X85355628Y-41138952D01*
X85355628Y-40974821D01*
X84293171Y-40778938D01*
X84071154Y-40739859D01*
X84143815Y-40726922D01*
X84220501Y-40712888D01*
X84292411Y-40699531D01*
X84311856Y-40695896D01*
X85355628Y-40498059D01*
X85355628Y-40351025D01*
X83855000Y-40351025D01*
X83855000Y-40456294D01*
X85131046Y-40456294D01*
X83855000Y-40696628D01*
X83855000Y-40794814D01*
X85161454Y-41033928D01*
X83855000Y-41033928D01*
X83855000Y-41138952D01*
G37*
G36*
X84637984Y-39499221D02*
G01*
X84720809Y-39501444D01*
X84798479Y-39506494D01*
X84880934Y-39515730D01*
X84956657Y-39528659D01*
X84992148Y-39536414D01*
X85066311Y-39556541D01*
X85132592Y-39580378D01*
X85196992Y-39611213D01*
X85250730Y-39646070D01*
X85296453Y-39688766D01*
X85328150Y-39736021D01*
X85331478Y-39743090D01*
X85346934Y-39793877D01*
X85353910Y-39847167D01*
X85355628Y-39896977D01*
X85355628Y-40182009D01*
X83855000Y-40182009D01*
X83855000Y-39896733D01*
X84042578Y-39896733D01*
X84042578Y-40072588D01*
X85168049Y-40072588D01*
X85168049Y-39899420D01*
X85166647Y-39860105D01*
X85158775Y-39808290D01*
X85138740Y-39759957D01*
X85133048Y-39751898D01*
X85089824Y-39710882D01*
X85033023Y-39678453D01*
X84967648Y-39653223D01*
X84925233Y-39641261D01*
X84847621Y-39626340D01*
X84769868Y-39617541D01*
X84695911Y-39613161D01*
X84615205Y-39611702D01*
X84563920Y-39612312D01*
X84490448Y-39615518D01*
X84409973Y-39622731D01*
X84335143Y-39633684D01*
X84256535Y-39650781D01*
X84204145Y-39667145D01*
X84139985Y-39697645D01*
X84093136Y-39735289D01*
X84081287Y-39749833D01*
X84056847Y-39798132D01*
X84045738Y-39846709D01*
X84042578Y-39896733D01*
X83855000Y-39896733D01*
X83855000Y-39883788D01*
X83858541Y-39830537D01*
X83871260Y-39775346D01*
X83893231Y-39726200D01*
X83929005Y-39678136D01*
X83933754Y-39673248D01*
X83985577Y-39631773D01*
X84045363Y-39598701D01*
X84108270Y-39572693D01*
X84181064Y-39549420D01*
X84226688Y-39537627D01*
X84299631Y-39522887D01*
X84377984Y-39511684D01*
X84461747Y-39504019D01*
X84535682Y-39500334D01*
X84613374Y-39499106D01*
X84637984Y-39499221D01*
G37*
D12*
X211328898Y-35607219D02*
X211662231Y-35131028D01*
X211900326Y-35607219D02*
X211900326Y-34607219D01*
X211900326Y-34607219D02*
X211519374Y-34607219D01*
X211519374Y-34607219D02*
X211424136Y-34654838D01*
X211424136Y-34654838D02*
X211376517Y-34702457D01*
X211376517Y-34702457D02*
X211328898Y-34797695D01*
X211328898Y-34797695D02*
X211328898Y-34940552D01*
X211328898Y-34940552D02*
X211376517Y-35035790D01*
X211376517Y-35035790D02*
X211424136Y-35083409D01*
X211424136Y-35083409D02*
X211519374Y-35131028D01*
X211519374Y-35131028D02*
X211900326Y-35131028D01*
X210900326Y-35083409D02*
X210566993Y-35083409D01*
X210424136Y-35607219D02*
X210900326Y-35607219D01*
X210900326Y-35607219D02*
X210900326Y-34607219D01*
X210900326Y-34607219D02*
X210424136Y-34607219D01*
X210043183Y-35559600D02*
X209900326Y-35607219D01*
X209900326Y-35607219D02*
X209662231Y-35607219D01*
X209662231Y-35607219D02*
X209566993Y-35559600D01*
X209566993Y-35559600D02*
X209519374Y-35511980D01*
X209519374Y-35511980D02*
X209471755Y-35416742D01*
X209471755Y-35416742D02*
X209471755Y-35321504D01*
X209471755Y-35321504D02*
X209519374Y-35226266D01*
X209519374Y-35226266D02*
X209566993Y-35178647D01*
X209566993Y-35178647D02*
X209662231Y-35131028D01*
X209662231Y-35131028D02*
X209852707Y-35083409D01*
X209852707Y-35083409D02*
X209947945Y-35035790D01*
X209947945Y-35035790D02*
X209995564Y-34988171D01*
X209995564Y-34988171D02*
X210043183Y-34892933D01*
X210043183Y-34892933D02*
X210043183Y-34797695D01*
X210043183Y-34797695D02*
X209995564Y-34702457D01*
X209995564Y-34702457D02*
X209947945Y-34654838D01*
X209947945Y-34654838D02*
X209852707Y-34607219D01*
X209852707Y-34607219D02*
X209614612Y-34607219D01*
X209614612Y-34607219D02*
X209471755Y-34654838D01*
X209043183Y-35083409D02*
X208709850Y-35083409D01*
X208566993Y-35607219D02*
X209043183Y-35607219D01*
X209043183Y-35607219D02*
X209043183Y-34607219D01*
X209043183Y-34607219D02*
X208566993Y-34607219D01*
X208281278Y-34607219D02*
X207709850Y-34607219D01*
X207995564Y-35607219D02*
X207995564Y-34607219D01*
D10*
G36*
X71707984Y-44035232D02*
G01*
X71790809Y-44037899D01*
X71868479Y-44043960D01*
X71950934Y-44055042D01*
X72026657Y-44070558D01*
X72062148Y-44079863D01*
X72136311Y-44104016D01*
X72202592Y-44132620D01*
X72266992Y-44169622D01*
X72320730Y-44211451D01*
X72366453Y-44262686D01*
X72398150Y-44319392D01*
X72401478Y-44327875D01*
X72416934Y-44388819D01*
X72423910Y-44452767D01*
X72425628Y-44512539D01*
X72425628Y-44854577D01*
X70925000Y-44854577D01*
X70925000Y-44512246D01*
X71112578Y-44512246D01*
X71112578Y-44723272D01*
X72238049Y-44723272D01*
X72238049Y-44515470D01*
X72236647Y-44468293D01*
X72228775Y-44406114D01*
X72208740Y-44348115D01*
X72203048Y-44338444D01*
X72159824Y-44289225D01*
X72103023Y-44250310D01*
X72037648Y-44220034D01*
X71995233Y-44205680D01*
X71917621Y-44187774D01*
X71839868Y-44177215D01*
X71765911Y-44171960D01*
X71685205Y-44170209D01*
X71633920Y-44170941D01*
X71560448Y-44174788D01*
X71479973Y-44183444D01*
X71405143Y-44196587D01*
X71326535Y-44217103D01*
X71274145Y-44236740D01*
X71209985Y-44273340D01*
X71163136Y-44318513D01*
X71151287Y-44335966D01*
X71126847Y-44393925D01*
X71115738Y-44452218D01*
X71112578Y-44512246D01*
X70925000Y-44512246D01*
X70925000Y-44496713D01*
X70928541Y-44432811D01*
X70941260Y-44366582D01*
X70963231Y-44307606D01*
X70999005Y-44249930D01*
X71003754Y-44244065D01*
X71055577Y-44194294D01*
X71115363Y-44154607D01*
X71178270Y-44123398D01*
X71251064Y-44095470D01*
X71296688Y-44081320D01*
X71369631Y-44063631D01*
X71447984Y-44050188D01*
X71531747Y-44040990D01*
X71605682Y-44036568D01*
X71683374Y-44035094D01*
X71707984Y-44035232D01*
G37*
G36*
X71464288Y-43153768D02*
G01*
X71417393Y-43021877D01*
X71339335Y-43037126D01*
X71267735Y-43055582D01*
X71190339Y-43081960D01*
X71122242Y-43112955D01*
X71063445Y-43148565D01*
X71029413Y-43174870D01*
X70979592Y-43224857D01*
X70942008Y-43279416D01*
X70916661Y-43338547D01*
X70903550Y-43402250D01*
X70901552Y-43440704D01*
X70906750Y-43507071D01*
X70922343Y-43568419D01*
X70948332Y-43624747D01*
X70984717Y-43676057D01*
X71032573Y-43722658D01*
X71092978Y-43764863D01*
X71156125Y-43798186D01*
X71228879Y-43828144D01*
X71251430Y-43836084D01*
X71322729Y-43857201D01*
X71398691Y-43873948D01*
X71479316Y-43886327D01*
X71564603Y-43894336D01*
X71639237Y-43897674D01*
X71685572Y-43898220D01*
X71760886Y-43896703D01*
X71846375Y-43890878D01*
X71926531Y-43880684D01*
X72001355Y-43866121D01*
X72070847Y-43847189D01*
X72103593Y-43836084D01*
X72174432Y-43806682D01*
X72237240Y-43773101D01*
X72299190Y-43729604D01*
X72350653Y-43680649D01*
X72361880Y-43667557D01*
X72400028Y-43612804D01*
X72427276Y-43554937D01*
X72443625Y-43493955D01*
X72449075Y-43429860D01*
X72443658Y-43369092D01*
X72424200Y-43304383D01*
X72390592Y-43244730D01*
X72342833Y-43190132D01*
X72335868Y-43183663D01*
X72281274Y-43141486D01*
X72216547Y-43105228D01*
X72141686Y-43074888D01*
X72069455Y-43053593D01*
X72003576Y-43039169D01*
X71956681Y-43167836D01*
X72033618Y-43186397D01*
X72115363Y-43215433D01*
X72181079Y-43250951D01*
X72238782Y-43302131D01*
X72273403Y-43362647D01*
X72284944Y-43432498D01*
X72278754Y-43491837D01*
X72257648Y-43551160D01*
X72221563Y-43604249D01*
X72169633Y-43650591D01*
X72107924Y-43686770D01*
X72040577Y-43714485D01*
X72024092Y-43720020D01*
X71952789Y-43738870D01*
X71872601Y-43752334D01*
X71795148Y-43759697D01*
X71710894Y-43762936D01*
X71685572Y-43763105D01*
X71610507Y-43761740D01*
X71523487Y-43756196D01*
X71444033Y-43746387D01*
X71372147Y-43732314D01*
X71295871Y-43709796D01*
X71230493Y-43681137D01*
X71220655Y-43675763D01*
X71160271Y-43634775D01*
X71114718Y-43588232D01*
X71080817Y-43528240D01*
X71067045Y-43469796D01*
X71065683Y-43443049D01*
X71075343Y-43379021D01*
X71104323Y-43320660D01*
X71152623Y-43267967D01*
X71164602Y-43258108D01*
X71228300Y-43218335D01*
X71298447Y-43189832D01*
X71370269Y-43170181D01*
X71451839Y-43155467D01*
X71464288Y-43153768D01*
G37*
D11*
X254198458Y-43899819D02*
X253579411Y-43899819D01*
X253579411Y-43899819D02*
X253912744Y-44280771D01*
X253912744Y-44280771D02*
X253769887Y-44280771D01*
X253769887Y-44280771D02*
X253674649Y-44328390D01*
X253674649Y-44328390D02*
X253627030Y-44376009D01*
X253627030Y-44376009D02*
X253579411Y-44471247D01*
X253579411Y-44471247D02*
X253579411Y-44709342D01*
X253579411Y-44709342D02*
X253627030Y-44804580D01*
X253627030Y-44804580D02*
X253674649Y-44852200D01*
X253674649Y-44852200D02*
X253769887Y-44899819D01*
X253769887Y-44899819D02*
X254055601Y-44899819D01*
X254055601Y-44899819D02*
X254150839Y-44852200D01*
X254150839Y-44852200D02*
X254198458Y-44804580D01*
X253293696Y-43899819D02*
X252960363Y-44899819D01*
X252960363Y-44899819D02*
X252627030Y-43899819D01*
X252388934Y-43899819D02*
X251769887Y-43899819D01*
X251769887Y-43899819D02*
X252103220Y-44280771D01*
X252103220Y-44280771D02*
X251960363Y-44280771D01*
X251960363Y-44280771D02*
X251865125Y-44328390D01*
X251865125Y-44328390D02*
X251817506Y-44376009D01*
X251817506Y-44376009D02*
X251769887Y-44471247D01*
X251769887Y-44471247D02*
X251769887Y-44709342D01*
X251769887Y-44709342D02*
X251817506Y-44804580D01*
X251817506Y-44804580D02*
X251865125Y-44852200D01*
X251865125Y-44852200D02*
X251960363Y-44899819D01*
X251960363Y-44899819D02*
X252246077Y-44899819D01*
X252246077Y-44899819D02*
X252341315Y-44852200D01*
X252341315Y-44852200D02*
X252388934Y-44804580D01*
D10*
G36*
X78635000Y-44689496D02*
G01*
X80135628Y-44689496D01*
X80135628Y-44580320D01*
X78635000Y-44580320D01*
X78635000Y-44689496D01*
G37*
G36*
X79398895Y-43632709D02*
G01*
X79486428Y-43635170D01*
X79569246Y-43641324D01*
X79647350Y-43651170D01*
X79720740Y-43664708D01*
X79800404Y-43685170D01*
X79821968Y-43691881D01*
X79892303Y-43717683D01*
X79954644Y-43747085D01*
X80016101Y-43785095D01*
X80067117Y-43827807D01*
X80107349Y-43873954D01*
X80136086Y-43922513D01*
X80153328Y-43973483D01*
X80159075Y-44026865D01*
X80158272Y-44047775D01*
X80149240Y-44098145D01*
X80130172Y-44145796D01*
X80101069Y-44190728D01*
X80061930Y-44232941D01*
X80012755Y-44272435D01*
X79953545Y-44309210D01*
X79927162Y-44322934D01*
X79855157Y-44353368D01*
X79774513Y-44378270D01*
X79703776Y-44394207D01*
X79627509Y-44406602D01*
X79545712Y-44415456D01*
X79458386Y-44420768D01*
X79365530Y-44422539D01*
X79328003Y-44422145D01*
X79237217Y-44417712D01*
X79150760Y-44408354D01*
X79068632Y-44394070D01*
X78990834Y-44374861D01*
X78917364Y-44350726D01*
X78848224Y-44321666D01*
X78819564Y-44307466D01*
X78756005Y-44269527D01*
X78704002Y-44228106D01*
X78663555Y-44183203D01*
X78634665Y-44134817D01*
X78617330Y-44082949D01*
X78611629Y-44028331D01*
X78775683Y-44028331D01*
X78777036Y-44050047D01*
X78790710Y-44098298D01*
X78824370Y-44149291D01*
X78869600Y-44190279D01*
X78929556Y-44227877D01*
X78980701Y-44251519D01*
X79050150Y-44274600D01*
X79128408Y-44291911D01*
X79200354Y-44301929D01*
X79278417Y-44307939D01*
X79362599Y-44309943D01*
X79382652Y-44309865D01*
X79459560Y-44307993D01*
X79548257Y-44302143D01*
X79628689Y-44292394D01*
X79700856Y-44278745D01*
X79776548Y-44257218D01*
X79840338Y-44230075D01*
X79876574Y-44209364D01*
X79928361Y-44169833D01*
X79965351Y-44126117D01*
X79987546Y-44078217D01*
X79994944Y-44026133D01*
X79988039Y-43979240D01*
X79964492Y-43930413D01*
X79924235Y-43884472D01*
X79915258Y-43876479D01*
X79864833Y-43840348D01*
X79805177Y-43810609D01*
X79736290Y-43787263D01*
X79697353Y-43777417D01*
X79626071Y-43763345D01*
X79550793Y-43753294D01*
X79471517Y-43747264D01*
X79388244Y-43745253D01*
X79315143Y-43746528D01*
X79230175Y-43751706D01*
X79152326Y-43760868D01*
X79068305Y-43777119D01*
X78994537Y-43799107D01*
X78931022Y-43826830D01*
X78894614Y-43847770D01*
X78842582Y-43887336D01*
X78805416Y-43930617D01*
X78783117Y-43977616D01*
X78775683Y-44028331D01*
X78611629Y-44028331D01*
X78611552Y-44027598D01*
X78612452Y-44005215D01*
X78622579Y-43951618D01*
X78643958Y-43901397D01*
X78676589Y-43854551D01*
X78720473Y-43811080D01*
X78775608Y-43770984D01*
X78841995Y-43734262D01*
X78910383Y-43704991D01*
X78984799Y-43680682D01*
X79065243Y-43661333D01*
X79151716Y-43646946D01*
X79225235Y-43639008D01*
X79302613Y-43634245D01*
X79383848Y-43632657D01*
X79398895Y-43632709D01*
G37*
G36*
X79174288Y-43115351D02*
G01*
X80159075Y-43115351D01*
X80159075Y-43197661D01*
X79174288Y-43575016D01*
X79010157Y-43575016D01*
X79010157Y-43475365D01*
X79174288Y-43475365D01*
X79859389Y-43216956D01*
X79174288Y-43216956D01*
X79174288Y-43475365D01*
X79010157Y-43475365D01*
X79010157Y-43216956D01*
X78635000Y-43216956D01*
X78635000Y-43115351D01*
X79010157Y-43115351D01*
X79010157Y-43003488D01*
X79174288Y-43003488D01*
X79174288Y-43115351D01*
G37*
G36*
X76337393Y-45414103D02*
G01*
X76360840Y-45311032D01*
X76282602Y-45303814D01*
X76209928Y-45291192D01*
X76151280Y-45273663D01*
X76091494Y-45243249D01*
X76042928Y-45203298D01*
X76031113Y-45190132D01*
X76001699Y-45143819D01*
X75987280Y-45092992D01*
X75985683Y-45068010D01*
X75991392Y-45016533D01*
X76011127Y-44967494D01*
X76049117Y-44923468D01*
X76057857Y-44916580D01*
X76118067Y-44883687D01*
X76190435Y-44865976D01*
X76245436Y-44862602D01*
X76319416Y-44869491D01*
X76363039Y-44882142D01*
X76419081Y-44914389D01*
X76445837Y-44941248D01*
X76476446Y-44988513D01*
X76502808Y-45038945D01*
X76526237Y-45088187D01*
X76537062Y-45111974D01*
X76559965Y-45159837D01*
X76586097Y-45206667D01*
X76618698Y-45253398D01*
X76641475Y-45278304D01*
X76692646Y-45317313D01*
X76754476Y-45348000D01*
X76774099Y-45355240D01*
X76842796Y-45372951D01*
X76918507Y-45381633D01*
X76955816Y-45382595D01*
X77032287Y-45378820D01*
X77111868Y-45365261D01*
X77183114Y-45341840D01*
X77246026Y-45308558D01*
X77253304Y-45303705D01*
X77303954Y-45260718D01*
X77340132Y-45210892D01*
X77359917Y-45161685D01*
X77368623Y-45107242D01*
X77369075Y-45090725D01*
X77364815Y-45040746D01*
X77350089Y-44989474D01*
X77324844Y-44942687D01*
X77315219Y-44929525D01*
X77272652Y-44885670D01*
X77219003Y-44849145D01*
X77160614Y-44822302D01*
X77087149Y-44800292D01*
X77013074Y-44787545D01*
X76932059Y-44781716D01*
X76923576Y-44781514D01*
X76900129Y-44886538D01*
X76980954Y-44894551D01*
X77055872Y-44911295D01*
X77120183Y-44939246D01*
X77129839Y-44945401D01*
X77175606Y-44988941D01*
X77199003Y-45039051D01*
X77204944Y-45087306D01*
X77198325Y-45140891D01*
X77175754Y-45189973D01*
X77137166Y-45228722D01*
X77075567Y-45260350D01*
X77000907Y-45275853D01*
X76962044Y-45277571D01*
X76888454Y-45271686D01*
X76821875Y-45250269D01*
X76807438Y-45241911D01*
X76763695Y-45198027D01*
X76734473Y-45150407D01*
X76712347Y-45103619D01*
X76703025Y-45080955D01*
X76682338Y-45030998D01*
X76660242Y-44982405D01*
X76634940Y-44934416D01*
X76618761Y-44909253D01*
X76580557Y-44865709D01*
X76530682Y-44826185D01*
X76472581Y-44795435D01*
X76406464Y-44773465D01*
X76332035Y-44760614D01*
X76257159Y-44756845D01*
X76181489Y-44760804D01*
X76110184Y-44772683D01*
X76036790Y-44794895D01*
X76030380Y-44797389D01*
X75965864Y-44828727D01*
X75912864Y-44866991D01*
X75874675Y-44907787D01*
X75846661Y-44954084D01*
X75829023Y-45005961D01*
X75822019Y-45057423D01*
X75821552Y-45075582D01*
X75826434Y-45130829D01*
X75841078Y-45181713D01*
X75865486Y-45228236D01*
X75906301Y-45276999D01*
X75960404Y-45319825D01*
X76026028Y-45355391D01*
X76101084Y-45382589D01*
X76172924Y-45399242D01*
X76251694Y-45409746D01*
X76337393Y-45414103D01*
G37*
G36*
X76384288Y-44026070D02*
G01*
X76337393Y-43916161D01*
X76259335Y-43928869D01*
X76187735Y-43944249D01*
X76110339Y-43966231D01*
X76042242Y-43992060D01*
X75983445Y-44021735D01*
X75949413Y-44043656D01*
X75899592Y-44085311D01*
X75862008Y-44130777D01*
X75836661Y-44180053D01*
X75823550Y-44233139D01*
X75821552Y-44265184D01*
X75826750Y-44320490D01*
X75842343Y-44371613D01*
X75868332Y-44418553D01*
X75904717Y-44461311D01*
X75952573Y-44500146D01*
X76012978Y-44535317D01*
X76076125Y-44563086D01*
X76148879Y-44588050D01*
X76171430Y-44594668D01*
X76242729Y-44612265D01*
X76318691Y-44626221D01*
X76399316Y-44636536D01*
X76484603Y-44643211D01*
X76559237Y-44645992D01*
X76605572Y-44646447D01*
X76680886Y-44645183D01*
X76766375Y-44640329D01*
X76846531Y-44631834D01*
X76921355Y-44619698D01*
X76990847Y-44603921D01*
X77023593Y-44594668D01*
X77094432Y-44570166D01*
X77157240Y-44542181D01*
X77219190Y-44505934D01*
X77270653Y-44465138D01*
X77281880Y-44454228D01*
X77320028Y-44408601D01*
X77347276Y-44360378D01*
X77363625Y-44309560D01*
X77369075Y-44256147D01*
X77363658Y-44205507D01*
X77344200Y-44151583D01*
X77310592Y-44101872D01*
X77262833Y-44056374D01*
X77255868Y-44050983D01*
X77201274Y-44015836D01*
X77136547Y-43985621D01*
X77061686Y-43960337D01*
X76989455Y-43942592D01*
X76923576Y-43930571D01*
X76876681Y-44037794D01*
X76953618Y-44053262D01*
X77035363Y-44077458D01*
X77101079Y-44107057D01*
X77158782Y-44149707D01*
X77193403Y-44200136D01*
X77204944Y-44258345D01*
X77198754Y-44307795D01*
X77177648Y-44357231D01*
X77141563Y-44401472D01*
X77089633Y-44440090D01*
X77027924Y-44470239D01*
X76960577Y-44493335D01*
X76944092Y-44497948D01*
X76872789Y-44513655D01*
X76792601Y-44524875D01*
X76715148Y-44531011D01*
X76630894Y-44533711D01*
X76605572Y-44533851D01*
X76530507Y-44532714D01*
X76443487Y-44528094D01*
X76364033Y-44519920D01*
X76292147Y-44508192D01*
X76215871Y-44489427D01*
X76150493Y-44465545D01*
X76140655Y-44461067D01*
X76080271Y-44426910D01*
X76034718Y-44388124D01*
X76000817Y-44338131D01*
X75987045Y-44289428D01*
X75985683Y-44267138D01*
X75995343Y-44213782D01*
X76024323Y-44165148D01*
X76072623Y-44121236D01*
X76084602Y-44113021D01*
X76148300Y-44079876D01*
X76218447Y-44056124D01*
X76290269Y-44039748D01*
X76371839Y-44027486D01*
X76384288Y-44026070D01*
G37*
G36*
X75845000Y-43790376D02*
G01*
X77345628Y-43790376D01*
X77345628Y-43681200D01*
X76032578Y-43681200D01*
X76032578Y-43274535D01*
X75845000Y-43274535D01*
X75845000Y-43790376D01*
G37*
G36*
X75845000Y-43149727D02*
G01*
X77345628Y-43149727D01*
X77345628Y-43040551D01*
X76608136Y-43040551D01*
X77345628Y-42630467D01*
X77345628Y-42481967D01*
X76736730Y-42829036D01*
X75845000Y-42467068D01*
X75845000Y-42611172D01*
X76597512Y-42905240D01*
X76364870Y-43040551D01*
X75845000Y-43040551D01*
X75845000Y-43149727D01*
G37*
G36*
X84477984Y-44509598D02*
G01*
X84560809Y-44511820D01*
X84638479Y-44516871D01*
X84720934Y-44526106D01*
X84796657Y-44539036D01*
X84832148Y-44546791D01*
X84906311Y-44566918D01*
X84972592Y-44590754D01*
X85036992Y-44621590D01*
X85090730Y-44656447D01*
X85136453Y-44699143D01*
X85168150Y-44746398D01*
X85171478Y-44753467D01*
X85186934Y-44804254D01*
X85193910Y-44857544D01*
X85195628Y-44907354D01*
X85195628Y-45192386D01*
X83695000Y-45192386D01*
X83695000Y-44907110D01*
X83882578Y-44907110D01*
X83882578Y-45082965D01*
X85008049Y-45082965D01*
X85008049Y-44909797D01*
X85006647Y-44870482D01*
X84998775Y-44818666D01*
X84978740Y-44770334D01*
X84973048Y-44762275D01*
X84929824Y-44721258D01*
X84873023Y-44688830D01*
X84807648Y-44663600D01*
X84765233Y-44651638D01*
X84687621Y-44636716D01*
X84609868Y-44627917D01*
X84535911Y-44623538D01*
X84455205Y-44622078D01*
X84403920Y-44622689D01*
X84330448Y-44625895D01*
X84249973Y-44633108D01*
X84175143Y-44644060D01*
X84096535Y-44661157D01*
X84044145Y-44677522D01*
X83979985Y-44708021D01*
X83933136Y-44745665D01*
X83921287Y-44760209D01*
X83896847Y-44808509D01*
X83885738Y-44857086D01*
X83882578Y-44907110D01*
X83695000Y-44907110D01*
X83695000Y-44894165D01*
X83698541Y-44840914D01*
X83711260Y-44785723D01*
X83733231Y-44736576D01*
X83769005Y-44688513D01*
X83773754Y-44683625D01*
X83825577Y-44642149D01*
X83885363Y-44609077D01*
X83948270Y-44583070D01*
X84021064Y-44559797D01*
X84066688Y-44548004D01*
X84139631Y-44533264D01*
X84217984Y-44522061D01*
X84301747Y-44514396D01*
X84375682Y-44510711D01*
X84453374Y-44509483D01*
X84477984Y-44509598D01*
G37*
G36*
X85195628Y-44016845D02*
G01*
X85195628Y-44134326D01*
X83695000Y-44451841D01*
X83695000Y-44335582D01*
X84117051Y-44244968D01*
X84117051Y-44213460D01*
X84304630Y-44213460D01*
X84748297Y-44122846D01*
X84820058Y-44109245D01*
X84892095Y-44097262D01*
X84964406Y-44086897D01*
X85036992Y-44078150D01*
X85029388Y-44076969D01*
X84954574Y-44064473D01*
X84878439Y-44050544D01*
X84804383Y-44036176D01*
X84723384Y-44019776D01*
X84304630Y-43933802D01*
X84304630Y-44213460D01*
X84117051Y-44213460D01*
X84117051Y-43900097D01*
X83695000Y-43803865D01*
X83695000Y-43679057D01*
X85195628Y-44016845D01*
G37*
G36*
X83695000Y-43426510D02*
G01*
X85008049Y-43426510D01*
X85008049Y-43698596D01*
X85195628Y-43698596D01*
X85195628Y-43044025D01*
X85008049Y-43044025D01*
X85008049Y-43317333D01*
X83695000Y-43317333D01*
X83695000Y-43426510D01*
G37*
G36*
X83695000Y-42640048D02*
G01*
X83695000Y-42741653D01*
X84890812Y-42741653D01*
X84833511Y-42776842D01*
X84783502Y-42814371D01*
X84758189Y-42835686D01*
X84712267Y-42878677D01*
X84672984Y-42922227D01*
X84656339Y-42944374D01*
X84843918Y-42944374D01*
X84886596Y-42898796D01*
X84934258Y-42856310D01*
X84986905Y-42816914D01*
X85018307Y-42796363D01*
X85075810Y-42763244D01*
X85138750Y-42733516D01*
X85206827Y-42709409D01*
X85219075Y-42705993D01*
X85219075Y-42640048D01*
X83695000Y-42640048D01*
G37*
G36*
X65942920Y-44737497D02*
G01*
X66016002Y-44742269D01*
X66089045Y-44755320D01*
X66159476Y-44779099D01*
X66213379Y-44808031D01*
X66260192Y-44846744D01*
X66293932Y-44892672D01*
X66313612Y-44872940D01*
X66364030Y-44836196D01*
X66425090Y-44807675D01*
X66461798Y-44795875D01*
X66535085Y-44781648D01*
X66608639Y-44777389D01*
X66662380Y-44779588D01*
X66738440Y-44791128D01*
X66809040Y-44812560D01*
X66841425Y-44826362D01*
X66900015Y-44861096D01*
X66942763Y-44902442D01*
X66968884Y-44949153D01*
X66982237Y-45001627D01*
X66985628Y-45051430D01*
X66985628Y-45361130D01*
X65485000Y-45361130D01*
X65485000Y-45046545D01*
X65672578Y-45046545D01*
X65672578Y-45251953D01*
X66188419Y-45251953D01*
X66188419Y-45073412D01*
X66375997Y-45073412D01*
X66375997Y-45251953D01*
X66798049Y-45251953D01*
X66798049Y-45086357D01*
X66797584Y-45059616D01*
X66793286Y-45010275D01*
X66778998Y-44961793D01*
X66764050Y-44941452D01*
X66709755Y-44906105D01*
X66657409Y-44891029D01*
X66584459Y-44885100D01*
X66524236Y-44888890D01*
X66456231Y-44908059D01*
X66422543Y-44929978D01*
X66389187Y-44973761D01*
X66378174Y-45023149D01*
X66375997Y-45073412D01*
X66188419Y-45073412D01*
X66188419Y-45060955D01*
X66187995Y-45040588D01*
X66181641Y-44987866D01*
X66161308Y-44937124D01*
X66134020Y-44907676D01*
X66075212Y-44874354D01*
X66005486Y-44856058D01*
X65931598Y-44850906D01*
X65920180Y-44851002D01*
X65847151Y-44857013D01*
X65778457Y-44875331D01*
X65728928Y-44903112D01*
X65690896Y-44946405D01*
X65689769Y-44948455D01*
X65675601Y-44997262D01*
X65672578Y-45046545D01*
X65485000Y-45046545D01*
X65485415Y-45026484D01*
X65490584Y-44976998D01*
X65505353Y-44923341D01*
X65532260Y-44874842D01*
X65563337Y-44841661D01*
X65618746Y-44803611D01*
X65683569Y-44774947D01*
X65703440Y-44768225D01*
X65773907Y-44750594D01*
X65850887Y-44740309D01*
X65925736Y-44737334D01*
X65942920Y-44737497D01*
G37*
G36*
X66985628Y-44052965D02*
G01*
X66985628Y-43943056D01*
X66119909Y-43943056D01*
X66041045Y-43944060D01*
X65967667Y-43947074D01*
X65888995Y-43953130D01*
X65808229Y-43963400D01*
X65762704Y-43971632D01*
X65688824Y-43991278D01*
X65624218Y-44018344D01*
X65568885Y-44052828D01*
X65542152Y-44075191D01*
X65503190Y-44120733D01*
X65476980Y-44172727D01*
X65464386Y-44224362D01*
X65461552Y-44266433D01*
X65465094Y-44315562D01*
X65478695Y-44369212D01*
X65502498Y-44417074D01*
X65543160Y-44465598D01*
X65597707Y-44506245D01*
X65606632Y-44511409D01*
X65668881Y-44539049D01*
X65746818Y-44560971D01*
X65823749Y-44574871D01*
X65911575Y-44584799D01*
X65989679Y-44589882D01*
X66074756Y-44592424D01*
X66119909Y-44592742D01*
X66985628Y-44592742D01*
X66985628Y-44483565D01*
X66111482Y-44483565D01*
X66026855Y-44482548D01*
X65953131Y-44479498D01*
X65874367Y-44472588D01*
X65813628Y-44462316D01*
X65746169Y-44440577D01*
X65689748Y-44407157D01*
X65673677Y-44392707D01*
X65640869Y-44346204D01*
X65626855Y-44295907D01*
X65625683Y-44274738D01*
X65631889Y-44220378D01*
X65653704Y-44168822D01*
X65696366Y-44123456D01*
X65724968Y-44105477D01*
X65795682Y-44080093D01*
X65871239Y-44066093D01*
X65950318Y-44058093D01*
X66026312Y-44054247D01*
X66111482Y-44052965D01*
X66985628Y-44052965D01*
G37*
G36*
X65485000Y-43828262D02*
G01*
X65679539Y-43828262D01*
X66623293Y-43405233D01*
X66688407Y-43375239D01*
X66748239Y-43345706D01*
X66798049Y-43319260D01*
X66798049Y-43780879D01*
X66985628Y-43780879D01*
X66985628Y-43189322D01*
X66798049Y-43189322D01*
X65776259Y-43652407D01*
X65672578Y-43702477D01*
X65672578Y-43175645D01*
X65485000Y-43175645D01*
X65485000Y-43828262D01*
G37*
G36*
X65485000Y-43126796D02*
G01*
X65679539Y-43126796D01*
X66623293Y-42703768D01*
X66688407Y-42673773D01*
X66748239Y-42644241D01*
X66798049Y-42617794D01*
X66798049Y-43079413D01*
X66985628Y-43079413D01*
X66985628Y-42487857D01*
X66798049Y-42487857D01*
X65776259Y-42950941D01*
X65672578Y-43001011D01*
X65672578Y-42474179D01*
X65485000Y-42474179D01*
X65485000Y-43126796D01*
G37*
D12*
X241976993Y-35183409D02*
X241834136Y-35231028D01*
X241834136Y-35231028D02*
X241786517Y-35278647D01*
X241786517Y-35278647D02*
X241738898Y-35373885D01*
X241738898Y-35373885D02*
X241738898Y-35516742D01*
X241738898Y-35516742D02*
X241786517Y-35611980D01*
X241786517Y-35611980D02*
X241834136Y-35659600D01*
X241834136Y-35659600D02*
X241929374Y-35707219D01*
X241929374Y-35707219D02*
X242310326Y-35707219D01*
X242310326Y-35707219D02*
X242310326Y-34707219D01*
X242310326Y-34707219D02*
X241976993Y-34707219D01*
X241976993Y-34707219D02*
X241881755Y-34754838D01*
X241881755Y-34754838D02*
X241834136Y-34802457D01*
X241834136Y-34802457D02*
X241786517Y-34897695D01*
X241786517Y-34897695D02*
X241786517Y-34992933D01*
X241786517Y-34992933D02*
X241834136Y-35088171D01*
X241834136Y-35088171D02*
X241881755Y-35135790D01*
X241881755Y-35135790D02*
X241976993Y-35183409D01*
X241976993Y-35183409D02*
X242310326Y-35183409D01*
X241119850Y-34707219D02*
X240929374Y-34707219D01*
X240929374Y-34707219D02*
X240834136Y-34754838D01*
X240834136Y-34754838D02*
X240738898Y-34850076D01*
X240738898Y-34850076D02*
X240691279Y-35040552D01*
X240691279Y-35040552D02*
X240691279Y-35373885D01*
X240691279Y-35373885D02*
X240738898Y-35564361D01*
X240738898Y-35564361D02*
X240834136Y-35659600D01*
X240834136Y-35659600D02*
X240929374Y-35707219D01*
X240929374Y-35707219D02*
X241119850Y-35707219D01*
X241119850Y-35707219D02*
X241215088Y-35659600D01*
X241215088Y-35659600D02*
X241310326Y-35564361D01*
X241310326Y-35564361D02*
X241357945Y-35373885D01*
X241357945Y-35373885D02*
X241357945Y-35040552D01*
X241357945Y-35040552D02*
X241310326Y-34850076D01*
X241310326Y-34850076D02*
X241215088Y-34754838D01*
X241215088Y-34754838D02*
X241119850Y-34707219D01*
X240072231Y-34707219D02*
X239881755Y-34707219D01*
X239881755Y-34707219D02*
X239786517Y-34754838D01*
X239786517Y-34754838D02*
X239691279Y-34850076D01*
X239691279Y-34850076D02*
X239643660Y-35040552D01*
X239643660Y-35040552D02*
X239643660Y-35373885D01*
X239643660Y-35373885D02*
X239691279Y-35564361D01*
X239691279Y-35564361D02*
X239786517Y-35659600D01*
X239786517Y-35659600D02*
X239881755Y-35707219D01*
X239881755Y-35707219D02*
X240072231Y-35707219D01*
X240072231Y-35707219D02*
X240167469Y-35659600D01*
X240167469Y-35659600D02*
X240262707Y-35564361D01*
X240262707Y-35564361D02*
X240310326Y-35373885D01*
X240310326Y-35373885D02*
X240310326Y-35040552D01*
X240310326Y-35040552D02*
X240262707Y-34850076D01*
X240262707Y-34850076D02*
X240167469Y-34754838D01*
X240167469Y-34754838D02*
X240072231Y-34707219D01*
X239357945Y-34707219D02*
X238786517Y-34707219D01*
X239072231Y-35707219D02*
X239072231Y-34707219D01*
D10*
G36*
X86941182Y-41541667D02*
G01*
X87128761Y-41541667D01*
X87128761Y-41192155D01*
X86552470Y-41192155D01*
X86500904Y-41232685D01*
X86456116Y-41273916D01*
X86418106Y-41315849D01*
X86386873Y-41358485D01*
X86360131Y-41407094D01*
X86342141Y-41456476D01*
X86332903Y-41506631D01*
X86331552Y-41534828D01*
X86335847Y-41586471D01*
X86348733Y-41635614D01*
X86373977Y-41688714D01*
X86410442Y-41738547D01*
X86421311Y-41750495D01*
X86464543Y-41790073D01*
X86515699Y-41825888D01*
X86574779Y-41857940D01*
X86641783Y-41886229D01*
X86683628Y-41900704D01*
X86762453Y-41922212D01*
X86835320Y-41936443D01*
X86913080Y-41946793D01*
X86995736Y-41953262D01*
X87083285Y-41955849D01*
X87098353Y-41955903D01*
X87173293Y-41954543D01*
X87259159Y-41949323D01*
X87340595Y-41940186D01*
X87417600Y-41927135D01*
X87490175Y-41910167D01*
X87524801Y-41900216D01*
X87599726Y-41874216D01*
X87665500Y-41844944D01*
X87722123Y-41812400D01*
X87775630Y-41771199D01*
X87792613Y-41754647D01*
X87830440Y-41707630D01*
X87857459Y-41656461D01*
X87872236Y-41608282D01*
X87878737Y-41556925D01*
X87879075Y-41541667D01*
X87875105Y-41492493D01*
X87861380Y-41442071D01*
X87834961Y-41391730D01*
X87828883Y-41383153D01*
X87789398Y-41339162D01*
X87739955Y-41300885D01*
X87686367Y-41271046D01*
X87622168Y-41245715D01*
X87552886Y-41226588D01*
X87482155Y-41212506D01*
X87433576Y-41205100D01*
X87386681Y-41303530D01*
X87460527Y-41317049D01*
X87532517Y-41335917D01*
X87578656Y-41353844D01*
X87635534Y-41388771D01*
X87676380Y-41430388D01*
X87678674Y-41433467D01*
X87704707Y-41482458D01*
X87714625Y-41533121D01*
X87714944Y-41544598D01*
X87708504Y-41598341D01*
X87689184Y-41647218D01*
X87656984Y-41691229D01*
X87648998Y-41699448D01*
X87600627Y-41737573D01*
X87537944Y-41770736D01*
X87469294Y-41796342D01*
X87443834Y-41803984D01*
X87370584Y-41821188D01*
X87289686Y-41833476D01*
X87212627Y-41840196D01*
X87129713Y-41843153D01*
X87104947Y-41843307D01*
X87031045Y-41841986D01*
X86945396Y-41836622D01*
X86867225Y-41827132D01*
X86796532Y-41813515D01*
X86721571Y-41791727D01*
X86657377Y-41763998D01*
X86647725Y-41758799D01*
X86588482Y-41719396D01*
X86543790Y-41675130D01*
X86513649Y-41626003D01*
X86498059Y-41572014D01*
X86495683Y-41538980D01*
X86502329Y-41490174D01*
X86522268Y-41440474D01*
X86542944Y-41406845D01*
X86577514Y-41363622D01*
X86623728Y-41321024D01*
X86655052Y-41299378D01*
X86941182Y-41299378D01*
X86941182Y-41541667D01*
G37*
G36*
X86355000Y-41040969D02*
G01*
X87855628Y-41040969D01*
X87855628Y-40929106D01*
X86668241Y-40494842D01*
X87855628Y-40494842D01*
X87855628Y-40390550D01*
X86355000Y-40390550D01*
X86355000Y-40502414D01*
X87540554Y-40935945D01*
X86355000Y-40935945D01*
X86355000Y-41040969D01*
G37*
G36*
X87137984Y-39529221D02*
G01*
X87220809Y-39531444D01*
X87298479Y-39536494D01*
X87380934Y-39545730D01*
X87456657Y-39558659D01*
X87492148Y-39566414D01*
X87566311Y-39586541D01*
X87632592Y-39610378D01*
X87696992Y-39641213D01*
X87750730Y-39676070D01*
X87796453Y-39718766D01*
X87828150Y-39766022D01*
X87831478Y-39773090D01*
X87846934Y-39823877D01*
X87853910Y-39877167D01*
X87855628Y-39926978D01*
X87855628Y-40212009D01*
X86355000Y-40212009D01*
X86355000Y-39926733D01*
X86542578Y-39926733D01*
X86542578Y-40102588D01*
X87668049Y-40102588D01*
X87668049Y-39929420D01*
X87666647Y-39890105D01*
X87658775Y-39838290D01*
X87638740Y-39789957D01*
X87633048Y-39781898D01*
X87589824Y-39740882D01*
X87533023Y-39708453D01*
X87467648Y-39683223D01*
X87425233Y-39671261D01*
X87347621Y-39656340D01*
X87269868Y-39647541D01*
X87195911Y-39643162D01*
X87115205Y-39641702D01*
X87063920Y-39642313D01*
X86990448Y-39645518D01*
X86909973Y-39652731D01*
X86835143Y-39663684D01*
X86756535Y-39680781D01*
X86704145Y-39697145D01*
X86639985Y-39727645D01*
X86593136Y-39765289D01*
X86581287Y-39779833D01*
X86556847Y-39828132D01*
X86545738Y-39876709D01*
X86542578Y-39926733D01*
X86355000Y-39926733D01*
X86355000Y-39913788D01*
X86358541Y-39860537D01*
X86371260Y-39805346D01*
X86393231Y-39756200D01*
X86429005Y-39708136D01*
X86433754Y-39703248D01*
X86485577Y-39661773D01*
X86545363Y-39628701D01*
X86608270Y-39602693D01*
X86681064Y-39579420D01*
X86726688Y-39567628D01*
X86799631Y-39552887D01*
X86877984Y-39541684D01*
X86961747Y-39534019D01*
X87035682Y-39530334D01*
X87113374Y-39529106D01*
X87137984Y-39529221D01*
G37*
D11*
X93677800Y-36208458D02*
X93630180Y-36065601D01*
X93630180Y-36065601D02*
X93630180Y-35827506D01*
X93630180Y-35827506D02*
X93677800Y-35732268D01*
X93677800Y-35732268D02*
X93725419Y-35684649D01*
X93725419Y-35684649D02*
X93820657Y-35637030D01*
X93820657Y-35637030D02*
X93915895Y-35637030D01*
X93915895Y-35637030D02*
X94011133Y-35684649D01*
X94011133Y-35684649D02*
X94058752Y-35732268D01*
X94058752Y-35732268D02*
X94106371Y-35827506D01*
X94106371Y-35827506D02*
X94153990Y-36017982D01*
X94153990Y-36017982D02*
X94201609Y-36113220D01*
X94201609Y-36113220D02*
X94249228Y-36160839D01*
X94249228Y-36160839D02*
X94344466Y-36208458D01*
X94344466Y-36208458D02*
X94439704Y-36208458D01*
X94439704Y-36208458D02*
X94534942Y-36160839D01*
X94534942Y-36160839D02*
X94582561Y-36113220D01*
X94582561Y-36113220D02*
X94630180Y-36017982D01*
X94630180Y-36017982D02*
X94630180Y-35779887D01*
X94630180Y-35779887D02*
X94582561Y-35637030D01*
X93630180Y-35208458D02*
X94630180Y-35208458D01*
X94630180Y-35208458D02*
X94630180Y-34970363D01*
X94630180Y-34970363D02*
X94582561Y-34827506D01*
X94582561Y-34827506D02*
X94487323Y-34732268D01*
X94487323Y-34732268D02*
X94392085Y-34684649D01*
X94392085Y-34684649D02*
X94201609Y-34637030D01*
X94201609Y-34637030D02*
X94058752Y-34637030D01*
X94058752Y-34637030D02*
X93868276Y-34684649D01*
X93868276Y-34684649D02*
X93773038Y-34732268D01*
X93773038Y-34732268D02*
X93677800Y-34827506D01*
X93677800Y-34827506D02*
X93630180Y-34970363D01*
X93630180Y-34970363D02*
X93630180Y-35208458D01*
X93915895Y-34256077D02*
X93915895Y-33779887D01*
X93630180Y-34351315D02*
X94630180Y-34017982D01*
X94630180Y-34017982D02*
X93630180Y-33684649D01*
D10*
G36*
X82067984Y-41469598D02*
G01*
X82150809Y-41471820D01*
X82228479Y-41476871D01*
X82310934Y-41486106D01*
X82386657Y-41499036D01*
X82422148Y-41506791D01*
X82496311Y-41526918D01*
X82562592Y-41550754D01*
X82626992Y-41581590D01*
X82680730Y-41616447D01*
X82726453Y-41659143D01*
X82758150Y-41706398D01*
X82761478Y-41713467D01*
X82776934Y-41764254D01*
X82783910Y-41817544D01*
X82785628Y-41867354D01*
X82785628Y-42152386D01*
X81285000Y-42152386D01*
X81285000Y-41867110D01*
X81472578Y-41867110D01*
X81472578Y-42042965D01*
X82598049Y-42042965D01*
X82598049Y-41869797D01*
X82596647Y-41830482D01*
X82588775Y-41778666D01*
X82568740Y-41730334D01*
X82563048Y-41722275D01*
X82519824Y-41681258D01*
X82463023Y-41648830D01*
X82397648Y-41623600D01*
X82355233Y-41611638D01*
X82277621Y-41596716D01*
X82199868Y-41587917D01*
X82125911Y-41583538D01*
X82045205Y-41582078D01*
X81993920Y-41582689D01*
X81920448Y-41585895D01*
X81839973Y-41593108D01*
X81765143Y-41604060D01*
X81686535Y-41621157D01*
X81634145Y-41637522D01*
X81569985Y-41668021D01*
X81523136Y-41705665D01*
X81511287Y-41720209D01*
X81486847Y-41768509D01*
X81475738Y-41817086D01*
X81472578Y-41867110D01*
X81285000Y-41867110D01*
X81285000Y-41854165D01*
X81288541Y-41800914D01*
X81301260Y-41745723D01*
X81323231Y-41696576D01*
X81359005Y-41648513D01*
X81363754Y-41643625D01*
X81415577Y-41602149D01*
X81475363Y-41569077D01*
X81538270Y-41543070D01*
X81611064Y-41519797D01*
X81656688Y-41508004D01*
X81729631Y-41493264D01*
X81807984Y-41482061D01*
X81891747Y-41474396D01*
X81965682Y-41470711D01*
X82043374Y-41469483D01*
X82067984Y-41469598D01*
G37*
G36*
X82785628Y-40976845D02*
G01*
X82785628Y-41094326D01*
X81285000Y-41411841D01*
X81285000Y-41295582D01*
X81707051Y-41204968D01*
X81707051Y-41173460D01*
X81894630Y-41173460D01*
X82338297Y-41082846D01*
X82410058Y-41069245D01*
X82482095Y-41057262D01*
X82554406Y-41046897D01*
X82626992Y-41038150D01*
X82619388Y-41036969D01*
X82544574Y-41024473D01*
X82468439Y-41010544D01*
X82394383Y-40996176D01*
X82313384Y-40979776D01*
X81894630Y-40893802D01*
X81894630Y-41173460D01*
X81707051Y-41173460D01*
X81707051Y-40860097D01*
X81285000Y-40763865D01*
X81285000Y-40639057D01*
X82785628Y-40976845D01*
G37*
G36*
X81285000Y-40386510D02*
G01*
X82598049Y-40386510D01*
X82598049Y-40658596D01*
X82785628Y-40658596D01*
X82785628Y-40004025D01*
X82598049Y-40004025D01*
X82598049Y-40277333D01*
X81285000Y-40277333D01*
X81285000Y-40386510D01*
G37*
G36*
X82086894Y-39443810D02*
G01*
X82161432Y-39445498D01*
X82254506Y-39449999D01*
X82340367Y-39457072D01*
X82419015Y-39466718D01*
X82507182Y-39482392D01*
X82584079Y-39502086D01*
X82649706Y-39525798D01*
X82669005Y-39534512D01*
X82726745Y-39568089D01*
X82774057Y-39612332D01*
X82801449Y-39662833D01*
X82809075Y-39712155D01*
X82804281Y-39752173D01*
X82781460Y-39802888D01*
X82739846Y-39847408D01*
X82679439Y-39885735D01*
X82612704Y-39913656D01*
X82600250Y-39917863D01*
X82532560Y-39936897D01*
X82455836Y-39952591D01*
X82370079Y-39964947D01*
X82294968Y-39972427D01*
X82214076Y-39977769D01*
X82127403Y-39980975D01*
X82034947Y-39982044D01*
X82008564Y-39981970D01*
X81932371Y-39980868D01*
X81837683Y-39977342D01*
X81750883Y-39971465D01*
X81671972Y-39963237D01*
X81584425Y-39949646D01*
X81509204Y-39932382D01*
X81435209Y-39906817D01*
X81404175Y-39892334D01*
X81343632Y-39855602D01*
X81299709Y-39814756D01*
X81269862Y-39763038D01*
X81261552Y-39713376D01*
X81261873Y-39710690D01*
X81425683Y-39710690D01*
X81443046Y-39762118D01*
X81489465Y-39802744D01*
X81549148Y-39831346D01*
X81557098Y-39834231D01*
X81625833Y-39851862D01*
X81702971Y-39863403D01*
X81780103Y-39870501D01*
X81868915Y-39875309D01*
X81948376Y-39877508D01*
X82035314Y-39878240D01*
X82121587Y-39877515D01*
X82200521Y-39875340D01*
X82288869Y-39870582D01*
X82365750Y-39863557D01*
X82442871Y-39852137D01*
X82520013Y-39831834D01*
X82580405Y-39803973D01*
X82627375Y-39765144D01*
X82644944Y-39716796D01*
X82644823Y-39712137D01*
X82627633Y-39664509D01*
X82581351Y-39623519D01*
X82521845Y-39594919D01*
X82513939Y-39592019D01*
X82445413Y-39574295D01*
X82368313Y-39562695D01*
X82291115Y-39555560D01*
X82202147Y-39550726D01*
X82122497Y-39548516D01*
X82035314Y-39547780D01*
X81949040Y-39548513D01*
X81870106Y-39550711D01*
X81781758Y-39555519D01*
X81704877Y-39562618D01*
X81627756Y-39574158D01*
X81550614Y-39594674D01*
X81490223Y-39622712D01*
X81443252Y-39661860D01*
X81425683Y-39710690D01*
X81261873Y-39710690D01*
X81266355Y-39673160D01*
X81289218Y-39622266D01*
X81330910Y-39577684D01*
X81391430Y-39539413D01*
X81458290Y-39511632D01*
X81470787Y-39507439D01*
X81538618Y-39488474D01*
X81615358Y-39472835D01*
X81701006Y-39460524D01*
X81775939Y-39453071D01*
X81856574Y-39447747D01*
X81942910Y-39444553D01*
X82034947Y-39443488D01*
X82086894Y-39443810D01*
G37*
D12*
X200299850Y-32767219D02*
X200109374Y-32767219D01*
X200109374Y-32767219D02*
X200014136Y-32814838D01*
X200014136Y-32814838D02*
X199918898Y-32910076D01*
X199918898Y-32910076D02*
X199871279Y-33100552D01*
X199871279Y-33100552D02*
X199871279Y-33433885D01*
X199871279Y-33433885D02*
X199918898Y-33624361D01*
X199918898Y-33624361D02*
X200014136Y-33719600D01*
X200014136Y-33719600D02*
X200109374Y-33767219D01*
X200109374Y-33767219D02*
X200299850Y-33767219D01*
X200299850Y-33767219D02*
X200395088Y-33719600D01*
X200395088Y-33719600D02*
X200490326Y-33624361D01*
X200490326Y-33624361D02*
X200537945Y-33433885D01*
X200537945Y-33433885D02*
X200537945Y-33100552D01*
X200537945Y-33100552D02*
X200490326Y-32910076D01*
X200490326Y-32910076D02*
X200395088Y-32814838D01*
X200395088Y-32814838D02*
X200299850Y-32767219D01*
X199442707Y-33767219D02*
X199442707Y-32767219D01*
X199442707Y-32767219D02*
X198871279Y-33767219D01*
X198871279Y-33767219D02*
X198871279Y-32767219D01*
D10*
G36*
X71015000Y-42136894D02*
G01*
X72515628Y-42136894D01*
X72515628Y-41972763D01*
X71453171Y-41776880D01*
X71231154Y-41737801D01*
X71303815Y-41724864D01*
X71380501Y-41710830D01*
X71452411Y-41697473D01*
X71471856Y-41693837D01*
X72515628Y-41496001D01*
X72515628Y-41348967D01*
X71015000Y-41348967D01*
X71015000Y-41454235D01*
X72291046Y-41454235D01*
X71015000Y-41694570D01*
X71015000Y-41792756D01*
X72321454Y-42031870D01*
X71015000Y-42031870D01*
X71015000Y-42136894D01*
G37*
G36*
X71778895Y-40418208D02*
G01*
X71866428Y-40420670D01*
X71949246Y-40426824D01*
X72027350Y-40436670D01*
X72100740Y-40450208D01*
X72180404Y-40470669D01*
X72201968Y-40477380D01*
X72272303Y-40503183D01*
X72334644Y-40532585D01*
X72396101Y-40570595D01*
X72447117Y-40613307D01*
X72487349Y-40659454D01*
X72516086Y-40708012D01*
X72533328Y-40758983D01*
X72539075Y-40812365D01*
X72538272Y-40833275D01*
X72529240Y-40883645D01*
X72510172Y-40931296D01*
X72481069Y-40976228D01*
X72441930Y-41018441D01*
X72392755Y-41057935D01*
X72333545Y-41094710D01*
X72307162Y-41108433D01*
X72235157Y-41138868D01*
X72154513Y-41163769D01*
X72083776Y-41179706D01*
X72007509Y-41192102D01*
X71925712Y-41200955D01*
X71838386Y-41206268D01*
X71745530Y-41208038D01*
X71708003Y-41207644D01*
X71617217Y-41203212D01*
X71530760Y-41193853D01*
X71448632Y-41179570D01*
X71370834Y-41160361D01*
X71297364Y-41136226D01*
X71228224Y-41107166D01*
X71199564Y-41092966D01*
X71136005Y-41055027D01*
X71084002Y-41013606D01*
X71043555Y-40968702D01*
X71014665Y-40920317D01*
X70997330Y-40868448D01*
X70991629Y-40813831D01*
X71155683Y-40813831D01*
X71157036Y-40835547D01*
X71170710Y-40883798D01*
X71204370Y-40934791D01*
X71249600Y-40975779D01*
X71309556Y-41013377D01*
X71360701Y-41037019D01*
X71430150Y-41060100D01*
X71508408Y-41077411D01*
X71580354Y-41087428D01*
X71658417Y-41093439D01*
X71742599Y-41095443D01*
X71762652Y-41095365D01*
X71839560Y-41093493D01*
X71928257Y-41087643D01*
X72008689Y-41077894D01*
X72080856Y-41064244D01*
X72156548Y-41042718D01*
X72220338Y-41015575D01*
X72256574Y-40994864D01*
X72308361Y-40955332D01*
X72345351Y-40911616D01*
X72367546Y-40863716D01*
X72374944Y-40811632D01*
X72368039Y-40764740D01*
X72344492Y-40715913D01*
X72304235Y-40669971D01*
X72295258Y-40661978D01*
X72244833Y-40625847D01*
X72185177Y-40596109D01*
X72116290Y-40572763D01*
X72077353Y-40562917D01*
X72006071Y-40548845D01*
X71930793Y-40538794D01*
X71851517Y-40532763D01*
X71768244Y-40530753D01*
X71695143Y-40532028D01*
X71610175Y-40537206D01*
X71532326Y-40546367D01*
X71448305Y-40562619D01*
X71374537Y-40584607D01*
X71311022Y-40612330D01*
X71274614Y-40633270D01*
X71222582Y-40672835D01*
X71185416Y-40716117D01*
X71163117Y-40763116D01*
X71155683Y-40813831D01*
X70991629Y-40813831D01*
X70991552Y-40813098D01*
X70992452Y-40790714D01*
X71002579Y-40737118D01*
X71023958Y-40686897D01*
X71056589Y-40640051D01*
X71100473Y-40596579D01*
X71155608Y-40556483D01*
X71221995Y-40519762D01*
X71290383Y-40490491D01*
X71364799Y-40466181D01*
X71445243Y-40446833D01*
X71531716Y-40432445D01*
X71605235Y-40424507D01*
X71682613Y-40419745D01*
X71763848Y-40418157D01*
X71778895Y-40418208D01*
G37*
G36*
X71507393Y-40321193D02*
G01*
X71530840Y-40218122D01*
X71452602Y-40210905D01*
X71379928Y-40198282D01*
X71321280Y-40180753D01*
X71261494Y-40150339D01*
X71212928Y-40110388D01*
X71201113Y-40097222D01*
X71171699Y-40050909D01*
X71157280Y-40000082D01*
X71155683Y-39975101D01*
X71161392Y-39923624D01*
X71181127Y-39874584D01*
X71219117Y-39830558D01*
X71227857Y-39823670D01*
X71288067Y-39790777D01*
X71360435Y-39773066D01*
X71415436Y-39769692D01*
X71489416Y-39776581D01*
X71533039Y-39789232D01*
X71589081Y-39821479D01*
X71615837Y-39848339D01*
X71646446Y-39895603D01*
X71672808Y-39946035D01*
X71696237Y-39995277D01*
X71707062Y-40019064D01*
X71729965Y-40066928D01*
X71756097Y-40113757D01*
X71788698Y-40160488D01*
X71811475Y-40185394D01*
X71862646Y-40224403D01*
X71924476Y-40255091D01*
X71944099Y-40262330D01*
X72012796Y-40280042D01*
X72088507Y-40288724D01*
X72125816Y-40289685D01*
X72202287Y-40285910D01*
X72281868Y-40272351D01*
X72353114Y-40248930D01*
X72416026Y-40215649D01*
X72423304Y-40210795D01*
X72473954Y-40167808D01*
X72510132Y-40117983D01*
X72529917Y-40068775D01*
X72538623Y-40014332D01*
X72539075Y-39997815D01*
X72534815Y-39947836D01*
X72520089Y-39896565D01*
X72494844Y-39849777D01*
X72485219Y-39836615D01*
X72442652Y-39792760D01*
X72389003Y-39756235D01*
X72330614Y-39729392D01*
X72257149Y-39707382D01*
X72183074Y-39694636D01*
X72102059Y-39688806D01*
X72093576Y-39688604D01*
X72070129Y-39793628D01*
X72150954Y-39801642D01*
X72225872Y-39818386D01*
X72290183Y-39846336D01*
X72299839Y-39852491D01*
X72345606Y-39896031D01*
X72369003Y-39946141D01*
X72374944Y-39994396D01*
X72368325Y-40047981D01*
X72345754Y-40097063D01*
X72307166Y-40135812D01*
X72245567Y-40167440D01*
X72170907Y-40182944D01*
X72132044Y-40184661D01*
X72058454Y-40178776D01*
X71991875Y-40157359D01*
X71977438Y-40149001D01*
X71933695Y-40105117D01*
X71904473Y-40057497D01*
X71882347Y-40010709D01*
X71873025Y-39988045D01*
X71852338Y-39938088D01*
X71830242Y-39889496D01*
X71804940Y-39841506D01*
X71788761Y-39816343D01*
X71750557Y-39772799D01*
X71700682Y-39733275D01*
X71642581Y-39702526D01*
X71576464Y-39680555D01*
X71502035Y-39667704D01*
X71427159Y-39663935D01*
X71351489Y-39667895D01*
X71280184Y-39679773D01*
X71206790Y-39701985D01*
X71200380Y-39704480D01*
X71135864Y-39735817D01*
X71082864Y-39774081D01*
X71044675Y-39814877D01*
X71016661Y-39861174D01*
X70999023Y-39913051D01*
X70992019Y-39964513D01*
X70991552Y-39982672D01*
X70996434Y-40037919D01*
X71011078Y-40088803D01*
X71035486Y-40135326D01*
X71076301Y-40184089D01*
X71130404Y-40226915D01*
X71196028Y-40262481D01*
X71271084Y-40289680D01*
X71342924Y-40306332D01*
X71421694Y-40316836D01*
X71507393Y-40321193D01*
G37*
G36*
X71015000Y-39498583D02*
G01*
X72515628Y-39498583D01*
X72515628Y-39389406D01*
X71015000Y-39389406D01*
X71015000Y-39498583D01*
G37*
G36*
X78755000Y-41599496D02*
G01*
X80255628Y-41599496D01*
X80255628Y-41490320D01*
X78755000Y-41490320D01*
X78755000Y-41599496D01*
G37*
G36*
X79518895Y-40542709D02*
G01*
X79606428Y-40545170D01*
X79689246Y-40551324D01*
X79767350Y-40561170D01*
X79840740Y-40574708D01*
X79920404Y-40595170D01*
X79941968Y-40601881D01*
X80012303Y-40627683D01*
X80074644Y-40657085D01*
X80136101Y-40695095D01*
X80187117Y-40737807D01*
X80227349Y-40783954D01*
X80256086Y-40832513D01*
X80273328Y-40883483D01*
X80279075Y-40936865D01*
X80278272Y-40957775D01*
X80269240Y-41008145D01*
X80250172Y-41055796D01*
X80221069Y-41100728D01*
X80181930Y-41142941D01*
X80132755Y-41182435D01*
X80073545Y-41219210D01*
X80047162Y-41232934D01*
X79975157Y-41263368D01*
X79894513Y-41288270D01*
X79823776Y-41304207D01*
X79747509Y-41316602D01*
X79665712Y-41325456D01*
X79578386Y-41330768D01*
X79485530Y-41332539D01*
X79448003Y-41332145D01*
X79357217Y-41327712D01*
X79270760Y-41318354D01*
X79188632Y-41304070D01*
X79110834Y-41284861D01*
X79037364Y-41260726D01*
X78968224Y-41231666D01*
X78939564Y-41217466D01*
X78876005Y-41179527D01*
X78824002Y-41138106D01*
X78783555Y-41093203D01*
X78754665Y-41044817D01*
X78737330Y-40992949D01*
X78731629Y-40938331D01*
X78895683Y-40938331D01*
X78897036Y-40960047D01*
X78910710Y-41008298D01*
X78944370Y-41059291D01*
X78989600Y-41100279D01*
X79049556Y-41137877D01*
X79100701Y-41161519D01*
X79170150Y-41184600D01*
X79248408Y-41201911D01*
X79320354Y-41211929D01*
X79398417Y-41217939D01*
X79482599Y-41219943D01*
X79502652Y-41219865D01*
X79579560Y-41217993D01*
X79668257Y-41212143D01*
X79748689Y-41202394D01*
X79820856Y-41188745D01*
X79896548Y-41167218D01*
X79960338Y-41140075D01*
X79996574Y-41119364D01*
X80048361Y-41079833D01*
X80085351Y-41036117D01*
X80107546Y-40988217D01*
X80114944Y-40936133D01*
X80108039Y-40889240D01*
X80084492Y-40840413D01*
X80044235Y-40794472D01*
X80035258Y-40786479D01*
X79984833Y-40750348D01*
X79925177Y-40720609D01*
X79856290Y-40697263D01*
X79817353Y-40687417D01*
X79746071Y-40673345D01*
X79670793Y-40663294D01*
X79591517Y-40657264D01*
X79508244Y-40655253D01*
X79435143Y-40656528D01*
X79350175Y-40661706D01*
X79272326Y-40670868D01*
X79188305Y-40687119D01*
X79114537Y-40709107D01*
X79051022Y-40736830D01*
X79014614Y-40757770D01*
X78962582Y-40797336D01*
X78925416Y-40840617D01*
X78903117Y-40887616D01*
X78895683Y-40938331D01*
X78731629Y-40938331D01*
X78731552Y-40937598D01*
X78732452Y-40915215D01*
X78742579Y-40861618D01*
X78763958Y-40811397D01*
X78796589Y-40764551D01*
X78840473Y-40721080D01*
X78895608Y-40680984D01*
X78961995Y-40644262D01*
X79030383Y-40614991D01*
X79104799Y-40590682D01*
X79185243Y-40571333D01*
X79271716Y-40556946D01*
X79345235Y-40549008D01*
X79422613Y-40544245D01*
X79503848Y-40542657D01*
X79518895Y-40542709D01*
G37*
G36*
X79315984Y-39913079D02*
G01*
X79391581Y-39919948D01*
X79471735Y-39934474D01*
X79543230Y-39956012D01*
X79606064Y-39984563D01*
X79651509Y-40012833D01*
X79697476Y-40053278D01*
X79729209Y-40102537D01*
X79739787Y-40155777D01*
X79738543Y-40174099D01*
X79721834Y-40223813D01*
X79688862Y-40267884D01*
X79656421Y-40296267D01*
X79601354Y-40329664D01*
X79539019Y-40355812D01*
X79555993Y-40355722D01*
X79636946Y-40353948D01*
X79711369Y-40349969D01*
X79792058Y-40342281D01*
X79874311Y-40329296D01*
X79952644Y-40309161D01*
X79999400Y-40291523D01*
X80057727Y-40259779D01*
X80099094Y-40218885D01*
X80114944Y-40167012D01*
X80114319Y-40156442D01*
X80092455Y-40107970D01*
X80043869Y-40069315D01*
X80027032Y-40060871D01*
X79957201Y-40039548D01*
X79880471Y-40026817D01*
X79903918Y-39925700D01*
X79969421Y-39932589D01*
X80047262Y-39947252D01*
X80121860Y-39971228D01*
X80182721Y-40003125D01*
X80199941Y-40015300D01*
X80245106Y-40059760D01*
X80271453Y-40110183D01*
X80279075Y-40160662D01*
X80272506Y-40207665D01*
X80248238Y-40258378D01*
X80206088Y-40304650D01*
X80155727Y-40340777D01*
X80092229Y-40373641D01*
X80041659Y-40393104D01*
X79967338Y-40413784D01*
X79880674Y-40430409D01*
X79802455Y-40440789D01*
X79716336Y-40448574D01*
X79622318Y-40453764D01*
X79546620Y-40455954D01*
X79466479Y-40456684D01*
X79371007Y-40455417D01*
X79282610Y-40451616D01*
X79201288Y-40445281D01*
X79127042Y-40436412D01*
X79044185Y-40421762D01*
X78972382Y-40403153D01*
X78900812Y-40375595D01*
X78861142Y-40354636D01*
X78804447Y-40314652D01*
X78763950Y-40270460D01*
X78739652Y-40222061D01*
X78731552Y-40169454D01*
X78731605Y-40168966D01*
X78895683Y-40168966D01*
X78903421Y-40205865D01*
X78937811Y-40251036D01*
X78993503Y-40288401D01*
X79025742Y-40303247D01*
X79099559Y-40325391D01*
X79176639Y-40336715D01*
X79253621Y-40339936D01*
X79271928Y-40339744D01*
X79348358Y-40334135D01*
X79421860Y-40318793D01*
X79488827Y-40290843D01*
X79522660Y-40268559D01*
X79561325Y-40226604D01*
X79575655Y-40175805D01*
X79571466Y-40147306D01*
X79541452Y-40099651D01*
X79488094Y-40061743D01*
X79459102Y-40048304D01*
X79390652Y-40028259D01*
X79317117Y-40018009D01*
X79242264Y-40015093D01*
X79212576Y-40015507D01*
X79130775Y-40021722D01*
X79052665Y-40037373D01*
X78988007Y-40062232D01*
X78961410Y-40077202D01*
X78913355Y-40119084D01*
X78895683Y-40168966D01*
X78731605Y-40168966D01*
X78735216Y-40135505D01*
X78754450Y-40087328D01*
X78790170Y-40042448D01*
X78838342Y-40005302D01*
X78901751Y-39973119D01*
X78972620Y-39948170D01*
X79019924Y-39935637D01*
X79094647Y-39921698D01*
X79173891Y-39913595D01*
X79248126Y-39911290D01*
X79315984Y-39913079D01*
G37*
D11*
X92344467Y-36160839D02*
X92296847Y-36017982D01*
X92296847Y-36017982D02*
X92296847Y-35779887D01*
X92296847Y-35779887D02*
X92344467Y-35684649D01*
X92344467Y-35684649D02*
X92392086Y-35637030D01*
X92392086Y-35637030D02*
X92487324Y-35589411D01*
X92487324Y-35589411D02*
X92582562Y-35589411D01*
X92582562Y-35589411D02*
X92677800Y-35637030D01*
X92677800Y-35637030D02*
X92725419Y-35684649D01*
X92725419Y-35684649D02*
X92773038Y-35779887D01*
X92773038Y-35779887D02*
X92820657Y-35970363D01*
X92820657Y-35970363D02*
X92868276Y-36065601D01*
X92868276Y-36065601D02*
X92915895Y-36113220D01*
X92915895Y-36113220D02*
X93011133Y-36160839D01*
X93011133Y-36160839D02*
X93106371Y-36160839D01*
X93106371Y-36160839D02*
X93201609Y-36113220D01*
X93201609Y-36113220D02*
X93249228Y-36065601D01*
X93249228Y-36065601D02*
X93296847Y-35970363D01*
X93296847Y-35970363D02*
X93296847Y-35732268D01*
X93296847Y-35732268D02*
X93249228Y-35589411D01*
X92392086Y-34589411D02*
X92344467Y-34637030D01*
X92344467Y-34637030D02*
X92296847Y-34779887D01*
X92296847Y-34779887D02*
X92296847Y-34875125D01*
X92296847Y-34875125D02*
X92344467Y-35017982D01*
X92344467Y-35017982D02*
X92439705Y-35113220D01*
X92439705Y-35113220D02*
X92534943Y-35160839D01*
X92534943Y-35160839D02*
X92725419Y-35208458D01*
X92725419Y-35208458D02*
X92868276Y-35208458D01*
X92868276Y-35208458D02*
X93058752Y-35160839D01*
X93058752Y-35160839D02*
X93153990Y-35113220D01*
X93153990Y-35113220D02*
X93249228Y-35017982D01*
X93249228Y-35017982D02*
X93296847Y-34875125D01*
X93296847Y-34875125D02*
X93296847Y-34779887D01*
X93296847Y-34779887D02*
X93249228Y-34637030D01*
X93249228Y-34637030D02*
X93201609Y-34589411D01*
X92296847Y-33684649D02*
X92296847Y-34160839D01*
X92296847Y-34160839D02*
X93296847Y-34160839D01*
D10*
G36*
X86924288Y-44356070D02*
G01*
X86877393Y-44246161D01*
X86799335Y-44258869D01*
X86727735Y-44274249D01*
X86650339Y-44296231D01*
X86582242Y-44322059D01*
X86523445Y-44351735D01*
X86489413Y-44373656D01*
X86439592Y-44415311D01*
X86402008Y-44460777D01*
X86376661Y-44510053D01*
X86363550Y-44563138D01*
X86361552Y-44595184D01*
X86366750Y-44650490D01*
X86382343Y-44701613D01*
X86408332Y-44748553D01*
X86444717Y-44791311D01*
X86492573Y-44830145D01*
X86552978Y-44865316D01*
X86616125Y-44893086D01*
X86688879Y-44918050D01*
X86711430Y-44924667D01*
X86782729Y-44942264D01*
X86858691Y-44956220D01*
X86939316Y-44966536D01*
X87024603Y-44973211D01*
X87099237Y-44975992D01*
X87145572Y-44976447D01*
X87220886Y-44975183D01*
X87306375Y-44970328D01*
X87386531Y-44961833D01*
X87461355Y-44949697D01*
X87530847Y-44933921D01*
X87563593Y-44924667D01*
X87634432Y-44900166D01*
X87697240Y-44872181D01*
X87759190Y-44835934D01*
X87810653Y-44795138D01*
X87821880Y-44784228D01*
X87860028Y-44738600D01*
X87887276Y-44690377D01*
X87903625Y-44639560D01*
X87909075Y-44586147D01*
X87903658Y-44535507D01*
X87884200Y-44481583D01*
X87850592Y-44431872D01*
X87802833Y-44386374D01*
X87795868Y-44380983D01*
X87741274Y-44345835D01*
X87676547Y-44315620D01*
X87601686Y-44290337D01*
X87529455Y-44272591D01*
X87463576Y-44260571D01*
X87416681Y-44367794D01*
X87493618Y-44383261D01*
X87575363Y-44407458D01*
X87641079Y-44437057D01*
X87698782Y-44479707D01*
X87733403Y-44530136D01*
X87744944Y-44588345D01*
X87738754Y-44637795D01*
X87717648Y-44687230D01*
X87681563Y-44731471D01*
X87629633Y-44770090D01*
X87567924Y-44800238D01*
X87500577Y-44823334D01*
X87484092Y-44827947D01*
X87412789Y-44843655D01*
X87332601Y-44854875D01*
X87255148Y-44861011D01*
X87170894Y-44863711D01*
X87145572Y-44863851D01*
X87070507Y-44862714D01*
X86983487Y-44858094D01*
X86904033Y-44849920D01*
X86832147Y-44838192D01*
X86755871Y-44819427D01*
X86690493Y-44795544D01*
X86680655Y-44791067D01*
X86620271Y-44756909D01*
X86574718Y-44718124D01*
X86540817Y-44668130D01*
X86527045Y-44619427D01*
X86525683Y-44597138D01*
X86535343Y-44543781D01*
X86564323Y-44495147D01*
X86612623Y-44451236D01*
X86624602Y-44443020D01*
X86688300Y-44409876D01*
X86758447Y-44386123D01*
X86830269Y-44369748D01*
X86911839Y-44357486D01*
X86924288Y-44356070D01*
G37*
G36*
X86385000Y-44120376D02*
G01*
X87885628Y-44120376D01*
X87885628Y-44011199D01*
X86572578Y-44011199D01*
X86572578Y-43604535D01*
X86385000Y-43604535D01*
X86385000Y-44120376D01*
G37*
G36*
X86385000Y-43479727D02*
G01*
X87885628Y-43479727D01*
X87885628Y-43370550D01*
X87148136Y-43370550D01*
X87885628Y-42960466D01*
X87885628Y-42811967D01*
X87276730Y-43159036D01*
X86385000Y-42797068D01*
X86385000Y-42941171D01*
X87137512Y-43235240D01*
X86904870Y-43370550D01*
X86385000Y-43370550D01*
X86385000Y-43479727D01*
G37*
G36*
X69321025Y-41358273D02*
G01*
X69400298Y-41364659D01*
X69471862Y-41377808D01*
X69542337Y-41400348D01*
X69601807Y-41429724D01*
X69652265Y-41468539D01*
X69687051Y-41514165D01*
X69692158Y-41524472D01*
X69707563Y-41575832D01*
X69713842Y-41624990D01*
X69715628Y-41676342D01*
X69715628Y-41987508D01*
X68215000Y-41987508D01*
X68215000Y-41878331D01*
X68824630Y-41878331D01*
X68824630Y-41666817D01*
X68824750Y-41664863D01*
X69012208Y-41664863D01*
X69012208Y-41878331D01*
X69528049Y-41878331D01*
X69528049Y-41666817D01*
X69527849Y-41651298D01*
X69523058Y-41598496D01*
X69505334Y-41549092D01*
X69480530Y-41524112D01*
X69421437Y-41493404D01*
X69349788Y-41475490D01*
X69274891Y-41470446D01*
X69213090Y-41473361D01*
X69141648Y-41486892D01*
X69077421Y-41517096D01*
X69073409Y-41520065D01*
X69035198Y-41563988D01*
X69017367Y-41612293D01*
X69012208Y-41664863D01*
X68824750Y-41664863D01*
X68827751Y-41616010D01*
X68839738Y-41561559D01*
X68860715Y-41514218D01*
X68896552Y-41467973D01*
X68952491Y-41426970D01*
X68985710Y-41410713D01*
X69059120Y-41384701D01*
X69130980Y-41369053D01*
X69209958Y-41360044D01*
X69283318Y-41357605D01*
X69321025Y-41358273D01*
G37*
G36*
X68215000Y-41076970D02*
G01*
X69715628Y-41296056D01*
X69715628Y-41184193D01*
X68731939Y-41058408D01*
X68656010Y-41048806D01*
X68579532Y-41039784D01*
X68502504Y-41031343D01*
X68424926Y-41023481D01*
X68702264Y-40986356D01*
X69715628Y-40829064D01*
X69715628Y-40697173D01*
X68956154Y-40578959D01*
X68870059Y-40565986D01*
X68785108Y-40554086D01*
X68701302Y-40543260D01*
X68618641Y-40533507D01*
X68537125Y-40524827D01*
X68456754Y-40517221D01*
X68424926Y-40514479D01*
X68500283Y-40505992D01*
X68579807Y-40496405D01*
X68652809Y-40487115D01*
X68729001Y-40476984D01*
X68751357Y-40473935D01*
X69715628Y-40343997D01*
X69715628Y-40234088D01*
X68215000Y-40460746D01*
X68215000Y-40566014D01*
X69358056Y-40740404D01*
X69534277Y-40766538D01*
X69457827Y-40776144D01*
X69382934Y-40786669D01*
X69358056Y-40790473D01*
X68215000Y-40965596D01*
X68215000Y-41076970D01*
G37*
G36*
X68626060Y-39556070D02*
G01*
X68690532Y-39580289D01*
X68756987Y-39609630D01*
X68818768Y-39641799D01*
X68847158Y-39666997D01*
X68883248Y-39711897D01*
X68896969Y-39671296D01*
X68923760Y-39623066D01*
X68965504Y-39576872D01*
X69019535Y-39539217D01*
X69069637Y-39515996D01*
X69143275Y-39494521D01*
X69217441Y-39483347D01*
X69299804Y-39479622D01*
X69307993Y-39479656D01*
X69386418Y-39483778D01*
X69458546Y-39494769D01*
X69530614Y-39514793D01*
X69571476Y-39531020D01*
X69628801Y-39563243D01*
X69672763Y-39604430D01*
X69682809Y-39618989D01*
X69703530Y-39668748D01*
X69712949Y-39720064D01*
X69715628Y-39773690D01*
X69715628Y-40139810D01*
X68215000Y-40139810D01*
X68215000Y-40030634D01*
X68871524Y-40030634D01*
X68871524Y-39904116D01*
X68868485Y-39866335D01*
X68849909Y-39818631D01*
X68826768Y-39795672D01*
X69059103Y-39795672D01*
X69059103Y-40030634D01*
X69528049Y-40030634D01*
X69528049Y-39769538D01*
X69524202Y-39728383D01*
X69506351Y-39680569D01*
X69466500Y-39637159D01*
X69441933Y-39621969D01*
X69371989Y-39598748D01*
X69297972Y-39592462D01*
X69236403Y-39596950D01*
X69167547Y-39615910D01*
X69126901Y-39637503D01*
X69085115Y-39678924D01*
X69076275Y-39695159D01*
X69062761Y-39743191D01*
X69059103Y-39795672D01*
X68826768Y-39795672D01*
X68820628Y-39789580D01*
X68765645Y-39755616D01*
X68732734Y-39739802D01*
X68666073Y-39712019D01*
X68596103Y-39685397D01*
X68522745Y-39658896D01*
X68215000Y-39548987D01*
X68215000Y-39411723D01*
X68626060Y-39556070D01*
G37*
D11*
X253865125Y-45280771D02*
X253960363Y-45233152D01*
X253960363Y-45233152D02*
X254103220Y-45233152D01*
X254103220Y-45233152D02*
X254246077Y-45280771D01*
X254246077Y-45280771D02*
X254341315Y-45376009D01*
X254341315Y-45376009D02*
X254388934Y-45471247D01*
X254388934Y-45471247D02*
X254436553Y-45661723D01*
X254436553Y-45661723D02*
X254436553Y-45804580D01*
X254436553Y-45804580D02*
X254388934Y-45995056D01*
X254388934Y-45995056D02*
X254341315Y-46090294D01*
X254341315Y-46090294D02*
X254246077Y-46185533D01*
X254246077Y-46185533D02*
X254103220Y-46233152D01*
X254103220Y-46233152D02*
X254007982Y-46233152D01*
X254007982Y-46233152D02*
X253865125Y-46185533D01*
X253865125Y-46185533D02*
X253817506Y-46137913D01*
X253817506Y-46137913D02*
X253817506Y-45804580D01*
X253817506Y-45804580D02*
X254007982Y-45804580D01*
X253388934Y-46233152D02*
X253388934Y-45233152D01*
X253388934Y-45233152D02*
X252817506Y-46233152D01*
X252817506Y-46233152D02*
X252817506Y-45233152D01*
X252341315Y-46233152D02*
X252341315Y-45233152D01*
X252341315Y-45233152D02*
X252103220Y-45233152D01*
X252103220Y-45233152D02*
X251960363Y-45280771D01*
X251960363Y-45280771D02*
X251865125Y-45376009D01*
X251865125Y-45376009D02*
X251817506Y-45471247D01*
X251817506Y-45471247D02*
X251769887Y-45661723D01*
X251769887Y-45661723D02*
X251769887Y-45804580D01*
X251769887Y-45804580D02*
X251817506Y-45995056D01*
X251817506Y-45995056D02*
X251865125Y-46090294D01*
X251865125Y-46090294D02*
X251960363Y-46185533D01*
X251960363Y-46185533D02*
X252103220Y-46233152D01*
X252103220Y-46233152D02*
X252341315Y-46233152D01*
D13*
%TO.C,G\u002A\u002A\u002A*%
G36*
X190636697Y-32974675D02*
G01*
X190702123Y-32985448D01*
X190766797Y-33003273D01*
X190830264Y-33028188D01*
X190874928Y-33051145D01*
X190926113Y-33084118D01*
X190974962Y-33122731D01*
X191020454Y-33166085D01*
X191061567Y-33213280D01*
X191097279Y-33263416D01*
X191110532Y-33284228D01*
X191351246Y-33285568D01*
X191591961Y-33286908D01*
X191645038Y-33297204D01*
X191708927Y-33311484D01*
X191788432Y-33335120D01*
X191863831Y-33364571D01*
X191935549Y-33400033D01*
X192004014Y-33441698D01*
X192069652Y-33489760D01*
X192082724Y-33500456D01*
X192117714Y-33531454D01*
X192152764Y-33565591D01*
X192185694Y-33600687D01*
X192214324Y-33634559D01*
X192214390Y-33634642D01*
X192219154Y-33641165D01*
X192227779Y-33653499D01*
X192240077Y-33671364D01*
X192255860Y-33694481D01*
X192274942Y-33722571D01*
X192297133Y-33755354D01*
X192322247Y-33792552D01*
X192350095Y-33833885D01*
X192380490Y-33879074D01*
X192413244Y-33927839D01*
X192448170Y-33979902D01*
X192485080Y-34034983D01*
X192523786Y-34092803D01*
X192564100Y-34153083D01*
X192605835Y-34215543D01*
X192648803Y-34279904D01*
X192692817Y-34345887D01*
X192737688Y-34413212D01*
X193231851Y-35154977D01*
X193347757Y-35155088D01*
X193463663Y-35155200D01*
X193475476Y-35136002D01*
X193486839Y-35118611D01*
X193508461Y-35089225D01*
X193532895Y-35059606D01*
X193558198Y-35032192D01*
X193586869Y-35004781D01*
X193639013Y-34962644D01*
X193694522Y-34926744D01*
X193752928Y-34897194D01*
X193813762Y-34874106D01*
X193876554Y-34857592D01*
X193940836Y-34847765D01*
X194006138Y-34844737D01*
X194071990Y-34848621D01*
X194137925Y-34859529D01*
X194203473Y-34877574D01*
X194224681Y-34885429D01*
X194253526Y-34897879D01*
X194284202Y-34912639D01*
X194314512Y-34928596D01*
X194342256Y-34944634D01*
X194365236Y-34959637D01*
X194375185Y-34967011D01*
X194398274Y-34985860D01*
X194423097Y-35008031D01*
X194447850Y-35031821D01*
X194470729Y-35055525D01*
X194489928Y-35077439D01*
X194493875Y-35082312D01*
X194530562Y-35133756D01*
X194562105Y-35189665D01*
X194588009Y-35248921D01*
X194607778Y-35310405D01*
X194620915Y-35372998D01*
X194623357Y-35390462D01*
X194628223Y-35457851D01*
X194625897Y-35524713D01*
X194616484Y-35590617D01*
X194600086Y-35655132D01*
X194576805Y-35717829D01*
X194546746Y-35778278D01*
X194510010Y-35836047D01*
X194509915Y-35836181D01*
X194490024Y-35861600D01*
X194465460Y-35889046D01*
X194437888Y-35916913D01*
X194408975Y-35943591D01*
X194380385Y-35967470D01*
X194353785Y-35986943D01*
X194341630Y-35994883D01*
X194282028Y-36028851D01*
X194220631Y-36055835D01*
X194157667Y-36075774D01*
X194093365Y-36088606D01*
X194027952Y-36094269D01*
X193961658Y-36092702D01*
X193938822Y-36090623D01*
X193885105Y-36082933D01*
X193834917Y-36071259D01*
X193786068Y-36055025D01*
X193736365Y-36033659D01*
X193715173Y-36023105D01*
X193658219Y-35989452D01*
X193605120Y-35950129D01*
X193556545Y-35905724D01*
X193513161Y-35856824D01*
X193475635Y-35804018D01*
X193463528Y-35784801D01*
X192879150Y-35784894D01*
X192294771Y-35784987D01*
X191815250Y-36504893D01*
X191781723Y-36555220D01*
X191738190Y-36620552D01*
X191695680Y-36684330D01*
X191654381Y-36746271D01*
X191614484Y-36806091D01*
X191576179Y-36863506D01*
X191539654Y-36918232D01*
X191505101Y-36969986D01*
X191472707Y-37018484D01*
X191442663Y-37063442D01*
X191415158Y-37104575D01*
X191390383Y-37141601D01*
X191368526Y-37174236D01*
X191349778Y-37202195D01*
X191334327Y-37225195D01*
X191322364Y-37242952D01*
X191314079Y-37255182D01*
X191309660Y-37261601D01*
X191261578Y-37323974D01*
X191206238Y-37384386D01*
X191146311Y-37439140D01*
X191081915Y-37488164D01*
X191013165Y-37531384D01*
X190940179Y-37568727D01*
X190863074Y-37600120D01*
X190781968Y-37625490D01*
X190696976Y-37644764D01*
X190690838Y-37645880D01*
X190681352Y-37647443D01*
X190671621Y-37648762D01*
X190660939Y-37649864D01*
X190648598Y-37650779D01*
X190633890Y-37651533D01*
X190616106Y-37652155D01*
X190594541Y-37652672D01*
X190568485Y-37653113D01*
X190537231Y-37653505D01*
X190500072Y-37653877D01*
X190456300Y-37654256D01*
X190412782Y-37654653D01*
X190373216Y-37655108D01*
X190340205Y-37655606D01*
X190313354Y-37656160D01*
X190292270Y-37656781D01*
X190276557Y-37657482D01*
X190265820Y-37658273D01*
X190259666Y-37659167D01*
X190257698Y-37660176D01*
X190257486Y-37662705D01*
X190256385Y-37671564D01*
X190254555Y-37684765D01*
X190252240Y-37700522D01*
X190247945Y-37722775D01*
X190236979Y-37760106D01*
X190222072Y-37796021D01*
X190204294Y-37827681D01*
X190189327Y-37848156D01*
X190160616Y-37879381D01*
X190127601Y-37907386D01*
X190091955Y-37930818D01*
X190055353Y-37948319D01*
X190052411Y-37949450D01*
X190043212Y-37952879D01*
X190034303Y-37955913D01*
X190025209Y-37958574D01*
X190015454Y-37960885D01*
X190004562Y-37962868D01*
X189992058Y-37964545D01*
X189977465Y-37965938D01*
X189960309Y-37967072D01*
X189940113Y-37967967D01*
X189916401Y-37968646D01*
X189888699Y-37969131D01*
X189856530Y-37969446D01*
X189819418Y-37969613D01*
X189776889Y-37969653D01*
X189728465Y-37969591D01*
X189673673Y-37969447D01*
X189612035Y-37969244D01*
X189572584Y-37969108D01*
X189519630Y-37968917D01*
X189473202Y-37968732D01*
X189432824Y-37968539D01*
X189398019Y-37968326D01*
X189368313Y-37968082D01*
X189343229Y-37967795D01*
X189322292Y-37967452D01*
X189305025Y-37967041D01*
X189290954Y-37966551D01*
X189279601Y-37965969D01*
X189270492Y-37965283D01*
X189263150Y-37964481D01*
X189257099Y-37963552D01*
X189251865Y-37962483D01*
X189246970Y-37961262D01*
X189241939Y-37959877D01*
X189215288Y-37951292D01*
X189170740Y-37931243D01*
X189130576Y-37905449D01*
X189095097Y-37874193D01*
X189064600Y-37837757D01*
X189039387Y-37796423D01*
X189019756Y-37750473D01*
X189007669Y-37715699D01*
X189007669Y-37344161D01*
X189007669Y-36972623D01*
X189018166Y-36941509D01*
X189021537Y-36931808D01*
X189035827Y-36896936D01*
X189052469Y-36866558D01*
X189072828Y-36838436D01*
X189098272Y-36810332D01*
X189119590Y-36790549D01*
X189155156Y-36764720D01*
X189194804Y-36744125D01*
X189239536Y-36728182D01*
X189267563Y-36720051D01*
X189628119Y-36720051D01*
X189988675Y-36720051D01*
X190019468Y-36728261D01*
X190058639Y-36741260D01*
X190101424Y-36762160D01*
X190139801Y-36788593D01*
X190173393Y-36820140D01*
X190201827Y-36856381D01*
X190224728Y-36896898D01*
X190241721Y-36941271D01*
X190252432Y-36989080D01*
X190253765Y-36998013D01*
X190255781Y-37011943D01*
X190257173Y-37022124D01*
X190257698Y-37026811D01*
X190257701Y-37026828D01*
X190261449Y-37027392D01*
X190271788Y-37027875D01*
X190288008Y-37028268D01*
X190309400Y-37028565D01*
X190335256Y-37028759D01*
X190364865Y-37028841D01*
X190397518Y-37028804D01*
X190432507Y-37028641D01*
X190607295Y-37027530D01*
X190641844Y-37015472D01*
X190685484Y-36996911D01*
X190726509Y-36972012D01*
X190762837Y-36941509D01*
X190765210Y-36939118D01*
X190769270Y-36934732D01*
X190773904Y-36929336D01*
X190779298Y-36922659D01*
X190785632Y-36914436D01*
X190793090Y-36904398D01*
X190801855Y-36892278D01*
X190812110Y-36877807D01*
X190824037Y-36860718D01*
X190837821Y-36840744D01*
X190853642Y-36817616D01*
X190871686Y-36791067D01*
X190892133Y-36760830D01*
X190915168Y-36726635D01*
X190940973Y-36688217D01*
X190969731Y-36645306D01*
X191001625Y-36597636D01*
X191036838Y-36544939D01*
X191075553Y-36486946D01*
X191117953Y-36423390D01*
X191164220Y-36354004D01*
X191193003Y-36310828D01*
X191230888Y-36253996D01*
X191267545Y-36198999D01*
X191302773Y-36146141D01*
X191336368Y-36095727D01*
X191368129Y-36048061D01*
X191397852Y-36003446D01*
X191425336Y-35962186D01*
X191450378Y-35924586D01*
X191472775Y-35890949D01*
X191492325Y-35861579D01*
X191508826Y-35836780D01*
X191522075Y-35816857D01*
X191531870Y-35802112D01*
X191538008Y-35792851D01*
X191540287Y-35789376D01*
X191539581Y-35789050D01*
X191536327Y-35788684D01*
X191530286Y-35788338D01*
X191521284Y-35788012D01*
X191509147Y-35787706D01*
X191493701Y-35787418D01*
X191474770Y-35787148D01*
X191452180Y-35786896D01*
X191425758Y-35786661D01*
X191395328Y-35786443D01*
X191360717Y-35786242D01*
X191321749Y-35786055D01*
X191278251Y-35785885D01*
X191230048Y-35785728D01*
X191176966Y-35785586D01*
X191118830Y-35785458D01*
X191055466Y-35785343D01*
X190986699Y-35785240D01*
X190912355Y-35785150D01*
X190832260Y-35785071D01*
X190746240Y-35785004D01*
X190654119Y-35784947D01*
X190555723Y-35784900D01*
X190450879Y-35784863D01*
X190339411Y-35784835D01*
X190221146Y-35784816D01*
X190095909Y-35784804D01*
X189963524Y-35784801D01*
X188384072Y-35784801D01*
X188382595Y-36025477D01*
X188382567Y-36030054D01*
X188382268Y-36079077D01*
X188381980Y-36121426D01*
X188381649Y-36157696D01*
X188381224Y-36188482D01*
X188380652Y-36214381D01*
X188379880Y-36235986D01*
X188378856Y-36253893D01*
X188377528Y-36268697D01*
X188375844Y-36280994D01*
X188373750Y-36291379D01*
X188371195Y-36300446D01*
X188368126Y-36308791D01*
X188364492Y-36317010D01*
X188360238Y-36325697D01*
X188355314Y-36335447D01*
X188348271Y-36347716D01*
X188331689Y-36370071D01*
X188311484Y-36391656D01*
X188289661Y-36410422D01*
X188268228Y-36424320D01*
X188249613Y-36433030D01*
X188212876Y-36444771D01*
X188175193Y-36450276D01*
X188137611Y-36449606D01*
X188101174Y-36442820D01*
X188066928Y-36429977D01*
X188035919Y-36411137D01*
X188030902Y-36407049D01*
X188020578Y-36398235D01*
X188005588Y-36385226D01*
X187986305Y-36368357D01*
X187963107Y-36347963D01*
X187936369Y-36324380D01*
X187906467Y-36297942D01*
X187873776Y-36268986D01*
X187838672Y-36237846D01*
X187801531Y-36204858D01*
X187762729Y-36170357D01*
X187722641Y-36134678D01*
X187681643Y-36098156D01*
X187640111Y-36061128D01*
X187598420Y-36023927D01*
X187556947Y-35986890D01*
X187516066Y-35950351D01*
X187476155Y-35914646D01*
X187437588Y-35880111D01*
X187400741Y-35847080D01*
X187365990Y-35815888D01*
X187333711Y-35786872D01*
X187304279Y-35760366D01*
X187278070Y-35736705D01*
X187255460Y-35716226D01*
X187236825Y-35699262D01*
X187222540Y-35686150D01*
X187212981Y-35677225D01*
X187208523Y-35672822D01*
X187206943Y-35671004D01*
X187180213Y-35634630D01*
X187159543Y-35595072D01*
X187144927Y-35553150D01*
X187136359Y-35509682D01*
X187133832Y-35465487D01*
X187137341Y-35421386D01*
X187146879Y-35378196D01*
X187162439Y-35336737D01*
X187184017Y-35297828D01*
X187211606Y-35262288D01*
X187215686Y-35258327D01*
X187224965Y-35249747D01*
X187238991Y-35236968D01*
X187257386Y-35220326D01*
X187279775Y-35200157D01*
X187305781Y-35176794D01*
X187335027Y-35150573D01*
X187367136Y-35121829D01*
X187401732Y-35090897D01*
X187438438Y-35058113D01*
X187476878Y-35023811D01*
X187516675Y-34988327D01*
X187557453Y-34951995D01*
X187598834Y-34915151D01*
X187640443Y-34878129D01*
X187681902Y-34841266D01*
X187722835Y-34804895D01*
X187762865Y-34769352D01*
X187801616Y-34734972D01*
X187838711Y-34702091D01*
X187873774Y-34671043D01*
X187906428Y-34642163D01*
X187936296Y-34615786D01*
X187963002Y-34592248D01*
X187986169Y-34571884D01*
X188005420Y-34555028D01*
X188020379Y-34542016D01*
X188030670Y-34533183D01*
X188035915Y-34528864D01*
X188051273Y-34518492D01*
X188084178Y-34502609D01*
X188119742Y-34492814D01*
X188156948Y-34489165D01*
X188194776Y-34491719D01*
X188232209Y-34500534D01*
X188268228Y-34515669D01*
X188270556Y-34516927D01*
X188290072Y-34529988D01*
X188310332Y-34547302D01*
X188329505Y-34567004D01*
X188345758Y-34587234D01*
X188357257Y-34606130D01*
X188361684Y-34615281D01*
X188365674Y-34623830D01*
X188369086Y-34631976D01*
X188371967Y-34640312D01*
X188374367Y-34649433D01*
X188376334Y-34659933D01*
X188377918Y-34672406D01*
X188379168Y-34687447D01*
X188380133Y-34705648D01*
X188380861Y-34727606D01*
X188381402Y-34753913D01*
X188381804Y-34785164D01*
X188382117Y-34821954D01*
X188382389Y-34864876D01*
X188382669Y-34914524D01*
X188384031Y-35155200D01*
X190431912Y-35155200D01*
X192479794Y-35155200D01*
X192473387Y-35145134D01*
X192469430Y-35138970D01*
X192459774Y-35124140D01*
X192446736Y-35104292D01*
X192430563Y-35079796D01*
X192411505Y-35051023D01*
X192389808Y-35018342D01*
X192365722Y-34982124D01*
X192339495Y-34942740D01*
X192311374Y-34900559D01*
X192281608Y-34855952D01*
X192250444Y-34809289D01*
X192218132Y-34760941D01*
X192184919Y-34711277D01*
X192151053Y-34660668D01*
X192116783Y-34609485D01*
X192082357Y-34558097D01*
X192048023Y-34506875D01*
X192014028Y-34456189D01*
X191980622Y-34406409D01*
X191948052Y-34357906D01*
X191916567Y-34311050D01*
X191886414Y-34266212D01*
X191857843Y-34223761D01*
X191831100Y-34184067D01*
X191806435Y-34147502D01*
X191784094Y-34114435D01*
X191764328Y-34085237D01*
X191747383Y-34060277D01*
X191733508Y-34039927D01*
X191722951Y-34024557D01*
X191715960Y-34014536D01*
X191712783Y-34010235D01*
X191698665Y-33995638D01*
X191664098Y-33967215D01*
X191624350Y-33943602D01*
X191579073Y-33924578D01*
X191544375Y-33912470D01*
X191326577Y-33911447D01*
X191108779Y-33910424D01*
X191085305Y-33945627D01*
X191058924Y-33982149D01*
X191015713Y-34031688D01*
X190967508Y-34076221D01*
X190914771Y-34115451D01*
X190857961Y-34149085D01*
X190797538Y-34176827D01*
X190733962Y-34198382D01*
X190667692Y-34213456D01*
X190656180Y-34215194D01*
X190626231Y-34218044D01*
X190592213Y-34219476D01*
X190556272Y-34219512D01*
X190520555Y-34218172D01*
X190487210Y-34215476D01*
X190458383Y-34211446D01*
X190420418Y-34203311D01*
X190356770Y-34183889D01*
X190295680Y-34157904D01*
X190237682Y-34125703D01*
X190183308Y-34087638D01*
X190133092Y-34044059D01*
X190087567Y-33995314D01*
X190047267Y-33941754D01*
X190043019Y-33935187D01*
X190030925Y-33914570D01*
X190017755Y-33889931D01*
X190004503Y-33863313D01*
X189992167Y-33836759D01*
X189981743Y-33812311D01*
X189974228Y-33792014D01*
X189960988Y-33745479D01*
X189948685Y-33679892D01*
X189943432Y-33613817D01*
X189945149Y-33547789D01*
X189953758Y-33482345D01*
X189969181Y-33418020D01*
X189991340Y-33355350D01*
X190020155Y-33294869D01*
X190055549Y-33237114D01*
X190061843Y-33228322D01*
X190082243Y-33202898D01*
X190106707Y-33175754D01*
X190133664Y-33148437D01*
X190161545Y-33122499D01*
X190188778Y-33099489D01*
X190213794Y-33080957D01*
X190253863Y-33055938D01*
X190314233Y-33025220D01*
X190376585Y-33001320D01*
X190440463Y-32984276D01*
X190505411Y-32974128D01*
X190570974Y-32970915D01*
X190636697Y-32974675D01*
G37*
G36*
X97588446Y-37614463D02*
G01*
X97659133Y-37629767D01*
X97723970Y-37660367D01*
X97775569Y-37704017D01*
X97818018Y-37762462D01*
X97849711Y-37831612D01*
X97870017Y-37907991D01*
X97878307Y-37988124D01*
X97873950Y-38068534D01*
X97856316Y-38145747D01*
X97824774Y-38216287D01*
X97797090Y-38254542D01*
X97755864Y-38296327D01*
X97710272Y-38331222D01*
X97666758Y-38353624D01*
X97652757Y-38357880D01*
X97601318Y-38366434D01*
X97542423Y-38368663D01*
X97484716Y-38364550D01*
X97436840Y-38354079D01*
X97390631Y-38331290D01*
X97340993Y-38293043D01*
X97297372Y-38245935D01*
X97265618Y-38195389D01*
X97264076Y-38192093D01*
X97235598Y-38109605D01*
X97222861Y-38022559D01*
X97225432Y-37934804D01*
X97242878Y-37850188D01*
X97274767Y-37772560D01*
X97320666Y-37705770D01*
X97328762Y-37697027D01*
X97382067Y-37655737D01*
X97445835Y-37627907D01*
X97515987Y-37613996D01*
X97588446Y-37614463D01*
G37*
G36*
X90890000Y-39040000D02*
G01*
X90890000Y-39160000D01*
X90865000Y-39160000D01*
X90850274Y-39158358D01*
X90841868Y-39148669D01*
X90840000Y-39125000D01*
X90838484Y-39102175D01*
X90830437Y-39092036D01*
X90810816Y-39090000D01*
X90799617Y-39090835D01*
X90779073Y-39100583D01*
X90760000Y-39125000D01*
X90759184Y-39126309D01*
X90737355Y-39151952D01*
X90714185Y-39160000D01*
X90699868Y-39159258D01*
X90691734Y-39153971D01*
X90695468Y-39140126D01*
X90710777Y-39113744D01*
X90731553Y-39080127D01*
X90710777Y-39053715D01*
X90708727Y-39051026D01*
X90692116Y-39014369D01*
X90693086Y-38996372D01*
X90740764Y-38996372D01*
X90743973Y-39021612D01*
X90759343Y-39039648D01*
X90780435Y-39046624D01*
X90809343Y-39050000D01*
X90821234Y-39049740D01*
X90834127Y-39045768D01*
X90839149Y-39032665D01*
X90840000Y-39005000D01*
X90840000Y-38960000D01*
X90802000Y-38960000D01*
X90796612Y-38960115D01*
X90769352Y-38964101D01*
X90752000Y-38972000D01*
X90750737Y-38973332D01*
X90740764Y-38996372D01*
X90693086Y-38996372D01*
X90694103Y-38977500D01*
X90714546Y-38944545D01*
X90715736Y-38943364D01*
X90730806Y-38931004D01*
X90748426Y-38923940D01*
X90774403Y-38920747D01*
X90814546Y-38920000D01*
X90890000Y-38920000D01*
X90890000Y-38960000D01*
X90890000Y-39040000D01*
G37*
G36*
X91033926Y-39114853D02*
G01*
X91010601Y-39171162D01*
X90973809Y-39220546D01*
X90924043Y-39259978D01*
X90861795Y-39286430D01*
X90861172Y-39286602D01*
X90793538Y-39295746D01*
X90729183Y-39286926D01*
X90670704Y-39262149D01*
X90620699Y-39223422D01*
X90581765Y-39172750D01*
X90556499Y-39112142D01*
X90547500Y-39043605D01*
X90548742Y-39025111D01*
X90598085Y-39025111D01*
X90601014Y-39081952D01*
X90619232Y-39135363D01*
X90652123Y-39181551D01*
X90699073Y-39216723D01*
X90705545Y-39219988D01*
X90763804Y-39237873D01*
X90824627Y-39238675D01*
X90882914Y-39222948D01*
X90933565Y-39191248D01*
X90953661Y-39169708D01*
X90979209Y-39122095D01*
X90990875Y-39067238D01*
X90988530Y-39009860D01*
X90972046Y-38954684D01*
X90941295Y-38906435D01*
X90941074Y-38906185D01*
X90900935Y-38874799D01*
X90850455Y-38855984D01*
X90794813Y-38849741D01*
X90739187Y-38856068D01*
X90688759Y-38874966D01*
X90648706Y-38906435D01*
X90640558Y-38916309D01*
X90611061Y-38968632D01*
X90598085Y-39025111D01*
X90548742Y-39025111D01*
X90549863Y-39008409D01*
X90567117Y-38945319D01*
X90598757Y-38891196D01*
X90641998Y-38847522D01*
X90694055Y-38815778D01*
X90752141Y-38797444D01*
X90813471Y-38794003D01*
X90875260Y-38806934D01*
X90934721Y-38837720D01*
X90982721Y-38880909D01*
X91018182Y-38934646D01*
X91038209Y-38993568D01*
X91043293Y-39054646D01*
X91041334Y-39067238D01*
X91033926Y-39114853D01*
G37*
G36*
X96712454Y-38257500D02*
G01*
X96709908Y-39300000D01*
X94327454Y-39299959D01*
X94318447Y-39299959D01*
X94056294Y-39299967D01*
X93813333Y-39299985D01*
X93588783Y-39299995D01*
X93381862Y-39299976D01*
X93191788Y-39299911D01*
X93017779Y-39299779D01*
X92859053Y-39299562D01*
X92714829Y-39299240D01*
X92584324Y-39298795D01*
X92466758Y-39298207D01*
X92361348Y-39297458D01*
X92267312Y-39296527D01*
X92183869Y-39295397D01*
X92110237Y-39294047D01*
X92045634Y-39292458D01*
X91989278Y-39290613D01*
X91940387Y-39288490D01*
X91898181Y-39286072D01*
X91861876Y-39283340D01*
X91830691Y-39280273D01*
X91803845Y-39276853D01*
X91780555Y-39273061D01*
X91760040Y-39268877D01*
X91741517Y-39264283D01*
X91724206Y-39259259D01*
X91707325Y-39253787D01*
X91690091Y-39247847D01*
X91671722Y-39241419D01*
X91651438Y-39234486D01*
X91582794Y-39209452D01*
X91435913Y-39140857D01*
X91299398Y-39055680D01*
X91174518Y-38954891D01*
X91062545Y-38839461D01*
X90964750Y-38710359D01*
X90907638Y-38617614D01*
X90839935Y-38479904D01*
X90790573Y-38337836D01*
X90758688Y-38188754D01*
X90743415Y-38030000D01*
X90743271Y-38026654D01*
X90746126Y-37864631D01*
X90767752Y-37707127D01*
X90807259Y-37555430D01*
X90863754Y-37410830D01*
X90936346Y-37274613D01*
X90988113Y-37200000D01*
X91770000Y-37200000D01*
X91770043Y-37412500D01*
X91770086Y-37625000D01*
X91852543Y-37625168D01*
X91858168Y-37625187D01*
X91900724Y-37626418D01*
X91931705Y-37630718D01*
X91958676Y-37639747D01*
X91989206Y-37655168D01*
X92037201Y-37688614D01*
X92085928Y-37743932D01*
X92121247Y-37813179D01*
X92142743Y-37895490D01*
X92150000Y-37989999D01*
X92149437Y-38016213D01*
X92138180Y-38105042D01*
X92113314Y-38182605D01*
X92075946Y-38247656D01*
X92027182Y-38298947D01*
X91968130Y-38335232D01*
X91899896Y-38355265D01*
X91823585Y-38357798D01*
X91770000Y-38353354D01*
X91770000Y-38561677D01*
X91770000Y-38770000D01*
X91882500Y-38768823D01*
X91978743Y-38764582D01*
X92047629Y-38755000D01*
X92755000Y-38755000D01*
X93007500Y-38757671D01*
X93260000Y-38760343D01*
X93260000Y-37985000D01*
X93260000Y-37209656D01*
X93360000Y-37209656D01*
X93360000Y-37984828D01*
X93360000Y-38760000D01*
X93610314Y-38760000D01*
X93633534Y-38759984D01*
X93710452Y-38759610D01*
X93769653Y-38758671D01*
X93812942Y-38757079D01*
X93842126Y-38754745D01*
X93859010Y-38751582D01*
X93865400Y-38747500D01*
X93865485Y-38747152D01*
X93866204Y-38733256D01*
X93866822Y-38701104D01*
X93867334Y-38652265D01*
X93867736Y-38588308D01*
X93868023Y-38510804D01*
X93868191Y-38421322D01*
X93868236Y-38321430D01*
X93868153Y-38212700D01*
X93867938Y-38096700D01*
X93867586Y-37975000D01*
X93865009Y-37217500D01*
X93926948Y-37217500D01*
X93928792Y-37224550D01*
X93936833Y-37248841D01*
X93950649Y-37288780D01*
X93969618Y-37342657D01*
X93993119Y-37408764D01*
X94020531Y-37485391D01*
X94051230Y-37570830D01*
X94084597Y-37663372D01*
X94120009Y-37761308D01*
X94156844Y-37862929D01*
X94194481Y-37966526D01*
X94232298Y-38070390D01*
X94269674Y-38172812D01*
X94305986Y-38272083D01*
X94324085Y-38321430D01*
X94340614Y-38366495D01*
X94372935Y-38454338D01*
X94402328Y-38533903D01*
X94428171Y-38603482D01*
X94449842Y-38661365D01*
X94466721Y-38705844D01*
X94478184Y-38735209D01*
X94483612Y-38747752D01*
X94490919Y-38751643D01*
X94509930Y-38754870D01*
X94542179Y-38757238D01*
X94589354Y-38758827D01*
X94653144Y-38759720D01*
X94735239Y-38760000D01*
X94793975Y-38759945D01*
X94857192Y-38759616D01*
X94904591Y-38758843D01*
X94938569Y-38757459D01*
X94961522Y-38755298D01*
X94975847Y-38752195D01*
X94983943Y-38747984D01*
X94988205Y-38742500D01*
X94992541Y-38730582D01*
X95002193Y-38701262D01*
X95016469Y-38656642D01*
X95034755Y-38598682D01*
X95056435Y-38529342D01*
X95080894Y-38450580D01*
X95107517Y-38364357D01*
X95135689Y-38272632D01*
X95135739Y-38272468D01*
X95163695Y-38181776D01*
X95190018Y-38097462D01*
X95214116Y-38021348D01*
X95235394Y-37955259D01*
X95253261Y-37901019D01*
X95267123Y-37860452D01*
X95276385Y-37835382D01*
X95280455Y-37827632D01*
X95283201Y-37834475D01*
X95291479Y-37858791D01*
X95304520Y-37898756D01*
X95321706Y-37952419D01*
X95342416Y-38017827D01*
X95366028Y-38093028D01*
X95391923Y-38176069D01*
X95419480Y-38265000D01*
X95439866Y-38330869D01*
X95466805Y-38417518D01*
X95491862Y-38497679D01*
X95514373Y-38569249D01*
X95533672Y-38630121D01*
X95549095Y-38678190D01*
X95559975Y-38711351D01*
X95565648Y-38727500D01*
X95578980Y-38760000D01*
X95823900Y-38760000D01*
X95862182Y-38759902D01*
X95931200Y-38759166D01*
X95989202Y-38757778D01*
X96033943Y-38755823D01*
X96063177Y-38753386D01*
X96074660Y-38750551D01*
X96078085Y-38742324D01*
X96087856Y-38716712D01*
X96103224Y-38675532D01*
X96123566Y-38620503D01*
X96148260Y-38553342D01*
X96176682Y-38475766D01*
X96208209Y-38389494D01*
X96242218Y-38296242D01*
X96278086Y-38197729D01*
X96315190Y-38095672D01*
X96352906Y-37991789D01*
X96390611Y-37887797D01*
X96427683Y-37785414D01*
X96463498Y-37686358D01*
X96497433Y-37592345D01*
X96528866Y-37505094D01*
X96557172Y-37426323D01*
X96581728Y-37357748D01*
X96601913Y-37301088D01*
X96617102Y-37258060D01*
X96626672Y-37230382D01*
X96630000Y-37219771D01*
X96629756Y-37219180D01*
X96616745Y-37215932D01*
X96584218Y-37213611D01*
X96532578Y-37212230D01*
X96462226Y-37211799D01*
X96373564Y-37212331D01*
X96117127Y-37215000D01*
X95966326Y-37726928D01*
X95952002Y-37775457D01*
X95924061Y-37869564D01*
X95897991Y-37956637D01*
X95874325Y-38034940D01*
X95853596Y-38102733D01*
X95836339Y-38158279D01*
X95823085Y-38199840D01*
X95814369Y-38225678D01*
X95810723Y-38234056D01*
X95809810Y-38231885D01*
X95803973Y-38213896D01*
X95793365Y-38179254D01*
X95778518Y-38129752D01*
X95759963Y-38067184D01*
X95738229Y-37993344D01*
X95713849Y-37910026D01*
X95687351Y-37819022D01*
X95659267Y-37722127D01*
X95512613Y-37215000D01*
X95269174Y-37215000D01*
X95025735Y-37215000D01*
X94875964Y-37727855D01*
X94861262Y-37778025D01*
X94833518Y-37871727D01*
X94807567Y-37958128D01*
X94783940Y-38035525D01*
X94763172Y-38102216D01*
X94745796Y-38156497D01*
X94732345Y-38196666D01*
X94723353Y-38221020D01*
X94719353Y-38227855D01*
X94718877Y-38226723D01*
X94713555Y-38210620D01*
X94703311Y-38177634D01*
X94688708Y-38129637D01*
X94670308Y-38068500D01*
X94648672Y-37996096D01*
X94624361Y-37914296D01*
X94597939Y-37824974D01*
X94569965Y-37730000D01*
X94563532Y-37708125D01*
X94535768Y-37614033D01*
X94509608Y-37525868D01*
X94485624Y-37445525D01*
X94464387Y-37374900D01*
X94446470Y-37315889D01*
X94432444Y-37270388D01*
X94422883Y-37240293D01*
X94418357Y-37227500D01*
X94415825Y-37223727D01*
X94409217Y-37219059D01*
X94397158Y-37215578D01*
X94377224Y-37213114D01*
X94346990Y-37211495D01*
X94304031Y-37210550D01*
X94245922Y-37210109D01*
X94170239Y-37210000D01*
X94124703Y-37210136D01*
X94061971Y-37210811D01*
X94008027Y-37211970D01*
X93965673Y-37213529D01*
X93937712Y-37215401D01*
X93926948Y-37217500D01*
X93865009Y-37217500D01*
X93865000Y-37215000D01*
X93612500Y-37212328D01*
X93360000Y-37209656D01*
X93260000Y-37209656D01*
X93007500Y-37212328D01*
X92755000Y-37215000D01*
X92755000Y-37985000D01*
X92755000Y-37998709D01*
X92755000Y-38755000D01*
X92047629Y-38755000D01*
X92091547Y-38748891D01*
X92192344Y-38720703D01*
X92283945Y-38678940D01*
X92369157Y-38622521D01*
X92450790Y-38550366D01*
X92502280Y-38494341D01*
X92561313Y-38411495D01*
X92606757Y-38319982D01*
X92641343Y-38215000D01*
X92652117Y-38162463D01*
X92660812Y-38084206D01*
X92664058Y-37998709D01*
X92661856Y-37912595D01*
X92654211Y-37832485D01*
X92641125Y-37765000D01*
X92623605Y-37707178D01*
X92575044Y-37592545D01*
X92512182Y-37491513D01*
X92435722Y-37404601D01*
X92346371Y-37332328D01*
X92244830Y-37275212D01*
X92131806Y-37233773D01*
X92008001Y-37208529D01*
X91874121Y-37199999D01*
X91770000Y-37200000D01*
X90988113Y-37200000D01*
X91024143Y-37148069D01*
X91126254Y-37032487D01*
X91241786Y-36929154D01*
X91369850Y-36839358D01*
X91509551Y-36764389D01*
X91660000Y-36705535D01*
X91677914Y-36699599D01*
X91695336Y-36693646D01*
X91711612Y-36688101D01*
X91727445Y-36682951D01*
X91743540Y-36678180D01*
X91760603Y-36673774D01*
X91779338Y-36669719D01*
X91800450Y-36666000D01*
X91824644Y-36662603D01*
X91852625Y-36659513D01*
X91885098Y-36656716D01*
X91922768Y-36654197D01*
X91966340Y-36651942D01*
X92016518Y-36649937D01*
X92074008Y-36648167D01*
X92139514Y-36646617D01*
X92213742Y-36645273D01*
X92297395Y-36644121D01*
X92391180Y-36643145D01*
X92495802Y-36642333D01*
X92611964Y-36641668D01*
X92740372Y-36641138D01*
X92881731Y-36640726D01*
X93036745Y-36640419D01*
X93206121Y-36640203D01*
X93390562Y-36640062D01*
X93590773Y-36639983D01*
X93807460Y-36639950D01*
X94041327Y-36639950D01*
X94293080Y-36639968D01*
X94563423Y-36639989D01*
X94853060Y-36639999D01*
X94949036Y-36640002D01*
X95262416Y-36640049D01*
X95556150Y-36640156D01*
X95830509Y-36640323D01*
X96085765Y-36640553D01*
X96322193Y-36640845D01*
X96540064Y-36641201D01*
X96739651Y-36641622D01*
X96921227Y-36642109D01*
X97085064Y-36642662D01*
X97231434Y-36643284D01*
X97360611Y-36643974D01*
X97472867Y-36644734D01*
X97568475Y-36645565D01*
X97647707Y-36646468D01*
X97710835Y-36647443D01*
X97758134Y-36648493D01*
X97789874Y-36649617D01*
X97806329Y-36650817D01*
X97928268Y-36673463D01*
X98081359Y-36718851D01*
X98226127Y-36781073D01*
X98361401Y-36858998D01*
X98486011Y-36951497D01*
X98598786Y-37057439D01*
X98698556Y-37175695D01*
X98784151Y-37305135D01*
X98854399Y-37444630D01*
X98908132Y-37593048D01*
X98944178Y-37749262D01*
X98953676Y-37827605D01*
X98958644Y-37919105D01*
X98958848Y-38014738D01*
X98954276Y-38106784D01*
X98944914Y-38187524D01*
X98916831Y-38317632D01*
X98866335Y-38467657D01*
X98798506Y-38610156D01*
X98714506Y-38743539D01*
X98615495Y-38866214D01*
X98502634Y-38976589D01*
X98377082Y-39073074D01*
X98240000Y-39154078D01*
X98142827Y-39199766D01*
X98022025Y-39244374D01*
X97901917Y-39274404D01*
X97895638Y-39275612D01*
X97856571Y-39283182D01*
X97824200Y-39289546D01*
X97805000Y-39293430D01*
X97804158Y-39293575D01*
X97786894Y-39294718D01*
X97752742Y-39295820D01*
X97704464Y-39296833D01*
X97644823Y-39297706D01*
X97576582Y-39298392D01*
X97502500Y-39298839D01*
X97220000Y-39300000D01*
X97220000Y-38933477D01*
X97220000Y-38566955D01*
X97277500Y-38621677D01*
X97331193Y-38667934D01*
X97405059Y-38715485D01*
X97484518Y-38747803D01*
X97573266Y-38766287D01*
X97675000Y-38772340D01*
X97763402Y-38768204D01*
X97879868Y-38747589D01*
X97986215Y-38709942D01*
X98081949Y-38655562D01*
X98166577Y-38584747D01*
X98239605Y-38497793D01*
X98300540Y-38395000D01*
X98306493Y-38382844D01*
X98334120Y-38321406D01*
X98354568Y-38264078D01*
X98368797Y-38206068D01*
X98377770Y-38142581D01*
X98382449Y-38068822D01*
X98383795Y-37980000D01*
X98383603Y-37927434D01*
X98382550Y-37871168D01*
X98380244Y-37827200D01*
X98376306Y-37791121D01*
X98370362Y-37758523D01*
X98362035Y-37725000D01*
X98333496Y-37639126D01*
X98282636Y-37534282D01*
X98218292Y-37441159D01*
X98141910Y-37361214D01*
X98054936Y-37295901D01*
X97958817Y-37246676D01*
X97855000Y-37214993D01*
X97811107Y-37207830D01*
X97739017Y-37201945D01*
X97663182Y-37201247D01*
X97591290Y-37205726D01*
X97531032Y-37215374D01*
X97486756Y-37228372D01*
X97408908Y-37261907D01*
X97335081Y-37306000D01*
X97273221Y-37356307D01*
X97220000Y-37408267D01*
X97220000Y-37308962D01*
X97220000Y-37209656D01*
X96967500Y-37212328D01*
X96715000Y-37215000D01*
X96714988Y-37219771D01*
X96712454Y-38257500D01*
G37*
G36*
X62055358Y-37870578D02*
G01*
X62320250Y-37919597D01*
X62519587Y-38031808D01*
X62645190Y-38200759D01*
X62688875Y-38420000D01*
X62686766Y-38471549D01*
X62624599Y-38680419D01*
X62482292Y-38837599D01*
X62268026Y-38936638D01*
X61989983Y-38971084D01*
X61737002Y-38971084D01*
X61737002Y-38420000D01*
X61737002Y-37868915D01*
X61989983Y-37868915D01*
X62055358Y-37870578D01*
G37*
G36*
X59131873Y-37367929D02*
G01*
X59131873Y-37868915D01*
X60259092Y-37868915D01*
X61386311Y-37868915D01*
X61386311Y-38420000D01*
X61386311Y-38971084D01*
X60259092Y-38971084D01*
X59131873Y-38971084D01*
X59131873Y-39472071D01*
X59131873Y-39973057D01*
X56961676Y-39973057D01*
X56573466Y-39972890D01*
X56069934Y-39971556D01*
X55650800Y-39968039D01*
X55306595Y-39961342D01*
X55027848Y-39950472D01*
X54805090Y-39934433D01*
X54628852Y-39912233D01*
X54489663Y-39882875D01*
X54378054Y-39845366D01*
X54284555Y-39798710D01*
X54199696Y-39741914D01*
X54114007Y-39673983D01*
X54043033Y-39605902D01*
X53909733Y-39440351D01*
X53800891Y-39261918D01*
X53790520Y-39240941D01*
X53736787Y-39120139D01*
X53702013Y-39003799D01*
X53682165Y-38865765D01*
X53673212Y-38679884D01*
X53671124Y-38420000D01*
X53671161Y-38373453D01*
X53674056Y-38126856D01*
X53684445Y-37950175D01*
X53706360Y-37817255D01*
X53743832Y-37701942D01*
X53800891Y-37578081D01*
X53856728Y-37479276D01*
X53984125Y-37301747D01*
X54114007Y-37166016D01*
X54171825Y-37119339D01*
X54255909Y-37058959D01*
X54345492Y-37009049D01*
X54450043Y-36968616D01*
X54579032Y-36936664D01*
X54741929Y-36912199D01*
X54948203Y-36894227D01*
X55207324Y-36881752D01*
X55528763Y-36873781D01*
X55921988Y-36869319D01*
X56396469Y-36867371D01*
X56961676Y-36866942D01*
X59131873Y-36866942D01*
X59131873Y-37367929D01*
G37*
G36*
X250052681Y-46074621D02*
G01*
X250137297Y-46092067D01*
X250214925Y-46123956D01*
X250281715Y-46169855D01*
X250290458Y-46177951D01*
X250331748Y-46231256D01*
X250359578Y-46295024D01*
X250373489Y-46365176D01*
X250373022Y-46437635D01*
X250357718Y-46508322D01*
X250327118Y-46573159D01*
X250283468Y-46624758D01*
X250225023Y-46667207D01*
X250155873Y-46698900D01*
X250079494Y-46719206D01*
X249999361Y-46727496D01*
X249918951Y-46723139D01*
X249841738Y-46705505D01*
X249771198Y-46673963D01*
X249732943Y-46646279D01*
X249691158Y-46605053D01*
X249656263Y-46559461D01*
X249633861Y-46515947D01*
X249629605Y-46501946D01*
X249621051Y-46450507D01*
X249618822Y-46391612D01*
X249622935Y-46333905D01*
X249633406Y-46286029D01*
X249656195Y-46239820D01*
X249694442Y-46190182D01*
X249741550Y-46146561D01*
X249792096Y-46114807D01*
X249795392Y-46113265D01*
X249877880Y-46084787D01*
X249964926Y-46072050D01*
X250052681Y-46074621D01*
G37*
G36*
X248847359Y-39544657D02*
G01*
X248873741Y-39559966D01*
X248907358Y-39580742D01*
X248933770Y-39559966D01*
X248936459Y-39557916D01*
X248973116Y-39541305D01*
X249009985Y-39543292D01*
X249042940Y-39563735D01*
X249044121Y-39564925D01*
X249056481Y-39579995D01*
X249063545Y-39597615D01*
X249066738Y-39623592D01*
X249067485Y-39663735D01*
X249067485Y-39739189D01*
X249027485Y-39739189D01*
X248947485Y-39739189D01*
X248827485Y-39739189D01*
X248827485Y-39714189D01*
X248829127Y-39699463D01*
X248838816Y-39691057D01*
X248862485Y-39689189D01*
X248885310Y-39687673D01*
X248895449Y-39679626D01*
X248897485Y-39660005D01*
X248897375Y-39658532D01*
X248937485Y-39658532D01*
X248937745Y-39670423D01*
X248941717Y-39683316D01*
X248954820Y-39688338D01*
X248982485Y-39689189D01*
X249027485Y-39689189D01*
X249027485Y-39651189D01*
X249027370Y-39645801D01*
X249023384Y-39618541D01*
X249015485Y-39601189D01*
X249014153Y-39599926D01*
X248991113Y-39589953D01*
X248965873Y-39593162D01*
X248947837Y-39608532D01*
X248940861Y-39629624D01*
X248937485Y-39658532D01*
X248897375Y-39658532D01*
X248896650Y-39648806D01*
X248886902Y-39628262D01*
X248862485Y-39609189D01*
X248861176Y-39608373D01*
X248835533Y-39586544D01*
X248827485Y-39563374D01*
X248828227Y-39549057D01*
X248833514Y-39540923D01*
X248847359Y-39544657D01*
G37*
G36*
X248979076Y-39399052D02*
G01*
X249042166Y-39416306D01*
X249096289Y-39447946D01*
X249139963Y-39491187D01*
X249171707Y-39543244D01*
X249190041Y-39601330D01*
X249193482Y-39662660D01*
X249180551Y-39724449D01*
X249149765Y-39783910D01*
X249106576Y-39831910D01*
X249052839Y-39867371D01*
X248993917Y-39887398D01*
X248932839Y-39892482D01*
X248920247Y-39890523D01*
X248872632Y-39883115D01*
X248816323Y-39859790D01*
X248766939Y-39822998D01*
X248727507Y-39773232D01*
X248701055Y-39710984D01*
X248700883Y-39710361D01*
X248695942Y-39673816D01*
X248748810Y-39673816D01*
X248764537Y-39732103D01*
X248796237Y-39782754D01*
X248817777Y-39802850D01*
X248865390Y-39828398D01*
X248920247Y-39840064D01*
X248977625Y-39837719D01*
X249032801Y-39821235D01*
X249081050Y-39790484D01*
X249081300Y-39790263D01*
X249112686Y-39750124D01*
X249131501Y-39699644D01*
X249137744Y-39644002D01*
X249131417Y-39588376D01*
X249112519Y-39537948D01*
X249081050Y-39497895D01*
X249071176Y-39489747D01*
X249018853Y-39460250D01*
X248962374Y-39447274D01*
X248905533Y-39450203D01*
X248852122Y-39468421D01*
X248805934Y-39501312D01*
X248770762Y-39548262D01*
X248767497Y-39554734D01*
X248749612Y-39612993D01*
X248748810Y-39673816D01*
X248695942Y-39673816D01*
X248691739Y-39642727D01*
X248700559Y-39578372D01*
X248725336Y-39519893D01*
X248764063Y-39469888D01*
X248814735Y-39430954D01*
X248875343Y-39405688D01*
X248943880Y-39396689D01*
X248979076Y-39399052D01*
G37*
G36*
X250122854Y-39595315D02*
G01*
X250280358Y-39616941D01*
X250432055Y-39656448D01*
X250576655Y-39712943D01*
X250712872Y-39785535D01*
X250839416Y-39873332D01*
X250954998Y-39975443D01*
X251058331Y-40090975D01*
X251148127Y-40219039D01*
X251223096Y-40358740D01*
X251281950Y-40509189D01*
X251287886Y-40527103D01*
X251293839Y-40544525D01*
X251299384Y-40560801D01*
X251304534Y-40576634D01*
X251309305Y-40592729D01*
X251313711Y-40609792D01*
X251317766Y-40628527D01*
X251321485Y-40649639D01*
X251324882Y-40673833D01*
X251327972Y-40701814D01*
X251330769Y-40734287D01*
X251333288Y-40771957D01*
X251335543Y-40815529D01*
X251337548Y-40865707D01*
X251339318Y-40923197D01*
X251340868Y-40988703D01*
X251342212Y-41062931D01*
X251343364Y-41146584D01*
X251344340Y-41240369D01*
X251345152Y-41344991D01*
X251345817Y-41461153D01*
X251346347Y-41589561D01*
X251346759Y-41730920D01*
X251347066Y-41885934D01*
X251347282Y-42055310D01*
X251347423Y-42239751D01*
X251347502Y-42439962D01*
X251347535Y-42656649D01*
X251347535Y-42890516D01*
X251347517Y-43142269D01*
X251347496Y-43412612D01*
X251347486Y-43702249D01*
X251347483Y-43798225D01*
X251347436Y-44111605D01*
X251347329Y-44405339D01*
X251347162Y-44679698D01*
X251346932Y-44934954D01*
X251346640Y-45171382D01*
X251346284Y-45389253D01*
X251345863Y-45588840D01*
X251345376Y-45770416D01*
X251344823Y-45934253D01*
X251344201Y-46080623D01*
X251343511Y-46209800D01*
X251342751Y-46322056D01*
X251341920Y-46417664D01*
X251341017Y-46496896D01*
X251340042Y-46560024D01*
X251338992Y-46607323D01*
X251337868Y-46639063D01*
X251336668Y-46655518D01*
X251314022Y-46777457D01*
X251268634Y-46930548D01*
X251206412Y-47075316D01*
X251128487Y-47210590D01*
X251035988Y-47335200D01*
X250930046Y-47447975D01*
X250811790Y-47547745D01*
X250682350Y-47633340D01*
X250542855Y-47703588D01*
X250394437Y-47757321D01*
X250238223Y-47793367D01*
X250159880Y-47802865D01*
X250068380Y-47807833D01*
X249972747Y-47808037D01*
X249880701Y-47803465D01*
X249799961Y-47794103D01*
X249669853Y-47766020D01*
X249519828Y-47715524D01*
X249377329Y-47647695D01*
X249243946Y-47563695D01*
X249121271Y-47464684D01*
X249010896Y-47351823D01*
X248914411Y-47226271D01*
X248833407Y-47089189D01*
X248787719Y-46992016D01*
X248743111Y-46871214D01*
X248713081Y-46751106D01*
X248711873Y-46744827D01*
X248704303Y-46705760D01*
X248697939Y-46673389D01*
X248694055Y-46654189D01*
X248693910Y-46653347D01*
X248692767Y-46636083D01*
X248691665Y-46601931D01*
X248690652Y-46553653D01*
X248689779Y-46494012D01*
X248689093Y-46425771D01*
X248688646Y-46351689D01*
X248687485Y-46069189D01*
X249054008Y-46069189D01*
X249420530Y-46069189D01*
X249365808Y-46126689D01*
X249319551Y-46180382D01*
X249272000Y-46254248D01*
X249239682Y-46333707D01*
X249221198Y-46422455D01*
X249215145Y-46524189D01*
X249219281Y-46612591D01*
X249239896Y-46729057D01*
X249277543Y-46835404D01*
X249331923Y-46931138D01*
X249402738Y-47015766D01*
X249489692Y-47088794D01*
X249592485Y-47149729D01*
X249604641Y-47155682D01*
X249666079Y-47183309D01*
X249723407Y-47203757D01*
X249781417Y-47217986D01*
X249844904Y-47226959D01*
X249918663Y-47231638D01*
X250007485Y-47232984D01*
X250060051Y-47232792D01*
X250116317Y-47231739D01*
X250160285Y-47229433D01*
X250196364Y-47225495D01*
X250228962Y-47219551D01*
X250262485Y-47211224D01*
X250348359Y-47182685D01*
X250453203Y-47131825D01*
X250546326Y-47067481D01*
X250626271Y-46991099D01*
X250691584Y-46904125D01*
X250740809Y-46808006D01*
X250772492Y-46704189D01*
X250779655Y-46660296D01*
X250785540Y-46588206D01*
X250786238Y-46512371D01*
X250781759Y-46440479D01*
X250772111Y-46380221D01*
X250759113Y-46335945D01*
X250725578Y-46258097D01*
X250681485Y-46184270D01*
X250631178Y-46122410D01*
X250579218Y-46069189D01*
X250678523Y-46069189D01*
X250777829Y-46069189D01*
X250775157Y-45816689D01*
X250772485Y-45564189D01*
X250767714Y-45564177D01*
X249729985Y-45561643D01*
X248687485Y-45559097D01*
X248687519Y-43584428D01*
X249227485Y-43584428D01*
X249227540Y-43643164D01*
X249227869Y-43706381D01*
X249228642Y-43753780D01*
X249230026Y-43787758D01*
X249232187Y-43810711D01*
X249235290Y-43825036D01*
X249239501Y-43833132D01*
X249244985Y-43837394D01*
X249256903Y-43841730D01*
X249286223Y-43851382D01*
X249330843Y-43865658D01*
X249388803Y-43883944D01*
X249458143Y-43905624D01*
X249536905Y-43930083D01*
X249623128Y-43956706D01*
X249714853Y-43984878D01*
X249715017Y-43984928D01*
X249805709Y-44012884D01*
X249890023Y-44039207D01*
X249966137Y-44063305D01*
X250032226Y-44084583D01*
X250086466Y-44102450D01*
X250127033Y-44116312D01*
X250152103Y-44125574D01*
X250159853Y-44129644D01*
X250153010Y-44132390D01*
X250128694Y-44140668D01*
X250088729Y-44153709D01*
X250035066Y-44170895D01*
X249969658Y-44191605D01*
X249894457Y-44215217D01*
X249811416Y-44241112D01*
X249722485Y-44268669D01*
X249656616Y-44289055D01*
X249569967Y-44315994D01*
X249489806Y-44341051D01*
X249418236Y-44363562D01*
X249357364Y-44382861D01*
X249309295Y-44398284D01*
X249276134Y-44409164D01*
X249259985Y-44414837D01*
X249227485Y-44428169D01*
X249227485Y-44673089D01*
X249227583Y-44711371D01*
X249228319Y-44780389D01*
X249229707Y-44838391D01*
X249231662Y-44883132D01*
X249234099Y-44912366D01*
X249236934Y-44923849D01*
X249245161Y-44927274D01*
X249270773Y-44937045D01*
X249311953Y-44952413D01*
X249366982Y-44972755D01*
X249434143Y-44997449D01*
X249511719Y-45025871D01*
X249597991Y-45057398D01*
X249691243Y-45091407D01*
X249789756Y-45127275D01*
X249891813Y-45164379D01*
X249995696Y-45202095D01*
X250099688Y-45239800D01*
X250202071Y-45276872D01*
X250301127Y-45312687D01*
X250395140Y-45346622D01*
X250482391Y-45378055D01*
X250561162Y-45406361D01*
X250629737Y-45430917D01*
X250686397Y-45451102D01*
X250729425Y-45466291D01*
X250757103Y-45475861D01*
X250767714Y-45479189D01*
X250768305Y-45478945D01*
X250771553Y-45465934D01*
X250773874Y-45433407D01*
X250775255Y-45381767D01*
X250775686Y-45311415D01*
X250775154Y-45222753D01*
X250772485Y-44966316D01*
X250260557Y-44815515D01*
X250212028Y-44801191D01*
X250117921Y-44773250D01*
X250030848Y-44747180D01*
X249952545Y-44723514D01*
X249884752Y-44702785D01*
X249829206Y-44685528D01*
X249787645Y-44672274D01*
X249761807Y-44663558D01*
X249753429Y-44659912D01*
X249755600Y-44658999D01*
X249773589Y-44653162D01*
X249808231Y-44642554D01*
X249857733Y-44627707D01*
X249920301Y-44609152D01*
X249994141Y-44587418D01*
X250077459Y-44563038D01*
X250168463Y-44536540D01*
X250265358Y-44508456D01*
X250772485Y-44361802D01*
X250772485Y-44118363D01*
X250772485Y-43874924D01*
X250259630Y-43725153D01*
X250209460Y-43710451D01*
X250115758Y-43682707D01*
X250029357Y-43656756D01*
X249951960Y-43633129D01*
X249885269Y-43612361D01*
X249830988Y-43594985D01*
X249790819Y-43581534D01*
X249766465Y-43572542D01*
X249759630Y-43568542D01*
X249760762Y-43568066D01*
X249776865Y-43562744D01*
X249809851Y-43552500D01*
X249857848Y-43537897D01*
X249918985Y-43519497D01*
X249991389Y-43497861D01*
X250073189Y-43473550D01*
X250162511Y-43447128D01*
X250257485Y-43419154D01*
X250279360Y-43412721D01*
X250373452Y-43384957D01*
X250461617Y-43358797D01*
X250541960Y-43334813D01*
X250612585Y-43313576D01*
X250671596Y-43295659D01*
X250717097Y-43281633D01*
X250747192Y-43272072D01*
X250759985Y-43267546D01*
X250763758Y-43265014D01*
X250768426Y-43258406D01*
X250771907Y-43246347D01*
X250774371Y-43226413D01*
X250775990Y-43196179D01*
X250776935Y-43153220D01*
X250777376Y-43095111D01*
X250777485Y-43019428D01*
X250777349Y-42973892D01*
X250776674Y-42911160D01*
X250775515Y-42857216D01*
X250773956Y-42814862D01*
X250772084Y-42786901D01*
X250769985Y-42776137D01*
X250762935Y-42777981D01*
X250738644Y-42786022D01*
X250698705Y-42799838D01*
X250644828Y-42818807D01*
X250578721Y-42842308D01*
X250502094Y-42869720D01*
X250416655Y-42900419D01*
X250324113Y-42933786D01*
X250226177Y-42969198D01*
X250124556Y-43006033D01*
X250020959Y-43043670D01*
X249917095Y-43081487D01*
X249814673Y-43118863D01*
X249715402Y-43155175D01*
X249666055Y-43173274D01*
X249620990Y-43189803D01*
X249533147Y-43222124D01*
X249453582Y-43251517D01*
X249384003Y-43277360D01*
X249326120Y-43299031D01*
X249281641Y-43315910D01*
X249252276Y-43327373D01*
X249239733Y-43332801D01*
X249235842Y-43340108D01*
X249232615Y-43359119D01*
X249230247Y-43391368D01*
X249228658Y-43438543D01*
X249227765Y-43502333D01*
X249227485Y-43584428D01*
X248687519Y-43584428D01*
X248687526Y-43176643D01*
X248687526Y-43167636D01*
X248687518Y-42905483D01*
X248687500Y-42662522D01*
X248687490Y-42437972D01*
X248687509Y-42231051D01*
X248687517Y-42209189D01*
X249227485Y-42209189D01*
X249227485Y-42459503D01*
X249227501Y-42482723D01*
X249227875Y-42559641D01*
X249228814Y-42618842D01*
X249230406Y-42662131D01*
X249232740Y-42691315D01*
X249235903Y-42708199D01*
X249239985Y-42714589D01*
X249240333Y-42714674D01*
X249254229Y-42715393D01*
X249286381Y-42716011D01*
X249335220Y-42716523D01*
X249399177Y-42716925D01*
X249476681Y-42717212D01*
X249566163Y-42717380D01*
X249666055Y-42717425D01*
X249774785Y-42717342D01*
X249890785Y-42717127D01*
X250012485Y-42716775D01*
X250772485Y-42714189D01*
X250775157Y-42461689D01*
X250777829Y-42209189D01*
X250002657Y-42209189D01*
X249227485Y-42209189D01*
X248687517Y-42209189D01*
X248687551Y-42109189D01*
X249227142Y-42109189D01*
X250002485Y-42109189D01*
X250777829Y-42109189D01*
X250775157Y-41856689D01*
X250772485Y-41604189D01*
X250002485Y-41604189D01*
X249988776Y-41604189D01*
X249232485Y-41604189D01*
X249229814Y-41856689D01*
X249227142Y-42109189D01*
X248687551Y-42109189D01*
X248687574Y-42040977D01*
X248687706Y-41866968D01*
X248687923Y-41708242D01*
X248688245Y-41564018D01*
X248688690Y-41433513D01*
X248689278Y-41315947D01*
X248690027Y-41210537D01*
X248690958Y-41116501D01*
X248692088Y-41033058D01*
X248693438Y-40959426D01*
X248695027Y-40894823D01*
X248696872Y-40838467D01*
X248698995Y-40789576D01*
X248701413Y-40747370D01*
X248704145Y-40711065D01*
X248707212Y-40679880D01*
X248710632Y-40653034D01*
X248714424Y-40629744D01*
X248716577Y-40619189D01*
X249217485Y-40619189D01*
X249218662Y-40731689D01*
X249222903Y-40827932D01*
X249238594Y-40940736D01*
X249266782Y-41041533D01*
X249308545Y-41133134D01*
X249364964Y-41218346D01*
X249437119Y-41299979D01*
X249493144Y-41351469D01*
X249575990Y-41410502D01*
X249667503Y-41455946D01*
X249772485Y-41490532D01*
X249825022Y-41501306D01*
X249903279Y-41510001D01*
X249988776Y-41513247D01*
X250074890Y-41511045D01*
X250155000Y-41503400D01*
X250222485Y-41490314D01*
X250280307Y-41472794D01*
X250394940Y-41424233D01*
X250495972Y-41361371D01*
X250582884Y-41284911D01*
X250655157Y-41195560D01*
X250712273Y-41094019D01*
X250753712Y-40980995D01*
X250778956Y-40857190D01*
X250787486Y-40723310D01*
X250787485Y-40619189D01*
X250574985Y-40619232D01*
X250362485Y-40619275D01*
X250362317Y-40701732D01*
X250362298Y-40707357D01*
X250361067Y-40749913D01*
X250356767Y-40780894D01*
X250347738Y-40807865D01*
X250332317Y-40838395D01*
X250298871Y-40886390D01*
X250243553Y-40935117D01*
X250174306Y-40970436D01*
X250091995Y-40991932D01*
X249997486Y-40999189D01*
X249971272Y-40998626D01*
X249882443Y-40987369D01*
X249804880Y-40962503D01*
X249739829Y-40925135D01*
X249688538Y-40876371D01*
X249652253Y-40817319D01*
X249632220Y-40749085D01*
X249629687Y-40672774D01*
X249634131Y-40619189D01*
X249425808Y-40619189D01*
X249217485Y-40619189D01*
X248716577Y-40619189D01*
X248718608Y-40609229D01*
X248723202Y-40590706D01*
X248728226Y-40573395D01*
X248733698Y-40556514D01*
X248739638Y-40539280D01*
X248746066Y-40520911D01*
X248752999Y-40500627D01*
X248778033Y-40431983D01*
X248846628Y-40285102D01*
X248931805Y-40148587D01*
X249032594Y-40023707D01*
X249148024Y-39911734D01*
X249277126Y-39813939D01*
X249369871Y-39756827D01*
X249507581Y-39689124D01*
X249649649Y-39639762D01*
X249798731Y-39607877D01*
X249957485Y-39592604D01*
X249960831Y-39592460D01*
X250122854Y-39595315D01*
G37*
G36*
X250327799Y-52194374D02*
G01*
X250451771Y-52318345D01*
X250451771Y-55930000D01*
X250451771Y-59541655D01*
X250328801Y-59664625D01*
X250205832Y-59787594D01*
X245742500Y-59787594D01*
X241279169Y-59787594D01*
X241156200Y-59664625D01*
X241033230Y-59541655D01*
X241033230Y-56924028D01*
X241033230Y-54553278D01*
X241684512Y-54553278D01*
X241684512Y-56844795D01*
X241684512Y-59136312D01*
X245742500Y-59136312D01*
X249800489Y-59136312D01*
X249800489Y-55930000D01*
X249800489Y-52723689D01*
X246656292Y-52723689D01*
X243512096Y-52723689D01*
X242598304Y-53638483D01*
X241684512Y-54553278D01*
X241033230Y-54553278D01*
X241033230Y-54306401D01*
X242134454Y-53201929D01*
X243235678Y-52097456D01*
X246719753Y-52083929D01*
X249800489Y-52071968D01*
X250203828Y-52070402D01*
X250327799Y-52194374D01*
G37*
G36*
X243317738Y-57733570D02*
G01*
X243601095Y-57734972D01*
X243803656Y-57739951D01*
X243942093Y-57750414D01*
X244033073Y-57768264D01*
X244093267Y-57795407D01*
X244139345Y-57833748D01*
X244150268Y-57845092D01*
X244230426Y-57992556D01*
X244215694Y-58144734D01*
X244107539Y-58280999D01*
X244055112Y-58317444D01*
X243985605Y-58347625D01*
X243888961Y-58367234D01*
X243746916Y-58378491D01*
X243541212Y-58383617D01*
X243253585Y-58384833D01*
X243143446Y-58384779D01*
X242891022Y-58383243D01*
X242714524Y-58377611D01*
X242595996Y-58365271D01*
X242517480Y-58343608D01*
X242461022Y-58310010D01*
X242408665Y-58261863D01*
X242309955Y-58122610D01*
X242298019Y-57975145D01*
X242385893Y-57833748D01*
X242393154Y-57826638D01*
X242440399Y-57790257D01*
X242504484Y-57764763D01*
X242602079Y-57748250D01*
X242749853Y-57738814D01*
X242964477Y-57734549D01*
X243262619Y-57733551D01*
X243317738Y-57733570D01*
G37*
G36*
X243508096Y-56481962D02*
G01*
X243723638Y-56486440D01*
X243873092Y-56496755D01*
X243974720Y-56515126D01*
X244046782Y-56543773D01*
X244107539Y-56584919D01*
X244119992Y-56595085D01*
X244220476Y-56733448D01*
X244227416Y-56886019D01*
X244139345Y-57032170D01*
X244132083Y-57039280D01*
X244084839Y-57075661D01*
X244020754Y-57101155D01*
X243923159Y-57117668D01*
X243775384Y-57127104D01*
X243560761Y-57131369D01*
X243262619Y-57132367D01*
X243207500Y-57132348D01*
X242924143Y-57130946D01*
X242721581Y-57125967D01*
X242583145Y-57115504D01*
X242492164Y-57097654D01*
X242431970Y-57070511D01*
X242385893Y-57032170D01*
X242301479Y-56902657D01*
X242305207Y-56755628D01*
X242408665Y-56604055D01*
X242427731Y-56585304D01*
X242479484Y-56542570D01*
X242541650Y-56513467D01*
X242632188Y-56495380D01*
X242769052Y-56485696D01*
X242970199Y-56481802D01*
X243253585Y-56481085D01*
X243508096Y-56481962D01*
G37*
G36*
X243486400Y-55278922D02*
G01*
X243730922Y-55280966D01*
X243901367Y-55286899D01*
X244013694Y-55298749D01*
X244083861Y-55318542D01*
X244127828Y-55348304D01*
X244161553Y-55390063D01*
X244212130Y-55480993D01*
X244239542Y-55579310D01*
X244220799Y-55656590D01*
X244161553Y-55768557D01*
X244137179Y-55800425D01*
X244097992Y-55832812D01*
X244037109Y-55854950D01*
X243938830Y-55868784D01*
X243787455Y-55876257D01*
X243567285Y-55879315D01*
X243262619Y-55879902D01*
X243027462Y-55879623D01*
X242787102Y-55877385D01*
X242619568Y-55871231D01*
X242509159Y-55859215D01*
X242440175Y-55839394D01*
X242396917Y-55809823D01*
X242363684Y-55768557D01*
X242307350Y-55665221D01*
X242297804Y-55517325D01*
X242385893Y-55378916D01*
X242397777Y-55367455D01*
X242445298Y-55332734D01*
X242511106Y-55308420D01*
X242611583Y-55292687D01*
X242763109Y-55283709D01*
X242982064Y-55279662D01*
X243284827Y-55278718D01*
X243486400Y-55278922D01*
G37*
%TD*%
M02*
