%TF.GenerationSoftware,KiCad,Pcbnew,8.0.3*%
%TF.CreationDate,2024-06-27T08:50:16+01:00*%
%TF.ProjectId,esp32-s3-spectrum,65737033-322d-4733-932d-737065637472,rev?*%
%TF.SameCoordinates,Original*%
%TF.FileFunction,Paste,Top*%
%TF.FilePolarity,Positive*%
%FSLAX46Y46*%
G04 Gerber Fmt 4.6, Leading zero omitted, Abs format (unit mm)*
G04 Created by KiCad (PCBNEW 8.0.3) date 2024-06-27 08:50:16*
%MOMM*%
%LPD*%
G01*
G04 APERTURE LIST*
G04 Aperture macros list*
%AMRoundRect*
0 Rectangle with rounded corners*
0 $1 Rounding radius*
0 $2 $3 $4 $5 $6 $7 $8 $9 X,Y pos of 4 corners*
0 Add a 4 corners polygon primitive as box body*
4,1,4,$2,$3,$4,$5,$6,$7,$8,$9,$2,$3,0*
0 Add four circle primitives for the rounded corners*
1,1,$1+$1,$2,$3*
1,1,$1+$1,$4,$5*
1,1,$1+$1,$6,$7*
1,1,$1+$1,$8,$9*
0 Add four rect primitives between the rounded corners*
20,1,$1+$1,$2,$3,$4,$5,0*
20,1,$1+$1,$4,$5,$6,$7,0*
20,1,$1+$1,$6,$7,$8,$9,0*
20,1,$1+$1,$8,$9,$2,$3,0*%
%AMRotRect*
0 Rectangle, with rotation*
0 The origin of the aperture is its center*
0 $1 length*
0 $2 width*
0 $3 Rotation angle, in degrees counterclockwise*
0 Add horizontal line*
21,1,$1,$2,0,0,$3*%
G04 Aperture macros list end*
%ADD10C,0.010000*%
%ADD11RoundRect,0.200000X-0.200000X-0.275000X0.200000X-0.275000X0.200000X0.275000X-0.200000X0.275000X0*%
%ADD12RoundRect,0.218750X-0.218750X-0.256250X0.218750X-0.256250X0.218750X0.256250X-0.218750X0.256250X0*%
%ADD13RoundRect,0.225000X-0.225000X-0.250000X0.225000X-0.250000X0.225000X0.250000X-0.225000X0.250000X0*%
%ADD14RoundRect,0.250000X0.362500X1.425000X-0.362500X1.425000X-0.362500X-1.425000X0.362500X-1.425000X0*%
%ADD15RoundRect,0.225000X-0.250000X0.225000X-0.250000X-0.225000X0.250000X-0.225000X0.250000X0.225000X0*%
%ADD16R,3.800000X1.000000*%
%ADD17R,3.400000X1.500000*%
%ADD18R,3.200000X2.000000*%
%ADD19R,0.600000X1.140000*%
%ADD20R,0.300000X1.140000*%
%ADD21R,0.400000X0.800000*%
%ADD22RoundRect,0.200000X0.275000X-0.200000X0.275000X0.200000X-0.275000X0.200000X-0.275000X-0.200000X0*%
%ADD23RoundRect,0.200000X0.200000X0.275000X-0.200000X0.275000X-0.200000X-0.275000X0.200000X-0.275000X0*%
%ADD24R,1.000000X0.750000*%
%ADD25RoundRect,0.218750X0.218750X0.256250X-0.218750X0.256250X-0.218750X-0.256250X0.218750X-0.256250X0*%
%ADD26R,0.900000X1.200000*%
%ADD27R,1.200000X1.300000*%
%ADD28RoundRect,0.150000X0.150000X-0.825000X0.150000X0.825000X-0.150000X0.825000X-0.150000X-0.825000X0*%
%ADD29RoundRect,0.225000X0.250000X-0.225000X0.250000X0.225000X-0.250000X0.225000X-0.250000X-0.225000X0*%
%ADD30R,1.300000X0.800000*%
%ADD31R,1.600000X1.300000*%
%ADD32RoundRect,0.100000X0.155000X0.100000X-0.155000X0.100000X-0.155000X-0.100000X0.155000X-0.100000X0*%
%ADD33RoundRect,0.200000X-0.275000X0.200000X-0.275000X-0.200000X0.275000X-0.200000X0.275000X0.200000X0*%
%ADD34R,1.550000X0.600000*%
%ADD35R,1.800000X1.200000*%
%ADD36R,2.000000X0.600000*%
%ADD37R,2.800000X2.300000*%
%ADD38R,2.000000X3.500000*%
%ADD39RoundRect,0.150000X0.512500X0.150000X-0.512500X0.150000X-0.512500X-0.150000X0.512500X-0.150000X0*%
%ADD40R,1.800000X0.300000*%
%ADD41R,3.200000X2.500000*%
%ADD42R,0.600000X1.550000*%
%ADD43R,1.200000X1.800000*%
%ADD44R,1.500000X0.900000*%
%ADD45R,0.900000X1.500000*%
%ADD46R,0.900000X0.900000*%
%ADD47R,1.200000X2.450000*%
%ADD48R,0.750000X1.000000*%
%ADD49RotRect,0.520000X0.520000X225.000000*%
G04 APERTURE END LIST*
D10*
%TO.C,U6*%
X209045000Y-38630000D02*
X208895000Y-38780000D01*
X208655000Y-38780000D01*
X208655000Y-38520000D01*
X209045000Y-38520000D01*
X209045000Y-38630000D01*
G36*
X209045000Y-38630000D02*
G01*
X208895000Y-38780000D01*
X208655000Y-38780000D01*
X208655000Y-38520000D01*
X209045000Y-38520000D01*
X209045000Y-38630000D01*
G37*
X209045000Y-39320000D02*
X209045000Y-39430000D01*
X208655000Y-39430000D01*
X208655000Y-39170000D01*
X208895000Y-39170000D01*
X209045000Y-39320000D01*
G36*
X209045000Y-39320000D02*
G01*
X209045000Y-39430000D01*
X208655000Y-39430000D01*
X208655000Y-39170000D01*
X208895000Y-39170000D01*
X209045000Y-39320000D01*
G37*
X209855000Y-38780000D02*
X209615000Y-38780000D01*
X209465000Y-38630000D01*
X209465000Y-38520000D01*
X209855000Y-38520000D01*
X209855000Y-38780000D01*
G36*
X209855000Y-38780000D02*
G01*
X209615000Y-38780000D01*
X209465000Y-38630000D01*
X209465000Y-38520000D01*
X209855000Y-38520000D01*
X209855000Y-38780000D01*
G37*
X209855000Y-39430000D02*
X209465000Y-39430000D01*
X209465000Y-39320000D01*
X209615000Y-39170000D01*
X209855000Y-39170000D01*
X209855000Y-39430000D01*
G36*
X209855000Y-39430000D02*
G01*
X209465000Y-39430000D01*
X209465000Y-39320000D01*
X209615000Y-39170000D01*
X209855000Y-39170000D01*
X209855000Y-39430000D01*
G37*
%TD*%
D11*
%TO.C,R7*%
X38130000Y-33860000D03*
X39780000Y-33860000D03*
%TD*%
D12*
%TO.C,D1*%
X45160832Y-33900000D03*
X46735832Y-33900000D03*
%TD*%
D13*
%TO.C,C2*%
X206785000Y-50330000D03*
X208335000Y-50330000D03*
%TD*%
D14*
%TO.C,R3*%
X32080000Y-41260000D03*
X26155000Y-41260000D03*
%TD*%
D15*
%TO.C,C14*%
X207520000Y-38495000D03*
X207520000Y-40045000D03*
%TD*%
D16*
%TO.C,CN3*%
X44230000Y-56160000D03*
X44230000Y-54160000D03*
D17*
X50090000Y-51810000D03*
X50090000Y-58510000D03*
%TD*%
D18*
%TO.C,CN1*%
X61700000Y-34072500D03*
X54100000Y-35072500D03*
X61700000Y-37772500D03*
X54100000Y-42072500D03*
X61700000Y-43772500D03*
%TD*%
D13*
%TO.C,C11*%
X218480000Y-65835000D03*
X220030000Y-65835000D03*
%TD*%
D19*
%TO.C,J1*%
X194230000Y-38720000D03*
X193430000Y-38720000D03*
D20*
X192280000Y-38720000D03*
X191280000Y-38720000D03*
X190780000Y-38720000D03*
X189780000Y-38720000D03*
D19*
X187830000Y-38720000D03*
X188630000Y-38720000D03*
D20*
X189280000Y-38720000D03*
X190280000Y-38720000D03*
X191780000Y-38720000D03*
X192780000Y-38720000D03*
%TD*%
D15*
%TO.C,C1*%
X35620000Y-40535000D03*
X35620000Y-42085000D03*
%TD*%
D21*
%TO.C,Q1*%
X205060000Y-41280000D03*
X206060000Y-41280000D03*
X205560000Y-39680000D03*
%TD*%
D22*
%TO.C,R30*%
X241660000Y-45540000D03*
X241660000Y-43890000D03*
%TD*%
D23*
%TO.C,R10*%
X194235000Y-42680000D03*
X192585000Y-42680000D03*
%TD*%
D24*
%TO.C,D7*%
X202300000Y-41120000D03*
X199960000Y-41120000D03*
%TD*%
D25*
%TO.C,D4*%
X246697500Y-33870000D03*
X245122500Y-33870000D03*
%TD*%
D13*
%TO.C,C13*%
X191980000Y-65835000D03*
X193530000Y-65835000D03*
%TD*%
D22*
%TO.C,R11*%
X245160000Y-37185000D03*
X245160000Y-35535000D03*
%TD*%
D26*
%TO.C,SW2*%
X207590000Y-33610000D03*
X212190000Y-33610000D03*
D27*
X208220000Y-35150000D03*
X211570000Y-35150000D03*
%TD*%
D22*
%TO.C,R29*%
X239910000Y-45540000D03*
X239910000Y-43890000D03*
%TD*%
D15*
%TO.C,C15*%
X61042500Y-52435000D03*
X61042500Y-53985000D03*
%TD*%
D28*
%TO.C,U11*%
X191925000Y-73560000D03*
X193195000Y-73560000D03*
X194465000Y-73560000D03*
X195735000Y-73560000D03*
X197005000Y-73560000D03*
X198275000Y-73560000D03*
X199545000Y-73560000D03*
X200815000Y-73560000D03*
X200815000Y-68610000D03*
X199545000Y-68610000D03*
X198275000Y-68610000D03*
X197005000Y-68610000D03*
X195735000Y-68610000D03*
X194465000Y-68610000D03*
X193195000Y-68610000D03*
X191925000Y-68610000D03*
%TD*%
D25*
%TO.C,D3*%
X43199166Y-33900000D03*
X41624166Y-33900000D03*
%TD*%
D23*
%TO.C,R1*%
X50230000Y-33860000D03*
X48580000Y-33860000D03*
%TD*%
D29*
%TO.C,C16*%
X213930000Y-41735000D03*
X213930000Y-40185000D03*
%TD*%
D23*
%TO.C,R5*%
X208365000Y-48540000D03*
X206715000Y-48540000D03*
%TD*%
D30*
%TO.C,Card1*%
X239880000Y-53080000D03*
X239880000Y-54180000D03*
X239880000Y-55280000D03*
X239880000Y-56380000D03*
X239880000Y-57480000D03*
X239880000Y-58580000D03*
X239880000Y-59680000D03*
X239880000Y-60780000D03*
D31*
X247820000Y-48630000D03*
X247820000Y-63230000D03*
D30*
X239880000Y-51980000D03*
X239880000Y-50780000D03*
%TD*%
D32*
%TO.C,Q2*%
X38440000Y-62260000D03*
X38440000Y-63260000D03*
X39730000Y-62760000D03*
%TD*%
D26*
%TO.C,SW4*%
X238250000Y-33630000D03*
X242850000Y-33630000D03*
D27*
X238880000Y-35170000D03*
X242230000Y-35170000D03*
%TD*%
D28*
%TO.C,U9*%
X217330000Y-73560000D03*
X218600000Y-73560000D03*
X219870000Y-73560000D03*
X221140000Y-73560000D03*
X222410000Y-73560000D03*
X223680000Y-73560000D03*
X224950000Y-73560000D03*
X226220000Y-73560000D03*
X226220000Y-68610000D03*
X224950000Y-68610000D03*
X223680000Y-68610000D03*
X222410000Y-68610000D03*
X221140000Y-68610000D03*
X219870000Y-68610000D03*
X218600000Y-68610000D03*
X217330000Y-68610000D03*
%TD*%
D33*
%TO.C,R2*%
X195880000Y-43345000D03*
X195880000Y-44995000D03*
%TD*%
D34*
%TO.C,QWIIC2*%
X249705000Y-45080000D03*
X249705000Y-44080000D03*
X249705000Y-43080000D03*
X249705000Y-42080000D03*
D35*
X253580000Y-46380000D03*
X253580000Y-40780000D03*
%TD*%
D36*
%TO.C,U3*%
X86267500Y-45510000D03*
X86267500Y-46510000D03*
X86267500Y-47510000D03*
X86267500Y-48510000D03*
X86267500Y-49510000D03*
X86267500Y-50510000D03*
X86267500Y-51510000D03*
X86267500Y-52510000D03*
X86267500Y-53510000D03*
X86267500Y-54510000D03*
D37*
X88407500Y-57310000D03*
X88407500Y-42710000D03*
%TD*%
D38*
%TO.C,BUZ1*%
X26230000Y-57760000D03*
X39930000Y-57760000D03*
X39930000Y-47760000D03*
X26230000Y-47760000D03*
%TD*%
D11*
%TO.C,R6*%
X62992500Y-56060000D03*
X64642500Y-56060000D03*
%TD*%
D22*
%TO.C,R32*%
X243410000Y-45540000D03*
X243410000Y-43890000D03*
%TD*%
D13*
%TO.C,C10*%
X230730000Y-65835000D03*
X232280000Y-65835000D03*
%TD*%
D33*
%TO.C,R14*%
X36230000Y-62185000D03*
X36230000Y-63835000D03*
%TD*%
D29*
%TO.C,C4*%
X83660000Y-46435000D03*
X83660000Y-44885000D03*
%TD*%
D13*
%TO.C,C12*%
X205730000Y-65835000D03*
X207280000Y-65835000D03*
%TD*%
D29*
%TO.C,C17*%
X212280000Y-41710000D03*
X212280000Y-40160000D03*
%TD*%
D39*
%TO.C,U1*%
X65130000Y-54060000D03*
X65130000Y-53110000D03*
X65130000Y-52160000D03*
X62855000Y-52160000D03*
X62855000Y-53110000D03*
X62855000Y-54060000D03*
%TD*%
D22*
%TO.C,R33*%
X245160000Y-45540000D03*
X245160000Y-43890000D03*
%TD*%
%TO.C,R31*%
X246910000Y-45540000D03*
X246910000Y-43890000D03*
%TD*%
D15*
%TO.C,C5*%
X66892500Y-52435000D03*
X66892500Y-53985000D03*
%TD*%
D40*
%TO.C,CN2*%
X203950000Y-54260000D03*
X203950000Y-53760000D03*
X203950000Y-53260000D03*
X203950000Y-52760000D03*
X203950000Y-52260000D03*
X203950000Y-51760000D03*
X203950000Y-51260000D03*
X203950000Y-50760000D03*
X203950000Y-50260000D03*
X203950000Y-49760000D03*
X203950000Y-49260000D03*
X203950000Y-48760000D03*
X203950000Y-48260000D03*
X203950000Y-47760000D03*
X203950000Y-47260000D03*
X203950000Y-46760000D03*
X203950000Y-46260000D03*
X203950000Y-45760000D03*
D41*
X202050000Y-43810000D03*
X202050000Y-56210000D03*
%TD*%
D42*
%TO.C,QWIIC1*%
X96320000Y-37860000D03*
X95320000Y-37860000D03*
X94320000Y-37860000D03*
X93320000Y-37860000D03*
D43*
X97620000Y-33985000D03*
X92020000Y-33985000D03*
%TD*%
D13*
%TO.C,C8*%
X242730000Y-65835000D03*
X244280000Y-65835000D03*
%TD*%
D11*
%TO.C,R12*%
X189405000Y-42680000D03*
X191055000Y-42680000D03*
%TD*%
D15*
%TO.C,C3*%
X213930000Y-43485000D03*
X213930000Y-45035000D03*
%TD*%
D44*
%TO.C,U4*%
X216405000Y-40500000D03*
X216405000Y-41770000D03*
X216405000Y-43040000D03*
X216405000Y-44310000D03*
X216405000Y-45580000D03*
X216405000Y-46850000D03*
X216405000Y-48120000D03*
X216405000Y-49390000D03*
X216405000Y-50660000D03*
X216405000Y-51930000D03*
X216405000Y-53200000D03*
X216405000Y-54470000D03*
X216405000Y-55740000D03*
X216405000Y-57010000D03*
D45*
X218170000Y-58260000D03*
X219440000Y-58260000D03*
X220710000Y-58260000D03*
X221980000Y-58260000D03*
X223250000Y-58260000D03*
X224520000Y-58260000D03*
X225790000Y-58260000D03*
X227060000Y-58260000D03*
X228330000Y-58260000D03*
X229600000Y-58260000D03*
X230870000Y-58260000D03*
X232140000Y-58260000D03*
D44*
X233905000Y-57010000D03*
X233905000Y-55740000D03*
X233905000Y-54470000D03*
X233905000Y-53200000D03*
X233905000Y-51930000D03*
X233905000Y-50660000D03*
X233905000Y-49390000D03*
X233905000Y-48120000D03*
X233905000Y-46850000D03*
X233905000Y-45580000D03*
X233905000Y-44310000D03*
X233905000Y-43040000D03*
X233905000Y-41770000D03*
X233905000Y-40500000D03*
D46*
X222255000Y-46820000D03*
X222255000Y-48220000D03*
X222255000Y-49620000D03*
X222255000Y-49620000D03*
X223655000Y-46820000D03*
X223655000Y-46820000D03*
X223655000Y-48220000D03*
X223655000Y-49620000D03*
X225055000Y-46820000D03*
X225055000Y-48220000D03*
X225055000Y-49620000D03*
%TD*%
D28*
%TO.C,U8*%
X230032500Y-73560000D03*
X231302500Y-73560000D03*
X232572500Y-73560000D03*
X233842500Y-73560000D03*
X235112500Y-73560000D03*
X236382500Y-73560000D03*
X237652500Y-73560000D03*
X238922500Y-73560000D03*
X238922500Y-68610000D03*
X237652500Y-68610000D03*
X236382500Y-68610000D03*
X235112500Y-68610000D03*
X233842500Y-68610000D03*
X232572500Y-68610000D03*
X231302500Y-68610000D03*
X230032500Y-68610000D03*
%TD*%
D47*
%TO.C,SW1*%
X199390000Y-37565000D03*
X201890000Y-37565000D03*
X204390000Y-37565000D03*
%TD*%
D33*
%TO.C,R4*%
X212280000Y-43435000D03*
X212280000Y-45085000D03*
%TD*%
D48*
%TO.C,D6*%
X39750000Y-40570000D03*
X39750000Y-42910000D03*
%TD*%
D28*
%TO.C,U7*%
X242735000Y-73560000D03*
X244005000Y-73560000D03*
X245275000Y-73560000D03*
X246545000Y-73560000D03*
X247815000Y-73560000D03*
X249085000Y-73560000D03*
X250355000Y-73560000D03*
X251625000Y-73560000D03*
X251625000Y-68610000D03*
X250355000Y-68610000D03*
X249085000Y-68610000D03*
X247815000Y-68610000D03*
X246545000Y-68610000D03*
X245275000Y-68610000D03*
X244005000Y-68610000D03*
X242735000Y-68610000D03*
%TD*%
%TO.C,U10*%
X204627500Y-73560000D03*
X205897500Y-73560000D03*
X207167500Y-73560000D03*
X208437500Y-73560000D03*
X209707500Y-73560000D03*
X210977500Y-73560000D03*
X212247500Y-73560000D03*
X213517500Y-73560000D03*
X213517500Y-68610000D03*
X212247500Y-68610000D03*
X210977500Y-68610000D03*
X209707500Y-68610000D03*
X208437500Y-68610000D03*
X207167500Y-68610000D03*
X205897500Y-68610000D03*
X204627500Y-68610000D03*
%TD*%
D22*
%TO.C,R28*%
X238160000Y-45540000D03*
X238160000Y-43890000D03*
%TD*%
D49*
%TO.C,U6*%
X209255000Y-38975000D03*
%TD*%
M02*
