%TF.GenerationSoftware,KiCad,Pcbnew,8.0.1*%
%TF.CreationDate,2024-06-05T18:31:24+01:00*%
%TF.ProjectId,esp32-s3-spectrum,65737033-322d-4733-932d-737065637472,rev?*%
%TF.SameCoordinates,Original*%
%TF.FileFunction,Legend,Top*%
%TF.FilePolarity,Positive*%
%FSLAX46Y46*%
G04 Gerber Fmt 4.6, Leading zero omitted, Abs format (unit mm)*
G04 Created by KiCad (PCBNEW 8.0.1) date 2024-06-05 18:31:24*
%MOMM*%
%LPD*%
G01*
G04 APERTURE LIST*
%ADD10C,1.200000*%
%ADD11C,0.150000*%
%ADD12C,0.100000*%
%ADD13C,0.200000*%
%ADD14C,0.254000*%
%ADD15C,0.120000*%
%ADD16C,0.250000*%
%ADD17C,0.127000*%
%ADD18C,0.000000*%
%ADD19C,0.300000*%
G04 APERTURE END LIST*
D10*
G36*
X40471179Y-61688534D02*
G01*
X37521214Y-61688534D01*
X37521214Y-63689371D01*
X40884438Y-63689371D01*
X40884438Y-65190000D01*
X36279972Y-65190000D01*
X36279972Y-57061598D01*
X40734961Y-57061598D01*
X40734961Y-58437173D01*
X37521214Y-58437173D01*
X37521214Y-60312958D01*
X40471179Y-60312958D01*
X40471179Y-61688534D01*
G37*
G36*
X44045429Y-64064528D02*
G01*
X44358945Y-64045844D01*
X44664287Y-63976815D01*
X44775226Y-63931660D01*
X45055753Y-63728748D01*
X45244329Y-63406368D01*
X45306668Y-63023136D01*
X45307187Y-62980090D01*
X45232741Y-62600106D01*
X45043405Y-62350921D01*
X44755093Y-62170868D01*
X44447884Y-62043041D01*
X44215422Y-61967948D01*
X43572086Y-61772554D01*
X43237137Y-61662392D01*
X42943405Y-61548797D01*
X42652809Y-61411927D01*
X42361618Y-61229083D01*
X42261967Y-61145338D01*
X42022713Y-60866002D01*
X41842223Y-60525518D01*
X41720497Y-60123886D01*
X41662932Y-59730960D01*
X41647941Y-59369204D01*
X41668806Y-58969730D01*
X41745893Y-58536668D01*
X41879781Y-58139136D01*
X42070469Y-57777134D01*
X42241451Y-57540314D01*
X42483543Y-57292628D01*
X42764688Y-57096188D01*
X43084885Y-56950994D01*
X43381547Y-56869144D01*
X43705328Y-56822881D01*
X43983879Y-56811493D01*
X44277357Y-56827712D01*
X44611207Y-56889994D01*
X44925066Y-56998987D01*
X45218936Y-57154692D01*
X45492817Y-57357108D01*
X45622260Y-57475833D01*
X45853980Y-57746348D01*
X46040259Y-58061100D01*
X46181098Y-58420092D01*
X46276495Y-58823321D01*
X46326453Y-59270789D01*
X46333007Y-59429776D01*
X45113747Y-59429776D01*
X45052610Y-59014258D01*
X44892795Y-58652397D01*
X44636008Y-58390279D01*
X44348217Y-58251366D01*
X44057782Y-58194213D01*
X43897418Y-58187069D01*
X43584116Y-58218700D01*
X43295261Y-58325358D01*
X43114863Y-58454759D01*
X42904490Y-58752516D01*
X42822917Y-59143867D01*
X42821772Y-59203119D01*
X42893946Y-59588534D01*
X43110467Y-59861598D01*
X43401360Y-60020355D01*
X43689586Y-60131982D01*
X43901814Y-60203538D01*
X44948150Y-60543524D01*
X45233286Y-60648269D01*
X45519485Y-60785839D01*
X45790880Y-60963377D01*
X45987159Y-61141430D01*
X46199005Y-61420191D01*
X46358819Y-61748694D01*
X46466600Y-62126939D01*
X46522349Y-62554924D01*
X46530844Y-62821821D01*
X46508433Y-63231210D01*
X46441199Y-63613809D01*
X46306109Y-64026314D01*
X46141761Y-64350867D01*
X45932590Y-64648630D01*
X45893370Y-64695652D01*
X45636371Y-64948649D01*
X45342381Y-65149303D01*
X45011400Y-65297611D01*
X44707324Y-65381217D01*
X44377561Y-65428472D01*
X44095254Y-65440104D01*
X43736689Y-65422502D01*
X43402883Y-65369694D01*
X43093835Y-65281680D01*
X42809545Y-65158462D01*
X42501077Y-64964128D01*
X42228262Y-64719099D01*
X41997178Y-64429626D01*
X41813904Y-64101959D01*
X41678441Y-63736098D01*
X41590788Y-63332044D01*
X41550946Y-62889797D01*
X41548290Y-62733893D01*
X42760223Y-62733893D01*
X42825283Y-63138652D01*
X42956487Y-63510206D01*
X42987369Y-63564319D01*
X43223559Y-63828101D01*
X43509547Y-63981974D01*
X43822147Y-64052316D01*
X44045429Y-64064528D01*
G37*
G36*
X50443769Y-57083923D02*
G01*
X50747582Y-57150899D01*
X51069083Y-57285471D01*
X51355100Y-57480817D01*
X51572016Y-57696629D01*
X51784433Y-58006980D01*
X51944677Y-58384089D01*
X52040505Y-58760459D01*
X52098001Y-59185877D01*
X52116634Y-59577858D01*
X52117166Y-59660341D01*
X52103857Y-60093271D01*
X52063929Y-60484699D01*
X51980879Y-60899630D01*
X51835541Y-61308181D01*
X51638031Y-61635388D01*
X51572016Y-61713935D01*
X51311855Y-61947670D01*
X51007094Y-62123996D01*
X50710373Y-62229440D01*
X50380886Y-62292707D01*
X50081283Y-62313210D01*
X50018632Y-62313796D01*
X48729030Y-62313796D01*
X48729030Y-65190000D01*
X47467271Y-65190000D01*
X47467271Y-58437173D01*
X48729030Y-58437173D01*
X48729030Y-60938220D01*
X49911653Y-60938220D01*
X50221048Y-60895355D01*
X50511163Y-60736994D01*
X50612142Y-60633405D01*
X50781442Y-60296915D01*
X50851097Y-59900142D01*
X50859804Y-59664249D01*
X50830366Y-59253881D01*
X50719670Y-58884993D01*
X50610676Y-58720495D01*
X50354261Y-58526818D01*
X50047344Y-58444090D01*
X49911653Y-58437173D01*
X48729030Y-58437173D01*
X47467271Y-58437173D01*
X47467271Y-57061598D01*
X50113886Y-57061598D01*
X50443769Y-57083923D01*
G37*
G36*
X52587578Y-61313377D02*
G01*
X54954291Y-61313377D01*
X54954291Y-62814005D01*
X52587578Y-62814005D01*
X52587578Y-61313377D01*
G37*
G36*
X58037613Y-64064528D02*
G01*
X58351129Y-64045844D01*
X58656471Y-63976815D01*
X58767411Y-63931660D01*
X59047937Y-63728748D01*
X59236513Y-63406368D01*
X59298852Y-63023136D01*
X59299371Y-62980090D01*
X59224925Y-62600106D01*
X59035589Y-62350921D01*
X58747278Y-62170868D01*
X58440068Y-62043041D01*
X58207606Y-61967948D01*
X57564270Y-61772554D01*
X57229322Y-61662392D01*
X56935589Y-61548797D01*
X56644994Y-61411927D01*
X56353803Y-61229083D01*
X56254152Y-61145338D01*
X56014897Y-60866002D01*
X55834407Y-60525518D01*
X55712681Y-60123886D01*
X55655116Y-59730960D01*
X55640125Y-59369204D01*
X55660991Y-58969730D01*
X55738077Y-58536668D01*
X55871965Y-58139136D01*
X56062653Y-57777134D01*
X56233635Y-57540314D01*
X56475728Y-57292628D01*
X56756872Y-57096188D01*
X57077069Y-56950994D01*
X57373731Y-56869144D01*
X57697512Y-56822881D01*
X57976064Y-56811493D01*
X58269542Y-56827712D01*
X58603391Y-56889994D01*
X58917251Y-56998987D01*
X59211121Y-57154692D01*
X59485001Y-57357108D01*
X59614445Y-57475833D01*
X59846164Y-57746348D01*
X60032443Y-58061100D01*
X60173282Y-58420092D01*
X60268680Y-58823321D01*
X60318637Y-59270789D01*
X60325191Y-59429776D01*
X59105931Y-59429776D01*
X59044794Y-59014258D01*
X58884979Y-58652397D01*
X58628192Y-58390279D01*
X58340402Y-58251366D01*
X58049966Y-58194213D01*
X57889602Y-58187069D01*
X57576300Y-58218700D01*
X57287445Y-58325358D01*
X57107048Y-58454759D01*
X56896674Y-58752516D01*
X56815101Y-59143867D01*
X56813956Y-59203119D01*
X56886130Y-59588534D01*
X57102651Y-59861598D01*
X57393545Y-60020355D01*
X57681770Y-60131982D01*
X57893998Y-60203538D01*
X58940334Y-60543524D01*
X59225470Y-60648269D01*
X59511670Y-60785839D01*
X59783064Y-60963377D01*
X59979344Y-61141430D01*
X60191189Y-61420191D01*
X60351003Y-61748694D01*
X60458784Y-62126939D01*
X60514533Y-62554924D01*
X60523028Y-62821821D01*
X60500617Y-63231210D01*
X60433383Y-63613809D01*
X60298294Y-64026314D01*
X60133945Y-64350867D01*
X59924774Y-64648630D01*
X59885554Y-64695652D01*
X59628555Y-64948649D01*
X59334565Y-65149303D01*
X59003584Y-65297611D01*
X58699509Y-65381217D01*
X58369745Y-65428472D01*
X58087438Y-65440104D01*
X57728874Y-65422502D01*
X57395067Y-65369694D01*
X57086019Y-65281680D01*
X56801729Y-65158462D01*
X56493262Y-64964128D01*
X56220446Y-64719099D01*
X55989362Y-64429626D01*
X55806088Y-64101959D01*
X55670625Y-63736098D01*
X55582972Y-63332044D01*
X55543130Y-62889797D01*
X55540474Y-62733893D01*
X56752407Y-62733893D01*
X56817467Y-63138652D01*
X56948671Y-63510206D01*
X56979553Y-63564319D01*
X57215743Y-63828101D01*
X57501731Y-63981974D01*
X57814331Y-64052316D01*
X58037613Y-64064528D01*
G37*
G36*
X64096585Y-59099274D02*
G01*
X64407016Y-59209790D01*
X64694446Y-59393983D01*
X64958875Y-59651854D01*
X65099651Y-59832288D01*
X65284418Y-60146331D01*
X65430958Y-60511070D01*
X65539271Y-60926504D01*
X65600329Y-61311425D01*
X65634840Y-61731551D01*
X65643335Y-62093000D01*
X65630312Y-62566268D01*
X65591243Y-63002996D01*
X65526127Y-63403182D01*
X65413608Y-63835171D01*
X65263581Y-64214541D01*
X65109909Y-64490488D01*
X64899055Y-64770711D01*
X64625710Y-65024361D01*
X64322913Y-65199098D01*
X63990663Y-65294921D01*
X63735310Y-65315052D01*
X63418605Y-65278415D01*
X63137106Y-65168506D01*
X62868119Y-64962976D01*
X62845778Y-64939895D01*
X62630476Y-64646918D01*
X62466224Y-64336127D01*
X62466224Y-67458527D01*
X61304117Y-67458527D01*
X61304117Y-62223914D01*
X62425191Y-62223914D01*
X62445107Y-62651433D01*
X62516639Y-63066982D01*
X62659298Y-63441343D01*
X62841381Y-63691325D01*
X63111392Y-63877438D01*
X63405120Y-63939234D01*
X63426099Y-63939476D01*
X63735905Y-63879677D01*
X64010679Y-63678039D01*
X64173482Y-63433405D01*
X64309494Y-63084481D01*
X64395132Y-62670299D01*
X64429135Y-62241738D01*
X64431402Y-62087138D01*
X64408218Y-61670285D01*
X64338666Y-61284343D01*
X64208604Y-60895510D01*
X64193998Y-60862016D01*
X63996811Y-60558317D01*
X63729666Y-60380682D01*
X63426099Y-60328590D01*
X63131633Y-60379148D01*
X62860136Y-60556892D01*
X62651931Y-60862612D01*
X62548290Y-61137522D01*
X62468588Y-61523254D01*
X62431082Y-61946863D01*
X62425191Y-62223914D01*
X61304117Y-62223914D01*
X61304117Y-59187487D01*
X62428122Y-59187487D01*
X62428122Y-60072623D01*
X62611147Y-59745557D01*
X62832588Y-59461039D01*
X63091591Y-59250838D01*
X63379502Y-59118489D01*
X63696321Y-59063992D01*
X63763154Y-59062435D01*
X64096585Y-59099274D01*
G37*
G36*
X68543983Y-59084073D02*
G01*
X68863922Y-59158873D01*
X69161822Y-59287100D01*
X69246894Y-59335987D01*
X69512766Y-59537869D01*
X69748012Y-59801575D01*
X69952632Y-60127105D01*
X69989881Y-60199630D01*
X70136570Y-60540692D01*
X70246908Y-60914193D01*
X70320897Y-61320132D01*
X70331332Y-61405212D01*
X70360985Y-61825104D01*
X70370115Y-62249997D01*
X70369434Y-62563900D01*
X67293440Y-62563900D01*
X67322291Y-62965840D01*
X67399228Y-63356507D01*
X67541835Y-63708422D01*
X67718422Y-63943384D01*
X67986235Y-64128032D01*
X68281895Y-64189340D01*
X68303140Y-64189581D01*
X68595058Y-64136847D01*
X68864793Y-63947437D01*
X68893719Y-63914075D01*
X69075373Y-63596658D01*
X69112072Y-63501793D01*
X70310816Y-63501793D01*
X70230994Y-63903237D01*
X70077445Y-64273640D01*
X69894626Y-64578415D01*
X69661928Y-64871255D01*
X69396875Y-65103507D01*
X69099467Y-65275172D01*
X68769705Y-65386249D01*
X68470188Y-65432531D01*
X68279692Y-65440104D01*
X67965266Y-65414138D01*
X67664956Y-65336240D01*
X67378763Y-65206410D01*
X67106686Y-65024647D01*
X66848725Y-64790952D01*
X66765875Y-64701514D01*
X66543257Y-64391180D01*
X66366699Y-64015588D01*
X66254750Y-63652745D01*
X66174787Y-63244582D01*
X66126809Y-62791102D01*
X66111456Y-62395688D01*
X66110816Y-62292302D01*
X66125234Y-61821658D01*
X66150909Y-61563482D01*
X67322749Y-61563482D01*
X69148709Y-61563482D01*
X69102064Y-61176538D01*
X68978624Y-60809138D01*
X68865875Y-60631451D01*
X68620760Y-60413731D01*
X68329083Y-60317935D01*
X68237194Y-60312958D01*
X67936174Y-60368747D01*
X67663376Y-60571764D01*
X67604117Y-60650990D01*
X67439905Y-60991060D01*
X67344688Y-61389220D01*
X67322749Y-61563482D01*
X66150909Y-61563482D01*
X66168490Y-61386696D01*
X66240582Y-60987416D01*
X66365157Y-60555381D01*
X66531258Y-60174728D01*
X66701395Y-59896769D01*
X66935777Y-59613225D01*
X67194888Y-59388346D01*
X67478729Y-59222132D01*
X67787299Y-59114581D01*
X68120599Y-59065694D01*
X68237194Y-59062435D01*
X68543983Y-59084073D01*
G37*
G36*
X75023726Y-61405212D02*
G01*
X73820586Y-61405212D01*
X73739642Y-61011829D01*
X73652058Y-60801444D01*
X73418608Y-60540581D01*
X73114148Y-60441205D01*
X73038032Y-60438011D01*
X72733858Y-60498907D01*
X72465496Y-60709414D01*
X72286618Y-61027430D01*
X72226168Y-61207864D01*
X72147028Y-61616803D01*
X72115937Y-62010526D01*
X72110397Y-62294256D01*
X72124077Y-62707773D01*
X72175519Y-63119675D01*
X72226168Y-63331800D01*
X72373490Y-63686000D01*
X72606246Y-63943600D01*
X72911702Y-64058088D01*
X73017515Y-64064528D01*
X73312675Y-64015512D01*
X73567710Y-63820606D01*
X73602233Y-63767529D01*
X73747500Y-63402336D01*
X73811793Y-62997676D01*
X75012002Y-62997676D01*
X74964694Y-63394843D01*
X74868931Y-63781810D01*
X74724714Y-64158575D01*
X74623656Y-64363482D01*
X74438442Y-64673641D01*
X74181804Y-64976442D01*
X73887659Y-65203542D01*
X73556008Y-65354942D01*
X73250981Y-65423282D01*
X72988206Y-65440104D01*
X72663308Y-65419067D01*
X72366389Y-65355955D01*
X72047016Y-65224682D01*
X71767933Y-65032822D01*
X71529137Y-64780374D01*
X71392323Y-64578415D01*
X71219010Y-64237147D01*
X71081555Y-63859609D01*
X70979957Y-63445800D01*
X70914218Y-62995722D01*
X70886826Y-62592950D01*
X70882344Y-62339197D01*
X70896119Y-61870651D01*
X70937442Y-61435880D01*
X71006314Y-61034883D01*
X71125325Y-60598268D01*
X71284007Y-60210289D01*
X71446545Y-59924124D01*
X71673662Y-59631284D01*
X71930764Y-59399032D01*
X72217851Y-59227368D01*
X72534922Y-59116290D01*
X72881978Y-59065801D01*
X73004326Y-59062435D01*
X73310595Y-59080913D01*
X73640561Y-59149181D01*
X73941074Y-59267752D01*
X74212135Y-59436625D01*
X74387718Y-59588046D01*
X74629152Y-59897990D01*
X74795326Y-60248131D01*
X74919427Y-60671950D01*
X74992310Y-61093864D01*
X75023726Y-61405212D01*
G37*
G36*
X77866713Y-64064528D02*
G01*
X77866713Y-65190000D01*
X77309839Y-65217355D01*
X77016244Y-65215729D01*
X76720599Y-65172679D01*
X76414674Y-65052208D01*
X76172644Y-64832428D01*
X76024267Y-64490000D01*
X75975580Y-64070963D01*
X75974808Y-64002002D01*
X75974808Y-60312958D01*
X75347592Y-60312958D01*
X75347592Y-59187487D01*
X75974808Y-59187487D01*
X75974808Y-57516866D01*
X77136915Y-57516866D01*
X77136915Y-59187487D01*
X77866713Y-59187487D01*
X77866713Y-60312958D01*
X77136915Y-60312958D01*
X77136915Y-63519378D01*
X77172497Y-63910503D01*
X77205792Y-63984417D01*
X77491906Y-64071858D01*
X77635170Y-64076252D01*
X77748011Y-64074298D01*
X77866713Y-64064528D01*
G37*
G36*
X80863572Y-60641221D02*
G01*
X80538699Y-60679689D01*
X80242626Y-60814929D01*
X79999853Y-61079398D01*
X79912491Y-61256713D01*
X79819325Y-61632099D01*
X79782725Y-62026746D01*
X79776203Y-62323565D01*
X79776203Y-65190000D01*
X78593579Y-65190000D01*
X78593579Y-59187487D01*
X79714654Y-59187487D01*
X79714654Y-60248478D01*
X79877371Y-59911614D01*
X80068792Y-59583804D01*
X80187997Y-59429776D01*
X80438062Y-59220636D01*
X80734881Y-59098308D01*
X81045289Y-59062435D01*
X81100976Y-59062435D01*
X81202093Y-59062435D01*
X81202093Y-60668576D01*
X81004256Y-60647083D01*
X80863572Y-60641221D01*
G37*
G36*
X84751430Y-64363482D02*
G01*
X84669364Y-64523705D01*
X84512561Y-64758178D01*
X84274859Y-65001009D01*
X84011443Y-65182359D01*
X83979134Y-65197815D01*
X83680278Y-65289292D01*
X83375366Y-65315052D01*
X83079419Y-65291677D01*
X82766315Y-65201918D01*
X82458980Y-65012114D01*
X82214056Y-64730682D01*
X82031542Y-64357620D01*
X81929532Y-63979043D01*
X81870027Y-63554794D01*
X81842824Y-63111249D01*
X81838101Y-62802281D01*
X81838101Y-59187487D01*
X83041242Y-59187487D01*
X83041242Y-62827683D01*
X83058633Y-63230424D01*
X83132100Y-63605352D01*
X83331333Y-63919242D01*
X83622828Y-64053318D01*
X83762247Y-64064528D01*
X84070310Y-64012751D01*
X84342450Y-63833767D01*
X84540745Y-63526937D01*
X84585833Y-63409958D01*
X84668931Y-63028166D01*
X84699796Y-62616016D01*
X84701605Y-62474019D01*
X84701605Y-59187487D01*
X85893021Y-59187487D01*
X85893021Y-65190000D01*
X84751430Y-65190000D01*
X84751430Y-64363482D01*
G37*
G36*
X89522958Y-60848339D02*
G01*
X89320678Y-60536986D01*
X89019744Y-60418376D01*
X88941172Y-60414563D01*
X88634561Y-60465820D01*
X88372666Y-60658562D01*
X88265596Y-60848339D01*
X88186062Y-61227745D01*
X88170341Y-61584975D01*
X88170341Y-65190000D01*
X86978925Y-65190000D01*
X86978925Y-59207027D01*
X88120516Y-59207027D01*
X88120516Y-60080439D01*
X88293816Y-59745187D01*
X88495820Y-59453867D01*
X88532309Y-59414145D01*
X88791788Y-59213904D01*
X89098714Y-59096782D01*
X89418911Y-59062435D01*
X89721991Y-59092011D01*
X90010751Y-59192866D01*
X90252756Y-59365296D01*
X90464761Y-59663854D01*
X90613825Y-60005260D01*
X90639637Y-60086301D01*
X90811148Y-59756617D01*
X91028665Y-59472273D01*
X91212630Y-59310586D01*
X91495853Y-59159369D01*
X91802568Y-59077944D01*
X92020097Y-59062435D01*
X92315020Y-59101025D01*
X92604815Y-59216796D01*
X92863874Y-59412172D01*
X93084746Y-59685937D01*
X93129448Y-59756085D01*
X93287718Y-60104863D01*
X93380196Y-60497503D01*
X93384438Y-60525938D01*
X93416455Y-60926586D01*
X93425310Y-61339381D01*
X93425471Y-61411074D01*
X93416678Y-65190000D01*
X92213538Y-65190000D01*
X92213538Y-61375903D01*
X92178195Y-60981003D01*
X92131472Y-60815122D01*
X91926508Y-60514989D01*
X91630623Y-60400653D01*
X91554082Y-60396978D01*
X91255263Y-60460702D01*
X90994094Y-60700327D01*
X90882903Y-60936266D01*
X90803369Y-61316361D01*
X90787648Y-61624054D01*
X90787648Y-65190000D01*
X89605024Y-65190000D01*
X89605024Y-61624054D01*
X89589316Y-61213031D01*
X89522958Y-60848339D01*
G37*
G36*
X99447034Y-65190000D02*
G01*
X98242428Y-65190000D01*
X98242428Y-59687697D01*
X96837055Y-59687697D01*
X96837055Y-58562226D01*
X97152471Y-58538221D01*
X97444830Y-58500852D01*
X97616678Y-58462575D01*
X97901744Y-58331569D01*
X98151143Y-58101561D01*
X98194068Y-58044431D01*
X98361255Y-57702624D01*
X98424145Y-57473879D01*
X98469574Y-57155387D01*
X99447034Y-57155387D01*
X99447034Y-65190000D01*
G37*
G36*
X101451779Y-63564319D02*
G01*
X102700348Y-63564319D01*
X102700348Y-65190000D01*
X101451779Y-65190000D01*
X101451779Y-63564319D01*
G37*
G36*
X106451919Y-65190000D02*
G01*
X105247313Y-65190000D01*
X105247313Y-59687697D01*
X103841939Y-59687697D01*
X103841939Y-58562226D01*
X104157356Y-58538221D01*
X104449715Y-58500852D01*
X104621563Y-58462575D01*
X104906628Y-58331569D01*
X105156028Y-58101561D01*
X105198953Y-58044431D01*
X105366139Y-57702624D01*
X105429030Y-57473879D01*
X105474459Y-57155387D01*
X106451919Y-57155387D01*
X106451919Y-65190000D01*
G37*
D11*
X170891541Y-49769819D02*
X171510588Y-49769819D01*
X171510588Y-49769819D02*
X171177255Y-50150771D01*
X171177255Y-50150771D02*
X171320112Y-50150771D01*
X171320112Y-50150771D02*
X171415350Y-50198390D01*
X171415350Y-50198390D02*
X171462969Y-50246009D01*
X171462969Y-50246009D02*
X171510588Y-50341247D01*
X171510588Y-50341247D02*
X171510588Y-50579342D01*
X171510588Y-50579342D02*
X171462969Y-50674580D01*
X171462969Y-50674580D02*
X171415350Y-50722200D01*
X171415350Y-50722200D02*
X171320112Y-50769819D01*
X171320112Y-50769819D02*
X171034398Y-50769819D01*
X171034398Y-50769819D02*
X170939160Y-50722200D01*
X170939160Y-50722200D02*
X170891541Y-50674580D01*
X171796303Y-49769819D02*
X172129636Y-50769819D01*
X172129636Y-50769819D02*
X172462969Y-49769819D01*
X172701065Y-49769819D02*
X173320112Y-49769819D01*
X173320112Y-49769819D02*
X172986779Y-50150771D01*
X172986779Y-50150771D02*
X173129636Y-50150771D01*
X173129636Y-50150771D02*
X173224874Y-50198390D01*
X173224874Y-50198390D02*
X173272493Y-50246009D01*
X173272493Y-50246009D02*
X173320112Y-50341247D01*
X173320112Y-50341247D02*
X173320112Y-50579342D01*
X173320112Y-50579342D02*
X173272493Y-50674580D01*
X173272493Y-50674580D02*
X173224874Y-50722200D01*
X173224874Y-50722200D02*
X173129636Y-50769819D01*
X173129636Y-50769819D02*
X172843922Y-50769819D01*
X172843922Y-50769819D02*
X172748684Y-50722200D01*
X172748684Y-50722200D02*
X172701065Y-50674580D01*
X170939160Y-48165052D02*
X171082017Y-48212671D01*
X171082017Y-48212671D02*
X171320112Y-48212671D01*
X171320112Y-48212671D02*
X171415350Y-48165052D01*
X171415350Y-48165052D02*
X171462969Y-48117432D01*
X171462969Y-48117432D02*
X171510588Y-48022194D01*
X171510588Y-48022194D02*
X171510588Y-47926956D01*
X171510588Y-47926956D02*
X171462969Y-47831718D01*
X171462969Y-47831718D02*
X171415350Y-47784099D01*
X171415350Y-47784099D02*
X171320112Y-47736480D01*
X171320112Y-47736480D02*
X171129636Y-47688861D01*
X171129636Y-47688861D02*
X171034398Y-47641242D01*
X171034398Y-47641242D02*
X170986779Y-47593623D01*
X170986779Y-47593623D02*
X170939160Y-47498385D01*
X170939160Y-47498385D02*
X170939160Y-47403147D01*
X170939160Y-47403147D02*
X170986779Y-47307909D01*
X170986779Y-47307909D02*
X171034398Y-47260290D01*
X171034398Y-47260290D02*
X171129636Y-47212671D01*
X171129636Y-47212671D02*
X171367731Y-47212671D01*
X171367731Y-47212671D02*
X171510588Y-47260290D01*
X172510588Y-48117432D02*
X172462969Y-48165052D01*
X172462969Y-48165052D02*
X172320112Y-48212671D01*
X172320112Y-48212671D02*
X172224874Y-48212671D01*
X172224874Y-48212671D02*
X172082017Y-48165052D01*
X172082017Y-48165052D02*
X171986779Y-48069813D01*
X171986779Y-48069813D02*
X171939160Y-47974575D01*
X171939160Y-47974575D02*
X171891541Y-47784099D01*
X171891541Y-47784099D02*
X171891541Y-47641242D01*
X171891541Y-47641242D02*
X171939160Y-47450766D01*
X171939160Y-47450766D02*
X171986779Y-47355528D01*
X171986779Y-47355528D02*
X172082017Y-47260290D01*
X172082017Y-47260290D02*
X172224874Y-47212671D01*
X172224874Y-47212671D02*
X172320112Y-47212671D01*
X172320112Y-47212671D02*
X172462969Y-47260290D01*
X172462969Y-47260290D02*
X172510588Y-47307909D01*
X173415350Y-48212671D02*
X172939160Y-48212671D01*
X172939160Y-48212671D02*
X172939160Y-47212671D01*
X170129637Y-45655529D02*
X170129637Y-44655529D01*
X170129637Y-44655529D02*
X170462970Y-45369814D01*
X170462970Y-45369814D02*
X170796303Y-44655529D01*
X170796303Y-44655529D02*
X170796303Y-45655529D01*
X171462970Y-44655529D02*
X171653446Y-44655529D01*
X171653446Y-44655529D02*
X171748684Y-44703148D01*
X171748684Y-44703148D02*
X171843922Y-44798386D01*
X171843922Y-44798386D02*
X171891541Y-44988862D01*
X171891541Y-44988862D02*
X171891541Y-45322195D01*
X171891541Y-45322195D02*
X171843922Y-45512671D01*
X171843922Y-45512671D02*
X171748684Y-45607910D01*
X171748684Y-45607910D02*
X171653446Y-45655529D01*
X171653446Y-45655529D02*
X171462970Y-45655529D01*
X171462970Y-45655529D02*
X171367732Y-45607910D01*
X171367732Y-45607910D02*
X171272494Y-45512671D01*
X171272494Y-45512671D02*
X171224875Y-45322195D01*
X171224875Y-45322195D02*
X171224875Y-44988862D01*
X171224875Y-44988862D02*
X171272494Y-44798386D01*
X171272494Y-44798386D02*
X171367732Y-44703148D01*
X171367732Y-44703148D02*
X171462970Y-44655529D01*
X172272494Y-45607910D02*
X172415351Y-45655529D01*
X172415351Y-45655529D02*
X172653446Y-45655529D01*
X172653446Y-45655529D02*
X172748684Y-45607910D01*
X172748684Y-45607910D02*
X172796303Y-45560290D01*
X172796303Y-45560290D02*
X172843922Y-45465052D01*
X172843922Y-45465052D02*
X172843922Y-45369814D01*
X172843922Y-45369814D02*
X172796303Y-45274576D01*
X172796303Y-45274576D02*
X172748684Y-45226957D01*
X172748684Y-45226957D02*
X172653446Y-45179338D01*
X172653446Y-45179338D02*
X172462970Y-45131719D01*
X172462970Y-45131719D02*
X172367732Y-45084100D01*
X172367732Y-45084100D02*
X172320113Y-45036481D01*
X172320113Y-45036481D02*
X172272494Y-44941243D01*
X172272494Y-44941243D02*
X172272494Y-44846005D01*
X172272494Y-44846005D02*
X172320113Y-44750767D01*
X172320113Y-44750767D02*
X172367732Y-44703148D01*
X172367732Y-44703148D02*
X172462970Y-44655529D01*
X172462970Y-44655529D02*
X172701065Y-44655529D01*
X172701065Y-44655529D02*
X172843922Y-44703148D01*
X173272494Y-45655529D02*
X173272494Y-44655529D01*
X171748684Y-43098387D02*
X171748684Y-42098387D01*
X171748684Y-42098387D02*
X171986779Y-42098387D01*
X171986779Y-42098387D02*
X172129636Y-42146006D01*
X172129636Y-42146006D02*
X172224874Y-42241244D01*
X172224874Y-42241244D02*
X172272493Y-42336482D01*
X172272493Y-42336482D02*
X172320112Y-42526958D01*
X172320112Y-42526958D02*
X172320112Y-42669815D01*
X172320112Y-42669815D02*
X172272493Y-42860291D01*
X172272493Y-42860291D02*
X172224874Y-42955529D01*
X172224874Y-42955529D02*
X172129636Y-43050768D01*
X172129636Y-43050768D02*
X171986779Y-43098387D01*
X171986779Y-43098387D02*
X171748684Y-43098387D01*
X173320112Y-43003148D02*
X173272493Y-43050768D01*
X173272493Y-43050768D02*
X173129636Y-43098387D01*
X173129636Y-43098387D02*
X173034398Y-43098387D01*
X173034398Y-43098387D02*
X172891541Y-43050768D01*
X172891541Y-43050768D02*
X172796303Y-42955529D01*
X172796303Y-42955529D02*
X172748684Y-42860291D01*
X172748684Y-42860291D02*
X172701065Y-42669815D01*
X172701065Y-42669815D02*
X172701065Y-42526958D01*
X172701065Y-42526958D02*
X172748684Y-42336482D01*
X172748684Y-42336482D02*
X172796303Y-42241244D01*
X172796303Y-42241244D02*
X172891541Y-42146006D01*
X172891541Y-42146006D02*
X173034398Y-42098387D01*
X173034398Y-42098387D02*
X173129636Y-42098387D01*
X173129636Y-42098387D02*
X173272493Y-42146006D01*
X173272493Y-42146006D02*
X173320112Y-42193625D01*
X171605826Y-40541245D02*
X171272493Y-40065054D01*
X171034398Y-40541245D02*
X171034398Y-39541245D01*
X171034398Y-39541245D02*
X171415350Y-39541245D01*
X171415350Y-39541245D02*
X171510588Y-39588864D01*
X171510588Y-39588864D02*
X171558207Y-39636483D01*
X171558207Y-39636483D02*
X171605826Y-39731721D01*
X171605826Y-39731721D02*
X171605826Y-39874578D01*
X171605826Y-39874578D02*
X171558207Y-39969816D01*
X171558207Y-39969816D02*
X171510588Y-40017435D01*
X171510588Y-40017435D02*
X171415350Y-40065054D01*
X171415350Y-40065054D02*
X171034398Y-40065054D01*
X171986779Y-40493626D02*
X172129636Y-40541245D01*
X172129636Y-40541245D02*
X172367731Y-40541245D01*
X172367731Y-40541245D02*
X172462969Y-40493626D01*
X172462969Y-40493626D02*
X172510588Y-40446006D01*
X172510588Y-40446006D02*
X172558207Y-40350768D01*
X172558207Y-40350768D02*
X172558207Y-40255530D01*
X172558207Y-40255530D02*
X172510588Y-40160292D01*
X172510588Y-40160292D02*
X172462969Y-40112673D01*
X172462969Y-40112673D02*
X172367731Y-40065054D01*
X172367731Y-40065054D02*
X172177255Y-40017435D01*
X172177255Y-40017435D02*
X172082017Y-39969816D01*
X172082017Y-39969816D02*
X172034398Y-39922197D01*
X172034398Y-39922197D02*
X171986779Y-39826959D01*
X171986779Y-39826959D02*
X171986779Y-39731721D01*
X171986779Y-39731721D02*
X172034398Y-39636483D01*
X172034398Y-39636483D02*
X172082017Y-39588864D01*
X172082017Y-39588864D02*
X172177255Y-39541245D01*
X172177255Y-39541245D02*
X172415350Y-39541245D01*
X172415350Y-39541245D02*
X172558207Y-39588864D01*
X172843922Y-39541245D02*
X173415350Y-39541245D01*
X173129636Y-40541245D02*
X173129636Y-39541245D01*
X172367731Y-37888864D02*
X172320112Y-37936484D01*
X172320112Y-37936484D02*
X172177255Y-37984103D01*
X172177255Y-37984103D02*
X172082017Y-37984103D01*
X172082017Y-37984103D02*
X171939160Y-37936484D01*
X171939160Y-37936484D02*
X171843922Y-37841245D01*
X171843922Y-37841245D02*
X171796303Y-37746007D01*
X171796303Y-37746007D02*
X171748684Y-37555531D01*
X171748684Y-37555531D02*
X171748684Y-37412674D01*
X171748684Y-37412674D02*
X171796303Y-37222198D01*
X171796303Y-37222198D02*
X171843922Y-37126960D01*
X171843922Y-37126960D02*
X171939160Y-37031722D01*
X171939160Y-37031722D02*
X172082017Y-36984103D01*
X172082017Y-36984103D02*
X172177255Y-36984103D01*
X172177255Y-36984103D02*
X172320112Y-37031722D01*
X172320112Y-37031722D02*
X172367731Y-37079341D01*
X172748684Y-37936484D02*
X172891541Y-37984103D01*
X172891541Y-37984103D02*
X173129636Y-37984103D01*
X173129636Y-37984103D02*
X173224874Y-37936484D01*
X173224874Y-37936484D02*
X173272493Y-37888864D01*
X173272493Y-37888864D02*
X173320112Y-37793626D01*
X173320112Y-37793626D02*
X173320112Y-37698388D01*
X173320112Y-37698388D02*
X173272493Y-37603150D01*
X173272493Y-37603150D02*
X173224874Y-37555531D01*
X173224874Y-37555531D02*
X173129636Y-37507912D01*
X173129636Y-37507912D02*
X172939160Y-37460293D01*
X172939160Y-37460293D02*
X172843922Y-37412674D01*
X172843922Y-37412674D02*
X172796303Y-37365055D01*
X172796303Y-37365055D02*
X172748684Y-37269817D01*
X172748684Y-37269817D02*
X172748684Y-37174579D01*
X172748684Y-37174579D02*
X172796303Y-37079341D01*
X172796303Y-37079341D02*
X172843922Y-37031722D01*
X172843922Y-37031722D02*
X172939160Y-36984103D01*
X172939160Y-36984103D02*
X173177255Y-36984103D01*
X173177255Y-36984103D02*
X173320112Y-37031722D01*
X171224874Y-34474580D02*
X171129636Y-34426961D01*
X171129636Y-34426961D02*
X170986779Y-34426961D01*
X170986779Y-34426961D02*
X170843922Y-34474580D01*
X170843922Y-34474580D02*
X170748684Y-34569818D01*
X170748684Y-34569818D02*
X170701065Y-34665056D01*
X170701065Y-34665056D02*
X170653446Y-34855532D01*
X170653446Y-34855532D02*
X170653446Y-34998389D01*
X170653446Y-34998389D02*
X170701065Y-35188865D01*
X170701065Y-35188865D02*
X170748684Y-35284103D01*
X170748684Y-35284103D02*
X170843922Y-35379342D01*
X170843922Y-35379342D02*
X170986779Y-35426961D01*
X170986779Y-35426961D02*
X171082017Y-35426961D01*
X171082017Y-35426961D02*
X171224874Y-35379342D01*
X171224874Y-35379342D02*
X171272493Y-35331722D01*
X171272493Y-35331722D02*
X171272493Y-34998389D01*
X171272493Y-34998389D02*
X171082017Y-34998389D01*
X171701065Y-35426961D02*
X171701065Y-34426961D01*
X171701065Y-34426961D02*
X172272493Y-35426961D01*
X172272493Y-35426961D02*
X172272493Y-34426961D01*
X172748684Y-35426961D02*
X172748684Y-34426961D01*
X172748684Y-34426961D02*
X172986779Y-34426961D01*
X172986779Y-34426961D02*
X173129636Y-34474580D01*
X173129636Y-34474580D02*
X173224874Y-34569818D01*
X173224874Y-34569818D02*
X173272493Y-34665056D01*
X173272493Y-34665056D02*
X173320112Y-34855532D01*
X173320112Y-34855532D02*
X173320112Y-34998389D01*
X173320112Y-34998389D02*
X173272493Y-35188865D01*
X173272493Y-35188865D02*
X173224874Y-35284103D01*
X173224874Y-35284103D02*
X173129636Y-35379342D01*
X173129636Y-35379342D02*
X172986779Y-35426961D01*
X172986779Y-35426961D02*
X172748684Y-35426961D01*
X170891541Y-31869819D02*
X171510588Y-31869819D01*
X171510588Y-31869819D02*
X171177255Y-32250771D01*
X171177255Y-32250771D02*
X171320112Y-32250771D01*
X171320112Y-32250771D02*
X171415350Y-32298390D01*
X171415350Y-32298390D02*
X171462969Y-32346009D01*
X171462969Y-32346009D02*
X171510588Y-32441247D01*
X171510588Y-32441247D02*
X171510588Y-32679342D01*
X171510588Y-32679342D02*
X171462969Y-32774580D01*
X171462969Y-32774580D02*
X171415350Y-32822200D01*
X171415350Y-32822200D02*
X171320112Y-32869819D01*
X171320112Y-32869819D02*
X171034398Y-32869819D01*
X171034398Y-32869819D02*
X170939160Y-32822200D01*
X170939160Y-32822200D02*
X170891541Y-32774580D01*
X171796303Y-31869819D02*
X172129636Y-32869819D01*
X172129636Y-32869819D02*
X172462969Y-31869819D01*
X172701065Y-31869819D02*
X173320112Y-31869819D01*
X173320112Y-31869819D02*
X172986779Y-32250771D01*
X172986779Y-32250771D02*
X173129636Y-32250771D01*
X173129636Y-32250771D02*
X173224874Y-32298390D01*
X173224874Y-32298390D02*
X173272493Y-32346009D01*
X173272493Y-32346009D02*
X173320112Y-32441247D01*
X173320112Y-32441247D02*
X173320112Y-32679342D01*
X173320112Y-32679342D02*
X173272493Y-32774580D01*
X173272493Y-32774580D02*
X173224874Y-32822200D01*
X173224874Y-32822200D02*
X173129636Y-32869819D01*
X173129636Y-32869819D02*
X172843922Y-32869819D01*
X172843922Y-32869819D02*
X172748684Y-32822200D01*
X172748684Y-32822200D02*
X172701065Y-32774580D01*
D12*
X112750000Y-16750000D02*
X177750000Y-16750000D01*
X177750000Y-65750000D01*
X112750000Y-65750000D01*
X112750000Y-16750000D01*
D11*
X227741541Y-42119819D02*
X227979636Y-43119819D01*
X227979636Y-43119819D02*
X228170112Y-42405533D01*
X228170112Y-42405533D02*
X228360588Y-43119819D01*
X228360588Y-43119819D02*
X228598684Y-42119819D01*
X229408207Y-43119819D02*
X229408207Y-42596009D01*
X229408207Y-42596009D02*
X229360588Y-42500771D01*
X229360588Y-42500771D02*
X229265350Y-42453152D01*
X229265350Y-42453152D02*
X229074874Y-42453152D01*
X229074874Y-42453152D02*
X228979636Y-42500771D01*
X229408207Y-43072200D02*
X229312969Y-43119819D01*
X229312969Y-43119819D02*
X229074874Y-43119819D01*
X229074874Y-43119819D02*
X228979636Y-43072200D01*
X228979636Y-43072200D02*
X228932017Y-42976961D01*
X228932017Y-42976961D02*
X228932017Y-42881723D01*
X228932017Y-42881723D02*
X228979636Y-42786485D01*
X228979636Y-42786485D02*
X229074874Y-42738866D01*
X229074874Y-42738866D02*
X229312969Y-42738866D01*
X229312969Y-42738866D02*
X229408207Y-42691247D01*
X229789160Y-42453152D02*
X230027255Y-43119819D01*
X230265350Y-42453152D02*
X230027255Y-43119819D01*
X230027255Y-43119819D02*
X229932017Y-43357914D01*
X229932017Y-43357914D02*
X229884398Y-43405533D01*
X229884398Y-43405533D02*
X229789160Y-43453152D01*
X230551065Y-42119819D02*
X230789160Y-43119819D01*
X230789160Y-43119819D02*
X230979636Y-42405533D01*
X230979636Y-42405533D02*
X231170112Y-43119819D01*
X231170112Y-43119819D02*
X231408208Y-42119819D01*
X232217731Y-43119819D02*
X232217731Y-42596009D01*
X232217731Y-42596009D02*
X232170112Y-42500771D01*
X232170112Y-42500771D02*
X232074874Y-42453152D01*
X232074874Y-42453152D02*
X231884398Y-42453152D01*
X231884398Y-42453152D02*
X231789160Y-42500771D01*
X232217731Y-43072200D02*
X232122493Y-43119819D01*
X232122493Y-43119819D02*
X231884398Y-43119819D01*
X231884398Y-43119819D02*
X231789160Y-43072200D01*
X231789160Y-43072200D02*
X231741541Y-42976961D01*
X231741541Y-42976961D02*
X231741541Y-42881723D01*
X231741541Y-42881723D02*
X231789160Y-42786485D01*
X231789160Y-42786485D02*
X231884398Y-42738866D01*
X231884398Y-42738866D02*
X232122493Y-42738866D01*
X232122493Y-42738866D02*
X232217731Y-42691247D01*
X232598684Y-42453152D02*
X232836779Y-43119819D01*
X233074874Y-42453152D02*
X232836779Y-43119819D01*
X232836779Y-43119819D02*
X232741541Y-43357914D01*
X232741541Y-43357914D02*
X232693922Y-43405533D01*
X232693922Y-43405533D02*
X232598684Y-43453152D01*
X233360589Y-42119819D02*
X233598684Y-43119819D01*
X233598684Y-43119819D02*
X233789160Y-42405533D01*
X233789160Y-42405533D02*
X233979636Y-43119819D01*
X233979636Y-43119819D02*
X234217732Y-42119819D01*
X235027255Y-43119819D02*
X235027255Y-42596009D01*
X235027255Y-42596009D02*
X234979636Y-42500771D01*
X234979636Y-42500771D02*
X234884398Y-42453152D01*
X234884398Y-42453152D02*
X234693922Y-42453152D01*
X234693922Y-42453152D02*
X234598684Y-42500771D01*
X235027255Y-43072200D02*
X234932017Y-43119819D01*
X234932017Y-43119819D02*
X234693922Y-43119819D01*
X234693922Y-43119819D02*
X234598684Y-43072200D01*
X234598684Y-43072200D02*
X234551065Y-42976961D01*
X234551065Y-42976961D02*
X234551065Y-42881723D01*
X234551065Y-42881723D02*
X234598684Y-42786485D01*
X234598684Y-42786485D02*
X234693922Y-42738866D01*
X234693922Y-42738866D02*
X234932017Y-42738866D01*
X234932017Y-42738866D02*
X235027255Y-42691247D01*
X235408208Y-42453152D02*
X235646303Y-43119819D01*
X235884398Y-42453152D02*
X235646303Y-43119819D01*
X235646303Y-43119819D02*
X235551065Y-43357914D01*
X235551065Y-43357914D02*
X235503446Y-43405533D01*
X235503446Y-43405533D02*
X235408208Y-43453152D01*
X186655533Y-30308458D02*
X186703152Y-30165601D01*
X186703152Y-30165601D02*
X186703152Y-29927506D01*
X186703152Y-29927506D02*
X186655533Y-29832268D01*
X186655533Y-29832268D02*
X186607913Y-29784649D01*
X186607913Y-29784649D02*
X186512675Y-29737030D01*
X186512675Y-29737030D02*
X186417437Y-29737030D01*
X186417437Y-29737030D02*
X186322199Y-29784649D01*
X186322199Y-29784649D02*
X186274580Y-29832268D01*
X186274580Y-29832268D02*
X186226961Y-29927506D01*
X186226961Y-29927506D02*
X186179342Y-30117982D01*
X186179342Y-30117982D02*
X186131723Y-30213220D01*
X186131723Y-30213220D02*
X186084104Y-30260839D01*
X186084104Y-30260839D02*
X185988866Y-30308458D01*
X185988866Y-30308458D02*
X185893628Y-30308458D01*
X185893628Y-30308458D02*
X185798390Y-30260839D01*
X185798390Y-30260839D02*
X185750771Y-30213220D01*
X185750771Y-30213220D02*
X185703152Y-30117982D01*
X185703152Y-30117982D02*
X185703152Y-29879887D01*
X185703152Y-29879887D02*
X185750771Y-29737030D01*
X186703152Y-29308458D02*
X185703152Y-29308458D01*
X185703152Y-29308458D02*
X185703152Y-29070363D01*
X185703152Y-29070363D02*
X185750771Y-28927506D01*
X185750771Y-28927506D02*
X185846009Y-28832268D01*
X185846009Y-28832268D02*
X185941247Y-28784649D01*
X185941247Y-28784649D02*
X186131723Y-28737030D01*
X186131723Y-28737030D02*
X186274580Y-28737030D01*
X186274580Y-28737030D02*
X186465056Y-28784649D01*
X186465056Y-28784649D02*
X186560294Y-28832268D01*
X186560294Y-28832268D02*
X186655533Y-28927506D01*
X186655533Y-28927506D02*
X186703152Y-29070363D01*
X186703152Y-29070363D02*
X186703152Y-29308458D01*
X186417437Y-28356077D02*
X186417437Y-27879887D01*
X186703152Y-28451315D02*
X185703152Y-28117982D01*
X185703152Y-28117982D02*
X186703152Y-27784649D01*
D13*
X208441101Y-30367219D02*
X208107768Y-29891028D01*
X207869673Y-30367219D02*
X207869673Y-29367219D01*
X207869673Y-29367219D02*
X208250625Y-29367219D01*
X208250625Y-29367219D02*
X208345863Y-29414838D01*
X208345863Y-29414838D02*
X208393482Y-29462457D01*
X208393482Y-29462457D02*
X208441101Y-29557695D01*
X208441101Y-29557695D02*
X208441101Y-29700552D01*
X208441101Y-29700552D02*
X208393482Y-29795790D01*
X208393482Y-29795790D02*
X208345863Y-29843409D01*
X208345863Y-29843409D02*
X208250625Y-29891028D01*
X208250625Y-29891028D02*
X207869673Y-29891028D01*
X208869673Y-29843409D02*
X209203006Y-29843409D01*
X209345863Y-30367219D02*
X208869673Y-30367219D01*
X208869673Y-30367219D02*
X208869673Y-29367219D01*
X208869673Y-29367219D02*
X209345863Y-29367219D01*
X209726816Y-30319600D02*
X209869673Y-30367219D01*
X209869673Y-30367219D02*
X210107768Y-30367219D01*
X210107768Y-30367219D02*
X210203006Y-30319600D01*
X210203006Y-30319600D02*
X210250625Y-30271980D01*
X210250625Y-30271980D02*
X210298244Y-30176742D01*
X210298244Y-30176742D02*
X210298244Y-30081504D01*
X210298244Y-30081504D02*
X210250625Y-29986266D01*
X210250625Y-29986266D02*
X210203006Y-29938647D01*
X210203006Y-29938647D02*
X210107768Y-29891028D01*
X210107768Y-29891028D02*
X209917292Y-29843409D01*
X209917292Y-29843409D02*
X209822054Y-29795790D01*
X209822054Y-29795790D02*
X209774435Y-29748171D01*
X209774435Y-29748171D02*
X209726816Y-29652933D01*
X209726816Y-29652933D02*
X209726816Y-29557695D01*
X209726816Y-29557695D02*
X209774435Y-29462457D01*
X209774435Y-29462457D02*
X209822054Y-29414838D01*
X209822054Y-29414838D02*
X209917292Y-29367219D01*
X209917292Y-29367219D02*
X210155387Y-29367219D01*
X210155387Y-29367219D02*
X210298244Y-29414838D01*
X210726816Y-29843409D02*
X211060149Y-29843409D01*
X211203006Y-30367219D02*
X210726816Y-30367219D01*
X210726816Y-30367219D02*
X210726816Y-29367219D01*
X210726816Y-29367219D02*
X211203006Y-29367219D01*
X211488721Y-29367219D02*
X212060149Y-29367219D01*
X211774435Y-30367219D02*
X211774435Y-29367219D01*
D11*
X188417437Y-29975125D02*
X188369818Y-30070363D01*
X188369818Y-30070363D02*
X188369818Y-30213220D01*
X188369818Y-30213220D02*
X188417437Y-30356077D01*
X188417437Y-30356077D02*
X188512675Y-30451315D01*
X188512675Y-30451315D02*
X188607913Y-30498934D01*
X188607913Y-30498934D02*
X188798389Y-30546553D01*
X188798389Y-30546553D02*
X188941246Y-30546553D01*
X188941246Y-30546553D02*
X189131722Y-30498934D01*
X189131722Y-30498934D02*
X189226960Y-30451315D01*
X189226960Y-30451315D02*
X189322199Y-30356077D01*
X189322199Y-30356077D02*
X189369818Y-30213220D01*
X189369818Y-30213220D02*
X189369818Y-30117982D01*
X189369818Y-30117982D02*
X189322199Y-29975125D01*
X189322199Y-29975125D02*
X189274579Y-29927506D01*
X189274579Y-29927506D02*
X188941246Y-29927506D01*
X188941246Y-29927506D02*
X188941246Y-30117982D01*
X189369818Y-29498934D02*
X188369818Y-29498934D01*
X188369818Y-29498934D02*
X189369818Y-28927506D01*
X189369818Y-28927506D02*
X188369818Y-28927506D01*
X189369818Y-28451315D02*
X188369818Y-28451315D01*
X188369818Y-28451315D02*
X188369818Y-28213220D01*
X188369818Y-28213220D02*
X188417437Y-28070363D01*
X188417437Y-28070363D02*
X188512675Y-27975125D01*
X188512675Y-27975125D02*
X188607913Y-27927506D01*
X188607913Y-27927506D02*
X188798389Y-27879887D01*
X188798389Y-27879887D02*
X188941246Y-27879887D01*
X188941246Y-27879887D02*
X189131722Y-27927506D01*
X189131722Y-27927506D02*
X189226960Y-27975125D01*
X189226960Y-27975125D02*
X189322199Y-28070363D01*
X189322199Y-28070363D02*
X189369818Y-28213220D01*
X189369818Y-28213220D02*
X189369818Y-28451315D01*
X185322200Y-30260839D02*
X185369819Y-30117982D01*
X185369819Y-30117982D02*
X185369819Y-29879887D01*
X185369819Y-29879887D02*
X185322200Y-29784649D01*
X185322200Y-29784649D02*
X185274580Y-29737030D01*
X185274580Y-29737030D02*
X185179342Y-29689411D01*
X185179342Y-29689411D02*
X185084104Y-29689411D01*
X185084104Y-29689411D02*
X184988866Y-29737030D01*
X184988866Y-29737030D02*
X184941247Y-29784649D01*
X184941247Y-29784649D02*
X184893628Y-29879887D01*
X184893628Y-29879887D02*
X184846009Y-30070363D01*
X184846009Y-30070363D02*
X184798390Y-30165601D01*
X184798390Y-30165601D02*
X184750771Y-30213220D01*
X184750771Y-30213220D02*
X184655533Y-30260839D01*
X184655533Y-30260839D02*
X184560295Y-30260839D01*
X184560295Y-30260839D02*
X184465057Y-30213220D01*
X184465057Y-30213220D02*
X184417438Y-30165601D01*
X184417438Y-30165601D02*
X184369819Y-30070363D01*
X184369819Y-30070363D02*
X184369819Y-29832268D01*
X184369819Y-29832268D02*
X184417438Y-29689411D01*
X185274580Y-28689411D02*
X185322200Y-28737030D01*
X185322200Y-28737030D02*
X185369819Y-28879887D01*
X185369819Y-28879887D02*
X185369819Y-28975125D01*
X185369819Y-28975125D02*
X185322200Y-29117982D01*
X185322200Y-29117982D02*
X185226961Y-29213220D01*
X185226961Y-29213220D02*
X185131723Y-29260839D01*
X185131723Y-29260839D02*
X184941247Y-29308458D01*
X184941247Y-29308458D02*
X184798390Y-29308458D01*
X184798390Y-29308458D02*
X184607914Y-29260839D01*
X184607914Y-29260839D02*
X184512676Y-29213220D01*
X184512676Y-29213220D02*
X184417438Y-29117982D01*
X184417438Y-29117982D02*
X184369819Y-28975125D01*
X184369819Y-28975125D02*
X184369819Y-28879887D01*
X184369819Y-28879887D02*
X184417438Y-28737030D01*
X184417438Y-28737030D02*
X184465057Y-28689411D01*
X185369819Y-27784649D02*
X185369819Y-28260839D01*
X185369819Y-28260839D02*
X184369819Y-28260839D01*
X187036485Y-30308458D02*
X187036485Y-29689411D01*
X187036485Y-29689411D02*
X187417437Y-30022744D01*
X187417437Y-30022744D02*
X187417437Y-29879887D01*
X187417437Y-29879887D02*
X187465056Y-29784649D01*
X187465056Y-29784649D02*
X187512675Y-29737030D01*
X187512675Y-29737030D02*
X187607913Y-29689411D01*
X187607913Y-29689411D02*
X187846008Y-29689411D01*
X187846008Y-29689411D02*
X187941246Y-29737030D01*
X187941246Y-29737030D02*
X187988866Y-29784649D01*
X187988866Y-29784649D02*
X188036485Y-29879887D01*
X188036485Y-29879887D02*
X188036485Y-30165601D01*
X188036485Y-30165601D02*
X187988866Y-30260839D01*
X187988866Y-30260839D02*
X187941246Y-30308458D01*
X187036485Y-29403696D02*
X188036485Y-29070363D01*
X188036485Y-29070363D02*
X187036485Y-28737030D01*
X187036485Y-28498934D02*
X187036485Y-27879887D01*
X187036485Y-27879887D02*
X187417437Y-28213220D01*
X187417437Y-28213220D02*
X187417437Y-28070363D01*
X187417437Y-28070363D02*
X187465056Y-27975125D01*
X187465056Y-27975125D02*
X187512675Y-27927506D01*
X187512675Y-27927506D02*
X187607913Y-27879887D01*
X187607913Y-27879887D02*
X187846008Y-27879887D01*
X187846008Y-27879887D02*
X187941246Y-27927506D01*
X187941246Y-27927506D02*
X187988866Y-27975125D01*
X187988866Y-27975125D02*
X188036485Y-28070363D01*
X188036485Y-28070363D02*
X188036485Y-28356077D01*
X188036485Y-28356077D02*
X187988866Y-28451315D01*
X187988866Y-28451315D02*
X187941246Y-28498934D01*
D13*
X248953006Y-30093409D02*
X249095863Y-30141028D01*
X249095863Y-30141028D02*
X249143482Y-30188647D01*
X249143482Y-30188647D02*
X249191101Y-30283885D01*
X249191101Y-30283885D02*
X249191101Y-30426742D01*
X249191101Y-30426742D02*
X249143482Y-30521980D01*
X249143482Y-30521980D02*
X249095863Y-30569600D01*
X249095863Y-30569600D02*
X249000625Y-30617219D01*
X249000625Y-30617219D02*
X248619673Y-30617219D01*
X248619673Y-30617219D02*
X248619673Y-29617219D01*
X248619673Y-29617219D02*
X248953006Y-29617219D01*
X248953006Y-29617219D02*
X249048244Y-29664838D01*
X249048244Y-29664838D02*
X249095863Y-29712457D01*
X249095863Y-29712457D02*
X249143482Y-29807695D01*
X249143482Y-29807695D02*
X249143482Y-29902933D01*
X249143482Y-29902933D02*
X249095863Y-29998171D01*
X249095863Y-29998171D02*
X249048244Y-30045790D01*
X249048244Y-30045790D02*
X248953006Y-30093409D01*
X248953006Y-30093409D02*
X248619673Y-30093409D01*
X249810149Y-29617219D02*
X250000625Y-29617219D01*
X250000625Y-29617219D02*
X250095863Y-29664838D01*
X250095863Y-29664838D02*
X250191101Y-29760076D01*
X250191101Y-29760076D02*
X250238720Y-29950552D01*
X250238720Y-29950552D02*
X250238720Y-30283885D01*
X250238720Y-30283885D02*
X250191101Y-30474361D01*
X250191101Y-30474361D02*
X250095863Y-30569600D01*
X250095863Y-30569600D02*
X250000625Y-30617219D01*
X250000625Y-30617219D02*
X249810149Y-30617219D01*
X249810149Y-30617219D02*
X249714911Y-30569600D01*
X249714911Y-30569600D02*
X249619673Y-30474361D01*
X249619673Y-30474361D02*
X249572054Y-30283885D01*
X249572054Y-30283885D02*
X249572054Y-29950552D01*
X249572054Y-29950552D02*
X249619673Y-29760076D01*
X249619673Y-29760076D02*
X249714911Y-29664838D01*
X249714911Y-29664838D02*
X249810149Y-29617219D01*
X250857768Y-29617219D02*
X251048244Y-29617219D01*
X251048244Y-29617219D02*
X251143482Y-29664838D01*
X251143482Y-29664838D02*
X251238720Y-29760076D01*
X251238720Y-29760076D02*
X251286339Y-29950552D01*
X251286339Y-29950552D02*
X251286339Y-30283885D01*
X251286339Y-30283885D02*
X251238720Y-30474361D01*
X251238720Y-30474361D02*
X251143482Y-30569600D01*
X251143482Y-30569600D02*
X251048244Y-30617219D01*
X251048244Y-30617219D02*
X250857768Y-30617219D01*
X250857768Y-30617219D02*
X250762530Y-30569600D01*
X250762530Y-30569600D02*
X250667292Y-30474361D01*
X250667292Y-30474361D02*
X250619673Y-30283885D01*
X250619673Y-30283885D02*
X250619673Y-29950552D01*
X250619673Y-29950552D02*
X250667292Y-29760076D01*
X250667292Y-29760076D02*
X250762530Y-29664838D01*
X250762530Y-29664838D02*
X250857768Y-29617219D01*
X251572054Y-29617219D02*
X252143482Y-29617219D01*
X251857768Y-30617219D02*
X251857768Y-29617219D01*
D11*
X41029580Y-30141666D02*
X41077200Y-30189285D01*
X41077200Y-30189285D02*
X41124819Y-30332142D01*
X41124819Y-30332142D02*
X41124819Y-30427380D01*
X41124819Y-30427380D02*
X41077200Y-30570237D01*
X41077200Y-30570237D02*
X40981961Y-30665475D01*
X40981961Y-30665475D02*
X40886723Y-30713094D01*
X40886723Y-30713094D02*
X40696247Y-30760713D01*
X40696247Y-30760713D02*
X40553390Y-30760713D01*
X40553390Y-30760713D02*
X40362914Y-30713094D01*
X40362914Y-30713094D02*
X40267676Y-30665475D01*
X40267676Y-30665475D02*
X40172438Y-30570237D01*
X40172438Y-30570237D02*
X40124819Y-30427380D01*
X40124819Y-30427380D02*
X40124819Y-30332142D01*
X40124819Y-30332142D02*
X40172438Y-30189285D01*
X40172438Y-30189285D02*
X40220057Y-30141666D01*
X41124819Y-29189285D02*
X41124819Y-29760713D01*
X41124819Y-29474999D02*
X40124819Y-29474999D01*
X40124819Y-29474999D02*
X40267676Y-29570237D01*
X40267676Y-29570237D02*
X40362914Y-29665475D01*
X40362914Y-29665475D02*
X40410533Y-29760713D01*
X195083333Y-47359580D02*
X195035714Y-47407200D01*
X195035714Y-47407200D02*
X194892857Y-47454819D01*
X194892857Y-47454819D02*
X194797619Y-47454819D01*
X194797619Y-47454819D02*
X194654762Y-47407200D01*
X194654762Y-47407200D02*
X194559524Y-47311961D01*
X194559524Y-47311961D02*
X194511905Y-47216723D01*
X194511905Y-47216723D02*
X194464286Y-47026247D01*
X194464286Y-47026247D02*
X194464286Y-46883390D01*
X194464286Y-46883390D02*
X194511905Y-46692914D01*
X194511905Y-46692914D02*
X194559524Y-46597676D01*
X194559524Y-46597676D02*
X194654762Y-46502438D01*
X194654762Y-46502438D02*
X194797619Y-46454819D01*
X194797619Y-46454819D02*
X194892857Y-46454819D01*
X194892857Y-46454819D02*
X195035714Y-46502438D01*
X195035714Y-46502438D02*
X195083333Y-46550057D01*
X195464286Y-46550057D02*
X195511905Y-46502438D01*
X195511905Y-46502438D02*
X195607143Y-46454819D01*
X195607143Y-46454819D02*
X195845238Y-46454819D01*
X195845238Y-46454819D02*
X195940476Y-46502438D01*
X195940476Y-46502438D02*
X195988095Y-46550057D01*
X195988095Y-46550057D02*
X196035714Y-46645295D01*
X196035714Y-46645295D02*
X196035714Y-46740533D01*
X196035714Y-46740533D02*
X195988095Y-46883390D01*
X195988095Y-46883390D02*
X195416667Y-47454819D01*
X195416667Y-47454819D02*
X196035714Y-47454819D01*
X35470833Y-33074819D02*
X35137500Y-32598628D01*
X34899405Y-33074819D02*
X34899405Y-32074819D01*
X34899405Y-32074819D02*
X35280357Y-32074819D01*
X35280357Y-32074819D02*
X35375595Y-32122438D01*
X35375595Y-32122438D02*
X35423214Y-32170057D01*
X35423214Y-32170057D02*
X35470833Y-32265295D01*
X35470833Y-32265295D02*
X35470833Y-32408152D01*
X35470833Y-32408152D02*
X35423214Y-32503390D01*
X35423214Y-32503390D02*
X35375595Y-32551009D01*
X35375595Y-32551009D02*
X35280357Y-32598628D01*
X35280357Y-32598628D02*
X34899405Y-32598628D01*
X35804167Y-32074819D02*
X36423214Y-32074819D01*
X36423214Y-32074819D02*
X36089881Y-32455771D01*
X36089881Y-32455771D02*
X36232738Y-32455771D01*
X36232738Y-32455771D02*
X36327976Y-32503390D01*
X36327976Y-32503390D02*
X36375595Y-32551009D01*
X36375595Y-32551009D02*
X36423214Y-32646247D01*
X36423214Y-32646247D02*
X36423214Y-32884342D01*
X36423214Y-32884342D02*
X36375595Y-32979580D01*
X36375595Y-32979580D02*
X36327976Y-33027200D01*
X36327976Y-33027200D02*
X36232738Y-33074819D01*
X36232738Y-33074819D02*
X35947024Y-33074819D01*
X35947024Y-33074819D02*
X35851786Y-33027200D01*
X35851786Y-33027200D02*
X35804167Y-32979580D01*
X216359580Y-30666666D02*
X216407200Y-30714285D01*
X216407200Y-30714285D02*
X216454819Y-30857142D01*
X216454819Y-30857142D02*
X216454819Y-30952380D01*
X216454819Y-30952380D02*
X216407200Y-31095237D01*
X216407200Y-31095237D02*
X216311961Y-31190475D01*
X216311961Y-31190475D02*
X216216723Y-31238094D01*
X216216723Y-31238094D02*
X216026247Y-31285713D01*
X216026247Y-31285713D02*
X215883390Y-31285713D01*
X215883390Y-31285713D02*
X215692914Y-31238094D01*
X215692914Y-31238094D02*
X215597676Y-31190475D01*
X215597676Y-31190475D02*
X215502438Y-31095237D01*
X215502438Y-31095237D02*
X215454819Y-30952380D01*
X215454819Y-30952380D02*
X215454819Y-30857142D01*
X215454819Y-30857142D02*
X215502438Y-30714285D01*
X215502438Y-30714285D02*
X215550057Y-30666666D01*
X215454819Y-30333332D02*
X215454819Y-29666666D01*
X215454819Y-29666666D02*
X216454819Y-30095237D01*
X66809523Y-27359580D02*
X66761904Y-27407200D01*
X66761904Y-27407200D02*
X66619047Y-27454819D01*
X66619047Y-27454819D02*
X66523809Y-27454819D01*
X66523809Y-27454819D02*
X66380952Y-27407200D01*
X66380952Y-27407200D02*
X66285714Y-27311961D01*
X66285714Y-27311961D02*
X66238095Y-27216723D01*
X66238095Y-27216723D02*
X66190476Y-27026247D01*
X66190476Y-27026247D02*
X66190476Y-26883390D01*
X66190476Y-26883390D02*
X66238095Y-26692914D01*
X66238095Y-26692914D02*
X66285714Y-26597676D01*
X66285714Y-26597676D02*
X66380952Y-26502438D01*
X66380952Y-26502438D02*
X66523809Y-26454819D01*
X66523809Y-26454819D02*
X66619047Y-26454819D01*
X66619047Y-26454819D02*
X66761904Y-26502438D01*
X66761904Y-26502438D02*
X66809523Y-26550057D01*
X67238095Y-27454819D02*
X67238095Y-26454819D01*
X67238095Y-26454819D02*
X67809523Y-27454819D01*
X67809523Y-27454819D02*
X67809523Y-26454819D01*
X68809523Y-27454819D02*
X68238095Y-27454819D01*
X68523809Y-27454819D02*
X68523809Y-26454819D01*
X68523809Y-26454819D02*
X68428571Y-26597676D01*
X68428571Y-26597676D02*
X68333333Y-26692914D01*
X68333333Y-26692914D02*
X68238095Y-26740533D01*
X206607142Y-53179580D02*
X206559523Y-53227200D01*
X206559523Y-53227200D02*
X206416666Y-53274819D01*
X206416666Y-53274819D02*
X206321428Y-53274819D01*
X206321428Y-53274819D02*
X206178571Y-53227200D01*
X206178571Y-53227200D02*
X206083333Y-53131961D01*
X206083333Y-53131961D02*
X206035714Y-53036723D01*
X206035714Y-53036723D02*
X205988095Y-52846247D01*
X205988095Y-52846247D02*
X205988095Y-52703390D01*
X205988095Y-52703390D02*
X206035714Y-52512914D01*
X206035714Y-52512914D02*
X206083333Y-52417676D01*
X206083333Y-52417676D02*
X206178571Y-52322438D01*
X206178571Y-52322438D02*
X206321428Y-52274819D01*
X206321428Y-52274819D02*
X206416666Y-52274819D01*
X206416666Y-52274819D02*
X206559523Y-52322438D01*
X206559523Y-52322438D02*
X206607142Y-52370057D01*
X207559523Y-53274819D02*
X206988095Y-53274819D01*
X207273809Y-53274819D02*
X207273809Y-52274819D01*
X207273809Y-52274819D02*
X207178571Y-52417676D01*
X207178571Y-52417676D02*
X207083333Y-52512914D01*
X207083333Y-52512914D02*
X206988095Y-52560533D01*
X208511904Y-53274819D02*
X207940476Y-53274819D01*
X208226190Y-53274819D02*
X208226190Y-52274819D01*
X208226190Y-52274819D02*
X208130952Y-52417676D01*
X208130952Y-52417676D02*
X208035714Y-52512914D01*
X208035714Y-52512914D02*
X207940476Y-52560533D01*
X198741666Y-22204819D02*
X198741666Y-22919104D01*
X198741666Y-22919104D02*
X198694047Y-23061961D01*
X198694047Y-23061961D02*
X198598809Y-23157200D01*
X198598809Y-23157200D02*
X198455952Y-23204819D01*
X198455952Y-23204819D02*
X198360714Y-23204819D01*
X199741666Y-23204819D02*
X199170238Y-23204819D01*
X199455952Y-23204819D02*
X199455952Y-22204819D01*
X199455952Y-22204819D02*
X199360714Y-22347676D01*
X199360714Y-22347676D02*
X199265476Y-22442914D01*
X199265476Y-22442914D02*
X199170238Y-22490533D01*
X216359580Y-27416666D02*
X216407200Y-27464285D01*
X216407200Y-27464285D02*
X216454819Y-27607142D01*
X216454819Y-27607142D02*
X216454819Y-27702380D01*
X216454819Y-27702380D02*
X216407200Y-27845237D01*
X216407200Y-27845237D02*
X216311961Y-27940475D01*
X216311961Y-27940475D02*
X216216723Y-27988094D01*
X216216723Y-27988094D02*
X216026247Y-28035713D01*
X216026247Y-28035713D02*
X215883390Y-28035713D01*
X215883390Y-28035713D02*
X215692914Y-27988094D01*
X215692914Y-27988094D02*
X215597676Y-27940475D01*
X215597676Y-27940475D02*
X215502438Y-27845237D01*
X215502438Y-27845237D02*
X215454819Y-27702380D01*
X215454819Y-27702380D02*
X215454819Y-27607142D01*
X215454819Y-27607142D02*
X215502438Y-27464285D01*
X215502438Y-27464285D02*
X215550057Y-27416666D01*
X215788152Y-26559523D02*
X216454819Y-26559523D01*
X215407200Y-26797618D02*
X216121485Y-27035713D01*
X216121485Y-27035713D02*
X216121485Y-26416666D01*
X180341905Y-31874819D02*
X180341905Y-32684342D01*
X180341905Y-32684342D02*
X180389524Y-32779580D01*
X180389524Y-32779580D02*
X180437143Y-32827200D01*
X180437143Y-32827200D02*
X180532381Y-32874819D01*
X180532381Y-32874819D02*
X180722857Y-32874819D01*
X180722857Y-32874819D02*
X180818095Y-32827200D01*
X180818095Y-32827200D02*
X180865714Y-32779580D01*
X180865714Y-32779580D02*
X180913333Y-32684342D01*
X180913333Y-32684342D02*
X180913333Y-31874819D01*
X181913333Y-32874819D02*
X181341905Y-32874819D01*
X181627619Y-32874819D02*
X181627619Y-31874819D01*
X181627619Y-31874819D02*
X181532381Y-32017676D01*
X181532381Y-32017676D02*
X181437143Y-32112914D01*
X181437143Y-32112914D02*
X181341905Y-32160533D01*
X182294286Y-31970057D02*
X182341905Y-31922438D01*
X182341905Y-31922438D02*
X182437143Y-31874819D01*
X182437143Y-31874819D02*
X182675238Y-31874819D01*
X182675238Y-31874819D02*
X182770476Y-31922438D01*
X182770476Y-31922438D02*
X182818095Y-31970057D01*
X182818095Y-31970057D02*
X182865714Y-32065295D01*
X182865714Y-32065295D02*
X182865714Y-32160533D01*
X182865714Y-32160533D02*
X182818095Y-32303390D01*
X182818095Y-32303390D02*
X182246667Y-32874819D01*
X182246667Y-32874819D02*
X182865714Y-32874819D01*
D12*
X183236265Y-35741371D02*
X183236265Y-35141371D01*
X183236265Y-35141371D02*
X183693408Y-35741371D01*
X183693408Y-35741371D02*
X183693408Y-35141371D01*
X184531503Y-35684228D02*
X184493407Y-35712800D01*
X184493407Y-35712800D02*
X184379122Y-35741371D01*
X184379122Y-35741371D02*
X184302931Y-35741371D01*
X184302931Y-35741371D02*
X184188645Y-35712800D01*
X184188645Y-35712800D02*
X184112455Y-35655657D01*
X184112455Y-35655657D02*
X184074360Y-35598514D01*
X184074360Y-35598514D02*
X184036264Y-35484228D01*
X184036264Y-35484228D02*
X184036264Y-35398514D01*
X184036264Y-35398514D02*
X184074360Y-35284228D01*
X184074360Y-35284228D02*
X184112455Y-35227085D01*
X184112455Y-35227085D02*
X184188645Y-35169942D01*
X184188645Y-35169942D02*
X184302931Y-35141371D01*
X184302931Y-35141371D02*
X184379122Y-35141371D01*
X184379122Y-35141371D02*
X184493407Y-35169942D01*
X184493407Y-35169942D02*
X184531503Y-35198514D01*
X183236265Y-36541371D02*
X183236265Y-35941371D01*
X183236265Y-35941371D02*
X183693408Y-36541371D01*
X183693408Y-36541371D02*
X183693408Y-35941371D01*
X184531503Y-36484228D02*
X184493407Y-36512800D01*
X184493407Y-36512800D02*
X184379122Y-36541371D01*
X184379122Y-36541371D02*
X184302931Y-36541371D01*
X184302931Y-36541371D02*
X184188645Y-36512800D01*
X184188645Y-36512800D02*
X184112455Y-36455657D01*
X184112455Y-36455657D02*
X184074360Y-36398514D01*
X184074360Y-36398514D02*
X184036264Y-36284228D01*
X184036264Y-36284228D02*
X184036264Y-36198514D01*
X184036264Y-36198514D02*
X184074360Y-36084228D01*
X184074360Y-36084228D02*
X184112455Y-36027085D01*
X184112455Y-36027085D02*
X184188645Y-35969942D01*
X184188645Y-35969942D02*
X184302931Y-35941371D01*
X184302931Y-35941371D02*
X184379122Y-35941371D01*
X184379122Y-35941371D02*
X184493407Y-35969942D01*
X184493407Y-35969942D02*
X184531503Y-35998514D01*
X183617217Y-37341371D02*
X183236265Y-37341371D01*
X183236265Y-37341371D02*
X183236265Y-36741371D01*
X183883884Y-37027085D02*
X184150550Y-37027085D01*
X184264836Y-37341371D02*
X183883884Y-37341371D01*
X183883884Y-37341371D02*
X183883884Y-36741371D01*
X183883884Y-36741371D02*
X184264836Y-36741371D01*
X184607694Y-37341371D02*
X184607694Y-36741371D01*
X184607694Y-36741371D02*
X184798170Y-36741371D01*
X184798170Y-36741371D02*
X184912456Y-36769942D01*
X184912456Y-36769942D02*
X184988646Y-36827085D01*
X184988646Y-36827085D02*
X185026741Y-36884228D01*
X185026741Y-36884228D02*
X185064837Y-36998514D01*
X185064837Y-36998514D02*
X185064837Y-37084228D01*
X185064837Y-37084228D02*
X185026741Y-37198514D01*
X185026741Y-37198514D02*
X184988646Y-37255657D01*
X184988646Y-37255657D02*
X184912456Y-37312800D01*
X184912456Y-37312800D02*
X184798170Y-37341371D01*
X184798170Y-37341371D02*
X184607694Y-37341371D01*
X185407694Y-37341371D02*
X185407694Y-36741371D01*
X185864837Y-37341371D02*
X185521979Y-36998514D01*
X185864837Y-36741371D02*
X185407694Y-37084228D01*
X186550551Y-36941371D02*
X186550551Y-37341371D01*
X186360075Y-36712800D02*
X186169598Y-37141371D01*
X186169598Y-37141371D02*
X186664837Y-37141371D01*
X183617217Y-39741371D02*
X183236265Y-39741371D01*
X183236265Y-39741371D02*
X183236265Y-39141371D01*
X183883884Y-39427085D02*
X184150550Y-39427085D01*
X184264836Y-39741371D02*
X183883884Y-39741371D01*
X183883884Y-39741371D02*
X183883884Y-39141371D01*
X183883884Y-39141371D02*
X184264836Y-39141371D01*
X184607694Y-39741371D02*
X184607694Y-39141371D01*
X184607694Y-39141371D02*
X184798170Y-39141371D01*
X184798170Y-39141371D02*
X184912456Y-39169942D01*
X184912456Y-39169942D02*
X184988646Y-39227085D01*
X184988646Y-39227085D02*
X185026741Y-39284228D01*
X185026741Y-39284228D02*
X185064837Y-39398514D01*
X185064837Y-39398514D02*
X185064837Y-39484228D01*
X185064837Y-39484228D02*
X185026741Y-39598514D01*
X185026741Y-39598514D02*
X184988646Y-39655657D01*
X184988646Y-39655657D02*
X184912456Y-39712800D01*
X184912456Y-39712800D02*
X184798170Y-39741371D01*
X184798170Y-39741371D02*
X184607694Y-39741371D01*
X185407694Y-39741371D02*
X185407694Y-39141371D01*
X185864837Y-39741371D02*
X185521979Y-39398514D01*
X185864837Y-39141371D02*
X185407694Y-39484228D01*
X186626741Y-39741371D02*
X186169598Y-39741371D01*
X186398170Y-39741371D02*
X186398170Y-39141371D01*
X186398170Y-39141371D02*
X186321979Y-39227085D01*
X186321979Y-39227085D02*
X186245789Y-39284228D01*
X186245789Y-39284228D02*
X186169598Y-39312800D01*
X183121979Y-40741371D02*
X183388646Y-41341371D01*
X183388646Y-41341371D02*
X183655312Y-40741371D01*
X184379122Y-41284228D02*
X184341026Y-41312800D01*
X184341026Y-41312800D02*
X184226741Y-41341371D01*
X184226741Y-41341371D02*
X184150550Y-41341371D01*
X184150550Y-41341371D02*
X184036264Y-41312800D01*
X184036264Y-41312800D02*
X183960074Y-41255657D01*
X183960074Y-41255657D02*
X183921979Y-41198514D01*
X183921979Y-41198514D02*
X183883883Y-41084228D01*
X183883883Y-41084228D02*
X183883883Y-40998514D01*
X183883883Y-40998514D02*
X183921979Y-40884228D01*
X183921979Y-40884228D02*
X183960074Y-40827085D01*
X183960074Y-40827085D02*
X184036264Y-40769942D01*
X184036264Y-40769942D02*
X184150550Y-40741371D01*
X184150550Y-40741371D02*
X184226741Y-40741371D01*
X184226741Y-40741371D02*
X184341026Y-40769942D01*
X184341026Y-40769942D02*
X184379122Y-40798514D01*
X185179122Y-41284228D02*
X185141026Y-41312800D01*
X185141026Y-41312800D02*
X185026741Y-41341371D01*
X185026741Y-41341371D02*
X184950550Y-41341371D01*
X184950550Y-41341371D02*
X184836264Y-41312800D01*
X184836264Y-41312800D02*
X184760074Y-41255657D01*
X184760074Y-41255657D02*
X184721979Y-41198514D01*
X184721979Y-41198514D02*
X184683883Y-41084228D01*
X184683883Y-41084228D02*
X184683883Y-40998514D01*
X184683883Y-40998514D02*
X184721979Y-40884228D01*
X184721979Y-40884228D02*
X184760074Y-40827085D01*
X184760074Y-40827085D02*
X184836264Y-40769942D01*
X184836264Y-40769942D02*
X184950550Y-40741371D01*
X184950550Y-40741371D02*
X185026741Y-40741371D01*
X185026741Y-40741371D02*
X185141026Y-40769942D01*
X185141026Y-40769942D02*
X185179122Y-40798514D01*
X183617217Y-38941371D02*
X183236265Y-38941371D01*
X183236265Y-38941371D02*
X183236265Y-38341371D01*
X183883884Y-38627085D02*
X184150550Y-38627085D01*
X184264836Y-38941371D02*
X183883884Y-38941371D01*
X183883884Y-38941371D02*
X183883884Y-38341371D01*
X183883884Y-38341371D02*
X184264836Y-38341371D01*
X184607694Y-38941371D02*
X184607694Y-38341371D01*
X184607694Y-38341371D02*
X184798170Y-38341371D01*
X184798170Y-38341371D02*
X184912456Y-38369942D01*
X184912456Y-38369942D02*
X184988646Y-38427085D01*
X184988646Y-38427085D02*
X185026741Y-38484228D01*
X185026741Y-38484228D02*
X185064837Y-38598514D01*
X185064837Y-38598514D02*
X185064837Y-38684228D01*
X185064837Y-38684228D02*
X185026741Y-38798514D01*
X185026741Y-38798514D02*
X184988646Y-38855657D01*
X184988646Y-38855657D02*
X184912456Y-38912800D01*
X184912456Y-38912800D02*
X184798170Y-38941371D01*
X184798170Y-38941371D02*
X184607694Y-38941371D01*
X185407694Y-38941371D02*
X185407694Y-38341371D01*
X185864837Y-38941371D02*
X185521979Y-38598514D01*
X185864837Y-38341371D02*
X185407694Y-38684228D01*
X186169598Y-38398514D02*
X186207694Y-38369942D01*
X186207694Y-38369942D02*
X186283884Y-38341371D01*
X186283884Y-38341371D02*
X186474360Y-38341371D01*
X186474360Y-38341371D02*
X186550551Y-38369942D01*
X186550551Y-38369942D02*
X186588646Y-38398514D01*
X186588646Y-38398514D02*
X186626741Y-38455657D01*
X186626741Y-38455657D02*
X186626741Y-38512800D01*
X186626741Y-38512800D02*
X186588646Y-38598514D01*
X186588646Y-38598514D02*
X186131503Y-38941371D01*
X186131503Y-38941371D02*
X186626741Y-38941371D01*
X183655312Y-41569942D02*
X183579122Y-41541371D01*
X183579122Y-41541371D02*
X183464836Y-41541371D01*
X183464836Y-41541371D02*
X183350550Y-41569942D01*
X183350550Y-41569942D02*
X183274360Y-41627085D01*
X183274360Y-41627085D02*
X183236265Y-41684228D01*
X183236265Y-41684228D02*
X183198169Y-41798514D01*
X183198169Y-41798514D02*
X183198169Y-41884228D01*
X183198169Y-41884228D02*
X183236265Y-41998514D01*
X183236265Y-41998514D02*
X183274360Y-42055657D01*
X183274360Y-42055657D02*
X183350550Y-42112800D01*
X183350550Y-42112800D02*
X183464836Y-42141371D01*
X183464836Y-42141371D02*
X183541027Y-42141371D01*
X183541027Y-42141371D02*
X183655312Y-42112800D01*
X183655312Y-42112800D02*
X183693408Y-42084228D01*
X183693408Y-42084228D02*
X183693408Y-41884228D01*
X183693408Y-41884228D02*
X183541027Y-41884228D01*
X184036265Y-42141371D02*
X184036265Y-41541371D01*
X184036265Y-41541371D02*
X184493408Y-42141371D01*
X184493408Y-42141371D02*
X184493408Y-41541371D01*
X184874360Y-42141371D02*
X184874360Y-41541371D01*
X184874360Y-41541371D02*
X185064836Y-41541371D01*
X185064836Y-41541371D02*
X185179122Y-41569942D01*
X185179122Y-41569942D02*
X185255312Y-41627085D01*
X185255312Y-41627085D02*
X185293407Y-41684228D01*
X185293407Y-41684228D02*
X185331503Y-41798514D01*
X185331503Y-41798514D02*
X185331503Y-41884228D01*
X185331503Y-41884228D02*
X185293407Y-41998514D01*
X185293407Y-41998514D02*
X185255312Y-42055657D01*
X185255312Y-42055657D02*
X185179122Y-42112800D01*
X185179122Y-42112800D02*
X185064836Y-42141371D01*
X185064836Y-42141371D02*
X184874360Y-42141371D01*
X183236265Y-34941371D02*
X183236265Y-34341371D01*
X183236265Y-34341371D02*
X183693408Y-34941371D01*
X183693408Y-34941371D02*
X183693408Y-34341371D01*
X184531503Y-34884228D02*
X184493407Y-34912800D01*
X184493407Y-34912800D02*
X184379122Y-34941371D01*
X184379122Y-34941371D02*
X184302931Y-34941371D01*
X184302931Y-34941371D02*
X184188645Y-34912800D01*
X184188645Y-34912800D02*
X184112455Y-34855657D01*
X184112455Y-34855657D02*
X184074360Y-34798514D01*
X184074360Y-34798514D02*
X184036264Y-34684228D01*
X184036264Y-34684228D02*
X184036264Y-34598514D01*
X184036264Y-34598514D02*
X184074360Y-34484228D01*
X184074360Y-34484228D02*
X184112455Y-34427085D01*
X184112455Y-34427085D02*
X184188645Y-34369942D01*
X184188645Y-34369942D02*
X184302931Y-34341371D01*
X184302931Y-34341371D02*
X184379122Y-34341371D01*
X184379122Y-34341371D02*
X184493407Y-34369942D01*
X184493407Y-34369942D02*
X184531503Y-34398514D01*
X183693408Y-44484228D02*
X183655312Y-44512800D01*
X183655312Y-44512800D02*
X183541027Y-44541371D01*
X183541027Y-44541371D02*
X183464836Y-44541371D01*
X183464836Y-44541371D02*
X183350550Y-44512800D01*
X183350550Y-44512800D02*
X183274360Y-44455657D01*
X183274360Y-44455657D02*
X183236265Y-44398514D01*
X183236265Y-44398514D02*
X183198169Y-44284228D01*
X183198169Y-44284228D02*
X183198169Y-44198514D01*
X183198169Y-44198514D02*
X183236265Y-44084228D01*
X183236265Y-44084228D02*
X183274360Y-44027085D01*
X183274360Y-44027085D02*
X183350550Y-43969942D01*
X183350550Y-43969942D02*
X183464836Y-43941371D01*
X183464836Y-43941371D02*
X183541027Y-43941371D01*
X183541027Y-43941371D02*
X183655312Y-43969942D01*
X183655312Y-43969942D02*
X183693408Y-43998514D01*
X183998169Y-44512800D02*
X184112455Y-44541371D01*
X184112455Y-44541371D02*
X184302931Y-44541371D01*
X184302931Y-44541371D02*
X184379122Y-44512800D01*
X184379122Y-44512800D02*
X184417217Y-44484228D01*
X184417217Y-44484228D02*
X184455312Y-44427085D01*
X184455312Y-44427085D02*
X184455312Y-44369942D01*
X184455312Y-44369942D02*
X184417217Y-44312800D01*
X184417217Y-44312800D02*
X184379122Y-44284228D01*
X184379122Y-44284228D02*
X184302931Y-44255657D01*
X184302931Y-44255657D02*
X184150550Y-44227085D01*
X184150550Y-44227085D02*
X184074360Y-44198514D01*
X184074360Y-44198514D02*
X184036265Y-44169942D01*
X184036265Y-44169942D02*
X183998169Y-44112800D01*
X183998169Y-44112800D02*
X183998169Y-44055657D01*
X183998169Y-44055657D02*
X184036265Y-43998514D01*
X184036265Y-43998514D02*
X184074360Y-43969942D01*
X184074360Y-43969942D02*
X184150550Y-43941371D01*
X184150550Y-43941371D02*
X184341027Y-43941371D01*
X184341027Y-43941371D02*
X184455312Y-43969942D01*
X183655312Y-47169942D02*
X183579122Y-47141371D01*
X183579122Y-47141371D02*
X183464836Y-47141371D01*
X183464836Y-47141371D02*
X183350550Y-47169942D01*
X183350550Y-47169942D02*
X183274360Y-47227085D01*
X183274360Y-47227085D02*
X183236265Y-47284228D01*
X183236265Y-47284228D02*
X183198169Y-47398514D01*
X183198169Y-47398514D02*
X183198169Y-47484228D01*
X183198169Y-47484228D02*
X183236265Y-47598514D01*
X183236265Y-47598514D02*
X183274360Y-47655657D01*
X183274360Y-47655657D02*
X183350550Y-47712800D01*
X183350550Y-47712800D02*
X183464836Y-47741371D01*
X183464836Y-47741371D02*
X183541027Y-47741371D01*
X183541027Y-47741371D02*
X183655312Y-47712800D01*
X183655312Y-47712800D02*
X183693408Y-47684228D01*
X183693408Y-47684228D02*
X183693408Y-47484228D01*
X183693408Y-47484228D02*
X183541027Y-47484228D01*
X184036265Y-47741371D02*
X184036265Y-47141371D01*
X184036265Y-47141371D02*
X184493408Y-47741371D01*
X184493408Y-47741371D02*
X184493408Y-47141371D01*
X184874360Y-47741371D02*
X184874360Y-47141371D01*
X184874360Y-47141371D02*
X185064836Y-47141371D01*
X185064836Y-47141371D02*
X185179122Y-47169942D01*
X185179122Y-47169942D02*
X185255312Y-47227085D01*
X185255312Y-47227085D02*
X185293407Y-47284228D01*
X185293407Y-47284228D02*
X185331503Y-47398514D01*
X185331503Y-47398514D02*
X185331503Y-47484228D01*
X185331503Y-47484228D02*
X185293407Y-47598514D01*
X185293407Y-47598514D02*
X185255312Y-47655657D01*
X185255312Y-47655657D02*
X185179122Y-47712800D01*
X185179122Y-47712800D02*
X185064836Y-47741371D01*
X185064836Y-47741371D02*
X184874360Y-47741371D01*
X183198169Y-43712800D02*
X183312455Y-43741371D01*
X183312455Y-43741371D02*
X183502931Y-43741371D01*
X183502931Y-43741371D02*
X183579122Y-43712800D01*
X183579122Y-43712800D02*
X183617217Y-43684228D01*
X183617217Y-43684228D02*
X183655312Y-43627085D01*
X183655312Y-43627085D02*
X183655312Y-43569942D01*
X183655312Y-43569942D02*
X183617217Y-43512800D01*
X183617217Y-43512800D02*
X183579122Y-43484228D01*
X183579122Y-43484228D02*
X183502931Y-43455657D01*
X183502931Y-43455657D02*
X183350550Y-43427085D01*
X183350550Y-43427085D02*
X183274360Y-43398514D01*
X183274360Y-43398514D02*
X183236265Y-43369942D01*
X183236265Y-43369942D02*
X183198169Y-43312800D01*
X183198169Y-43312800D02*
X183198169Y-43255657D01*
X183198169Y-43255657D02*
X183236265Y-43198514D01*
X183236265Y-43198514D02*
X183274360Y-43169942D01*
X183274360Y-43169942D02*
X183350550Y-43141371D01*
X183350550Y-43141371D02*
X183541027Y-43141371D01*
X183541027Y-43141371D02*
X183655312Y-43169942D01*
X183998170Y-43741371D02*
X183998170Y-43141371D01*
X183998170Y-43141371D02*
X184188646Y-43141371D01*
X184188646Y-43141371D02*
X184302932Y-43169942D01*
X184302932Y-43169942D02*
X184379122Y-43227085D01*
X184379122Y-43227085D02*
X184417217Y-43284228D01*
X184417217Y-43284228D02*
X184455313Y-43398514D01*
X184455313Y-43398514D02*
X184455313Y-43484228D01*
X184455313Y-43484228D02*
X184417217Y-43598514D01*
X184417217Y-43598514D02*
X184379122Y-43655657D01*
X184379122Y-43655657D02*
X184302932Y-43712800D01*
X184302932Y-43712800D02*
X184188646Y-43741371D01*
X184188646Y-43741371D02*
X183998170Y-43741371D01*
X184760074Y-43569942D02*
X185141027Y-43569942D01*
X184683884Y-43741371D02*
X184950551Y-43141371D01*
X184950551Y-43141371D02*
X185217217Y-43741371D01*
X183198169Y-46112800D02*
X183312455Y-46141371D01*
X183312455Y-46141371D02*
X183502931Y-46141371D01*
X183502931Y-46141371D02*
X183579122Y-46112800D01*
X183579122Y-46112800D02*
X183617217Y-46084228D01*
X183617217Y-46084228D02*
X183655312Y-46027085D01*
X183655312Y-46027085D02*
X183655312Y-45969942D01*
X183655312Y-45969942D02*
X183617217Y-45912800D01*
X183617217Y-45912800D02*
X183579122Y-45884228D01*
X183579122Y-45884228D02*
X183502931Y-45855657D01*
X183502931Y-45855657D02*
X183350550Y-45827085D01*
X183350550Y-45827085D02*
X183274360Y-45798514D01*
X183274360Y-45798514D02*
X183236265Y-45769942D01*
X183236265Y-45769942D02*
X183198169Y-45712800D01*
X183198169Y-45712800D02*
X183198169Y-45655657D01*
X183198169Y-45655657D02*
X183236265Y-45598514D01*
X183236265Y-45598514D02*
X183274360Y-45569942D01*
X183274360Y-45569942D02*
X183350550Y-45541371D01*
X183350550Y-45541371D02*
X183541027Y-45541371D01*
X183541027Y-45541371D02*
X183655312Y-45569942D01*
X184455313Y-46084228D02*
X184417217Y-46112800D01*
X184417217Y-46112800D02*
X184302932Y-46141371D01*
X184302932Y-46141371D02*
X184226741Y-46141371D01*
X184226741Y-46141371D02*
X184112455Y-46112800D01*
X184112455Y-46112800D02*
X184036265Y-46055657D01*
X184036265Y-46055657D02*
X183998170Y-45998514D01*
X183998170Y-45998514D02*
X183960074Y-45884228D01*
X183960074Y-45884228D02*
X183960074Y-45798514D01*
X183960074Y-45798514D02*
X183998170Y-45684228D01*
X183998170Y-45684228D02*
X184036265Y-45627085D01*
X184036265Y-45627085D02*
X184112455Y-45569942D01*
X184112455Y-45569942D02*
X184226741Y-45541371D01*
X184226741Y-45541371D02*
X184302932Y-45541371D01*
X184302932Y-45541371D02*
X184417217Y-45569942D01*
X184417217Y-45569942D02*
X184455313Y-45598514D01*
X185179122Y-46141371D02*
X184798170Y-46141371D01*
X184798170Y-46141371D02*
X184798170Y-45541371D01*
X183617217Y-40541371D02*
X183236265Y-40541371D01*
X183236265Y-40541371D02*
X183236265Y-39941371D01*
X183883884Y-40227085D02*
X184150550Y-40227085D01*
X184264836Y-40541371D02*
X183883884Y-40541371D01*
X183883884Y-40541371D02*
X183883884Y-39941371D01*
X183883884Y-39941371D02*
X184264836Y-39941371D01*
X184607694Y-40541371D02*
X184607694Y-39941371D01*
X184607694Y-39941371D02*
X184798170Y-39941371D01*
X184798170Y-39941371D02*
X184912456Y-39969942D01*
X184912456Y-39969942D02*
X184988646Y-40027085D01*
X184988646Y-40027085D02*
X185026741Y-40084228D01*
X185026741Y-40084228D02*
X185064837Y-40198514D01*
X185064837Y-40198514D02*
X185064837Y-40284228D01*
X185064837Y-40284228D02*
X185026741Y-40398514D01*
X185026741Y-40398514D02*
X184988646Y-40455657D01*
X184988646Y-40455657D02*
X184912456Y-40512800D01*
X184912456Y-40512800D02*
X184798170Y-40541371D01*
X184798170Y-40541371D02*
X184607694Y-40541371D01*
X185369598Y-40369942D02*
X185750551Y-40369942D01*
X185293408Y-40541371D02*
X185560075Y-39941371D01*
X185560075Y-39941371D02*
X185826741Y-40541371D01*
X183198169Y-42912800D02*
X183312455Y-42941371D01*
X183312455Y-42941371D02*
X183502931Y-42941371D01*
X183502931Y-42941371D02*
X183579122Y-42912800D01*
X183579122Y-42912800D02*
X183617217Y-42884228D01*
X183617217Y-42884228D02*
X183655312Y-42827085D01*
X183655312Y-42827085D02*
X183655312Y-42769942D01*
X183655312Y-42769942D02*
X183617217Y-42712800D01*
X183617217Y-42712800D02*
X183579122Y-42684228D01*
X183579122Y-42684228D02*
X183502931Y-42655657D01*
X183502931Y-42655657D02*
X183350550Y-42627085D01*
X183350550Y-42627085D02*
X183274360Y-42598514D01*
X183274360Y-42598514D02*
X183236265Y-42569942D01*
X183236265Y-42569942D02*
X183198169Y-42512800D01*
X183198169Y-42512800D02*
X183198169Y-42455657D01*
X183198169Y-42455657D02*
X183236265Y-42398514D01*
X183236265Y-42398514D02*
X183274360Y-42369942D01*
X183274360Y-42369942D02*
X183350550Y-42341371D01*
X183350550Y-42341371D02*
X183541027Y-42341371D01*
X183541027Y-42341371D02*
X183655312Y-42369942D01*
X183998170Y-42941371D02*
X183998170Y-42341371D01*
X183998170Y-42341371D02*
X184188646Y-42341371D01*
X184188646Y-42341371D02*
X184302932Y-42369942D01*
X184302932Y-42369942D02*
X184379122Y-42427085D01*
X184379122Y-42427085D02*
X184417217Y-42484228D01*
X184417217Y-42484228D02*
X184455313Y-42598514D01*
X184455313Y-42598514D02*
X184455313Y-42684228D01*
X184455313Y-42684228D02*
X184417217Y-42798514D01*
X184417217Y-42798514D02*
X184379122Y-42855657D01*
X184379122Y-42855657D02*
X184302932Y-42912800D01*
X184302932Y-42912800D02*
X184188646Y-42941371D01*
X184188646Y-42941371D02*
X183998170Y-42941371D01*
X184950551Y-42341371D02*
X185102932Y-42341371D01*
X185102932Y-42341371D02*
X185179122Y-42369942D01*
X185179122Y-42369942D02*
X185255313Y-42427085D01*
X185255313Y-42427085D02*
X185293408Y-42541371D01*
X185293408Y-42541371D02*
X185293408Y-42741371D01*
X185293408Y-42741371D02*
X185255313Y-42855657D01*
X185255313Y-42855657D02*
X185179122Y-42912800D01*
X185179122Y-42912800D02*
X185102932Y-42941371D01*
X185102932Y-42941371D02*
X184950551Y-42941371D01*
X184950551Y-42941371D02*
X184874360Y-42912800D01*
X184874360Y-42912800D02*
X184798170Y-42855657D01*
X184798170Y-42855657D02*
X184760074Y-42741371D01*
X184760074Y-42741371D02*
X184760074Y-42541371D01*
X184760074Y-42541371D02*
X184798170Y-42427085D01*
X184798170Y-42427085D02*
X184874360Y-42369942D01*
X184874360Y-42369942D02*
X184950551Y-42341371D01*
X183236265Y-34141371D02*
X183236265Y-33541371D01*
X183236265Y-33541371D02*
X183693408Y-34141371D01*
X183693408Y-34141371D02*
X183693408Y-33541371D01*
X184531503Y-34084228D02*
X184493407Y-34112800D01*
X184493407Y-34112800D02*
X184379122Y-34141371D01*
X184379122Y-34141371D02*
X184302931Y-34141371D01*
X184302931Y-34141371D02*
X184188645Y-34112800D01*
X184188645Y-34112800D02*
X184112455Y-34055657D01*
X184112455Y-34055657D02*
X184074360Y-33998514D01*
X184074360Y-33998514D02*
X184036264Y-33884228D01*
X184036264Y-33884228D02*
X184036264Y-33798514D01*
X184036264Y-33798514D02*
X184074360Y-33684228D01*
X184074360Y-33684228D02*
X184112455Y-33627085D01*
X184112455Y-33627085D02*
X184188645Y-33569942D01*
X184188645Y-33569942D02*
X184302931Y-33541371D01*
X184302931Y-33541371D02*
X184379122Y-33541371D01*
X184379122Y-33541371D02*
X184493407Y-33569942D01*
X184493407Y-33569942D02*
X184531503Y-33598514D01*
X183617217Y-38141371D02*
X183236265Y-38141371D01*
X183236265Y-38141371D02*
X183236265Y-37541371D01*
X183883884Y-37827085D02*
X184150550Y-37827085D01*
X184264836Y-38141371D02*
X183883884Y-38141371D01*
X183883884Y-38141371D02*
X183883884Y-37541371D01*
X183883884Y-37541371D02*
X184264836Y-37541371D01*
X184607694Y-38141371D02*
X184607694Y-37541371D01*
X184607694Y-37541371D02*
X184798170Y-37541371D01*
X184798170Y-37541371D02*
X184912456Y-37569942D01*
X184912456Y-37569942D02*
X184988646Y-37627085D01*
X184988646Y-37627085D02*
X185026741Y-37684228D01*
X185026741Y-37684228D02*
X185064837Y-37798514D01*
X185064837Y-37798514D02*
X185064837Y-37884228D01*
X185064837Y-37884228D02*
X185026741Y-37998514D01*
X185026741Y-37998514D02*
X184988646Y-38055657D01*
X184988646Y-38055657D02*
X184912456Y-38112800D01*
X184912456Y-38112800D02*
X184798170Y-38141371D01*
X184798170Y-38141371D02*
X184607694Y-38141371D01*
X185407694Y-38141371D02*
X185407694Y-37541371D01*
X185864837Y-38141371D02*
X185521979Y-37798514D01*
X185864837Y-37541371D02*
X185407694Y-37884228D01*
X186131503Y-37541371D02*
X186626741Y-37541371D01*
X186626741Y-37541371D02*
X186360075Y-37769942D01*
X186360075Y-37769942D02*
X186474360Y-37769942D01*
X186474360Y-37769942D02*
X186550551Y-37798514D01*
X186550551Y-37798514D02*
X186588646Y-37827085D01*
X186588646Y-37827085D02*
X186626741Y-37884228D01*
X186626741Y-37884228D02*
X186626741Y-38027085D01*
X186626741Y-38027085D02*
X186588646Y-38084228D01*
X186588646Y-38084228D02*
X186550551Y-38112800D01*
X186550551Y-38112800D02*
X186474360Y-38141371D01*
X186474360Y-38141371D02*
X186245789Y-38141371D01*
X186245789Y-38141371D02*
X186169598Y-38112800D01*
X186169598Y-38112800D02*
X186131503Y-38084228D01*
X183693408Y-46941371D02*
X183426741Y-46655657D01*
X183236265Y-46941371D02*
X183236265Y-46341371D01*
X183236265Y-46341371D02*
X183541027Y-46341371D01*
X183541027Y-46341371D02*
X183617217Y-46369942D01*
X183617217Y-46369942D02*
X183655312Y-46398514D01*
X183655312Y-46398514D02*
X183693408Y-46455657D01*
X183693408Y-46455657D02*
X183693408Y-46541371D01*
X183693408Y-46541371D02*
X183655312Y-46598514D01*
X183655312Y-46598514D02*
X183617217Y-46627085D01*
X183617217Y-46627085D02*
X183541027Y-46655657D01*
X183541027Y-46655657D02*
X183236265Y-46655657D01*
X184036265Y-46627085D02*
X184302931Y-46627085D01*
X184417217Y-46941371D02*
X184036265Y-46941371D01*
X184036265Y-46941371D02*
X184036265Y-46341371D01*
X184036265Y-46341371D02*
X184417217Y-46341371D01*
X184721979Y-46912800D02*
X184836265Y-46941371D01*
X184836265Y-46941371D02*
X185026741Y-46941371D01*
X185026741Y-46941371D02*
X185102932Y-46912800D01*
X185102932Y-46912800D02*
X185141027Y-46884228D01*
X185141027Y-46884228D02*
X185179122Y-46827085D01*
X185179122Y-46827085D02*
X185179122Y-46769942D01*
X185179122Y-46769942D02*
X185141027Y-46712800D01*
X185141027Y-46712800D02*
X185102932Y-46684228D01*
X185102932Y-46684228D02*
X185026741Y-46655657D01*
X185026741Y-46655657D02*
X184874360Y-46627085D01*
X184874360Y-46627085D02*
X184798170Y-46598514D01*
X184798170Y-46598514D02*
X184760075Y-46569942D01*
X184760075Y-46569942D02*
X184721979Y-46512800D01*
X184721979Y-46512800D02*
X184721979Y-46455657D01*
X184721979Y-46455657D02*
X184760075Y-46398514D01*
X184760075Y-46398514D02*
X184798170Y-46369942D01*
X184798170Y-46369942D02*
X184874360Y-46341371D01*
X184874360Y-46341371D02*
X185064837Y-46341371D01*
X185064837Y-46341371D02*
X185179122Y-46369942D01*
X185521980Y-46627085D02*
X185788646Y-46627085D01*
X185902932Y-46941371D02*
X185521980Y-46941371D01*
X185521980Y-46941371D02*
X185521980Y-46341371D01*
X185521980Y-46341371D02*
X185902932Y-46341371D01*
X186131504Y-46341371D02*
X186588647Y-46341371D01*
X186360075Y-46941371D02*
X186360075Y-46341371D01*
X183236265Y-45341371D02*
X183236265Y-44741371D01*
X183236265Y-44741371D02*
X183426741Y-44741371D01*
X183426741Y-44741371D02*
X183541027Y-44769942D01*
X183541027Y-44769942D02*
X183617217Y-44827085D01*
X183617217Y-44827085D02*
X183655312Y-44884228D01*
X183655312Y-44884228D02*
X183693408Y-44998514D01*
X183693408Y-44998514D02*
X183693408Y-45084228D01*
X183693408Y-45084228D02*
X183655312Y-45198514D01*
X183655312Y-45198514D02*
X183617217Y-45255657D01*
X183617217Y-45255657D02*
X183541027Y-45312800D01*
X183541027Y-45312800D02*
X183426741Y-45341371D01*
X183426741Y-45341371D02*
X183236265Y-45341371D01*
X184607693Y-44712800D02*
X183921979Y-45484228D01*
X185331503Y-45284228D02*
X185293407Y-45312800D01*
X185293407Y-45312800D02*
X185179122Y-45341371D01*
X185179122Y-45341371D02*
X185102931Y-45341371D01*
X185102931Y-45341371D02*
X184988645Y-45312800D01*
X184988645Y-45312800D02*
X184912455Y-45255657D01*
X184912455Y-45255657D02*
X184874360Y-45198514D01*
X184874360Y-45198514D02*
X184836264Y-45084228D01*
X184836264Y-45084228D02*
X184836264Y-44998514D01*
X184836264Y-44998514D02*
X184874360Y-44884228D01*
X184874360Y-44884228D02*
X184912455Y-44827085D01*
X184912455Y-44827085D02*
X184988645Y-44769942D01*
X184988645Y-44769942D02*
X185102931Y-44741371D01*
X185102931Y-44741371D02*
X185179122Y-44741371D01*
X185179122Y-44741371D02*
X185293407Y-44769942D01*
X185293407Y-44769942D02*
X185331503Y-44798514D01*
D11*
X254454819Y-36892857D02*
X253978628Y-37226190D01*
X254454819Y-37464285D02*
X253454819Y-37464285D01*
X253454819Y-37464285D02*
X253454819Y-37083333D01*
X253454819Y-37083333D02*
X253502438Y-36988095D01*
X253502438Y-36988095D02*
X253550057Y-36940476D01*
X253550057Y-36940476D02*
X253645295Y-36892857D01*
X253645295Y-36892857D02*
X253788152Y-36892857D01*
X253788152Y-36892857D02*
X253883390Y-36940476D01*
X253883390Y-36940476D02*
X253931009Y-36988095D01*
X253931009Y-36988095D02*
X253978628Y-37083333D01*
X253978628Y-37083333D02*
X253978628Y-37464285D01*
X253454819Y-36559523D02*
X253454819Y-35940476D01*
X253454819Y-35940476D02*
X253835771Y-36273809D01*
X253835771Y-36273809D02*
X253835771Y-36130952D01*
X253835771Y-36130952D02*
X253883390Y-36035714D01*
X253883390Y-36035714D02*
X253931009Y-35988095D01*
X253931009Y-35988095D02*
X254026247Y-35940476D01*
X254026247Y-35940476D02*
X254264342Y-35940476D01*
X254264342Y-35940476D02*
X254359580Y-35988095D01*
X254359580Y-35988095D02*
X254407200Y-36035714D01*
X254407200Y-36035714D02*
X254454819Y-36130952D01*
X254454819Y-36130952D02*
X254454819Y-36416666D01*
X254454819Y-36416666D02*
X254407200Y-36511904D01*
X254407200Y-36511904D02*
X254359580Y-36559523D01*
X253454819Y-35321428D02*
X253454819Y-35226190D01*
X253454819Y-35226190D02*
X253502438Y-35130952D01*
X253502438Y-35130952D02*
X253550057Y-35083333D01*
X253550057Y-35083333D02*
X253645295Y-35035714D01*
X253645295Y-35035714D02*
X253835771Y-34988095D01*
X253835771Y-34988095D02*
X254073866Y-34988095D01*
X254073866Y-34988095D02*
X254264342Y-35035714D01*
X254264342Y-35035714D02*
X254359580Y-35083333D01*
X254359580Y-35083333D02*
X254407200Y-35130952D01*
X254407200Y-35130952D02*
X254454819Y-35226190D01*
X254454819Y-35226190D02*
X254454819Y-35321428D01*
X254454819Y-35321428D02*
X254407200Y-35416666D01*
X254407200Y-35416666D02*
X254359580Y-35464285D01*
X254359580Y-35464285D02*
X254264342Y-35511904D01*
X254264342Y-35511904D02*
X254073866Y-35559523D01*
X254073866Y-35559523D02*
X253835771Y-35559523D01*
X253835771Y-35559523D02*
X253645295Y-35511904D01*
X253645295Y-35511904D02*
X253550057Y-35464285D01*
X253550057Y-35464285D02*
X253502438Y-35416666D01*
X253502438Y-35416666D02*
X253454819Y-35321428D01*
X202024819Y-32142857D02*
X201548628Y-32476190D01*
X202024819Y-32714285D02*
X201024819Y-32714285D01*
X201024819Y-32714285D02*
X201024819Y-32333333D01*
X201024819Y-32333333D02*
X201072438Y-32238095D01*
X201072438Y-32238095D02*
X201120057Y-32190476D01*
X201120057Y-32190476D02*
X201215295Y-32142857D01*
X201215295Y-32142857D02*
X201358152Y-32142857D01*
X201358152Y-32142857D02*
X201453390Y-32190476D01*
X201453390Y-32190476D02*
X201501009Y-32238095D01*
X201501009Y-32238095D02*
X201548628Y-32333333D01*
X201548628Y-32333333D02*
X201548628Y-32714285D01*
X202024819Y-31190476D02*
X202024819Y-31761904D01*
X202024819Y-31476190D02*
X201024819Y-31476190D01*
X201024819Y-31476190D02*
X201167676Y-31571428D01*
X201167676Y-31571428D02*
X201262914Y-31666666D01*
X201262914Y-31666666D02*
X201310533Y-31761904D01*
X201024819Y-30571428D02*
X201024819Y-30476190D01*
X201024819Y-30476190D02*
X201072438Y-30380952D01*
X201072438Y-30380952D02*
X201120057Y-30333333D01*
X201120057Y-30333333D02*
X201215295Y-30285714D01*
X201215295Y-30285714D02*
X201405771Y-30238095D01*
X201405771Y-30238095D02*
X201643866Y-30238095D01*
X201643866Y-30238095D02*
X201834342Y-30285714D01*
X201834342Y-30285714D02*
X201929580Y-30333333D01*
X201929580Y-30333333D02*
X201977200Y-30380952D01*
X201977200Y-30380952D02*
X202024819Y-30476190D01*
X202024819Y-30476190D02*
X202024819Y-30571428D01*
X202024819Y-30571428D02*
X201977200Y-30666666D01*
X201977200Y-30666666D02*
X201929580Y-30714285D01*
X201929580Y-30714285D02*
X201834342Y-30761904D01*
X201834342Y-30761904D02*
X201643866Y-30809523D01*
X201643866Y-30809523D02*
X201405771Y-30809523D01*
X201405771Y-30809523D02*
X201215295Y-30761904D01*
X201215295Y-30761904D02*
X201120057Y-30714285D01*
X201120057Y-30714285D02*
X201072438Y-30666666D01*
X201072438Y-30666666D02*
X201024819Y-30571428D01*
X258954819Y-62738094D02*
X257954819Y-62738094D01*
X257954819Y-62738094D02*
X257954819Y-62499999D01*
X257954819Y-62499999D02*
X258002438Y-62357142D01*
X258002438Y-62357142D02*
X258097676Y-62261904D01*
X258097676Y-62261904D02*
X258192914Y-62214285D01*
X258192914Y-62214285D02*
X258383390Y-62166666D01*
X258383390Y-62166666D02*
X258526247Y-62166666D01*
X258526247Y-62166666D02*
X258716723Y-62214285D01*
X258716723Y-62214285D02*
X258811961Y-62261904D01*
X258811961Y-62261904D02*
X258907200Y-62357142D01*
X258907200Y-62357142D02*
X258954819Y-62499999D01*
X258954819Y-62499999D02*
X258954819Y-62738094D01*
X258288152Y-61309523D02*
X258954819Y-61309523D01*
X257907200Y-61547618D02*
X258621485Y-61785713D01*
X258621485Y-61785713D02*
X258621485Y-61166666D01*
X180107142Y-52859580D02*
X180059523Y-52907200D01*
X180059523Y-52907200D02*
X179916666Y-52954819D01*
X179916666Y-52954819D02*
X179821428Y-52954819D01*
X179821428Y-52954819D02*
X179678571Y-52907200D01*
X179678571Y-52907200D02*
X179583333Y-52811961D01*
X179583333Y-52811961D02*
X179535714Y-52716723D01*
X179535714Y-52716723D02*
X179488095Y-52526247D01*
X179488095Y-52526247D02*
X179488095Y-52383390D01*
X179488095Y-52383390D02*
X179535714Y-52192914D01*
X179535714Y-52192914D02*
X179583333Y-52097676D01*
X179583333Y-52097676D02*
X179678571Y-52002438D01*
X179678571Y-52002438D02*
X179821428Y-51954819D01*
X179821428Y-51954819D02*
X179916666Y-51954819D01*
X179916666Y-51954819D02*
X180059523Y-52002438D01*
X180059523Y-52002438D02*
X180107142Y-52050057D01*
X181059523Y-52954819D02*
X180488095Y-52954819D01*
X180773809Y-52954819D02*
X180773809Y-51954819D01*
X180773809Y-51954819D02*
X180678571Y-52097676D01*
X180678571Y-52097676D02*
X180583333Y-52192914D01*
X180583333Y-52192914D02*
X180488095Y-52240533D01*
X181392857Y-51954819D02*
X182011904Y-51954819D01*
X182011904Y-51954819D02*
X181678571Y-52335771D01*
X181678571Y-52335771D02*
X181821428Y-52335771D01*
X181821428Y-52335771D02*
X181916666Y-52383390D01*
X181916666Y-52383390D02*
X181964285Y-52431009D01*
X181964285Y-52431009D02*
X182011904Y-52526247D01*
X182011904Y-52526247D02*
X182011904Y-52764342D01*
X182011904Y-52764342D02*
X181964285Y-52859580D01*
X181964285Y-52859580D02*
X181916666Y-52907200D01*
X181916666Y-52907200D02*
X181821428Y-52954819D01*
X181821428Y-52954819D02*
X181535714Y-52954819D01*
X181535714Y-52954819D02*
X181440476Y-52907200D01*
X181440476Y-52907200D02*
X181392857Y-52859580D01*
X257204819Y-62892857D02*
X256728628Y-63226190D01*
X257204819Y-63464285D02*
X256204819Y-63464285D01*
X256204819Y-63464285D02*
X256204819Y-63083333D01*
X256204819Y-63083333D02*
X256252438Y-62988095D01*
X256252438Y-62988095D02*
X256300057Y-62940476D01*
X256300057Y-62940476D02*
X256395295Y-62892857D01*
X256395295Y-62892857D02*
X256538152Y-62892857D01*
X256538152Y-62892857D02*
X256633390Y-62940476D01*
X256633390Y-62940476D02*
X256681009Y-62988095D01*
X256681009Y-62988095D02*
X256728628Y-63083333D01*
X256728628Y-63083333D02*
X256728628Y-63464285D01*
X257204819Y-61940476D02*
X257204819Y-62511904D01*
X257204819Y-62226190D02*
X256204819Y-62226190D01*
X256204819Y-62226190D02*
X256347676Y-62321428D01*
X256347676Y-62321428D02*
X256442914Y-62416666D01*
X256442914Y-62416666D02*
X256490533Y-62511904D01*
X257204819Y-60988095D02*
X257204819Y-61559523D01*
X257204819Y-61273809D02*
X256204819Y-61273809D01*
X256204819Y-61273809D02*
X256347676Y-61369047D01*
X256347676Y-61369047D02*
X256442914Y-61464285D01*
X256442914Y-61464285D02*
X256490533Y-61559523D01*
X256204819Y-36892857D02*
X255728628Y-37226190D01*
X256204819Y-37464285D02*
X255204819Y-37464285D01*
X255204819Y-37464285D02*
X255204819Y-37083333D01*
X255204819Y-37083333D02*
X255252438Y-36988095D01*
X255252438Y-36988095D02*
X255300057Y-36940476D01*
X255300057Y-36940476D02*
X255395295Y-36892857D01*
X255395295Y-36892857D02*
X255538152Y-36892857D01*
X255538152Y-36892857D02*
X255633390Y-36940476D01*
X255633390Y-36940476D02*
X255681009Y-36988095D01*
X255681009Y-36988095D02*
X255728628Y-37083333D01*
X255728628Y-37083333D02*
X255728628Y-37464285D01*
X255300057Y-36511904D02*
X255252438Y-36464285D01*
X255252438Y-36464285D02*
X255204819Y-36369047D01*
X255204819Y-36369047D02*
X255204819Y-36130952D01*
X255204819Y-36130952D02*
X255252438Y-36035714D01*
X255252438Y-36035714D02*
X255300057Y-35988095D01*
X255300057Y-35988095D02*
X255395295Y-35940476D01*
X255395295Y-35940476D02*
X255490533Y-35940476D01*
X255490533Y-35940476D02*
X255633390Y-35988095D01*
X255633390Y-35988095D02*
X256204819Y-36559523D01*
X256204819Y-36559523D02*
X256204819Y-35940476D01*
X256204819Y-35464285D02*
X256204819Y-35273809D01*
X256204819Y-35273809D02*
X256157200Y-35178571D01*
X256157200Y-35178571D02*
X256109580Y-35130952D01*
X256109580Y-35130952D02*
X255966723Y-35035714D01*
X255966723Y-35035714D02*
X255776247Y-34988095D01*
X255776247Y-34988095D02*
X255395295Y-34988095D01*
X255395295Y-34988095D02*
X255300057Y-35035714D01*
X255300057Y-35035714D02*
X255252438Y-35083333D01*
X255252438Y-35083333D02*
X255204819Y-35178571D01*
X255204819Y-35178571D02*
X255204819Y-35369047D01*
X255204819Y-35369047D02*
X255252438Y-35464285D01*
X255252438Y-35464285D02*
X255300057Y-35511904D01*
X255300057Y-35511904D02*
X255395295Y-35559523D01*
X255395295Y-35559523D02*
X255633390Y-35559523D01*
X255633390Y-35559523D02*
X255728628Y-35511904D01*
X255728628Y-35511904D02*
X255776247Y-35464285D01*
X255776247Y-35464285D02*
X255823866Y-35369047D01*
X255823866Y-35369047D02*
X255823866Y-35178571D01*
X255823866Y-35178571D02*
X255776247Y-35083333D01*
X255776247Y-35083333D02*
X255728628Y-35035714D01*
X255728628Y-35035714D02*
X255633390Y-34988095D01*
X210166667Y-23157200D02*
X210309524Y-23204819D01*
X210309524Y-23204819D02*
X210547619Y-23204819D01*
X210547619Y-23204819D02*
X210642857Y-23157200D01*
X210642857Y-23157200D02*
X210690476Y-23109580D01*
X210690476Y-23109580D02*
X210738095Y-23014342D01*
X210738095Y-23014342D02*
X210738095Y-22919104D01*
X210738095Y-22919104D02*
X210690476Y-22823866D01*
X210690476Y-22823866D02*
X210642857Y-22776247D01*
X210642857Y-22776247D02*
X210547619Y-22728628D01*
X210547619Y-22728628D02*
X210357143Y-22681009D01*
X210357143Y-22681009D02*
X210261905Y-22633390D01*
X210261905Y-22633390D02*
X210214286Y-22585771D01*
X210214286Y-22585771D02*
X210166667Y-22490533D01*
X210166667Y-22490533D02*
X210166667Y-22395295D01*
X210166667Y-22395295D02*
X210214286Y-22300057D01*
X210214286Y-22300057D02*
X210261905Y-22252438D01*
X210261905Y-22252438D02*
X210357143Y-22204819D01*
X210357143Y-22204819D02*
X210595238Y-22204819D01*
X210595238Y-22204819D02*
X210738095Y-22252438D01*
X211071429Y-22204819D02*
X211309524Y-23204819D01*
X211309524Y-23204819D02*
X211500000Y-22490533D01*
X211500000Y-22490533D02*
X211690476Y-23204819D01*
X211690476Y-23204819D02*
X211928572Y-22204819D01*
X212833333Y-23204819D02*
X212261905Y-23204819D01*
X212547619Y-23204819D02*
X212547619Y-22204819D01*
X212547619Y-22204819D02*
X212452381Y-22347676D01*
X212452381Y-22347676D02*
X212357143Y-22442914D01*
X212357143Y-22442914D02*
X212261905Y-22490533D01*
X177919819Y-60238094D02*
X178729342Y-60238094D01*
X178729342Y-60238094D02*
X178824580Y-60190475D01*
X178824580Y-60190475D02*
X178872200Y-60142856D01*
X178872200Y-60142856D02*
X178919819Y-60047618D01*
X178919819Y-60047618D02*
X178919819Y-59857142D01*
X178919819Y-59857142D02*
X178872200Y-59761904D01*
X178872200Y-59761904D02*
X178824580Y-59714285D01*
X178824580Y-59714285D02*
X178729342Y-59666666D01*
X178729342Y-59666666D02*
X177919819Y-59666666D01*
X178919819Y-58666666D02*
X178919819Y-59238094D01*
X178919819Y-58952380D02*
X177919819Y-58952380D01*
X177919819Y-58952380D02*
X178062676Y-59047618D01*
X178062676Y-59047618D02*
X178157914Y-59142856D01*
X178157914Y-59142856D02*
X178205533Y-59238094D01*
X178919819Y-57714285D02*
X178919819Y-58285713D01*
X178919819Y-57999999D02*
X177919819Y-57999999D01*
X177919819Y-57999999D02*
X178062676Y-58095237D01*
X178062676Y-58095237D02*
X178157914Y-58190475D01*
X178157914Y-58190475D02*
X178205533Y-58285713D01*
X191204819Y-31666666D02*
X190728628Y-31999999D01*
X191204819Y-32238094D02*
X190204819Y-32238094D01*
X190204819Y-32238094D02*
X190204819Y-31857142D01*
X190204819Y-31857142D02*
X190252438Y-31761904D01*
X190252438Y-31761904D02*
X190300057Y-31714285D01*
X190300057Y-31714285D02*
X190395295Y-31666666D01*
X190395295Y-31666666D02*
X190538152Y-31666666D01*
X190538152Y-31666666D02*
X190633390Y-31714285D01*
X190633390Y-31714285D02*
X190681009Y-31761904D01*
X190681009Y-31761904D02*
X190728628Y-31857142D01*
X190728628Y-31857142D02*
X190728628Y-32238094D01*
X190204819Y-30761904D02*
X190204819Y-31238094D01*
X190204819Y-31238094D02*
X190681009Y-31285713D01*
X190681009Y-31285713D02*
X190633390Y-31238094D01*
X190633390Y-31238094D02*
X190585771Y-31142856D01*
X190585771Y-31142856D02*
X190585771Y-30904761D01*
X190585771Y-30904761D02*
X190633390Y-30809523D01*
X190633390Y-30809523D02*
X190681009Y-30761904D01*
X190681009Y-30761904D02*
X190776247Y-30714285D01*
X190776247Y-30714285D02*
X191014342Y-30714285D01*
X191014342Y-30714285D02*
X191109580Y-30761904D01*
X191109580Y-30761904D02*
X191157200Y-30809523D01*
X191157200Y-30809523D02*
X191204819Y-30904761D01*
X191204819Y-30904761D02*
X191204819Y-31142856D01*
X191204819Y-31142856D02*
X191157200Y-31238094D01*
X191157200Y-31238094D02*
X191109580Y-31285713D01*
X45509761Y-50350057D02*
X45414523Y-50302438D01*
X45414523Y-50302438D02*
X45319285Y-50207200D01*
X45319285Y-50207200D02*
X45176428Y-50064342D01*
X45176428Y-50064342D02*
X45081190Y-50016723D01*
X45081190Y-50016723D02*
X44985952Y-50016723D01*
X45033571Y-50254819D02*
X44938333Y-50207200D01*
X44938333Y-50207200D02*
X44843095Y-50111961D01*
X44843095Y-50111961D02*
X44795476Y-49921485D01*
X44795476Y-49921485D02*
X44795476Y-49588152D01*
X44795476Y-49588152D02*
X44843095Y-49397676D01*
X44843095Y-49397676D02*
X44938333Y-49302438D01*
X44938333Y-49302438D02*
X45033571Y-49254819D01*
X45033571Y-49254819D02*
X45224047Y-49254819D01*
X45224047Y-49254819D02*
X45319285Y-49302438D01*
X45319285Y-49302438D02*
X45414523Y-49397676D01*
X45414523Y-49397676D02*
X45462142Y-49588152D01*
X45462142Y-49588152D02*
X45462142Y-49921485D01*
X45462142Y-49921485D02*
X45414523Y-50111961D01*
X45414523Y-50111961D02*
X45319285Y-50207200D01*
X45319285Y-50207200D02*
X45224047Y-50254819D01*
X45224047Y-50254819D02*
X45033571Y-50254819D01*
X45843095Y-49350057D02*
X45890714Y-49302438D01*
X45890714Y-49302438D02*
X45985952Y-49254819D01*
X45985952Y-49254819D02*
X46224047Y-49254819D01*
X46224047Y-49254819D02*
X46319285Y-49302438D01*
X46319285Y-49302438D02*
X46366904Y-49350057D01*
X46366904Y-49350057D02*
X46414523Y-49445295D01*
X46414523Y-49445295D02*
X46414523Y-49540533D01*
X46414523Y-49540533D02*
X46366904Y-49683390D01*
X46366904Y-49683390D02*
X45795476Y-50254819D01*
X45795476Y-50254819D02*
X46414523Y-50254819D01*
X204304819Y-59761904D02*
X205114342Y-59761904D01*
X205114342Y-59761904D02*
X205209580Y-59714285D01*
X205209580Y-59714285D02*
X205257200Y-59666666D01*
X205257200Y-59666666D02*
X205304819Y-59571428D01*
X205304819Y-59571428D02*
X205304819Y-59380952D01*
X205304819Y-59380952D02*
X205257200Y-59285714D01*
X205257200Y-59285714D02*
X205209580Y-59238095D01*
X205209580Y-59238095D02*
X205114342Y-59190476D01*
X205114342Y-59190476D02*
X204304819Y-59190476D01*
X205304819Y-58666666D02*
X205304819Y-58476190D01*
X205304819Y-58476190D02*
X205257200Y-58380952D01*
X205257200Y-58380952D02*
X205209580Y-58333333D01*
X205209580Y-58333333D02*
X205066723Y-58238095D01*
X205066723Y-58238095D02*
X204876247Y-58190476D01*
X204876247Y-58190476D02*
X204495295Y-58190476D01*
X204495295Y-58190476D02*
X204400057Y-58238095D01*
X204400057Y-58238095D02*
X204352438Y-58285714D01*
X204352438Y-58285714D02*
X204304819Y-58380952D01*
X204304819Y-58380952D02*
X204304819Y-58571428D01*
X204304819Y-58571428D02*
X204352438Y-58666666D01*
X204352438Y-58666666D02*
X204400057Y-58714285D01*
X204400057Y-58714285D02*
X204495295Y-58761904D01*
X204495295Y-58761904D02*
X204733390Y-58761904D01*
X204733390Y-58761904D02*
X204828628Y-58714285D01*
X204828628Y-58714285D02*
X204876247Y-58666666D01*
X204876247Y-58666666D02*
X204923866Y-58571428D01*
X204923866Y-58571428D02*
X204923866Y-58380952D01*
X204923866Y-58380952D02*
X204876247Y-58285714D01*
X204876247Y-58285714D02*
X204828628Y-58238095D01*
X204828628Y-58238095D02*
X204733390Y-58190476D01*
X249666667Y-23657200D02*
X249809524Y-23704819D01*
X249809524Y-23704819D02*
X250047619Y-23704819D01*
X250047619Y-23704819D02*
X250142857Y-23657200D01*
X250142857Y-23657200D02*
X250190476Y-23609580D01*
X250190476Y-23609580D02*
X250238095Y-23514342D01*
X250238095Y-23514342D02*
X250238095Y-23419104D01*
X250238095Y-23419104D02*
X250190476Y-23323866D01*
X250190476Y-23323866D02*
X250142857Y-23276247D01*
X250142857Y-23276247D02*
X250047619Y-23228628D01*
X250047619Y-23228628D02*
X249857143Y-23181009D01*
X249857143Y-23181009D02*
X249761905Y-23133390D01*
X249761905Y-23133390D02*
X249714286Y-23085771D01*
X249714286Y-23085771D02*
X249666667Y-22990533D01*
X249666667Y-22990533D02*
X249666667Y-22895295D01*
X249666667Y-22895295D02*
X249714286Y-22800057D01*
X249714286Y-22800057D02*
X249761905Y-22752438D01*
X249761905Y-22752438D02*
X249857143Y-22704819D01*
X249857143Y-22704819D02*
X250095238Y-22704819D01*
X250095238Y-22704819D02*
X250238095Y-22752438D01*
X250571429Y-22704819D02*
X250809524Y-23704819D01*
X250809524Y-23704819D02*
X251000000Y-22990533D01*
X251000000Y-22990533D02*
X251190476Y-23704819D01*
X251190476Y-23704819D02*
X251428572Y-22704819D01*
X251761905Y-22800057D02*
X251809524Y-22752438D01*
X251809524Y-22752438D02*
X251904762Y-22704819D01*
X251904762Y-22704819D02*
X252142857Y-22704819D01*
X252142857Y-22704819D02*
X252238095Y-22752438D01*
X252238095Y-22752438D02*
X252285714Y-22800057D01*
X252285714Y-22800057D02*
X252333333Y-22895295D01*
X252333333Y-22895295D02*
X252333333Y-22990533D01*
X252333333Y-22990533D02*
X252285714Y-23133390D01*
X252285714Y-23133390D02*
X251714286Y-23704819D01*
X251714286Y-23704819D02*
X252333333Y-23704819D01*
X38095238Y-39431009D02*
X38238095Y-39478628D01*
X38238095Y-39478628D02*
X38285714Y-39526247D01*
X38285714Y-39526247D02*
X38333333Y-39621485D01*
X38333333Y-39621485D02*
X38333333Y-39764342D01*
X38333333Y-39764342D02*
X38285714Y-39859580D01*
X38285714Y-39859580D02*
X38238095Y-39907200D01*
X38238095Y-39907200D02*
X38142857Y-39954819D01*
X38142857Y-39954819D02*
X37761905Y-39954819D01*
X37761905Y-39954819D02*
X37761905Y-38954819D01*
X37761905Y-38954819D02*
X38095238Y-38954819D01*
X38095238Y-38954819D02*
X38190476Y-39002438D01*
X38190476Y-39002438D02*
X38238095Y-39050057D01*
X38238095Y-39050057D02*
X38285714Y-39145295D01*
X38285714Y-39145295D02*
X38285714Y-39240533D01*
X38285714Y-39240533D02*
X38238095Y-39335771D01*
X38238095Y-39335771D02*
X38190476Y-39383390D01*
X38190476Y-39383390D02*
X38095238Y-39431009D01*
X38095238Y-39431009D02*
X37761905Y-39431009D01*
X38761905Y-38954819D02*
X38761905Y-39764342D01*
X38761905Y-39764342D02*
X38809524Y-39859580D01*
X38809524Y-39859580D02*
X38857143Y-39907200D01*
X38857143Y-39907200D02*
X38952381Y-39954819D01*
X38952381Y-39954819D02*
X39142857Y-39954819D01*
X39142857Y-39954819D02*
X39238095Y-39907200D01*
X39238095Y-39907200D02*
X39285714Y-39859580D01*
X39285714Y-39859580D02*
X39333333Y-39764342D01*
X39333333Y-39764342D02*
X39333333Y-38954819D01*
X39714286Y-38954819D02*
X40380952Y-38954819D01*
X40380952Y-38954819D02*
X39714286Y-39954819D01*
X39714286Y-39954819D02*
X40380952Y-39954819D01*
X41285714Y-39954819D02*
X40714286Y-39954819D01*
X41000000Y-39954819D02*
X41000000Y-38954819D01*
X41000000Y-38954819D02*
X40904762Y-39097676D01*
X40904762Y-39097676D02*
X40809524Y-39192914D01*
X40809524Y-39192914D02*
X40714286Y-39240533D01*
D13*
X37114911Y-47905383D02*
X38661578Y-47905383D01*
X37888244Y-48678716D02*
X37888244Y-47132050D01*
D11*
X221109580Y-30666666D02*
X221157200Y-30714285D01*
X221157200Y-30714285D02*
X221204819Y-30857142D01*
X221204819Y-30857142D02*
X221204819Y-30952380D01*
X221204819Y-30952380D02*
X221157200Y-31095237D01*
X221157200Y-31095237D02*
X221061961Y-31190475D01*
X221061961Y-31190475D02*
X220966723Y-31238094D01*
X220966723Y-31238094D02*
X220776247Y-31285713D01*
X220776247Y-31285713D02*
X220633390Y-31285713D01*
X220633390Y-31285713D02*
X220442914Y-31238094D01*
X220442914Y-31238094D02*
X220347676Y-31190475D01*
X220347676Y-31190475D02*
X220252438Y-31095237D01*
X220252438Y-31095237D02*
X220204819Y-30952380D01*
X220204819Y-30952380D02*
X220204819Y-30857142D01*
X220204819Y-30857142D02*
X220252438Y-30714285D01*
X220252438Y-30714285D02*
X220300057Y-30666666D01*
X220204819Y-29809523D02*
X220204819Y-29999999D01*
X220204819Y-29999999D02*
X220252438Y-30095237D01*
X220252438Y-30095237D02*
X220300057Y-30142856D01*
X220300057Y-30142856D02*
X220442914Y-30238094D01*
X220442914Y-30238094D02*
X220633390Y-30285713D01*
X220633390Y-30285713D02*
X221014342Y-30285713D01*
X221014342Y-30285713D02*
X221109580Y-30238094D01*
X221109580Y-30238094D02*
X221157200Y-30190475D01*
X221157200Y-30190475D02*
X221204819Y-30095237D01*
X221204819Y-30095237D02*
X221204819Y-29904761D01*
X221204819Y-29904761D02*
X221157200Y-29809523D01*
X221157200Y-29809523D02*
X221109580Y-29761904D01*
X221109580Y-29761904D02*
X221014342Y-29714285D01*
X221014342Y-29714285D02*
X220776247Y-29714285D01*
X220776247Y-29714285D02*
X220681009Y-29761904D01*
X220681009Y-29761904D02*
X220633390Y-29809523D01*
X220633390Y-29809523D02*
X220585771Y-29904761D01*
X220585771Y-29904761D02*
X220585771Y-30095237D01*
X220585771Y-30095237D02*
X220633390Y-30190475D01*
X220633390Y-30190475D02*
X220681009Y-30238094D01*
X220681009Y-30238094D02*
X220776247Y-30285713D01*
X252704819Y-36967857D02*
X252228628Y-37301190D01*
X252704819Y-37539285D02*
X251704819Y-37539285D01*
X251704819Y-37539285D02*
X251704819Y-37158333D01*
X251704819Y-37158333D02*
X251752438Y-37063095D01*
X251752438Y-37063095D02*
X251800057Y-37015476D01*
X251800057Y-37015476D02*
X251895295Y-36967857D01*
X251895295Y-36967857D02*
X252038152Y-36967857D01*
X252038152Y-36967857D02*
X252133390Y-37015476D01*
X252133390Y-37015476D02*
X252181009Y-37063095D01*
X252181009Y-37063095D02*
X252228628Y-37158333D01*
X252228628Y-37158333D02*
X252228628Y-37539285D01*
X251704819Y-36634523D02*
X251704819Y-36015476D01*
X251704819Y-36015476D02*
X252085771Y-36348809D01*
X252085771Y-36348809D02*
X252085771Y-36205952D01*
X252085771Y-36205952D02*
X252133390Y-36110714D01*
X252133390Y-36110714D02*
X252181009Y-36063095D01*
X252181009Y-36063095D02*
X252276247Y-36015476D01*
X252276247Y-36015476D02*
X252514342Y-36015476D01*
X252514342Y-36015476D02*
X252609580Y-36063095D01*
X252609580Y-36063095D02*
X252657200Y-36110714D01*
X252657200Y-36110714D02*
X252704819Y-36205952D01*
X252704819Y-36205952D02*
X252704819Y-36491666D01*
X252704819Y-36491666D02*
X252657200Y-36586904D01*
X252657200Y-36586904D02*
X252609580Y-36634523D01*
X251800057Y-35634523D02*
X251752438Y-35586904D01*
X251752438Y-35586904D02*
X251704819Y-35491666D01*
X251704819Y-35491666D02*
X251704819Y-35253571D01*
X251704819Y-35253571D02*
X251752438Y-35158333D01*
X251752438Y-35158333D02*
X251800057Y-35110714D01*
X251800057Y-35110714D02*
X251895295Y-35063095D01*
X251895295Y-35063095D02*
X251990533Y-35063095D01*
X251990533Y-35063095D02*
X252133390Y-35110714D01*
X252133390Y-35110714D02*
X252704819Y-35682142D01*
X252704819Y-35682142D02*
X252704819Y-35063095D01*
X218857142Y-53179580D02*
X218809523Y-53227200D01*
X218809523Y-53227200D02*
X218666666Y-53274819D01*
X218666666Y-53274819D02*
X218571428Y-53274819D01*
X218571428Y-53274819D02*
X218428571Y-53227200D01*
X218428571Y-53227200D02*
X218333333Y-53131961D01*
X218333333Y-53131961D02*
X218285714Y-53036723D01*
X218285714Y-53036723D02*
X218238095Y-52846247D01*
X218238095Y-52846247D02*
X218238095Y-52703390D01*
X218238095Y-52703390D02*
X218285714Y-52512914D01*
X218285714Y-52512914D02*
X218333333Y-52417676D01*
X218333333Y-52417676D02*
X218428571Y-52322438D01*
X218428571Y-52322438D02*
X218571428Y-52274819D01*
X218571428Y-52274819D02*
X218666666Y-52274819D01*
X218666666Y-52274819D02*
X218809523Y-52322438D01*
X218809523Y-52322438D02*
X218857142Y-52370057D01*
X219809523Y-53274819D02*
X219238095Y-53274819D01*
X219523809Y-53274819D02*
X219523809Y-52274819D01*
X219523809Y-52274819D02*
X219428571Y-52417676D01*
X219428571Y-52417676D02*
X219333333Y-52512914D01*
X219333333Y-52512914D02*
X219238095Y-52560533D01*
X220428571Y-52274819D02*
X220523809Y-52274819D01*
X220523809Y-52274819D02*
X220619047Y-52322438D01*
X220619047Y-52322438D02*
X220666666Y-52370057D01*
X220666666Y-52370057D02*
X220714285Y-52465295D01*
X220714285Y-52465295D02*
X220761904Y-52655771D01*
X220761904Y-52655771D02*
X220761904Y-52893866D01*
X220761904Y-52893866D02*
X220714285Y-53084342D01*
X220714285Y-53084342D02*
X220666666Y-53179580D01*
X220666666Y-53179580D02*
X220619047Y-53227200D01*
X220619047Y-53227200D02*
X220523809Y-53274819D01*
X220523809Y-53274819D02*
X220428571Y-53274819D01*
X220428571Y-53274819D02*
X220333333Y-53227200D01*
X220333333Y-53227200D02*
X220285714Y-53179580D01*
X220285714Y-53179580D02*
X220238095Y-53084342D01*
X220238095Y-53084342D02*
X220190476Y-52893866D01*
X220190476Y-52893866D02*
X220190476Y-52655771D01*
X220190476Y-52655771D02*
X220238095Y-52465295D01*
X220238095Y-52465295D02*
X220285714Y-52370057D01*
X220285714Y-52370057D02*
X220333333Y-52322438D01*
X220333333Y-52322438D02*
X220428571Y-52274819D01*
X191918095Y-44924819D02*
X191918095Y-45734342D01*
X191918095Y-45734342D02*
X191965714Y-45829580D01*
X191965714Y-45829580D02*
X192013333Y-45877200D01*
X192013333Y-45877200D02*
X192108571Y-45924819D01*
X192108571Y-45924819D02*
X192299047Y-45924819D01*
X192299047Y-45924819D02*
X192394285Y-45877200D01*
X192394285Y-45877200D02*
X192441904Y-45829580D01*
X192441904Y-45829580D02*
X192489523Y-45734342D01*
X192489523Y-45734342D02*
X192489523Y-44924819D01*
X192870476Y-44924819D02*
X193489523Y-44924819D01*
X193489523Y-44924819D02*
X193156190Y-45305771D01*
X193156190Y-45305771D02*
X193299047Y-45305771D01*
X193299047Y-45305771D02*
X193394285Y-45353390D01*
X193394285Y-45353390D02*
X193441904Y-45401009D01*
X193441904Y-45401009D02*
X193489523Y-45496247D01*
X193489523Y-45496247D02*
X193489523Y-45734342D01*
X193489523Y-45734342D02*
X193441904Y-45829580D01*
X193441904Y-45829580D02*
X193394285Y-45877200D01*
X193394285Y-45877200D02*
X193299047Y-45924819D01*
X193299047Y-45924819D02*
X193013333Y-45924819D01*
X193013333Y-45924819D02*
X192918095Y-45877200D01*
X192918095Y-45877200D02*
X192870476Y-45829580D01*
D12*
X194498169Y-39128800D02*
X194612455Y-39166895D01*
X194612455Y-39166895D02*
X194802931Y-39166895D01*
X194802931Y-39166895D02*
X194879122Y-39128800D01*
X194879122Y-39128800D02*
X194917217Y-39090704D01*
X194917217Y-39090704D02*
X194955312Y-39014514D01*
X194955312Y-39014514D02*
X194955312Y-38938323D01*
X194955312Y-38938323D02*
X194917217Y-38862133D01*
X194917217Y-38862133D02*
X194879122Y-38824038D01*
X194879122Y-38824038D02*
X194802931Y-38785942D01*
X194802931Y-38785942D02*
X194650550Y-38747847D01*
X194650550Y-38747847D02*
X194574360Y-38709752D01*
X194574360Y-38709752D02*
X194536265Y-38671657D01*
X194536265Y-38671657D02*
X194498169Y-38595466D01*
X194498169Y-38595466D02*
X194498169Y-38519276D01*
X194498169Y-38519276D02*
X194536265Y-38443085D01*
X194536265Y-38443085D02*
X194574360Y-38404990D01*
X194574360Y-38404990D02*
X194650550Y-38366895D01*
X194650550Y-38366895D02*
X194841027Y-38366895D01*
X194841027Y-38366895D02*
X194955312Y-38404990D01*
X195298170Y-39166895D02*
X195298170Y-38366895D01*
X195298170Y-38366895D02*
X195488646Y-38366895D01*
X195488646Y-38366895D02*
X195602932Y-38404990D01*
X195602932Y-38404990D02*
X195679122Y-38481180D01*
X195679122Y-38481180D02*
X195717217Y-38557371D01*
X195717217Y-38557371D02*
X195755313Y-38709752D01*
X195755313Y-38709752D02*
X195755313Y-38824038D01*
X195755313Y-38824038D02*
X195717217Y-38976419D01*
X195717217Y-38976419D02*
X195679122Y-39052609D01*
X195679122Y-39052609D02*
X195602932Y-39128800D01*
X195602932Y-39128800D02*
X195488646Y-39166895D01*
X195488646Y-39166895D02*
X195298170Y-39166895D01*
X196060074Y-38938323D02*
X196441027Y-38938323D01*
X195983884Y-39166895D02*
X196250551Y-38366895D01*
X196250551Y-38366895D02*
X196517217Y-39166895D01*
X194993408Y-40090704D02*
X194955312Y-40128800D01*
X194955312Y-40128800D02*
X194841027Y-40166895D01*
X194841027Y-40166895D02*
X194764836Y-40166895D01*
X194764836Y-40166895D02*
X194650550Y-40128800D01*
X194650550Y-40128800D02*
X194574360Y-40052609D01*
X194574360Y-40052609D02*
X194536265Y-39976419D01*
X194536265Y-39976419D02*
X194498169Y-39824038D01*
X194498169Y-39824038D02*
X194498169Y-39709752D01*
X194498169Y-39709752D02*
X194536265Y-39557371D01*
X194536265Y-39557371D02*
X194574360Y-39481180D01*
X194574360Y-39481180D02*
X194650550Y-39404990D01*
X194650550Y-39404990D02*
X194764836Y-39366895D01*
X194764836Y-39366895D02*
X194841027Y-39366895D01*
X194841027Y-39366895D02*
X194955312Y-39404990D01*
X194955312Y-39404990D02*
X194993408Y-39443085D01*
X195298169Y-40128800D02*
X195412455Y-40166895D01*
X195412455Y-40166895D02*
X195602931Y-40166895D01*
X195602931Y-40166895D02*
X195679122Y-40128800D01*
X195679122Y-40128800D02*
X195717217Y-40090704D01*
X195717217Y-40090704D02*
X195755312Y-40014514D01*
X195755312Y-40014514D02*
X195755312Y-39938323D01*
X195755312Y-39938323D02*
X195717217Y-39862133D01*
X195717217Y-39862133D02*
X195679122Y-39824038D01*
X195679122Y-39824038D02*
X195602931Y-39785942D01*
X195602931Y-39785942D02*
X195450550Y-39747847D01*
X195450550Y-39747847D02*
X195374360Y-39709752D01*
X195374360Y-39709752D02*
X195336265Y-39671657D01*
X195336265Y-39671657D02*
X195298169Y-39595466D01*
X195298169Y-39595466D02*
X195298169Y-39519276D01*
X195298169Y-39519276D02*
X195336265Y-39443085D01*
X195336265Y-39443085D02*
X195374360Y-39404990D01*
X195374360Y-39404990D02*
X195450550Y-39366895D01*
X195450550Y-39366895D02*
X195641027Y-39366895D01*
X195641027Y-39366895D02*
X195755312Y-39404990D01*
X194993408Y-41166895D02*
X194726741Y-40785942D01*
X194536265Y-41166895D02*
X194536265Y-40366895D01*
X194536265Y-40366895D02*
X194841027Y-40366895D01*
X194841027Y-40366895D02*
X194917217Y-40404990D01*
X194917217Y-40404990D02*
X194955312Y-40443085D01*
X194955312Y-40443085D02*
X194993408Y-40519276D01*
X194993408Y-40519276D02*
X194993408Y-40633561D01*
X194993408Y-40633561D02*
X194955312Y-40709752D01*
X194955312Y-40709752D02*
X194917217Y-40747847D01*
X194917217Y-40747847D02*
X194841027Y-40785942D01*
X194841027Y-40785942D02*
X194536265Y-40785942D01*
X195298169Y-41128800D02*
X195412455Y-41166895D01*
X195412455Y-41166895D02*
X195602931Y-41166895D01*
X195602931Y-41166895D02*
X195679122Y-41128800D01*
X195679122Y-41128800D02*
X195717217Y-41090704D01*
X195717217Y-41090704D02*
X195755312Y-41014514D01*
X195755312Y-41014514D02*
X195755312Y-40938323D01*
X195755312Y-40938323D02*
X195717217Y-40862133D01*
X195717217Y-40862133D02*
X195679122Y-40824038D01*
X195679122Y-40824038D02*
X195602931Y-40785942D01*
X195602931Y-40785942D02*
X195450550Y-40747847D01*
X195450550Y-40747847D02*
X195374360Y-40709752D01*
X195374360Y-40709752D02*
X195336265Y-40671657D01*
X195336265Y-40671657D02*
X195298169Y-40595466D01*
X195298169Y-40595466D02*
X195298169Y-40519276D01*
X195298169Y-40519276D02*
X195336265Y-40443085D01*
X195336265Y-40443085D02*
X195374360Y-40404990D01*
X195374360Y-40404990D02*
X195450550Y-40366895D01*
X195450550Y-40366895D02*
X195641027Y-40366895D01*
X195641027Y-40366895D02*
X195755312Y-40404990D01*
X195983884Y-40366895D02*
X196441027Y-40366895D01*
X196212455Y-41166895D02*
X196212455Y-40366895D01*
X194955312Y-43404990D02*
X194879122Y-43366895D01*
X194879122Y-43366895D02*
X194764836Y-43366895D01*
X194764836Y-43366895D02*
X194650550Y-43404990D01*
X194650550Y-43404990D02*
X194574360Y-43481180D01*
X194574360Y-43481180D02*
X194536265Y-43557371D01*
X194536265Y-43557371D02*
X194498169Y-43709752D01*
X194498169Y-43709752D02*
X194498169Y-43824038D01*
X194498169Y-43824038D02*
X194536265Y-43976419D01*
X194536265Y-43976419D02*
X194574360Y-44052609D01*
X194574360Y-44052609D02*
X194650550Y-44128800D01*
X194650550Y-44128800D02*
X194764836Y-44166895D01*
X194764836Y-44166895D02*
X194841027Y-44166895D01*
X194841027Y-44166895D02*
X194955312Y-44128800D01*
X194955312Y-44128800D02*
X194993408Y-44090704D01*
X194993408Y-44090704D02*
X194993408Y-43824038D01*
X194993408Y-43824038D02*
X194841027Y-43824038D01*
X195336265Y-44166895D02*
X195336265Y-43366895D01*
X195336265Y-43366895D02*
X195793408Y-44166895D01*
X195793408Y-44166895D02*
X195793408Y-43366895D01*
X196174360Y-44166895D02*
X196174360Y-43366895D01*
X196174360Y-43366895D02*
X196364836Y-43366895D01*
X196364836Y-43366895D02*
X196479122Y-43404990D01*
X196479122Y-43404990D02*
X196555312Y-43481180D01*
X196555312Y-43481180D02*
X196593407Y-43557371D01*
X196593407Y-43557371D02*
X196631503Y-43709752D01*
X196631503Y-43709752D02*
X196631503Y-43824038D01*
X196631503Y-43824038D02*
X196593407Y-43976419D01*
X196593407Y-43976419D02*
X196555312Y-44052609D01*
X196555312Y-44052609D02*
X196479122Y-44128800D01*
X196479122Y-44128800D02*
X196364836Y-44166895D01*
X196364836Y-44166895D02*
X196174360Y-44166895D01*
X194917217Y-36166895D02*
X194536265Y-36166895D01*
X194536265Y-36166895D02*
X194536265Y-35366895D01*
X195183884Y-35747847D02*
X195450550Y-35747847D01*
X195564836Y-36166895D02*
X195183884Y-36166895D01*
X195183884Y-36166895D02*
X195183884Y-35366895D01*
X195183884Y-35366895D02*
X195564836Y-35366895D01*
X195907694Y-36166895D02*
X195907694Y-35366895D01*
X195907694Y-35366895D02*
X196098170Y-35366895D01*
X196098170Y-35366895D02*
X196212456Y-35404990D01*
X196212456Y-35404990D02*
X196288646Y-35481180D01*
X196288646Y-35481180D02*
X196326741Y-35557371D01*
X196326741Y-35557371D02*
X196364837Y-35709752D01*
X196364837Y-35709752D02*
X196364837Y-35824038D01*
X196364837Y-35824038D02*
X196326741Y-35976419D01*
X196326741Y-35976419D02*
X196288646Y-36052609D01*
X196288646Y-36052609D02*
X196212456Y-36128800D01*
X196212456Y-36128800D02*
X196098170Y-36166895D01*
X196098170Y-36166895D02*
X195907694Y-36166895D01*
X196707694Y-36166895D02*
X196707694Y-35366895D01*
X197164837Y-36166895D02*
X196821979Y-35709752D01*
X197164837Y-35366895D02*
X196707694Y-35824038D01*
X194993408Y-38166895D02*
X194726741Y-37785942D01*
X194536265Y-38166895D02*
X194536265Y-37366895D01*
X194536265Y-37366895D02*
X194841027Y-37366895D01*
X194841027Y-37366895D02*
X194917217Y-37404990D01*
X194917217Y-37404990D02*
X194955312Y-37443085D01*
X194955312Y-37443085D02*
X194993408Y-37519276D01*
X194993408Y-37519276D02*
X194993408Y-37633561D01*
X194993408Y-37633561D02*
X194955312Y-37709752D01*
X194955312Y-37709752D02*
X194917217Y-37747847D01*
X194917217Y-37747847D02*
X194841027Y-37785942D01*
X194841027Y-37785942D02*
X194536265Y-37785942D01*
X195298169Y-38128800D02*
X195412455Y-38166895D01*
X195412455Y-38166895D02*
X195602931Y-38166895D01*
X195602931Y-38166895D02*
X195679122Y-38128800D01*
X195679122Y-38128800D02*
X195717217Y-38090704D01*
X195717217Y-38090704D02*
X195755312Y-38014514D01*
X195755312Y-38014514D02*
X195755312Y-37938323D01*
X195755312Y-37938323D02*
X195717217Y-37862133D01*
X195717217Y-37862133D02*
X195679122Y-37824038D01*
X195679122Y-37824038D02*
X195602931Y-37785942D01*
X195602931Y-37785942D02*
X195450550Y-37747847D01*
X195450550Y-37747847D02*
X195374360Y-37709752D01*
X195374360Y-37709752D02*
X195336265Y-37671657D01*
X195336265Y-37671657D02*
X195298169Y-37595466D01*
X195298169Y-37595466D02*
X195298169Y-37519276D01*
X195298169Y-37519276D02*
X195336265Y-37443085D01*
X195336265Y-37443085D02*
X195374360Y-37404990D01*
X195374360Y-37404990D02*
X195450550Y-37366895D01*
X195450550Y-37366895D02*
X195641027Y-37366895D01*
X195641027Y-37366895D02*
X195755312Y-37404990D01*
X194536265Y-35166895D02*
X194536265Y-34366895D01*
X194536265Y-34366895D02*
X194993408Y-35166895D01*
X194993408Y-35166895D02*
X194993408Y-34366895D01*
X195831503Y-35090704D02*
X195793407Y-35128800D01*
X195793407Y-35128800D02*
X195679122Y-35166895D01*
X195679122Y-35166895D02*
X195602931Y-35166895D01*
X195602931Y-35166895D02*
X195488645Y-35128800D01*
X195488645Y-35128800D02*
X195412455Y-35052609D01*
X195412455Y-35052609D02*
X195374360Y-34976419D01*
X195374360Y-34976419D02*
X195336264Y-34824038D01*
X195336264Y-34824038D02*
X195336264Y-34709752D01*
X195336264Y-34709752D02*
X195374360Y-34557371D01*
X195374360Y-34557371D02*
X195412455Y-34481180D01*
X195412455Y-34481180D02*
X195488645Y-34404990D01*
X195488645Y-34404990D02*
X195602931Y-34366895D01*
X195602931Y-34366895D02*
X195679122Y-34366895D01*
X195679122Y-34366895D02*
X195793407Y-34404990D01*
X195793407Y-34404990D02*
X195831503Y-34443085D01*
X194917217Y-37166895D02*
X194536265Y-37166895D01*
X194536265Y-37166895D02*
X194536265Y-36366895D01*
X195183884Y-36747847D02*
X195450550Y-36747847D01*
X195564836Y-37166895D02*
X195183884Y-37166895D01*
X195183884Y-37166895D02*
X195183884Y-36366895D01*
X195183884Y-36366895D02*
X195564836Y-36366895D01*
X195907694Y-37166895D02*
X195907694Y-36366895D01*
X195907694Y-36366895D02*
X196098170Y-36366895D01*
X196098170Y-36366895D02*
X196212456Y-36404990D01*
X196212456Y-36404990D02*
X196288646Y-36481180D01*
X196288646Y-36481180D02*
X196326741Y-36557371D01*
X196326741Y-36557371D02*
X196364837Y-36709752D01*
X196364837Y-36709752D02*
X196364837Y-36824038D01*
X196364837Y-36824038D02*
X196326741Y-36976419D01*
X196326741Y-36976419D02*
X196288646Y-37052609D01*
X196288646Y-37052609D02*
X196212456Y-37128800D01*
X196212456Y-37128800D02*
X196098170Y-37166895D01*
X196098170Y-37166895D02*
X195907694Y-37166895D01*
X196669598Y-36938323D02*
X197050551Y-36938323D01*
X196593408Y-37166895D02*
X196860075Y-36366895D01*
X196860075Y-36366895D02*
X197126741Y-37166895D01*
X194498169Y-42128800D02*
X194612455Y-42166895D01*
X194612455Y-42166895D02*
X194802931Y-42166895D01*
X194802931Y-42166895D02*
X194879122Y-42128800D01*
X194879122Y-42128800D02*
X194917217Y-42090704D01*
X194917217Y-42090704D02*
X194955312Y-42014514D01*
X194955312Y-42014514D02*
X194955312Y-41938323D01*
X194955312Y-41938323D02*
X194917217Y-41862133D01*
X194917217Y-41862133D02*
X194879122Y-41824038D01*
X194879122Y-41824038D02*
X194802931Y-41785942D01*
X194802931Y-41785942D02*
X194650550Y-41747847D01*
X194650550Y-41747847D02*
X194574360Y-41709752D01*
X194574360Y-41709752D02*
X194536265Y-41671657D01*
X194536265Y-41671657D02*
X194498169Y-41595466D01*
X194498169Y-41595466D02*
X194498169Y-41519276D01*
X194498169Y-41519276D02*
X194536265Y-41443085D01*
X194536265Y-41443085D02*
X194574360Y-41404990D01*
X194574360Y-41404990D02*
X194650550Y-41366895D01*
X194650550Y-41366895D02*
X194841027Y-41366895D01*
X194841027Y-41366895D02*
X194955312Y-41404990D01*
X195755313Y-42090704D02*
X195717217Y-42128800D01*
X195717217Y-42128800D02*
X195602932Y-42166895D01*
X195602932Y-42166895D02*
X195526741Y-42166895D01*
X195526741Y-42166895D02*
X195412455Y-42128800D01*
X195412455Y-42128800D02*
X195336265Y-42052609D01*
X195336265Y-42052609D02*
X195298170Y-41976419D01*
X195298170Y-41976419D02*
X195260074Y-41824038D01*
X195260074Y-41824038D02*
X195260074Y-41709752D01*
X195260074Y-41709752D02*
X195298170Y-41557371D01*
X195298170Y-41557371D02*
X195336265Y-41481180D01*
X195336265Y-41481180D02*
X195412455Y-41404990D01*
X195412455Y-41404990D02*
X195526741Y-41366895D01*
X195526741Y-41366895D02*
X195602932Y-41366895D01*
X195602932Y-41366895D02*
X195717217Y-41404990D01*
X195717217Y-41404990D02*
X195755313Y-41443085D01*
X196098170Y-42166895D02*
X196098170Y-41366895D01*
X196555313Y-42166895D02*
X196212455Y-41709752D01*
X196555313Y-41366895D02*
X196098170Y-41824038D01*
X194421979Y-42366895D02*
X194688646Y-43166895D01*
X194688646Y-43166895D02*
X194955312Y-42366895D01*
X195679122Y-43090704D02*
X195641026Y-43128800D01*
X195641026Y-43128800D02*
X195526741Y-43166895D01*
X195526741Y-43166895D02*
X195450550Y-43166895D01*
X195450550Y-43166895D02*
X195336264Y-43128800D01*
X195336264Y-43128800D02*
X195260074Y-43052609D01*
X195260074Y-43052609D02*
X195221979Y-42976419D01*
X195221979Y-42976419D02*
X195183883Y-42824038D01*
X195183883Y-42824038D02*
X195183883Y-42709752D01*
X195183883Y-42709752D02*
X195221979Y-42557371D01*
X195221979Y-42557371D02*
X195260074Y-42481180D01*
X195260074Y-42481180D02*
X195336264Y-42404990D01*
X195336264Y-42404990D02*
X195450550Y-42366895D01*
X195450550Y-42366895D02*
X195526741Y-42366895D01*
X195526741Y-42366895D02*
X195641026Y-42404990D01*
X195641026Y-42404990D02*
X195679122Y-42443085D01*
X196479122Y-43090704D02*
X196441026Y-43128800D01*
X196441026Y-43128800D02*
X196326741Y-43166895D01*
X196326741Y-43166895D02*
X196250550Y-43166895D01*
X196250550Y-43166895D02*
X196136264Y-43128800D01*
X196136264Y-43128800D02*
X196060074Y-43052609D01*
X196060074Y-43052609D02*
X196021979Y-42976419D01*
X196021979Y-42976419D02*
X195983883Y-42824038D01*
X195983883Y-42824038D02*
X195983883Y-42709752D01*
X195983883Y-42709752D02*
X196021979Y-42557371D01*
X196021979Y-42557371D02*
X196060074Y-42481180D01*
X196060074Y-42481180D02*
X196136264Y-42404990D01*
X196136264Y-42404990D02*
X196250550Y-42366895D01*
X196250550Y-42366895D02*
X196326741Y-42366895D01*
X196326741Y-42366895D02*
X196441026Y-42404990D01*
X196441026Y-42404990D02*
X196479122Y-42443085D01*
D11*
X41704819Y-52392857D02*
X41228628Y-52726190D01*
X41704819Y-52964285D02*
X40704819Y-52964285D01*
X40704819Y-52964285D02*
X40704819Y-52583333D01*
X40704819Y-52583333D02*
X40752438Y-52488095D01*
X40752438Y-52488095D02*
X40800057Y-52440476D01*
X40800057Y-52440476D02*
X40895295Y-52392857D01*
X40895295Y-52392857D02*
X41038152Y-52392857D01*
X41038152Y-52392857D02*
X41133390Y-52440476D01*
X41133390Y-52440476D02*
X41181009Y-52488095D01*
X41181009Y-52488095D02*
X41228628Y-52583333D01*
X41228628Y-52583333D02*
X41228628Y-52964285D01*
X41704819Y-51440476D02*
X41704819Y-52011904D01*
X41704819Y-51726190D02*
X40704819Y-51726190D01*
X40704819Y-51726190D02*
X40847676Y-51821428D01*
X40847676Y-51821428D02*
X40942914Y-51916666D01*
X40942914Y-51916666D02*
X40990533Y-52011904D01*
X41038152Y-50583333D02*
X41704819Y-50583333D01*
X40657200Y-50821428D02*
X41371485Y-51059523D01*
X41371485Y-51059523D02*
X41371485Y-50440476D01*
X193607142Y-53109580D02*
X193559523Y-53157200D01*
X193559523Y-53157200D02*
X193416666Y-53204819D01*
X193416666Y-53204819D02*
X193321428Y-53204819D01*
X193321428Y-53204819D02*
X193178571Y-53157200D01*
X193178571Y-53157200D02*
X193083333Y-53061961D01*
X193083333Y-53061961D02*
X193035714Y-52966723D01*
X193035714Y-52966723D02*
X192988095Y-52776247D01*
X192988095Y-52776247D02*
X192988095Y-52633390D01*
X192988095Y-52633390D02*
X193035714Y-52442914D01*
X193035714Y-52442914D02*
X193083333Y-52347676D01*
X193083333Y-52347676D02*
X193178571Y-52252438D01*
X193178571Y-52252438D02*
X193321428Y-52204819D01*
X193321428Y-52204819D02*
X193416666Y-52204819D01*
X193416666Y-52204819D02*
X193559523Y-52252438D01*
X193559523Y-52252438D02*
X193607142Y-52300057D01*
X194559523Y-53204819D02*
X193988095Y-53204819D01*
X194273809Y-53204819D02*
X194273809Y-52204819D01*
X194273809Y-52204819D02*
X194178571Y-52347676D01*
X194178571Y-52347676D02*
X194083333Y-52442914D01*
X194083333Y-52442914D02*
X193988095Y-52490533D01*
X194940476Y-52300057D02*
X194988095Y-52252438D01*
X194988095Y-52252438D02*
X195083333Y-52204819D01*
X195083333Y-52204819D02*
X195321428Y-52204819D01*
X195321428Y-52204819D02*
X195416666Y-52252438D01*
X195416666Y-52252438D02*
X195464285Y-52300057D01*
X195464285Y-52300057D02*
X195511904Y-52395295D01*
X195511904Y-52395295D02*
X195511904Y-52490533D01*
X195511904Y-52490533D02*
X195464285Y-52633390D01*
X195464285Y-52633390D02*
X194892857Y-53204819D01*
X194892857Y-53204819D02*
X195511904Y-53204819D01*
X250954819Y-36967857D02*
X250478628Y-37301190D01*
X250954819Y-37539285D02*
X249954819Y-37539285D01*
X249954819Y-37539285D02*
X249954819Y-37158333D01*
X249954819Y-37158333D02*
X250002438Y-37063095D01*
X250002438Y-37063095D02*
X250050057Y-37015476D01*
X250050057Y-37015476D02*
X250145295Y-36967857D01*
X250145295Y-36967857D02*
X250288152Y-36967857D01*
X250288152Y-36967857D02*
X250383390Y-37015476D01*
X250383390Y-37015476D02*
X250431009Y-37063095D01*
X250431009Y-37063095D02*
X250478628Y-37158333D01*
X250478628Y-37158333D02*
X250478628Y-37539285D01*
X249954819Y-36634523D02*
X249954819Y-36015476D01*
X249954819Y-36015476D02*
X250335771Y-36348809D01*
X250335771Y-36348809D02*
X250335771Y-36205952D01*
X250335771Y-36205952D02*
X250383390Y-36110714D01*
X250383390Y-36110714D02*
X250431009Y-36063095D01*
X250431009Y-36063095D02*
X250526247Y-36015476D01*
X250526247Y-36015476D02*
X250764342Y-36015476D01*
X250764342Y-36015476D02*
X250859580Y-36063095D01*
X250859580Y-36063095D02*
X250907200Y-36110714D01*
X250907200Y-36110714D02*
X250954819Y-36205952D01*
X250954819Y-36205952D02*
X250954819Y-36491666D01*
X250954819Y-36491666D02*
X250907200Y-36586904D01*
X250907200Y-36586904D02*
X250859580Y-36634523D01*
X249954819Y-35682142D02*
X249954819Y-35063095D01*
X249954819Y-35063095D02*
X250335771Y-35396428D01*
X250335771Y-35396428D02*
X250335771Y-35253571D01*
X250335771Y-35253571D02*
X250383390Y-35158333D01*
X250383390Y-35158333D02*
X250431009Y-35110714D01*
X250431009Y-35110714D02*
X250526247Y-35063095D01*
X250526247Y-35063095D02*
X250764342Y-35063095D01*
X250764342Y-35063095D02*
X250859580Y-35110714D01*
X250859580Y-35110714D02*
X250907200Y-35158333D01*
X250907200Y-35158333D02*
X250954819Y-35253571D01*
X250954819Y-35253571D02*
X250954819Y-35539285D01*
X250954819Y-35539285D02*
X250907200Y-35634523D01*
X250907200Y-35634523D02*
X250859580Y-35682142D01*
X249204819Y-36892857D02*
X248728628Y-37226190D01*
X249204819Y-37464285D02*
X248204819Y-37464285D01*
X248204819Y-37464285D02*
X248204819Y-37083333D01*
X248204819Y-37083333D02*
X248252438Y-36988095D01*
X248252438Y-36988095D02*
X248300057Y-36940476D01*
X248300057Y-36940476D02*
X248395295Y-36892857D01*
X248395295Y-36892857D02*
X248538152Y-36892857D01*
X248538152Y-36892857D02*
X248633390Y-36940476D01*
X248633390Y-36940476D02*
X248681009Y-36988095D01*
X248681009Y-36988095D02*
X248728628Y-37083333D01*
X248728628Y-37083333D02*
X248728628Y-37464285D01*
X248204819Y-36559523D02*
X248204819Y-35940476D01*
X248204819Y-35940476D02*
X248585771Y-36273809D01*
X248585771Y-36273809D02*
X248585771Y-36130952D01*
X248585771Y-36130952D02*
X248633390Y-36035714D01*
X248633390Y-36035714D02*
X248681009Y-35988095D01*
X248681009Y-35988095D02*
X248776247Y-35940476D01*
X248776247Y-35940476D02*
X249014342Y-35940476D01*
X249014342Y-35940476D02*
X249109580Y-35988095D01*
X249109580Y-35988095D02*
X249157200Y-36035714D01*
X249157200Y-36035714D02*
X249204819Y-36130952D01*
X249204819Y-36130952D02*
X249204819Y-36416666D01*
X249204819Y-36416666D02*
X249157200Y-36511904D01*
X249157200Y-36511904D02*
X249109580Y-36559523D01*
X249204819Y-34988095D02*
X249204819Y-35559523D01*
X249204819Y-35273809D02*
X248204819Y-35273809D01*
X248204819Y-35273809D02*
X248347676Y-35369047D01*
X248347676Y-35369047D02*
X248442914Y-35464285D01*
X248442914Y-35464285D02*
X248490533Y-35559523D01*
D14*
X48574318Y-31887381D02*
X47304318Y-31887381D01*
X47304318Y-31887381D02*
X47304318Y-31585000D01*
X47304318Y-31585000D02*
X47364794Y-31403571D01*
X47364794Y-31403571D02*
X47485746Y-31282619D01*
X47485746Y-31282619D02*
X47606699Y-31222142D01*
X47606699Y-31222142D02*
X47848603Y-31161666D01*
X47848603Y-31161666D02*
X48030032Y-31161666D01*
X48030032Y-31161666D02*
X48271937Y-31222142D01*
X48271937Y-31222142D02*
X48392889Y-31282619D01*
X48392889Y-31282619D02*
X48513842Y-31403571D01*
X48513842Y-31403571D02*
X48574318Y-31585000D01*
X48574318Y-31585000D02*
X48574318Y-31887381D01*
X47304318Y-30073095D02*
X47304318Y-30315000D01*
X47304318Y-30315000D02*
X47364794Y-30435952D01*
X47364794Y-30435952D02*
X47425270Y-30496428D01*
X47425270Y-30496428D02*
X47606699Y-30617381D01*
X47606699Y-30617381D02*
X47848603Y-30677857D01*
X47848603Y-30677857D02*
X48332413Y-30677857D01*
X48332413Y-30677857D02*
X48453365Y-30617381D01*
X48453365Y-30617381D02*
X48513842Y-30556904D01*
X48513842Y-30556904D02*
X48574318Y-30435952D01*
X48574318Y-30435952D02*
X48574318Y-30194047D01*
X48574318Y-30194047D02*
X48513842Y-30073095D01*
X48513842Y-30073095D02*
X48453365Y-30012619D01*
X48453365Y-30012619D02*
X48332413Y-29952142D01*
X48332413Y-29952142D02*
X48030032Y-29952142D01*
X48030032Y-29952142D02*
X47909080Y-30012619D01*
X47909080Y-30012619D02*
X47848603Y-30073095D01*
X47848603Y-30073095D02*
X47788127Y-30194047D01*
X47788127Y-30194047D02*
X47788127Y-30435952D01*
X47788127Y-30435952D02*
X47848603Y-30556904D01*
X47848603Y-30556904D02*
X47909080Y-30617381D01*
X47909080Y-30617381D02*
X48030032Y-30677857D01*
D11*
X185105216Y-25200711D02*
X185009866Y-25153036D01*
X185009866Y-25153036D02*
X184914516Y-25057687D01*
X184914516Y-25057687D02*
X184771491Y-24914662D01*
X184771491Y-24914662D02*
X184676142Y-24866987D01*
X184676142Y-24866987D02*
X184580792Y-24866987D01*
X184628467Y-25105361D02*
X184533117Y-25057687D01*
X184533117Y-25057687D02*
X184437767Y-24962337D01*
X184437767Y-24962337D02*
X184390092Y-24771637D01*
X184390092Y-24771637D02*
X184390092Y-24437913D01*
X184390092Y-24437913D02*
X184437767Y-24247213D01*
X184437767Y-24247213D02*
X184533117Y-24151863D01*
X184533117Y-24151863D02*
X184628467Y-24104188D01*
X184628467Y-24104188D02*
X184819166Y-24104188D01*
X184819166Y-24104188D02*
X184914516Y-24151863D01*
X184914516Y-24151863D02*
X185009866Y-24247213D01*
X185009866Y-24247213D02*
X185057541Y-24437913D01*
X185057541Y-24437913D02*
X185057541Y-24771637D01*
X185057541Y-24771637D02*
X185009866Y-24962337D01*
X185009866Y-24962337D02*
X184914516Y-25057687D01*
X184914516Y-25057687D02*
X184819166Y-25105361D01*
X184819166Y-25105361D02*
X184628467Y-25105361D01*
X185391265Y-24104188D02*
X185629640Y-25105361D01*
X185629640Y-25105361D02*
X185820339Y-24390238D01*
X185820339Y-24390238D02*
X186011039Y-25105361D01*
X186011039Y-25105361D02*
X186249414Y-24104188D01*
X186630813Y-25105361D02*
X186630813Y-24104188D01*
X187107562Y-25105361D02*
X187107562Y-24104188D01*
X188156410Y-25010012D02*
X188108735Y-25057687D01*
X188108735Y-25057687D02*
X187965710Y-25105361D01*
X187965710Y-25105361D02*
X187870360Y-25105361D01*
X187870360Y-25105361D02*
X187727336Y-25057687D01*
X187727336Y-25057687D02*
X187631986Y-24962337D01*
X187631986Y-24962337D02*
X187584311Y-24866987D01*
X187584311Y-24866987D02*
X187536636Y-24676287D01*
X187536636Y-24676287D02*
X187536636Y-24533263D01*
X187536636Y-24533263D02*
X187584311Y-24342563D01*
X187584311Y-24342563D02*
X187631986Y-24247213D01*
X187631986Y-24247213D02*
X187727336Y-24151863D01*
X187727336Y-24151863D02*
X187870360Y-24104188D01*
X187870360Y-24104188D02*
X187965710Y-24104188D01*
X187965710Y-24104188D02*
X188108735Y-24151863D01*
X188108735Y-24151863D02*
X188156410Y-24199538D01*
X189109908Y-25105361D02*
X188537809Y-25105361D01*
X188823859Y-25105361D02*
X188823859Y-24104188D01*
X188823859Y-24104188D02*
X188728509Y-24247213D01*
X188728509Y-24247213D02*
X188633159Y-24342563D01*
X188633159Y-24342563D02*
X188537809Y-24390238D01*
X174666666Y-29204819D02*
X174666666Y-29919104D01*
X174666666Y-29919104D02*
X174619047Y-30061961D01*
X174619047Y-30061961D02*
X174523809Y-30157200D01*
X174523809Y-30157200D02*
X174380952Y-30204819D01*
X174380952Y-30204819D02*
X174285714Y-30204819D01*
X175571428Y-29538152D02*
X175571428Y-30204819D01*
X175333333Y-29157200D02*
X175095238Y-29871485D01*
X175095238Y-29871485D02*
X175714285Y-29871485D01*
D14*
X253017318Y-50048332D02*
X253924461Y-50048332D01*
X253924461Y-50048332D02*
X254105889Y-50108809D01*
X254105889Y-50108809D02*
X254226842Y-50229761D01*
X254226842Y-50229761D02*
X254287318Y-50411190D01*
X254287318Y-50411190D02*
X254287318Y-50532142D01*
X253138270Y-49504047D02*
X253077794Y-49443571D01*
X253077794Y-49443571D02*
X253017318Y-49322618D01*
X253017318Y-49322618D02*
X253017318Y-49020237D01*
X253017318Y-49020237D02*
X253077794Y-48899285D01*
X253077794Y-48899285D02*
X253138270Y-48838809D01*
X253138270Y-48838809D02*
X253259222Y-48778332D01*
X253259222Y-48778332D02*
X253380175Y-48778332D01*
X253380175Y-48778332D02*
X253561603Y-48838809D01*
X253561603Y-48838809D02*
X254287318Y-49564523D01*
X254287318Y-49564523D02*
X254287318Y-48778332D01*
D11*
X231333333Y-52679580D02*
X231285714Y-52727200D01*
X231285714Y-52727200D02*
X231142857Y-52774819D01*
X231142857Y-52774819D02*
X231047619Y-52774819D01*
X231047619Y-52774819D02*
X230904762Y-52727200D01*
X230904762Y-52727200D02*
X230809524Y-52631961D01*
X230809524Y-52631961D02*
X230761905Y-52536723D01*
X230761905Y-52536723D02*
X230714286Y-52346247D01*
X230714286Y-52346247D02*
X230714286Y-52203390D01*
X230714286Y-52203390D02*
X230761905Y-52012914D01*
X230761905Y-52012914D02*
X230809524Y-51917676D01*
X230809524Y-51917676D02*
X230904762Y-51822438D01*
X230904762Y-51822438D02*
X231047619Y-51774819D01*
X231047619Y-51774819D02*
X231142857Y-51774819D01*
X231142857Y-51774819D02*
X231285714Y-51822438D01*
X231285714Y-51822438D02*
X231333333Y-51870057D01*
X231904762Y-52203390D02*
X231809524Y-52155771D01*
X231809524Y-52155771D02*
X231761905Y-52108152D01*
X231761905Y-52108152D02*
X231714286Y-52012914D01*
X231714286Y-52012914D02*
X231714286Y-51965295D01*
X231714286Y-51965295D02*
X231761905Y-51870057D01*
X231761905Y-51870057D02*
X231809524Y-51822438D01*
X231809524Y-51822438D02*
X231904762Y-51774819D01*
X231904762Y-51774819D02*
X232095238Y-51774819D01*
X232095238Y-51774819D02*
X232190476Y-51822438D01*
X232190476Y-51822438D02*
X232238095Y-51870057D01*
X232238095Y-51870057D02*
X232285714Y-51965295D01*
X232285714Y-51965295D02*
X232285714Y-52012914D01*
X232285714Y-52012914D02*
X232238095Y-52108152D01*
X232238095Y-52108152D02*
X232190476Y-52155771D01*
X232190476Y-52155771D02*
X232095238Y-52203390D01*
X232095238Y-52203390D02*
X231904762Y-52203390D01*
X231904762Y-52203390D02*
X231809524Y-52251009D01*
X231809524Y-52251009D02*
X231761905Y-52298628D01*
X231761905Y-52298628D02*
X231714286Y-52393866D01*
X231714286Y-52393866D02*
X231714286Y-52584342D01*
X231714286Y-52584342D02*
X231761905Y-52679580D01*
X231761905Y-52679580D02*
X231809524Y-52727200D01*
X231809524Y-52727200D02*
X231904762Y-52774819D01*
X231904762Y-52774819D02*
X232095238Y-52774819D01*
X232095238Y-52774819D02*
X232190476Y-52727200D01*
X232190476Y-52727200D02*
X232238095Y-52679580D01*
X232238095Y-52679580D02*
X232285714Y-52584342D01*
X232285714Y-52584342D02*
X232285714Y-52393866D01*
X232285714Y-52393866D02*
X232238095Y-52298628D01*
X232238095Y-52298628D02*
X232190476Y-52251009D01*
X232190476Y-52251009D02*
X232095238Y-52203390D01*
X194774819Y-32142857D02*
X194298628Y-32476190D01*
X194774819Y-32714285D02*
X193774819Y-32714285D01*
X193774819Y-32714285D02*
X193774819Y-32333333D01*
X193774819Y-32333333D02*
X193822438Y-32238095D01*
X193822438Y-32238095D02*
X193870057Y-32190476D01*
X193870057Y-32190476D02*
X193965295Y-32142857D01*
X193965295Y-32142857D02*
X194108152Y-32142857D01*
X194108152Y-32142857D02*
X194203390Y-32190476D01*
X194203390Y-32190476D02*
X194251009Y-32238095D01*
X194251009Y-32238095D02*
X194298628Y-32333333D01*
X194298628Y-32333333D02*
X194298628Y-32714285D01*
X194774819Y-31190476D02*
X194774819Y-31761904D01*
X194774819Y-31476190D02*
X193774819Y-31476190D01*
X193774819Y-31476190D02*
X193917676Y-31571428D01*
X193917676Y-31571428D02*
X194012914Y-31666666D01*
X194012914Y-31666666D02*
X194060533Y-31761904D01*
X193870057Y-30809523D02*
X193822438Y-30761904D01*
X193822438Y-30761904D02*
X193774819Y-30666666D01*
X193774819Y-30666666D02*
X193774819Y-30428571D01*
X193774819Y-30428571D02*
X193822438Y-30333333D01*
X193822438Y-30333333D02*
X193870057Y-30285714D01*
X193870057Y-30285714D02*
X193965295Y-30238095D01*
X193965295Y-30238095D02*
X194060533Y-30238095D01*
X194060533Y-30238095D02*
X194203390Y-30285714D01*
X194203390Y-30285714D02*
X194774819Y-30857142D01*
X194774819Y-30857142D02*
X194774819Y-30238095D01*
X220109580Y-36691666D02*
X220157200Y-36739285D01*
X220157200Y-36739285D02*
X220204819Y-36882142D01*
X220204819Y-36882142D02*
X220204819Y-36977380D01*
X220204819Y-36977380D02*
X220157200Y-37120237D01*
X220157200Y-37120237D02*
X220061961Y-37215475D01*
X220061961Y-37215475D02*
X219966723Y-37263094D01*
X219966723Y-37263094D02*
X219776247Y-37310713D01*
X219776247Y-37310713D02*
X219633390Y-37310713D01*
X219633390Y-37310713D02*
X219442914Y-37263094D01*
X219442914Y-37263094D02*
X219347676Y-37215475D01*
X219347676Y-37215475D02*
X219252438Y-37120237D01*
X219252438Y-37120237D02*
X219204819Y-36977380D01*
X219204819Y-36977380D02*
X219204819Y-36882142D01*
X219204819Y-36882142D02*
X219252438Y-36739285D01*
X219252438Y-36739285D02*
X219300057Y-36691666D01*
X219204819Y-36358332D02*
X219204819Y-35739285D01*
X219204819Y-35739285D02*
X219585771Y-36072618D01*
X219585771Y-36072618D02*
X219585771Y-35929761D01*
X219585771Y-35929761D02*
X219633390Y-35834523D01*
X219633390Y-35834523D02*
X219681009Y-35786904D01*
X219681009Y-35786904D02*
X219776247Y-35739285D01*
X219776247Y-35739285D02*
X220014342Y-35739285D01*
X220014342Y-35739285D02*
X220109580Y-35786904D01*
X220109580Y-35786904D02*
X220157200Y-35834523D01*
X220157200Y-35834523D02*
X220204819Y-35929761D01*
X220204819Y-35929761D02*
X220204819Y-36215475D01*
X220204819Y-36215475D02*
X220157200Y-36310713D01*
X220157200Y-36310713D02*
X220109580Y-36358332D01*
X233988095Y-34954819D02*
X233988095Y-35764342D01*
X233988095Y-35764342D02*
X234035714Y-35859580D01*
X234035714Y-35859580D02*
X234083333Y-35907200D01*
X234083333Y-35907200D02*
X234178571Y-35954819D01*
X234178571Y-35954819D02*
X234369047Y-35954819D01*
X234369047Y-35954819D02*
X234464285Y-35907200D01*
X234464285Y-35907200D02*
X234511904Y-35859580D01*
X234511904Y-35859580D02*
X234559523Y-35764342D01*
X234559523Y-35764342D02*
X234559523Y-34954819D01*
X235464285Y-35288152D02*
X235464285Y-35954819D01*
X235226190Y-34907200D02*
X234988095Y-35621485D01*
X234988095Y-35621485D02*
X235607142Y-35621485D01*
X226913094Y-24919104D02*
X227389284Y-24919104D01*
X226817856Y-25204819D02*
X227151189Y-24204819D01*
X227151189Y-24204819D02*
X227484522Y-25204819D01*
X227817856Y-24538152D02*
X227817856Y-25204819D01*
X227817856Y-24633390D02*
X227865475Y-24585771D01*
X227865475Y-24585771D02*
X227960713Y-24538152D01*
X227960713Y-24538152D02*
X228103570Y-24538152D01*
X228103570Y-24538152D02*
X228198808Y-24585771D01*
X228198808Y-24585771D02*
X228246427Y-24681009D01*
X228246427Y-24681009D02*
X228246427Y-25204819D01*
X228579761Y-24538152D02*
X228960713Y-24538152D01*
X228722618Y-24204819D02*
X228722618Y-25061961D01*
X228722618Y-25061961D02*
X228770237Y-25157200D01*
X228770237Y-25157200D02*
X228865475Y-25204819D01*
X228865475Y-25204819D02*
X228960713Y-25204819D01*
X229674999Y-25157200D02*
X229579761Y-25204819D01*
X229579761Y-25204819D02*
X229389285Y-25204819D01*
X229389285Y-25204819D02*
X229294047Y-25157200D01*
X229294047Y-25157200D02*
X229246428Y-25061961D01*
X229246428Y-25061961D02*
X229246428Y-24681009D01*
X229246428Y-24681009D02*
X229294047Y-24585771D01*
X229294047Y-24585771D02*
X229389285Y-24538152D01*
X229389285Y-24538152D02*
X229579761Y-24538152D01*
X229579761Y-24538152D02*
X229674999Y-24585771D01*
X229674999Y-24585771D02*
X229722618Y-24681009D01*
X229722618Y-24681009D02*
X229722618Y-24776247D01*
X229722618Y-24776247D02*
X229246428Y-24871485D01*
X230151190Y-24538152D02*
X230151190Y-25204819D01*
X230151190Y-24633390D02*
X230198809Y-24585771D01*
X230198809Y-24585771D02*
X230294047Y-24538152D01*
X230294047Y-24538152D02*
X230436904Y-24538152D01*
X230436904Y-24538152D02*
X230532142Y-24585771D01*
X230532142Y-24585771D02*
X230579761Y-24681009D01*
X230579761Y-24681009D02*
X230579761Y-25204819D01*
X231055952Y-24538152D02*
X231055952Y-25204819D01*
X231055952Y-24633390D02*
X231103571Y-24585771D01*
X231103571Y-24585771D02*
X231198809Y-24538152D01*
X231198809Y-24538152D02*
X231341666Y-24538152D01*
X231341666Y-24538152D02*
X231436904Y-24585771D01*
X231436904Y-24585771D02*
X231484523Y-24681009D01*
X231484523Y-24681009D02*
X231484523Y-25204819D01*
X232389285Y-25204819D02*
X232389285Y-24681009D01*
X232389285Y-24681009D02*
X232341666Y-24585771D01*
X232341666Y-24585771D02*
X232246428Y-24538152D01*
X232246428Y-24538152D02*
X232055952Y-24538152D01*
X232055952Y-24538152D02*
X231960714Y-24585771D01*
X232389285Y-25157200D02*
X232294047Y-25204819D01*
X232294047Y-25204819D02*
X232055952Y-25204819D01*
X232055952Y-25204819D02*
X231960714Y-25157200D01*
X231960714Y-25157200D02*
X231913095Y-25061961D01*
X231913095Y-25061961D02*
X231913095Y-24966723D01*
X231913095Y-24966723D02*
X231960714Y-24871485D01*
X231960714Y-24871485D02*
X232055952Y-24823866D01*
X232055952Y-24823866D02*
X232294047Y-24823866D01*
X232294047Y-24823866D02*
X232389285Y-24776247D01*
X233579762Y-24919104D02*
X234055952Y-24919104D01*
X233484524Y-25204819D02*
X233817857Y-24204819D01*
X233817857Y-24204819D02*
X234151190Y-25204819D01*
X234484524Y-25204819D02*
X234484524Y-24538152D01*
X234484524Y-24728628D02*
X234532143Y-24633390D01*
X234532143Y-24633390D02*
X234579762Y-24585771D01*
X234579762Y-24585771D02*
X234675000Y-24538152D01*
X234675000Y-24538152D02*
X234770238Y-24538152D01*
X235484524Y-25157200D02*
X235389286Y-25204819D01*
X235389286Y-25204819D02*
X235198810Y-25204819D01*
X235198810Y-25204819D02*
X235103572Y-25157200D01*
X235103572Y-25157200D02*
X235055953Y-25061961D01*
X235055953Y-25061961D02*
X235055953Y-24681009D01*
X235055953Y-24681009D02*
X235103572Y-24585771D01*
X235103572Y-24585771D02*
X235198810Y-24538152D01*
X235198810Y-24538152D02*
X235389286Y-24538152D01*
X235389286Y-24538152D02*
X235484524Y-24585771D01*
X235484524Y-24585771D02*
X235532143Y-24681009D01*
X235532143Y-24681009D02*
X235532143Y-24776247D01*
X235532143Y-24776247D02*
X235055953Y-24871485D01*
X236389286Y-25204819D02*
X236389286Y-24681009D01*
X236389286Y-24681009D02*
X236341667Y-24585771D01*
X236341667Y-24585771D02*
X236246429Y-24538152D01*
X236246429Y-24538152D02*
X236055953Y-24538152D01*
X236055953Y-24538152D02*
X235960715Y-24585771D01*
X236389286Y-25157200D02*
X236294048Y-25204819D01*
X236294048Y-25204819D02*
X236055953Y-25204819D01*
X236055953Y-25204819D02*
X235960715Y-25157200D01*
X235960715Y-25157200D02*
X235913096Y-25061961D01*
X235913096Y-25061961D02*
X235913096Y-24966723D01*
X235913096Y-24966723D02*
X235960715Y-24871485D01*
X235960715Y-24871485D02*
X236055953Y-24823866D01*
X236055953Y-24823866D02*
X236294048Y-24823866D01*
X236294048Y-24823866D02*
X236389286Y-24776247D01*
X216649819Y-59736904D02*
X217459342Y-59736904D01*
X217459342Y-59736904D02*
X217554580Y-59689285D01*
X217554580Y-59689285D02*
X217602200Y-59641666D01*
X217602200Y-59641666D02*
X217649819Y-59546428D01*
X217649819Y-59546428D02*
X217649819Y-59355952D01*
X217649819Y-59355952D02*
X217602200Y-59260714D01*
X217602200Y-59260714D02*
X217554580Y-59213095D01*
X217554580Y-59213095D02*
X217459342Y-59165476D01*
X217459342Y-59165476D02*
X216649819Y-59165476D01*
X217078390Y-58546428D02*
X217030771Y-58641666D01*
X217030771Y-58641666D02*
X216983152Y-58689285D01*
X216983152Y-58689285D02*
X216887914Y-58736904D01*
X216887914Y-58736904D02*
X216840295Y-58736904D01*
X216840295Y-58736904D02*
X216745057Y-58689285D01*
X216745057Y-58689285D02*
X216697438Y-58641666D01*
X216697438Y-58641666D02*
X216649819Y-58546428D01*
X216649819Y-58546428D02*
X216649819Y-58355952D01*
X216649819Y-58355952D02*
X216697438Y-58260714D01*
X216697438Y-58260714D02*
X216745057Y-58213095D01*
X216745057Y-58213095D02*
X216840295Y-58165476D01*
X216840295Y-58165476D02*
X216887914Y-58165476D01*
X216887914Y-58165476D02*
X216983152Y-58213095D01*
X216983152Y-58213095D02*
X217030771Y-58260714D01*
X217030771Y-58260714D02*
X217078390Y-58355952D01*
X217078390Y-58355952D02*
X217078390Y-58546428D01*
X217078390Y-58546428D02*
X217126009Y-58641666D01*
X217126009Y-58641666D02*
X217173628Y-58689285D01*
X217173628Y-58689285D02*
X217268866Y-58736904D01*
X217268866Y-58736904D02*
X217459342Y-58736904D01*
X217459342Y-58736904D02*
X217554580Y-58689285D01*
X217554580Y-58689285D02*
X217602200Y-58641666D01*
X217602200Y-58641666D02*
X217649819Y-58546428D01*
X217649819Y-58546428D02*
X217649819Y-58355952D01*
X217649819Y-58355952D02*
X217602200Y-58260714D01*
X217602200Y-58260714D02*
X217554580Y-58213095D01*
X217554580Y-58213095D02*
X217459342Y-58165476D01*
X217459342Y-58165476D02*
X217268866Y-58165476D01*
X217268866Y-58165476D02*
X217173628Y-58213095D01*
X217173628Y-58213095D02*
X217126009Y-58260714D01*
X217126009Y-58260714D02*
X217078390Y-58355952D01*
X218762380Y-25898276D02*
X218762380Y-26416371D01*
X218762380Y-26416371D02*
X218792857Y-26477323D01*
X218792857Y-26477323D02*
X218823333Y-26507800D01*
X218823333Y-26507800D02*
X218884285Y-26538276D01*
X218884285Y-26538276D02*
X219006190Y-26538276D01*
X219006190Y-26538276D02*
X219067142Y-26507800D01*
X219067142Y-26507800D02*
X219097619Y-26477323D01*
X219097619Y-26477323D02*
X219128095Y-26416371D01*
X219128095Y-26416371D02*
X219128095Y-25898276D01*
X219402380Y-25959228D02*
X219432856Y-25928752D01*
X219432856Y-25928752D02*
X219493809Y-25898276D01*
X219493809Y-25898276D02*
X219646190Y-25898276D01*
X219646190Y-25898276D02*
X219707142Y-25928752D01*
X219707142Y-25928752D02*
X219737618Y-25959228D01*
X219737618Y-25959228D02*
X219768095Y-26020180D01*
X219768095Y-26020180D02*
X219768095Y-26081133D01*
X219768095Y-26081133D02*
X219737618Y-26172561D01*
X219737618Y-26172561D02*
X219371904Y-26538276D01*
X219371904Y-26538276D02*
X219768095Y-26538276D01*
X218454819Y-36666666D02*
X217978628Y-36999999D01*
X218454819Y-37238094D02*
X217454819Y-37238094D01*
X217454819Y-37238094D02*
X217454819Y-36857142D01*
X217454819Y-36857142D02*
X217502438Y-36761904D01*
X217502438Y-36761904D02*
X217550057Y-36714285D01*
X217550057Y-36714285D02*
X217645295Y-36666666D01*
X217645295Y-36666666D02*
X217788152Y-36666666D01*
X217788152Y-36666666D02*
X217883390Y-36714285D01*
X217883390Y-36714285D02*
X217931009Y-36761904D01*
X217931009Y-36761904D02*
X217978628Y-36857142D01*
X217978628Y-36857142D02*
X217978628Y-37238094D01*
X217788152Y-35809523D02*
X218454819Y-35809523D01*
X217407200Y-36047618D02*
X218121485Y-36285713D01*
X218121485Y-36285713D02*
X218121485Y-35666666D01*
X228729819Y-59536904D02*
X229539342Y-59536904D01*
X229539342Y-59536904D02*
X229634580Y-59489285D01*
X229634580Y-59489285D02*
X229682200Y-59441666D01*
X229682200Y-59441666D02*
X229729819Y-59346428D01*
X229729819Y-59346428D02*
X229729819Y-59155952D01*
X229729819Y-59155952D02*
X229682200Y-59060714D01*
X229682200Y-59060714D02*
X229634580Y-59013095D01*
X229634580Y-59013095D02*
X229539342Y-58965476D01*
X229539342Y-58965476D02*
X228729819Y-58965476D01*
X228729819Y-58584523D02*
X228729819Y-57917857D01*
X228729819Y-57917857D02*
X229729819Y-58346428D01*
X191629819Y-60263094D02*
X192439342Y-60263094D01*
X192439342Y-60263094D02*
X192534580Y-60215475D01*
X192534580Y-60215475D02*
X192582200Y-60167856D01*
X192582200Y-60167856D02*
X192629819Y-60072618D01*
X192629819Y-60072618D02*
X192629819Y-59882142D01*
X192629819Y-59882142D02*
X192582200Y-59786904D01*
X192582200Y-59786904D02*
X192534580Y-59739285D01*
X192534580Y-59739285D02*
X192439342Y-59691666D01*
X192439342Y-59691666D02*
X191629819Y-59691666D01*
X192629819Y-58691666D02*
X192629819Y-59263094D01*
X192629819Y-58977380D02*
X191629819Y-58977380D01*
X191629819Y-58977380D02*
X191772676Y-59072618D01*
X191772676Y-59072618D02*
X191867914Y-59167856D01*
X191867914Y-59167856D02*
X191915533Y-59263094D01*
X191629819Y-58072618D02*
X191629819Y-57977380D01*
X191629819Y-57977380D02*
X191677438Y-57882142D01*
X191677438Y-57882142D02*
X191725057Y-57834523D01*
X191725057Y-57834523D02*
X191820295Y-57786904D01*
X191820295Y-57786904D02*
X192010771Y-57739285D01*
X192010771Y-57739285D02*
X192248866Y-57739285D01*
X192248866Y-57739285D02*
X192439342Y-57786904D01*
X192439342Y-57786904D02*
X192534580Y-57834523D01*
X192534580Y-57834523D02*
X192582200Y-57882142D01*
X192582200Y-57882142D02*
X192629819Y-57977380D01*
X192629819Y-57977380D02*
X192629819Y-58072618D01*
X192629819Y-58072618D02*
X192582200Y-58167856D01*
X192582200Y-58167856D02*
X192534580Y-58215475D01*
X192534580Y-58215475D02*
X192439342Y-58263094D01*
X192439342Y-58263094D02*
X192248866Y-58310713D01*
X192248866Y-58310713D02*
X192010771Y-58310713D01*
X192010771Y-58310713D02*
X191820295Y-58263094D01*
X191820295Y-58263094D02*
X191725057Y-58215475D01*
X191725057Y-58215475D02*
X191677438Y-58167856D01*
X191677438Y-58167856D02*
X191629819Y-58072618D01*
X257954819Y-36892857D02*
X257478628Y-37226190D01*
X257954819Y-37464285D02*
X256954819Y-37464285D01*
X256954819Y-37464285D02*
X256954819Y-37083333D01*
X256954819Y-37083333D02*
X257002438Y-36988095D01*
X257002438Y-36988095D02*
X257050057Y-36940476D01*
X257050057Y-36940476D02*
X257145295Y-36892857D01*
X257145295Y-36892857D02*
X257288152Y-36892857D01*
X257288152Y-36892857D02*
X257383390Y-36940476D01*
X257383390Y-36940476D02*
X257431009Y-36988095D01*
X257431009Y-36988095D02*
X257478628Y-37083333D01*
X257478628Y-37083333D02*
X257478628Y-37464285D01*
X257050057Y-36511904D02*
X257002438Y-36464285D01*
X257002438Y-36464285D02*
X256954819Y-36369047D01*
X256954819Y-36369047D02*
X256954819Y-36130952D01*
X256954819Y-36130952D02*
X257002438Y-36035714D01*
X257002438Y-36035714D02*
X257050057Y-35988095D01*
X257050057Y-35988095D02*
X257145295Y-35940476D01*
X257145295Y-35940476D02*
X257240533Y-35940476D01*
X257240533Y-35940476D02*
X257383390Y-35988095D01*
X257383390Y-35988095D02*
X257954819Y-36559523D01*
X257954819Y-36559523D02*
X257954819Y-35940476D01*
X257383390Y-35369047D02*
X257335771Y-35464285D01*
X257335771Y-35464285D02*
X257288152Y-35511904D01*
X257288152Y-35511904D02*
X257192914Y-35559523D01*
X257192914Y-35559523D02*
X257145295Y-35559523D01*
X257145295Y-35559523D02*
X257050057Y-35511904D01*
X257050057Y-35511904D02*
X257002438Y-35464285D01*
X257002438Y-35464285D02*
X256954819Y-35369047D01*
X256954819Y-35369047D02*
X256954819Y-35178571D01*
X256954819Y-35178571D02*
X257002438Y-35083333D01*
X257002438Y-35083333D02*
X257050057Y-35035714D01*
X257050057Y-35035714D02*
X257145295Y-34988095D01*
X257145295Y-34988095D02*
X257192914Y-34988095D01*
X257192914Y-34988095D02*
X257288152Y-35035714D01*
X257288152Y-35035714D02*
X257335771Y-35083333D01*
X257335771Y-35083333D02*
X257383390Y-35178571D01*
X257383390Y-35178571D02*
X257383390Y-35369047D01*
X257383390Y-35369047D02*
X257431009Y-35464285D01*
X257431009Y-35464285D02*
X257478628Y-35511904D01*
X257478628Y-35511904D02*
X257573866Y-35559523D01*
X257573866Y-35559523D02*
X257764342Y-35559523D01*
X257764342Y-35559523D02*
X257859580Y-35511904D01*
X257859580Y-35511904D02*
X257907200Y-35464285D01*
X257907200Y-35464285D02*
X257954819Y-35369047D01*
X257954819Y-35369047D02*
X257954819Y-35178571D01*
X257954819Y-35178571D02*
X257907200Y-35083333D01*
X257907200Y-35083333D02*
X257859580Y-35035714D01*
X257859580Y-35035714D02*
X257764342Y-34988095D01*
X257764342Y-34988095D02*
X257573866Y-34988095D01*
X257573866Y-34988095D02*
X257478628Y-35035714D01*
X257478628Y-35035714D02*
X257431009Y-35083333D01*
X257431009Y-35083333D02*
X257383390Y-35178571D01*
D15*
%TO.C,C1*%
X41590000Y-30115580D02*
X41590000Y-29834420D01*
X42610000Y-30115580D02*
X42610000Y-29834420D01*
%TO.C,C2*%
X192609420Y-46490000D02*
X192890580Y-46490000D01*
X192609420Y-47510000D02*
X192890580Y-47510000D01*
%TO.C,R3*%
X37814564Y-28290000D02*
X33460436Y-28290000D01*
X37814564Y-31710000D02*
X33460436Y-31710000D01*
%TO.C,C7*%
X216990000Y-30359420D02*
X216990000Y-30640580D01*
X218010000Y-30359420D02*
X218010000Y-30640580D01*
D16*
%TO.C,CN1*%
X64500000Y-21112500D02*
X64500000Y-22582500D01*
X64500000Y-25042500D02*
X64500000Y-29582500D01*
X64500000Y-32042500D02*
X64500000Y-33312500D01*
X64500000Y-33312500D02*
X70240000Y-33312500D01*
X65000000Y-21112500D02*
X65000000Y-19112500D01*
X70000000Y-19112500D02*
X65000000Y-19112500D01*
X70000000Y-21112500D02*
X70000000Y-19112500D01*
X70500000Y-21112500D02*
X64500000Y-21112500D01*
X70500000Y-21112500D02*
X70500000Y-21582500D01*
X70500000Y-24042500D02*
X70500000Y-25282500D01*
X70500000Y-27742500D02*
X70500000Y-31282500D01*
D15*
%TO.C,C11*%
X207109420Y-53740000D02*
X207390580Y-53740000D01*
X207109420Y-54760000D02*
X207390580Y-54760000D01*
D17*
%TO.C,J1*%
X194605000Y-20150000D02*
X194605000Y-21580000D01*
X194605000Y-25600000D02*
X194605000Y-23920000D01*
X203545000Y-20150000D02*
X194605000Y-20150000D01*
X203545000Y-20150000D02*
X203545000Y-21580000D01*
X203545000Y-25600000D02*
X203545000Y-23920000D01*
D13*
X202375000Y-28750000D02*
G75*
G02*
X202175000Y-28750000I-100000J0D01*
G01*
X202175000Y-28750000D02*
G75*
G02*
X202375000Y-28750000I100000J0D01*
G01*
D15*
%TO.C,C4*%
X216990000Y-27109420D02*
X216990000Y-27390580D01*
X218010000Y-27109420D02*
X218010000Y-27390580D01*
D12*
%TO.C,U12*%
X180400000Y-33420000D02*
X182760000Y-33420000D01*
D15*
X180400000Y-47820000D02*
X180400000Y-33420000D01*
D12*
X180400000Y-47820000D02*
X182760000Y-47820000D01*
D15*
X182760000Y-47820000D02*
X182760000Y-33420000D01*
%TO.C,R30*%
X253477500Y-39487258D02*
X253477500Y-39012742D01*
X254522500Y-39487258D02*
X254522500Y-39012742D01*
%TO.C,R10*%
X202477500Y-31737258D02*
X202477500Y-31262742D01*
X203522500Y-31737258D02*
X203522500Y-31262742D01*
D18*
%TO.C,G\u002A\u002A\u002A*%
G36*
X181459605Y-28415598D02*
G01*
X181542093Y-28444076D01*
X181545389Y-28445618D01*
X181595935Y-28477372D01*
X181643043Y-28520993D01*
X181681290Y-28570631D01*
X181704079Y-28616840D01*
X181714550Y-28664716D01*
X181718663Y-28722423D01*
X181716434Y-28781318D01*
X181707880Y-28832757D01*
X181703624Y-28846758D01*
X181681222Y-28890272D01*
X181646327Y-28935864D01*
X181604542Y-28977090D01*
X181566287Y-29004774D01*
X181495747Y-29036316D01*
X181418534Y-29053950D01*
X181338124Y-29058307D01*
X181257991Y-29050017D01*
X181181612Y-29029711D01*
X181112462Y-28998018D01*
X181054017Y-28955569D01*
X181010367Y-28903970D01*
X180979767Y-28839133D01*
X180964463Y-28768446D01*
X180963996Y-28695987D01*
X180977907Y-28625835D01*
X181005737Y-28562067D01*
X181047027Y-28508762D01*
X181055770Y-28500666D01*
X181122560Y-28454767D01*
X181200188Y-28422878D01*
X181284804Y-28405432D01*
X181372559Y-28402861D01*
X181459605Y-28415598D01*
G37*
G36*
X182509258Y-21879868D02*
G01*
X182510000Y-21894185D01*
X182501952Y-21917355D01*
X182476309Y-21939184D01*
X182475000Y-21940000D01*
X182450583Y-21959073D01*
X182440835Y-21979617D01*
X182440000Y-21990816D01*
X182442036Y-22010437D01*
X182452175Y-22018484D01*
X182475000Y-22020000D01*
X182498669Y-22021868D01*
X182508358Y-22030274D01*
X182510000Y-22045000D01*
X182510000Y-22070000D01*
X182390000Y-22070000D01*
X182310000Y-22070000D01*
X182270000Y-22070000D01*
X182270000Y-22020000D01*
X182310000Y-22020000D01*
X182355000Y-22020000D01*
X182382665Y-22019149D01*
X182395768Y-22014127D01*
X182399740Y-22001234D01*
X182400000Y-21989343D01*
X182396624Y-21960435D01*
X182389648Y-21939343D01*
X182371612Y-21923973D01*
X182346372Y-21920764D01*
X182323332Y-21930737D01*
X182322000Y-21932000D01*
X182314101Y-21949352D01*
X182310115Y-21976612D01*
X182310000Y-21982000D01*
X182310000Y-22020000D01*
X182270000Y-22020000D01*
X182270000Y-21994546D01*
X182270747Y-21954403D01*
X182273940Y-21928426D01*
X182281004Y-21910806D01*
X182293364Y-21895736D01*
X182294545Y-21894546D01*
X182327500Y-21874103D01*
X182364369Y-21872116D01*
X182401026Y-21888727D01*
X182403715Y-21890777D01*
X182430127Y-21911553D01*
X182463744Y-21890777D01*
X182490126Y-21875468D01*
X182503971Y-21871734D01*
X182509258Y-21879868D01*
G37*
G36*
X182462142Y-21736499D02*
G01*
X182522750Y-21761765D01*
X182573422Y-21800699D01*
X182612149Y-21850704D01*
X182636926Y-21909183D01*
X182645746Y-21973538D01*
X182636602Y-22041172D01*
X182636430Y-22041795D01*
X182609978Y-22104043D01*
X182570546Y-22153809D01*
X182521162Y-22190601D01*
X182464853Y-22213926D01*
X182417238Y-22221334D01*
X182404646Y-22223293D01*
X182343568Y-22218209D01*
X182284646Y-22198182D01*
X182230909Y-22162721D01*
X182187720Y-22114721D01*
X182156934Y-22055260D01*
X182144003Y-21993471D01*
X182145050Y-21974813D01*
X182199741Y-21974813D01*
X182205984Y-22030455D01*
X182224799Y-22080935D01*
X182256185Y-22121074D01*
X182256435Y-22121295D01*
X182304684Y-22152046D01*
X182359860Y-22168530D01*
X182417238Y-22170875D01*
X182472095Y-22159209D01*
X182519708Y-22133661D01*
X182541248Y-22113565D01*
X182572948Y-22062914D01*
X182588675Y-22004627D01*
X182587873Y-21943804D01*
X182569988Y-21885545D01*
X182566723Y-21879073D01*
X182531551Y-21832123D01*
X182485363Y-21799232D01*
X182431952Y-21781014D01*
X182375111Y-21778085D01*
X182318632Y-21791061D01*
X182266309Y-21820558D01*
X182256435Y-21828706D01*
X182224966Y-21868759D01*
X182206068Y-21919187D01*
X182199741Y-21974813D01*
X182145050Y-21974813D01*
X182147444Y-21932141D01*
X182165778Y-21874055D01*
X182197522Y-21821998D01*
X182241196Y-21778757D01*
X182295319Y-21747117D01*
X182358409Y-21729863D01*
X182393605Y-21727500D01*
X182462142Y-21736499D01*
G37*
G36*
X181380000Y-21923415D02*
G01*
X181538754Y-21938688D01*
X181687836Y-21970573D01*
X181829904Y-22019935D01*
X181967614Y-22087638D01*
X182060359Y-22144750D01*
X182189461Y-22242545D01*
X182304891Y-22354518D01*
X182405680Y-22479398D01*
X182490857Y-22615913D01*
X182559452Y-22762794D01*
X182584486Y-22831438D01*
X182591419Y-22851722D01*
X182597847Y-22870091D01*
X182603787Y-22887325D01*
X182609259Y-22904206D01*
X182614283Y-22921517D01*
X182618877Y-22940040D01*
X182623061Y-22960555D01*
X182626853Y-22983845D01*
X182630273Y-23010691D01*
X182633340Y-23041876D01*
X182636072Y-23078181D01*
X182638490Y-23120387D01*
X182640613Y-23169278D01*
X182642458Y-23225634D01*
X182644047Y-23290237D01*
X182645397Y-23363869D01*
X182646527Y-23447312D01*
X182647458Y-23541348D01*
X182648207Y-23646758D01*
X182648795Y-23764324D01*
X182649240Y-23894829D01*
X182649562Y-24039053D01*
X182649779Y-24197779D01*
X182649911Y-24371788D01*
X182649976Y-24561862D01*
X182649995Y-24768783D01*
X182649985Y-24993333D01*
X182649967Y-25236294D01*
X182649959Y-25498447D01*
X182649959Y-25507454D01*
X182650000Y-27889908D01*
X181607500Y-27892454D01*
X180569771Y-27894988D01*
X180565000Y-27895000D01*
X180562328Y-28147500D01*
X180559656Y-28400000D01*
X180658962Y-28400000D01*
X180758267Y-28400000D01*
X180706307Y-28453221D01*
X180656000Y-28515081D01*
X180611907Y-28588908D01*
X180578372Y-28666756D01*
X180565374Y-28711032D01*
X180555726Y-28771290D01*
X180551247Y-28843182D01*
X180551945Y-28919017D01*
X180557830Y-28991107D01*
X180564993Y-29035000D01*
X180596676Y-29138817D01*
X180645901Y-29234936D01*
X180711214Y-29321910D01*
X180791159Y-29398292D01*
X180884282Y-29462636D01*
X180989126Y-29513496D01*
X181075000Y-29542035D01*
X181108523Y-29550362D01*
X181141121Y-29556306D01*
X181177200Y-29560244D01*
X181221168Y-29562550D01*
X181277434Y-29563603D01*
X181330000Y-29563795D01*
X181418822Y-29562449D01*
X181492581Y-29557770D01*
X181556068Y-29548797D01*
X181614078Y-29534568D01*
X181671406Y-29514120D01*
X181732844Y-29486493D01*
X181745000Y-29480540D01*
X181847793Y-29419605D01*
X181934747Y-29346577D01*
X182005562Y-29261949D01*
X182059942Y-29166215D01*
X182097589Y-29059868D01*
X182118204Y-28943402D01*
X182122340Y-28855000D01*
X182116287Y-28753266D01*
X182097803Y-28664518D01*
X182065485Y-28585059D01*
X182017934Y-28511193D01*
X181971677Y-28457500D01*
X181916955Y-28400000D01*
X182283477Y-28400000D01*
X182650000Y-28400000D01*
X182648839Y-28682500D01*
X182648392Y-28756582D01*
X182647706Y-28824823D01*
X182646833Y-28884464D01*
X182645820Y-28932742D01*
X182644718Y-28966894D01*
X182643575Y-28984158D01*
X182643430Y-28985000D01*
X182639546Y-29004200D01*
X182633182Y-29036571D01*
X182625612Y-29075638D01*
X182624404Y-29081917D01*
X182594374Y-29202025D01*
X182549766Y-29322827D01*
X182504078Y-29420000D01*
X182423074Y-29557082D01*
X182326589Y-29682634D01*
X182216214Y-29795495D01*
X182093539Y-29894506D01*
X181960156Y-29978506D01*
X181817657Y-30046335D01*
X181667632Y-30096831D01*
X181537524Y-30124914D01*
X181456784Y-30134276D01*
X181364738Y-30138848D01*
X181269105Y-30138644D01*
X181177605Y-30133676D01*
X181099262Y-30124178D01*
X180943048Y-30088132D01*
X180794630Y-30034399D01*
X180655135Y-29964151D01*
X180525695Y-29878556D01*
X180407439Y-29778786D01*
X180301497Y-29666011D01*
X180208998Y-29541401D01*
X180131073Y-29406127D01*
X180068851Y-29261359D01*
X180023463Y-29108268D01*
X180000817Y-28986329D01*
X179999617Y-28969874D01*
X179998493Y-28938134D01*
X179997443Y-28890835D01*
X179996468Y-28827707D01*
X179995565Y-28748475D01*
X179994734Y-28652867D01*
X179993974Y-28540611D01*
X179993284Y-28411434D01*
X179992662Y-28265064D01*
X179992109Y-28101227D01*
X179991622Y-27919651D01*
X179991201Y-27720064D01*
X179990845Y-27502193D01*
X179990553Y-27265765D01*
X179990323Y-27010509D01*
X179990156Y-26736150D01*
X179990049Y-26442416D01*
X179990002Y-26129036D01*
X179989999Y-26033060D01*
X179989989Y-25743423D01*
X179989968Y-25473080D01*
X179989959Y-25350239D01*
X180560000Y-25350239D01*
X180560109Y-25425922D01*
X180560550Y-25484031D01*
X180561495Y-25526990D01*
X180563114Y-25557224D01*
X180565578Y-25577158D01*
X180569059Y-25589217D01*
X180573727Y-25595825D01*
X180577500Y-25598357D01*
X180590293Y-25602883D01*
X180620388Y-25612444D01*
X180665889Y-25626470D01*
X180724900Y-25644387D01*
X180795525Y-25665624D01*
X180875868Y-25689608D01*
X180964033Y-25715768D01*
X181058125Y-25743532D01*
X181080000Y-25749965D01*
X181174974Y-25777939D01*
X181264296Y-25804361D01*
X181346096Y-25828672D01*
X181418500Y-25850308D01*
X181479637Y-25868708D01*
X181527634Y-25883311D01*
X181560620Y-25893555D01*
X181576723Y-25898877D01*
X181577855Y-25899353D01*
X181571020Y-25903353D01*
X181546666Y-25912345D01*
X181506497Y-25925796D01*
X181452216Y-25943172D01*
X181385525Y-25963940D01*
X181308128Y-25987567D01*
X181221727Y-26013518D01*
X181128025Y-26041262D01*
X181077855Y-26055964D01*
X180565000Y-26205735D01*
X180565000Y-26449174D01*
X180565000Y-26692613D01*
X181072127Y-26839267D01*
X181169022Y-26867351D01*
X181260026Y-26893849D01*
X181343344Y-26918229D01*
X181417184Y-26939963D01*
X181479752Y-26958518D01*
X181529254Y-26973365D01*
X181563896Y-26983973D01*
X181581885Y-26989810D01*
X181584056Y-26990723D01*
X181575678Y-26994369D01*
X181549840Y-27003085D01*
X181508279Y-27016339D01*
X181452733Y-27033596D01*
X181384940Y-27054325D01*
X181306637Y-27077991D01*
X181219564Y-27104061D01*
X181125457Y-27132002D01*
X181076928Y-27146326D01*
X180565000Y-27297127D01*
X180562331Y-27553564D01*
X180561799Y-27642226D01*
X180562230Y-27712578D01*
X180563611Y-27764218D01*
X180565932Y-27796745D01*
X180569180Y-27809756D01*
X180569771Y-27810000D01*
X180580382Y-27806672D01*
X180608060Y-27797102D01*
X180651088Y-27781913D01*
X180707748Y-27761728D01*
X180776323Y-27737172D01*
X180855094Y-27708866D01*
X180942345Y-27677433D01*
X181036358Y-27643498D01*
X181135414Y-27607683D01*
X181237797Y-27570611D01*
X181341789Y-27532906D01*
X181445672Y-27495190D01*
X181547729Y-27458086D01*
X181646242Y-27422218D01*
X181739494Y-27388209D01*
X181825766Y-27356682D01*
X181903342Y-27328260D01*
X181970503Y-27303566D01*
X182025532Y-27283224D01*
X182066712Y-27267856D01*
X182092324Y-27258085D01*
X182100551Y-27254660D01*
X182103386Y-27243177D01*
X182105823Y-27213943D01*
X182107778Y-27169202D01*
X182109166Y-27111200D01*
X182109902Y-27042182D01*
X182110000Y-27003900D01*
X182110000Y-26758980D01*
X182077500Y-26745648D01*
X182061351Y-26739975D01*
X182028190Y-26729095D01*
X181980121Y-26713672D01*
X181919249Y-26694373D01*
X181847679Y-26671862D01*
X181767518Y-26646805D01*
X181680869Y-26619866D01*
X181615000Y-26599480D01*
X181526069Y-26571923D01*
X181443028Y-26546028D01*
X181367827Y-26522416D01*
X181302419Y-26501706D01*
X181248756Y-26484520D01*
X181208791Y-26471479D01*
X181184475Y-26463201D01*
X181177632Y-26460455D01*
X181185382Y-26456385D01*
X181210452Y-26447123D01*
X181251019Y-26433261D01*
X181305259Y-26415394D01*
X181371348Y-26394116D01*
X181447462Y-26370018D01*
X181531776Y-26343695D01*
X181622468Y-26315739D01*
X181622632Y-26315689D01*
X181714357Y-26287517D01*
X181800580Y-26260894D01*
X181879342Y-26236435D01*
X181948682Y-26214755D01*
X182006642Y-26196469D01*
X182051262Y-26182193D01*
X182080582Y-26172541D01*
X182092500Y-26168205D01*
X182097984Y-26163943D01*
X182102195Y-26155847D01*
X182105298Y-26141522D01*
X182107459Y-26118569D01*
X182108843Y-26084591D01*
X182109616Y-26037192D01*
X182109945Y-25973975D01*
X182110000Y-25915239D01*
X182109720Y-25833144D01*
X182108827Y-25769354D01*
X182107238Y-25722179D01*
X182104870Y-25689930D01*
X182101643Y-25670919D01*
X182097752Y-25663612D01*
X182085209Y-25658184D01*
X182055844Y-25646721D01*
X182011365Y-25629842D01*
X181953482Y-25608171D01*
X181883903Y-25582328D01*
X181804338Y-25552935D01*
X181716495Y-25520614D01*
X181671430Y-25504085D01*
X181622083Y-25485986D01*
X181522812Y-25449674D01*
X181420390Y-25412298D01*
X181316526Y-25374481D01*
X181212929Y-25336844D01*
X181111308Y-25300009D01*
X181013372Y-25264597D01*
X180920830Y-25231230D01*
X180835391Y-25200531D01*
X180758764Y-25173119D01*
X180692657Y-25149618D01*
X180638780Y-25130649D01*
X180598841Y-25116833D01*
X180574550Y-25108792D01*
X180567500Y-25106948D01*
X180565401Y-25117712D01*
X180563529Y-25145673D01*
X180561970Y-25188027D01*
X180560811Y-25241971D01*
X180560136Y-25304703D01*
X180560000Y-25350239D01*
X179989959Y-25350239D01*
X179989950Y-25221327D01*
X179989950Y-24987460D01*
X179989983Y-24770773D01*
X179990062Y-24570562D01*
X179990085Y-24540000D01*
X180559656Y-24540000D01*
X180562328Y-24792500D01*
X180565000Y-25045000D01*
X181325000Y-25047586D01*
X181446700Y-25047938D01*
X181562700Y-25048153D01*
X181671430Y-25048236D01*
X181771322Y-25048191D01*
X181860804Y-25048023D01*
X181938308Y-25047736D01*
X182002265Y-25047334D01*
X182051104Y-25046822D01*
X182083256Y-25046204D01*
X182097152Y-25045485D01*
X182097500Y-25045400D01*
X182101582Y-25039010D01*
X182104745Y-25022126D01*
X182107079Y-24992942D01*
X182108671Y-24949653D01*
X182109610Y-24890452D01*
X182109984Y-24813534D01*
X182110000Y-24790314D01*
X182110000Y-24540000D01*
X181334828Y-24540000D01*
X180559656Y-24540000D01*
X179990085Y-24540000D01*
X179990162Y-24440000D01*
X180559656Y-24440000D01*
X181335000Y-24440000D01*
X182110343Y-24440000D01*
X182107671Y-24187500D01*
X182105000Y-23935000D01*
X181348709Y-23935000D01*
X181335000Y-23935000D01*
X180565000Y-23935000D01*
X180562328Y-24187500D01*
X180559656Y-24440000D01*
X179990162Y-24440000D01*
X179990203Y-24386121D01*
X179990419Y-24216745D01*
X179990726Y-24061731D01*
X179991138Y-23920372D01*
X179991668Y-23791964D01*
X179992333Y-23675802D01*
X179993145Y-23571180D01*
X179994121Y-23477395D01*
X179995273Y-23393742D01*
X179996617Y-23319514D01*
X179998167Y-23254008D01*
X179999937Y-23196518D01*
X180001942Y-23146340D01*
X180004197Y-23102768D01*
X180006716Y-23065098D01*
X180007661Y-23054121D01*
X180549999Y-23054121D01*
X180558529Y-23188001D01*
X180583773Y-23311806D01*
X180625212Y-23424830D01*
X180682328Y-23526371D01*
X180754601Y-23615722D01*
X180841513Y-23692182D01*
X180942545Y-23755044D01*
X181057178Y-23803605D01*
X181115000Y-23821125D01*
X181182485Y-23834211D01*
X181262595Y-23841856D01*
X181348709Y-23844058D01*
X181434206Y-23840812D01*
X181512463Y-23832117D01*
X181565000Y-23821343D01*
X181669982Y-23786757D01*
X181761495Y-23741313D01*
X181844341Y-23682280D01*
X181900366Y-23630790D01*
X181972521Y-23549157D01*
X182028940Y-23463945D01*
X182070703Y-23372344D01*
X182098891Y-23271547D01*
X182114582Y-23158743D01*
X182118823Y-23062500D01*
X182120000Y-22950000D01*
X181911677Y-22950000D01*
X181703354Y-22950000D01*
X181707798Y-23003585D01*
X181705265Y-23079896D01*
X181685232Y-23148130D01*
X181648947Y-23207182D01*
X181597656Y-23255946D01*
X181532605Y-23293314D01*
X181455042Y-23318180D01*
X181366213Y-23329437D01*
X181339999Y-23330000D01*
X181245490Y-23322743D01*
X181163179Y-23301247D01*
X181093932Y-23265928D01*
X181038614Y-23217201D01*
X181005168Y-23169206D01*
X180989747Y-23138676D01*
X180980718Y-23111705D01*
X180976418Y-23080724D01*
X180975187Y-23038168D01*
X180975168Y-23032543D01*
X180975000Y-22950086D01*
X180762500Y-22950043D01*
X180550000Y-22950000D01*
X180549999Y-23054121D01*
X180007661Y-23054121D01*
X180009513Y-23032625D01*
X180012603Y-23004644D01*
X180016000Y-22980450D01*
X180019719Y-22959338D01*
X180023774Y-22940603D01*
X180028180Y-22923540D01*
X180032951Y-22907445D01*
X180038101Y-22891612D01*
X180043646Y-22875336D01*
X180049599Y-22857914D01*
X180055535Y-22840000D01*
X180114389Y-22689551D01*
X180189358Y-22549850D01*
X180279154Y-22421786D01*
X180382487Y-22306254D01*
X180498069Y-22204143D01*
X180624613Y-22116346D01*
X180760830Y-22043754D01*
X180905430Y-21987259D01*
X181057127Y-21947752D01*
X181214631Y-21926126D01*
X181376654Y-21923271D01*
X181380000Y-21923415D01*
G37*
D15*
%TO.C,D4*%
X257765000Y-57765000D02*
X257765000Y-60050000D01*
X259235000Y-57765000D02*
X257765000Y-57765000D01*
X259235000Y-60050000D02*
X259235000Y-57765000D01*
%TO.C,C13*%
X180609420Y-53490000D02*
X180890580Y-53490000D01*
X180609420Y-54510000D02*
X180890580Y-54510000D01*
%TO.C,R11*%
X256227500Y-59012742D02*
X256227500Y-59487258D01*
X257272500Y-59012742D02*
X257272500Y-59487258D01*
%TO.C,R29*%
X255227500Y-39487258D02*
X255227500Y-39012742D01*
X256272500Y-39487258D02*
X256272500Y-39012742D01*
D11*
%TO.C,SW1*%
X206950000Y-22010000D02*
X213050000Y-22010000D01*
X206950000Y-28610000D02*
X206950000Y-22010000D01*
X213050000Y-22010000D02*
X213050000Y-28610000D01*
X213050000Y-28610000D02*
X206950000Y-28610000D01*
D16*
X211530000Y-25310000D02*
G75*
G02*
X208470000Y-25310000I-1530000J0D01*
G01*
X208470000Y-25310000D02*
G75*
G02*
X211530000Y-25310000I1530000J0D01*
G01*
D11*
X213740000Y-28870000D02*
G75*
G02*
X213380000Y-28870000I-180000J0D01*
G01*
X213380000Y-28870000D02*
G75*
G02*
X213740000Y-28870000I180000J0D01*
G01*
D15*
%TO.C,U11*%
X179305000Y-59000000D02*
X179305000Y-57050000D01*
X179305000Y-59000000D02*
X179305000Y-60950000D01*
X189425000Y-59000000D02*
X189425000Y-57050000D01*
X189425000Y-59000000D02*
X189425000Y-60950000D01*
X179360000Y-61700000D02*
X179030000Y-61940000D01*
X179030000Y-61460000D01*
X179360000Y-61700000D01*
G36*
X179360000Y-61700000D02*
G01*
X179030000Y-61940000D01*
X179030000Y-61460000D01*
X179360000Y-61700000D01*
G37*
%TO.C,R5*%
X191977500Y-31262742D02*
X191977500Y-31737258D01*
X193022500Y-31262742D02*
X193022500Y-31737258D01*
%TO.C,Q2*%
X46255000Y-50600000D02*
X44955000Y-50600000D01*
X46255000Y-52400000D02*
X44955000Y-52400000D01*
D11*
X44430000Y-50990000D02*
G75*
G02*
X44280000Y-50990000I-75000J0D01*
G01*
X44280000Y-50990000D02*
G75*
G02*
X44430000Y-50990000I75000J0D01*
G01*
D15*
%TO.C,U9*%
X205690000Y-59000000D02*
X205690000Y-57050000D01*
X205690000Y-59000000D02*
X205690000Y-60950000D01*
X215810000Y-59000000D02*
X215810000Y-57050000D01*
X215810000Y-59000000D02*
X215810000Y-60950000D01*
X205745000Y-61700000D02*
X205415000Y-61940000D01*
X205415000Y-61460000D01*
X205745000Y-61700000D01*
G36*
X205745000Y-61700000D02*
G01*
X205415000Y-61940000D01*
X205415000Y-61460000D01*
X205745000Y-61700000D01*
G37*
D11*
%TO.C,SW2*%
X246950000Y-22450000D02*
X253050000Y-22450000D01*
X246950000Y-29050000D02*
X246950000Y-22450000D01*
X253050000Y-22450000D02*
X253050000Y-29050000D01*
X253050000Y-29050000D02*
X246950000Y-29050000D01*
X246620000Y-22190000D02*
G75*
G02*
X246260000Y-22190000I-180000J0D01*
G01*
X246260000Y-22190000D02*
G75*
G02*
X246620000Y-22190000I180000J0D01*
G01*
D16*
X251530000Y-25750000D02*
G75*
G02*
X248470000Y-25750000I-1530000J0D01*
G01*
X248470000Y-25750000D02*
G75*
G02*
X251530000Y-25750000I1530000J0D01*
G01*
%TO.C,BUZ1*%
X32110000Y-38490000D02*
X32110000Y-44520000D01*
X32360000Y-34520000D02*
X32360000Y-34520000D01*
X32360000Y-34520000D02*
X32870000Y-34010000D01*
X32360000Y-48490000D02*
X32360000Y-49000000D01*
X32360000Y-49000000D02*
X46840000Y-49000000D01*
X32870000Y-34010000D02*
X46330000Y-34010000D01*
X46330000Y-34010000D02*
X46840000Y-34520000D01*
X46840000Y-49000000D02*
X46840000Y-48490000D01*
X47100000Y-44520000D02*
X47100000Y-38490000D01*
D13*
X37170000Y-46200000D02*
G75*
G02*
X34830000Y-46200000I-1170000J0D01*
G01*
X34830000Y-46200000D02*
G75*
G02*
X37170000Y-46200000I1170000J0D01*
G01*
D15*
%TO.C,C6*%
X218740000Y-30359420D02*
X218740000Y-30640580D01*
X219760000Y-30359420D02*
X219760000Y-30640580D01*
%TO.C,R32*%
X251727500Y-39487258D02*
X251727500Y-39012742D01*
X252772500Y-39487258D02*
X252772500Y-39012742D01*
%TO.C,C10*%
X219359420Y-53740000D02*
X219640580Y-53740000D01*
X219359420Y-54760000D02*
X219640580Y-54760000D01*
%TO.C,U3*%
D12*
X191080000Y-34070000D02*
X194080000Y-34070000D01*
X194080000Y-44470000D01*
X191080000Y-44470000D01*
X191080000Y-34070000D01*
D15*
%TO.C,R14*%
X42227500Y-51512742D02*
X42227500Y-51987258D01*
X43272500Y-51512742D02*
X43272500Y-51987258D01*
%TO.C,C12*%
X194359420Y-53740000D02*
X194640580Y-53740000D01*
X194359420Y-54760000D02*
X194640580Y-54760000D01*
%TO.C,R33*%
X249977500Y-39487258D02*
X249977500Y-39012742D01*
X251022500Y-39487258D02*
X251022500Y-39012742D01*
%TO.C,R31*%
X248227500Y-39487258D02*
X248227500Y-39012742D01*
X249272500Y-39487258D02*
X249272500Y-39012742D01*
D13*
%TO.C,D6*%
X45850000Y-30350000D02*
X45850000Y-31550000D01*
X46650000Y-29875000D02*
X46650000Y-31550000D01*
D17*
%TO.C,QWIIC1*%
X183800000Y-26275000D02*
X183800000Y-24000000D01*
X184600000Y-26275000D02*
X183800000Y-26275000D01*
X188600000Y-22025000D02*
X185000000Y-22025000D01*
X189000000Y-26275000D02*
X189800000Y-26275000D01*
X189800000Y-26275000D02*
X189800000Y-24000000D01*
D19*
X189350000Y-26985000D02*
G75*
G02*
X189150000Y-26985000I-100000J0D01*
G01*
X189150000Y-26985000D02*
G75*
G02*
X189350000Y-26985000I100000J0D01*
G01*
D15*
%TO.C,J4*%
X174170000Y-31045000D02*
X175500000Y-31045000D01*
X174170000Y-32375000D02*
X174170000Y-31045000D01*
X174170000Y-33645000D02*
X174170000Y-51485000D01*
X174170000Y-33645000D02*
X176830000Y-33645000D01*
X174170000Y-51485000D02*
X176830000Y-51485000D01*
X176830000Y-33645000D02*
X176830000Y-51485000D01*
D12*
%TO.C,J2*%
X247550000Y-45650000D02*
X247550000Y-55600000D01*
X247550000Y-55600000D02*
X248250000Y-55600000D01*
X252250000Y-55600000D02*
X256750000Y-55600000D01*
X256750000Y-43650000D02*
X251750000Y-43650000D01*
X260275000Y-46275000D02*
X260275000Y-46275000D01*
X260375000Y-46275000D02*
X260375000Y-46275000D01*
X260275000Y-46275000D02*
G75*
G02*
X260375000Y-46275000I50000J0D01*
G01*
X260375000Y-46275000D02*
G75*
G02*
X260275000Y-46275000I-50000J0D01*
G01*
D15*
%TO.C,C8*%
X231359420Y-53240000D02*
X231640580Y-53240000D01*
X231359420Y-54260000D02*
X231640580Y-54260000D01*
%TO.C,R12*%
X195227500Y-31737258D02*
X195227500Y-31262742D01*
X196272500Y-31737258D02*
X196272500Y-31262742D01*
%TO.C,C3*%
X219240000Y-33884420D02*
X219240000Y-34165580D01*
X220260000Y-33884420D02*
X220260000Y-34165580D01*
%TO.C,U4*%
X222675000Y-21750000D02*
X222675000Y-28500000D01*
X222675000Y-21750000D02*
X240675000Y-21750000D01*
X222675000Y-46500000D02*
X222675000Y-47250000D01*
X222675000Y-47250000D02*
X223675000Y-47250000D01*
X240675000Y-21750000D02*
X240675000Y-28500000D01*
X240675000Y-27690000D02*
X222675000Y-27690000D01*
X240675000Y-46500000D02*
X240675000Y-47250000D01*
X240675000Y-47250000D02*
X239675000Y-47250000D01*
%TO.C,U8*%
X218035000Y-58975000D02*
X218035000Y-57025000D01*
X218035000Y-58975000D02*
X218035000Y-60925000D01*
X228155000Y-58975000D02*
X228155000Y-57025000D01*
X228155000Y-58975000D02*
X228155000Y-60925000D01*
X218090000Y-61675000D02*
X217760000Y-61915000D01*
X217760000Y-61435000D01*
X218090000Y-61675000D01*
G36*
X218090000Y-61675000D02*
G01*
X217760000Y-61915000D01*
X217760000Y-61435000D01*
X218090000Y-61675000D01*
G37*
D13*
%TO.C,U2*%
X220695000Y-27800000D02*
G75*
G02*
X220495000Y-27800000I-100000J0D01*
G01*
X220495000Y-27800000D02*
G75*
G02*
X220695000Y-27800000I100000J0D01*
G01*
D15*
%TO.C,R4*%
X217477500Y-33787742D02*
X217477500Y-34262258D01*
X218522500Y-33787742D02*
X218522500Y-34262258D01*
%TO.C,U7*%
X230115000Y-58775000D02*
X230115000Y-56825000D01*
X230115000Y-58775000D02*
X230115000Y-60725000D01*
X240235000Y-58775000D02*
X240235000Y-56825000D01*
X240235000Y-58775000D02*
X240235000Y-60725000D01*
X230170000Y-61475000D02*
X229840000Y-61715000D01*
X229840000Y-61235000D01*
X230170000Y-61475000D01*
G36*
X230170000Y-61475000D02*
G01*
X229840000Y-61715000D01*
X229840000Y-61235000D01*
X230170000Y-61475000D01*
G37*
%TO.C,U10*%
X193015000Y-59025000D02*
X193015000Y-57075000D01*
X193015000Y-59025000D02*
X193015000Y-60975000D01*
X203135000Y-59025000D02*
X203135000Y-57075000D01*
X203135000Y-59025000D02*
X203135000Y-60975000D01*
X193070000Y-61725000D02*
X192740000Y-61965000D01*
X192740000Y-61485000D01*
X193070000Y-61725000D01*
G36*
X193070000Y-61725000D02*
G01*
X192740000Y-61965000D01*
X192740000Y-61485000D01*
X193070000Y-61725000D01*
G37*
%TO.C,R28*%
X256977500Y-39487258D02*
X256977500Y-39012742D01*
X258022500Y-39487258D02*
X258022500Y-39012742D01*
%TD*%
M02*
