M48
; DRILL file {KiCad 8.0.3} date 2024-09-07T18:55:02+0100
; FORMAT={-:-/ absolute / inch / decimal}
; #@! TF.CreationDate,2024-09-07T18:55:02+01:00
; #@! TF.GenerationSoftware,Kicad,Pcbnew,8.0.3
; #@! TF.FileFunction,Plated,1,4,PTH
FMAT,2
INCH
; #@! TA.AperFunction,Plated,PTH,ViaDrill
T1C0.0118
; #@! TA.AperFunction,Plated,PTH,ComponentDrill
T2C0.0236
; #@! TA.AperFunction,Plated,PTH,ComponentDrill
T3C0.0276
; #@! TA.AperFunction,Plated,PTH,ComponentDrill
T4C0.0335
; #@! TA.AperFunction,Plated,PTH,ComponentDrill
T5C0.0394
; #@! TA.AperFunction,Plated,PTH,ComponentDrill
T6C0.0433
; #@! TA.AperFunction,Plated,PTH,ComponentDrill
T7C0.0630
%
G90
G05
T1
X0.94Y-1.37
X1.0031Y-3.289
X1.0031Y-3.4858
X1.0031Y-3.6827
X1.0031Y-3.8795
X1.0031Y-4.0764
X1.0031Y-4.2732
X1.0031Y-4.4701
X1.0031Y-4.6669
X1.0031Y-4.8638
X1.0031Y-5.0606
X1.0031Y-5.2575
X1.0031Y-5.4543
X1.0031Y-5.6512
X1.0031Y-5.848
X1.0031Y-6.0449
X1.0031Y-6.2417
X1.0031Y-6.4386
X1.0031Y-6.6354
X1.0063Y-1.6268
X1.0063Y-1.7268
X1.0063Y-1.8268
X1.0063Y-1.9268
X1.0063Y-2.0268
X1.0063Y-2.1268
X1.0063Y-2.2268
X1.0063Y-2.3268
X1.0063Y-2.4268
X1.0063Y-2.5268
X1.0063Y-2.6268
X1.0063Y-2.7268
X1.0063Y-2.8268
X1.0063Y-2.9268
X1.0063Y-3.0268
X1.08Y-1.32
X1.1063Y-1.6268
X1.1063Y-1.7268
X1.1063Y-1.8268
X1.1063Y-1.9268
X1.1063Y-2.0268
X1.1063Y-2.1268
X1.1063Y-2.2268
X1.1063Y-2.3268
X1.1063Y-2.4268
X1.1063Y-2.5268
X1.1063Y-2.6268
X1.1063Y-3.0268
X1.12Y-2.75
X1.12Y-2.87
X1.2Y-3.289
X1.2Y-4.0764
X1.2Y-4.2732
X1.2Y-4.4701
X1.2Y-4.6669
X1.2Y-4.8638
X1.2Y-5.0606
X1.2Y-5.2575
X1.2Y-5.4543
X1.2Y-5.6512
X1.2Y-6.4386
X1.2Y-6.6354
X1.2Y-6.8323
X1.2063Y-1.6268
X1.2063Y-1.7268
X1.2063Y-1.8268
X1.2063Y-1.9268
X1.2063Y-2.0268
X1.2063Y-2.1268
X1.2063Y-2.2268
X1.2063Y-2.3268
X1.2063Y-2.4268
X1.2063Y-2.5268
X1.2063Y-2.6268
X1.2063Y-3.0268
X1.22Y-2.75
X1.22Y-2.87
X1.3063Y-1.6268
X1.3063Y-1.7268
X1.3063Y-1.8268
X1.3063Y-2.1268
X1.3063Y-2.2268
X1.3063Y-2.3268
X1.3063Y-2.4268
X1.3063Y-2.5268
X1.3063Y-2.6268
X1.3063Y-3.0268
X1.32Y-1.93
X1.32Y-2.0268
X1.33Y-1.38
X1.35Y-2.75
X1.35Y-2.87
X1.3969Y-4.0764
X1.3969Y-4.2732
X1.3969Y-4.4701
X1.3969Y-4.6669
X1.3969Y-4.8638
X1.3969Y-5.0606
X1.3969Y-5.2575
X1.3969Y-6.6354
X1.3969Y-6.8323
X1.4063Y-1.7268
X1.4063Y-1.8268
X1.4063Y-1.9268
X1.4063Y-2.0268
X1.4063Y-2.1268
X1.4063Y-2.2268
X1.4063Y-2.3268
X1.4063Y-2.4268
X1.4063Y-2.5268
X1.4063Y-2.6268
X1.4063Y-3.0268
X1.44Y-1.63
X1.46Y-2.69
X1.46Y-2.81
X1.46Y-2.93
X1.485Y-5.8047
X1.5063Y-1.9268
X1.5063Y-2.0268
X1.5063Y-2.2268
X1.5063Y-2.3268
X1.5063Y-2.4268
X1.5063Y-2.5268
X1.5063Y-2.6268
X1.5063Y-3.0268
X1.51Y-1.45
X1.52Y-1.83
X1.52Y-2.1268
X1.57Y-2.76
X1.5792Y-1.38
X1.59Y-1.45
X1.5937Y-3.289
X1.5937Y-4.0764
X1.5937Y-4.8638
X1.5937Y-5.0606
X1.5937Y-5.4543
X1.5937Y-5.6512
X1.5937Y-6.6354
X1.5937Y-6.8323
X1.6063Y-1.8268
X1.6063Y-2.1268
X1.6063Y-2.2268
X1.6063Y-2.3268
X1.6063Y-2.4268
X1.6063Y-2.5268
X1.6063Y-2.6268
X1.6063Y-2.9268
X1.6063Y-3.0268
X1.62Y-1.63
X1.64Y-1.92
X1.65Y-2.0268
X1.6626Y-3.4157
X1.7063Y-1.6268
X1.7063Y-2.2268
X1.7063Y-2.3268
X1.7063Y-2.4268
X1.7063Y-2.5268
X1.7063Y-2.6268
X1.7063Y-2.7268
X1.7063Y-2.9268
X1.7063Y-3.0268
X1.78Y-2.73
X1.79Y-2.9268
X1.7906Y-5.6512
X1.7906Y-6.6354
X1.7906Y-6.8323
X1.7959Y-2.8258
X1.7961Y-4.1791
X1.8063Y-2.2268
X1.8063Y-2.3268
X1.8063Y-2.4268
X1.8063Y-2.5268
X1.8063Y-2.6268
X1.8063Y-3.0268
X1.83Y-1.61
X1.9063Y-2.1268
X1.9063Y-2.2268
X1.9063Y-2.3268
X1.9063Y-2.4268
X1.9063Y-2.5268
X1.9063Y-2.6268
X1.9063Y-2.75
X1.9063Y-3.0268
X1.91Y-2.88
X1.92Y-1.38
X1.92Y-1.8031
X1.95Y-1.61
X1.9833Y-1.3787
X1.9874Y-6.4386
X1.9874Y-6.6354
X1.9874Y-6.8323
X2.0063Y-2.1268
X2.0063Y-2.2268
X2.0063Y-2.3268
X2.0063Y-2.4268
X2.0063Y-2.5268
X2.0063Y-2.6268
X2.0063Y-2.8268
X2.02Y-2.69
X2.02Y-2.98
X2.0681Y-1.7417
X2.08Y-1.51
X2.1063Y-2.2268
X2.1063Y-2.3268
X2.1063Y-2.4268
X2.1063Y-2.5268
X2.1063Y-2.6268
X2.1063Y-2.7268
X2.11Y-2.9
X2.15Y-2.13
X2.1532Y-1.8268
X2.1843Y-3.289
X2.1843Y-4.0764
X2.1843Y-6.6354
X2.1843Y-6.8323
X2.1885Y-2.2357
X2.2063Y-2.3268
X2.2063Y-2.4268
X2.2063Y-2.5268
X2.2063Y-2.6268
X2.2063Y-2.7268
X2.2141Y-1.3816
X2.2386Y-5.0276
X2.26Y-2.13
X2.298Y-2.1946
X2.3063Y-2.4268
X2.3063Y-2.5268
X2.3063Y-2.6268
X2.3414Y-1.3452
X2.36Y-1.59
X2.36Y-2.24
X2.3811Y-4.0764
X2.3811Y-4.8638
X2.3811Y-5.6512
X2.3811Y-6.6354
X2.3811Y-6.8323
X2.39Y-3.17
X2.4063Y-2.5268
X2.4063Y-3.0268
X2.43Y-2.02
X2.4504Y-3.4044
X2.4567Y-5.8083
X2.4634Y-1.4177
X2.4634Y-1.8422
X2.5063Y-2.9268
X2.5063Y-3.0268
X2.5142Y-1.6299
X2.5204Y-1.9839
X2.5252Y-1.5114
X2.53Y-1.75
X2.578Y-4.0764
X2.578Y-5.6512
X2.578Y-6.6354
X2.578Y-6.8323
X2.6063Y-2.1268
X2.6063Y-2.4268
X2.6063Y-2.8268
X2.6063Y-3.0268
X2.62Y-1.81
X2.6382Y-4.176
X2.7063Y-2.4268
X2.7063Y-2.7268
X2.7063Y-2.9268
X2.7063Y-3.0268
X2.7213Y-1.82
X2.724Y-2.2291
X2.7748Y-6.4386
X2.7748Y-6.6354
X2.7748Y-6.8323
X2.8Y-2.86
X2.8063Y-1.7268
X2.8063Y-2.3268
X2.8063Y-2.4268
X2.8063Y-2.7268
X2.9063Y-2.3268
X2.9063Y-2.4268
X2.9063Y-2.7268
X2.9248Y-1.9118
X2.9717Y-6.4386
X2.9717Y-6.6354
X2.9717Y-6.8323
X2.9953Y-5.0067
X3.0063Y-2.0268
X3.0063Y-2.3268
X3.0063Y-2.4268
X3.0063Y-2.7268
X3.07Y-2.21
X3.1063Y-2.0268
X3.1063Y-2.1268
X3.1063Y-2.3268
X3.1063Y-2.4268
X3.1685Y-4.0764
X3.1685Y-4.8638
X3.1685Y-5.6512
X3.1685Y-6.6354
X3.1685Y-6.8323
X3.2063Y-2.1268
X3.2063Y-2.3268
X3.2063Y-2.4268
X3.2898Y-5.8114
X3.3063Y-2.3268
X3.3063Y-2.4268
X3.3063Y-3.0268
X3.3441Y-1.5568
X3.3508Y-3.4453
X3.3654Y-3.289
X3.3654Y-4.0764
X3.3654Y-5.6512
X3.3654Y-6.6354
X3.3654Y-6.8323
X3.4063Y-2.3268
X3.4063Y-2.4268
X3.4063Y-3.0268
X3.4606Y-4.1752
X3.5063Y-1.9268
X3.5063Y-2.3268
X3.5063Y-2.4268
X3.5063Y-2.8268
X3.5063Y-3.0268
X3.55Y-1.34
X3.55Y-1.51
X3.5622Y-6.6354
X3.5622Y-6.8323
X3.6063Y-1.9268
X3.6063Y-2.3268
X3.6063Y-2.4268
X3.6063Y-3.0268
X3.62Y-2.76
X3.62Y-2.88
X3.7Y-1.68
X3.7063Y-1.3268
X3.7063Y-2.3268
X3.7063Y-2.4268
X3.72Y-2.7268
X3.72Y-2.8268
X3.72Y-2.9268
X3.7591Y-6.4386
X3.7591Y-6.6354
X3.7591Y-6.8323
X3.8063Y-2.3268
X3.8063Y-2.4268
X3.8063Y-2.7268
X3.8063Y-2.8268
X3.85Y-1.6
X3.86Y-1.89
X3.8638Y-5.0264
X3.89Y-1.45
X3.9063Y-2.3268
X3.9063Y-2.4268
X3.9063Y-2.7268
X3.913Y-1.5157
X3.9559Y-4.0764
X3.9559Y-4.8638
X3.9559Y-5.6512
X3.9559Y-6.6354
X3.9559Y-6.8323
X3.9811Y-1.8469
X4.0063Y-1.3268
X4.0063Y-1.6268
X4.0063Y-1.8232
X4.0063Y-2.3268
X4.0063Y-2.4268
X4.0673Y-5.8067
X4.0937Y-3.4059
X4.1063Y-1.3268
X4.1063Y-1.7268
X4.1063Y-2.4268
X4.1528Y-4.0764
X4.1528Y-5.6512
X4.1528Y-6.6354
X4.1528Y-6.8323
X4.1654Y-2.1913
X4.2063Y-1.3268
X4.2063Y-1.5268
X4.2063Y-1.9268
X4.2063Y-2.4268
X4.2063Y-3.0268
X4.25Y-2.15
X4.2555Y-4.1791
X4.28Y-1.77
X4.3063Y-1.3268
X4.3063Y-1.5268
X4.3063Y-1.6268
X4.3063Y-1.9268
X4.3063Y-2.4268
X4.3063Y-2.9268
X4.3063Y-3.0268
X4.3496Y-6.6354
X4.3496Y-6.8323
X4.4063Y-1.3268
X4.4063Y-1.5268
X4.4063Y-1.6268
X4.4063Y-1.9268
X4.4063Y-2.4268
X4.4063Y-2.8268
X4.4063Y-2.9268
X4.5063Y-1.3268
X4.5063Y-1.5268
X4.5063Y-1.6268
X4.5063Y-1.9268
X4.5063Y-2.4268
X4.5063Y-2.8268
X4.5465Y-3.289
X4.5465Y-5.848
X4.5465Y-6.4386
X4.5465Y-6.6354
X4.5465Y-6.8323
X4.6063Y-1.3268
X4.6063Y-1.5268
X4.6063Y-1.6268
X4.6063Y-1.9268
X4.6063Y-2.4268
X4.7004Y-5.0346
X4.7063Y-1.3268
X4.7063Y-1.5268
X4.7063Y-1.6268
X4.7063Y-1.9268
X4.7063Y-2.4268
X4.7433Y-4.8638
X4.7433Y-6.6354
X4.7433Y-6.8323
X4.8063Y-1.3268
X4.8063Y-1.5268
X4.8063Y-1.6268
X4.8063Y-1.9268
X4.8063Y-2.4268
X4.8063Y-3.0268
X4.85Y-1.77
X4.9063Y-1.3268
X4.9063Y-1.5268
X4.9063Y-1.6268
X4.9063Y-1.9268
X4.9063Y-2.4268
X4.9063Y-2.9268
X4.9063Y-3.0268
X4.9106Y-3.3961
X4.92Y-2.15
X4.9306Y-5.8088
X4.9402Y-4.0764
X4.9402Y-6.6354
X4.9402Y-6.8323
X5.0Y-5.68
X5.0063Y-1.3268
X5.0063Y-1.5268
X5.0063Y-1.6268
X5.0063Y-1.9268
X5.0063Y-2.4268
X5.0063Y-2.9268
X5.0063Y-3.0268
X5.1063Y-1.3268
X5.1063Y-1.5268
X5.1063Y-1.6268
X5.1063Y-1.9268
X5.1063Y-2.4268
X5.1063Y-2.9268
X5.1063Y-3.0268
X5.137Y-6.6354
X5.137Y-6.8323
X5.2063Y-1.3268
X5.2063Y-1.5268
X5.2063Y-1.6268
X5.2063Y-1.9268
X5.2063Y-2.4268
X5.2063Y-2.9268
X5.2417Y-4.1941
X5.3063Y-1.3268
X5.3063Y-1.5268
X5.3063Y-1.6268
X5.3063Y-1.9268
X5.3063Y-2.4268
X5.3339Y-3.289
X5.3339Y-4.0764
X5.3339Y-6.4386
X5.3339Y-6.6354
X5.3339Y-6.8323
X5.4063Y-1.3268
X5.4063Y-1.5268
X5.4063Y-1.6268
X5.4063Y-1.9268
X5.4063Y-2.4268
X5.45Y-2.15
X5.4598Y-5.0073
X5.5063Y-1.3268
X5.5063Y-1.5268
X5.5063Y-1.6268
X5.5063Y-1.9268
X5.5063Y-2.4268
X5.5307Y-3.0921
X5.5307Y-4.0764
X5.5307Y-6.6354
X5.5307Y-6.8323
X5.57Y-2.85
X5.5848Y-5.839
X5.6063Y-1.3268
X5.6063Y-1.5268
X5.6063Y-1.6268
X5.6063Y-1.9268
X5.6063Y-2.4268
X5.6063Y-3.0268
X5.7063Y-1.3268
X5.7063Y-1.5268
X5.7063Y-1.6268
X5.7063Y-1.9268
X5.7063Y-2.4268
X5.7063Y-3.0268
X5.7276Y-3.289
X5.7276Y-4.8638
X5.7276Y-5.0606
X5.7276Y-5.6512
X5.7276Y-6.6354
X5.7276Y-6.8323
X5.7433Y-3.4325
X5.8063Y-1.3268
X5.8063Y-1.5268
X5.8063Y-1.6268
X5.8063Y-1.9268
X5.8063Y-2.4268
X5.8063Y-3.0268
X5.89Y-2.85
X5.9063Y-1.3268
X5.9063Y-1.5268
X5.9063Y-1.6268
X5.9063Y-1.9268
X5.9063Y-2.4268
X5.9063Y-3.0268
X5.9244Y-6.6354
X5.9244Y-6.8323
X5.95Y-2.15
X5.9677Y-4.1799
X5.99Y-1.77
X6.0063Y-1.3268
X6.0063Y-1.5268
X6.0063Y-1.6268
X6.0063Y-1.9268
X6.0063Y-2.4268
X6.0063Y-3.0268
X6.1063Y-1.3268
X6.1063Y-1.5268
X6.1063Y-1.6268
X6.1063Y-1.9268
X6.1063Y-2.4268
X6.1213Y-5.848
X6.1213Y-6.4386
X6.1213Y-6.6354
X6.1213Y-6.8323
X6.19Y-2.92
X6.2063Y-1.3268
X6.2063Y-1.5268
X6.2063Y-1.6268
X6.2063Y-1.9268
X6.2063Y-2.4268
X6.2319Y-4.9972
X6.3063Y-1.3268
X6.3063Y-1.5268
X6.3063Y-1.6268
X6.3063Y-1.9268
X6.3063Y-2.4268
X6.3181Y-4.0764
X6.3181Y-6.6354
X6.3181Y-6.8323
X6.35Y-2.85
X6.4063Y-1.3268
X6.4063Y-1.5268
X6.4063Y-1.6268
X6.4063Y-1.9268
X6.4063Y-2.4268
X6.43Y-2.92
X6.44Y-4.94
X6.5063Y-1.3268
X6.5063Y-1.5268
X6.5063Y-1.6268
X6.5063Y-1.9268
X6.5063Y-2.4268
X6.515Y-3.289
X6.515Y-5.6512
X6.515Y-6.6354
X6.515Y-6.8323
X6.5488Y-5.8051
X6.5661Y-3.4423
X6.6Y-2.18
X6.6063Y-1.3268
X6.6063Y-1.5268
X6.6063Y-1.6268
X6.6063Y-1.9268
X6.6063Y-2.4268
X6.63Y-1.77
X6.7063Y-1.3268
X6.7063Y-1.5268
X6.7063Y-1.6268
X6.7063Y-2.4268
X6.7118Y-5.6512
X6.7118Y-6.6354
X6.7118Y-6.8323
X6.72Y-2.92
X6.785Y-4.1768
X6.8Y-2.85
X6.8063Y-1.3268
X6.8063Y-1.5268
X6.8063Y-1.6268
X6.8063Y-2.4268
X6.86Y-2.18
X6.9063Y-1.3268
X6.9063Y-1.5268
X6.9063Y-1.6268
X6.9063Y-1.9268
X6.9063Y-2.4268
X6.9087Y-5.848
X6.9087Y-6.4386
X6.9087Y-6.6354
X6.9087Y-6.8323
X6.94Y-2.92
X7.057Y-4.9901
X7.0693Y-1.4323
X7.1055Y-4.0764
X7.1055Y-6.6354
X7.1055Y-6.8323
X7.1063Y-1.3268
X7.1063Y-1.9268
X7.1063Y-2.4268
X7.13Y-1.53
X7.15Y-2.92
X7.16Y-2.18
X7.1699Y-1.74
X7.2063Y-1.3268
X7.2063Y-2.4268
X7.21Y-4.89
X7.2487Y-1.4487
X7.26Y-2.85
X7.3024Y-3.289
X7.3024Y-4.0764
X7.3024Y-5.6512
X7.3024Y-6.6354
X7.3024Y-6.8323
X7.3063Y-2.4268
X7.36Y-1.58
X7.36Y-1.88
X7.38Y-2.18
X7.3803Y-3.4362
X7.4Y-2.92
X7.4063Y-2.4268
X7.4264Y-1.5748
X7.4291Y-5.8106
X7.44Y-1.33
X7.4657Y-1.7248
X7.4665Y-1.6496
X7.4992Y-5.6512
X7.4992Y-6.6354
X7.4992Y-6.8323
X7.5063Y-2.4268
X7.5134Y-1.7248
X7.5355Y-2.9983
X7.54Y-1.65
X7.6004Y-4.1768
X7.6047Y-1.5736
X7.6062Y-2.838
X7.6063Y-1.3268
X7.6102Y-2.9966
X7.6177Y-2.3839
X7.64Y-1.88
X7.6564Y-2.838
X7.6862Y-2.5225
X7.6909Y-2.1898
X7.6961Y-6.4386
X7.6961Y-6.6354
X7.6961Y-6.8323
X7.7049Y-2.837
X7.7079Y-2.9717
X7.7413Y-2.525
X7.7433Y-2.3819
X7.7561Y-2.835
X7.7561Y-2.9719
X7.77Y-2.19
X7.8106Y-1.7421
X7.828Y-2.46
X7.84Y-1.6059
X7.8512Y-1.511
X7.8535Y-4.9902
X7.86Y-1.84
X7.8677Y-1.7469
X7.87Y-2.38
X7.8823Y-2.9553
X7.8929Y-4.0764
X7.8929Y-6.6354
X7.8929Y-6.8323
X7.9409Y-1.511
X7.95Y-2.53
X7.9618Y-1.8429
X7.9642Y-1.8087
X7.9675Y-2.1404
X7.9685Y-1.878
X7.97Y-2.0
X7.9705Y-1.6043
X7.98Y-2.9
X7.9828Y-1.6367
X8.05Y-4.92
X8.0571Y-3.0098
X8.06Y-2.38
X8.0632Y-1.5747
X8.0898Y-4.0764
X8.0898Y-5.6512
X8.0898Y-6.6354
X8.0898Y-6.8323
X8.09Y-1.36
X8.1Y-2.48
X8.1008Y-2.765
X8.1063Y-3.0067
X8.1279Y-1.5742
X8.13Y-1.79
X8.1555Y-2.7626
X8.1831Y-3.4319
X8.1923Y-1.9431
X8.195Y-1.5733
X8.2017Y-2.5353
X8.2055Y-2.7697
X8.2079Y-3.0075
X8.2259Y-2.0077
X8.2539Y-2.7736
X8.2594Y-3.0075
X8.2654Y-5.8189
X8.2656Y-1.7056
X8.27Y-1.79
X8.2709Y-2.1772
X8.28Y-2.38
X8.2866Y-4.0764
X8.2866Y-6.6354
X8.2866Y-6.8323
X8.33Y-1.92
X8.339Y-1.4878
X8.3433Y-1.5935
X8.361Y-1.4457
X8.3728Y-1.37
X8.3793Y-2.9547
X8.39Y-1.8
X8.4055Y-4.1673
X8.4058Y-1.5944
X8.4205Y-2.2028
X8.4205Y-2.2362
X8.4274Y-2.5909
X8.4461Y-2.461
X8.4524Y-2.5201
X8.46Y-1.7449
X8.4669Y-1.86
X8.4677Y-1.8945
X8.4694Y-1.8286
X8.47Y-2.9
X8.4726Y-2.6116
X8.4728Y-1.5939
X8.4835Y-6.4386
X8.4835Y-6.6354
X8.4835Y-6.8323
X8.5228Y-2.5919
X8.5358Y-2.5559
X8.5567Y-3.013
X8.5739Y-1.5954
X8.59Y-2.39
X8.6055Y-2.7691
X8.6063Y-1.7268
X8.6063Y-1.8268
X8.6063Y-1.9268
X8.6063Y-2.0268
X8.6063Y-2.1268
X8.6087Y-3.0126
X8.6539Y-2.7713
X8.6803Y-4.0764
X8.6803Y-4.9925
X8.6803Y-5.848
X8.6803Y-6.0449
X8.6803Y-6.2417
X8.6803Y-6.4386
X8.6803Y-6.6354
X8.6803Y-6.8323
X8.7028Y-2.7736
X8.7063Y-1.7268
X8.7063Y-2.1268
X8.7087Y-3.0118
X8.7095Y-2.5577
X8.7191Y-1.9263
X8.7209Y-1.8709
X8.7468Y-2.7765
X8.7583Y-3.0106
X8.7766Y-1.809
X8.7766Y-1.8718
X8.7782Y-1.9828
X8.7825Y-1.9263
X8.7894Y-2.435
X8.7935Y-2.5585
X8.8Y-4.85
X8.8063Y-1.7268
X8.8063Y-2.1268
X8.8307Y-1.9847
X8.8326Y-1.8718
X8.8338Y-1.9278
X8.8344Y-1.8081
X8.8529Y-2.4004
X8.8602Y-2.5622
X8.8772Y-5.6512
X8.8772Y-6.6354
X8.8772Y-6.8323
X8.8823Y-2.9529
X8.886Y-2.6244
X8.8926Y-1.8712
X8.8929Y-1.9269
X8.9063Y-1.7268
X8.9063Y-2.0268
X8.9063Y-2.1268
X8.9307Y-2.5821
X8.9362Y-3.0112
X8.9451Y-2.6382
X8.97Y-2.89
X8.9709Y-2.6643
X8.9772Y-3.4165
X8.9996Y-2.5799
X9.0063Y-1.8268
X9.0063Y-1.9268
X9.0063Y-2.0268
X9.0063Y-2.1268
X9.01Y-1.73
X9.0287Y-2.4945
X9.0724Y-1.6587
X9.074Y-3.289
X9.074Y-4.0764
X9.074Y-6.6354
X9.074Y-6.8323
X9.0799Y-5.8079
X9.1049Y-2.3661
X9.1091Y-3.0039
X9.1311Y-2.7622
X9.1476Y-1.7894
X9.1488Y-1.7417
X9.1634Y-1.6045
X9.1788Y-2.5562
X9.1833Y-2.7848
X9.2035Y-3.0055
X9.2118Y-4.1638
X9.2157Y-2.7809
X9.2445Y-2.7938
X9.2596Y-1.5943
X9.264Y-3.0067
X9.2709Y-3.4858
X9.2709Y-3.8795
X9.2709Y-6.6354
X9.2709Y-6.8323
X9.2819Y-2.1429
X9.2842Y-1.8824
X9.2925Y-2.5748
X9.3059Y-2.2291
X9.324Y-1.7181
X9.3264Y-2.0246
X9.3332Y-1.9814
X9.3685Y-1.8524
X9.37Y-1.45
X9.3722Y-2.6116
X9.3795Y-2.3846
X9.3825Y-2.9586
X9.4067Y-2.4846
X9.4142Y-1.8988
X9.4293Y-2.6352
X9.4638Y-2.5545
X9.4677Y-3.289
X9.4677Y-3.6827
X9.4677Y-4.0764
X9.4677Y-4.8638
X9.4677Y-6.6354
X9.4677Y-6.8323
X9.4705Y-1.9035
X9.4746Y-2.588
X9.48Y-2.9
X9.4815Y-4.9955
X9.5Y-1.53
X9.5083Y-2.0882
X9.5106Y-1.9575
X9.53Y-2.2197
X9.5311Y-2.3098
X9.5409Y-1.9075
X9.5543Y-3.0102
X9.5697Y-2.5528
X9.6Y-1.33
X9.6063Y-2.1268
X9.6094Y-2.7573
X9.6094Y-3.0083
X9.6546Y-2.5861
X9.6577Y-2.778
X9.6646Y-3.8795
X9.6646Y-4.0764
X9.6646Y-4.2732
X9.6646Y-4.4701
X9.6646Y-4.6669
X9.6646Y-5.6512
X9.6646Y-5.848
X9.6646Y-6.4386
X9.6646Y-6.6354
X9.6646Y-6.8323
X9.7059Y-3.0093
X9.7063Y-2.0268
X9.7063Y-2.3268
X9.7069Y-2.8016
X9.75Y-1.37
X9.7512Y-2.7868
X9.7568Y-2.4479
X9.7571Y-3.0093
X9.7708Y-1.7885
X9.775Y-1.6954
X9.7764Y-1.6555
X9.7906Y-2.6115
X9.8017Y-1.9033
X9.8063Y-1.5268
X9.8063Y-2.2268
X9.8063Y-2.3268
X9.85Y-2.6352
X9.8614Y-3.0921
X9.8614Y-3.289
X9.8614Y-3.4858
X9.8614Y-3.6827
X9.8614Y-3.8795
X9.8614Y-4.0764
X9.8614Y-4.2732
X9.8614Y-4.4701
X9.8614Y-4.6669
X9.8614Y-4.8638
X9.8614Y-5.0606
X9.8614Y-5.2575
X9.8614Y-5.4543
X9.8614Y-5.6512
X9.8614Y-5.848
X9.8614Y-6.0449
X9.8614Y-6.2417
X9.8614Y-6.4386
X9.8614Y-6.6354
X9.8816Y-2.9581
X9.89Y-2.8
X9.8999Y-2.5448
X9.9063Y-1.3268
X9.9063Y-2.2268
X9.9063Y-2.4268
T3
X8.2299Y-1.3232
X8.2969Y-1.3232
X9.437Y-1.324
X9.5039Y-1.324
T4
X7.8795Y-1.3624
X7.9976Y-1.3624
T5
X2.6213Y-1.3768
X2.6213Y-1.4768
X2.7213Y-1.3768
X2.7213Y-1.4768
X2.8213Y-1.3768
X2.8213Y-1.4768
X2.9213Y-1.3768
X2.9213Y-1.4768
X3.0213Y-1.3768
X3.0213Y-1.4768
X3.1213Y-1.3768
X3.1213Y-1.4768
X3.2213Y-1.3768
X3.2213Y-1.4768
X3.3213Y-1.3768
X3.3213Y-1.4768
X3.4213Y-1.3768
X3.4213Y-1.4768
T6
X2.2795Y-1.3926
X2.2795Y-1.6288
T7
X9.5697Y-2.0051
X9.5697Y-2.3988
T2
G00X7.3506Y-1.3531
M15
G01X7.3506Y-1.3217
M16
G05
G00X7.3506Y-1.5232
M15
G01X7.3506Y-1.4799
M16
G05
G00X7.6911Y-1.3531
M15
G01X7.6911Y-1.3217
M16
G05
G00X7.6911Y-1.5232
M15
G01X7.6911Y-1.4799
M16
G05
M30
